<svg width="119" height="32" viewBox="0 0 119 32" fill="none" xmlns="http://www.w3.org/2000/svg">
<g clip-path="url(#clip0_1319_574)">
<path d="M68.7348 3.47009L75.5369 6.14937L68.7348 8.68229V12.3011L80.3844 7.5976V4.7035L68.7348 0V3.47009Z" fill="white"/>
<path d="M6.28274 16.9312C3.02511 16.9312 0.638543 18.3782 0.421368 21.4163H4.04017V21.3455C4.11099 20.3328 5.05287 19.6104 6.06675 19.6931C7.4418 19.6931 8.09333 20.4886 8.09333 21.8648V22.5163H6.44091C2.89528 22.5163 0 23.6022 0 27.0015V27.1467C0 29.8968 2.02658 31.1266 4.48515 31.1266C6.00537 31.1975 7.37924 30.4751 8.24795 29.3172V30.9106H11.9387V21.7928C11.8679 18.3192 9.47782 16.9441 6.29455 16.9441L6.28274 16.9312ZM5.48722 28.4391C4.18417 28.4391 3.60582 27.7876 3.60582 26.8457V26.7005C3.60582 25.4706 4.54652 24.9655 6.43854 24.9655H7.95877V26.2685C8.02959 27.7156 6.80208 28.4403 5.49784 28.4403L5.48722 28.4391ZM20.6116 28.2916C18.8022 28.2916 17.8615 27.0617 17.8615 24.3116V23.8772C17.8615 21.1979 18.9474 19.8973 20.6116 19.8973C21.9147 19.8973 22.6382 20.766 22.8542 22.069H26.473C26.1838 18.5234 23.5789 16.9312 20.5384 16.9312C16.9196 16.9312 14.0255 19.3921 14.0255 24.013V24.1581C14.0255 28.7896 16.7756 31.1054 20.5384 31.1054C24.2292 31.1054 26.3278 28.8628 26.617 25.8224H23.1445C22.8554 27.3426 21.9147 28.2833 20.6116 28.2833V28.2916ZM34.7233 28.2916C32.9139 28.2916 31.9732 27.0617 31.9732 24.3116V23.8772C31.9732 21.1979 33.0591 19.8973 34.7233 19.8973C36.0263 19.8973 36.7499 20.766 36.9659 22.069H40.5847C40.2955 18.5234 37.6906 16.9312 34.6501 16.9312C31.0313 16.9312 28.1372 19.3921 28.1372 24.013V24.1581C28.1372 28.7896 30.8873 31.1054 34.6501 31.1054C38.3409 31.1054 40.4395 28.8628 40.6696 25.8224H37.268C37.0508 27.3426 36.0381 28.2833 34.7351 28.2833L34.7233 28.2916ZM48.979 28.3647C47.3265 28.3647 46.2997 27.424 46.1462 24.9631H54.9749V23.3579C54.9749 18.8727 52.1422 16.917 48.7512 16.917C45.0604 16.917 42.2383 19.4499 42.2383 23.9988V24.288C42.2383 28.8475 44.9175 31.1632 48.8243 31.1632C52.37 31.1632 54.5417 29.2098 54.9029 26.6037H51.3573C51.2121 27.6896 50.1274 28.4851 48.9695 28.3388L48.979 28.3647ZM48.7618 19.5361C50.282 19.5361 51.2227 20.4048 51.2947 22.4302H46.2289C46.518 20.2584 47.6039 19.5975 48.7618 19.5361Z" fill="white"/>
<path d="M65.2612 16.9312C63.5261 16.8604 61.9327 17.7267 61.136 19.2469V17.2204H57.3732V30.8257H61.136V22.1422C61.2068 20.9123 62.2927 19.8997 63.5238 19.9705C64.8988 19.9705 65.5504 20.694 65.5504 22.2862V30.8257H69.3863V21.7055C69.3863 18.3771 67.7339 16.9288 65.2612 16.9288V16.9312ZM76.4788 26.4834V20.0531H79.0837V17.2204H76.4788V13.0952L72.716 14.6886V17.2204H71.0635V20.0531H72.6569V26.9283C72.6569 29.6784 74.032 31.0535 77.0005 31.0535C77.724 31.0535 78.4475 30.9827 79.1722 30.7643V27.7841C78.7525 27.9265 78.3124 27.9998 77.8692 28.0012C77.0005 28.0012 76.4941 27.4937 76.4941 26.481L76.4788 26.4834ZM89.5766 25.6867V26.049C89.5057 27.2789 88.4199 28.2916 87.1888 28.2208C85.8138 28.2208 85.2354 27.4972 85.2354 25.905V17.2204H81.3994V26.4114C81.3994 29.5958 83.2088 31.1149 85.6686 31.1149C86.4846 31.1536 87.2945 30.9557 88.0006 30.5448C88.7067 30.1339 89.279 29.5277 89.6486 28.7991V30.8257H93.4845V17.2204H89.6486L89.5766 25.6867ZM99.9986 19.6671V17.1342H96.2358V30.7395H99.9986V23.7203C99.9986 21.4777 101.519 20.681 104.124 20.681V16.9182C102.242 16.9182 100.578 18.0029 99.9986 19.6671ZM118.017 23.2989C118.017 18.8138 115.184 16.9312 111.793 16.9312C108.103 16.9312 105.28 19.4641 105.28 24.013V24.3022C105.28 28.8617 107.96 31.1774 111.867 31.1774C115.412 31.1774 117.511 29.224 117.945 26.6179H114.399C114.11 27.7746 113.024 28.4993 111.867 28.4273C110.214 28.4273 109.187 27.4866 109.034 25.0257H117.875V23.2907L118.017 23.2989ZM109.188 22.4302C109.478 20.1876 110.563 19.5361 111.793 19.5361C113.314 19.5361 114.254 20.4048 114.326 22.4302H109.188Z" fill="white"/>
</g>
<defs>
<clipPath id="clip0_1319_574">
<rect width="118.017" height="31.1773" fill="white"/>
</clipPath>
</defs>
</svg>
