<svg width="133" height="31" viewBox="0 0 133 31" fill="none" xmlns="http://www.w3.org/2000/svg">
<path d="M43.0103 17.0063C41.9922 17.0063 40.9741 17.2277 40.3323 17.5375V11.1856C39.3363 11.5618 38.274 12.0708 37.3887 12.7791C36.9239 13.1553 36.7911 13.5316 36.7911 14.0849V29.7767C37.7428 30.175 39.6462 30.5292 41.4832 30.5292C46.1309 30.5292 48.7868 27.6962 48.7868 23.5796C48.8089 19.5294 46.9056 17.0063 43.0103 17.0063ZM41.7045 27.6298C41.3282 27.6298 40.7528 27.6298 40.3544 27.497V20.3483C40.8413 20.0827 41.5274 19.9499 42.4127 19.9499C44.2054 19.9499 45.135 21.1893 45.135 23.5132C45.135 25.9478 44.0284 27.6298 41.7045 27.6298ZM57.861 17.117C56.179 17.117 55.183 17.781 54.2756 18.954C54.1871 18.3564 54.0764 17.8695 53.8772 17.2719C53.5231 17.1613 52.9255 17.1391 52.4165 17.1391C51.9296 17.1391 51.3099 17.1834 50.9779 17.2719V30.2414C51.4205 30.3521 52.1288 30.3742 52.7706 30.3742C53.3682 30.3742 54.1649 30.33 54.5633 30.2414V23.8895C54.5633 21.3664 55.8913 20.0163 57.6618 20.0163C57.9717 20.0163 58.525 20.0163 58.8348 20.0606C59.034 19.2196 59.0562 18.0244 58.8791 17.2055C58.6578 17.1834 58.1487 17.117 57.861 17.117ZM12.9768 23.469V30.0865C12.9768 30.2636 13.1096 30.3742 13.2645 30.3742H15.1015V21.8976L13.2645 22.9599C13.0875 23.0706 12.9768 23.2255 12.9768 23.469ZM14.8359 7.22389C13.0432 7.22389 11.0734 7.40095 9.12581 7.73293C11.0956 5.20985 14.2162 3.57207 17.691 3.57207C20.2583 3.57207 22.8257 4.52376 24.552 5.98448C24.8618 6.25007 25.1053 6.2722 25.3487 6.02874C25.5922 5.80742 25.5701 5.56397 25.3045 5.25412C23.047 2.64251 19.7272 0.871933 15.8319 0.938329C10.7193 1.02686 6.38141 4.2803 4.72149 8.75102C3.2165 9.21579 1.82217 9.79123 0.582761 10.4773C0.250777 10.6765 0.117984 10.8978 0.250777 11.1856C0.361438 11.4512 0.604893 11.5397 0.936877 11.4511C1.99923 11.1413 3.08371 10.8978 4.21245 10.6323C4.10179 11.2298 4.01326 11.8274 4.01326 12.4692C3.92473 16.608 6.13796 20.5254 9.52419 22.6722C9.85617 22.8935 10.1439 22.8935 10.3431 22.6279C10.5423 22.3623 10.5201 22.1189 10.2324 21.8754C8.08559 19.9278 6.86832 17.0506 6.86832 14.1956C6.86832 12.757 7.15604 11.3626 7.70935 10.1011C8.83809 10.0126 10.0554 9.92402 11.4054 9.92402C20.1477 9.92402 27.5177 12.8012 27.5177 16.5858C27.5177 18.4892 25.0832 20.4147 22.206 21.6984C21.5199 22.0082 21.4313 22.2296 21.542 22.5173C21.6305 22.805 21.9625 22.8935 22.3166 22.7829C27.3628 21.1229 31.1695 18.4007 31.1695 15.1251C31.1695 10.6544 23.9544 7.22389 14.8359 7.22389ZM18.3771 20.0163L15.9425 21.4107V30.3521H18.5541C18.8197 30.3521 19.0189 30.1529 19.0189 29.8873V20.3483C19.0189 19.9942 18.6648 19.8614 18.3771 20.0163ZM126.759 16.9399C122.775 16.9399 120.54 19.6622 120.54 23.7567C120.54 27.9175 122.886 30.507 126.759 30.507C130.765 30.507 133 27.829 133 23.7567C133 19.6401 130.765 16.9399 126.759 16.9399ZM126.759 27.6741C124.789 27.6741 124.191 26.0806 124.191 23.7788C124.191 21.5435 124.789 19.8393 126.759 19.8393C128.795 19.8393 129.37 21.4992 129.37 23.7788C129.37 26.1691 128.684 27.6741 126.759 27.6741ZM92.0775 16.9399C88.2486 16.9399 85.8805 19.5073 85.8805 23.8231C85.8805 28.1167 88.3593 30.5292 92.6308 30.5292C94.0915 30.5292 95.6629 30.2636 96.681 29.7767C96.8802 28.9356 96.8802 27.8512 96.681 27.0101C95.3531 27.3864 94.2464 27.6077 93.007 27.6077C91.0373 27.6077 89.6651 26.8552 89.3552 24.7748H97.4335C97.5442 24.4649 97.5663 23.4026 97.5663 22.9599C97.6105 19.131 95.4195 16.9399 92.0775 16.9399ZM89.3773 22.1853C89.6429 20.6139 90.5725 19.6622 92.0111 19.6622C93.6046 19.6622 94.2464 20.7467 94.3128 22.1853H89.3773ZM116.799 27.6077C115.006 27.6077 113.856 26.2134 113.856 23.7345C113.856 21.3885 114.807 19.8614 116.821 19.8614C117.685 19.8614 118.282 19.9942 119.101 20.3262C119.322 19.5073 119.765 18.5999 120.363 17.8474C119.256 17.2719 118.149 16.9621 116.379 16.9621C112.461 16.9621 110.182 19.7507 110.182 23.7567C110.182 27.9175 112.506 30.5513 116.511 30.5513C117.972 30.5513 119.322 30.2857 120.407 29.6881C119.92 29.0684 119.389 28.2053 119.057 27.2093C118.061 27.5856 117.64 27.6077 116.799 27.6077ZM64.4343 16.9399C63.04 16.9178 61.8006 17.0727 60.6054 17.3826C60.3841 18.2015 60.4062 19.3524 60.6054 20.1934C62.0883 19.8393 62.9293 19.8171 63.881 19.8171C65.718 19.8171 66.6033 20.5696 66.6033 22.0968V22.2296C66.0721 22.1853 65.4081 22.1189 64.9433 22.1189C61.9112 22.1189 59.2996 23.2034 59.2996 26.1248C59.2996 29.4225 61.6456 30.5292 65.054 30.5292C66.6475 30.5292 68.396 30.2414 70.0116 29.7545V22.3402C69.9674 18.7769 68.064 17.0285 64.4343 16.9399ZM66.559 27.6077C66.3598 27.652 65.4745 27.7405 65.054 27.7405C63.4162 27.7405 62.5309 27.2536 62.5309 26.1027C62.5309 24.9518 63.4162 24.5092 65.054 24.5092C65.5852 24.5092 66.227 24.5534 66.559 24.5977V27.6077ZM80.3253 14.0849V17.2055C79.7056 17.0285 79.0195 17.0063 78.4661 17.0063C74.5487 17.0063 71.8707 19.6401 71.8707 23.8452C71.8707 28.1389 74.4823 30.5292 78.5547 30.5292C80.4138 30.5292 82.2508 30.2636 83.8885 29.7103V11.1634C82.8926 11.5397 81.8303 12.0487 80.945 12.757C80.4581 13.1553 80.3253 13.5316 80.3253 14.0849ZM80.3253 27.4306C79.7277 27.6077 79.3072 27.6298 78.8203 27.6298C76.4743 27.6298 75.5447 26.0806 75.5447 23.8452C75.5447 21.3664 76.4742 19.8393 78.776 19.8393C79.4621 19.8393 79.8826 19.9278 80.3253 20.0385V27.4306ZM105.755 22.5394L104.317 21.9418C103.476 21.5877 102.989 21.3221 102.989 20.7688C102.989 19.9278 103.741 19.7729 104.715 19.7729C105.689 19.7729 106.685 19.8835 108.057 20.304C108.234 19.3524 108.234 18.4671 108.057 17.626C107.194 17.1613 105.6 16.9399 104.184 16.9399C101.417 16.9399 99.3369 18.4228 99.3369 20.6582C99.3369 22.6501 100.2 23.6682 102.612 24.642L103.719 25.1067C104.781 25.5494 105.091 25.7929 105.091 26.479C105.091 27.497 104.073 27.6741 103.21 27.6741C101.771 27.6741 100.687 27.3864 99.3147 26.8995C99.0934 27.7405 99.0934 28.825 99.3147 29.6881C100.488 30.3078 102.103 30.5292 103.785 30.5292C106.508 30.5292 108.677 29.0906 108.677 26.5232C108.699 24.3985 107.769 23.4026 105.755 22.5394Z" fill="white"/>
</svg>
