<svg width="86" height="35" viewBox="0 0 86 35" fill="none" xmlns="http://www.w3.org/2000/svg">
<path fill-rule="evenodd" clip-rule="evenodd" d="M56.7175 17.1728C58.5364 15.3538 59.6679 12.8331 59.6679 10.0545C59.6679 4.4973 55.1563 0 49.6134 0C44.0563 0 39.559 4.51163 39.559 10.0545C39.559 12.8331 40.6904 15.3538 42.5094 17.1728C40.6904 18.9918 39.559 21.5126 39.559 24.2912C39.559 29.8483 44.0706 34.3456 49.6134 34.3456C55.1706 34.3456 59.6679 29.834 59.6679 24.2912C59.6679 21.5126 58.5364 18.9918 56.7175 17.1728Z" fill="#909798"/>
<path fill-rule="evenodd" clip-rule="evenodd" d="M37.5539 29.3175V9.19423C37.5539 6.41564 35.3052 4.16699 32.5266 4.16699C29.748 4.16699 27.4994 6.41564 27.4994 9.19423V29.3175C27.4994 32.0961 29.748 34.3447 32.5266 34.3447C35.3052 34.3447 37.5539 32.0961 37.5539 29.3175Z" fill="white"/>
<path fill-rule="evenodd" clip-rule="evenodd" d="M80.9084 4.16699H66.686C63.9075 4.16699 61.6588 6.41564 61.6588 9.19423C61.6588 11.9728 63.9075 14.2215 66.686 14.2215H68.7772V29.3175C68.7772 32.0961 71.0258 34.3447 73.8044 34.3447C76.583 34.3447 78.8316 32.0961 78.8316 29.3175V14.2215H80.9084C83.687 14.2215 85.9356 11.9728 85.9356 9.19423C85.95 6.41564 83.687 4.16699 80.9084 4.16699Z" fill="white"/>
<path fill-rule="evenodd" clip-rule="evenodd" d="M20.4813 34.3451C23.2599 34.3451 25.5085 32.0964 25.5085 29.3178C25.5085 26.5392 23.2599 24.2906 20.4813 24.2906H15.096C12.3174 24.2906 10.0687 22.0419 10.0687 19.2634C10.0687 16.4848 12.3174 14.2361 15.096 14.2361H20.4813C23.2599 14.2361 25.5085 11.9875 25.5085 9.20888C25.5085 6.43029 23.2599 4.18164 20.4813 4.18164H15.096C6.76021 4.18164 -6.10352e-05 10.9419 -6.10352e-05 19.2777C-6.10352e-05 27.6134 6.76021 34.3737 15.096 34.3737H20.4813V34.3451Z" fill="white"/>
<path fill-rule="evenodd" clip-rule="evenodd" d="M42.4951 17.1731C40.6762 15.3542 39.5447 12.8334 39.5447 10.0548C39.5447 4.69814 43.7412 0.315423 49.0263 0.0146484C48.1669 0.143552 47.3362 0.544584 46.663 1.21775C45.0159 2.86485 45.0016 5.51453 46.6201 7.13299L65.2967 25.7667C67.2589 27.7289 67.2589 30.9229 65.2967 32.8851C63.3345 34.8473 60.1406 34.8473 58.1784 32.8851L42.4951 17.1731Z" fill="white"/>
</svg>
