<svg width="135" height="25" viewBox="0 0 135 25" fill="none" xmlns="http://www.w3.org/2000/svg">
<mask id="mask0_1319_545" style="mask-type:luminance" maskUnits="userSpaceOnUse" x="0" y="0" width="37" height="25">
<path d="M12.421 5.87917C12.421 2.59187 14.961 0.00715668 18.198 0.0111149C21.3901 0.013094 23.9497 2.62156 23.9419 5.86136C23.9322 9.11304 21.3162 11.7551 18.1338 11.7274C14.9903 11.6997 12.4248 9.07345 12.4229 5.87917H12.421ZM24.8431 18.492C24.847 21.7536 27.3774 24.3284 30.589 24.3363C33.7831 24.3443 36.3505 21.7496 36.3583 18.5118C36.3641 15.2483 33.7812 12.6121 30.5812 12.62C27.4105 12.6279 24.8412 15.2582 24.8431 18.494V18.492ZM25.9448 2.39594C25.0826 3.57351 24.8879 4.91733 24.8023 6.33239C24.6057 9.55042 22.1512 12.1727 19.0564 12.5606C15.8506 12.9624 12.8764 11.1179 11.9071 8.01265C11.6112 7.06268 11.5879 6.01969 11.4594 5.01826C11.0818 2.07136 8.48328 -0.113573 5.4916 0.0130899C2.55832 0.137774 0.135008 2.56219 0.00654281 5.50314C-0.14528 8.93492 2.36174 11.6384 5.79526 11.7274C6.96702 11.7571 8.07649 12.0025 9.08085 12.626C11.2395 13.9658 12.3548 15.9291 12.421 18.5059C12.4832 20.9323 13.583 22.7392 15.7221 23.7782C19.4496 25.5911 23.7142 22.9648 23.9283 18.7671C23.9848 17.6667 24.0821 16.5842 24.5862 15.5926C25.8319 13.1425 27.7998 11.8264 30.5306 11.7334C33.8649 11.6206 36.3505 9.12293 36.3583 5.87719C36.3641 3.36174 34.7817 1.09171 32.479 0.313918C30.0382 -0.509391 27.465 0.321833 25.9448 2.39594ZM11.5256 18.5415C11.5626 15.3274 9.00106 12.6616 5.82641 12.6121C2.67512 12.5626 0.027948 15.1948 0.000697778 18.403C-0.0284989 21.6883 2.49799 24.3067 5.72129 24.3344C8.91346 24.3621 11.4886 21.7912 11.5256 18.5415Z" fill="white"/>
</mask>
<g mask="url(#mask0_1319_545)">
<path d="M-2.13464 -1.53302L-2.13464 25.1929L39.5212 25.1929V-1.53302L-2.13464 -1.53302Z" fill="white"/>
</g>
<path d="M47.054 6.89258H52.8797V8.91325H49.0705V10.8745H52.8797V12.8596H49.0705V15.7135H52.8797V17.7421H47.054V6.89258Z" fill="white"/>
<path d="M54.4115 6.61914H56.391V17.7417H54.4115V6.61914Z" fill="white"/>
<path d="M64.0892 9.71559H66.0687V17.7409H64.0892V16.8918C63.7018 17.2659 63.3145 17.535 62.9272 17.6993C62.5379 17.8636 62.1174 17.9467 61.662 17.9467C60.642 17.9467 59.7603 17.5449 59.0167 16.7414C58.2732 15.9379 57.9014 14.9385 57.9014 13.7431C57.9014 12.5477 58.2615 11.4889 58.9817 10.6972C59.7019 9.90559 60.5758 9.50977 61.6055 9.50977C62.0785 9.50977 62.5223 9.60081 62.9388 9.78288C63.3534 9.96496 63.7388 10.2381 64.0911 10.6022V9.71757L64.0892 9.71559ZM62.0065 11.3681C61.3934 11.3681 60.8853 11.5878 60.4805 12.0292C60.0756 12.4685 59.8732 13.0346 59.8732 13.7213C59.8732 14.4081 60.0795 14.986 60.4922 15.4332C60.9048 15.8805 61.4109 16.1042 62.0143 16.1042C62.6177 16.1042 63.151 15.8845 63.5617 15.4431C63.9704 15.0038 64.1768 14.4259 64.1768 13.7134C64.1768 13.0009 63.9724 12.4507 63.5617 12.0173C63.1529 11.5839 62.6332 11.3681 62.0065 11.3681Z" fill="white"/>
<path d="M72.9767 10.8392L71.7504 12.086C71.2521 11.5853 70.8006 11.3339 70.3938 11.3339C70.1719 11.3339 69.9967 11.3814 69.8721 11.4784C69.7456 11.5734 69.6833 11.6941 69.6833 11.8366C69.6833 11.9455 69.7242 12.0444 69.802 12.1355C69.8818 12.2265 70.0784 12.3512 70.3938 12.5075L71.1198 12.8757C71.8847 13.2596 72.4083 13.6495 72.6945 14.0493C72.9806 14.4471 73.1227 14.9141 73.1227 15.4505C73.1227 16.163 72.8657 16.7587 72.3499 17.2356C71.8341 17.7126 71.1451 17.9521 70.2789 17.9521C69.1286 17.9521 68.2099 17.4949 67.5228 16.5806L68.7412 15.2308C68.9729 15.5059 69.2454 15.7295 69.5568 15.8978C69.8682 16.066 70.1446 16.1531 70.3879 16.1531C70.6487 16.1531 70.859 16.0897 71.0186 15.9611C71.1782 15.8325 71.258 15.686 71.258 15.5178C71.258 15.2071 70.9699 14.9062 70.3938 14.6113L69.7261 14.2729C68.4493 13.6198 67.8108 12.8005 67.8108 11.8168C67.8108 11.1835 68.0522 10.6413 68.533 10.19C69.0137 9.74076 69.6288 9.51514 70.3782 9.51514C70.8901 9.51514 71.3728 9.62993 71.8244 9.85752C72.276 10.0851 72.6594 10.4137 72.9748 10.8411L72.9767 10.8392Z" fill="white"/>
<path d="M75.4409 6.76025H77.4204V9.71704H78.5961V11.4507H77.4204V17.7423H75.4409V11.4507H74.4249V9.71704H75.4409V6.76025Z" fill="white"/>
<path d="M81.0525 6.41406C81.399 6.41406 81.6968 6.54271 81.9459 6.79801C82.195 7.05332 82.3177 7.36403 82.3177 7.72819C82.3177 8.09234 82.1951 8.39317 81.9479 8.6465C81.7026 8.89982 81.4087 9.02648 81.0661 9.02648C80.7235 9.02648 80.414 8.89784 80.1649 8.63858C79.9158 8.38129 79.7932 8.06662 79.7932 7.6985C79.7932 7.33039 79.9158 7.04143 80.161 6.79207C80.4063 6.54072 80.7041 6.41604 81.0505 6.41604L81.0525 6.41406ZM80.0617 9.71917H82.0413V17.7445H80.0617V9.71917Z" fill="white"/>
<path d="M91.536 11.3385L89.8874 12.2608C89.5779 11.9322 89.2703 11.7026 88.9686 11.574C88.6669 11.4454 88.3107 11.382 87.9039 11.382C87.1623 11.382 86.5648 11.6076 86.1054 12.0549C85.648 12.5042 85.4183 13.0801 85.4183 13.7827C85.4183 14.4853 85.6383 15.0216 86.0801 15.455C86.52 15.8865 87.1001 16.1022 87.8164 16.1022C88.702 16.1022 89.393 15.7954 89.8854 15.1799L91.4465 16.2665C90.5998 17.3866 89.4066 17.9447 87.8631 17.9447C86.4753 17.9447 85.3872 17.5272 84.6028 16.69C83.8164 15.8548 83.4232 14.8752 83.4232 13.755C83.4232 12.9772 83.614 12.2627 83.9955 11.6096C84.377 10.9545 84.9103 10.442 85.5955 10.0679C86.2806 9.69385 87.0456 9.50781 87.8923 9.50781C88.6767 9.50781 89.3793 9.66614 90.0041 9.9828C90.627 10.2995 91.1389 10.7507 91.5341 11.3365L91.536 11.3385Z" fill="white"/>
<path d="M106.197 8.71225L104.776 10.0897C103.81 9.05068 102.722 8.53215 101.513 8.53215C100.494 8.53215 99.6352 8.88641 98.9364 9.59493C98.2376 10.3035 97.8892 11.1782 97.8892 12.2153C97.8892 12.9396 98.043 13.5809 98.3525 14.1429C98.6619 14.705 99.0999 15.1444 99.6644 15.465C100.229 15.7856 100.858 15.9439 101.549 15.9439C102.138 15.9439 102.677 15.8311 103.164 15.6075C103.653 15.3838 104.188 14.9761 104.774 14.3864L106.15 15.8469C105.362 16.6287 104.616 17.171 103.915 17.4738C103.215 17.7766 102.415 17.927 101.513 17.927C99.8551 17.927 98.4965 17.3926 97.4396 16.3219C96.3827 15.2532 95.8552 13.8817 95.8552 12.2093C95.8552 11.1268 96.0965 10.1669 96.5773 9.32578C97.0581 8.48466 97.7471 7.80978 98.6444 7.29719C99.5417 6.78658 100.507 6.5293 101.543 6.5293C102.422 6.5293 103.271 6.71929 104.085 7.0973C104.9 7.47531 105.601 8.01363 106.193 8.71027L106.197 8.71225Z" fill="white"/>
<path d="M111.621 9.42532C112.367 9.42532 113.066 9.61531 113.722 9.99332C114.378 10.3713 114.888 10.8859 115.255 11.535C115.623 12.1842 115.806 12.8848 115.806 13.6369C115.806 14.3889 115.621 15.1014 115.252 15.7604C114.882 16.4195 114.378 16.9341 113.739 17.3061C113.101 17.6782 112.398 17.8623 111.627 17.8623C110.496 17.8623 109.529 17.4526 108.729 16.6352C107.929 15.8159 107.528 14.8223 107.528 13.6507C107.528 12.396 107.98 11.351 108.885 10.5158C109.677 9.78749 110.59 9.42334 111.619 9.42334L111.621 9.42532ZM111.655 11.3213C111.039 11.3213 110.528 11.539 110.117 11.9744C109.708 12.4098 109.504 12.9659 109.504 13.6448C109.504 14.3236 109.706 14.9094 110.111 15.3409C110.516 15.7743 111.028 15.99 111.649 15.99C112.27 15.99 112.785 15.7723 113.196 15.333C113.607 14.8956 113.813 14.3315 113.813 13.6448C113.813 12.958 113.611 12.3979 113.206 11.9665C112.801 11.537 112.283 11.3213 111.655 11.3213Z" fill="white"/>
<path d="M123.314 6.53369H125.293V17.6563H123.314V16.8072C122.926 17.1813 122.539 17.4505 122.152 17.6147C121.762 17.779 121.342 17.8621 120.886 17.8621C119.866 17.8621 118.985 17.4604 118.241 16.6568C117.498 15.8533 117.126 14.8539 117.126 13.6585C117.126 12.4631 117.486 11.4043 118.206 10.6126C118.926 9.82099 119.8 9.42517 120.83 9.42517C121.303 9.42517 121.747 9.51621 122.163 9.69828C122.578 9.88036 122.963 10.1535 123.316 10.5176V6.53369H123.314ZM121.231 11.2836C120.618 11.2836 120.11 11.5032 119.705 11.9446C119.3 12.3839 119.098 12.95 119.098 13.6367C119.098 14.3235 119.304 14.9014 119.717 15.3486C120.129 15.7959 120.635 16.0196 121.239 16.0196C121.842 16.0196 122.375 15.7999 122.786 15.3585C123.195 14.9192 123.401 14.3413 123.401 13.6288C123.401 12.9163 123.197 12.3661 122.786 11.9327C122.377 11.4993 121.858 11.2836 121.231 11.2836Z" fill="white"/>
<path d="M135 13.2435L128.809 14.7338C129.027 15.2682 129.369 15.6521 129.832 15.8856C130.298 16.1192 130.831 16.1647 131.432 16.0202C132.152 15.8461 132.711 15.4423 133.11 14.805L134.914 15.189C134.646 15.8698 134.26 16.418 133.762 16.8336C133.262 17.2492 132.625 17.5501 131.849 17.7381C130.644 18.027 129.573 17.8766 128.635 17.2869C127.697 16.6971 127.094 15.8203 126.823 14.6566C126.547 13.4652 126.693 12.3846 127.265 11.4168C127.837 10.4471 128.692 9.82562 129.832 9.5525C131.041 9.26157 132.117 9.41792 133.058 10.0235C133.998 10.6291 134.619 11.5771 134.92 12.8695L135 13.2455V13.2435ZM132.713 12.1629C132.485 11.7592 132.151 11.4643 131.713 11.2822C131.275 11.1002 130.807 11.0685 130.313 11.1872C129.776 11.3159 129.34 11.5831 129.005 11.9868C128.795 12.2401 128.637 12.634 128.534 13.1683L132.713 12.1629Z" fill="white"/>
</svg>
