<svg width="30" height="30" viewBox="0 0 30 30" fill="none" xmlns="http://www.w3.org/2000/svg">
<path d="M15.3 0.600098C11.4013 0.600098 7.66229 2.14884 4.90551 4.90563C2.14872 7.66241 0.599976 11.4014 0.599976 15.3001C0.599976 19.1988 2.14872 22.9378 4.90551 25.6946C7.66229 28.4514 11.4013 30.0001 15.3 30.0001C19.1987 30.0001 22.9377 28.4514 25.6944 25.6946C28.4512 22.9378 30 19.1988 30 15.3001C30 11.4014 28.4512 7.66241 25.6944 4.90563C22.9377 2.14884 19.1987 0.600098 15.3 0.600098ZM27.55 11.1841C27.3287 11.9084 26.9607 12.5795 26.469 13.1555C25.9773 13.7315 25.3723 14.2002 24.6916 14.5324C24.329 13.1711 23.659 11.911 22.7331 10.8491C21.8071 9.7873 20.65 8.95198 19.3506 8.40743C19.5621 7.68271 20.0181 7.05361 20.641 6.6271C19.9386 6.16976 19.0076 5.9411 18.4523 6.74143C17.5866 7.86843 18.4523 9.3711 18.7953 10.0081V10.2368C17.8884 9.6867 17.1793 8.86324 16.77 7.88476C15.1918 7.83408 13.6307 8.22435 12.262 9.01176C12.1199 8.08959 12.2097 7.14654 12.5233 6.26776C13.1131 6.32406 13.7077 6.23431 14.2546 6.00643C14.8016 5.77855 15.284 5.41954 15.6593 4.9611C16.4106 4.11176 15.447 3.03376 14.6956 2.38043H15.2836C17.5072 2.36543 19.6966 2.92825 21.6373 4.01376C22.7342 4.82447 23.6363 5.86984 24.2778 7.0736C24.9192 8.27736 25.2838 9.60914 25.345 10.9718C25.737 10.9718 26.4883 10.0734 26.8313 9.4691C27.1122 10.0228 27.3523 10.5961 27.55 11.1841ZM15.3 28.1054C11.9516 24.7081 15.7083 21.9804 13.6666 19.5468C12.164 18.1584 9.92631 19.1221 8.58698 17.5378C8.36089 16.3566 8.45862 15.1363 8.86983 14.0062C9.28103 12.8762 9.99037 11.8784 10.9226 11.1188C11.772 10.4001 17.456 9.48543 19.7753 11.4781C21.1319 12.6465 22.0862 14.2123 22.503 15.9534C23.2525 16.0101 24.0022 15.8454 24.659 15.4798C25.3286 20.3471 19.514 26.4884 15.3 28.1054ZM9.01164 4.01376C9.63587 3.77577 10.3216 3.75255 10.9605 3.94777C11.5994 4.14299 12.155 4.54552 12.5396 5.09176C11.8536 5.71243 11.0043 6.12076 10.0896 6.26776C10.1234 5.78682 10.228 5.3135 10.4 4.8631L9.01164 4.01376Z" fill="url(#paint0_linear_996_164)"/>
<defs>
<linearGradient id="paint0_linear_996_164" x1="55.7902" y1="0.60015" x2="7.6247" y2="-11.6024" gradientUnits="userSpaceOnUse">
<stop stop-color="#E50071"/>
<stop offset="0.57" stop-color="#7404BF"/>
<stop offset="1" stop-color="#5271DC"/>
</linearGradient>
</defs>
</svg>
