<svg width="26" height="26" viewBox="0 0 26 26" fill="none" xmlns="http://www.w3.org/2000/svg">
<path d="M12.7 0C9.33175 0 6.10146 1.33803 3.71974 3.71974C1.33803 6.10146 0 9.33175 0 12.7C0 16.0682 1.33803 19.2985 3.71974 21.6803C6.10146 24.062 9.33175 25.4 12.7 25.4C16.0682 25.4 19.2985 24.062 21.6803 21.6803C24.062 19.2985 25.4 16.0682 25.4 12.7C25.4 9.33175 24.062 6.10146 21.6803 3.71974C19.2985 1.33803 16.0682 0 12.7 0ZM23.2833 9.144C23.0922 9.76978 22.7743 10.3495 22.3494 10.8472C21.9246 11.3449 21.4019 11.7498 20.8139 12.0368C20.5006 10.8606 19.9217 9.77199 19.1218 8.85462C18.3218 7.93724 17.3221 7.21557 16.1996 6.74511C16.3823 6.119 16.7762 5.57549 17.3143 5.207C16.7076 4.81189 15.9032 4.61433 15.4234 5.30578C14.6756 6.27944 15.4234 7.57767 15.7198 8.128V8.32556C14.9363 7.85033 14.3237 7.1389 13.97 6.29356C12.6065 6.24976 11.2578 6.58694 10.0753 7.26722C9.95258 6.47051 10.0302 5.65577 10.3011 4.89656C10.8107 4.9452 11.3244 4.86766 11.7969 4.67078C12.2694 4.4739 12.6862 4.16374 13.0104 3.76767C13.6596 3.03389 12.827 2.10256 12.1779 1.53811H12.6859C14.607 1.52515 16.4985 2.0114 18.1751 2.94922C19.1228 3.64963 19.9022 4.55277 20.4563 5.59275C21.0105 6.63274 21.3255 7.78332 21.3783 8.96056C21.717 8.96056 22.3661 8.18444 22.6624 7.66233C22.9052 8.1407 23.1126 8.636 23.2833 9.144ZM12.7 23.7631C9.80722 20.828 13.0528 18.4714 11.2889 16.3689C9.99067 15.1694 8.05744 16.002 6.90033 14.6332C6.705 13.6128 6.78944 12.5585 7.1447 11.5822C7.49996 10.6058 8.11279 9.74384 8.91822 9.08756C9.652 8.46667 14.5627 7.67644 16.5664 9.398C17.7384 10.4074 18.5629 11.7602 18.923 13.2644C19.5706 13.3134 20.2182 13.1711 20.7857 12.8552C21.3642 17.0603 16.3407 22.3661 12.7 23.7631ZM7.26722 2.94922C7.80652 2.74361 8.39896 2.72354 8.95093 2.8922C9.50291 3.06086 9.98295 3.40863 10.3152 3.88056C9.72256 4.41678 8.98878 4.76956 8.19856 4.89656C8.22774 4.48105 8.31808 4.07213 8.46667 3.683L7.26722 2.94922Z" fill="#FAF1F1"/>
</svg>
