<svg width="32" height="32" viewBox="0 0 32 32" fill="none" xmlns="http://www.w3.org/2000/svg">
<path fill-rule="evenodd" clip-rule="evenodd" d="M5.5 4H26.5C26.8978 4 27.2794 4.15804 27.5607 4.43934C27.842 4.72064 28 5.10218 28 5.5V26.5C28 26.8978 27.842 27.2794 27.5607 27.5607C27.2794 27.842 26.8978 28 26.5 28H5.5C5.10218 28 4.72064 27.842 4.43934 27.5607C4.15804 27.2794 4 26.8978 4 26.5V5.5C4 5.10218 4.15804 4.72064 4.43934 4.43934C4.72064 4.15804 5.10218 4 5.5 4ZM1 5.5C1 4.30653 1.47411 3.16193 2.31802 2.31802C3.16193 1.47411 4.30653 1 5.5 1H26.5C27.6935 1 28.8381 1.47411 29.682 2.31802C30.5259 3.16193 31 4.30653 31 5.5V26.5C31 27.6935 30.5259 28.8381 29.682 29.682C28.8381 30.5259 27.6935 31 26.5 31H5.5C4.30653 31 3.16193 30.5259 2.31802 29.682C1.47411 28.8381 1 27.6935 1 26.5V5.5ZM16 16C11.8585 16 8.5 11.971 8.5 7H11.5C11.5 10.849 14.005 13 16 13C17.995 13 20.5 10.849 20.5 7H23.5C23.5 11.971 20.1415 16 16 16Z" fill="url(#paint0_linear_30_5)" stroke="#EDEDED" stroke-width="1.32"/>
<path d="M8.61973 25V19.7733H10.8821C11.35 19.7733 11.7532 19.8505 12.0917 20.0048C12.4302 20.1541 12.6916 20.3707 12.8757 20.6544C13.0599 20.9381 13.152 21.2766 13.152 21.6699C13.152 22.0581 13.0599 22.3941 12.8757 22.6779C12.6916 22.9616 12.4302 23.1806 12.0917 23.3349C11.7532 23.4843 11.35 23.5589 10.8821 23.5589H9.29173L9.82933 23.0139V25H8.61973ZM9.82933 23.1483L9.29173 22.5733H10.8149C11.1883 22.5733 11.467 22.4937 11.6512 22.3344C11.8354 22.1751 11.9275 21.9536 11.9275 21.6699C11.9275 21.3812 11.8354 21.1572 11.6512 20.9979C11.467 20.8386 11.1883 20.7589 10.8149 20.7589H9.29173L9.82933 20.184V23.1483ZM13.9036 25V19.7733H16.166C16.6339 19.7733 17.0371 19.8505 17.3756 20.0048C17.7141 20.1541 17.9754 20.3707 18.1596 20.6544C18.3437 20.9381 18.4358 21.2766 18.4358 21.6699C18.4358 22.0581 18.3437 22.3941 18.1596 22.6779C17.9754 22.9616 17.7141 23.1806 17.3756 23.3349C17.0371 23.4843 16.6339 23.5589 16.166 23.5589H14.5756L15.1132 23.0139V25H13.9036ZM15.1132 23.1483L14.5756 22.5733H16.0988C16.4721 22.5733 16.7509 22.4937 16.935 22.3344C17.1192 22.1751 17.2113 21.9536 17.2113 21.6699C17.2113 21.3812 17.1192 21.1572 16.935 20.9979C16.7509 20.8386 16.4721 20.7589 16.0988 20.7589H14.5756L15.1132 20.184V23.1483ZM20.2999 21.8789H22.8162V22.8197H20.2999V21.8789ZM20.3895 24.0293H23.2343V25H19.1874V19.7733H23.1373V20.744H20.3895V24.0293Z" fill="url(#paint1_linear_30_5)"/>
<defs>
<linearGradient id="paint0_linear_30_5" x1="57.3166" y1="1.00005" x2="8.16809" y2="-11.4516" gradientUnits="userSpaceOnUse">
<stop stop-color="#E50071"/>
<stop offset="0.57" stop-color="#7404BF"/>
<stop offset="1" stop-color="#5271DC"/>
</linearGradient>
<linearGradient id="paint1_linear_30_5" x1="38.0355" y1="16" x2="12.9975" y2="7.54229" gradientUnits="userSpaceOnUse">
<stop stop-color="#E50071"/>
<stop offset="0.57" stop-color="#7404BF"/>
<stop offset="1" stop-color="#5271DC"/>
</linearGradient>
</defs>
</svg>
