<svg width="30" height="30" viewBox="0 0 30 30" fill="none" xmlns="http://www.w3.org/2000/svg">
<path d="M7.78125 20.0475C8.42375 20.0475 8.9675 19.8187 9.4125 19.3612C9.85875 18.9025 10.0819 18.3525 10.0819 17.7112V12.2531C10.0819 11.6106 9.85875 11.0669 9.4125 10.6219C8.96625 10.1769 8.4225 9.95375 7.78125 9.9525H4.94062C4.70312 9.9525 4.505 10.0312 4.34625 10.1887C4.18875 10.3462 4.11 10.5437 4.11 10.7812V19.2187C4.11 19.4562 4.18875 19.6537 4.34625 19.8112C4.50375 19.9687 4.70187 20.0475 4.94062 20.0475H7.78125ZM5.6175 18.5419V11.46H7.78125C8.04625 11.46 8.24437 11.5256 8.37562 11.6569C8.50687 11.7881 8.57312 11.9862 8.57437 12.2512V17.7112C8.57437 17.9762 8.50812 18.1806 8.37562 18.3244C8.24312 18.4681 8.045 18.5406 7.78125 18.5419H5.6175ZM13.1794 20.0475H16.3819C16.5906 20.0475 16.7662 19.9744 16.9087 19.8281C17.0512 19.6819 17.1231 19.5006 17.1244 19.2844C17.1244 19.0744 17.0525 18.8981 16.9087 18.7556C16.7662 18.6131 16.5906 18.5419 16.3819 18.5419H13.35V15.7425H15.2156C15.4319 15.7425 15.6112 15.6712 15.7537 15.5287C15.8962 15.385 15.9675 15.205 15.9675 14.9887C15.9675 14.7725 15.8962 14.5931 15.7537 14.4506C15.6112 14.3081 15.4312 14.2362 15.2137 14.235H13.35V11.46H16.3687C16.585 11.46 16.7644 11.3881 16.9069 11.2444C17.0506 11.1019 17.1225 10.9225 17.1225 10.7062C17.1225 10.49 17.0506 10.31 16.9069 10.1662C16.7631 10.0225 16.5837 9.95125 16.3687 9.9525H13.1775C12.8187 9.9525 12.5062 10.085 12.24 10.35C11.9737 10.615 11.8412 10.9275 11.8425 11.2875V18.7125C11.8425 19.0712 11.9756 19.3837 12.2419 19.65C12.5081 19.9162 12.82 20.0487 13.1775 20.0475M22.365 20.0381C22.7237 20.0381 23.0331 19.9112 23.2931 19.6575C23.5531 19.4037 23.7306 19.0975 23.8256 18.7387L25.9669 10.9144C26.0369 10.6669 25.9987 10.445 25.8525 10.2487C25.705 10.0512 25.4956 9.9525 25.2244 9.9525C25.0469 9.9525 24.8925 10.0044 24.7612 10.1081C24.63 10.2131 24.5331 10.3544 24.4706 10.5319L22.365 18.1819L20.1769 10.4962C20.1144 10.3187 20.0194 10.1837 19.8919 10.0912C19.7644 9.99875 19.6119 9.9525 19.4344 9.9525C19.1619 9.9525 18.9525 10.0512 18.8062 10.2487C18.66 10.445 18.6212 10.6669 18.69 10.9144L20.8687 18.7387C20.9625 19.0975 21.1456 19.4037 21.4181 19.6575C21.6906 19.9112 22.0062 20.0381 22.365 20.0381ZM3.03 30C2.16625 30 1.44562 29.7112 0.868124 29.1337C0.290625 28.5562 0.00125 27.835 0 26.97V3.03C0 2.16625 0.289375 1.44562 0.868124 0.868124C1.44687 0.290625 2.1675 0.00125 3.03 0H26.9719C27.8344 0 28.555 0.289375 29.1337 0.868124C29.7125 1.44687 30.0012 2.1675 30 3.03V26.9719C30 27.8344 29.7112 28.555 29.1337 29.1337C28.5562 29.7125 27.835 30.0012 26.97 30H3.03ZM3.03 28.125H26.9719C27.2594 28.125 27.5237 28.005 27.765 27.765C28.0062 27.525 28.1262 27.26 28.125 26.97V3.03C28.125 2.74125 28.005 2.47625 27.765 2.235C27.525 1.99375 27.26 1.87375 26.97 1.875H3.03C2.74125 1.875 2.47625 1.995 2.235 2.235C1.99375 2.475 1.87375 2.74 1.875 3.03V26.9719C1.875 27.2594 1.995 27.5237 2.235 27.765C2.475 28.0062 2.73937 28.1262 3.02812 28.125" fill="url(#paint0_linear_996_205)"/>
<defs>
<linearGradient id="paint0_linear_996_205" x1="56.3166" y1="5.29442e-05" x2="7.16809" y2="-12.4516" gradientUnits="userSpaceOnUse">
<stop stop-color="#E50071"/>
<stop offset="0.57" stop-color="#7404BF"/>
<stop offset="1" stop-color="#5271DC"/>
</linearGradient>
</defs>
</svg>
