<svg width="23" height="28" viewBox="0 0 23 28" fill="none" xmlns="http://www.w3.org/2000/svg">
<path d="M21 14V6.18625C21.0001 6.08758 20.9807 5.98987 20.9429 5.8987C20.9052 5.80754 20.8498 5.72473 20.78 5.655L16.845 1.72C16.7045 1.57931 16.5138 1.50018 16.315 1.5H1.75C1.55109 1.5 1.36032 1.57902 1.21967 1.71967C1.07902 1.86032 1 2.05109 1 2.25V25.75C1 25.9489 1.07902 26.1397 1.21967 26.2803C1.36032 26.421 1.55109 26.5 1.75 26.5H9.75M6 11.5H16M6 6.5H11M6 16.5H9.75" stroke="url(#paint0_linear_29_15)" stroke-width="1.5" stroke-linecap="round" stroke-linejoin="round"/>
<path d="M16.0001 1.5V5.75C16.0001 5.94891 16.0791 6.13968 16.2197 6.28033C16.3604 6.42098 16.5511 6.5 16.7501 6.5H21.0001M16.3826 20.3913L17.5188 17.9825C17.5495 17.9136 17.5995 17.8551 17.6627 17.8141C17.7259 17.773 17.7997 17.7512 17.8751 17.7512C17.9504 17.7512 18.0242 17.773 18.0874 17.8141C18.1507 17.8551 18.2006 17.9136 18.2313 17.9825L19.3688 20.3913L21.9088 20.78C22.2351 20.83 22.3651 21.25 22.1301 21.49L20.2913 23.365L20.7251 26.0125C20.7801 26.3525 20.4388 26.6125 20.1476 26.4513L17.8751 25.2013L15.6026 26.4513C15.3101 26.6125 14.9701 26.3525 15.0251 26.0125L15.4588 23.365L13.6213 21.49C13.3838 21.25 13.5151 20.83 13.8413 20.78L16.3826 20.3913Z" stroke="url(#paint1_linear_29_15)" stroke-width="1.5" stroke-linecap="round" stroke-linejoin="round"/>
<defs>
<linearGradient id="paint0_linear_29_15" x1="38.5444" y1="1.50004" x2="5.0515" y2="-5.28821" gradientUnits="userSpaceOnUse">
<stop stop-color="#E50071"/>
<stop offset="0.57" stop-color="#7404BF"/>
<stop offset="1" stop-color="#5271DC"/>
</linearGradient>
<linearGradient id="paint1_linear_29_15" x1="29.9255" y1="1.50004" x2="14.7896" y2="0.157951" gradientUnits="userSpaceOnUse">
<stop stop-color="#E50071"/>
<stop offset="0.57" stop-color="#7404BF"/>
<stop offset="1" stop-color="#5271DC"/>
</linearGradient>
</defs>
</svg>
