<svg width="12" height="13" viewBox="0 0 12 13" fill="none" xmlns="http://www.w3.org/2000/svg">
<path d="M11.2234 10.7243L11.2234 10.7243C11.3138 10.8236 11.3832 10.9391 11.4298 11.0629C11.4765 11.1868 11.5 11.3181 11.5 11.4497C11.5 11.5814 11.4765 11.7127 11.4298 11.8365C11.3832 11.9604 11.3138 12.0758 11.2235 12.1752C11.133 12.2746 11.0231 12.3563 10.8985 12.4131L11.2234 10.7243ZM11.2234 10.7243L7.38261 6.5L11.2234 2.27574L11.2235 2.27571C11.4051 2.0759 11.5 1.81426 11.5 1.55028C11.5 1.28629 11.4051 1.02465 11.2235 0.824836L10.8535 1.16117L11.2234 0.824834C11.0404 0.623431 10.7812 0.5 10.4997 0.5C10.2183 0.5 9.95914 0.62343 9.77605 0.824836L9.77602 0.824863L6 4.97912M11.2234 10.7243L6 4.97912M6 4.97912L2.22398 0.824863L2.22395 0.824835C2.04086 0.62343 1.78174 0.5 1.50025 0.5C1.21876 0.5 0.959645 0.62343 0.77655 0.824835C0.594896 1.02465 0.5 1.28629 0.5 1.55028C0.5 1.81426 0.594896 2.0759 0.77655 2.27571L0.776575 2.27574L4.61739 6.5L0.776575 10.7243L0.776551 10.7243C0.594896 10.9241 0.5 11.1857 0.5 11.4497C0.5 11.7137 0.594896 11.9753 0.776549 12.1752L1.14652 11.8388L0.776551 12.1752C0.959645 12.3766 1.21876 12.5 1.50025 12.5C1.78175 12.5 2.04086 12.3766 2.22395 12.1752L2.22398 12.1751L6 8.02088L9.77602 12.1751L9.77605 12.1752C9.86646 12.2746 9.97641 12.3563 10.101 12.4131L6 4.97912ZM10.4997 12.5C10.6381 12.5 10.7737 12.47 10.8985 12.4131H10.101C10.2258 12.47 10.3614 12.5 10.4997 12.5Z" fill="#212121" stroke="#212121"/>
</svg>
