<svg width="28" height="28" viewBox="0 0 28 28" fill="none" xmlns="http://www.w3.org/2000/svg">
<path fill-rule="evenodd" clip-rule="evenodd" d="M4.9 3.6H23.1C23.4448 3.6 23.7754 3.73696 24.0192 3.98076C24.263 4.22456 24.4 4.55522 24.4 4.9V23.1C24.4 23.4448 24.263 23.7754 24.0192 24.0192C23.7754 24.263 23.4448 24.4 23.1 24.4H4.9C4.55522 24.4 4.22456 24.263 3.98076 24.0192C3.73696 23.7754 3.6 23.4448 3.6 23.1V4.9C3.6 4.55522 3.73696 4.22456 3.98076 3.98076C4.22456 3.73696 4.55522 3.6 4.9 3.6ZM1 4.9C1 3.86566 1.41089 2.87368 2.14228 2.14228C2.87368 1.41089 3.86566 1 4.9 1H23.1C24.1343 1 25.1263 1.41089 25.8577 2.14228C26.5891 2.87368 27 3.86566 27 4.9V23.1C27 24.1343 26.5891 25.1263 25.8577 25.8577C25.1263 26.5891 24.1343 27 23.1 27H4.9C3.86566 27 2.87368 26.5891 2.14228 25.8577C1.41089 25.1263 1 24.1343 1 23.1V4.9ZM14 14C10.4107 14 7.5 10.5082 7.5 6.2H10.1C10.1 9.5358 12.271 11.4 14 11.4C15.729 11.4 17.9 9.5358 17.9 6.2H20.5C20.5 10.5082 17.5893 14 14 14Z" fill="#FAF1F1" stroke="url(#paint0_linear_1108_1344)" stroke-width="1.3"/>
<path d="M6.6522 22V16.4996H9.0331C9.52552 16.4996 9.94984 16.5808 10.3061 16.7431C10.6623 16.9003 10.9373 17.1282 11.1311 17.4268C11.325 17.7254 11.4219 18.0816 11.4219 18.4954C11.4219 18.904 11.325 19.2576 11.1311 19.5562C10.9373 19.8548 10.6623 20.0853 10.3061 20.2477C9.94984 20.4049 9.52552 20.4834 9.0331 20.4834H7.3594L7.92516 19.9098V22H6.6522ZM7.92516 20.0513L7.3594 19.4462H8.96238C9.35527 19.4462 9.64863 19.3624 9.84245 19.1948C10.0363 19.0271 10.1332 18.794 10.1332 18.4954C10.1332 18.1916 10.0363 17.9559 9.84245 17.7882C9.64863 17.6206 9.35527 17.5368 8.96238 17.5368H7.3594L7.92516 16.9317V20.0513ZM12.2128 22V16.4996H14.5937C15.0861 16.4996 15.5104 16.5808 15.8667 16.7431C16.2229 16.9003 16.4979 17.1282 16.6917 17.4268C16.8856 17.7254 16.9825 18.0816 16.9825 18.4954C16.9825 18.904 16.8856 19.2576 16.6917 19.5562C16.4979 19.8548 16.2229 20.0853 15.8667 20.2477C15.5104 20.4049 15.0861 20.4834 14.5937 20.4834H12.92L13.4858 19.9098V22H12.2128ZM13.4858 20.0513L12.92 19.4462H14.523C14.9159 19.4462 15.2092 19.3624 15.4031 19.1948C15.5969 19.0271 15.6938 18.794 15.6938 18.4954C15.6938 18.1916 15.5969 17.9559 15.4031 17.7882C15.2092 17.6206 14.9159 17.5368 14.523 17.5368H12.92L13.4858 16.9317V20.0513ZM18.9442 18.7154H21.5923V19.7055H18.9442V18.7154ZM19.0385 20.9785H22.0323V22H17.7734V16.4996H21.9302V17.5211H19.0385V20.9785Z" fill="#FAF1F1"/>
<defs>
<linearGradient id="paint0_linear_1108_1344" x1="49.8077" y1="1.00007" x2="2.05929" y2="-10.8807" gradientUnits="userSpaceOnUse">
<stop stop-color="#E50071"/>
<stop offset="0.459773" stop-color="#7404BF"/>
<stop offset="1" stop-color="#5271DC"/>
</linearGradient>
</defs>
</svg>
