<svg width="18" height="18" viewBox="0 0 18 18" fill="none" xmlns="http://www.w3.org/2000/svg">
<path d="M8.93662 0C4.00953 0 0 4.03711 0 8.99968C0 13.9622 4.00927 18 8.93662 18C13.8648 18 17.8732 13.9625 17.8732 8.99968C17.8732 4.03711 13.8651 0 8.93662 0ZM12.8044 7.15574L8.12395 11.8693C7.98342 12.0106 7.79822 12.082 7.61474 12.082C7.42985 12.082 7.24637 12.0107 7.10537 11.8693L5.06981 9.81931C4.78838 9.53563 4.78838 9.07678 5.06981 8.79341C5.35119 8.51004 5.80681 8.51004 6.08824 8.79341L7.61474 10.3312L11.7866 6.12968C12.0674 5.84663 12.5229 5.84663 12.8044 6.12968C13.0858 6.41353 13.0858 6.87237 12.8044 7.15574Z" fill="#7404BF"/>
</svg>
