<svg width="29" height="29" viewBox="0 0 29 29" fill="none" xmlns="http://www.w3.org/2000/svg">
<path d="M1 5.68701V22.5597C1 23.3825 1.60638 24.1904 2.75818 24.9029C3.90999 25.6154 5.56664 26.207 7.56162 26.6184C9.55661 27.0298 11.8196 27.2463 14.1233 27.2463C16.4269 27.2463 18.6899 27.0298 20.6849 26.6184C22.6799 26.207 24.3365 25.6154 25.4883 24.9029C26.6401 24.1904 27.2463 23.3825 27.2463 22.5598V5.68701M1 5.68701C1 6.93005 2.38262 8.12204 4.84371 9.001C7.3048 9.87996 10.6427 10.3737 14.1233 10.3737C15.8466 10.3737 17.5531 10.2525 19.1453 10.017C20.7375 9.78144 22.1842 9.43621 23.4028 9.001C24.6214 8.56578 25.588 8.0491 26.2476 7.48046C26.9071 6.91183 27.2463 6.3025 27.2463 5.68701M1 5.68701C1 5.07152 1.33944 4.46192 1.99895 3.89329C2.65845 3.32465 3.6251 2.80797 4.84371 2.37275C6.06232 1.93754 7.50901 1.5923 9.1012 1.35677C10.6934 1.12123 12.3999 1 14.1233 1C15.8466 1 17.5531 1.12123 19.1453 1.35677C20.7375 1.5923 22.1842 1.93754 23.4028 2.37275C24.6214 2.80797 25.588 3.32465 26.2476 3.89329C26.9071 4.46192 27.2463 5.07152 27.2463 5.68701M27.2465 16.9354C27.2465 17.7581 26.6401 18.5663 25.4883 19.2788C24.3365 19.9913 22.6799 20.583 20.6849 20.9943C18.6899 21.4057 16.4269 21.6222 14.1233 21.6222C11.8196 21.6222 9.55661 21.4057 7.56162 20.9943C5.56664 20.583 3.90999 19.9913 2.75818 19.2788C1.60638 18.5663 1 17.7581 1 16.9354M27.2465 11.311C27.2465 12.1337 26.6401 12.9419 25.4883 13.6544C24.3365 14.3669 22.6799 14.9586 20.6849 15.3699C18.6899 15.7813 16.4269 15.9979 14.1233 15.9979C11.8196 15.9979 9.55661 15.7813 7.56162 15.3699C5.56664 14.9586 3.90999 14.3669 2.75818 13.6544C1.60638 12.9419 1 12.1337 1 11.311" stroke="url(#paint0_linear_996_193)" stroke-width="1.875" stroke-linecap="round" stroke-linejoin="round"/>
<defs>
<linearGradient id="paint0_linear_996_193" x1="50.2704" y1="1.00005" x2="7.27128" y2="-9.89373" gradientUnits="userSpaceOnUse">
<stop stop-color="#E50071"/>
<stop offset="0.57" stop-color="#7404BF"/>
<stop offset="1" stop-color="#5271DC"/>
</linearGradient>
</defs>
</svg>
