<svg width="44" height="46" viewBox="0 0 44 46" fill="none" xmlns="http://www.w3.org/2000/svg">
<rect width="44" height="46" fill="#141414"/>
<rect x="0.423077" y="0.423077" width="43.1538" height="44.8462" rx="21.5769" fill="url(#paint0_linear_0_1)" stroke="url(#paint1_linear_0_1)" stroke-width="0.846154"/>
<path d="M27.8537 10.2363H15.8468C15.0505 10.2842 14.3053 10.6442 13.7729 11.2384C13.2406 11.8325 12.9642 12.6127 13.0037 13.4094V32.2829C12.9642 33.0796 13.2406 33.8598 13.7729 34.4539C14.3053 35.048 15.0505 35.4081 15.8468 35.4559H27.8537C28.65 35.4081 29.3953 35.048 29.9276 34.4539C30.4599 33.8598 30.7364 33.0796 30.6968 32.2829V13.4094C30.7364 12.6127 30.4599 11.8325 29.9276 11.2384C29.3953 10.6442 28.65 10.2842 27.8537 10.2363ZM29.4276 32.2829C29.4666 32.7431 29.3237 33.2002 29.0294 33.5562C28.7352 33.9121 28.3131 34.1385 27.8537 34.1867H15.8468C15.3875 34.1385 14.9654 33.9121 14.6711 33.5562C14.3768 33.2002 14.2339 32.7431 14.273 32.2829V13.4094C14.2339 12.9492 14.3768 12.4921 14.6711 12.1361C14.9654 11.7801 15.3875 11.5537 15.8468 11.5056H17.7887V12.1529C17.7887 12.4895 17.9224 12.8123 18.1605 13.0503C18.3985 13.2884 18.7213 13.4221 19.058 13.4221H24.6426C24.9792 13.4221 25.302 13.2884 25.5401 13.0503C25.7781 12.8123 25.9118 12.4895 25.9118 12.1529V11.5056H27.8537C28.3131 11.5537 28.7352 11.7801 29.0294 12.1361C29.3237 12.4921 29.4666 12.9492 29.4276 13.4094V32.2829Z" fill="#F9F8F8"/>
<defs>
<linearGradient id="paint0_linear_0_1" x1="82.5976" y1="8.06381e-05" x2="10.1957" y2="-17.6634" gradientUnits="userSpaceOnUse">
<stop stop-color="#E50071"/>
<stop offset="0.57" stop-color="#7404BF"/>
<stop offset="1" stop-color="#5271DC"/>
</linearGradient>
<linearGradient id="paint1_linear_0_1" x1="82.5976" y1="8.06381e-05" x2="10.1957" y2="-17.6634" gradientUnits="userSpaceOnUse">
<stop stop-color="#E50071"/>
<stop offset="0.57" stop-color="#7404BF"/>
<stop offset="1" stop-color="#5271DC"/>
</linearGradient>
</defs>
</svg>
