<svg width="50" height="51" viewBox="0 0 50 51" fill="none" xmlns="http://www.w3.org/2000/svg">
<path fill-rule="evenodd" clip-rule="evenodd" d="M41.7576 0.540039H8.80121L8.37447 0.548765L7.95744 0.584162L7.54321 0.637011L7.13853 0.709287L6.73682 0.80313L6.34728 0.915084L5.96401 1.04614L5.59028 1.19596L5.22248 1.36224L4.86719 1.54614L4.52441 1.74914L4.18756 1.96547L3.86619 2.19646L3.55387 2.44622L3.25423 2.70964L2.9699 2.98475L2.69496 3.27451L2.43845 3.57464L2.19429 3.89091L1.96265 4.21887L1.74928 4.55737L1.55155 4.90739L1.36929 5.2663L1.20251 5.63558L1.05714 6.01359L0.927405 6.40049L0.81611 6.79776L0.723254 7.20079L0.65246 7.61124L0.599776 8.02612L0.56586 8.45122L0.556641 8.88076V42.2259L0.56586 42.6539L0.599776 43.076L0.65246 43.495L0.723419 43.9045L0.81611 44.3079L0.927405 44.7046L1.05714 45.0892L1.20235 45.4674L1.36929 45.8395L1.55155 46.1959L1.74928 46.5461L1.96265 46.8836L2.19429 47.2117L2.43845 47.5244L2.69496 47.8277L2.9699 48.1184L3.2544 48.3934L3.55404 48.656L3.86619 48.9029L4.18756 49.1344L4.52441 49.3501L4.86735 49.5501L5.22264 49.7345L5.59044 49.9033L5.96434 50.0503L6.34745 50.1815L6.73682 50.2939L7.13853 50.3876L7.54338 50.4597L7.95761 50.5127L8.37463 50.5473L8.80121 50.5565H41.7576L42.1852 50.5473L42.601 50.5127L43.0154 50.4597L43.4213 50.3878L43.8197 50.2939L44.2123 50.1815L44.5948 50.0503L44.9685 49.9033L45.3335 49.7345L45.6883 49.5501L46.0344 49.3501L46.3689 49.1344L46.6903 48.9029L47.0015 48.656L47.3024 48.3934L47.5859 48.1182L47.8609 47.8277L48.1182 47.5244L48.3655 47.2117L48.5939 46.8835L48.8062 46.546L49.0038 46.1959L49.187 45.8395L49.3543 45.4674L49.4984 45.0892L49.6293 44.7046L49.7397 44.3077L49.8328 43.9043L49.904 43.495L49.9564 43.076L49.9898 42.6539L50 42.2257V8.88109L49.9898 8.45138L49.9564 8.02629L49.904 7.6114L49.8328 7.20096L49.7396 6.79792L49.6293 6.40065L49.4984 6.01375L49.3543 5.63575L49.187 5.26646L49.0038 4.90755L48.8062 4.55753L48.5939 4.21904L48.3655 3.89091L48.1182 3.57481L47.8609 3.27467L47.5861 2.98475L47.3024 2.7098L47.0015 2.44655L46.6903 2.19646L46.3689 1.96547L46.0344 1.74914L45.6883 1.54614L45.3335 1.36241L44.9685 1.19612L44.5948 1.04597L44.2123 0.915084L43.8197 0.803295L43.4213 0.709122L43.0154 0.637011L42.601 0.584162L42.1852 0.548765L41.7576 0.540039ZM8.52001 42.2188H4.67571V25.5442H8.52001V42.2188ZM25.5256 29.3576H25.7452L26.1335 29.365L26.5072 29.3871L26.8664 29.4208L27.2095 29.4679L27.5367 29.5298L27.8493 29.6047L28.149 29.69L28.4297 29.7901L28.6987 29.8989L28.9517 30.0211L29.1929 30.152L29.4185 30.296L29.6322 30.4491L29.8329 30.6125L30.0219 30.783L30.1951 30.9654L30.3549 31.1553L30.5062 31.3553L30.6429 31.5627L30.7693 31.7774L30.8828 31.9997L30.989 32.2276L31.0777 32.463L31.162 32.7058L31.2333 32.9529L31.2914 33.206L31.3438 33.4663L31.3846 33.731L31.415 34.0004L31.4369 34.2725L31.4514 34.5475L31.4559 34.8285V42.2188H28.3278L27.9076 40.9214H27.864L27.784 41.0153L27.7011 41.1058L27.6139 41.1934L27.5251 41.2777L27.4349 41.3622L27.3389 41.4435L27.2402 41.5215L27.1382 41.5966L27.0365 41.6685L26.9273 41.7403L26.8197 41.8062L26.7094 41.8717L26.5944 41.9343L26.4766 41.9904L26.3559 42.0467L26.2352 42.0999L26.1116 42.1499L25.9851 42.1998L25.8557 42.2438L25.7263 42.2843L25.5925 42.3218L25.4573 42.3562L25.3206 42.3875L25.1823 42.4188L25.0399 42.4438L24.8974 42.4656L24.752 42.4845L24.6079 42.5L24.4596 42.5125L24.3112 42.5189L24.1586 42.525L24.0045 42.5281L23.7515 42.5219L23.5042 42.5064L23.2658 42.4781L23.0345 42.4405L22.8121 42.3938L22.5924 42.3375L22.386 42.2718L22.1853 42.1969L21.9903 42.1154L21.8043 42.0248L21.6253 41.9249L21.4553 41.8185L21.2952 41.7061L21.1397 41.5872L20.9945 41.4621L20.8562 41.3309L20.7266 41.1934L20.6031 41.0495L20.4882 40.9027L20.3835 40.7495L20.2875 40.5931L20.1974 40.4338L20.1145 40.2713L20.0432 40.1055L19.9778 39.9367L19.9225 39.7647L19.8761 39.5897L19.8367 39.4147L19.8048 39.2395L19.7829 39.0613L19.7714 38.8832L19.7684 38.7051L19.7771 38.4081L19.8018 38.1173L19.8484 37.8391L19.911 37.5704L19.988 37.3078L20.0838 37.0577L20.1974 36.8137L20.3239 36.5826L20.4724 36.3605L20.6337 36.1448L20.8096 35.9416L21.0045 35.748L21.211 35.5597L21.4363 35.3845L21.6749 35.2198L21.9279 35.0639L22.197 34.9167L22.482 34.7785L22.7786 34.6505L23.0868 34.5313L23.4112 34.4225L23.7515 34.3224L24.1005 34.2312L24.4655 34.1533L24.842 34.0812L25.2347 34.0224L25.6361 33.9694L26.0505 33.9283L26.4766 33.8973L26.9158 33.8752L27.3666 33.8636L27.8276 33.8591V33.6693L27.8218 33.609L27.8144 33.5473L27.8029 33.4809L27.7869 33.4162L27.768 33.3471L27.7476 33.2779L27.7184 33.206L27.685 33.1339L27.6488 33.0633L27.6052 32.9911L27.5586 32.9161L27.5062 32.8441L27.4466 32.775L27.3796 32.7029L27.3085 32.6337L27.2314 32.569L27.1442 32.5028L27.051 32.4409L26.9522 32.3807L26.8475 32.3247L26.7339 32.2718L26.6104 32.2218L26.4767 32.1747L26.3384 32.1335L26.1901 32.0967L26.0317 32.0659L25.8643 32.0379L25.6914 32.0188L25.5065 32.0027L25.309 31.9938L25.1053 31.9908H24.9789L24.848 31.9938L24.7214 32.0027L24.592 32.0129L24.4655 32.0218L24.3361 32.0379L24.2052 32.0525L24.0786 32.0718L23.9492 32.0939L23.8228 32.1159L23.6934 32.1408L23.5653 32.1688L23.4418 32.1968L23.3152 32.2277L23.1915 32.2585L23.0681 32.2939L22.9472 32.3277L22.828 32.366L22.7103 32.4057L22.5954 32.4441L22.4818 32.4836L22.3698 32.5277L22.2595 32.572L22.1504 32.6159L22.0458 32.6587L21.9438 32.7058L21.845 32.7529L21.749 32.7998L21.656 32.8469L21.5672 32.897L21.48 32.947L21.3972 32.9971L20.6729 30.5403L20.7659 30.4873L20.8619 30.433L20.9638 30.38L21.0685 30.327L21.1805 30.2741L21.2952 30.2211L21.4146 30.1681L21.5383 30.1182L21.6662 30.0652L21.7985 30.0152L21.9337 29.9651L22.0763 29.918L22.2217 29.8709L22.37 29.824L22.5241 29.7799L22.6825 29.7371L22.8455 29.6959L23.0127 29.6548L23.183 29.618L23.3559 29.5826L23.5348 29.5489L23.7181 29.5179L23.9026 29.49L24.0918 29.462L24.2866 29.4399L24.4844 29.4178L24.685 29.3987L24.8886 29.3869L25.0951 29.3737L25.309 29.365L25.5256 29.3576ZM27.9382 37.6828V37.6078L27.9381 36.2823H27.4596L27.3636 36.2855L27.2706 36.2885L27.1791 36.2918L27.0263 36.2979L26.8779 36.3043L26.7296 36.3168L26.5885 36.326L26.4461 36.3419L26.3095 36.3573L26.1741 36.3761L26.0447 36.3949L25.9051 36.4168L25.7727 36.442L25.6391 36.4699L25.5124 36.4981L25.386 36.5323L25.2653 36.5669L25.1474 36.6012L25.0312 36.642L24.9193 36.6825L24.8145 36.7263L24.7097 36.7732L24.6109 36.8231L24.5149 36.8763L24.4217 36.9296L24.3361 36.9856L24.2516 37.0481L24.1716 37.1107L24.0975 37.1762L24.0263 37.2421L23.9607 37.3139L23.8998 37.389L23.8445 37.4672L23.7951 37.5454L23.7485 37.6298L23.7077 37.7174L23.6715 37.8047L23.6395 37.8985L23.6148 37.9923L23.5974 38.0924L23.5812 38.1955L23.5725 38.2986L23.5697 38.4081L23.5725 38.505L23.5784 38.5989L23.5872 38.6894L23.6031 38.7801L23.6221 38.8644L23.6438 38.9458L23.6715 39.0269L23.6991 39.102L23.7325 39.174L23.7704 39.2459L23.8126 39.3114L23.8562 39.377L23.9026 39.4395L23.955 39.496L24.0073 39.5521L24.0671 39.6053L24.1252 39.6522L24.1906 39.6991L24.2546 39.7429L24.3259 39.7805L24.3972 39.818L24.4713 39.8523L24.5513 39.8835L24.6283 39.9086L24.7128 39.9336L24.7984 39.9555L24.8857 39.9711L24.9744 39.9866L25.0674 39.9991L25.1606 40.0055L25.2566 40.0116H25.466L25.578 40.0022L25.6884 39.993L25.7946 39.9772L25.8993 39.9586L26.0041 39.9366L26.103 39.9086L26.2018 39.8806L26.3007 39.846L26.3938 39.8085L26.4868 39.7711L26.5755 39.7271L26.6628 39.6804L26.7485 39.6335L26.8286 39.5804L26.9101 39.5271L26.9871 39.471L27.0642 39.4114L27.1354 39.3521L27.2038 39.2895L27.2706 39.224L27.336 39.1583L27.3943 39.0895L27.4539 39.0208L27.5092 38.9519L27.5615 38.8801L27.6109 38.8052L27.6575 38.7332L27.701 38.6581L27.7403 38.5831L27.7782 38.5082L27.8116 38.43L27.8248 38.3987L27.8363 38.3676L27.8465 38.3425L27.8552 38.305L27.8668 38.2642L27.8742 38.2362L27.8915 38.158L27.9046 38.0799L27.9134 37.9986L27.9236 37.9204L27.9293 37.8391L27.9353 37.761L27.9382 37.6828ZM42.0729 37.1576V29.7239H45.88V42.2188H42.8335L42.3506 40.4431L42.3012 40.5182L42.2489 40.59L42.1908 40.6682L42.1252 40.7464L42.0569 40.8276L41.9871 40.912L41.9086 40.9995L41.8257 41.087L41.7398 41.1776L41.6498 41.2652L41.5538 41.3528L41.452 41.4372L41.3443 41.5186L41.2324 41.5997L41.1145 41.6778L40.9938 41.7561L40.8674 41.831L40.735 41.9061L40.5954 41.9748L40.45 42.0436L40.2987 42.1062L40.1446 42.1687L39.9803 42.228L39.8145 42.2843L39.7273 42.3093L39.6385 42.3343L39.5483 42.3594L39.4583 42.3781L39.3666 42.4L39.2706 42.4155L39.1746 42.4344L39.0786 42.447L38.9798 42.4624L38.8781 42.472L38.7762 42.4814L38.6701 42.4906L38.5654 42.497L38.4607 42.5L38.353 42.5031H38.1145L37.988 42.497L37.8644 42.4939L37.7408 42.4845L37.6201 42.472L37.4994 42.4595L37.3817 42.4438L37.2653 42.4251L37.1476 42.4063L37.0325 42.3813L36.9222 42.3562L36.8073 42.3281L36.6996 42.3001L36.5876 42.2655L36.4829 42.2313L36.3754 42.1937L36.2692 42.1529L36.1673 42.1124L36.0656 42.0655L35.9668 42.0187L35.8708 41.9654L35.7748 41.9124L35.6831 41.8561L35.5901 41.7968L35.5 41.7342L35.4111 41.6685L35.3268 41.5997L35.2411 41.5278L35.1596 41.456L35.0797 41.3778L34.9997 41.2996L34.9225 41.2151L34.8484 41.1308L34.7771 41.0433L34.706 40.9527L34.6375 40.8589L34.5707 40.765L34.5053 40.6651L34.4427 40.5619L34.3846 40.4588L34.3263 40.3493L34.2667 40.2398L34.2144 40.1274L34.162 40.0116L34.1097 39.8929L34.0631 39.7711L34.0137 39.646L33.9701 39.5179L33.9279 39.3896L33.89 39.2553L33.8538 39.1176L33.8189 38.9769L33.7855 38.8332L33.7577 38.6863L33.733 38.5361L33.7083 38.383L33.6895 38.2237L33.6706 38.0641L33.6561 37.8985L33.6429 37.7298L33.6342 37.5579L33.6269 37.3858L33.621 37.2077V29.718H37.373V36.3293L37.3758 36.5106L37.3817 36.6856L37.3919 36.8575L37.4064 37.0233L37.4253 37.1858L37.447 37.3422L37.4747 37.4922L37.5053 37.639L37.5402 37.7798L37.5794 37.9173L37.626 38.0485L37.6724 38.1736L37.7277 38.2925L37.7845 38.4081L37.8455 38.5175L37.914 38.6206L37.9852 38.7176L38.0593 38.8081L38.1421 38.8957L38.2251 38.9739L38.3152 39.0488L38.4113 39.1176L38.5101 39.1802L38.6148 39.2334L38.7238 39.2834L38.8372 39.3271L38.9581 39.3646L39.0816 39.3928L39.211 39.4178L39.3476 39.4334L39.4859 39.4428L39.6283 39.4459H39.7462L39.8567 39.4366L39.9686 39.4272L40.0733 39.4084L40.1781 39.3896L40.2814 39.3646L40.3802 39.3366L40.4747 39.302L40.5678 39.2678L40.658 39.227L40.7437 39.1833L40.831 39.1395L40.911 39.0895L40.991 39.0394L41.0651 38.9833L41.1392 38.9268L41.2105 38.8676L41.2788 38.8083L41.3443 38.7457L41.4054 38.6832L41.4635 38.6175L41.5231 38.5487L41.5755 38.48L41.628 38.4112L41.6774 38.3425L41.7238 38.2706L41.7675 38.1986L41.8068 38.1298L41.8447 38.058L41.8809 37.9861L41.9158 37.9141L41.9435 37.8424L41.9769 37.7548L42.0045 37.6609L42.0263 37.5673L42.0424 37.4672L42.0569 37.3672L42.0671 37.2638L42.0729 37.1576ZM12.1262 29.7181V25.5446L15.8596 25.5447V29.718H18.2443V32.5661H15.8596V37.1357L15.8624 37.2734L15.8683 37.4046L15.8741 37.5358L15.8843 37.6609L15.8959 37.7798L15.9119 37.8985L15.9264 38.0111L15.9483 38.1175L15.97 38.2237L15.9977 38.3205L16.0254 38.4176L16.0603 38.5082L16.0966 38.5926L16.1373 38.6769L16.1809 38.7518L16.2274 38.8269L16.2797 38.8957L16.3352 38.9583L16.3961 39.0177L16.4587 39.0707L16.53 39.1239L16.6041 39.1677L16.6811 39.2084L16.7641 39.2457L16.8541 39.277L16.9473 39.302L17.0461 39.3239L17.1508 39.3429L17.2615 39.3552L17.3764 39.3615L17.4998 39.3646L17.6395 39.3615L17.7689 39.3521L17.8895 39.3429L17.9972 39.3271L18.0932 39.3114L18.1703 39.2928L18.2358 39.2739L18.2852 39.2551V42.1593L18.0962 42.2313L17.9042 42.2999L17.8023 42.3312L17.7005 42.3625L17.5929 42.3905L17.4752 42.4155L17.3545 42.4405L17.2221 42.4624L17.0825 42.4814L16.9314 42.497L16.7713 42.5094L16.594 42.5189L16.4063 42.525L16.2027 42.5281L16.0792 42.5252L15.9583 42.5219L15.8377 42.5156L15.7199 42.5031L15.6022 42.4906L15.4886 42.4781L15.3739 42.4595L15.2632 42.4376L15.1513 42.4155L15.0433 42.3905L14.9351 42.3656L14.8301 42.3343L14.728 42.3031L14.6259 42.2688L14.5271 42.2344L14.4284 42.1937L14.3357 42.1562L14.2399 42.1124L14.1503 42.0686L14.0606 42.0248L13.974 41.9748L13.8907 41.9279L13.8072 41.878L13.7301 41.8248L13.6528 41.7716L13.5754 41.7153L13.5043 41.6592L13.4333 41.6027L13.3684 41.5434L13.3036 41.4842L13.2417 41.4216L13.1799 41.359L13.115 41.2871L13.0502 41.209L12.9884 41.1308L12.9297 41.0495L12.8709 40.9621L12.8152 40.8745L12.7626 40.7839L12.7132 40.6901L12.6638 40.5963L12.6175 40.4963L12.5742 40.3962L12.5311 40.2899L12.4907 40.1837L12.4537 40.0742L12.4167 39.9617L12.3827 39.846L12.3518 39.7271L12.324 39.6086L12.2961 39.4835L12.2714 39.3583L12.2467 39.2303L12.225 39.0989L12.2064 38.9644L12.1911 38.8302L12.1756 38.6894L12.1633 38.5487L12.1509 38.4049L12.1415 38.2581L12.1356 38.1111L12.1323 37.9579L12.1292 37.8048L12.1262 37.6484V32.5661H10.374V29.7181H12.1262ZM38.3369 28.9117L40.655 25.5416H44.2861L41.0185 28.9117H38.3369Z" fill="white"/>
</svg>
