<svg width="187" height="62" viewBox="0 0 187 62" fill="none" xmlns="http://www.w3.org/2000/svg">
<g clip-path="url(#clip0_2188_52)">
<path d="M41.8224 30.4574C44.6494 29.2861 47.4607 28.0523 50.241 26.7717C52.7564 25.6082 55.2173 24.2651 57.359 22.8048C58.7452 21.86 60.1236 20.8917 61.4865 19.9156C62.421 19.244 63.1764 18.5491 63.7449 17.5964C63.7683 17.5573 63.7683 17.5183 63.7449 17.4793C63.2776 16.7765 62.7637 16.183 62.1095 15.5505C60.9024 14.387 59.5707 13.2391 58.1222 12.1146C54.4697 9.28005 50.7238 6.74221 46.8767 4.5089C44.9765 3.40787 42.975 2.39273 40.8567 1.47129C39.2758 0.784121 37.5937 0.237508 35.8882 0.0891415C32.9678 -0.160739 30.0006 0.135994 27.0647 0.713842C22.3609 1.63528 17.844 3.11894 13.4984 5.14922C11.3646 6.14874 9.33976 7.31225 7.4084 8.64754C6.03775 9.5924 4.7372 10.6856 3.73258 12.0287C3.70922 12.0522 3.70922 12.0912 3.72479 12.1224C4.63596 13.9419 5.93651 15.5973 7.276 17.081C9.61233 19.6735 12.2212 22.1489 15.0248 24.2729C17.8985 26.4437 20.8033 28.6536 23.8405 30.5824C26.1691 32.0582 28.7157 33.2139 31.4803 33.1983C33.2481 33.1983 35.0471 32.8313 36.6825 32.3237C38.3413 31.8083 40.0546 31.1914 41.8224 30.4574ZM12.4159 9.0536C12.4159 9.04579 12.4081 9.04579 12.4081 9.03798C12.4011 9.02393 12.4073 9.01065 12.419 9.00206C12.4198 9.00128 12.4206 8.99972 12.4221 8.99972C12.4221 8.99972 12.4221 8.99972 12.4229 8.99894C15.6159 7.60898 18.8089 6.21902 22.0018 4.83687C24.0111 3.9701 26.067 3.47034 28.232 3.20484C29.091 3.09942 29.9516 3.04866 30.8082 3.05491C33.3782 3.07209 35.9162 3.60074 38.3016 4.69631C39.5398 5.26635 40.5055 5.95352 41.5802 6.78906C43.0287 7.92133 44.5863 9.60802 44.7187 11.5446C44.8511 13.5452 43.7133 15.0195 42.1923 16.1572C41.5685 16.625 40.8793 17.0342 40.187 17.4004C39.4861 17.7713 38.7821 18.0977 38.138 18.3929C38.1287 18.3976 38.1193 18.3999 38.11 18.4007C38.0859 18.4069 38.0633 18.4038 38.0446 18.3851L34.0261 15.4177C34.0183 15.4177 34.0105 15.4099 34.0105 15.4021C34.0028 15.3865 34.0183 15.3631 34.0339 15.3553L34.0417 15.3475C35.1437 14.886 36.0992 14.5033 36.9442 13.5983C36.9683 13.5717 36.9925 13.5475 37.0166 13.5202C38.4885 11.8726 36.7518 9.74077 35.3267 8.88181C32.8969 7.41376 30.2257 6.78906 27.4221 7.46842C25.5764 7.91352 23.7463 8.71782 22.033 9.52993C22.026 9.53306 22.0213 9.53696 22.0174 9.54008C22.0042 9.55414 22.0089 9.56507 22.0252 9.57679L44.0645 25.4989C44.0801 25.5067 44.0801 25.5223 44.0723 25.5379C44.0723 25.5457 44.0645 25.5457 44.0645 25.5457L38.5975 27.9196C38.5858 27.9235 38.5734 27.925 38.5617 27.9243C38.5477 27.9243 38.5337 27.9211 38.5196 27.9118L12.4159 9.0536ZM25.585 39.1798C25.8576 40.7806 25.8887 42.2955 25.842 43.8651C25.7719 46.4732 25.6239 49.0735 25.3903 51.6738C25.1411 54.5006 24.8296 57.3196 24.6193 60.1463C24.6193 60.1776 24.6037 60.1854 24.5726 60.1776C24.3467 60.1151 24.1598 60.0448 23.9963 59.9745C22.0805 59.1078 20.266 57.7334 18.6227 56.3903C14.8379 53.2824 11.201 49.8153 7.93017 46.3248C6.09227 44.3648 4.80729 42.6469 2.90708 40.1559C1.33396 38.1022 -0.137924 35.9782 0.0100426 33.2842C0.0489813 32.5189 0.142434 31.7537 0.274826 30.9962C0.524033 29.6141 0.765453 28.2397 1.00687 26.8576C1.54423 23.8043 1.95698 20.7277 2.25291 17.6354C2.25291 17.6198 2.26849 17.6042 2.28406 17.612C2.28925 17.612 2.29445 17.6146 2.29964 17.6198C5.45367 20.3295 8.14044 23.5389 11.3023 26.2251C15.8192 30.0592 20.3438 33.8855 24.8763 37.7118C25.3358 38.0944 25.4837 38.5941 25.585 39.1798ZM69.1262 40.0778C63.0596 44.7084 56.8216 49.0813 50.2721 52.9935C44.3379 56.5465 38.1466 59.5451 31.6828 61.997C31.6594 62.0048 31.6361 61.997 31.6205 61.9736V38.8675C31.6205 38.844 31.6361 38.8206 31.6516 38.8128C34.8212 37.1808 38.2556 36.3608 41.5732 35.0958C45.4048 33.6356 49.1117 31.9255 52.7097 29.9498C56.1596 28.0601 59.485 25.9596 62.8415 23.9059C63.6982 23.3827 64.5782 22.9063 65.4738 22.4691C65.5205 22.4456 65.5517 22.4612 65.5595 22.5159L69.1574 39.9997C69.1652 40.031 69.1496 40.0622 69.1262 40.0778Z" fill="#FDFBFF"/>
<path d="M85.5102 27.3896C85.1504 27.3896 84.8732 27.2881 84.6785 27.0866C84.4838 26.8844 84.3872 26.6032 84.3872 26.2417V13.1183C84.3872 12.7427 84.4877 12.4577 84.6894 12.2632C84.8911 12.068 85.1714 11.9712 85.532 11.9712H90.6937C92.3354 11.9712 93.6017 12.3796 94.4949 13.1948C95.3874 14.0108 95.8336 15.1548 95.8336 16.6276C95.8336 18.1003 95.3874 19.2661 94.4949 20.0814C93.6017 20.8974 92.3354 21.305 90.6937 21.305H86.6332V26.2425C86.6332 26.6032 86.5397 26.8851 86.3528 27.0874C86.1651 27.2896 85.8848 27.3904 85.5102 27.3904V27.3896ZM86.6332 19.5074H90.3698C91.4499 19.5074 92.2668 19.2661 92.8213 18.782C93.3758 18.2986 93.6531 17.5802 93.6531 16.6276C93.6531 15.6749 93.3758 14.9783 92.8213 14.4942C92.2668 14.0108 91.4499 13.7688 90.3698 13.7688H86.6332V19.5074Z" fill="#FDFBFF"/>
<path d="M98.9005 27.3897C98.5407 27.3897 98.2666 27.2921 98.0797 27.0977C97.8928 26.9024 97.7993 26.6323 97.7993 26.2855V17.6233C97.7993 17.2625 97.8928 16.9884 98.0797 16.8002C98.2666 16.6128 98.5259 16.5191 98.8569 16.5191C99.1879 16.5191 99.4651 16.6128 99.645 16.8002C99.8249 16.9877 99.9152 17.2625 99.9152 17.6233V19.2038H99.6995C99.93 18.3378 100.354 17.6811 100.974 17.2329C101.593 16.7854 102.385 16.5254 103.349 16.4535C103.608 16.4395 103.813 16.5043 103.964 16.6488C104.115 16.7932 104.198 17.0166 104.213 17.3203C104.241 17.6233 104.177 17.8654 104.018 18.0457C103.859 18.2261 103.614 18.3308 103.283 18.3597L102.873 18.4026C101.937 18.4893 101.224 18.7852 100.735 19.2905C100.245 19.7957 100 20.4891 100 21.3692V26.2848C100 26.6315 99.9098 26.9017 99.7299 27.0969C99.55 27.2921 99.2728 27.3889 98.8982 27.3889L98.9005 27.3897Z" fill="#FDFBFF"/>
<path d="M110.281 27.4333C109.216 27.4333 108.298 27.21 107.528 26.7618C106.758 26.3143 106.156 25.6787 105.724 24.8564C105.292 24.0342 105.076 23.0667 105.076 21.9547C105.076 21.1028 105.198 20.3453 105.443 19.6808C105.688 19.017 106.037 18.4431 106.49 17.959C106.944 17.4756 107.491 17.107 108.132 16.8548C108.772 16.6026 109.489 16.4761 110.281 16.4761C111.331 16.4761 112.242 16.7002 113.013 17.1476C113.783 17.5951 114.384 18.2268 114.816 19.0428C115.249 19.8588 115.464 20.8295 115.464 21.9555C115.464 22.7926 115.342 23.5508 115.097 24.2294C114.852 24.908 114.503 25.485 114.05 25.9622C113.597 26.4385 113.049 26.8032 112.408 27.0554C111.767 27.3076 111.059 27.4341 110.281 27.4341L110.281 27.4333ZM110.281 25.7443C110.872 25.7443 111.39 25.5998 111.837 25.3109C112.283 25.022 112.632 24.5964 112.884 24.0334C113.136 23.4704 113.262 22.7777 113.262 21.9547C113.262 20.7131 112.989 19.7753 112.441 19.1396C111.894 18.5048 111.174 18.187 110.281 18.187C109.677 18.187 109.151 18.3275 108.705 18.6094C108.259 18.8913 107.909 19.313 107.658 19.876C107.405 20.439 107.28 21.1317 107.28 21.9547C107.28 23.1822 107.553 24.1201 108.101 24.7698C108.648 25.4194 109.375 25.7443 110.282 25.7443H110.281Z" fill="#FDFBFF"/>
<path d="M122.678 31.3313C121.901 31.3313 121.148 31.2516 120.421 31.0931C119.694 30.9338 119.035 30.6738 118.445 30.3138C118.23 30.1982 118.086 30.0577 118.013 29.8913C117.941 29.725 117.923 29.5556 117.959 29.3822C117.995 29.2088 118.071 29.0574 118.186 28.9277C118.301 28.7981 118.441 28.7114 118.607 28.6677C118.772 28.6247 118.949 28.6529 119.136 28.7544C119.769 29.1011 120.37 29.3353 120.94 29.4579C121.508 29.5805 122.038 29.6422 122.527 29.6422C123.535 29.6422 124.291 29.3861 124.795 28.8731C125.299 28.3608 125.551 27.6065 125.551 26.6101V24.401H125.746C125.53 25.1951 125.076 25.823 124.385 26.2852C123.694 26.7475 122.895 26.9779 121.988 26.9779C121.081 26.9779 120.209 26.7577 119.505 26.3173C118.799 25.8768 118.252 25.2639 117.863 24.4767C117.474 23.6904 117.28 22.7697 117.28 21.7156C117.28 20.9214 117.391 20.2069 117.614 19.5721C117.837 18.9372 118.154 18.3882 118.565 17.926C118.975 17.4637 119.472 17.1068 120.054 16.8538C120.638 16.6016 121.282 16.4751 121.987 16.4751C122.909 16.4751 123.711 16.7062 124.395 17.1677C125.079 17.63 125.521 18.2578 125.724 19.052L125.508 19.4198V17.6222C125.508 17.2614 125.605 16.9874 125.799 16.7992C125.994 16.6118 126.256 16.518 126.587 16.518C126.918 16.518 127.2 16.6118 127.386 16.7992C127.573 16.9866 127.667 17.2614 127.667 17.6222V26.3493C127.667 27.9954 127.242 29.2362 126.393 30.0741C125.543 30.9112 124.305 31.3297 122.678 31.3297V31.3313ZM122.505 25.2678C123.138 25.2678 123.679 25.1233 124.125 24.8344C124.571 24.5455 124.917 24.1347 125.162 23.5998C125.406 23.0657 125.528 22.4379 125.528 21.7156C125.528 20.6325 125.258 19.7743 124.718 19.1387C124.179 18.5038 123.44 18.186 122.504 18.186C121.885 18.186 121.353 18.3305 120.906 18.6194C120.46 18.9083 120.11 19.3159 119.859 19.843C119.607 20.3701 119.481 20.9948 119.481 21.7163C119.481 22.8135 119.754 23.6802 120.302 24.3151C120.849 24.9507 121.583 25.2678 122.505 25.2678Z" fill="#FDFBFF"/>
<path d="M131.835 27.3897C131.475 27.3897 131.201 27.2921 131.014 27.0977C130.826 26.9024 130.733 26.6323 130.733 26.2855V17.6233C130.733 17.2625 130.826 16.9884 131.014 16.8002C131.201 16.6128 131.46 16.5191 131.791 16.5191C132.122 16.5191 132.399 16.6128 132.579 16.8002C132.759 16.9877 132.85 17.2625 132.85 17.6233V19.2038H132.634C132.864 18.3378 133.289 17.6811 133.908 17.2329C134.527 16.7854 135.319 16.5254 136.283 16.4535C136.542 16.4395 136.747 16.5043 136.898 16.6488C137.049 16.7932 137.132 17.0166 137.147 17.3203C137.176 17.6233 137.111 17.8654 136.952 18.0457C136.793 18.2261 136.549 18.3308 136.218 18.3597L135.807 18.4026C134.871 18.4893 134.159 18.7852 133.669 19.2905C133.179 19.7957 132.934 20.4891 132.934 21.3692V26.2848C132.934 26.6315 132.844 26.9017 132.664 27.0969C132.484 27.2921 132.207 27.3889 131.832 27.3889L131.835 27.3897Z" fill="#FDFBFF"/>
<path d="M142.051 27.4334C141.316 27.4334 140.658 27.289 140.074 27C139.491 26.7111 139.034 26.3215 138.703 25.8303C138.372 25.3399 138.206 24.7839 138.206 24.1631C138.206 23.3838 138.404 22.7661 138.8 22.3117C139.196 21.8572 139.851 21.5323 140.766 21.3371C141.68 21.1419 142.914 21.0451 144.47 21.0451H145.484V22.3874H144.491C143.454 22.3874 142.633 22.4382 142.029 22.5389C141.424 22.6404 140.995 22.8099 140.744 23.048C140.492 23.2862 140.366 23.6149 140.366 24.0335C140.366 24.5824 140.553 25.026 140.928 25.3657C141.302 25.7053 141.82 25.8748 142.483 25.8748C143.016 25.8748 143.484 25.7483 143.887 25.4961C144.29 25.2438 144.611 24.9003 144.848 24.4677C145.086 24.0343 145.205 23.5369 145.205 22.9738V20.4836C145.205 19.6606 145.032 19.0687 144.686 18.7079C144.34 18.3472 143.772 18.1668 142.98 18.1668C142.519 18.1668 142.041 18.2246 141.544 18.3401C141.047 18.4557 140.532 18.6509 139.999 18.925C139.754 19.0406 139.546 19.0765 139.373 19.0335C139.2 18.9906 139.063 18.893 138.963 18.7415C138.862 18.59 138.808 18.4245 138.801 18.2433C138.794 18.0629 138.837 17.8857 138.93 17.7131C139.024 17.5397 139.186 17.4101 139.416 17.3234C140.049 17.0204 140.676 16.8034 141.295 16.6737C141.914 16.5441 142.497 16.4785 143.044 16.4785C144.009 16.4785 144.804 16.63 145.431 16.933C146.057 17.236 146.521 17.6982 146.824 18.319C147.126 18.9398 147.277 19.741 147.277 20.7226V26.2879C147.277 26.6346 147.191 26.9048 147.018 27.1C146.845 27.2952 146.593 27.392 146.262 27.392C145.931 27.392 145.692 27.2944 145.505 27.1C145.318 26.9048 145.224 26.6346 145.224 26.2879V24.88H145.419C145.304 25.4141 145.091 25.8725 144.782 26.2551C144.472 26.6377 144.087 26.9298 143.626 27.132C143.165 27.3343 142.639 27.435 142.05 27.435L142.051 27.4334Z" fill="#FDFBFF"/>
<path d="M151.401 27.3897C151.056 27.3897 150.789 27.2921 150.602 27.0976C150.415 26.9024 150.321 26.6322 150.321 26.2855V17.6233C150.321 17.2625 150.415 16.9884 150.602 16.8002C150.789 16.6128 151.049 16.5191 151.38 16.5191C151.711 16.5191 151.988 16.6128 152.168 16.8002C152.348 16.9876 152.438 17.2625 152.438 17.6233V19.399L152.2 18.9227C152.489 18.1574 152.935 17.5585 153.539 17.1251C154.144 16.6917 154.871 16.4754 155.721 16.4754C156.57 16.4754 157.312 16.6847 157.859 17.1032C158.406 17.5218 158.78 18.1644 158.982 19.0304H158.68C158.953 18.2363 159.421 17.6123 160.084 17.1571C160.746 16.7026 161.516 16.4746 162.395 16.4746C163.201 16.4746 163.863 16.63 164.381 16.94C164.9 17.2508 165.289 17.7193 165.547 18.3479C165.806 18.9758 165.936 19.766 165.936 20.7195V26.2848C165.936 26.6315 165.838 26.9016 165.644 27.0969C165.45 27.2921 165.18 27.3889 164.835 27.3889C164.489 27.3889 164.222 27.2913 164.036 27.0969C163.848 26.9016 163.754 26.6315 163.754 26.2848V20.828C163.754 19.9331 163.599 19.2764 163.29 18.8571C162.98 18.4385 162.472 18.2292 161.768 18.2292C160.976 18.2292 160.35 18.5033 159.889 19.0523C159.428 19.6012 159.197 20.3587 159.197 21.3262V26.2855C159.197 26.6322 159.104 26.9024 158.917 27.0976C158.729 27.2929 158.463 27.3897 158.118 27.3897C157.772 27.3897 157.502 27.2921 157.308 27.0976C157.113 26.9024 157.016 26.6322 157.016 26.2855V20.8288C157.016 19.9339 156.865 19.2772 156.563 18.8578C156.261 18.4393 155.756 18.23 155.052 18.23C154.26 18.23 153.637 18.5041 153.183 19.0531C152.73 19.602 152.503 20.3595 152.503 21.327V26.2863C152.503 27.0227 152.136 27.3905 151.401 27.3905V27.3897Z" fill="#FDFBFF"/>
<path d="M172.351 27.4334C171.616 27.4334 170.957 27.289 170.374 27C169.791 26.7111 169.334 26.3215 169.003 25.8303C168.672 25.3399 168.506 24.7839 168.506 24.1631C168.506 23.3838 168.704 22.7661 169.1 22.3117C169.496 21.8572 170.151 21.5323 171.066 21.3371C171.98 21.1419 173.214 21.0451 174.769 21.0451H175.784V22.3874H174.79C173.754 22.3874 172.933 22.4382 172.329 22.5389C171.724 22.6404 171.295 22.8099 171.044 23.048C170.791 23.2862 170.666 23.6149 170.666 24.0335C170.666 24.5824 170.853 25.026 171.228 25.3657C171.602 25.7053 172.12 25.8748 172.783 25.8748C173.315 25.8748 173.783 25.7483 174.187 25.4961C174.59 25.2438 174.91 24.9003 175.148 24.4677C175.385 24.0343 175.505 23.5369 175.505 22.9738V20.4836C175.505 19.6606 175.332 19.0687 174.986 18.7079C174.64 18.3472 174.072 18.1668 173.28 18.1668C172.819 18.1668 172.34 18.2246 171.844 18.3401C171.347 18.4557 170.832 18.6509 170.299 18.925C170.054 19.0406 169.846 19.0765 169.673 19.0335C169.5 18.9906 169.363 18.893 169.263 18.7415C169.161 18.59 169.108 18.4245 169.101 18.2433C169.094 18.0629 169.137 17.8857 169.23 17.7131C169.323 17.5397 169.485 17.4101 169.716 17.3234C170.349 17.0204 170.976 16.8034 171.595 16.6737C172.214 16.5441 172.797 16.4785 173.344 16.4785C174.308 16.4785 175.104 16.63 175.73 16.933C176.357 17.236 176.821 17.6982 177.124 18.319C177.426 18.9398 177.577 19.741 177.577 20.7226V26.2879C177.577 26.6346 177.49 26.9048 177.318 27.1C177.145 27.2952 176.892 27.392 176.561 27.392C176.23 27.392 175.992 27.2944 175.805 27.1C175.618 26.9048 175.524 26.6346 175.524 26.2879V24.88H175.719C175.603 25.4141 175.391 25.8725 175.082 26.2551C174.772 26.6377 174.387 26.9298 173.926 27.132C173.465 27.3343 172.939 27.435 172.35 27.435L172.351 27.4334Z" fill="#FDFBFF"/>
<path d="M181.68 27.3897C181.32 27.3897 181.046 27.2921 180.859 27.0977C180.672 26.9024 180.578 26.6323 180.578 26.2855V17.6233C180.578 17.2625 180.672 16.9884 180.859 16.8002C181.046 16.6128 181.306 16.5191 181.637 16.5191C181.968 16.5191 182.245 16.6128 182.425 16.8002C182.605 16.9877 182.695 17.2625 182.695 17.6233V19.2038H182.479C182.71 18.3378 183.134 17.6811 183.753 17.2329C184.372 16.7854 185.164 16.5254 186.129 16.4535C186.388 16.4395 186.593 16.5043 186.744 16.6488C186.895 16.7932 186.977 17.0166 186.992 17.3203C187.021 17.6233 186.956 17.8654 186.798 18.0457C186.639 18.2261 186.394 18.3308 186.063 18.3597L185.653 18.4026C184.717 18.4893 184.004 18.7852 183.514 19.2905C183.024 19.7957 182.78 20.4891 182.78 21.3692V26.2848C182.78 26.6315 182.69 26.9017 182.51 27.0969C182.33 27.2921 182.052 27.3889 181.678 27.3889L181.68 27.3897Z" fill="#FDFBFF"/>
<path d="M84.4308 50.6835C84.2182 50.6835 84.0555 50.6265 83.9417 50.5133C83.828 50.3993 83.772 50.2361 83.772 50.0229V36.9128C83.772 36.6855 83.8288 36.5153 83.9417 36.4013C84.0547 36.2873 84.2182 36.231 84.4308 36.231C84.6294 36.231 84.7852 36.2881 84.8989 36.4013C85.0118 36.5153 85.0686 36.6855 85.0686 36.9128V39.0875L84.835 38.9594C85.0756 38.1067 85.5367 37.432 86.2165 36.9338C86.8972 36.4364 87.7188 36.1881 88.6829 36.1881C89.647 36.1881 90.4087 36.4083 91.0963 36.8487C91.784 37.2891 92.3151 37.9076 92.6905 38.7033C93.0659 39.4998 93.2535 40.4447 93.2535 41.5387C93.2535 42.6327 93.0659 43.5822 92.6905 44.385C92.3151 45.1877 91.7871 45.8062 91.1065 46.2395C90.4258 46.6729 89.6182 46.89 88.6829 46.89C87.7476 46.89 86.8972 46.6417 86.2165 46.1443C85.5359 45.6469 85.0756 44.9862 84.835 44.1616H85.0686V50.0237C85.0686 50.2368 85.0118 50.4 84.8989 50.5141C84.7852 50.6281 84.6294 50.6843 84.4308 50.6843V50.6835ZM88.4914 45.8022C89.186 45.8022 89.7919 45.6351 90.309 45.3009C90.8261 44.9675 91.2264 44.4802 91.5099 43.8407C91.7934 43.2011 91.9351 42.4335 91.9351 41.5387C91.9351 40.1885 91.6228 39.1437 90.9998 38.405C90.376 37.6663 89.5396 37.2962 88.4914 37.2962C87.7967 37.2962 87.1908 37.4633 86.6737 37.7975C86.1558 38.1317 85.7555 38.6151 85.4728 39.2468C85.1893 39.8793 85.0476 40.643 85.0476 41.5387C85.0476 42.9029 85.3591 43.9547 85.9829 44.6934C86.6067 45.4329 87.4423 45.8022 88.4914 45.8022ZM99.1855 46.8892C98.4908 46.8892 97.8709 46.7541 97.325 46.484C96.7791 46.2138 96.3468 45.8444 96.0283 45.3751C95.7098 44.9058 95.5502 44.3803 95.5502 43.7977C95.5502 43.0301 95.7417 42.4265 96.1241 41.9853C96.5065 41.5449 97.1513 41.2357 98.0586 41.0576C98.9659 40.8804 100.213 40.7914 101.801 40.7914H102.715V41.7511H101.822C100.546 41.7511 99.5499 41.8042 98.8342 41.9111C98.1186 42.0181 97.6186 42.2133 97.3351 42.4976C97.0516 42.7818 96.9099 43.1801 96.9099 43.6915C96.9099 44.3311 97.1295 44.8504 97.5687 45.2478C98.008 45.6461 98.603 45.8444 99.3545 45.8444C99.9635 45.8444 100.499 45.6992 100.96 45.4071C101.42 45.1159 101.785 44.7145 102.054 44.203C102.324 43.6915 102.459 43.109 102.459 42.4546V40.0245C102.459 39.0727 102.267 38.38 101.885 37.9459C101.502 37.5125 100.893 37.2954 100.056 37.2954C99.5172 37.2954 98.9962 37.3664 98.4931 37.5086C97.9901 37.6507 97.455 37.8787 96.8881 38.191C96.7323 38.2762 96.5937 38.3051 96.4738 38.2762C96.3531 38.2481 96.2612 38.191 96.1973 38.1059C96.1335 38.0208 96.0906 37.9177 96.0696 37.7967C96.0486 37.6764 96.0657 37.5585 96.1226 37.4453C96.1794 37.3313 96.2783 37.2392 96.42 37.1681C97.015 36.8417 97.6209 36.5965 98.2377 36.4325C98.8545 36.2693 99.4526 36.1873 100.034 36.1873C100.871 36.1873 101.562 36.3294 102.107 36.6137C102.653 36.8979 103.057 37.3243 103.319 37.8928C103.582 38.4612 103.712 39.1929 103.712 40.0886V46.1857C103.712 46.3988 103.663 46.562 103.564 46.676C103.464 46.7893 103.315 46.8463 103.118 46.8463C102.92 46.8463 102.763 46.7893 102.649 46.676C102.536 46.562 102.48 46.3988 102.48 46.1857V44.2241H102.692C102.565 44.7785 102.338 45.2549 102.012 45.6523C101.685 46.0506 101.281 46.3559 100.8 46.5691C100.318 46.7822 99.7797 46.8884 99.1839 46.8884L99.1855 46.8892ZM107.754 46.8463C107.541 46.8463 107.378 46.7893 107.264 46.676C107.151 46.562 107.095 46.3988 107.095 46.1857V36.9128C107.095 36.6855 107.152 36.5153 107.264 36.4013C107.377 36.2873 107.541 36.231 107.754 36.231C107.952 36.231 108.104 36.2881 108.211 36.4013C108.317 36.5153 108.37 36.6855 108.37 36.9128V38.8103H108.158C108.413 37.9716 108.87 37.3251 109.529 36.8706C110.188 36.4161 110.978 36.1811 111.9 36.167C112.07 36.153 112.211 36.1881 112.325 36.2732C112.438 36.3583 112.495 36.4934 112.495 36.6785C112.509 36.8776 112.466 37.0299 112.367 37.1369C112.267 37.2438 112.105 37.311 111.878 37.3391L111.58 37.3602C110.574 37.4601 109.795 37.7936 109.242 38.3621C108.689 38.9305 108.412 39.6981 108.412 40.6641V46.1857C108.412 46.3988 108.359 46.562 108.253 46.676C108.146 46.7893 107.979 46.8463 107.753 46.8463H107.754ZM117.448 46.8892C116.753 46.8892 116.133 46.7541 115.587 46.484C115.041 46.2138 114.609 45.8444 114.291 45.3751C113.972 44.9058 113.812 44.3803 113.812 43.7977C113.812 43.0301 114.004 42.4265 114.386 41.9853C114.769 41.5449 115.414 41.2357 116.321 41.0576C117.227 40.8804 118.475 40.7914 120.063 40.7914H120.977V41.7511H120.084C118.808 41.7511 117.812 41.8042 117.096 41.9111C116.381 42.0181 115.881 42.2133 115.597 42.4976C115.314 42.7818 115.172 43.1801 115.172 43.6915C115.172 44.3311 115.392 44.8504 115.831 45.2478C116.27 45.6461 116.865 45.8444 117.617 45.8444C118.226 45.8444 118.762 45.6992 119.222 45.4071C119.682 45.1159 120.047 44.7145 120.317 44.203C120.586 43.6915 120.721 43.109 120.721 42.4546V40.0245C120.721 39.0727 120.529 38.38 120.147 37.9459C119.765 37.5125 119.155 37.2954 118.318 37.2954C117.779 37.2954 117.258 37.3664 116.755 37.5086C116.252 37.6507 115.717 37.8787 115.15 38.191C114.995 38.2762 114.856 38.3051 114.736 38.2762C114.615 38.2481 114.523 38.191 114.46 38.1059C114.396 38.0208 114.353 37.9177 114.332 37.7967C114.311 37.6764 114.328 37.5585 114.385 37.4453C114.442 37.3313 114.541 37.2392 114.682 37.1681C115.277 36.8417 115.883 36.5965 116.5 36.4325C117.117 36.2693 117.715 36.1873 118.297 36.1873C119.133 36.1873 119.824 36.3294 120.37 36.6137C120.915 36.8979 121.319 37.3243 121.581 37.8928C121.844 38.4612 121.975 39.1929 121.975 40.0886V46.1857C121.975 46.3988 121.925 46.562 121.826 46.676C121.726 46.7893 121.578 46.8463 121.38 46.8463C121.182 46.8463 121.025 46.7893 120.912 46.676C120.798 46.562 120.742 46.3988 120.742 46.1857V44.2241H120.955C120.827 44.7785 120.6 45.2549 120.274 45.6523C119.948 46.0506 119.543 46.3559 119.062 46.5691C118.58 46.7822 118.042 46.8884 117.446 46.8884L117.448 46.8892ZM134.513 46.8463C134.3 46.8463 134.123 46.7893 133.981 46.676C133.839 46.562 133.712 46.3918 133.599 46.1646L129.772 37.211C129.701 37.0408 129.676 36.8807 129.697 36.7316C129.718 36.5824 129.782 36.4614 129.889 36.3693C129.995 36.2771 130.147 36.231 130.346 36.231C130.53 36.231 130.668 36.274 130.76 36.3591C130.852 36.4442 130.934 36.5793 131.005 36.7644L134.789 45.9311H134.257L138.063 36.7644C138.134 36.5801 138.218 36.445 138.318 36.3591C138.417 36.274 138.559 36.231 138.743 36.231C138.928 36.231 139.066 36.2771 139.158 36.3693C139.25 36.4622 139.302 36.5793 139.317 36.7207C139.331 36.8628 139.303 37.019 139.232 37.19L135.405 46.1646C135.321 46.3918 135.2 46.5628 135.044 46.676C134.888 46.7893 134.711 46.8463 134.512 46.8463H134.513ZM145.59 46.8892C144.625 46.8892 143.789 46.669 143.081 46.2286C142.372 45.7882 141.823 45.1697 141.433 44.374C141.043 43.5783 140.848 42.6335 140.848 41.5387C140.848 40.7289 140.958 39.9964 141.178 39.3428C141.397 38.6892 141.716 38.1247 142.134 37.6483C142.552 37.1728 143.055 36.8097 143.643 36.5614C144.231 36.313 144.88 36.1881 145.589 36.1881C146.567 36.1881 147.41 36.4083 148.119 36.8487C148.828 37.2891 149.377 37.9115 149.767 38.7142C150.156 39.517 150.352 40.4587 150.352 41.5387C150.352 42.3633 150.242 43.102 150.022 43.7556C149.803 44.4092 149.483 44.9706 149.065 45.4399C148.647 45.9092 148.147 46.2676 147.566 46.5167C146.985 46.7651 146.325 46.89 145.589 46.89L145.59 46.8892ZM145.59 45.8022C146.298 45.8022 146.911 45.6351 147.428 45.3009C147.945 44.9675 148.342 44.4802 148.619 43.8407C148.895 43.2011 149.033 42.4335 149.033 41.5387C149.033 40.1885 148.725 39.1437 148.108 38.405C147.491 37.6663 146.652 37.2962 145.589 37.2962C144.894 37.2962 144.288 37.4633 143.771 37.7975C143.253 38.1317 142.857 38.6151 142.58 39.2468C142.304 39.8793 142.166 40.643 142.166 41.5387C142.166 42.9029 142.478 43.9547 143.101 44.6934C143.725 45.4329 144.554 45.8022 145.589 45.8022H145.59ZM157.325 46.8892C156.319 46.8892 155.454 46.6651 154.731 46.2177C154.008 45.7702 153.451 45.1377 153.062 44.3201C152.672 43.5033 152.477 42.5546 152.477 41.4738C152.477 40.65 152.587 39.9144 152.806 39.2671C153.026 38.6205 153.345 38.07 153.763 37.6148C154.181 37.1603 154.691 36.8081 155.294 36.5598C155.896 36.3115 156.573 36.1865 157.324 36.1865C157.848 36.1865 158.387 36.2756 158.94 36.4528C159.493 36.6309 159.996 36.9252 160.449 37.3375C160.548 37.4227 160.612 37.5226 160.641 37.6358C160.669 37.7499 160.662 37.86 160.62 37.9662C160.577 38.0724 160.513 38.1583 160.428 38.2223C160.343 38.2863 160.241 38.3222 160.12 38.3293C159.999 38.3363 159.875 38.2832 159.748 38.1692C159.35 37.8428 158.95 37.6187 158.547 37.4976C158.143 37.3774 157.749 37.3165 157.367 37.3165C156.786 37.3165 156.275 37.4094 155.836 37.5937C155.397 37.7787 155.024 38.0489 154.72 38.4034C154.415 38.7587 154.185 39.196 154.029 39.7145C153.873 40.2338 153.795 40.8265 153.795 41.4949C153.795 42.831 154.104 43.8789 154.721 44.6395C155.337 45.4001 156.22 45.7804 157.368 45.7804C157.75 45.7804 158.143 45.7203 158.548 45.5992C158.952 45.479 159.352 45.2549 159.748 44.9277C159.876 44.8144 160 44.7606 160.121 44.7676C160.241 44.7746 160.344 44.8105 160.429 44.8746C160.514 44.9386 160.574 45.0237 160.61 45.1307C160.645 45.2377 160.649 45.3478 160.621 45.461C160.592 45.575 160.528 45.6742 160.429 45.7593C159.99 46.1716 159.494 46.4629 158.941 46.6331C158.388 46.8033 157.849 46.8892 157.325 46.8892ZM168.674 46.6456C167.63 46.8455 166.692 46.808 165.86 46.5331C165.028 46.2583 164.337 45.7687 163.784 45.0643C163.231 44.36 162.853 43.4705 162.648 42.3953C162.446 41.3349 162.471 40.3713 162.725 39.5045C162.978 38.6385 163.421 37.9138 164.053 37.3297C164.684 36.7456 165.467 36.3646 166.4 36.1858C167.082 36.0553 167.706 36.0553 168.272 36.1858C168.838 36.3162 169.346 36.559 169.796 36.9143C170.246 37.2696 170.626 37.7319 170.937 38.3019C171.248 38.872 171.476 39.5412 171.622 40.3088C171.66 40.5048 171.636 40.661 171.549 40.7789C171.464 40.8968 171.33 40.9725 171.149 41.0077L163.61 42.4515L163.431 41.509L170.761 40.1058L170.479 40.4423C170.325 39.6325 170.076 38.968 169.731 38.448C169.387 37.9279 168.953 37.5593 168.428 37.3415C167.903 37.1236 167.299 37.0799 166.617 37.211C165.852 37.3579 165.238 37.6593 164.777 38.1169C164.315 38.5745 164.011 39.139 163.866 39.8106C163.719 40.4829 163.723 41.2232 163.877 42.033L163.898 42.1376C164.153 43.4776 164.676 44.4451 165.468 45.0386C166.259 45.6328 167.246 45.8155 168.429 45.5891C168.944 45.4907 169.429 45.3251 169.883 45.094C170.337 44.8629 170.761 44.5349 171.157 44.1124C171.277 43.9883 171.404 43.9133 171.536 43.8875C171.668 43.8618 171.786 43.8758 171.89 43.9281C171.994 43.9805 172.073 44.0562 172.128 44.1538C172.182 44.2522 172.197 44.3654 172.171 44.4927C172.144 44.6208 172.071 44.7473 171.95 44.8714C171.573 45.3197 171.09 45.6984 170.499 46.0061C169.909 46.3145 169.3 46.5285 168.674 46.6487V46.6456ZM168.876 34.3702C168.926 34.4553 168.939 34.5303 168.916 34.5951C168.893 34.6599 168.848 34.7076 168.78 34.7388C168.712 34.77 168.642 34.7794 168.569 34.7677C168.496 34.756 168.435 34.7161 168.385 34.6482L167.003 32.7234L165.677 34.6873C165.63 34.7568 165.57 34.7981 165.497 34.8122C165.425 34.8263 165.354 34.8184 165.285 34.7895C165.217 34.7607 165.17 34.7138 165.145 34.6498C165.12 34.5857 165.131 34.5108 165.179 34.4241L166.43 32.3321C166.496 32.2111 166.577 32.1236 166.673 32.0713C166.769 32.0182 166.876 31.9909 166.993 31.9893C167.109 31.9878 167.216 32.012 167.314 32.0619C167.412 32.1119 167.496 32.197 167.566 32.3157L168.877 34.3702H168.876Z" fill="#FDFBFF"/>
<path d="M175.954 47.2891V45.1394C175.954 44.9769 175.98 44.8278 176.03 44.6935C176.081 44.5592 176.165 44.4428 176.282 44.3452L179.046 42.0604C179.269 41.8815 179.53 41.7347 179.83 41.6207C179.683 41.5637 179.544 41.5005 179.415 41.4318C179.285 41.363 179.162 41.2787 179.046 41.1811L176.282 38.9087C176.165 38.8111 176.081 38.6948 176.03 38.5605C175.98 38.4262 175.954 38.2778 175.954 38.1146V35.9648L181.985 41.0101V42.2314L175.954 47.2891Z" fill="#FDFBFF"/>
<path d="M79.8376 14.6152V16.765C79.8376 16.9274 79.8119 17.0766 79.7613 17.2109C79.7106 17.3452 79.6265 17.4615 79.5097 17.5591L76.7459 19.844C76.5223 20.0228 76.2615 20.1696 75.9616 20.2836C76.1088 20.3406 76.2474 20.4039 76.3767 20.4726C76.506 20.5413 76.629 20.6256 76.7459 20.7232L79.5097 22.9956C79.6265 23.0932 79.7106 23.2096 79.7613 23.3439C79.8119 23.4782 79.8376 23.6265 79.8376 23.7897V25.9395L73.8068 20.8943V19.673L79.8376 14.6152Z" fill="#FDFBFF"/>
</g>
<defs>
<clipPath id="clip0_2188_52">
<rect width="187" height="62" fill="white"/>
</clipPath>
</defs>
</svg>
