<svg width="52" height="46" viewBox="0 0 52 46" fill="none" xmlns="http://www.w3.org/2000/svg">
<path d="M30.8638 22.5974C32.95 21.7284 35.0247 20.813 37.0764 19.8629C38.9327 18.9996 40.7488 18.0031 42.3293 16.9197C43.3522 16.2187 44.3695 15.5003 45.3752 14.7761C46.0649 14.2778 46.6223 13.7622 47.0419 13.0554C47.0591 13.0264 47.0591 12.9974 47.0419 12.9685C46.6971 12.4471 46.3177 12.0067 45.835 11.5375C44.9442 10.6742 43.9614 9.82255 42.8925 8.98828C40.1971 6.8852 37.4327 5.00228 34.5937 3.34531C33.1914 2.52842 31.7144 1.77525 30.1511 1.0916C28.9845 0.581767 27.7431 0.176216 26.4845 0.0661372C24.3293 -0.119258 22.1397 0.100899 19.973 0.529625C16.5018 1.21327 13.1685 2.31405 9.96157 3.82039C8.38687 4.56197 6.89262 5.42521 5.46734 6.41592C4.45585 7.11694 3.49608 7.92805 2.75471 8.92455C2.73746 8.94193 2.73746 8.9709 2.74896 8.99407C3.42137 10.344 4.38114 11.5722 5.36964 12.673C7.09377 14.5965 9.01905 16.433 11.088 18.0089C13.2087 19.6195 15.3524 21.2591 17.5937 22.6901C19.3121 23.7851 21.1914 24.6426 23.2316 24.631C24.5362 24.631 25.8638 24.3587 27.0707 23.9821C28.2948 23.5997 29.5592 23.142 30.8638 22.5974ZM9.16273 6.71719C9.16273 6.71139 9.15698 6.71139 9.15698 6.7056C9.15181 6.69517 9.1564 6.68532 9.16502 6.67895C9.1656 6.67837 9.16617 6.67721 9.16732 6.67721C9.16732 6.67721 9.16732 6.67721 9.1679 6.67663C11.5242 5.64537 13.8805 4.61411 16.2368 3.58864C17.7196 2.94555 19.2368 2.57476 20.8345 2.37778C21.4684 2.29957 22.1035 2.26191 22.7357 2.26655C24.6322 2.27929 26.5052 2.67152 28.2655 3.48436C29.1793 3.90729 29.8919 4.41713 30.685 5.03704C31.754 5.87711 32.9034 7.12853 33.0011 8.56534C33.0988 10.0497 32.2592 11.1435 31.1368 11.9876C30.6764 12.3347 30.1678 12.6382 29.6569 12.91C29.1397 13.1852 28.6201 13.4273 28.1448 13.6463C28.1379 13.6498 28.131 13.6515 28.1241 13.6521C28.1063 13.6568 28.0897 13.6544 28.0759 13.6405L25.1104 11.439C25.1046 11.439 25.0989 11.4332 25.0989 11.4274C25.0931 11.4158 25.1046 11.3984 25.1161 11.3926L25.1219 11.3868C25.9351 11.0444 26.6402 10.7605 27.2638 10.0891C27.2816 10.0694 27.2994 10.0514 27.3172 10.0311C28.4035 8.80867 27.1218 7.22702 26.0701 6.58973C24.277 5.50053 22.3058 5.03704 20.2368 5.54109C18.8748 5.87132 17.5242 6.46806 16.2598 7.0706C16.2547 7.07291 16.2512 7.07581 16.2483 7.07813C16.2386 7.08856 16.242 7.09667 16.2541 7.10536L32.5184 18.9185C32.5299 18.9243 32.5299 18.9359 32.5241 18.9475C32.5241 18.9533 32.5184 18.9533 32.5184 18.9533L28.4839 20.7145C28.4753 20.7174 28.4661 20.7186 28.4575 20.718C28.4471 20.718 28.4368 20.7157 28.4264 20.7087L9.16273 6.71719ZM18.8811 29.0689C19.0822 30.2566 19.1052 31.3805 19.0707 32.545C19.019 34.4801 18.9098 36.4094 18.7374 38.3386C18.5535 40.4359 18.3236 42.5274 18.1684 44.6247C18.1684 44.6479 18.1569 44.6537 18.134 44.6479C17.9673 44.6015 17.8294 44.5494 17.7087 44.4972C16.2949 43.8541 14.9558 42.8345 13.7432 41.838C10.9501 39.5321 8.26618 36.9598 5.85239 34.37C4.49608 32.9158 3.54781 31.6412 2.14551 29.7931C0.984599 28.2694 -0.101604 26.6935 0.00759126 24.6947C0.0363268 24.1269 0.105292 23.5592 0.202993 22.9972C0.3869 21.9717 0.56506 20.9521 0.74322 19.9266C1.13977 17.6613 1.44437 15.3786 1.66276 13.0843C1.66276 13.0728 1.67425 13.0612 1.68575 13.067C1.68958 13.067 1.69341 13.0689 1.69724 13.0728C4.02482 15.0831 6.00757 17.4643 8.34089 19.4573C11.6742 22.302 15.0133 25.1408 18.3581 27.9797C18.6972 28.2636 18.8064 28.6344 18.8811 29.0689ZM51.0131 29.7351C46.5361 33.1708 41.9327 36.4152 37.0994 39.3178C32.7201 41.9538 28.1512 44.1786 23.3811 45.9978C23.3638 46.0036 23.3466 45.9978 23.3351 45.9804V28.8371C23.3351 28.8198 23.3466 28.8024 23.3581 28.7966C25.6971 27.5857 28.2316 26.9774 30.6799 26.0388C33.5075 24.9554 36.2431 23.6866 38.8982 22.2209C41.4442 20.8188 43.8982 19.2603 46.3752 17.7366C47.0074 17.3484 47.6568 16.995 48.3177 16.6706C48.3522 16.6532 48.3752 16.6648 48.381 16.7053L51.0361 29.6772C51.0419 29.7004 51.0304 29.7236 51.0131 29.7351Z" fill="url(#paint0_linear_70_8)"/>
<defs>
<linearGradient id="paint0_linear_70_8" x1="-0.919416" y1="23.0001" x2="64.397" y2="23.0001" gradientUnits="userSpaceOnUse">
<stop stop-color="#5271DC"/>
<stop offset="0.52" stop-color="#7404BF"/>
<stop offset="1" stop-color="#E50071"/>
</linearGradient>
</defs>
</svg>
