<svg width="96" height="36" viewBox="0 0 96 36" fill="none" xmlns="http://www.w3.org/2000/svg">
<path d="M9.05629 1.34814H7.89285C6.46501 1.34814 5.30157 2.38818 5.30157 3.90417V5.33202C5.30157 6.848 6.46501 7.88804 7.89285 7.88804H9.05629C10.5282 7.88804 11.6476 6.848 11.6476 5.33202V3.90417C11.6476 2.37937 10.5194 1.34814 9.05629 1.34814Z" fill="white"/>
<path d="M28.5614 10.4712C24.9301 10.4712 22.6385 12.375 21.5103 14.4903L21.334 11.0265H15.9311V33.3432H21.5543V20.9773C21.5543 17.2579 23.5463 15.0985 26.5254 15.0985C29.5045 15.0985 30.7208 17.0023 30.7208 20.4221V33.352H36.3V18.9942C36.3 13.9703 34.0965 10.4712 28.5614 10.4712Z" fill="white"/>
<path d="M2.04932 15.6179H5.76877V33.3514H11.392V11.0347H2.04932V15.6179Z" fill="white"/>
<path d="M65.28 10.4712C58.273 10.4712 53.9013 15.0985 53.9013 21.8852V22.4493C53.9013 29.3241 58.1849 33.9073 65.28 33.9073C71.0355 33.9073 74.8783 30.9635 75.9624 26.2921H70.3833C69.731 28.1959 68.1357 29.5356 65.28 29.5356C61.9043 29.5356 59.9564 27.4996 59.6568 23.5245H76.0946C76.4825 15.7948 72.763 10.4712 65.28 10.4712ZM59.789 19.6817C60.309 16.4382 62.1247 14.8341 65.236 14.8341C68.3913 14.8341 70.0395 16.6497 70.3392 19.6817H59.789Z" fill="white"/>
<path d="M45.8543 26.5117V15.6177H51.7331V11.0345H45.8543V3.46338H40.231V27.0758C40.231 31.5708 42.6989 33.9065 47.8903 33.9065C49.1859 33.9065 50.79 33.6862 51.8301 33.3424V28.9707C51.2219 29.1911 50.1907 29.4467 49.1507 29.4467C46.6828 29.4555 45.8543 28.5477 45.8543 26.5117Z" fill="white"/>
<path d="M91.8362 10.6465C88.5927 10.6465 86.3011 12.5503 85.217 15.3619L85.0848 11.0343H79.6819V33.351H85.3051V22.2808C85.3051 17.9973 87.253 15.6175 91.5366 15.6175C92.1006 15.6175 92.7441 15.6616 93.1407 15.7056V10.7787C92.7881 10.6906 92.224 10.6465 91.8362 10.6465Z" fill="white"/>
</svg>
