<svg width="127" height="33" viewBox="0 0 127 33" fill="none" xmlns="http://www.w3.org/2000/svg">
<mask id="mask0_1319_500" style="mask-type:luminance" maskUnits="userSpaceOnUse" x="0" y="0" width="127" height="33">
<path d="M127 0.709473H0.640503V32.885H127V0.709473Z" fill="white"/>
</mask>
<g mask="url(#mask0_1319_500)">
<path d="M47.0574 15.7239C46.9893 7.40353 36.6839 0.71094 24.0247 0.71094H23.7241C19.6261 0.709268 15.5644 1.47889 11.7512 2.97962C5.34217 5.53755 0.974972 10.0749 0.668701 15.2758C0.668701 15.4233 0.668701 15.5651 0.668701 15.7069C0.668701 15.8486 0.668701 15.8373 0.668701 15.8997V15.9678C0.668701 16.0075 0.668701 16.0528 0.668701 16.0926V16.7845C0.668701 16.7845 0.668701 16.8413 0.668701 16.8752V16.9774C0.668701 17.0964 0.668701 17.2155 0.668701 17.329C0.668701 17.4424 0.668701 17.5445 0.668701 17.6466C0.918255 21.7926 3.16424 25.553 7.04935 28.3037C11.2747 31.2927 17.0032 32.8411 23.6277 32.8411H23.985C30.791 32.7843 36.6329 31.1112 40.8696 28.0031C44.8965 25.0425 47.1084 20.9815 47.0631 16.569L47.0574 15.7239Z" fill="white"/>
<path d="M21.5805 22.195C21.788 22.1084 22.0084 22.0567 22.2328 22.0419C22.4782 21.9965 22.7307 22.0057 22.9723 22.0688C23.2138 22.1319 23.4385 22.2474 23.6304 22.4071C23.8223 22.5668 23.9767 22.7667 24.0827 22.9927C24.1886 23.2188 24.2436 23.4654 24.2436 23.7151C24.2436 23.9647 24.1886 24.2113 24.0827 24.4373C23.9767 24.6634 23.8223 24.8633 23.6304 25.023C23.4385 25.1827 23.2138 25.2982 22.9723 25.3613C22.7307 25.4244 22.4782 25.4336 22.2328 25.3882C21.804 25.3915 21.3907 25.2285 21.0798 24.9334C20.7688 24.6383 20.5843 24.2341 20.5653 23.8058C20.5653 23.4258 20.3441 23.3691 20.225 23.3691C20.1649 23.3729 20.1063 23.389 20.0526 23.4163C19.999 23.4436 19.9515 23.4816 19.913 23.5279C19.7117 23.7438 19.4361 23.8755 19.1417 23.8965C18.9581 23.896 18.7765 23.8574 18.6086 23.7831C18.322 23.7071 18.0729 23.5292 17.908 23.2829C17.7431 23.0365 17.6736 22.7385 17.7125 22.4445C17.7274 22.3865 17.728 22.3257 17.7141 22.2675C17.7003 22.2091 17.6724 22.1551 17.633 22.11C17.5803 22.0629 17.5155 22.0314 17.4459 22.0192C17.3922 22.0127 17.3378 22.0175 17.2861 22.0331C17.2343 22.0487 17.1864 22.0749 17.1452 22.11C16.91 22.3113 16.6232 22.4429 16.3171 22.49C16.1685 22.4851 16.0213 22.4583 15.8805 22.4106C15.4762 22.2833 15.1327 22.0119 14.9152 21.648C14.6977 21.2842 14.6214 20.8532 14.7007 20.4368C14.7176 20.3783 14.7163 20.3162 14.6971 20.2584C14.6779 20.2007 14.6416 20.1502 14.593 20.1136C14.4455 20.0227 14.3037 20.1589 14.213 20.2497C14.1102 20.3505 13.9858 20.4265 13.8491 20.4717C13.7125 20.517 13.5672 20.5302 13.4247 20.5105C13.0834 20.4861 12.763 20.3375 12.5237 20.093C12.2844 19.8486 12.1429 19.525 12.1258 19.1833C12.1243 19.0165 12.1557 18.851 12.2182 18.6963C12.2807 18.5416 12.373 18.4007 12.4899 18.2817C12.6068 18.1626 12.746 18.0679 12.8996 18.0026C13.0532 17.9374 13.2181 17.9031 13.3849 17.9016C13.6774 17.8641 13.9731 17.9385 14.2129 18.11C14.4528 18.2814 14.6189 18.5372 14.6781 18.826C14.6781 18.826 14.6781 18.8771 14.6781 18.9054C14.6781 18.9338 14.7121 19.1607 14.8425 19.2004C14.973 19.2401 15.0808 19.1096 15.1431 19.0132C15.1549 18.9902 15.1703 18.9691 15.1885 18.9508L15.2283 18.8998C15.3866 18.6715 15.6049 18.4914 15.8591 18.3794C16.1133 18.2672 16.3935 18.2276 16.6688 18.2646C16.8607 18.2691 17.0513 18.2977 17.236 18.3496C17.5048 18.4454 17.735 18.6262 17.8916 18.8647C18.0483 19.1033 18.1228 19.3864 18.1037 19.6711C18.1022 19.7544 18.1335 19.835 18.1908 19.8954C18.2481 19.9559 18.3268 19.9914 18.4101 19.9944C18.4613 19.9906 18.5113 19.9767 18.557 19.9532C18.6028 19.9299 18.6435 19.8976 18.6766 19.8583C18.7968 19.71 18.9456 19.5873 19.1142 19.4977C19.2827 19.4081 19.4676 19.3532 19.6578 19.3365C19.9064 19.3386 20.1517 19.3927 20.3781 19.4953C21.5975 20.0057 21.0474 21.5655 21.0417 21.5825C20.968 21.764 20.8489 22.0703 21.1041 22.2347L21.1551 22.2631H21.2572C21.3511 22.2554 21.443 22.2325 21.5295 22.195H21.5805Z" fill="#A235BE"/>
<path d="M45.7982 13.9254C42.5412 14.6854 39.3624 15.7487 36.3037 17.1015C34.1088 15.2185 29.0326 10.8627 27.6601 9.87018C27.11 9.41776 26.4866 9.06287 25.8168 8.82089C25.5177 8.72714 25.2057 8.6812 24.8923 8.68477C24.5063 8.69729 24.1242 8.76607 23.758 8.88895C22.7802 9.29927 21.8804 9.87483 21.0979 10.5904L21.0469 10.6302C20.2698 11.2597 19.4702 11.9063 18.8803 12.0424C18.6183 12.1052 18.35 12.1375 18.0806 12.1389C17.5751 12.1779 17.0728 12.0307 16.6683 11.7248C16.6844 11.6898 16.7054 11.6573 16.7307 11.6283L18.6421 9.52989C20.1224 8.02685 21.5176 6.60893 24.7505 6.50684H24.9093C26.3832 6.5482 27.8345 6.8797 29.1801 7.48237C31.0396 8.38581 33.0794 8.85697 35.1467 8.8606C37.3614 8.80833 39.5384 8.27619 41.5274 7.30088C43.728 9.20089 45.2594 11.4582 45.7982 13.9254Z" fill="#A934B9"/>
<path d="M23.7355 1.74282H24.0248C27.0811 1.73393 30.1238 2.15005 33.0654 2.97924L33.2583 3.03596L33.6553 3.16074C36.0775 3.90483 38.3655 5.03064 40.433 6.49569C38.7521 7.2496 36.9376 7.66031 35.0959 7.70375H35.0222C33.1578 7.69106 31.32 7.25878 29.6454 6.43898C28.1577 5.77419 26.5551 5.40437 24.9266 5.35001H24.677C22.7041 5.33752 20.7915 6.02935 19.2832 7.30107C18.3747 7.36022 17.4772 7.53362 16.6119 7.81719C16.0203 8.02101 15.4042 8.145 14.7799 8.18585H14.1447H14.0369C11.8017 7.8122 9.60654 7.22923 7.48047 6.44464C11.6662 3.47835 17.5647 1.77684 23.7355 1.74282Z" fill="#A135BE"/>
<path d="M6.43085 7.23877C9.36877 8.41281 12.7718 9.24655 13.8041 9.30326H14.0309C14.2691 9.30326 14.513 9.30326 14.7568 9.33163C15.4926 9.29206 16.2195 9.15277 16.9178 8.91759C17.2071 8.83251 17.485 8.75311 17.7742 8.67937L17.7345 8.72475L15.7948 10.8573C15.6277 11.0115 15.5107 11.2124 15.4591 11.4339C15.4075 11.6553 15.4236 11.8873 15.5055 12.0994C15.6281 12.3608 15.8255 12.5799 16.0727 12.729C16.7322 13.1024 17.4818 13.2869 18.2393 13.2621C18.5294 13.2627 18.8186 13.2304 19.1014 13.1657C19.9464 12.9672 20.8029 12.2696 21.7387 11.5209C22.4745 10.8726 23.3169 10.3565 24.2286 9.99521C24.449 9.93659 24.6755 9.90421 24.9035 9.89877H25.0737C25.7677 10.0106 26.4162 10.3152 26.9454 10.7779C28.4824 11.9123 35.0502 17.584 35.8102 18.2078C35.9354 18.3265 36.0344 18.4701 36.1008 18.6292C36.1672 18.7885 36.1996 18.9598 36.1958 19.1323C36.183 19.2967 36.131 19.4555 36.0442 19.5956C35.9573 19.7358 35.8382 19.853 35.6967 19.9377C35.4435 20.1098 35.1464 20.2063 34.8404 20.2156C34.5842 20.2151 34.3331 20.1445 34.1143 20.0114L33.9329 19.8526C33.326 19.2854 31.4827 17.6577 30.7227 17.0168C30.5883 16.8706 30.4044 16.7796 30.2066 16.7615C30.1498 16.7609 30.0936 16.7733 30.0425 16.7979C29.9913 16.8225 29.9466 16.8585 29.9116 16.9033C29.7415 17.1188 29.8322 17.4194 30.1329 17.669L33.014 20.5048C33.2001 20.6843 33.3234 20.919 33.3656 21.1741C33.3763 21.3904 33.3248 21.6052 33.2173 21.7931C33.1098 21.981 32.9507 22.1343 32.7589 22.2347C32.4874 22.4318 32.1638 22.5443 31.8286 22.558C31.5796 22.5582 31.3356 22.4873 31.1254 22.3538L30.683 21.9285C29.94 21.2081 29.1687 20.4651 28.6014 20.0001C28.4641 19.862 28.2843 19.774 28.091 19.7505C28.0375 19.7495 27.9845 19.7601 27.9355 19.7817C27.8865 19.8033 27.8429 19.8352 27.8074 19.8753C27.728 19.966 27.6259 20.1702 27.8528 20.4424C27.8995 20.503 27.9507 20.5598 28.0059 20.6127L30.1044 22.9323C30.2068 23.0411 30.268 23.1823 30.2773 23.3315C30.2866 23.4806 30.2435 23.6283 30.1555 23.7491L30.0931 23.8341C30.0307 23.9022 29.9683 23.9589 29.9116 24.01C29.6451 24.209 29.3196 24.3128 28.9871 24.3049C28.9023 24.3139 28.8168 24.3139 28.7319 24.3049C28.4937 24.2651 28.4256 24.2085 28.403 24.1801L28.3349 24.112C27.7398 23.4902 27.1112 22.9014 26.4519 22.3482C26.3218 22.2137 26.1497 22.1277 25.9641 22.1042C25.9092 22.106 25.8551 22.119 25.8054 22.1424C25.7556 22.1658 25.7112 22.1992 25.6749 22.2404C25.4991 22.4332 25.5785 22.7225 25.8734 23.0004L27.4558 24.7586C27.4161 24.821 27.2403 25.0138 26.6334 25.0932C26.556 25.0989 26.4783 25.0989 26.4009 25.0932C25.8614 25.0635 25.3349 24.9163 24.8581 24.6622C24.9943 24.3253 25.0637 23.965 25.0623 23.6016C25.055 22.8708 24.7618 22.1719 24.2456 21.6546C23.7292 21.1373 23.031 20.8426 22.3002 20.8338C22.3305 20.3367 22.2068 19.8424 21.946 19.4181C21.6851 18.9939 21.2998 18.6604 20.8426 18.463C20.4843 18.3076 20.0988 18.2247 19.7083 18.2192C19.4558 18.2186 19.2049 18.2588 18.9653 18.3383C18.667 17.8372 18.1945 17.4637 17.6381 17.289C17.3187 17.1716 16.98 17.1158 16.6399 17.1245C16.1231 17.1218 15.6174 17.2739 15.188 17.5612C14.9669 17.3157 14.6966 17.1196 14.3946 16.9857C14.0926 16.8519 13.7657 16.7832 13.4354 16.7842C12.8467 16.7868 12.2803 17.0093 11.8473 17.4081C11.1724 16.9316 8.91505 15.6158 3.24903 14.3794C2.99381 14.3227 2.43798 14.1695 1.9729 14.0391C2.44933 11.5663 4.00337 9.21819 6.43085 7.23877Z" fill="#A934B9"/>
<path d="M45.9912 16.7556C45.9912 16.9408 45.9686 17.1299 45.9232 17.3227C45.4241 20.5386 43.2404 23.5616 39.6389 25.8813C35.4703 28.598 29.9063 30.1237 23.9794 30.1748H23.6788C11.5811 30.1748 1.74073 23.936 1.67834 16.1941C1.67834 15.9502 1.67834 15.6779 1.71237 15.3774L2.94313 15.6609C8.52407 16.852 10.6112 18.1112 11.133 18.4968C11.0397 18.7569 10.9937 19.0316 10.9969 19.3078C11.0014 19.9382 11.255 20.5411 11.7022 20.9853C12.1496 21.4294 12.7544 21.6786 13.3847 21.6786C13.4923 21.687 13.6004 21.687 13.708 21.6786C13.8207 22.119 14.0408 22.5246 14.3486 22.8592C14.6564 23.1937 15.0423 23.4468 15.4719 23.5956C15.8793 23.7564 16.3245 23.7957 16.7537 23.7091C17.0501 24.2993 17.5649 24.7509 18.1886 24.9682C18.4923 25.0871 18.8154 25.1486 19.1415 25.1496C19.3347 25.1368 19.5254 25.0987 19.7086 25.0363C19.9347 25.5113 20.2906 25.9124 20.7354 26.1935C21.18 26.4746 21.6952 26.6239 22.2212 26.6243C22.9368 26.6129 23.6216 26.3312 24.1382 25.8359C24.8214 26.2063 25.5795 26.4177 26.3558 26.4541C26.4755 26.4536 26.5949 26.4441 26.7131 26.4258C27.0243 26.415 27.3294 26.3369 27.6075 26.1968C27.8856 26.0569 28.1299 25.8582 28.324 25.6147L28.3749 25.541C28.5863 25.5949 28.8034 25.6235 29.0216 25.6261C29.5782 25.6073 30.1136 25.4083 30.5473 25.0589C30.9706 24.7632 31.2822 24.3337 31.432 23.8395H31.8007C32.3596 23.8268 32.9021 23.6492 33.3604 23.3291C33.6902 23.136 33.9667 22.8638 34.1648 22.537C34.3629 22.2102 34.4763 21.8391 34.4948 21.4574C34.6118 21.4659 34.7293 21.4659 34.8464 21.4574C35.369 21.4479 35.8774 21.2863 36.3097 20.9923C36.6018 20.8092 36.8466 20.5595 37.024 20.2639C37.2014 19.9682 37.3064 19.6347 37.3306 19.2909C37.357 18.8706 37.2687 18.4511 37.0753 18.0771C39.95 16.897 42.9144 15.9487 45.9402 15.2412C45.9402 15.4908 45.9856 15.7347 45.9856 15.9899C45.9856 16.2452 46.0082 16.5174 45.9912 16.7556Z" fill="#A135BE"/>
<path d="M125.77 6.26802C124.938 5.22443 123.671 4.70264 121.969 4.70264C120.268 4.70264 119.002 5.22443 118.17 6.26802C117.356 7.337 116.917 8.64291 116.917 9.98579C116.917 11.3287 117.356 12.6346 118.17 13.7036C119.002 14.7321 120.268 15.2463 121.969 15.2463C123.671 15.2463 124.938 14.7264 125.77 13.6866C126.582 12.6176 127.022 11.3117 127.022 9.96877C127.022 8.6259 126.582 7.31999 125.77 6.25101V6.26802ZM123.705 12.2687C123.489 12.5212 123.221 12.724 122.92 12.8631C122.619 13.0021 122.29 13.0741 121.958 13.0741C121.626 13.0741 121.298 13.0021 120.996 12.8631C120.694 12.724 120.427 12.5212 120.211 12.2687C119.813 11.5716 119.604 10.7828 119.604 9.98017C119.604 9.17749 119.813 8.38871 120.211 7.69161C120.427 7.43906 120.694 7.23627 120.996 7.09722C121.298 6.95816 121.626 6.88615 121.958 6.88615C122.29 6.88615 122.619 6.95816 122.92 7.09722C123.221 7.23627 123.489 7.43906 123.705 7.69161C124.102 8.38871 124.312 9.17749 124.312 9.98017C124.312 10.7828 124.102 11.5716 123.705 12.2687Z" fill="white"/>
<path d="M104.41 5.39575C103.508 4.95175 102.512 4.73006 101.506 4.74919C99.8045 4.74919 98.6699 5.1859 97.9556 6.05934C97.502 6.6843 97.2466 7.43135 97.2238 8.20324H99.7308C99.7694 7.87134 99.8967 7.55597 100.099 7.29009C100.273 7.12383 100.48 6.99716 100.707 6.91882C100.935 6.84049 101.176 6.81236 101.415 6.83636C101.849 6.81041 102.283 6.89021 102.68 7.0689C102.823 7.15362 102.94 7.27768 103.015 7.42642C103.091 7.57517 103.122 7.74238 103.106 7.90831C103.103 8.07594 103.047 8.23833 102.944 8.37122C102.842 8.50411 102.699 8.60037 102.538 8.64563C102.204 8.76741 101.854 8.84371 101.5 8.87249L100.61 8.98593C99.8203 9.05423 99.0507 9.26968 98.3409 9.62114C97.8793 9.88483 97.5011 10.2729 97.2492 10.7413C96.9974 11.2096 96.8825 11.7392 96.9176 12.2699C96.8939 12.6767 96.9606 13.0837 97.1141 13.4614C97.2668 13.8391 97.502 14.178 97.8021 14.4534C98.4453 14.9662 99.2482 15.2371 100.071 15.2191C105.743 15.4743 105.669 12.2358 105.743 11.5609V7.83457C105.68 6.64352 105.261 5.82681 104.41 5.39575ZM103.1 11.0674C103.13 11.4046 103.078 11.744 102.947 12.0563C102.817 12.3686 102.612 12.6443 102.351 12.8597C101.893 13.1826 101.346 13.3551 100.786 13.3531C100.458 13.3608 100.138 13.2567 99.8782 13.0582C99.744 12.9387 99.6395 12.7889 99.5746 12.6212C99.5097 12.4536 99.4851 12.2729 99.5035 12.094C99.493 11.8717 99.5448 11.6508 99.6527 11.4563C99.7606 11.2618 99.9212 11.1016 100.116 10.9937C100.492 10.8156 100.894 10.697 101.308 10.642L101.875 10.5287C102.111 10.4906 102.345 10.4318 102.572 10.3528C102.748 10.2858 102.917 10.2022 103.077 10.1032L103.1 11.0674Z" fill="white"/>
<path d="M91.5007 6.97169C91.7692 6.95082 92.0386 6.99393 92.2869 7.09745C92.5361 7.20098 92.7564 7.36198 92.9301 7.56721C93.1398 7.86304 93.2741 8.20575 93.3215 8.56543H96.1181C95.9645 7.15885 95.4713 6.17198 94.6377 5.61615C93.6725 5.02349 92.5528 4.73312 91.4217 4.78242C90.7522 4.74568 90.0826 4.85328 89.4579 5.09792C88.834 5.34256 88.2694 5.71852 87.8031 6.20034C86.8705 7.30517 86.4011 8.72767 86.4929 10.1705C86.4318 11.4967 86.8528 12.8003 87.6783 13.8401C88.4724 14.7873 89.7027 15.258 91.3822 15.258C92.107 15.304 92.8318 15.1732 93.4943 14.8769C94.1577 14.5804 94.7386 14.1273 95.1879 13.5565C95.6977 12.9148 96.0092 12.1381 96.0838 11.3219H93.3048C93.2688 11.7846 93.0968 12.2266 92.8108 12.5923C92.6362 12.7713 92.422 12.9081 92.1869 12.9926C91.9508 13.0771 91.699 13.107 91.4498 13.0801C91.0505 13.107 90.6539 13.0009 90.3213 12.7782C89.9887 12.5555 89.7395 12.2288 89.6123 11.8493C89.4113 11.2897 89.3183 10.6968 89.3403 10.1025C89.3183 9.48031 89.4105 8.85944 89.6123 8.2705C89.7387 7.87529 89.9923 7.53325 90.3345 7.29816C90.6767 7.06306 91.0865 6.94822 91.5007 6.97169Z" fill="white"/>
<path d="M85.7441 4.7832C80.0044 4.7832 80.3447 9.88771 80.3447 9.88771V15.049H82.948V10.2054C82.9117 9.60446 83.0126 9.00324 83.243 8.44711C83.6059 7.76651 84.2979 7.42621 85.3414 7.42621H85.6534C85.7782 7.42621 85.92 7.4262 86.0901 7.46591V4.81156H85.8633L85.7441 4.7832Z" fill="white"/>
<path d="M76.1757 12.327C76.0761 12.4757 75.9558 12.6094 75.8184 12.724C75.3914 13.017 74.877 13.1551 74.3607 13.1153C73.8771 13.1443 73.3957 13.0299 72.9768 12.7864C72.6377 12.5613 72.3624 12.2525 72.1776 11.8898C71.9928 11.5271 71.9047 11.1229 71.9218 10.7162H79.1306C79.1503 10.0608 79.1199 9.40471 79.0398 8.75383C78.938 8.01981 78.6681 7.31918 78.2515 6.70635C77.8326 6.06885 77.243 5.56183 76.5499 5.24306C75.8158 4.92785 75.0234 4.7713 74.2246 4.78365C73.5721 4.75733 72.9211 4.86561 72.3122 5.10174C71.7033 5.33787 71.1496 5.69681 70.6855 6.1562C69.7779 7.06934 69.3243 8.3795 69.3243 10.0981C69.3243 11.9243 69.8272 13.2477 70.833 14.0682C71.814 14.8718 73.0472 15.3036 74.3153 15.2877C75.0038 15.3278 75.6929 15.2195 76.3358 14.9699C76.9788 14.7204 77.5606 14.3355 78.0416 13.8414C78.4651 13.4251 78.7754 12.9078 78.9434 12.3383L76.1757 12.327ZM72.6762 7.47771C72.8804 7.282 73.1229 7.1306 73.3883 7.033C73.6538 6.9354 73.9366 6.89371 74.219 6.91054C74.7796 6.89212 75.3271 7.08205 75.756 7.44368C75.9701 7.64356 76.1414 7.8849 76.2593 8.15303C76.3773 8.42115 76.4396 8.71046 76.4422 9.00338H71.9842C72.0477 8.43442 72.29 7.90025 72.6762 7.47771Z" fill="white"/>
<path d="M68.2699 15.0264H65.8934V9.03702C65.9201 8.79646 65.8941 8.55295 65.8173 8.32344C65.7404 8.09394 65.6145 7.88392 65.4482 7.70798C65.282 7.53204 65.0795 7.3944 64.8546 7.30461C64.6299 7.21482 64.3883 7.17505 64.1466 7.18805C63.9038 7.1806 63.6621 7.2237 63.437 7.31459C63.2117 7.40548 63.0079 7.54218 62.8382 7.71603C62.6687 7.88988 62.5371 8.09708 62.4518 8.32449C62.3666 8.55189 62.3295 8.79454 62.343 9.03702V15.0264H59.9779V9.03702C60.0063 8.79757 59.982 8.5548 59.9069 8.32568C59.8317 8.09656 59.7073 7.88662 59.5426 7.71053C59.3778 7.53444 59.1766 7.39646 58.953 7.30621C58.7295 7.21597 58.4888 7.17564 58.248 7.18805C58.0048 7.17886 57.7624 7.22076 57.5363 7.31103C57.3103 7.40131 57.1057 7.53797 56.9358 7.71219C56.7658 7.88642 56.6343 8.09433 56.5497 8.32252C56.465 8.55072 56.4292 8.79413 56.4444 9.03702V15.0264H54.0623V9.09374C54.0623 6.62088 55.7014 4.74923 58.248 4.74923C58.8136 4.73482 59.3748 4.85178 59.8875 5.09092C60.4002 5.33007 60.8505 5.68487 61.2029 6.12745C61.5625 5.69148 62.0149 5.34145 62.5272 5.10298C63.0394 4.86451 63.5985 4.74365 64.1636 4.74923C66.7556 4.74923 68.2869 6.54148 68.2869 9.09374L68.2699 15.0264Z" fill="white"/>
<path d="M116.127 1.65222C116.127 1.65222 113.507 1.37431 113.507 3.48418V6.26897C113.228 5.81443 112.838 5.43935 112.373 5.18001C111.884 4.90849 111.332 4.7715 110.773 4.783C110.176 4.76209 109.582 4.88272 109.039 5.13505C108.497 5.38738 108.022 5.76426 107.654 6.23494C106.831 7.41861 106.43 8.84545 106.519 10.2845C106.463 11.5893 106.884 12.8698 107.705 13.8861C108.493 14.8219 110.041 15.2302 111.414 15.2302C116.212 15.2302 116.156 11.1183 116.156 11.1183L116.127 1.65222ZM113.008 12.2923C112.819 12.5637 112.562 12.7815 112.264 12.9246C111.967 13.0677 111.637 13.1312 111.306 13.109C110.985 13.1287 110.664 13.0629 110.376 12.9184C110.088 12.7741 109.844 12.556 109.668 12.2866C109.277 11.5965 109.09 10.8099 109.128 10.018C109.102 9.273 109.288 8.53593 109.661 7.89108C109.833 7.6095 110.079 7.38033 110.372 7.22839C110.665 7.07643 110.994 7.00748 111.323 7.02897C111.803 7.02208 112.269 7.1916 112.634 7.5054C113.246 8.02153 113.547 8.95735 113.547 10.1654C113.588 10.9143 113.396 11.6577 112.997 12.2923H113.008Z" fill="white"/>
<path d="M69.7612 20.1477H71.7237L68.1788 30.1695H65.5075L61.9967 20.1477H64.7871L66.7836 27.1976L68.5588 21.0609C68.6199 20.7916 68.7739 20.5524 68.9938 20.3854C69.2137 20.2183 69.4854 20.1342 69.7612 20.1477ZM77.3045 19.8812H77.5258V22.5581L77.089 22.5241C76.9586 22.5241 76.8565 22.5241 76.7771 22.5241C75.7278 22.5241 75.0188 22.8644 74.6615 23.5507C74.4239 24.1129 74.3191 24.7223 74.3553 25.3316V30.1355H71.7293V25.031C71.7293 25.031 71.3833 19.8981 77.1798 19.8981L77.3045 19.8812ZM87.5533 23.8513C87.4488 23.118 87.1793 22.4178 86.7649 21.8038C86.3503 21.1626 85.7595 20.6545 85.0634 20.3405C84.3306 20.0207 83.5376 19.8621 82.738 19.8755C82.0849 19.8507 81.4335 19.9597 80.8239 20.1957C80.2143 20.4317 79.6595 20.7898 79.1933 21.248C78.2858 22.1668 77.832 23.477 77.832 25.2182C77.832 27.0444 78.3368 28.3716 79.3407 29.1883C80.3245 29.9911 81.5591 30.4227 82.8288 30.4078C83.5173 30.4483 84.2065 30.3401 84.8495 30.0906C85.4925 29.841 86.0742 29.456 86.5551 28.9615C86.9767 28.5428 87.2884 28.0266 87.4625 27.4585H84.6947C84.5952 27.6055 84.4748 27.7373 84.3374 27.8499C83.9087 28.1546 83.3875 28.301 82.8628 28.2639C82.3773 28.2929 81.8941 28.1785 81.4733 27.9349C81.1361 27.7039 80.8641 27.3901 80.6833 27.0235C80.5025 26.657 80.4191 26.2501 80.441 25.8421H87.6497C87.6678 25.1808 87.6356 24.5191 87.5533 23.8626V23.8513ZM80.492 24.3617C80.5512 23.7894 80.7916 23.2508 81.1783 22.8247C81.384 22.6294 81.6274 22.4784 81.8938 22.3808C82.1601 22.2832 82.4435 22.2413 82.7267 22.2576C83.2873 22.2392 83.8349 22.4291 84.2637 22.7907C84.478 22.9916 84.6494 23.234 84.7673 23.503C84.8852 23.7721 84.9474 24.0623 84.95 24.356L80.492 24.3617ZM56.4554 16.6426V30.1355H53.9826V18.5426C53.9826 16.5518 56.4554 16.6539 56.4554 16.6539V16.6426ZM58.4802 20.1363H61.1119V30.1355H58.4689L58.4802 20.1363ZM58.4802 16.8808H61.1119V19.4954H58.4746L58.4802 16.8808Z" fill="white"/>
</g>
</svg>
