<svg width="122" height="37" viewBox="0 0 122 37" fill="none" xmlns="http://www.w3.org/2000/svg">
<path d="M23.4402 15.6073C22.7618 15.0268 17.1925 13.4532 12.563 12.3611C12.5274 15.9353 12.7465 19.8198 13.2191 20.4959C13.8964 21.0764 19.469 22.65 24.0985 23.7432C24.1341 20.1701 23.9161 16.2845 23.4402 15.6073Z" fill="white"/>
<path d="M18.349 0.351665C8.47938 0.351665 0.478027 8.35412 0.478027 18.2238C0.478027 28.0934 8.47938 36.0947 18.349 36.0947C28.2209 36.0947 36.2211 28.0934 36.2211 18.2238C36.2211 8.35412 28.2209 0.351665 18.349 0.351665ZM30.3961 24.8417C29.9368 25.0018 27.2333 24.4825 24.0984 23.7441C24.0673 26.8167 23.8471 29.6614 23.4401 30.0384C22.3035 30.4354 7.40067 26.6655 6.26302 25.6924C5.38337 24.4358 5.38337 12.0773 6.26524 11.2622C6.72453 11.1032 9.42686 11.6225 12.5629 12.362C12.594 9.28715 12.8131 6.44247 13.2212 6.0666C14.3578 5.6707 29.2573 9.43839 30.3961 10.4103C31.2813 11.6725 31.279 24.0299 30.3961 24.8417Z" fill="white"/>
<path d="M66.37 8.09496C62.0174 8.09496 58.5622 10.4425 58.5622 16.5623V19.7016C58.5622 25.8214 62.0174 28.1689 66.37 28.1689C70.7238 28.1689 74.1779 25.8214 74.1779 19.7016V16.5623C74.1779 10.4425 70.7238 8.09496 66.37 8.09496ZM69.6406 19.7016C69.6406 22.8666 68.5864 24.2122 66.37 24.2122C64.1559 24.2122 63.1261 22.8666 63.1261 19.7016V16.5623C63.1261 13.3973 64.1559 12.0528 66.37 12.0528C68.5864 12.0528 69.6406 13.3973 69.6406 16.5623V19.7016Z" fill="white"/>
<path d="M56.9802 8.33299H43.8967C43.6064 8.33299 43.3696 8.54318 43.3696 8.83454V11.5502C43.3696 11.8416 43.6064 12.0529 43.8967 12.0529H48.196V27.4039C48.196 27.6953 48.4339 27.9321 48.7231 27.9321H52.1794C52.4685 27.9321 52.7065 27.6953 52.7065 27.4039V12.0529H56.9802C57.2705 12.0529 57.534 11.8416 57.534 11.5502V8.83454C57.534 8.54318 57.2705 8.33299 56.9802 8.33299Z" fill="white"/>
<path d="M88.8169 8.33299H75.7334C75.4443 8.33299 75.2052 8.54318 75.2052 8.83454V11.5502C75.2052 11.8416 75.4443 12.0529 75.7334 12.0529H80.0338V27.4039C80.0338 27.6953 80.2707 27.9321 80.5609 27.9321H84.0161C84.3064 27.9321 84.5433 27.6953 84.5433 27.4039V12.0529H88.8169C89.1061 12.0529 89.3708 11.8416 89.3708 11.5502V8.83454C89.3708 8.54318 89.1061 8.33299 88.8169 8.33299Z" fill="white"/>
<path d="M106.939 8.33183H103.247C102.983 8.33183 102.798 8.54201 102.746 8.80668L99.4481 24.0276C99.3947 24.3167 99.3158 24.4213 99.0778 24.4213C98.8398 24.4213 98.7631 24.3167 98.7086 24.0276L95.4113 8.80668C95.359 8.54201 95.1477 8.33183 94.8853 8.33183H91.2177C90.9541 8.33183 90.7428 8.51643 90.7428 8.7533C90.7428 8.80668 90.7684 8.83337 90.7684 8.88564L94.6995 25.2398C95.3067 27.773 97.2584 28.1689 99.0778 28.1689C100.899 28.1689 102.824 27.773 103.432 25.2398L107.362 8.88564C107.362 8.83337 107.388 8.77999 107.388 8.7533C107.388 8.48974 107.203 8.33183 106.939 8.33183Z" fill="white"/>
<path d="M118.438 17.0371L115.062 15.2167C113.638 14.4516 113.296 14.109 113.296 13.3695C113.296 12.4209 113.85 11.9727 115.353 11.9727C117.146 11.9727 120.207 12.2107 120.946 12.263H120.998C121.34 12.263 121.446 12.0528 121.446 11.8148V9.15031C121.446 8.86006 121.26 8.72773 121.05 8.67546C120.048 8.4119 117.384 8.09496 115.46 8.09496C110.34 8.09496 108.707 10.3369 108.707 13.2394C108.707 15.1644 109.366 16.8269 111.819 18.2771L115.46 20.4401C116.829 21.2574 117.199 21.6789 117.199 22.4451C117.199 23.7107 116.672 24.2912 114.852 24.2912C113.823 24.2912 110.921 24.0799 109.842 23.9753H109.762C109.497 23.9753 109.287 24.1066 109.287 24.4758V27.0613C109.287 27.3505 109.55 27.5095 109.814 27.5884C111.159 27.931 112.716 28.1689 114.8 28.1689C120.154 28.1689 122 25.1886 122 22.3917C122 20.2555 121.183 18.5139 118.438 17.0371Z" fill="white"/>
</svg>
