<svg width="32" height="32" viewBox="0 0 32 32" fill="none" xmlns="http://www.w3.org/2000/svg">
<g clip-path="url(#clip0_110_314)">
<path d="M16 0C7.17873 0 0.000244141 7.17708 0.000244141 15.9994C0.000244141 24.8217 7.17826 32 16 32C24.8232 32 31.9997 24.8223 31.9997 15.9994C31.9997 7.17708 24.8236 0 16 0ZM22.9246 12.7213L14.545 21.1009C14.2934 21.3522 13.9618 21.4791 13.6333 21.4791C13.3023 21.4791 12.9738 21.3523 12.7214 21.1009L9.07701 17.4566C8.57315 16.9522 8.57315 16.1365 9.07701 15.6327C9.58077 15.129 10.3965 15.129 10.9004 15.6327L13.6333 18.3666L21.1024 10.8972C21.6051 10.394 22.4207 10.394 22.9246 10.8972C23.4285 11.4018 23.4285 12.2175 22.9246 12.7213Z" fill="black"/>
</g>
<defs>
<clipPath id="clip0_110_314">
<rect width="32" height="32" fill="white"/>
</clipPath>
</defs>
</svg>
