<svg width="335" height="334" viewBox="0 0 335 334" fill="none" xmlns="http://www.w3.org/2000/svg">
<g filter="url(#filter0_bd_110_158)">
<rect x="219" y="47" width="70" height="70" rx="15.102" fill="url(#paint0_linear_110_158)" shape-rendering="crispEdges"/>
<rect x="219.378" y="47.3776" width="69.2449" height="69.2449" rx="14.7245" stroke="#212121" stroke-width="0.755102" shape-rendering="crispEdges"/>
</g>
<path d="M243.404 99.8696C243.404 97.9148 243.421 95.9772 243.387 94.0225C243.387 93.6795 243.284 93.3195 243.13 93.0108C241.724 90.113 242.015 90.3873 239.1 88.9642C237.729 88.2954 237.077 87.1123 237.128 85.5691C237.128 85.329 237.111 85.089 237.146 84.8661C237.489 83.2714 236.991 81.934 236.031 80.6308C234.625 78.6932 234.694 77.4586 236.014 75.4525C236.151 75.2467 236.288 75.0238 236.443 74.818C237.146 73.9435 237.334 72.949 237.197 71.8688C237.128 71.3887 237.111 70.8914 237.111 70.3941C237.094 68.9709 237.729 67.8907 238.98 67.1877C239.495 66.8962 240.026 66.6218 240.575 66.3818C241.415 66.0045 242.015 65.4216 242.375 64.5642C242.598 64.0498 242.855 63.5697 243.113 63.0724C243.85 61.6835 245.033 61.032 246.576 61.1005C249.869 61.272 249.234 61.4606 251.995 59.6602C253.315 58.7857 254.687 58.7857 256.041 59.6259C256.316 59.7974 256.607 59.9346 256.847 60.1403C257.962 61.1177 259.248 61.3578 260.671 61.152C261.031 61.1006 261.391 61.0834 261.751 61.1005C263.174 61.1177 264.289 61.7521 264.906 63.0381C266.45 66.2275 266.227 65.7302 268.987 67.1362C270.359 67.8393 271.011 68.9881 270.959 70.5313C270.959 70.6856 270.976 70.84 270.942 70.9771C270.548 72.7947 271.113 74.3036 272.211 75.744C273.36 77.2357 273.36 78.8818 272.194 80.3736C271.079 81.8139 270.633 83.3229 270.908 85.1404C271.182 86.9408 270.41 88.3126 268.73 89.1013C265.438 90.6617 266.415 90.4216 264.752 93.3023C264.649 93.4909 264.649 93.7481 264.649 93.9882C264.649 97.8977 264.649 101.824 264.649 105.734C264.649 106.934 264.135 107.277 263.02 106.78C260.208 105.528 257.396 104.276 254.618 102.99C254.155 102.785 253.812 102.802 253.366 103.007C250.572 104.276 247.759 105.528 244.947 106.78C243.85 107.277 243.336 106.934 243.336 105.717C243.404 103.762 243.404 101.824 243.404 99.8696ZM248.24 63.021C245.29 62.7124 245.102 62.9524 244.159 65.0443C243.507 66.5018 242.478 67.5135 241.021 68.165C238.843 69.1424 238.757 69.3482 238.997 71.7659C239.152 73.2405 238.877 74.5608 237.986 75.7611C237.66 76.1898 237.386 76.6527 237.111 77.0986C236.734 77.7158 236.734 78.3674 237.111 78.9847C237.454 79.5505 237.814 80.0992 238.192 80.6479C238.809 81.5739 239.1 82.5684 239.032 83.6829C238.98 84.3688 238.946 85.0547 238.912 85.7406C238.877 86.4436 239.186 86.9751 239.82 87.3181C240.352 87.6096 240.866 87.8839 241.415 88.124C242.598 88.6555 243.438 89.5129 243.987 90.696C244.244 91.2447 244.519 91.7762 244.793 92.2906C245.119 92.8908 245.616 93.1994 246.319 93.1651C246.919 93.148 247.519 93.148 248.12 93.0966C249.388 92.9765 250.537 93.2509 251.583 93.9882C251.978 94.2797 252.406 94.5197 252.801 94.8112C253.624 95.3942 254.447 95.4114 255.287 94.8284C255.716 94.5197 256.179 94.2454 256.624 93.9367C257.636 93.2337 258.751 92.9765 259.968 93.0966C260.568 93.148 261.168 93.148 261.768 93.1823C262.489 93.2166 263.003 92.8908 263.346 92.2735C263.637 91.7248 263.929 91.1761 264.186 90.6103C264.701 89.4957 265.524 88.6898 266.621 88.1583C267.204 87.8839 267.77 87.5924 268.336 87.2838C268.936 86.958 269.227 86.4264 269.21 85.7577C269.193 85.2947 269.193 84.8146 269.142 84.3517C268.97 82.8942 269.244 81.5396 270.136 80.3564C270.342 80.0821 270.513 79.7906 270.719 79.5163C271.474 78.5389 271.474 77.5615 270.719 76.5841C270.582 76.4127 270.496 76.2241 270.359 76.0526C269.262 74.6808 268.953 73.1376 269.176 71.4229C269.416 69.5196 269.159 69.1424 267.444 68.3194C267.187 68.1993 266.947 68.0793 266.69 67.9593C265.524 67.4277 264.701 66.5875 264.169 65.4216C263.929 64.8729 263.637 64.3585 263.363 63.8269C263.037 63.2268 262.54 62.9181 261.854 62.9181C261.494 62.9181 261.134 62.9181 260.774 62.9696C259.042 63.1753 257.499 62.8495 256.059 61.7864C254.241 60.449 253.949 60.4661 252.08 61.8036C250.777 62.6952 249.406 63.2439 248.24 63.021ZM245.222 104.705C245.496 104.585 245.719 104.499 245.959 104.396C248.428 103.282 250.914 102.184 253.366 101.053C253.864 100.83 254.275 100.83 254.773 101.053C257.242 102.184 259.711 103.282 262.18 104.396C262.403 104.499 262.626 104.585 262.883 104.705C262.883 101.378 262.883 98.1377 262.883 94.9141C261.906 94.9141 260.945 94.9656 259.985 94.897C258.991 94.8112 258.133 95.017 257.345 95.6171C256.83 95.9944 256.281 96.3373 255.716 96.6459C254.601 97.2632 253.452 97.2632 252.355 96.6288C251.72 96.2687 251.12 95.8743 250.52 95.4628C249.869 95.017 249.183 94.8627 248.394 94.8798C247.331 94.9141 246.285 94.897 245.205 94.897C245.222 98.1549 245.222 101.396 245.222 104.705Z" fill="#212121"/>
<path d="M241.449 78.0759C241.381 71.1829 247.005 65.4901 253.95 65.4215C260.945 65.3529 266.655 70.9771 266.69 77.9559C266.724 84.9346 261.1 90.6617 254.19 90.696C247.142 90.7131 241.501 85.1404 241.449 78.0759ZM243.233 78.0073C243.181 83.9401 247.982 88.8098 253.984 88.8955C259.899 88.9641 264.821 84.1116 264.889 78.1445C264.941 72.1945 260.157 67.2562 254.258 67.2048C248.154 67.1533 243.284 71.9202 243.233 78.0073Z" fill="#212121"/>
<path d="M248.891 84.4029C249.08 83.2884 249.268 82.0538 249.526 80.8193C249.611 80.3734 249.526 80.0648 249.183 79.7562C248.325 78.9674 247.519 78.1443 246.696 77.3556C246.371 77.047 246.113 76.704 246.268 76.2239C246.422 75.7609 246.816 75.6238 247.279 75.5723C248.48 75.418 249.697 75.2465 250.897 75.0408C251.12 75.0065 251.395 74.8007 251.497 74.595C252.08 73.4976 252.578 72.3659 253.178 71.2856C253.349 70.977 253.761 70.634 254.069 70.634C254.378 70.634 254.79 70.977 254.961 71.2856C255.561 72.3487 256.041 73.4633 256.624 74.5435C256.744 74.7836 257.053 75.0065 257.31 75.0579C258.51 75.2808 259.728 75.3837 260.911 75.6238C261.254 75.6924 261.717 75.9667 261.82 76.2582C261.923 76.5497 261.717 77.0469 261.477 77.3042C260.671 78.1786 259.797 79.0017 258.905 79.8247C258.596 80.1162 258.51 80.3906 258.596 80.785C258.802 81.8824 259.008 82.9626 259.179 84.06C259.231 84.4029 259.248 84.7973 259.128 85.1231C258.956 85.6032 258.39 85.7061 257.807 85.4146C256.71 84.8488 255.63 84.2486 254.515 83.6999C254.275 83.5799 253.898 83.597 253.658 83.6999C252.526 84.2486 251.429 84.8659 250.297 85.4318C249.508 85.7747 248.857 85.3632 248.891 84.4029ZM254.052 73.4804C253.589 74.4063 253.195 75.1608 252.852 75.9324C252.629 76.4297 252.269 76.6697 251.72 76.7383C250.863 76.8412 250.023 76.9784 249.217 77.0984C249.834 77.7671 250.417 78.4187 251.034 79.036C251.395 79.3961 251.549 79.7733 251.429 80.3048C251.24 81.1622 251.137 82.0367 250.966 83.0141C251.823 82.5682 252.595 82.191 253.332 81.7623C253.829 81.4708 254.275 81.4708 254.772 81.7452C255.527 82.1739 256.299 82.5511 257.156 82.9969C257.002 82.0367 256.899 81.1965 256.71 80.3563C256.59 79.7904 256.727 79.3789 257.139 78.9845C257.756 78.3844 258.339 77.75 258.956 77.0984C258.116 76.9784 257.293 76.8069 256.47 76.7383C255.87 76.6869 255.493 76.4297 255.235 75.881C254.893 75.1094 254.498 74.372 254.052 73.4804Z" fill="#212121"/>
<g opacity="0.3" filter="url(#filter1_d_110_158)">
<rect x="15" y="5" width="305" height="304" rx="20" fill="#ECE7EF"/>
</g>
<path d="M50.008 160.192C49.1227 160.192 48.264 160.075 47.432 159.84C46.6107 159.595 45.9493 159.28 45.448 158.896L46.328 156.944C46.808 157.296 47.3787 157.579 48.04 157.792C48.7013 158.005 49.3627 158.112 50.024 158.112C50.76 158.112 51.304 158.005 51.656 157.792C52.008 157.568 52.184 157.275 52.184 156.912C52.184 156.645 52.0773 156.427 51.864 156.256C51.6613 156.075 51.3947 155.931 51.064 155.824C50.744 155.717 50.3067 155.6 49.752 155.472C48.8987 155.269 48.2 155.067 47.656 154.864C47.112 154.661 46.6427 154.336 46.248 153.888C45.864 153.44 45.672 152.843 45.672 152.096C45.672 151.445 45.848 150.859 46.2 150.336C46.552 149.803 47.08 149.381 47.784 149.072C48.4987 148.763 49.368 148.608 50.392 148.608C51.1067 148.608 51.8053 148.693 52.488 148.864C53.1707 149.035 53.768 149.28 54.28 149.6L53.48 151.568C52.4453 150.981 51.4107 150.688 50.376 150.688C49.6507 150.688 49.112 150.805 48.76 151.04C48.4187 151.275 48.248 151.584 48.248 151.968C48.248 152.352 48.4453 152.64 48.84 152.832C49.2453 153.013 49.8587 153.195 50.68 153.376C51.5333 153.579 52.232 153.781 52.776 153.984C53.32 154.187 53.784 154.507 54.168 154.944C54.5627 155.381 54.76 155.973 54.76 156.72C54.76 157.36 54.5787 157.947 54.216 158.48C53.864 159.003 53.3307 159.419 52.616 159.728C51.9013 160.037 51.032 160.192 50.008 160.192ZM60.4511 160.128C59.5445 160.128 58.7285 159.941 58.0031 159.568C57.2885 159.184 56.7285 158.656 56.3231 157.984C55.9178 157.312 55.7151 156.549 55.7151 155.696C55.7151 154.843 55.9178 154.08 56.3231 153.408C56.7285 152.736 57.2885 152.213 58.0031 151.84C58.7285 151.456 59.5445 151.264 60.4511 151.264C61.3578 151.264 62.1685 151.456 62.8831 151.84C63.5978 152.213 64.1578 152.736 64.5631 153.408C64.9685 154.08 65.1711 154.843 65.1711 155.696C65.1711 156.549 64.9685 157.312 64.5631 157.984C64.1578 158.656 63.5978 159.184 62.8831 159.568C62.1685 159.941 61.3578 160.128 60.4511 160.128ZM60.4511 158.08C61.0911 158.08 61.6138 157.867 62.0191 157.44C62.4351 157.003 62.6431 156.421 62.6431 155.696C62.6431 154.971 62.4351 154.395 62.0191 153.968C61.6138 153.531 61.0911 153.312 60.4511 153.312C59.8111 153.312 59.2831 153.531 58.8671 153.968C58.4511 154.395 58.2431 154.971 58.2431 155.696C58.2431 156.421 58.4511 157.003 58.8671 157.44C59.2831 157.867 59.8111 158.08 60.4511 158.08ZM66.8395 148.128H69.3355V160H66.8395V148.128ZM80.324 151.392V160H77.956V158.976C77.6253 159.349 77.2307 159.637 76.772 159.84C76.3133 160.032 75.8173 160.128 75.284 160.128C74.1533 160.128 73.2573 159.803 72.596 159.152C71.9347 158.501 71.604 157.536 71.604 156.256V151.392H74.1V155.888C74.1 157.275 74.6813 157.968 75.844 157.968C76.4413 157.968 76.9213 157.776 77.284 157.392C77.6467 156.997 77.828 156.416 77.828 155.648V151.392H80.324ZM86.7964 160.128C85.879 160.128 85.0524 159.941 84.3164 159.568C83.591 159.184 83.0204 158.656 82.6044 157.984C82.199 157.312 81.9964 156.549 81.9964 155.696C81.9964 154.843 82.199 154.08 82.6044 153.408C83.0204 152.736 83.591 152.213 84.3164 151.84C85.0524 151.456 85.879 151.264 86.7964 151.264C87.703 151.264 88.4924 151.456 89.1644 151.84C89.847 152.213 90.343 152.752 90.6524 153.456L88.7164 154.496C88.2684 153.707 87.623 153.312 86.7804 153.312C86.1297 153.312 85.591 153.525 85.1644 153.952C84.7377 154.379 84.5244 154.96 84.5244 155.696C84.5244 156.432 84.7377 157.013 85.1644 157.44C85.591 157.867 86.1297 158.08 86.7804 158.08C87.6337 158.08 88.279 157.685 88.7164 156.896L90.6524 157.952C90.343 158.635 89.847 159.168 89.1644 159.552C88.4924 159.936 87.703 160.128 86.7964 160.128ZM85.8844 163.712C85.607 163.712 85.335 163.68 85.0684 163.616C84.8017 163.563 84.5777 163.483 84.3964 163.376L84.7804 162.304C85.1217 162.464 85.4684 162.544 85.8204 162.544C86.375 162.544 86.6524 162.373 86.6524 162.032C86.6524 161.723 86.391 161.568 85.8684 161.568H85.3244L85.7404 159.872H87.0684L86.8444 160.8C87.3137 160.853 87.6604 160.997 87.8844 161.232C88.119 161.477 88.2364 161.776 88.2364 162.128C88.2364 162.619 88.023 163.003 87.5964 163.28C87.1697 163.568 86.599 163.712 85.8844 163.712ZM96.0761 160.128C95.1695 160.128 94.3535 159.941 93.6281 159.568C92.9135 159.184 92.3535 158.656 91.9481 157.984C91.5428 157.312 91.3401 156.549 91.3401 155.696C91.3401 154.843 91.5428 154.08 91.9481 153.408C92.3535 152.736 92.9135 152.213 93.6281 151.84C94.3535 151.456 95.1695 151.264 96.0761 151.264C96.9828 151.264 97.7935 151.456 98.5081 151.84C99.2228 152.213 99.7828 152.736 100.188 153.408C100.593 154.08 100.796 154.843 100.796 155.696C100.796 156.549 100.593 157.312 100.188 157.984C99.7828 158.656 99.2228 159.184 98.5081 159.568C97.7935 159.941 96.9828 160.128 96.0761 160.128ZM96.0761 158.08C96.7161 158.08 97.2388 157.867 97.6441 157.44C98.0601 157.003 98.2681 156.421 98.2681 155.696C98.2681 154.971 98.0601 154.395 97.6441 153.968C97.2388 153.531 96.7161 153.312 96.0761 153.312C95.4361 153.312 94.9081 153.531 94.4921 153.968C94.0761 154.395 93.8681 154.971 93.8681 155.696C93.8681 156.421 94.0761 157.003 94.4921 157.44C94.9081 157.867 95.4361 158.08 96.0761 158.08ZM97.2441 150.336C96.9561 150.336 96.7001 150.283 96.4761 150.176C96.2628 150.059 96.0228 149.904 95.7561 149.712C95.5855 149.584 95.4415 149.488 95.3241 149.424C95.2175 149.36 95.1108 149.328 95.0041 149.328C94.7801 149.328 94.5988 149.408 94.4601 149.568C94.3215 149.717 94.2468 149.936 94.2361 150.224H92.9721C92.9935 149.509 93.1695 148.944 93.5001 148.528C93.8415 148.101 94.2895 147.888 94.8441 147.888C95.1215 147.888 95.3668 147.947 95.5801 148.064C95.8041 148.171 96.0548 148.325 96.3321 148.528C96.5028 148.656 96.6415 148.752 96.7481 148.816C96.8655 148.88 96.9775 148.912 97.0841 148.912C97.2975 148.912 97.4735 148.837 97.6121 148.688C97.7615 148.528 97.8415 148.315 97.8521 148.048H99.1161C99.0948 148.741 98.9135 149.296 98.5721 149.712C98.2415 150.128 97.7988 150.336 97.2441 150.336ZM110.897 155.728C110.897 155.76 110.881 155.984 110.849 156.4H104.337C104.454 156.933 104.731 157.355 105.169 157.664C105.606 157.973 106.15 158.128 106.801 158.128C107.249 158.128 107.643 158.064 107.985 157.936C108.337 157.797 108.662 157.584 108.961 157.296L110.289 158.736C109.478 159.664 108.294 160.128 106.737 160.128C105.766 160.128 104.907 159.941 104.161 159.568C103.414 159.184 102.838 158.656 102.433 157.984C102.027 157.312 101.825 156.549 101.825 155.696C101.825 154.853 102.022 154.096 102.417 153.424C102.822 152.741 103.371 152.213 104.065 151.84C104.769 151.456 105.553 151.264 106.417 151.264C107.259 151.264 108.022 151.445 108.705 151.808C109.387 152.171 109.921 152.693 110.305 153.376C110.699 154.048 110.897 154.832 110.897 155.728ZM106.433 153.152C105.867 153.152 105.393 153.312 105.009 153.632C104.625 153.952 104.39 154.389 104.305 154.944H108.545C108.459 154.4 108.225 153.968 107.841 153.648C107.457 153.317 106.987 153.152 106.433 153.152ZM115.454 160.128C114.74 160.128 114.041 160.043 113.358 159.872C112.676 159.691 112.132 159.467 111.726 159.2L112.558 157.408C112.942 157.653 113.406 157.856 113.95 158.016C114.494 158.165 115.028 158.24 115.55 158.24C116.606 158.24 117.134 157.979 117.134 157.456C117.134 157.211 116.99 157.035 116.702 156.928C116.414 156.821 115.972 156.731 115.374 156.656C114.67 156.549 114.089 156.427 113.63 156.288C113.172 156.149 112.772 155.904 112.43 155.552C112.1 155.2 111.934 154.699 111.934 154.048C111.934 153.504 112.089 153.024 112.398 152.608C112.718 152.181 113.177 151.851 113.774 151.616C114.382 151.381 115.097 151.264 115.918 151.264C116.526 151.264 117.129 151.333 117.726 151.472C118.334 151.6 118.836 151.781 119.23 152.016L118.398 153.792C117.641 153.365 116.814 153.152 115.918 153.152C115.385 153.152 114.985 153.227 114.718 153.376C114.452 153.525 114.318 153.717 114.318 153.952C114.318 154.219 114.462 154.405 114.75 154.512C115.038 154.619 115.497 154.72 116.126 154.816C116.83 154.933 117.406 155.061 117.854 155.2C118.302 155.328 118.692 155.568 119.022 155.92C119.353 156.272 119.518 156.763 119.518 157.392C119.518 157.925 119.358 158.4 119.038 158.816C118.718 159.232 118.249 159.557 117.63 159.792C117.022 160.016 116.297 160.128 115.454 160.128ZM130.678 151.264C131.478 151.264 132.203 151.451 132.854 151.824C133.515 152.187 134.032 152.704 134.406 153.376C134.779 154.037 134.966 154.811 134.966 155.696C134.966 156.581 134.779 157.36 134.406 158.032C134.032 158.693 133.515 159.211 132.854 159.584C132.203 159.947 131.478 160.128 130.678 160.128C129.579 160.128 128.715 159.781 128.086 159.088V163.104H125.59V151.392H127.974V152.384C128.592 151.637 129.494 151.264 130.678 151.264ZM130.246 158.08C130.886 158.08 131.408 157.867 131.814 157.44C132.23 157.003 132.438 156.421 132.438 155.696C132.438 154.971 132.23 154.395 131.814 153.968C131.408 153.531 130.886 153.312 130.246 153.312C129.606 153.312 129.078 153.531 128.661 153.968C128.256 154.395 128.054 154.971 128.054 155.696C128.054 156.421 128.256 157.003 128.661 157.44C129.078 157.867 129.606 158.08 130.246 158.08ZM145.068 155.728C145.068 155.76 145.052 155.984 145.02 156.4H138.508C138.626 156.933 138.903 157.355 139.34 157.664C139.778 157.973 140.322 158.128 140.972 158.128C141.42 158.128 141.815 158.064 142.156 157.936C142.508 157.797 142.834 157.584 143.132 157.296L144.46 158.736C143.65 159.664 142.466 160.128 140.908 160.128C139.938 160.128 139.079 159.941 138.332 159.568C137.586 159.184 137.01 158.656 136.604 157.984C136.199 157.312 135.996 156.549 135.996 155.696C135.996 154.853 136.194 154.096 136.588 153.424C136.994 152.741 137.543 152.213 138.236 151.84C138.94 151.456 139.724 151.264 140.588 151.264C141.431 151.264 142.194 151.445 142.876 151.808C143.559 152.171 144.092 152.693 144.476 153.376C144.871 154.048 145.068 154.832 145.068 155.728ZM140.604 153.152C140.039 153.152 139.564 153.312 139.18 153.632C138.796 153.952 138.562 154.389 138.476 154.944H142.716C142.631 154.4 142.396 153.968 142.012 153.648C141.628 153.317 141.159 153.152 140.604 153.152ZM149.114 152.528C149.413 152.112 149.813 151.797 150.314 151.584C150.826 151.371 151.413 151.264 152.074 151.264V153.568C151.797 153.547 151.61 153.536 151.514 153.536C150.799 153.536 150.239 153.739 149.834 154.144C149.429 154.539 149.226 155.136 149.226 155.936V160H146.73V151.392H149.114V152.528ZM156.486 160.128C155.771 160.128 155.072 160.043 154.39 159.872C153.707 159.691 153.163 159.467 152.758 159.2L153.59 157.408C153.974 157.653 154.438 157.856 154.982 158.016C155.526 158.165 156.059 158.24 156.582 158.24C157.638 158.24 158.166 157.979 158.166 157.456C158.166 157.211 158.022 157.035 157.734 156.928C157.446 156.821 157.003 156.731 156.406 156.656C155.702 156.549 155.12 156.427 154.662 156.288C154.203 156.149 153.803 155.904 153.462 155.552C153.131 155.2 152.965 154.699 152.965 154.048C152.965 153.504 153.12 153.024 153.43 152.608C153.75 152.181 154.208 151.851 154.806 151.616C155.414 151.381 156.128 151.264 156.95 151.264C157.558 151.264 158.16 151.333 158.758 151.472C159.366 151.6 159.867 151.781 160.262 152.016L159.43 153.792C158.672 153.365 157.846 153.152 156.95 153.152C156.416 153.152 156.016 153.227 155.75 153.376C155.483 153.525 155.35 153.717 155.35 153.952C155.35 154.219 155.494 154.405 155.782 154.512C156.07 154.619 156.528 154.72 157.158 154.816C157.862 154.933 158.438 155.061 158.886 155.2C159.334 155.328 159.723 155.568 160.054 155.92C160.384 156.272 160.55 156.763 160.55 157.392C160.55 157.925 160.39 158.4 160.07 158.816C159.75 159.232 159.28 159.557 158.662 159.792C158.054 160.016 157.328 160.128 156.486 160.128ZM166.186 160.128C165.279 160.128 164.463 159.941 163.738 159.568C163.023 159.184 162.463 158.656 162.058 157.984C161.652 157.312 161.45 156.549 161.45 155.696C161.45 154.843 161.652 154.08 162.058 153.408C162.463 152.736 163.023 152.213 163.738 151.84C164.463 151.456 165.279 151.264 166.186 151.264C167.092 151.264 167.903 151.456 168.618 151.84C169.332 152.213 169.892 152.736 170.298 153.408C170.703 154.08 170.906 154.843 170.906 155.696C170.906 156.549 170.703 157.312 170.298 157.984C169.892 158.656 169.332 159.184 168.618 159.568C167.903 159.941 167.092 160.128 166.186 160.128ZM166.186 158.08C166.826 158.08 167.348 157.867 167.754 157.44C168.17 157.003 168.378 156.421 168.378 155.696C168.378 154.971 168.17 154.395 167.754 153.968C167.348 153.531 166.826 153.312 166.186 153.312C165.546 153.312 165.018 153.531 164.602 153.968C164.186 154.395 163.978 154.971 163.978 155.696C163.978 156.421 164.186 157.003 164.602 157.44C165.018 157.867 165.546 158.08 166.186 158.08ZM177.806 151.264C178.873 151.264 179.731 151.584 180.382 152.224C181.043 152.864 181.374 153.813 181.374 155.072V160H178.878V155.456C178.878 154.773 178.729 154.267 178.43 153.936C178.131 153.595 177.699 153.424 177.134 153.424C176.505 153.424 176.003 153.621 175.63 154.016C175.257 154.4 175.07 154.976 175.07 155.744V160H172.574V151.392H174.958V152.4C175.289 152.037 175.699 151.76 176.19 151.568C176.681 151.365 177.219 151.264 177.806 151.264ZM187.108 151.264C188.442 151.264 189.466 151.584 190.18 152.224C190.895 152.853 191.252 153.808 191.252 155.088V160H188.916V158.928C188.447 159.728 187.572 160.128 186.292 160.128C185.631 160.128 185.055 160.016 184.564 159.792C184.084 159.568 183.716 159.259 183.46 158.864C183.204 158.469 183.076 158.021 183.076 157.52C183.076 156.72 183.375 156.091 183.972 155.632C184.58 155.173 185.514 154.944 186.772 154.944H188.756C188.756 154.4 188.591 153.984 188.26 153.696C187.93 153.397 187.434 153.248 186.772 153.248C186.314 153.248 185.86 153.323 185.412 153.472C184.975 153.611 184.602 153.803 184.292 154.048L183.396 152.304C183.866 151.973 184.426 151.717 185.076 151.536C185.738 151.355 186.415 151.264 187.108 151.264ZM186.916 158.448C187.343 158.448 187.722 158.352 188.052 158.16C188.383 157.957 188.618 157.664 188.756 157.28V156.4H187.044C186.02 156.4 185.508 156.736 185.508 157.408C185.508 157.728 185.631 157.984 185.876 158.176C186.132 158.357 186.479 158.448 186.916 158.448ZM193.511 148.128H196.007V160H193.511V148.128ZM198.324 151.392H200.82V160H198.324V151.392ZM199.572 150.192C199.113 150.192 198.74 150.059 198.452 149.792C198.164 149.525 198.02 149.195 198.02 148.8C198.02 148.405 198.164 148.075 198.452 147.808C198.74 147.541 199.113 147.408 199.572 147.408C200.031 147.408 200.404 147.536 200.692 147.792C200.98 148.048 201.124 148.368 201.124 148.752C201.124 149.168 200.98 149.515 200.692 149.792C200.404 150.059 200.031 150.192 199.572 150.192ZM210.224 158.08V160H202.544V158.496L206.928 153.312H202.656V151.392H210.08V152.896L205.696 158.08H210.224ZM215.296 151.264C216.629 151.264 217.653 151.584 218.368 152.224C219.083 152.853 219.44 153.808 219.44 155.088V160H217.104V158.928C216.635 159.728 215.76 160.128 214.48 160.128C213.819 160.128 213.243 160.016 212.752 159.792C212.272 159.568 211.904 159.259 211.648 158.864C211.392 158.469 211.264 158.021 211.264 157.52C211.264 156.72 211.563 156.091 212.16 155.632C212.768 155.173 213.701 154.944 214.96 154.944H216.944C216.944 154.4 216.779 153.984 216.448 153.696C216.117 153.397 215.621 153.248 214.96 153.248C214.501 153.248 214.048 153.323 213.6 153.472C213.163 153.611 212.789 153.803 212.48 154.048L211.584 152.304C212.053 151.973 212.613 151.717 213.264 151.536C213.925 151.355 214.603 151.264 215.296 151.264ZM215.104 158.448C215.531 158.448 215.909 158.352 216.24 158.16C216.571 157.957 216.805 157.664 216.944 157.28V156.4H215.232C214.208 156.4 213.696 156.736 213.696 157.408C213.696 157.728 213.819 157.984 214.064 158.176C214.32 158.357 214.667 158.448 215.104 158.448ZM230.561 148.128V160H228.177V159.008C227.558 159.755 226.662 160.128 225.489 160.128C224.678 160.128 223.942 159.947 223.281 159.584C222.63 159.221 222.118 158.704 221.745 158.032C221.371 157.36 221.185 156.581 221.185 155.696C221.185 154.811 221.371 154.032 221.745 153.36C222.118 152.688 222.63 152.171 223.281 151.808C223.942 151.445 224.678 151.264 225.489 151.264C226.587 151.264 227.446 151.611 228.065 152.304V148.128H230.561ZM225.921 158.08C226.55 158.08 227.073 157.867 227.489 157.44C227.905 157.003 228.113 156.421 228.113 155.696C228.113 154.971 227.905 154.395 227.489 153.968C227.073 153.531 226.55 153.312 225.921 153.312C225.281 153.312 224.753 153.531 224.337 153.968C223.921 154.395 223.713 154.971 223.713 155.696C223.713 156.421 223.921 157.003 224.337 157.44C224.753 157.867 225.281 158.08 225.921 158.08ZM236.343 151.264C237.676 151.264 238.7 151.584 239.415 152.224C240.129 152.853 240.487 153.808 240.487 155.088V160H238.151V158.928C237.681 159.728 236.807 160.128 235.527 160.128C234.865 160.128 234.289 160.016 233.799 159.792C233.319 159.568 232.951 159.259 232.695 158.864C232.439 158.469 232.311 158.021 232.311 157.52C232.311 156.72 232.609 156.091 233.207 155.632C233.815 155.173 234.748 154.944 236.007 154.944H237.991C237.991 154.4 237.825 153.984 237.495 153.696C237.164 153.397 236.668 153.248 236.007 153.248C235.548 153.248 235.095 153.323 234.647 153.472C234.209 153.611 233.836 153.803 233.527 154.048L232.631 152.304C233.1 151.973 233.66 151.717 234.311 151.536C234.972 151.355 235.649 151.264 236.343 151.264ZM236.151 158.448C236.577 158.448 236.956 158.352 237.287 158.16C237.617 157.957 237.852 157.664 237.991 157.28V156.4H236.279C235.255 156.4 234.743 156.736 234.743 157.408C234.743 157.728 234.865 157.984 235.111 158.176C235.367 158.357 235.713 158.448 236.151 158.448ZM245.642 160.128C244.927 160.128 244.228 160.043 243.546 159.872C242.863 159.691 242.319 159.467 241.914 159.2L242.746 157.408C243.13 157.653 243.594 157.856 244.138 158.016C244.682 158.165 245.215 158.24 245.738 158.24C246.794 158.24 247.322 157.979 247.322 157.456C247.322 157.211 247.178 157.035 246.89 156.928C246.602 156.821 246.159 156.731 245.562 156.656C244.858 156.549 244.276 156.427 243.818 156.288C243.359 156.149 242.959 155.904 242.618 155.552C242.287 155.2 242.122 154.699 242.122 154.048C242.122 153.504 242.276 153.024 242.586 152.608C242.906 152.181 243.364 151.851 243.962 151.616C244.57 151.381 245.284 151.264 246.106 151.264C246.714 151.264 247.316 151.333 247.914 151.472C248.522 151.6 249.023 151.781 249.418 152.016L248.586 153.792C247.828 153.365 247.002 153.152 246.106 153.152C245.572 153.152 245.172 153.227 244.906 153.376C244.639 153.525 244.506 153.717 244.506 153.952C244.506 154.219 244.65 154.405 244.938 154.512C245.226 154.619 245.684 154.72 246.314 154.816C247.018 154.933 247.594 155.061 248.042 155.2C248.49 155.328 248.879 155.568 249.21 155.92C249.54 156.272 249.706 156.763 249.706 157.392C249.706 157.925 249.546 158.4 249.226 158.816C248.906 159.232 248.436 159.557 247.818 159.792C247.21 160.016 246.484 160.128 245.642 160.128Z" fill="#212121"/>
<path d="M50.264 187.2C51.5147 187.2 52.4947 187.499 53.204 188.096C53.9133 188.693 54.268 189.515 54.268 190.56C54.268 191.605 53.9133 192.427 53.204 193.024C52.4947 193.612 51.5147 193.906 50.264 193.906H47.632V197H46.596V187.2H50.264ZM50.236 192.996C51.2067 192.996 51.9487 192.786 52.462 192.366C52.9753 191.937 53.232 191.335 53.232 190.56C53.232 189.767 52.9753 189.16 52.462 188.74C51.9487 188.311 51.2067 188.096 50.236 188.096H47.632V192.996H50.236ZM58.8058 189.58C59.7671 189.58 60.5044 189.823 61.0178 190.308C61.5311 190.784 61.7878 191.493 61.7878 192.436V197H60.8358V195.852C60.6118 196.235 60.2804 196.533 59.8418 196.748C59.4124 196.963 58.8991 197.07 58.3018 197.07C57.4804 197.07 56.8271 196.874 56.3418 196.482C55.8564 196.09 55.6138 195.572 55.6138 194.928C55.6138 194.303 55.8378 193.799 56.2858 193.416C56.7431 193.033 57.4664 192.842 58.4558 192.842H60.7938V192.394C60.7938 191.759 60.6164 191.279 60.2618 190.952C59.9071 190.616 59.3891 190.448 58.7078 190.448C58.2411 190.448 57.7931 190.527 57.3638 190.686C56.9344 190.835 56.5658 191.045 56.2578 191.316L55.8098 190.574C56.1831 190.257 56.6311 190.014 57.1538 189.846C57.6764 189.669 58.2271 189.58 58.8058 189.58ZM58.4558 196.286C59.0158 196.286 59.4964 196.16 59.8978 195.908C60.2991 195.647 60.5978 195.273 60.7938 194.788V193.584H58.4838C57.2238 193.584 56.5938 194.023 56.5938 194.9C56.5938 195.329 56.7571 195.67 57.0838 195.922C57.4104 196.165 57.8678 196.286 58.4558 196.286ZM65.4396 191.078C65.6729 190.583 66.0182 190.21 66.4756 189.958C66.9422 189.706 67.5162 189.58 68.1976 189.58V190.546L67.9596 190.532C67.1849 190.532 66.5782 190.77 66.1396 191.246C65.7009 191.722 65.4816 192.389 65.4816 193.248V197H64.4876V189.636H65.4396V191.078ZM72.5597 189.58C73.521 189.58 74.2583 189.823 74.7717 190.308C75.285 190.784 75.5417 191.493 75.5417 192.436V197H74.5897V195.852C74.3657 196.235 74.0343 196.533 73.5957 196.748C73.1663 196.963 72.653 197.07 72.0557 197.07C71.2343 197.07 70.581 196.874 70.0957 196.482C69.6103 196.09 69.3677 195.572 69.3677 194.928C69.3677 194.303 69.5917 193.799 70.0397 193.416C70.497 193.033 71.2203 192.842 72.2097 192.842H74.5477V192.394C74.5477 191.759 74.3703 191.279 74.0157 190.952C73.661 190.616 73.143 190.448 72.4617 190.448C71.995 190.448 71.547 190.527 71.1177 190.686C70.6883 190.835 70.3197 191.045 70.0117 191.316L69.5637 190.574C69.937 190.257 70.385 190.014 70.9077 189.846C71.4303 189.669 71.981 189.58 72.5597 189.58ZM72.2097 196.286C72.7697 196.286 73.2503 196.16 73.6517 195.908C74.053 195.647 74.3517 195.273 74.5477 194.788V193.584H72.2377C70.9777 193.584 70.3477 194.023 70.3477 194.9C70.3477 195.329 70.511 195.67 70.8377 195.922C71.1643 196.165 71.6217 196.286 72.2097 196.286ZM84.4815 189.58C85.4429 189.58 86.1802 189.823 86.6935 190.308C87.2069 190.784 87.4635 191.493 87.4635 192.436V197H86.5115V195.852C86.2875 196.235 85.9562 196.533 85.5175 196.748C85.0882 196.963 84.5749 197.07 83.9775 197.07C83.1562 197.07 82.5029 196.874 82.0175 196.482C81.5322 196.09 81.2895 195.572 81.2895 194.928C81.2895 194.303 81.5135 193.799 81.9615 193.416C82.4189 193.033 83.1422 192.842 84.1315 192.842H86.4695V192.394C86.4695 191.759 86.2922 191.279 85.9375 190.952C85.5829 190.616 85.0649 190.448 84.3835 190.448C83.9169 190.448 83.4689 190.527 83.0395 190.686C82.6102 190.835 82.2415 191.045 81.9335 191.316L81.4855 190.574C81.8589 190.257 82.3069 190.014 82.8295 189.846C83.3522 189.669 83.9029 189.58 84.4815 189.58ZM84.1315 196.286C84.6915 196.286 85.1722 196.16 85.5735 195.908C85.9749 195.647 86.2735 195.273 86.4695 194.788V193.584H84.1595C82.8995 193.584 82.2695 194.023 82.2695 194.9C82.2695 195.329 82.4329 195.67 82.7595 195.922C83.0862 196.165 83.5435 196.286 84.1315 196.286ZM94.0413 196.552C93.8547 196.72 93.6213 196.851 93.3413 196.944C93.0707 197.028 92.786 197.07 92.4873 197.07C91.7967 197.07 91.2647 196.883 90.8913 196.51C90.518 196.137 90.3313 195.609 90.3313 194.928V190.476H89.0153V189.636H90.3313V188.026H91.3253V189.636H93.5653V190.476H91.3253V194.872C91.3253 195.311 91.4327 195.647 91.6473 195.88C91.8713 196.104 92.1887 196.216 92.5993 196.216C92.8047 196.216 93.0007 196.183 93.1873 196.118C93.3833 196.053 93.5513 195.959 93.6913 195.838L94.0413 196.552ZM102.003 193.626H95.8431C95.8991 194.391 96.1931 195.012 96.7251 195.488C97.2571 195.955 97.9291 196.188 98.7411 196.188C99.1984 196.188 99.6184 196.109 100.001 195.95C100.384 195.782 100.715 195.539 100.995 195.222L101.555 195.866C101.228 196.258 100.818 196.557 100.323 196.762C99.8377 196.967 99.3011 197.07 98.7131 197.07C97.9571 197.07 97.2851 196.911 96.6971 196.594C96.1184 196.267 95.6657 195.819 95.3391 195.25C95.0124 194.681 94.8491 194.037 94.8491 193.318C94.8491 192.599 95.0031 191.955 95.3111 191.386C95.6284 190.817 96.0577 190.373 96.5991 190.056C97.1497 189.739 97.7657 189.58 98.4471 189.58C99.1284 189.58 99.7397 189.739 100.281 190.056C100.822 190.373 101.247 190.817 101.555 191.386C101.863 191.946 102.017 192.59 102.017 193.318L102.003 193.626ZM98.4471 190.434C97.7377 190.434 97.1404 190.663 96.6551 191.12C96.1791 191.568 95.9084 192.156 95.8431 192.884H101.065C101 192.156 100.724 191.568 100.239 191.12C99.7631 190.663 99.1657 190.434 98.4471 190.434ZM107.792 189.58C108.716 189.58 109.449 189.851 109.99 190.392C110.541 190.924 110.816 191.703 110.816 192.73V197H109.822V192.828C109.822 192.063 109.631 191.479 109.248 191.078C108.866 190.677 108.32 190.476 107.61 190.476C106.817 190.476 106.187 190.714 105.72 191.19C105.263 191.657 105.034 192.305 105.034 193.136V197H104.04V189.636H104.992V190.994C105.263 190.546 105.636 190.201 106.112 189.958C106.598 189.706 107.158 189.58 107.792 189.58ZM120.262 186.612V197H119.31V195.544C119.012 196.039 118.615 196.417 118.12 196.678C117.635 196.939 117.084 197.07 116.468 197.07C115.778 197.07 115.152 196.911 114.592 196.594C114.032 196.277 113.594 195.833 113.276 195.264C112.959 194.695 112.8 194.046 112.8 193.318C112.8 192.59 112.959 191.941 113.276 191.372C113.594 190.803 114.032 190.364 114.592 190.056C115.152 189.739 115.778 189.58 116.468 189.58C117.066 189.58 117.602 189.706 118.078 189.958C118.564 190.201 118.96 190.56 119.268 191.036V186.612H120.262ZM116.552 196.188C117.066 196.188 117.528 196.071 117.938 195.838C118.358 195.595 118.685 195.255 118.918 194.816C119.161 194.377 119.282 193.878 119.282 193.318C119.282 192.758 119.161 192.259 118.918 191.82C118.685 191.381 118.358 191.045 117.938 190.812C117.528 190.569 117.066 190.448 116.552 190.448C116.03 190.448 115.558 190.569 115.138 190.812C114.728 191.045 114.401 191.381 114.158 191.82C113.925 192.259 113.808 192.758 113.808 193.318C113.808 193.878 113.925 194.377 114.158 194.816C114.401 195.255 114.728 195.595 115.138 195.838C115.558 196.071 116.03 196.188 116.552 196.188ZM129.443 193.626H123.283C123.339 194.391 123.633 195.012 124.165 195.488C124.697 195.955 125.369 196.188 126.181 196.188C126.638 196.188 127.058 196.109 127.441 195.95C127.823 195.782 128.155 195.539 128.435 195.222L128.995 195.866C128.668 196.258 128.257 196.557 127.763 196.762C127.277 196.967 126.741 197.07 126.153 197.07C125.397 197.07 124.725 196.911 124.137 196.594C123.558 196.267 123.105 195.819 122.779 195.25C122.452 194.681 122.289 194.037 122.289 193.318C122.289 192.599 122.443 191.955 122.751 191.386C123.068 190.817 123.497 190.373 124.039 190.056C124.589 189.739 125.205 189.58 125.887 189.58C126.568 189.58 127.179 189.739 127.721 190.056C128.262 190.373 128.687 190.817 128.995 191.386C129.303 191.946 129.457 192.59 129.457 193.318L129.443 193.626ZM125.887 190.434C125.177 190.434 124.58 190.663 124.095 191.12C123.619 191.568 123.348 192.156 123.283 192.884H128.505C128.439 192.156 128.164 191.568 127.679 191.12C127.203 190.663 126.605 190.434 125.887 190.434ZM132.432 191.078C132.665 190.583 133.01 190.21 133.468 189.958C133.934 189.706 134.508 189.58 135.19 189.58V190.546L134.952 190.532C134.177 190.532 133.57 190.77 133.132 191.246C132.693 191.722 132.474 192.389 132.474 193.248V197H131.48V189.636H132.432V191.078ZM143.339 189.58C144.3 189.58 145.038 189.823 145.551 190.308C146.064 190.784 146.321 191.493 146.321 192.436V197H145.369V195.852C145.145 196.235 144.814 196.533 144.375 196.748C143.946 196.963 143.432 197.07 142.835 197.07C142.014 197.07 141.36 196.874 140.875 196.482C140.39 196.09 140.147 195.572 140.147 194.928C140.147 194.303 140.371 193.799 140.819 193.416C141.276 193.033 142 192.842 142.989 192.842H145.327V192.394C145.327 191.759 145.15 191.279 144.795 190.952C144.44 190.616 143.922 190.448 143.241 190.448C142.774 190.448 142.326 190.527 141.897 190.686C141.468 190.835 141.099 191.045 140.791 191.316L140.343 190.574C140.716 190.257 141.164 190.014 141.687 189.846C142.21 189.669 142.76 189.58 143.339 189.58ZM142.989 196.286C143.549 196.286 144.03 196.16 144.431 195.908C144.832 195.647 145.131 195.273 145.327 194.788V193.584H143.017C141.757 193.584 141.127 194.023 141.127 194.9C141.127 195.329 141.29 195.67 141.617 195.922C141.944 196.165 142.401 196.286 142.989 196.286ZM141.029 186.752H142.359L144.277 188.488H143.297L141.029 186.752ZM150.995 197.07C150.397 197.07 149.823 196.986 149.273 196.818C148.731 196.641 148.307 196.421 147.999 196.16L148.447 195.376C148.755 195.619 149.142 195.819 149.609 195.978C150.075 196.127 150.561 196.202 151.065 196.202C151.737 196.202 152.231 196.099 152.549 195.894C152.875 195.679 153.039 195.381 153.039 194.998C153.039 194.727 152.95 194.517 152.773 194.368C152.595 194.209 152.371 194.093 152.101 194.018C151.83 193.934 151.471 193.855 151.023 193.78C150.425 193.668 149.945 193.556 149.581 193.444C149.217 193.323 148.904 193.122 148.643 192.842C148.391 192.562 148.265 192.175 148.265 191.68C148.265 191.064 148.521 190.56 149.035 190.168C149.548 189.776 150.262 189.58 151.177 189.58C151.653 189.58 152.129 189.645 152.605 189.776C153.081 189.897 153.473 190.061 153.781 190.266L153.347 191.064C152.74 190.644 152.017 190.434 151.177 190.434C150.542 190.434 150.061 190.546 149.735 190.77C149.417 190.994 149.259 191.288 149.259 191.652C149.259 191.932 149.347 192.156 149.525 192.324C149.711 192.492 149.94 192.618 150.211 192.702C150.481 192.777 150.855 192.856 151.331 192.94C151.919 193.052 152.39 193.164 152.745 193.276C153.099 193.388 153.403 193.579 153.655 193.85C153.907 194.121 154.033 194.494 154.033 194.97C154.033 195.614 153.762 196.127 153.221 196.51C152.689 196.883 151.947 197.07 150.995 197.07ZM163.286 189.58C164.21 189.58 164.943 189.851 165.484 190.392C166.035 190.924 166.31 191.703 166.31 192.73V197H165.316V192.828C165.316 192.063 165.125 191.479 164.742 191.078C164.36 190.677 163.814 190.476 163.104 190.476C162.311 190.476 161.681 190.714 161.214 191.19C160.757 191.657 160.528 192.305 160.528 193.136V197H159.534V189.636H160.486V190.994C160.757 190.546 161.13 190.201 161.606 189.958C162.092 189.706 162.652 189.58 163.286 189.58ZM175.448 193.626H169.288C169.344 194.391 169.638 195.012 170.17 195.488C170.702 195.955 171.374 196.188 172.186 196.188C172.644 196.188 173.064 196.109 173.446 195.95C173.829 195.782 174.16 195.539 174.44 195.222L175 195.866C174.674 196.258 174.263 196.557 173.768 196.762C173.283 196.967 172.746 197.07 172.158 197.07C171.402 197.07 170.73 196.911 170.142 196.594C169.564 196.267 169.111 195.819 168.784 195.25C168.458 194.681 168.294 194.037 168.294 193.318C168.294 192.599 168.448 191.955 168.756 191.386C169.074 190.817 169.503 190.373 170.044 190.056C170.595 189.739 171.211 189.58 171.892 189.58C172.574 189.58 173.185 189.739 173.726 190.056C174.268 190.373 174.692 190.817 175 191.386C175.308 191.946 175.462 192.59 175.462 193.318L175.448 193.626ZM171.892 190.434C171.183 190.434 170.586 190.663 170.1 191.12C169.624 191.568 169.354 192.156 169.288 192.884H174.51C174.445 192.156 174.17 191.568 173.684 191.12C173.208 190.663 172.611 190.434 171.892 190.434ZM180.538 197.07C179.81 197.07 179.156 196.911 178.578 196.594C178.008 196.277 177.56 195.833 177.234 195.264C176.907 194.685 176.744 194.037 176.744 193.318C176.744 192.599 176.907 191.955 177.234 191.386C177.56 190.817 178.008 190.373 178.578 190.056C179.156 189.739 179.81 189.58 180.538 189.58C181.172 189.58 181.737 189.706 182.232 189.958C182.736 190.201 183.132 190.56 183.422 191.036L182.68 191.54C182.437 191.176 182.129 190.905 181.756 190.728C181.382 190.541 180.976 190.448 180.538 190.448C180.006 190.448 179.525 190.569 179.096 190.812C178.676 191.045 178.344 191.381 178.102 191.82C177.868 192.259 177.752 192.758 177.752 193.318C177.752 193.887 177.868 194.391 178.102 194.83C178.344 195.259 178.676 195.595 179.096 195.838C179.525 196.071 180.006 196.188 180.538 196.188C180.976 196.188 181.382 196.099 181.756 195.922C182.129 195.745 182.437 195.474 182.68 195.11L183.422 195.614C183.132 196.09 182.736 196.454 182.232 196.706C181.728 196.949 181.163 197.07 180.538 197.07ZM191.663 193.626H185.503C185.559 194.391 185.853 195.012 186.385 195.488C186.917 195.955 187.589 196.188 188.401 196.188C188.859 196.188 189.279 196.109 189.661 195.95C190.044 195.782 190.375 195.539 190.655 195.222L191.215 195.866C190.889 196.258 190.478 196.557 189.983 196.762C189.498 196.967 188.961 197.07 188.373 197.07C187.617 197.07 186.945 196.911 186.357 196.594C185.779 196.267 185.326 195.819 184.999 195.25C184.673 194.681 184.509 194.037 184.509 193.318C184.509 192.599 184.663 191.955 184.971 191.386C185.289 190.817 185.718 190.373 186.259 190.056C186.81 189.739 187.426 189.58 188.107 189.58C188.789 189.58 189.4 189.739 189.941 190.056C190.483 190.373 190.907 190.817 191.215 191.386C191.523 191.946 191.677 192.59 191.677 193.318L191.663 193.626ZM188.107 190.434C187.398 190.434 186.801 190.663 186.315 191.12C185.839 191.568 185.569 192.156 185.503 192.884H190.725C190.66 192.156 190.385 191.568 189.899 191.12C189.423 190.663 188.826 190.434 188.107 190.434ZM195.674 197.07C195.077 197.07 194.503 196.986 193.952 196.818C193.411 196.641 192.986 196.421 192.678 196.16L193.126 195.376C193.434 195.619 193.822 195.819 194.288 195.978C194.755 196.127 195.24 196.202 195.744 196.202C196.416 196.202 196.911 196.099 197.228 195.894C197.555 195.679 197.718 195.381 197.718 194.998C197.718 194.727 197.63 194.517 197.452 194.368C197.275 194.209 197.051 194.093 196.78 194.018C196.51 193.934 196.15 193.855 195.702 193.78C195.105 193.668 194.624 193.556 194.26 193.444C193.896 193.323 193.584 193.122 193.322 192.842C193.07 192.562 192.944 192.175 192.944 191.68C192.944 191.064 193.201 190.56 193.714 190.168C194.228 189.776 194.942 189.58 195.856 189.58C196.332 189.58 196.808 189.645 197.284 189.776C197.76 189.897 198.152 190.061 198.46 190.266L198.026 191.064C197.42 190.644 196.696 190.434 195.856 190.434C195.222 190.434 194.741 190.546 194.414 190.77C194.097 190.994 193.938 191.288 193.938 191.652C193.938 191.932 194.027 192.156 194.204 192.324C194.391 192.492 194.62 192.618 194.89 192.702C195.161 192.777 195.534 192.856 196.01 192.94C196.598 193.052 197.07 193.164 197.424 193.276C197.779 193.388 198.082 193.579 198.334 193.85C198.586 194.121 198.712 194.494 198.712 194.97C198.712 195.614 198.442 196.127 197.9 196.51C197.368 196.883 196.626 197.07 195.674 197.07ZM202.524 197.07C201.927 197.07 201.353 196.986 200.802 196.818C200.261 196.641 199.836 196.421 199.528 196.16L199.976 195.376C200.284 195.619 200.671 195.819 201.138 195.978C201.605 196.127 202.09 196.202 202.594 196.202C203.266 196.202 203.761 196.099 204.078 195.894C204.405 195.679 204.568 195.381 204.568 194.998C204.568 194.727 204.479 194.517 204.302 194.368C204.125 194.209 203.901 194.093 203.63 194.018C203.359 193.934 203 193.855 202.552 193.78C201.955 193.668 201.474 193.556 201.11 193.444C200.746 193.323 200.433 193.122 200.172 192.842C199.92 192.562 199.794 192.175 199.794 191.68C199.794 191.064 200.051 190.56 200.564 190.168C201.077 189.776 201.791 189.58 202.706 189.58C203.182 189.58 203.658 189.645 204.134 189.776C204.61 189.897 205.002 190.061 205.31 190.266L204.876 191.064C204.269 190.644 203.546 190.434 202.706 190.434C202.071 190.434 201.591 190.546 201.264 190.77C200.947 190.994 200.788 191.288 200.788 191.652C200.788 191.932 200.877 192.156 201.054 192.324C201.241 192.492 201.469 192.618 201.74 192.702C202.011 192.777 202.384 192.856 202.86 192.94C203.448 193.052 203.919 193.164 204.274 193.276C204.629 193.388 204.932 193.579 205.184 193.85C205.436 194.121 205.562 194.494 205.562 194.97C205.562 195.614 205.291 196.127 204.75 196.51C204.218 196.883 203.476 197.07 202.524 197.07ZM207.4 189.636H208.394V197H207.4V189.636ZM207.904 188.026C207.698 188.026 207.526 187.956 207.386 187.816C207.246 187.676 207.176 187.508 207.176 187.312C207.176 187.125 207.246 186.962 207.386 186.822C207.526 186.682 207.698 186.612 207.904 186.612C208.109 186.612 208.282 186.682 208.422 186.822C208.562 186.953 208.632 187.111 208.632 187.298C208.632 187.503 208.562 187.676 208.422 187.816C208.282 187.956 208.109 188.026 207.904 188.026ZM217.879 186.612V197H216.927V195.544C216.629 196.039 216.232 196.417 215.737 196.678C215.252 196.939 214.701 197.07 214.085 197.07C213.395 197.07 212.769 196.911 212.209 196.594C211.649 196.277 211.211 195.833 210.893 195.264C210.576 194.695 210.417 194.046 210.417 193.318C210.417 192.59 210.576 191.941 210.893 191.372C211.211 190.803 211.649 190.364 212.209 190.056C212.769 189.739 213.395 189.58 214.085 189.58C214.683 189.58 215.219 189.706 215.695 189.958C216.181 190.201 216.577 190.56 216.885 191.036V186.612H217.879ZM214.169 196.188C214.683 196.188 215.145 196.071 215.555 195.838C215.975 195.595 216.302 195.255 216.535 194.816C216.778 194.377 216.899 193.878 216.899 193.318C216.899 192.758 216.778 192.259 216.535 191.82C216.302 191.381 215.975 191.045 215.555 190.812C215.145 190.569 214.683 190.448 214.169 190.448C213.647 190.448 213.175 190.569 212.755 190.812C212.345 191.045 212.018 191.381 211.775 191.82C211.542 192.259 211.425 192.758 211.425 193.318C211.425 193.878 211.542 194.377 211.775 194.816C212.018 195.255 212.345 195.595 212.755 195.838C213.175 196.071 213.647 196.188 214.169 196.188ZM223.224 189.58C224.185 189.58 224.922 189.823 225.436 190.308C225.949 190.784 226.206 191.493 226.206 192.436V197H225.254V195.852C225.03 196.235 224.698 196.533 224.26 196.748C223.83 196.963 223.317 197.07 222.72 197.07C221.898 197.07 221.245 196.874 220.76 196.482C220.274 196.09 220.032 195.572 220.032 194.928C220.032 194.303 220.256 193.799 220.704 193.416C221.161 193.033 221.884 192.842 222.874 192.842H225.212V192.394C225.212 191.759 225.034 191.279 224.68 190.952C224.325 190.616 223.807 190.448 223.126 190.448C222.659 190.448 222.211 190.527 221.782 190.686C221.352 190.835 220.984 191.045 220.676 191.316L220.228 190.574C220.601 190.257 221.049 190.014 221.572 189.846C222.094 189.669 222.645 189.58 223.224 189.58ZM222.874 196.286C223.434 196.286 223.914 196.16 224.316 195.908C224.717 195.647 225.016 195.273 225.212 194.788V193.584H222.902C221.642 193.584 221.012 194.023 221.012 194.9C221.012 195.329 221.175 195.67 221.502 195.922C221.828 196.165 222.286 196.286 222.874 196.286ZM235.653 186.612V197H234.701V195.544C234.402 196.039 234.006 196.417 233.511 196.678C233.026 196.939 232.475 197.07 231.859 197.07C231.168 197.07 230.543 196.911 229.983 196.594C229.423 196.277 228.984 195.833 228.667 195.264C228.35 194.695 228.191 194.046 228.191 193.318C228.191 192.59 228.35 191.941 228.667 191.372C228.984 190.803 229.423 190.364 229.983 190.056C230.543 189.739 231.168 189.58 231.859 189.58C232.456 189.58 232.993 189.706 233.469 189.958C233.954 190.201 234.351 190.56 234.659 191.036V186.612H235.653ZM231.943 196.188C232.456 196.188 232.918 196.071 233.329 195.838C233.749 195.595 234.076 195.255 234.309 194.816C234.552 194.377 234.673 193.878 234.673 193.318C234.673 192.758 234.552 192.259 234.309 191.82C234.076 191.381 233.749 191.045 233.329 190.812C232.918 190.569 232.456 190.448 231.943 190.448C231.42 190.448 230.949 190.569 230.529 190.812C230.118 191.045 229.792 191.381 229.549 191.82C229.316 192.259 229.199 192.758 229.199 193.318C229.199 193.878 229.316 194.377 229.549 194.816C229.792 195.255 230.118 195.595 230.529 195.838C230.949 196.071 231.42 196.188 231.943 196.188ZM244.833 193.626H238.673C238.729 194.391 239.023 195.012 239.555 195.488C240.087 195.955 240.759 196.188 241.571 196.188C242.028 196.188 242.448 196.109 242.831 195.95C243.214 195.782 243.545 195.539 243.825 195.222L244.385 195.866C244.058 196.258 243.648 196.557 243.153 196.762C242.668 196.967 242.131 197.07 241.543 197.07C240.787 197.07 240.115 196.911 239.527 196.594C238.948 196.267 238.496 195.819 238.169 195.25C237.842 194.681 237.679 194.037 237.679 193.318C237.679 192.599 237.833 191.955 238.141 191.386C238.458 190.817 238.888 190.373 239.429 190.056C239.98 189.739 240.596 189.58 241.277 189.58C241.958 189.58 242.57 189.739 243.111 190.056C243.652 190.373 244.077 190.817 244.385 191.386C244.693 191.946 244.847 192.59 244.847 193.318L244.833 193.626ZM241.277 190.434C240.568 190.434 239.97 190.663 239.485 191.12C239.009 191.568 238.738 192.156 238.673 192.884H243.895C243.83 192.156 243.554 191.568 243.069 191.12C242.593 190.663 241.996 190.434 241.277 190.434ZM248.844 197.07C248.247 197.07 247.673 196.986 247.122 196.818C246.581 196.641 246.156 196.421 245.848 196.16L246.296 195.376C246.604 195.619 246.992 195.819 247.458 195.978C247.925 196.127 248.41 196.202 248.914 196.202C249.586 196.202 250.081 196.099 250.398 195.894C250.725 195.679 250.888 195.381 250.888 194.998C250.888 194.727 250.8 194.517 250.622 194.368C250.445 194.209 250.221 194.093 249.95 194.018C249.68 193.934 249.32 193.855 248.872 193.78C248.275 193.668 247.794 193.556 247.43 193.444C247.066 193.323 246.754 193.122 246.492 192.842C246.24 192.562 246.114 192.175 246.114 191.68C246.114 191.064 246.371 190.56 246.884 190.168C247.398 189.776 248.112 189.58 249.026 189.58C249.502 189.58 249.978 189.645 250.454 189.776C250.93 189.897 251.322 190.061 251.63 190.266L251.196 191.064C250.59 190.644 249.866 190.434 249.026 190.434C248.392 190.434 247.911 190.546 247.584 190.77C247.267 190.994 247.108 191.288 247.108 191.652C247.108 191.932 247.197 192.156 247.374 192.324C247.561 192.492 247.79 192.618 248.06 192.702C248.331 192.777 248.704 192.856 249.18 192.94C249.768 193.052 250.24 193.164 250.594 193.276C250.949 193.388 251.252 193.579 251.504 193.85C251.756 194.121 251.882 194.494 251.882 194.97C251.882 195.614 251.612 196.127 251.07 196.51C250.538 196.883 249.796 197.07 248.844 197.07ZM52.798 218.626H46.638C46.694 219.391 46.988 220.012 47.52 220.488C48.052 220.955 48.724 221.188 49.536 221.188C49.9933 221.188 50.4133 221.109 50.796 220.95C51.1787 220.782 51.51 220.539 51.79 220.222L52.35 220.866C52.0233 221.258 51.6127 221.557 51.118 221.762C50.6327 221.967 50.096 222.07 49.508 222.07C48.752 222.07 48.08 221.911 47.492 221.594C46.9133 221.267 46.4607 220.819 46.134 220.25C45.8073 219.681 45.644 219.037 45.644 218.318C45.644 217.599 45.798 216.955 46.106 216.386C46.4233 215.817 46.8527 215.373 47.394 215.056C47.9447 214.739 48.5607 214.58 49.242 214.58C49.9233 214.58 50.5347 214.739 51.076 215.056C51.6173 215.373 52.042 215.817 52.35 216.386C52.658 216.946 52.812 217.59 52.812 218.318L52.798 218.626ZM49.242 215.434C48.5327 215.434 47.9353 215.663 47.45 216.12C46.974 216.568 46.7033 217.156 46.638 217.884H51.86C51.7947 217.156 51.5193 216.568 51.034 216.12C50.558 215.663 49.9607 215.434 49.242 215.434ZM59.3201 222L56.9821 218.92L54.6301 222H53.5101L56.4221 218.22L53.6501 214.636H54.7701L56.9821 217.52L59.1941 214.636H60.2861L57.5141 218.22L60.4541 222H59.3201ZM64.9009 222.07C64.1729 222.07 63.5196 221.911 62.9409 221.594C62.3716 221.277 61.9236 220.833 61.5969 220.264C61.2702 219.685 61.1069 219.037 61.1069 218.318C61.1069 217.599 61.2702 216.955 61.5969 216.386C61.9236 215.817 62.3716 215.373 62.9409 215.056C63.5196 214.739 64.1729 214.58 64.9009 214.58C65.5356 214.58 66.1002 214.706 66.5949 214.958C67.0989 215.201 67.4956 215.56 67.7849 216.036L67.0429 216.54C66.8002 216.176 66.4922 215.905 66.1189 215.728C65.7456 215.541 65.3396 215.448 64.9009 215.448C64.3689 215.448 63.8882 215.569 63.4589 215.812C63.0389 216.045 62.7076 216.381 62.4649 216.82C62.2316 217.259 62.1149 217.758 62.1149 218.318C62.1149 218.887 62.2316 219.391 62.4649 219.83C62.7076 220.259 63.0389 220.595 63.4589 220.838C63.8882 221.071 64.3689 221.188 64.9009 221.188C65.3396 221.188 65.7456 221.099 66.1189 220.922C66.4922 220.745 66.8002 220.474 67.0429 220.11L67.7849 220.614C67.4956 221.09 67.0989 221.454 66.5949 221.706C66.0909 221.949 65.5262 222.07 64.9009 222.07ZM69.6282 211.612H70.6222V222H69.6282V211.612ZM80.024 214.636V222H79.072V220.656C78.8106 221.104 78.4513 221.454 77.994 221.706C77.5366 221.949 77.014 222.07 76.426 222.07C75.4646 222.07 74.704 221.804 74.144 221.272C73.5933 220.731 73.318 219.942 73.318 218.906V214.636H74.312V218.808C74.312 219.583 74.5033 220.171 74.886 220.572C75.2686 220.973 75.8146 221.174 76.524 221.174C77.2986 221.174 77.91 220.941 78.358 220.474C78.806 219.998 79.03 219.34 79.03 218.5V214.636H80.024ZM84.7819 222.07C84.1845 222.07 83.6105 221.986 83.0599 221.818C82.5185 221.641 82.0939 221.421 81.7859 221.16L82.2339 220.376C82.5419 220.619 82.9292 220.819 83.3959 220.978C83.8625 221.127 84.3479 221.202 84.8519 221.202C85.5239 221.202 86.0185 221.099 86.3359 220.894C86.6625 220.679 86.8259 220.381 86.8259 219.998C86.8259 219.727 86.7372 219.517 86.5599 219.368C86.3825 219.209 86.1585 219.093 85.8879 219.018C85.6172 218.934 85.2579 218.855 84.8099 218.78C84.2125 218.668 83.7319 218.556 83.3679 218.444C83.0039 218.323 82.6912 218.122 82.4299 217.842C82.1779 217.562 82.0519 217.175 82.0519 216.68C82.0519 216.064 82.3085 215.56 82.8219 215.168C83.3352 214.776 84.0492 214.58 84.9639 214.58C85.4399 214.58 85.9159 214.645 86.3919 214.776C86.8679 214.897 87.2599 215.061 87.5679 215.266L87.1339 216.064C86.5272 215.644 85.8039 215.434 84.9639 215.434C84.3292 215.434 83.8485 215.546 83.5219 215.77C83.2045 215.994 83.0459 216.288 83.0459 216.652C83.0459 216.932 83.1345 217.156 83.3119 217.324C83.4985 217.492 83.7272 217.618 83.9979 217.702C84.2685 217.777 84.6419 217.856 85.1179 217.94C85.7059 218.052 86.1772 218.164 86.5319 218.276C86.8865 218.388 87.1899 218.579 87.4419 218.85C87.6939 219.121 87.8199 219.494 87.8199 219.97C87.8199 220.614 87.5492 221.127 87.0079 221.51C86.4759 221.883 85.7339 222.07 84.7819 222.07ZM89.6575 214.636H90.6515V222H89.6575V214.636ZM90.1615 213.026C89.9562 213.026 89.7835 212.956 89.6435 212.816C89.5035 212.676 89.4335 212.508 89.4335 212.312C89.4335 212.125 89.5035 211.962 89.6435 211.822C89.7835 211.682 89.9562 211.612 90.1615 211.612C90.3668 211.612 90.5395 211.682 90.6795 211.822C90.8195 211.953 90.8895 212.111 90.8895 212.298C90.8895 212.503 90.8195 212.676 90.6795 212.816C90.5395 212.956 90.3668 213.026 90.1615 213.026ZM99.6053 214.636L96.3293 222H95.3073L92.0453 214.636H93.0813L95.8393 220.908L98.6253 214.636H99.6053ZM103.362 214.58C104.324 214.58 105.061 214.823 105.574 215.308C106.088 215.784 106.344 216.493 106.344 217.436V222H105.392V220.852C105.168 221.235 104.837 221.533 104.398 221.748C103.969 221.963 103.456 222.07 102.858 222.07C102.037 222.07 101.384 221.874 100.898 221.482C100.413 221.09 100.17 220.572 100.17 219.928C100.17 219.303 100.394 218.799 100.842 218.416C101.3 218.033 102.023 217.842 103.012 217.842H105.35V217.394C105.35 216.759 105.173 216.279 104.818 215.952C104.464 215.616 103.946 215.448 103.264 215.448C102.798 215.448 102.35 215.527 101.92 215.686C101.491 215.835 101.122 216.045 100.814 216.316L100.366 215.574C100.74 215.257 101.188 215.014 101.71 214.846C102.233 214.669 102.784 214.58 103.362 214.58ZM103.012 221.286C103.572 221.286 104.053 221.16 104.454 220.908C104.856 220.647 105.154 220.273 105.35 219.788V218.584H103.04C101.78 218.584 101.15 219.023 101.15 219.9C101.15 220.329 101.314 220.67 101.64 220.922C101.967 221.165 102.424 221.286 103.012 221.286ZM111.018 222.07C110.421 222.07 109.847 221.986 109.296 221.818C108.755 221.641 108.33 221.421 108.022 221.16L108.47 220.376C108.778 220.619 109.166 220.819 109.632 220.978C110.099 221.127 110.584 221.202 111.088 221.202C111.76 221.202 112.255 221.099 112.572 220.894C112.899 220.679 113.062 220.381 113.062 219.998C113.062 219.727 112.974 219.517 112.796 219.368C112.619 219.209 112.395 219.093 112.124 219.018C111.854 218.934 111.494 218.855 111.046 218.78C110.449 218.668 109.968 218.556 109.604 218.444C109.24 218.323 108.928 218.122 108.666 217.842C108.414 217.562 108.288 217.175 108.288 216.68C108.288 216.064 108.545 215.56 109.058 215.168C109.572 214.776 110.286 214.58 111.2 214.58C111.676 214.58 112.152 214.645 112.628 214.776C113.104 214.897 113.496 215.061 113.804 215.266L113.37 216.064C112.764 215.644 112.04 215.434 111.2 215.434C110.566 215.434 110.085 215.546 109.758 215.77C109.441 215.994 109.282 216.288 109.282 216.652C109.282 216.932 109.371 217.156 109.548 217.324C109.735 217.492 109.964 217.618 110.234 217.702C110.505 217.777 110.878 217.856 111.354 217.94C111.942 218.052 112.414 218.164 112.768 218.276C113.123 218.388 113.426 218.579 113.678 218.85C113.93 219.121 114.056 219.494 114.056 219.97C114.056 220.614 113.786 221.127 113.244 221.51C112.712 221.883 111.97 222.07 111.018 222.07ZM126.278 211.612V222H125.326V220.544C125.027 221.039 124.631 221.417 124.136 221.678C123.651 221.939 123.1 222.07 122.484 222.07C121.793 222.07 121.168 221.911 120.608 221.594C120.048 221.277 119.609 220.833 119.292 220.264C118.975 219.695 118.816 219.046 118.816 218.318C118.816 217.59 118.975 216.941 119.292 216.372C119.609 215.803 120.048 215.364 120.608 215.056C121.168 214.739 121.793 214.58 122.484 214.58C123.081 214.58 123.618 214.706 124.094 214.958C124.579 215.201 124.976 215.56 125.284 216.036V211.612H126.278ZM122.568 221.188C123.081 221.188 123.543 221.071 123.954 220.838C124.374 220.595 124.701 220.255 124.934 219.816C125.177 219.377 125.298 218.878 125.298 218.318C125.298 217.758 125.177 217.259 124.934 216.82C124.701 216.381 124.374 216.045 123.954 215.812C123.543 215.569 123.081 215.448 122.568 215.448C122.045 215.448 121.574 215.569 121.154 215.812C120.743 216.045 120.417 216.381 120.174 216.82C119.941 217.259 119.824 217.758 119.824 218.318C119.824 218.878 119.941 219.377 120.174 219.816C120.417 220.255 120.743 220.595 121.154 220.838C121.574 221.071 122.045 221.188 122.568 221.188ZM135.458 218.626H129.298C129.354 219.391 129.648 220.012 130.18 220.488C130.712 220.955 131.384 221.188 132.196 221.188C132.653 221.188 133.073 221.109 133.456 220.95C133.839 220.782 134.17 220.539 134.45 220.222L135.01 220.866C134.683 221.258 134.273 221.557 133.778 221.762C133.293 221.967 132.756 222.07 132.168 222.07C131.412 222.07 130.74 221.911 130.152 221.594C129.573 221.267 129.121 220.819 128.794 220.25C128.467 219.681 128.304 219.037 128.304 218.318C128.304 217.599 128.458 216.955 128.766 216.386C129.083 215.817 129.513 215.373 130.054 215.056C130.605 214.739 131.221 214.58 131.902 214.58C132.583 214.58 133.195 214.739 133.736 215.056C134.277 215.373 134.702 215.817 135.01 216.386C135.318 216.946 135.472 217.59 135.472 218.318L135.458 218.626ZM131.902 215.434C131.193 215.434 130.595 215.663 130.11 216.12C129.634 216.568 129.363 217.156 129.298 217.884H134.52C134.455 217.156 134.179 216.568 133.694 216.12C133.218 215.663 132.621 215.434 131.902 215.434ZM144.211 222.07C143.483 222.07 142.83 221.911 142.251 221.594C141.682 221.277 141.234 220.833 140.907 220.264C140.581 219.685 140.417 219.037 140.417 218.318C140.417 217.599 140.581 216.955 140.907 216.386C141.234 215.817 141.682 215.373 142.251 215.056C142.83 214.739 143.483 214.58 144.211 214.58C144.846 214.58 145.411 214.706 145.905 214.958C146.409 215.201 146.806 215.56 147.095 216.036L146.353 216.54C146.111 216.176 145.803 215.905 145.429 215.728C145.056 215.541 144.65 215.448 144.211 215.448C143.679 215.448 143.199 215.569 142.769 215.812C142.349 216.045 142.018 216.381 141.775 216.82C141.542 217.259 141.425 217.758 141.425 218.318C141.425 218.887 141.542 219.391 141.775 219.83C142.018 220.259 142.349 220.595 142.769 220.838C143.199 221.071 143.679 221.188 144.211 221.188C144.65 221.188 145.056 221.099 145.429 220.922C145.803 220.745 146.111 220.474 146.353 220.11L147.095 220.614C146.806 221.09 146.409 221.454 145.905 221.706C145.401 221.949 144.837 222.07 144.211 222.07ZM151.624 214.58C152.585 214.58 153.323 214.823 153.836 215.308C154.349 215.784 154.606 216.493 154.606 217.436V222H153.654V220.852C153.43 221.235 153.099 221.533 152.66 221.748C152.231 221.963 151.717 222.07 151.12 222.07C150.299 222.07 149.645 221.874 149.16 221.482C148.675 221.09 148.432 220.572 148.432 219.928C148.432 219.303 148.656 218.799 149.104 218.416C149.561 218.033 150.285 217.842 151.274 217.842H153.612V217.394C153.612 216.759 153.435 216.279 153.08 215.952C152.725 215.616 152.207 215.448 151.526 215.448C151.059 215.448 150.611 215.527 150.182 215.686C149.753 215.835 149.384 216.045 149.076 216.316L148.628 215.574C149.001 215.257 149.449 215.014 149.972 214.846C150.495 214.669 151.045 214.58 151.624 214.58ZM151.274 221.286C151.834 221.286 152.315 221.16 152.716 220.908C153.117 220.647 153.416 220.273 153.612 219.788V218.584H151.302C150.042 218.584 149.412 219.023 149.412 219.9C149.412 220.329 149.575 220.67 149.902 220.922C150.229 221.165 150.686 221.286 151.274 221.286ZM164.053 211.612V222H163.101V220.544C162.803 221.039 162.406 221.417 161.911 221.678C161.426 221.939 160.875 222.07 160.259 222.07C159.569 222.07 158.943 221.911 158.383 221.594C157.823 221.277 157.385 220.833 157.067 220.264C156.75 219.695 156.591 219.046 156.591 218.318C156.591 217.59 156.75 216.941 157.067 216.372C157.385 215.803 157.823 215.364 158.383 215.056C158.943 214.739 159.569 214.58 160.259 214.58C160.857 214.58 161.393 214.706 161.869 214.958C162.355 215.201 162.751 215.56 163.059 216.036V211.612H164.053ZM160.343 221.188C160.857 221.188 161.319 221.071 161.729 220.838C162.149 220.595 162.476 220.255 162.709 219.816C162.952 219.377 163.073 218.878 163.073 218.318C163.073 217.758 162.952 217.259 162.709 216.82C162.476 216.381 162.149 216.045 161.729 215.812C161.319 215.569 160.857 215.448 160.343 215.448C159.821 215.448 159.349 215.569 158.929 215.812C158.519 216.045 158.192 216.381 157.949 216.82C157.716 217.259 157.599 217.758 157.599 218.318C157.599 218.878 157.716 219.377 157.949 219.816C158.192 220.255 158.519 220.595 158.929 220.838C159.349 221.071 159.821 221.188 160.343 221.188ZM169.398 214.58C170.359 214.58 171.096 214.823 171.61 215.308C172.123 215.784 172.38 216.493 172.38 217.436V222H171.428V220.852C171.204 221.235 170.872 221.533 170.434 221.748C170.004 221.963 169.491 222.07 168.894 222.07C168.072 222.07 167.419 221.874 166.934 221.482C166.448 221.09 166.206 220.572 166.206 219.928C166.206 219.303 166.43 218.799 166.878 218.416C167.335 218.033 168.058 217.842 169.048 217.842H171.386V217.394C171.386 216.759 171.208 216.279 170.854 215.952C170.499 215.616 169.981 215.448 169.3 215.448C168.833 215.448 168.385 215.527 167.956 215.686C167.526 215.835 167.158 216.045 166.85 216.316L166.402 215.574C166.775 215.257 167.223 215.014 167.746 214.846C168.268 214.669 168.819 214.58 169.398 214.58ZM169.048 221.286C169.608 221.286 170.088 221.16 170.49 220.908C170.891 220.647 171.19 220.273 171.386 219.788V218.584H169.076C167.816 218.584 167.186 219.023 167.186 219.9C167.186 220.329 167.349 220.67 167.676 220.922C168.002 221.165 168.46 221.286 169.048 221.286ZM181.795 222.07C181.067 222.07 180.414 221.911 179.835 221.594C179.266 221.277 178.818 220.833 178.491 220.264C178.165 219.685 178.001 219.037 178.001 218.318C178.001 217.599 178.165 216.955 178.491 216.386C178.818 215.817 179.266 215.373 179.835 215.056C180.414 214.739 181.067 214.58 181.795 214.58C182.43 214.58 182.995 214.706 183.489 214.958C183.993 215.201 184.39 215.56 184.679 216.036L183.937 216.54C183.695 216.176 183.387 215.905 183.013 215.728C182.64 215.541 182.234 215.448 181.795 215.448C181.263 215.448 180.783 215.569 180.353 215.812C179.933 216.045 179.602 216.381 179.359 216.82C179.126 217.259 179.009 217.758 179.009 218.318C179.009 218.887 179.126 219.391 179.359 219.83C179.602 220.259 179.933 220.595 180.353 220.838C180.783 221.071 181.263 221.188 181.795 221.188C182.234 221.188 182.64 221.099 183.013 220.922C183.387 220.745 183.695 220.474 183.937 220.11L184.679 220.614C184.39 221.09 183.993 221.454 183.489 221.706C182.985 221.949 182.421 222.07 181.795 222.07ZM186.523 211.612H187.517V222H186.523V211.612ZM190.282 214.636H191.276V222H190.282V214.636ZM190.786 213.026C190.581 213.026 190.408 212.956 190.268 212.816C190.128 212.676 190.058 212.508 190.058 212.312C190.058 212.125 190.128 211.962 190.268 211.822C190.408 211.682 190.581 211.612 190.786 211.612C190.992 211.612 191.164 211.682 191.304 211.822C191.444 211.953 191.514 212.111 191.514 212.298C191.514 212.503 191.444 212.676 191.304 212.816C191.164 212.956 190.992 213.026 190.786 213.026ZM200.454 218.626H194.294C194.35 219.391 194.644 220.012 195.176 220.488C195.708 220.955 196.38 221.188 197.192 221.188C197.65 221.188 198.07 221.109 198.452 220.95C198.835 220.782 199.166 220.539 199.446 220.222L200.006 220.866C199.68 221.258 199.269 221.557 198.774 221.762C198.289 221.967 197.752 222.07 197.164 222.07C196.408 222.07 195.736 221.911 195.148 221.594C194.57 221.267 194.117 220.819 193.79 220.25C193.464 219.681 193.3 219.037 193.3 218.318C193.3 217.599 193.454 216.955 193.762 216.386C194.08 215.817 194.509 215.373 195.05 215.056C195.601 214.739 196.217 214.58 196.898 214.58C197.58 214.58 198.191 214.739 198.732 215.056C199.274 215.373 199.698 215.817 200.006 216.386C200.314 216.946 200.468 217.59 200.468 218.318L200.454 218.626ZM196.898 215.434C196.189 215.434 195.592 215.663 195.106 216.12C194.63 216.568 194.36 217.156 194.294 217.884H199.516C199.451 217.156 199.176 216.568 198.69 216.12C198.214 215.663 197.617 215.434 196.898 215.434ZM206.243 214.58C207.167 214.58 207.9 214.851 208.441 215.392C208.992 215.924 209.267 216.703 209.267 217.73V222H208.273V217.828C208.273 217.063 208.082 216.479 207.699 216.078C207.317 215.677 206.771 215.476 206.061 215.476C205.268 215.476 204.638 215.714 204.171 216.19C203.714 216.657 203.485 217.305 203.485 218.136V222H202.491V214.636H203.443V215.994C203.714 215.546 204.087 215.201 204.563 214.958C205.049 214.706 205.609 214.58 206.243 214.58ZM215.844 221.552C215.657 221.72 215.424 221.851 215.144 221.944C214.873 222.028 214.589 222.07 214.29 222.07C213.599 222.07 213.067 221.883 212.694 221.51C212.321 221.137 212.134 220.609 212.134 219.928V215.476H210.818V214.636H212.134V213.026H213.128V214.636H215.368V215.476H213.128V219.872C213.128 220.311 213.235 220.647 213.45 220.88C213.674 221.104 213.991 221.216 214.402 221.216C214.607 221.216 214.803 221.183 214.99 221.118C215.186 221.053 215.354 220.959 215.494 220.838L215.844 221.552ZM223.806 218.626H217.646C217.702 219.391 217.996 220.012 218.528 220.488C219.06 220.955 219.732 221.188 220.544 221.188C221.001 221.188 221.421 221.109 221.804 220.95C222.186 220.782 222.518 220.539 222.798 220.222L223.358 220.866C223.031 221.258 222.62 221.557 222.126 221.762C221.64 221.967 221.104 222.07 220.516 222.07C219.76 222.07 219.088 221.911 218.5 221.594C217.921 221.267 217.468 220.819 217.142 220.25C216.815 219.681 216.652 219.037 216.652 218.318C216.652 217.599 216.806 216.955 217.114 216.386C217.431 215.817 217.86 215.373 218.402 215.056C218.952 214.739 219.568 214.58 220.25 214.58C220.931 214.58 221.542 214.739 222.084 215.056C222.625 215.373 223.05 215.817 223.358 216.386C223.666 216.946 223.82 217.59 223.82 218.318L223.806 218.626ZM220.25 215.434C219.54 215.434 218.943 215.663 218.458 216.12C217.982 216.568 217.711 217.156 217.646 217.884H222.868C222.802 217.156 222.527 216.568 222.042 216.12C221.566 215.663 220.968 215.434 220.25 215.434ZM225.941 222.07C225.736 222.07 225.558 221.995 225.409 221.846C225.269 221.697 225.199 221.515 225.199 221.3C225.199 221.085 225.269 220.908 225.409 220.768C225.558 220.619 225.736 220.544 225.941 220.544C226.146 220.544 226.324 220.619 226.473 220.768C226.622 220.908 226.697 221.085 226.697 221.3C226.697 221.515 226.622 221.697 226.473 221.846C226.324 221.995 226.146 222.07 225.941 222.07Z" fill="#3A3A3A"/>
<g opacity="0.25">
<mask id="mask0_110_158" style="mask-type:alpha" maskUnits="userSpaceOnUse" x="35" y="24" width="135" height="124">
<rect x="35" y="24" width="135" height="123.333" fill="url(#paint1_linear_110_158)"/>
</mask>
<g mask="url(#mask0_110_158)">
<g filter="url(#filter2_f_110_158)">
<mask id="path-10-outside-1_110_158" maskUnits="userSpaceOnUse" x="41.3334" y="42" width="107" height="83" fill="black">
<rect fill="white" x="41.3334" y="42" width="107" height="83"/>
<path d="M75.6234 123.32C69.3167 123.32 63.67 121.78 58.6834 118.7C53.6967 115.547 49.7734 111 46.9134 105.06C44.0534 99.12 42.6234 91.9333 42.6234 83.5C42.6234 75.0667 44.0534 67.88 46.9134 61.94C49.7734 56 53.6967 51.49 58.6834 48.41C63.67 45.2567 69.3167 43.68 75.6234 43.68C82.0034 43.68 87.65 45.2567 92.5634 48.41C97.55 51.49 101.473 56 104.333 61.94C107.193 67.88 108.623 75.0667 108.623 83.5C108.623 91.9333 107.193 99.12 104.333 105.06C101.473 111 97.55 115.547 92.5634 118.7C87.65 121.78 82.0034 123.32 75.6234 123.32ZM75.6234 108.25C78.63 108.25 81.2334 107.407 83.4334 105.72C85.7067 104.033 87.4667 101.357 88.7134 97.69C90.0334 94.0233 90.6934 89.2933 90.6934 83.5C90.6934 77.7067 90.0334 72.9767 88.7134 69.31C87.4667 65.6433 85.7067 62.9667 83.4334 61.28C81.2334 59.5933 78.63 58.75 75.6234 58.75C72.69 58.75 70.0867 59.5933 67.8134 61.28C65.6134 62.9667 63.8534 65.6433 62.5334 69.31C61.2867 72.9767 60.6634 77.7067 60.6634 83.5C60.6634 89.2933 61.2867 94.0233 62.5334 97.69C63.8534 101.357 65.6134 104.033 67.8134 105.72C70.0867 107.407 72.69 108.25 75.6234 108.25ZM128.732 122V51.6L136.432 59.3H113.332V45H146.552V122H128.732Z"/>
</mask>
<path d="M58.6834 118.7L58.1489 119.545L58.1579 119.551L58.6834 118.7ZM46.9134 105.06L46.0124 105.494L46.9134 105.06ZM46.9134 61.94L47.8144 62.3738L46.9134 61.94ZM58.6834 48.41L59.2089 49.2608L59.2178 49.2552L58.6834 48.41ZM92.5634 48.41L92.0233 49.2516L92.0305 49.2563L92.0379 49.2608L92.5634 48.41ZM104.333 61.94L103.432 62.3738L104.333 61.94ZM104.333 105.06L103.432 104.626L104.333 105.06ZM92.5634 118.7L93.0945 119.547L93.0978 119.545L92.5634 118.7ZM83.4334 105.72L82.8375 104.917L82.8312 104.922L82.8249 104.926L83.4334 105.72ZM88.7134 97.69L87.7725 97.3513L87.7695 97.3597L87.7666 97.3681L88.7134 97.69ZM88.7134 69.31L87.7666 69.6319L87.7695 69.6403L87.7725 69.6487L88.7134 69.31ZM83.4334 61.28L82.8249 62.0736L82.8312 62.0784L82.8375 62.0831L83.4334 61.28ZM67.8134 61.28L67.2175 60.4769L67.2112 60.4816L67.2049 60.4864L67.8134 61.28ZM62.5334 69.31L61.5925 68.9713L61.5895 68.9797L61.5866 68.9881L62.5334 69.31ZM62.5334 97.69L61.5866 98.0119L61.5895 98.0203L61.5925 98.0287L62.5334 97.69ZM67.8134 105.72L67.2049 106.514L67.2112 106.518L67.2175 106.523L67.8134 105.72ZM75.6234 122.32C69.4877 122.32 64.0256 120.824 59.2089 117.849L58.1579 119.551C63.3145 122.736 69.1458 124.32 75.6234 124.32V122.32ZM59.2178 117.855C54.4076 114.813 50.603 110.418 47.8144 104.626L46.0124 105.494C48.9438 111.582 52.9858 116.28 58.1489 119.545L59.2178 117.855ZM47.8144 104.626C45.0351 98.8538 43.6234 91.8237 43.6234 83.5H41.6234C41.6234 92.043 43.0716 99.3862 46.0124 105.494L47.8144 104.626ZM43.6234 83.5C43.6234 75.1763 45.0351 68.1462 47.8144 62.3738L46.0124 61.5062C43.0716 67.6138 41.6234 74.957 41.6234 83.5H43.6234ZM47.8144 62.3738C50.6022 56.5837 54.4043 52.2283 59.2089 49.2608L58.1579 47.5592C52.9891 50.7517 48.9445 55.4163 46.0124 61.5062L47.8144 62.3738ZM59.2178 49.2552C64.0335 46.21 69.4923 44.68 75.6234 44.68V42.68C69.1411 42.68 63.3066 44.3033 58.1489 47.5648L59.2178 49.2552ZM75.6234 44.68C81.8304 44.68 87.286 46.2112 92.0233 49.2516L93.1035 47.5684C88.0141 44.3021 82.1764 42.68 75.6234 42.68V44.68ZM92.0379 49.2608C96.8425 52.2283 100.645 56.5837 103.432 62.3738L105.234 61.5062C102.302 55.4163 98.2576 50.7517 93.0889 47.5592L92.0379 49.2608ZM103.432 62.3738C106.212 68.1462 107.623 75.1763 107.623 83.5H109.623C109.623 74.957 108.175 67.6138 105.234 61.5062L103.432 62.3738ZM107.623 83.5C107.623 91.8237 106.212 98.8538 103.432 104.626L105.234 105.494C108.175 99.3862 109.623 92.043 109.623 83.5H107.623ZM103.432 104.626C100.644 110.418 96.8392 114.813 92.0289 117.855L93.0978 119.545C98.2609 116.28 102.303 111.582 105.234 105.494L103.432 104.626ZM92.0322 117.853C87.2938 120.823 81.835 122.32 75.6234 122.32V124.32C82.1718 124.32 88.0063 122.737 93.0945 119.547L92.0322 117.853ZM75.6234 109.25C78.8303 109.25 81.6522 108.346 84.0418 106.514L82.8249 104.926C80.8146 106.468 78.4298 107.25 75.6234 107.25V109.25ZM84.0292 106.523C86.5158 104.678 88.3716 101.802 89.6601 98.0119L87.7666 97.3681C86.5619 100.911 84.8976 103.388 82.8375 104.917L84.0292 106.523ZM89.6543 98.0287C91.0275 94.2142 91.6934 89.3581 91.6934 83.5H89.6934C89.6934 89.2286 89.0393 93.8325 87.7725 97.3513L89.6543 98.0287ZM91.6934 83.5C91.6934 77.6419 91.0275 72.7858 89.6543 68.9713L87.7725 69.6487C89.0393 73.1675 89.6934 77.7714 89.6934 83.5H91.6934ZM89.6601 68.9881C88.3716 65.1981 86.5158 62.3218 84.0292 60.4769L82.8375 62.0831C84.8976 63.6115 86.5619 66.0885 87.7666 69.6319L89.6601 68.9881ZM84.0418 60.4864C81.6522 58.6543 78.8303 57.75 75.6234 57.75V59.75C78.4298 59.75 80.8146 60.5323 82.8249 62.0736L84.0418 60.4864ZM75.6234 57.75C72.4838 57.75 69.6698 58.6575 67.2175 60.4769L68.4092 62.0831C70.5036 60.5292 72.8963 59.75 75.6234 59.75V57.75ZM67.2049 60.4864C64.8029 62.328 62.9522 65.1944 61.5925 68.9713L63.4743 69.6487C64.7546 66.0923 66.4239 63.6053 68.4218 62.0736L67.2049 60.4864ZM61.5866 68.9881C60.2918 72.7963 59.6634 77.646 59.6634 83.5H61.6634C61.6634 77.7674 62.2816 73.1571 63.4801 69.6319L61.5866 68.9881ZM59.6634 83.5C59.6634 89.354 60.2918 94.2037 61.5866 98.0119L63.4801 97.3681C62.2816 93.8429 61.6634 89.2326 61.6634 83.5H59.6634ZM61.5925 98.0287C62.9522 101.806 64.8029 104.672 67.2049 106.514L68.4218 104.926C66.4239 103.395 64.7546 100.908 63.4743 97.3513L61.5925 98.0287ZM67.2175 106.523C69.6698 108.343 72.4838 109.25 75.6234 109.25V107.25C72.8963 107.25 70.5036 106.471 68.4092 104.917L67.2175 106.523ZM128.732 122H127.732V123H128.732V122ZM128.732 51.6L129.439 50.8929L127.732 49.1858V51.6H128.732ZM136.432 59.3V60.3H138.846L137.139 58.5929L136.432 59.3ZM113.332 59.3H112.332V60.3H113.332V59.3ZM113.332 45V44H112.332V45H113.332ZM146.552 45H147.552V44H146.552V45ZM146.552 122V123H147.552V122H146.552ZM129.732 122V51.6H127.732V122H129.732ZM128.025 52.3071L135.725 60.0071L137.139 58.5929L129.439 50.8929L128.025 52.3071ZM136.432 58.3H113.332V60.3H136.432V58.3ZM114.332 59.3V45H112.332V59.3H114.332ZM113.332 46H146.552V44H113.332V46ZM145.552 45V122H147.552V45H145.552ZM146.552 121H128.732V123H146.552V121Z" fill="#FF1A8B" mask="url(#path-10-outside-1_110_158)"/>
</g>
<mask id="path-12-outside-2_110_158" maskUnits="userSpaceOnUse" x="40.3334" y="41" width="109" height="85" fill="black">
<rect fill="white" x="40.3334" y="41" width="109" height="85"/>
<path d="M75.6234 123.32C69.2434 123.32 63.56 121.743 58.5734 118.59C53.5867 115.437 49.6634 110.89 46.8034 104.95C44.0167 98.9367 42.6234 91.7867 42.6234 83.5C42.6234 75.2133 44.0167 68.1 46.8034 62.16C49.6634 56.1467 53.5867 51.5633 58.5734 48.41C63.56 45.2567 69.2434 43.68 75.6234 43.68C82.0034 43.68 87.6867 45.2567 92.6734 48.41C97.66 51.5633 101.547 56.1467 104.333 62.16C107.193 68.1 108.623 75.2133 108.623 83.5C108.623 91.7867 107.193 98.9367 104.333 104.95C101.547 110.89 97.66 115.437 92.6734 118.59C87.6867 121.743 82.0034 123.32 75.6234 123.32ZM75.6234 108.25C80.3167 108.25 83.9834 106.233 86.6234 102.2C89.3367 98.1667 90.6934 91.9333 90.6934 83.5C90.6934 75.0667 89.3367 68.8333 86.6234 64.8C83.9834 60.7667 80.3167 58.75 75.6234 58.75C71.0034 58.75 67.3367 60.7667 64.6234 64.8C61.9834 68.8333 60.6634 75.0667 60.6634 83.5C60.6634 91.9333 61.9834 98.1667 64.6234 102.2C67.3367 106.233 71.0034 108.25 75.6234 108.25ZM146.337 45V122H128.517V59.3H113.117V45H146.337Z"/>
</mask>
<path d="M58.5734 118.59L59.6423 116.9H59.6423L58.5734 118.59ZM46.8034 104.95L44.9888 105.791L44.995 105.804L45.0014 105.818L46.8034 104.95ZM46.8034 62.16L44.9972 61.301L44.9927 61.3106L46.8034 62.16ZM58.5734 48.41L59.6423 50.1004L58.5734 48.41ZM92.6734 48.41L91.6045 50.1004L92.6734 48.41ZM104.333 62.16L102.519 63.0009L102.525 63.0143L102.531 63.0276L104.333 62.16ZM104.333 104.95L102.527 104.091L102.523 104.101L104.333 104.95ZM92.6734 118.59L91.6045 116.9L92.6734 118.59ZM86.6234 102.2L84.9639 101.084L84.9569 101.094L84.95 101.105L86.6234 102.2ZM86.6234 64.8L84.95 65.8953L84.9569 65.9059L84.9639 65.9164L86.6234 64.8ZM64.6234 64.8L62.9639 63.6836L62.9569 63.6941L62.95 63.7047L64.6234 64.8ZM64.6234 102.2L62.95 103.295L62.9569 103.306L62.9639 103.316L64.6234 102.2ZM75.6234 121.32C69.5898 121.32 64.2831 119.834 59.6423 116.9L57.5045 120.28C62.837 123.652 68.897 125.32 75.6234 125.32V121.32ZM59.6423 116.9C55.0084 113.969 51.3225 109.726 48.6054 104.082L45.0014 105.818C48.0042 112.054 52.165 116.904 57.5045 120.28L59.6423 116.9ZM48.618 104.109C45.98 98.4166 44.6234 91.5669 44.6234 83.5H40.6234C40.6234 92.0064 42.0534 99.4567 44.9888 105.791L48.618 104.109ZM44.6234 83.5C44.6234 75.4321 45.9804 68.6233 48.614 63.0094L44.9927 61.3106C42.0531 67.5767 40.6234 74.9946 40.6234 83.5H44.6234ZM48.6095 63.019C51.3287 57.3018 55.0147 53.0267 59.6423 50.1004L57.5045 46.7196C52.1587 50.1 47.9981 54.9916 44.9972 61.301L48.6095 63.019ZM59.6423 50.1004C64.2831 47.1658 69.5898 45.68 75.6234 45.68V41.68C68.897 41.68 62.837 43.3476 57.5045 46.7196L59.6423 50.1004ZM75.6234 45.68C81.657 45.68 86.9637 47.1658 91.6045 50.1004L93.7423 46.7196C88.4097 43.3476 82.3498 41.68 75.6234 41.68V45.68ZM91.6045 50.1004C96.227 53.0235 99.8732 57.2921 102.519 63.0009L106.148 61.3191C103.22 55.0012 99.0931 50.1032 93.7423 46.7196L91.6045 50.1004ZM102.531 63.0276C105.232 68.6366 106.623 75.4387 106.623 83.5H110.623C110.623 74.988 109.155 67.5634 106.135 61.2924L102.531 63.0276ZM106.623 83.5C106.623 91.5603 105.232 98.4034 102.527 104.091L106.14 105.809C109.154 99.4699 110.623 92.013 110.623 83.5H106.623ZM102.523 104.101C99.8793 109.735 96.2333 113.973 91.6045 116.9L93.7423 120.28C99.0868 116.901 103.214 112.045 106.144 105.799L102.523 104.101ZM91.6045 116.9C86.9637 119.834 81.657 121.32 75.6234 121.32V125.32C82.3498 125.32 88.4097 123.652 93.7423 120.28L91.6045 116.9ZM75.6234 110.25C81.0132 110.25 85.2994 107.875 88.2968 103.295L84.95 101.105C82.6674 104.592 79.6203 106.25 75.6234 106.25V110.25ZM88.2828 103.316C91.3282 98.7894 92.6934 92.0727 92.6934 83.5H88.6934C88.6934 91.794 87.3452 97.5439 84.9639 101.084L88.2828 103.316ZM92.6934 83.5C92.6934 74.9273 91.3282 68.2106 88.2828 63.6836L84.9639 65.9164C87.3452 69.4561 88.6934 75.206 88.6934 83.5H92.6934ZM88.2968 63.7047C85.2994 59.1253 81.0132 56.75 75.6234 56.75V60.75C79.6203 60.75 82.6674 62.408 84.95 65.8953L88.2968 63.7047ZM75.6234 56.75C70.2973 56.75 66.0257 59.1323 62.9639 63.6836L66.2828 65.9164C68.6477 62.401 71.7095 60.75 75.6234 60.75V56.75ZM62.95 63.7047C59.9902 68.2265 58.6634 74.9337 58.6634 83.5H62.6634C62.6634 75.1997 63.9765 69.4401 66.2968 65.8953L62.95 63.7047ZM58.6634 83.5C58.6634 92.0663 59.9902 98.7735 62.95 103.295L66.2968 101.105C63.9765 97.5599 62.6634 91.8003 62.6634 83.5H58.6634ZM62.9639 103.316C66.0257 107.868 70.2973 110.25 75.6234 110.25V106.25C71.7095 106.25 68.6477 104.599 66.2828 101.084L62.9639 103.316ZM146.337 45H148.337V43H146.337V45ZM146.337 122V124H148.337V122H146.337ZM128.517 122H126.517V124H128.517V122ZM128.517 59.3H130.517V57.3H128.517V59.3ZM113.117 59.3H111.117V61.3H113.117V59.3ZM113.117 45V43H111.117V45H113.117ZM144.337 45V122H148.337V45H144.337ZM146.337 120H128.517V124H146.337V120ZM130.517 122V59.3H126.517V122H130.517ZM128.517 57.3H113.117V61.3H128.517V57.3ZM115.117 59.3V45H111.117V59.3H115.117ZM113.117 47H146.337V43H113.117V47Z" fill="#212121" mask="url(#path-12-outside-2_110_158)"/>
</g>
</g>
<defs>
<filter id="filter0_bd_110_158" x="196.347" y="24.3469" width="115.306" height="115.306" filterUnits="userSpaceOnUse" color-interpolation-filters="sRGB">
<feFlood flood-opacity="0" result="BackgroundImageFix"/>
<feGaussianBlur in="BackgroundImageFix" stdDeviation="11.3265"/>
<feComposite in2="SourceAlpha" operator="in" result="effect1_backgroundBlur_110_158"/>
<feColorMatrix in="SourceAlpha" type="matrix" values="0 0 0 0 0 0 0 0 0 0 0 0 0 0 0 0 0 0 127 0" result="hardAlpha"/>
<feMorphology radius="0.755102" operator="erode" in="SourceAlpha" result="effect2_dropShadow_110_158"/>
<feOffset dy="3.02041"/>
<feGaussianBlur stdDeviation="9.06122"/>
<feComposite in2="hardAlpha" operator="out"/>
<feColorMatrix type="matrix" values="0 0 0 0 0 0 0 0 0 0 0 0 0 0 0 0 0 0 0.2 0"/>
<feBlend mode="normal" in2="effect1_backgroundBlur_110_158" result="effect2_dropShadow_110_158"/>
<feBlend mode="normal" in="SourceGraphic" in2="effect2_dropShadow_110_158" result="shape"/>
</filter>
<filter id="filter1_d_110_158" x="0" y="0" width="335" height="334" filterUnits="userSpaceOnUse" color-interpolation-filters="sRGB">
<feFlood flood-opacity="0" result="BackgroundImageFix"/>
<feColorMatrix in="SourceAlpha" type="matrix" values="0 0 0 0 0 0 0 0 0 0 0 0 0 0 0 0 0 0 127 0" result="hardAlpha"/>
<feOffset dy="10"/>
<feGaussianBlur stdDeviation="7.5"/>
<feComposite in2="hardAlpha" operator="out"/>
<feColorMatrix type="matrix" values="0 0 0 0 0 0 0 0 0 0 0 0 0 0 0 0 0 0 0.29 0"/>
<feBlend mode="normal" in2="BackgroundImageFix" result="effect1_dropShadow_110_158"/>
<feBlend mode="normal" in="SourceGraphic" in2="effect1_dropShadow_110_158" result="shape"/>
</filter>
<filter id="filter2_f_110_158" x="37.6234" y="38.6799" width="113.928" height="89.6401" filterUnits="userSpaceOnUse" color-interpolation-filters="sRGB">
<feFlood flood-opacity="0" result="BackgroundImageFix"/>
<feBlend mode="normal" in="SourceGraphic" in2="BackgroundImageFix" result="shape"/>
<feGaussianBlur stdDeviation="2.5" result="effect1_foregroundBlur_110_158"/>
</filter>
<linearGradient id="paint0_linear_110_158" x1="218.34" y1="91.9115" x2="291.956" y2="109.978" gradientUnits="userSpaceOnUse">
<stop stop-color="#8A8A8A" stop-opacity="0.15"/>
<stop offset="0.626245" stop-color="#B8B8B8" stop-opacity="0.04"/>
</linearGradient>
<linearGradient id="paint1_linear_110_158" x1="102" y1="7" x2="107.5" y2="126.5" gradientUnits="userSpaceOnUse">
<stop offset="0.37928" stop-color="#D9D9D9"/>
<stop offset="1" stop-color="#737373" stop-opacity="0"/>
</linearGradient>
</defs>
</svg>
