<svg width="305" height="299" viewBox="0 0 305 299" fill="none" xmlns="http://www.w3.org/2000/svg">
<rect x="0.5" y="0.5" width="304" height="298" rx="19.5" stroke="#212121"/>
<path d="M33.3231 156V144.8H38.4431C39.4671 144.8 40.3471 144.965 41.0831 145.296C41.8298 145.627 42.4058 146.107 42.8111 146.736C43.2165 147.355 43.4191 148.091 43.4191 148.944C43.4191 149.787 43.2165 150.517 42.8111 151.136C42.4058 151.755 41.8298 152.235 41.0831 152.576C40.3471 152.907 39.4671 153.072 38.4431 153.072H35.0831L36.4911 151.696V156H33.3231ZM36.4911 152.032L35.0831 150.576H38.2511C38.9125 150.576 39.4031 150.432 39.7231 150.144C40.0538 149.856 40.2191 149.456 40.2191 148.944C40.2191 148.421 40.0538 148.016 39.7231 147.728C39.4031 147.44 38.9125 147.296 38.2511 147.296H35.0831L36.4911 145.84V152.032ZM44.8979 156V147.328H47.7939V149.856L47.3619 149.136C47.6179 148.485 48.0339 148 48.6099 147.68C49.1859 147.349 49.8845 147.184 50.7059 147.184V149.92C50.5672 149.899 50.4445 149.888 50.3379 149.888C50.2419 149.877 50.1352 149.872 50.0179 149.872C49.3992 149.872 48.8979 150.043 48.5139 150.384C48.1299 150.715 47.9379 151.259 47.9379 152.016V156H44.8979ZM56.2343 156.144C55.2849 156.144 54.4423 155.952 53.7063 155.568C52.9703 155.184 52.3889 154.656 51.9622 153.984C51.5463 153.301 51.3383 152.523 51.3383 151.648C51.3383 150.773 51.5463 150 51.9622 149.328C52.3889 148.656 52.9703 148.133 53.7063 147.76C54.4423 147.376 55.2849 147.184 56.2343 147.184C57.1836 147.184 58.0263 147.376 58.7623 147.76C59.5089 148.133 60.0903 148.656 60.5063 149.328C60.9223 150 61.1303 150.773 61.1303 151.648C61.1303 152.523 60.9223 153.301 60.5063 153.984C60.0903 154.656 59.5089 155.184 58.7623 155.568C58.0263 155.952 57.1836 156.144 56.2343 156.144ZM56.2343 153.728C56.5863 153.728 56.8956 153.648 57.1623 153.488C57.4396 153.328 57.6583 153.093 57.8183 152.784C57.9783 152.464 58.0583 152.085 58.0583 151.648C58.0583 151.211 57.9783 150.843 57.8183 150.544C57.6583 150.235 57.4396 150 57.1623 149.84C56.8956 149.68 56.5863 149.6 56.2343 149.6C55.8929 149.6 55.5836 149.68 55.3063 149.84C55.0396 150 54.8209 150.235 54.6503 150.544C54.4903 150.843 54.4103 151.211 54.4103 151.648C54.4103 152.085 54.4903 152.464 54.6503 152.784C54.8209 153.093 55.0396 153.328 55.3063 153.488C55.5836 153.648 55.8929 153.728 56.2343 153.728ZM62.1705 159.248C61.7652 159.248 61.3812 159.205 61.0185 159.12C60.6452 159.045 60.3252 158.939 60.0585 158.8L60.8265 156.64C61.1038 156.811 61.4185 156.896 61.7705 156.896C62.0372 156.896 62.2505 156.805 62.4105 156.624C62.5812 156.443 62.6665 156.155 62.6665 155.76V147.328H65.7065V155.776C65.7065 156.832 65.3972 157.675 64.7785 158.304C64.1598 158.933 63.2905 159.248 62.1705 159.248ZM64.1865 146.368C63.6318 146.368 63.1838 146.213 62.8425 145.904C62.5012 145.595 62.3305 145.211 62.3305 144.752C62.3305 144.293 62.5012 143.909 62.8425 143.6C63.1838 143.291 63.6318 143.136 64.1865 143.136C64.7412 143.136 65.1892 143.285 65.5305 143.584C65.8718 143.872 66.0425 144.245 66.0425 144.704C66.0425 145.184 65.8718 145.584 65.5305 145.904C65.1998 146.213 64.7518 146.368 64.1865 146.368ZM72.2075 156.144C71.1835 156.144 70.2875 155.952 69.5195 155.568C68.7622 155.173 68.1702 154.64 67.7435 153.968C67.3275 153.285 67.1195 152.512 67.1195 151.648C67.1195 150.784 67.3222 150.016 67.7275 149.344C68.1435 148.661 68.7142 148.133 69.4395 147.76C70.1648 147.376 70.9808 147.184 71.8875 147.184C72.7408 147.184 73.5195 147.36 74.2235 147.712C74.9275 148.053 75.4875 148.56 75.9035 149.232C76.3195 149.904 76.5275 150.72 76.5275 151.68C76.5275 151.787 76.5222 151.909 76.5115 152.048C76.5008 152.187 76.4902 152.315 76.4795 152.432H69.6155V150.832H74.8635L73.7115 151.28C73.7222 150.885 73.6475 150.544 73.4875 150.256C73.3382 149.968 73.1248 149.744 72.8475 149.584C72.5808 149.424 72.2662 149.344 71.9035 149.344C71.5408 149.344 71.2208 149.424 70.9435 149.584C70.6768 149.744 70.4688 149.973 70.3195 150.272C70.1702 150.56 70.0955 150.901 70.0955 151.296V151.76C70.0955 152.187 70.1808 152.555 70.3515 152.864C70.5328 153.173 70.7888 153.413 71.1195 153.584C71.4502 153.744 71.8448 153.824 72.3035 153.824C72.7302 153.824 73.0928 153.765 73.3915 153.648C73.7008 153.52 74.0048 153.328 74.3035 153.072L75.9035 154.736C75.4875 155.195 74.9755 155.547 74.3675 155.792C73.7595 156.027 73.0395 156.144 72.2075 156.144ZM81.8011 156.144C80.6918 156.144 79.8278 155.872 79.2091 155.328C78.5905 154.773 78.2811 153.941 78.2811 152.832V145.392H81.3211V152.8C81.3211 153.109 81.4065 153.355 81.5771 153.536C81.7478 153.707 81.9665 153.792 82.2331 153.792C82.5958 153.792 82.9051 153.701 83.1611 153.52L83.9131 155.648C83.6571 155.819 83.3425 155.941 82.9691 156.016C82.5958 156.101 82.2065 156.144 81.8011 156.144ZM77.0171 149.92V147.648H83.3051V149.92H77.0171ZM89.1874 156.144C88.238 156.144 87.3954 155.952 86.6594 155.568C85.9234 155.184 85.342 154.656 84.9154 153.984C84.4994 153.301 84.2914 152.523 84.2914 151.648C84.2914 150.773 84.4994 150 84.9154 149.328C85.342 148.656 85.9234 148.133 86.6594 147.76C87.3954 147.376 88.238 147.184 89.1874 147.184C90.1367 147.184 90.9794 147.376 91.7154 147.76C92.462 148.133 93.0434 148.656 93.4594 149.328C93.8754 150 94.0834 150.773 94.0834 151.648C94.0834 152.523 93.8754 153.301 93.4594 153.984C93.0434 154.656 92.462 155.184 91.7154 155.568C90.9794 155.952 90.1367 156.144 89.1874 156.144ZM89.1874 153.728C89.5394 153.728 89.8487 153.648 90.1154 153.488C90.3927 153.328 90.6114 153.093 90.7714 152.784C90.9314 152.464 91.0114 152.085 91.0114 151.648C91.0114 151.211 90.9314 150.843 90.7714 150.544C90.6114 150.235 90.3927 150 90.1154 149.84C89.8487 149.68 89.5394 149.6 89.1874 149.6C88.846 149.6 88.5367 149.68 88.2594 149.84C87.9927 150 87.774 150.235 87.6034 150.544C87.4434 150.843 87.3634 151.211 87.3634 151.648C87.3634 152.085 87.4434 152.464 87.6034 152.784C87.774 153.093 87.9927 153.328 88.2594 153.488C88.5367 153.648 88.846 153.728 89.1874 153.728ZM103.924 156.144C103.135 156.144 102.415 155.963 101.764 155.6C101.124 155.227 100.612 154.709 100.228 154.048C99.8439 153.376 99.6519 152.576 99.6519 151.648C99.6519 150.731 99.8439 149.941 100.228 149.28C100.612 148.608 101.124 148.091 101.764 147.728C102.415 147.365 103.135 147.184 103.924 147.184C104.671 147.184 105.3 147.344 105.812 147.664C106.335 147.984 106.729 148.475 106.996 149.136C107.263 149.797 107.396 150.635 107.396 151.648C107.396 152.683 107.268 153.531 107.012 154.192C106.756 154.853 106.372 155.344 105.86 155.664C105.348 155.984 104.703 156.144 103.924 156.144ZM104.564 153.728C104.905 153.728 105.209 153.648 105.476 153.488C105.753 153.328 105.972 153.093 106.132 152.784C106.292 152.464 106.372 152.085 106.372 151.648C106.372 151.211 106.292 150.843 106.132 150.544C105.972 150.235 105.753 150 105.476 149.84C105.209 149.68 104.905 149.6 104.564 149.6C104.212 149.6 103.897 149.68 103.62 149.84C103.353 150 103.14 150.235 102.98 150.544C102.82 150.843 102.74 151.211 102.74 151.648C102.74 152.085 102.82 152.464 102.98 152.784C103.14 153.093 103.353 153.328 103.62 153.488C103.897 153.648 104.212 153.728 104.564 153.728ZM106.468 156V154.512L106.484 151.648L106.324 148.784V144.128H109.364V156H106.468ZM115.864 156.144C114.84 156.144 113.944 155.952 113.176 155.568C112.418 155.173 111.826 154.64 111.4 153.968C110.984 153.285 110.776 152.512 110.776 151.648C110.776 150.784 110.978 150.016 111.384 149.344C111.8 148.661 112.37 148.133 113.096 147.76C113.821 147.376 114.637 147.184 115.544 147.184C116.397 147.184 117.176 147.36 117.88 147.712C118.584 148.053 119.144 148.56 119.56 149.232C119.976 149.904 120.184 150.72 120.184 151.68C120.184 151.787 120.178 151.909 120.168 152.048C120.157 152.187 120.146 152.315 120.136 152.432H113.272V150.832H118.52L117.368 151.28C117.378 150.885 117.304 150.544 117.144 150.256C116.994 149.968 116.781 149.744 116.504 149.584C116.237 149.424 115.922 149.344 115.56 149.344C115.197 149.344 114.877 149.424 114.6 149.584C114.333 149.744 114.125 149.973 113.976 150.272C113.826 150.56 113.752 150.901 113.752 151.296V151.76C113.752 152.187 113.837 152.555 114.008 152.864C114.189 153.173 114.445 153.413 114.776 153.584C115.106 153.744 115.501 153.824 115.96 153.824C116.386 153.824 116.749 153.765 117.048 153.648C117.357 153.52 117.661 153.328 117.96 153.072L119.56 154.736C119.144 155.195 118.632 155.547 118.024 155.792C117.416 156.027 116.696 156.144 115.864 156.144ZM130.018 156.144C129.228 156.144 128.508 155.963 127.858 155.6C127.218 155.227 126.706 154.709 126.322 154.048C125.938 153.376 125.746 152.576 125.746 151.648C125.746 150.731 125.938 149.941 126.322 149.28C126.706 148.608 127.218 148.091 127.858 147.728C128.508 147.365 129.228 147.184 130.018 147.184C130.764 147.184 131.394 147.344 131.906 147.664C132.428 147.984 132.823 148.475 133.09 149.136C133.356 149.797 133.49 150.635 133.49 151.648C133.49 152.683 133.362 153.531 133.106 154.192C132.85 154.853 132.466 155.344 131.954 155.664C131.442 155.984 130.796 156.144 130.018 156.144ZM130.658 153.728C130.999 153.728 131.303 153.648 131.57 153.488C131.847 153.328 132.066 153.093 132.226 152.784C132.386 152.464 132.466 152.085 132.466 151.648C132.466 151.211 132.386 150.843 132.226 150.544C132.066 150.235 131.847 150 131.57 149.84C131.303 149.68 130.999 149.6 130.658 149.6C130.306 149.6 129.991 149.68 129.714 149.84C129.447 150 129.234 150.235 129.074 150.544C128.914 150.843 128.834 151.211 128.834 151.648C128.834 152.085 128.914 152.464 129.074 152.784C129.234 153.093 129.447 153.328 129.714 153.488C129.991 153.648 130.306 153.728 130.658 153.728ZM132.562 156V154.512L132.578 151.648L132.418 148.784V144.128H135.458V156H132.562ZM141.958 156.144C140.934 156.144 140.038 155.952 139.27 155.568C138.512 155.173 137.92 154.64 137.493 153.968C137.078 153.285 136.87 152.512 136.87 151.648C136.87 150.784 137.072 150.016 137.478 149.344C137.894 148.661 138.464 148.133 139.19 147.76C139.915 147.376 140.731 147.184 141.638 147.184C142.491 147.184 143.27 147.36 143.974 147.712C144.678 148.053 145.238 148.56 145.654 149.232C146.07 149.904 146.278 150.72 146.278 151.68C146.278 151.787 146.272 151.909 146.262 152.048C146.251 152.187 146.24 152.315 146.23 152.432H139.366V150.832H144.614L143.462 151.28C143.472 150.885 143.398 150.544 143.238 150.256C143.088 149.968 142.875 149.744 142.598 149.584C142.331 149.424 142.016 149.344 141.654 149.344C141.291 149.344 140.971 149.424 140.694 149.584C140.427 149.744 140.219 149.973 140.07 150.272C139.92 150.56 139.846 150.901 139.846 151.296V151.76C139.846 152.187 139.931 152.555 140.102 152.864C140.283 153.173 140.539 153.413 140.87 153.584C141.2 153.744 141.595 153.824 142.054 153.824C142.48 153.824 142.843 153.765 143.142 153.648C143.451 153.52 143.755 153.328 144.054 153.072L145.654 154.736C145.238 155.195 144.726 155.547 144.118 155.792C143.51 156.027 142.79 156.144 141.958 156.144ZM150.831 156.144C150.095 156.144 149.375 156.059 148.671 155.888C147.978 155.717 147.418 155.504 146.991 155.248L147.903 153.168C148.308 153.413 148.783 153.611 149.327 153.76C149.871 153.899 150.404 153.968 150.927 153.968C151.439 153.968 151.791 153.915 151.983 153.808C152.186 153.701 152.287 153.557 152.287 153.376C152.287 153.205 152.191 153.083 151.999 153.008C151.818 152.923 151.572 152.859 151.263 152.816C150.964 152.773 150.634 152.725 150.271 152.672C149.908 152.619 149.54 152.549 149.167 152.464C148.804 152.368 148.468 152.229 148.159 152.048C147.86 151.856 147.62 151.6 147.439 151.28C147.258 150.96 147.167 150.555 147.167 150.064C147.167 149.509 147.327 149.019 147.647 148.592C147.978 148.155 148.458 147.813 149.087 147.568C149.716 147.312 150.484 147.184 151.391 147.184C151.999 147.184 152.612 147.248 153.231 147.376C153.86 147.493 154.388 147.675 154.815 147.92L153.903 149.984C153.476 149.739 153.05 149.573 152.623 149.488C152.196 149.392 151.791 149.344 151.407 149.344C150.895 149.344 150.532 149.403 150.319 149.52C150.116 149.637 150.015 149.781 150.015 149.952C150.015 150.123 150.106 150.256 150.287 150.352C150.468 150.437 150.708 150.507 151.007 150.56C151.316 150.603 151.652 150.651 152.015 150.704C152.378 150.747 152.74 150.816 153.103 150.912C153.476 151.008 153.812 151.152 154.111 151.344C154.42 151.525 154.666 151.776 154.847 152.096C155.028 152.405 155.119 152.805 155.119 153.296C155.119 153.829 154.954 154.309 154.623 154.736C154.303 155.163 153.823 155.504 153.183 155.76C152.554 156.016 151.77 156.144 150.831 156.144ZM160.973 156.144C159.949 156.144 159.053 155.952 158.285 155.568C157.528 155.173 156.936 154.64 156.509 153.968C156.093 153.285 155.885 152.512 155.885 151.648C155.885 150.784 156.088 150.016 156.493 149.344C156.909 148.661 157.48 148.133 158.205 147.76C158.93 147.376 159.746 147.184 160.653 147.184C161.506 147.184 162.285 147.36 162.989 147.712C163.693 148.053 164.253 148.56 164.669 149.232C165.085 149.904 165.293 150.72 165.293 151.68C165.293 151.787 165.288 151.909 165.277 152.048C165.266 152.187 165.256 152.315 165.245 152.432H158.381V150.832H163.629L162.477 151.28C162.488 150.885 162.413 150.544 162.253 150.256C162.104 149.968 161.89 149.744 161.613 149.584C161.346 149.424 161.032 149.344 160.669 149.344C160.306 149.344 159.986 149.424 159.709 149.584C159.442 149.744 159.234 149.973 159.085 150.272C158.936 150.56 158.861 150.901 158.861 151.296V151.76C158.861 152.187 158.946 152.555 159.117 152.864C159.298 153.173 159.554 153.413 159.885 153.584C160.216 153.744 160.61 153.824 161.069 153.824C161.496 153.824 161.858 153.765 162.157 153.648C162.466 153.52 162.77 153.328 163.069 153.072L164.669 154.736C164.253 155.195 163.741 155.547 163.133 155.792C162.525 156.027 161.805 156.144 160.973 156.144ZM172.343 147.184C173.015 147.184 173.623 147.323 174.167 147.6C174.711 147.867 175.137 148.283 175.447 148.848C175.767 149.413 175.927 150.144 175.927 151.04V156H172.887V151.536C172.887 150.917 172.759 150.469 172.503 150.192C172.257 149.904 171.911 149.76 171.463 149.76C171.143 149.76 170.849 149.835 170.583 149.984C170.316 150.123 170.108 150.341 169.959 150.64C169.809 150.939 169.735 151.328 169.735 151.808V156H166.695V147.328H169.591V149.792L169.031 149.072C169.361 148.443 169.815 147.973 170.391 147.664C170.967 147.344 171.617 147.184 172.343 147.184ZM180.095 156L176.527 147.328H179.647L182.495 154.576H180.927L183.919 147.328H186.815L183.231 156H180.095ZM191.719 156.144C190.769 156.144 189.927 155.952 189.191 155.568C188.455 155.184 187.873 154.656 187.447 153.984C187.031 153.301 186.823 152.523 186.823 151.648C186.823 150.773 187.031 150 187.447 149.328C187.873 148.656 188.455 148.133 189.191 147.76C189.927 147.376 190.769 147.184 191.719 147.184C192.668 147.184 193.511 147.376 194.247 147.76C194.993 148.133 195.575 148.656 195.991 149.328C196.407 150 196.615 150.773 196.615 151.648C196.615 152.523 196.407 153.301 195.991 153.984C195.575 154.656 194.993 155.184 194.247 155.568C193.511 155.952 192.668 156.144 191.719 156.144ZM191.719 153.728C192.071 153.728 192.38 153.648 192.647 153.488C192.924 153.328 193.143 153.093 193.303 152.784C193.463 152.464 193.543 152.085 193.543 151.648C193.543 151.211 193.463 150.843 193.303 150.544C193.143 150.235 192.924 150 192.647 149.84C192.38 149.68 192.071 149.6 191.719 149.6C191.377 149.6 191.068 149.68 190.791 149.84C190.524 150 190.305 150.235 190.135 150.544C189.975 150.843 189.895 151.211 189.895 151.648C189.895 152.085 189.975 152.464 190.135 152.784C190.305 153.093 190.524 153.328 190.791 153.488C191.068 153.648 191.377 153.728 191.719 153.728ZM198.023 156V144.128H201.063V156H198.023ZM205.455 156L201.886 147.328H205.007L207.855 154.576H206.286L209.279 147.328H212.175L208.591 156H205.455ZM212.96 156V147.328H216V156H212.96ZM214.48 146.368C213.926 146.368 213.478 146.213 213.136 145.904C212.795 145.595 212.624 145.211 212.624 144.752C212.624 144.293 212.795 143.909 213.136 143.6C213.478 143.291 213.926 143.136 214.48 143.136C215.035 143.136 215.483 143.285 215.824 143.584C216.166 143.872 216.336 144.245 216.336 144.704C216.336 145.184 216.166 145.584 215.824 145.904C215.494 146.213 215.046 146.368 214.48 146.368ZM229.272 147.184C229.944 147.184 230.541 147.323 231.064 147.6C231.597 147.867 232.013 148.283 232.312 148.848C232.621 149.413 232.776 150.144 232.776 151.04V156H229.736V151.536C229.736 150.917 229.619 150.469 229.384 150.192C229.149 149.904 228.829 149.76 228.424 149.76C228.136 149.76 227.875 149.829 227.64 149.968C227.405 150.107 227.224 150.32 227.096 150.608C226.968 150.885 226.904 151.248 226.904 151.696V156H223.864V151.536C223.864 150.917 223.747 150.469 223.512 150.192C223.288 149.904 222.968 149.76 222.552 149.76C222.253 149.76 221.987 149.829 221.752 149.968C221.528 150.107 221.347 150.32 221.208 150.608C221.08 150.885 221.016 151.248 221.016 151.696V156H217.976V147.328H220.872V149.744L220.296 149.056C220.616 148.437 221.053 147.973 221.608 147.664C222.163 147.344 222.781 147.184 223.464 147.184C224.243 147.184 224.925 147.387 225.512 147.792C226.109 148.187 226.509 148.805 226.712 149.648L225.72 149.44C226.029 148.736 226.493 148.187 227.112 147.792C227.741 147.387 228.461 147.184 229.272 147.184ZM239.348 156.144C238.324 156.144 237.428 155.952 236.66 155.568C235.903 155.173 235.311 154.64 234.884 153.968C234.468 153.285 234.26 152.512 234.26 151.648C234.26 150.784 234.463 150.016 234.868 149.344C235.284 148.661 235.855 148.133 236.58 147.76C237.305 147.376 238.121 147.184 239.028 147.184C239.881 147.184 240.66 147.36 241.364 147.712C242.068 148.053 242.628 148.56 243.044 149.232C243.46 149.904 243.668 150.72 243.668 151.68C243.668 151.787 243.663 151.909 243.652 152.048C243.641 152.187 243.631 152.315 243.62 152.432H236.756V150.832H242.004L240.852 151.28C240.863 150.885 240.788 150.544 240.628 150.256C240.479 149.968 240.265 149.744 239.988 149.584C239.721 149.424 239.407 149.344 239.044 149.344C238.681 149.344 238.361 149.424 238.084 149.584C237.817 149.744 237.609 149.973 237.46 150.272C237.311 150.56 237.236 150.901 237.236 151.296V151.76C237.236 152.187 237.321 152.555 237.492 152.864C237.673 153.173 237.929 153.413 238.26 153.584C238.591 153.744 238.985 153.824 239.444 153.824C239.871 153.824 240.233 153.765 240.532 153.648C240.841 153.52 241.145 153.328 241.444 153.072L243.044 154.736C242.628 155.195 242.116 155.547 241.508 155.792C240.9 156.027 240.18 156.144 239.348 156.144ZM250.718 147.184C251.39 147.184 251.998 147.323 252.542 147.6C253.086 147.867 253.512 148.283 253.822 148.848C254.142 149.413 254.302 150.144 254.302 151.04V156H251.262V151.536C251.262 150.917 251.134 150.469 250.878 150.192C250.632 149.904 250.286 149.76 249.838 149.76C249.518 149.76 249.224 149.835 248.958 149.984C248.691 150.123 248.483 150.341 248.334 150.64C248.184 150.939 248.11 151.328 248.11 151.808V156H245.07V147.328H247.966V149.792L247.406 149.072C247.736 148.443 248.19 147.973 248.766 147.664C249.342 147.344 249.992 147.184 250.718 147.184ZM260.082 156.144C258.973 156.144 258.109 155.872 257.49 155.328C256.872 154.773 256.562 153.941 256.562 152.832V145.392H259.602V152.8C259.602 153.109 259.688 153.355 259.858 153.536C260.029 153.707 260.248 153.792 260.514 153.792C260.877 153.792 261.186 153.701 261.442 153.52L262.194 155.648C261.938 155.819 261.624 155.941 261.25 156.016C260.877 156.101 260.488 156.144 260.082 156.144ZM255.298 149.92V147.648H261.586V149.92H255.298ZM267.469 156.144C266.519 156.144 265.677 155.952 264.941 155.568C264.205 155.184 263.623 154.656 263.197 153.984C262.781 153.301 262.573 152.523 262.573 151.648C262.573 150.773 262.781 150 263.197 149.328C263.623 148.656 264.205 148.133 264.941 147.76C265.677 147.376 266.519 147.184 267.469 147.184C268.418 147.184 269.261 147.376 269.997 147.76C270.743 148.133 271.325 148.656 271.741 149.328C272.157 150 272.365 150.773 272.365 151.648C272.365 152.523 272.157 153.301 271.741 153.984C271.325 154.656 270.743 155.184 269.997 155.568C269.261 155.952 268.418 156.144 267.469 156.144ZM267.469 153.728C267.821 153.728 268.13 153.648 268.397 153.488C268.674 153.328 268.893 153.093 269.053 152.784C269.213 152.464 269.293 152.085 269.293 151.648C269.293 151.211 269.213 150.843 269.053 150.544C268.893 150.235 268.674 150 268.397 149.84C268.13 149.68 267.821 149.6 267.469 149.6C267.127 149.6 266.818 149.68 266.541 149.84C266.274 150 266.055 150.235 265.885 150.544C265.725 150.843 265.645 151.211 265.645 151.648C265.645 152.085 265.725 152.464 265.885 152.784C266.055 153.093 266.274 153.328 266.541 153.488C266.818 153.648 267.127 153.728 267.469 153.728ZM99.5648 176.144C98.8288 176.144 98.1995 175.984 97.6768 175.664C97.1541 175.333 96.7541 174.843 96.4768 174.192C96.2101 173.531 96.0768 172.688 96.0768 171.664C96.0768 170.629 96.2048 169.787 96.4608 169.136C96.7168 168.475 97.1008 167.984 97.6128 167.664C98.1355 167.344 98.7861 167.184 99.5648 167.184C100.354 167.184 101.069 167.371 101.709 167.744C102.359 168.107 102.871 168.624 103.245 169.296C103.629 169.957 103.821 170.747 103.821 171.664C103.821 172.581 103.629 173.376 103.245 174.048C102.871 174.72 102.359 175.237 101.709 175.6C101.069 175.963 100.354 176.144 99.5648 176.144ZM94.1088 179.104V167.328H97.0048V168.8L96.9888 171.664L97.1488 174.544V179.104H94.1088ZM98.9248 173.728C99.2661 173.728 99.5701 173.648 99.8368 173.488C100.114 173.328 100.333 173.093 100.493 172.784C100.663 172.475 100.749 172.101 100.749 171.664C100.749 171.227 100.663 170.853 100.493 170.544C100.333 170.235 100.114 170 99.8368 169.84C99.5701 169.68 99.2661 169.6 98.9248 169.6C98.5835 169.6 98.2741 169.68 97.9968 169.84C97.7301 170 97.5115 170.235 97.3408 170.544C97.1808 170.853 97.1008 171.227 97.1008 171.664C97.1008 172.101 97.1808 172.475 97.3408 172.784C97.5115 173.093 97.7301 173.328 97.9968 173.488C98.2741 173.648 98.5835 173.728 98.9248 173.728ZM109.586 176.144C108.636 176.144 107.794 175.952 107.058 175.568C106.322 175.184 105.74 174.656 105.314 173.984C104.898 173.301 104.69 172.523 104.69 171.648C104.69 170.773 104.898 170 105.314 169.328C105.74 168.656 106.322 168.133 107.058 167.76C107.794 167.376 108.636 167.184 109.586 167.184C110.535 167.184 111.378 167.376 112.114 167.76C112.86 168.133 113.442 168.656 113.858 169.328C114.274 170 114.482 170.773 114.482 171.648C114.482 172.523 114.274 173.301 113.858 173.984C113.442 174.656 112.86 175.184 112.114 175.568C111.378 175.952 110.535 176.144 109.586 176.144ZM109.586 173.728C109.938 173.728 110.247 173.648 110.514 173.488C110.791 173.328 111.01 173.093 111.17 172.784C111.33 172.464 111.41 172.085 111.41 171.648C111.41 171.211 111.33 170.843 111.17 170.544C111.01 170.235 110.791 170 110.514 169.84C110.247 169.68 109.938 169.6 109.586 169.6C109.244 169.6 108.935 169.68 108.658 169.84C108.391 170 108.172 170.235 108.002 170.544C107.842 170.843 107.762 171.211 107.762 171.648C107.762 172.085 107.842 172.464 108.002 172.784C108.172 173.093 108.391 173.328 108.658 173.488C108.935 173.648 109.244 173.728 109.586 173.728ZM115.89 176V167.328H118.786V169.856L118.354 169.136C118.61 168.485 119.026 168 119.602 167.68C120.178 167.349 120.877 167.184 121.698 167.184V169.92C121.559 169.899 121.437 169.888 121.33 169.888C121.234 169.877 121.127 169.872 121.01 169.872C120.391 169.872 119.89 170.043 119.506 170.384C119.122 170.715 118.93 171.259 118.93 172.016V176H115.89ZM131.416 176.144C130.627 176.144 129.907 175.963 129.256 175.6C128.616 175.227 128.104 174.709 127.72 174.048C127.336 173.376 127.144 172.576 127.144 171.648C127.144 170.731 127.336 169.941 127.72 169.28C128.104 168.608 128.616 168.091 129.256 167.728C129.907 167.365 130.627 167.184 131.416 167.184C132.163 167.184 132.792 167.344 133.304 167.664C133.827 167.984 134.221 168.475 134.488 169.136C134.755 169.797 134.888 170.635 134.888 171.648C134.888 172.683 134.76 173.531 134.504 174.192C134.248 174.853 133.864 175.344 133.352 175.664C132.84 175.984 132.195 176.144 131.416 176.144ZM132.056 173.728C132.397 173.728 132.701 173.648 132.968 173.488C133.245 173.328 133.464 173.093 133.624 172.784C133.784 172.464 133.864 172.085 133.864 171.648C133.864 171.211 133.784 170.843 133.624 170.544C133.464 170.235 133.245 170 132.968 169.84C132.701 169.68 132.397 169.6 132.056 169.6C131.704 169.6 131.389 169.68 131.112 169.84C130.845 170 130.632 170.235 130.472 170.544C130.312 170.843 130.232 171.211 130.232 171.648C130.232 172.085 130.312 172.464 130.472 172.784C130.632 173.093 130.845 173.328 131.112 173.488C131.389 173.648 131.704 173.728 132.056 173.728ZM133.96 176V174.512L133.976 171.648L133.816 168.784V164.128H136.856V176H133.96ZM143.356 176.144C142.332 176.144 141.436 175.952 140.668 175.568C139.911 175.173 139.319 174.64 138.892 173.968C138.476 173.285 138.268 172.512 138.268 171.648C138.268 170.784 138.471 170.016 138.876 169.344C139.292 168.661 139.863 168.133 140.588 167.76C141.313 167.376 142.129 167.184 143.036 167.184C143.889 167.184 144.668 167.36 145.372 167.712C146.076 168.053 146.636 168.56 147.052 169.232C147.468 169.904 147.676 170.72 147.676 171.68C147.676 171.787 147.671 171.909 147.66 172.048C147.649 172.187 147.639 172.315 147.628 172.432H140.764V170.832H146.012L144.86 171.28C144.871 170.885 144.796 170.544 144.636 170.256C144.487 169.968 144.273 169.744 143.996 169.584C143.729 169.424 143.415 169.344 143.052 169.344C142.689 169.344 142.369 169.424 142.092 169.584C141.825 169.744 141.617 169.973 141.468 170.272C141.319 170.56 141.244 170.901 141.244 171.296V171.76C141.244 172.187 141.329 172.555 141.5 172.864C141.681 173.173 141.937 173.413 142.268 173.584C142.599 173.744 142.993 173.824 143.452 173.824C143.879 173.824 144.241 173.765 144.54 173.648C144.849 173.52 145.153 173.328 145.452 173.072L147.052 174.736C146.636 175.195 146.124 175.547 145.516 175.792C144.908 176.027 144.188 176.144 143.356 176.144ZM160.374 167.184C161.046 167.184 161.643 167.323 162.166 167.6C162.699 167.867 163.115 168.283 163.414 168.848C163.723 169.413 163.878 170.144 163.878 171.04V176H160.838V171.536C160.838 170.917 160.72 170.469 160.486 170.192C160.251 169.904 159.931 169.76 159.526 169.76C159.238 169.76 158.976 169.829 158.742 169.968C158.507 170.107 158.326 170.32 158.198 170.608C158.07 170.885 158.006 171.248 158.006 171.696V176H154.966V171.536C154.966 170.917 154.848 170.469 154.614 170.192C154.39 169.904 154.07 169.76 153.654 169.76C153.355 169.76 153.088 169.829 152.854 169.968C152.63 170.107 152.448 170.32 152.31 170.608C152.182 170.885 152.118 171.248 152.118 171.696V176H149.078V167.328H151.974V169.744L151.398 169.056C151.718 168.437 152.155 167.973 152.71 167.664C153.264 167.344 153.883 167.184 154.566 167.184C155.344 167.184 156.027 167.387 156.614 167.792C157.211 168.187 157.611 168.805 157.814 169.648L156.822 169.44C157.131 168.736 157.595 168.187 158.214 167.792C158.843 167.387 159.563 167.184 160.374 167.184ZM171.092 176V174.384L170.884 173.984V171.008C170.884 170.528 170.735 170.16 170.436 169.904C170.148 169.637 169.684 169.504 169.044 169.504C168.628 169.504 168.207 169.573 167.78 169.712C167.354 169.84 166.991 170.021 166.692 170.256L165.668 168.192C166.159 167.872 166.746 167.627 167.428 167.456C168.122 167.275 168.81 167.184 169.492 167.184C170.9 167.184 171.988 167.509 172.756 168.16C173.535 168.8 173.924 169.808 173.924 171.184V176H171.092ZM168.532 176.144C167.839 176.144 167.252 176.027 166.772 175.792C166.292 175.557 165.924 175.237 165.668 174.832C165.423 174.427 165.3 173.973 165.3 173.472C165.3 172.939 165.434 172.48 165.7 172.096C165.978 171.701 166.399 171.403 166.964 171.2C167.53 170.987 168.26 170.88 169.156 170.88H171.204V172.464H169.572C169.082 172.464 168.735 172.544 168.532 172.704C168.34 172.864 168.244 173.077 168.244 173.344C168.244 173.611 168.346 173.824 168.548 173.984C168.751 174.144 169.028 174.224 169.38 174.224C169.711 174.224 170.01 174.144 170.276 173.984C170.554 173.813 170.756 173.557 170.884 173.216L171.3 174.336C171.14 174.933 170.826 175.387 170.356 175.696C169.898 175.995 169.29 176.144 168.532 176.144ZM181.491 167.184C182.163 167.184 182.771 167.323 183.315 167.6C183.859 167.867 184.286 168.283 184.595 168.848C184.915 169.413 185.075 170.144 185.075 171.04V176H182.035V171.536C182.035 170.917 181.907 170.469 181.651 170.192C181.406 169.904 181.059 169.76 180.611 169.76C180.291 169.76 179.998 169.835 179.731 169.984C179.465 170.123 179.257 170.341 179.107 170.64C178.958 170.939 178.883 171.328 178.883 171.808V176H175.843V167.328H178.739V169.792L178.179 169.072C178.51 168.443 178.963 167.973 179.539 167.664C180.115 167.344 180.766 167.184 181.491 167.184ZM190.869 176.144C190.08 176.144 189.36 175.963 188.709 175.6C188.069 175.227 187.557 174.709 187.173 174.048C186.789 173.376 186.597 172.576 186.597 171.648C186.597 170.731 186.789 169.941 187.173 169.28C187.557 168.608 188.069 168.091 188.709 167.728C189.36 167.365 190.08 167.184 190.869 167.184C191.616 167.184 192.245 167.344 192.757 167.664C193.28 167.984 193.675 168.475 193.941 169.136C194.208 169.797 194.341 170.635 194.341 171.648C194.341 172.683 194.213 173.531 193.957 174.192C193.701 174.853 193.317 175.344 192.805 175.664C192.293 175.984 191.648 176.144 190.869 176.144ZM191.509 173.728C191.851 173.728 192.155 173.648 192.421 173.488C192.699 173.328 192.917 173.093 193.077 172.784C193.237 172.464 193.317 172.085 193.317 171.648C193.317 171.211 193.237 170.843 193.077 170.544C192.917 170.235 192.699 170 192.421 169.84C192.155 169.68 191.851 169.6 191.509 169.6C191.157 169.6 190.843 169.68 190.565 169.84C190.299 170 190.085 170.235 189.925 170.544C189.765 170.843 189.685 171.211 189.685 171.648C189.685 172.085 189.765 172.464 189.925 172.784C190.085 173.093 190.299 173.328 190.565 173.488C190.843 173.648 191.157 173.728 191.509 173.728ZM193.413 176V174.512L193.429 171.648L193.269 168.784V164.128H196.309V176H193.413ZM203.561 176V174.384L203.353 173.984V171.008C203.353 170.528 203.204 170.16 202.905 169.904C202.617 169.637 202.153 169.504 201.513 169.504C201.097 169.504 200.676 169.573 200.249 169.712C199.822 169.84 199.46 170.021 199.161 170.256L198.137 168.192C198.628 167.872 199.214 167.627 199.897 167.456C200.59 167.275 201.278 167.184 201.961 167.184C203.369 167.184 204.457 167.509 205.225 168.16C206.004 168.8 206.393 169.808 206.393 171.184V176H203.561ZM201.001 176.144C200.308 176.144 199.721 176.027 199.241 175.792C198.761 175.557 198.393 175.237 198.137 174.832C197.892 174.427 197.769 173.973 197.769 173.472C197.769 172.939 197.902 172.48 198.169 172.096C198.446 171.701 198.868 171.403 199.433 171.2C199.998 170.987 200.729 170.88 201.625 170.88H203.673V172.464H202.041C201.55 172.464 201.204 172.544 201.001 172.704C200.809 172.864 200.713 173.077 200.713 173.344C200.713 173.611 200.814 173.824 201.017 173.984C201.22 174.144 201.497 174.224 201.849 174.224C202.18 174.224 202.478 174.144 202.745 173.984C203.022 173.813 203.225 173.557 203.353 173.216L203.769 174.336C203.609 174.933 203.294 175.387 202.825 175.696C202.366 175.995 201.758 176.144 201.001 176.144ZM209.592 170.784C209.08 170.784 208.648 170.613 208.296 170.272C207.944 169.931 207.768 169.499 207.768 168.976C207.768 168.432 207.944 168 208.296 167.68C208.648 167.349 209.08 167.184 209.592 167.184C210.104 167.184 210.536 167.349 210.888 167.68C211.24 168 211.416 168.432 211.416 168.976C211.416 169.499 211.24 169.931 210.888 170.272C210.536 170.613 210.104 170.784 209.592 170.784ZM209.592 176.144C209.08 176.144 208.648 175.973 208.296 175.632C207.944 175.291 207.768 174.859 207.768 174.336C207.768 173.792 207.944 173.36 208.296 173.04C208.648 172.709 209.08 172.544 209.592 172.544C210.104 172.544 210.536 172.709 210.888 173.04C211.24 173.36 211.416 173.792 211.416 174.336C211.416 174.859 211.24 175.291 210.888 175.632C210.536 175.973 210.104 176.144 209.592 176.144Z" fill="#212121"/>
<path d="M48.3929 206V196.2H52.3829C53.4282 196.2 54.3429 196.41 55.1269 196.83C55.9202 197.241 56.5362 197.815 56.9749 198.552C57.4135 199.289 57.6329 200.139 57.6329 201.1C57.6329 202.061 57.4135 202.911 56.9749 203.648C56.5362 204.385 55.9202 204.964 55.1269 205.384C54.3429 205.795 53.4282 206 52.3829 206H48.3929ZM49.4289 205.104H52.3269C53.1949 205.104 53.9462 204.936 54.5809 204.6C55.2249 204.255 55.7242 203.783 56.0789 203.186C56.4335 202.579 56.6109 201.884 56.6109 201.1C56.6109 200.307 56.4335 199.611 56.0789 199.014C55.7242 198.417 55.2249 197.95 54.5809 197.614C53.9462 197.269 53.1949 197.096 52.3269 197.096H49.4289V205.104ZM62.8713 206.07C62.1059 206.07 61.4339 205.911 60.8553 205.594C60.2766 205.267 59.8239 204.824 59.4973 204.264C59.1706 203.695 59.0073 203.046 59.0073 202.318C59.0073 201.59 59.1613 200.946 59.4693 200.386C59.7866 199.826 60.2159 199.387 60.7573 199.07C61.3079 198.743 61.9239 198.58 62.6053 198.58C63.2959 198.58 63.9073 198.739 64.4393 199.056C64.9806 199.364 65.4053 199.803 65.7133 200.372C66.0213 200.932 66.1753 201.581 66.1753 202.318C66.1753 202.365 66.1706 202.416 66.1613 202.472C66.1613 202.519 66.1613 202.57 66.1613 202.626H59.7633V201.884H65.6293L65.2373 202.178C65.2373 201.646 65.1206 201.175 64.8873 200.764C64.6633 200.344 64.3553 200.017 63.9633 199.784C63.5713 199.551 63.1186 199.434 62.6053 199.434C62.1013 199.434 61.6486 199.551 61.2473 199.784C60.8459 200.017 60.5333 200.344 60.3093 200.764C60.0853 201.184 59.9733 201.665 59.9733 202.206V202.36C59.9733 202.92 60.0946 203.415 60.3373 203.844C60.5893 204.264 60.9346 204.595 61.3733 204.838C61.8213 205.071 62.3299 205.188 62.8993 205.188C63.3473 205.188 63.7626 205.109 64.1453 204.95C64.5373 204.791 64.8733 204.549 65.1533 204.222L65.7133 204.866C65.3866 205.258 64.9759 205.557 64.4813 205.762C63.9959 205.967 63.4593 206.07 62.8713 206.07ZM70.1725 206.07C69.5658 206.07 68.9918 205.986 68.4505 205.818C67.9092 205.641 67.4845 205.421 67.1765 205.16L67.6245 204.376C67.9232 204.6 68.3058 204.796 68.7725 204.964C69.2392 205.123 69.7292 205.202 70.2425 205.202C70.9425 205.202 71.4465 205.095 71.7545 204.88C72.0625 204.656 72.2165 204.362 72.2165 203.998C72.2165 203.727 72.1278 203.517 71.9505 203.368C71.7825 203.209 71.5585 203.093 71.2785 203.018C70.9985 202.934 70.6858 202.864 70.3405 202.808C69.9952 202.752 69.6498 202.687 69.3045 202.612C68.9685 202.537 68.6605 202.43 68.3805 202.29C68.1005 202.141 67.8718 201.94 67.6945 201.688C67.5265 201.436 67.4425 201.1 67.4425 200.68C67.4425 200.279 67.5545 199.919 67.7785 199.602C68.0025 199.285 68.3292 199.037 68.7585 198.86C69.1972 198.673 69.7292 198.58 70.3545 198.58C70.8305 198.58 71.3065 198.645 71.7825 198.776C72.2585 198.897 72.6505 199.061 72.9585 199.266L72.5245 200.064C72.1978 199.84 71.8478 199.681 71.4745 199.588C71.1012 199.485 70.7278 199.434 70.3545 199.434C69.6918 199.434 69.2018 199.551 68.8845 199.784C68.5765 200.008 68.4225 200.297 68.4225 200.652C68.4225 200.932 68.5065 201.151 68.6745 201.31C68.8518 201.469 69.0805 201.595 69.3605 201.688C69.6498 201.772 69.9625 201.842 70.2985 201.898C70.6438 201.954 70.9845 202.024 71.3205 202.108C71.6658 202.183 71.9785 202.29 72.2585 202.43C72.5478 202.561 72.7765 202.752 72.9445 203.004C73.1218 203.247 73.2105 203.569 73.2105 203.97C73.2105 204.399 73.0892 204.773 72.8465 205.09C72.6132 205.398 72.2678 205.641 71.8105 205.818C71.3625 205.986 70.8165 206.07 70.1725 206.07ZM78.1564 206.07C77.3911 206.07 76.7191 205.911 76.1404 205.594C75.5618 205.267 75.1091 204.824 74.7824 204.264C74.4558 203.695 74.2924 203.046 74.2924 202.318C74.2924 201.59 74.4464 200.946 74.7544 200.386C75.0718 199.826 75.5011 199.387 76.0424 199.07C76.5931 198.743 77.2091 198.58 77.8904 198.58C78.5811 198.58 79.1924 198.739 79.7244 199.056C80.2658 199.364 80.6904 199.803 80.9984 200.372C81.3064 200.932 81.4604 201.581 81.4604 202.318C81.4604 202.365 81.4558 202.416 81.4464 202.472C81.4464 202.519 81.4464 202.57 81.4464 202.626H75.0484V201.884H80.9144L80.5224 202.178C80.5224 201.646 80.4058 201.175 80.1724 200.764C79.9484 200.344 79.6404 200.017 79.2484 199.784C78.8564 199.551 78.4038 199.434 77.8904 199.434C77.3864 199.434 76.9338 199.551 76.5324 199.784C76.1311 200.017 75.8184 200.344 75.5944 200.764C75.3704 201.184 75.2584 201.665 75.2584 202.206V202.36C75.2584 202.92 75.3798 203.415 75.6224 203.844C75.8744 204.264 76.2198 204.595 76.6584 204.838C77.1064 205.071 77.6151 205.188 78.1844 205.188C78.6324 205.188 79.0478 205.109 79.4304 204.95C79.8224 204.791 80.1584 204.549 80.4384 204.222L80.9984 204.866C80.6718 205.258 80.2611 205.557 79.7664 205.762C79.2811 205.967 78.7444 206.07 78.1564 206.07ZM87.2357 198.58C87.833 198.58 88.3557 198.697 88.8037 198.93C89.261 199.154 89.6157 199.499 89.8677 199.966C90.129 200.433 90.2597 201.021 90.2597 201.73V206H89.2657V201.828C89.2657 201.053 89.0697 200.47 88.6777 200.078C88.295 199.677 87.7537 199.476 87.0537 199.476C86.531 199.476 86.0737 199.583 85.6817 199.798C85.299 200.003 85.0003 200.307 84.7857 200.708C84.5803 201.1 84.4777 201.576 84.4777 202.136V206H83.4837V198.65H84.4357V200.666L84.2817 200.288C84.515 199.756 84.8883 199.341 85.4017 199.042C85.915 198.734 86.5263 198.58 87.2357 198.58ZM94.6979 206L91.4359 198.65H92.4719L95.4679 205.468H94.9779L98.0159 198.65H98.9959L95.7199 206H94.6979ZM103.187 206.07C102.477 206.07 101.838 205.911 101.269 205.594C100.709 205.267 100.265 204.824 99.9387 204.264C99.612 203.695 99.4487 203.046 99.4487 202.318C99.4487 201.581 99.612 200.932 99.9387 200.372C100.265 199.812 100.709 199.373 101.269 199.056C101.829 198.739 102.468 198.58 103.187 198.58C103.915 198.58 104.559 198.739 105.119 199.056C105.688 199.373 106.131 199.812 106.449 200.372C106.775 200.932 106.939 201.581 106.939 202.318C106.939 203.046 106.775 203.695 106.449 204.264C106.131 204.824 105.688 205.267 105.119 205.594C104.549 205.911 103.905 206.07 103.187 206.07ZM103.187 205.188C103.719 205.188 104.19 205.071 104.601 204.838C105.011 204.595 105.333 204.259 105.567 203.83C105.809 203.391 105.931 202.887 105.931 202.318C105.931 201.739 105.809 201.235 105.567 200.806C105.333 200.377 105.011 200.045 104.601 199.812C104.19 199.569 103.723 199.448 103.201 199.448C102.678 199.448 102.211 199.569 101.801 199.812C101.39 200.045 101.063 200.377 100.821 200.806C100.578 201.235 100.457 201.739 100.457 202.318C100.457 202.887 100.578 203.391 100.821 203.83C101.063 204.259 101.39 204.595 101.801 204.838C102.211 205.071 102.673 205.188 103.187 205.188ZM108.968 206V195.612H109.962V206H108.968ZM114.618 206L111.356 198.65H112.392L115.388 205.468H114.898L117.936 198.65H118.916L115.64 206H114.618ZM123.233 206.07C122.467 206.07 121.795 205.911 121.217 205.594C120.638 205.267 120.185 204.824 119.859 204.264C119.532 203.695 119.369 203.046 119.369 202.318C119.369 201.59 119.523 200.946 119.831 200.386C120.148 199.826 120.577 199.387 121.119 199.07C121.669 198.743 122.285 198.58 122.967 198.58C123.657 198.58 124.269 198.739 124.801 199.056C125.342 199.364 125.767 199.803 126.075 200.372C126.383 200.932 126.537 201.581 126.537 202.318C126.537 202.365 126.532 202.416 126.523 202.472C126.523 202.519 126.523 202.57 126.523 202.626H120.125V201.884H125.991L125.599 202.178C125.599 201.646 125.482 201.175 125.249 200.764C125.025 200.344 124.717 200.017 124.325 199.784C123.933 199.551 123.48 199.434 122.967 199.434C122.463 199.434 122.01 199.551 121.609 199.784C121.207 200.017 120.895 200.344 120.671 200.764C120.447 201.184 120.335 201.665 120.335 202.206V202.36C120.335 202.92 120.456 203.415 120.699 203.844C120.951 204.264 121.296 204.595 121.735 204.838C122.183 205.071 122.691 205.188 123.261 205.188C123.709 205.188 124.124 205.109 124.507 204.95C124.899 204.791 125.235 204.549 125.515 204.222L126.075 204.866C125.748 205.258 125.337 205.557 124.843 205.762C124.357 205.967 123.821 206.07 123.233 206.07ZM137.744 198.58C138.341 198.58 138.859 198.697 139.298 198.93C139.746 199.154 140.091 199.499 140.334 199.966C140.586 200.433 140.712 201.021 140.712 201.73V206H139.718V201.828C139.718 201.053 139.531 200.47 139.158 200.078C138.794 199.677 138.276 199.476 137.604 199.476C137.1 199.476 136.661 199.583 136.288 199.798C135.924 200.003 135.639 200.307 135.434 200.708C135.238 201.1 135.14 201.576 135.14 202.136V206H134.146V201.828C134.146 201.053 133.959 200.47 133.586 200.078C133.212 199.677 132.69 199.476 132.018 199.476C131.523 199.476 131.089 199.583 130.716 199.798C130.342 200.003 130.053 200.307 129.848 200.708C129.652 201.1 129.554 201.576 129.554 202.136V206H128.56V198.65H129.512V200.638L129.358 200.288C129.582 199.756 129.941 199.341 130.436 199.042C130.94 198.734 131.532 198.58 132.214 198.58C132.932 198.58 133.544 198.762 134.048 199.126C134.552 199.481 134.878 200.017 135.028 200.736L134.636 200.582C134.85 199.985 135.228 199.504 135.77 199.14C136.32 198.767 136.978 198.58 137.744 198.58ZM146.403 206.07C145.694 206.07 145.055 205.911 144.485 205.594C143.925 205.267 143.482 204.824 143.155 204.264C142.829 203.695 142.665 203.046 142.665 202.318C142.665 201.581 142.829 200.932 143.155 200.372C143.482 199.812 143.925 199.373 144.485 199.056C145.045 198.739 145.685 198.58 146.403 198.58C147.131 198.58 147.775 198.739 148.335 199.056C148.905 199.373 149.348 199.812 149.665 200.372C149.992 200.932 150.155 201.581 150.155 202.318C150.155 203.046 149.992 203.695 149.665 204.264C149.348 204.824 148.905 205.267 148.335 205.594C147.766 205.911 147.122 206.07 146.403 206.07ZM146.403 205.188C146.935 205.188 147.407 205.071 147.817 204.838C148.228 204.595 148.55 204.259 148.783 203.83C149.026 203.391 149.147 202.887 149.147 202.318C149.147 201.739 149.026 201.235 148.783 200.806C148.55 200.377 148.228 200.045 147.817 199.812C147.407 199.569 146.94 199.448 146.417 199.448C145.895 199.448 145.428 199.569 145.017 199.812C144.607 200.045 144.28 200.377 144.037 200.806C143.795 201.235 143.673 201.739 143.673 202.318C143.673 202.887 143.795 203.391 144.037 203.83C144.28 204.259 144.607 204.595 145.017 204.838C145.428 205.071 145.89 205.188 146.403 205.188ZM154.159 206.07C153.552 206.07 152.978 205.986 152.437 205.818C151.895 205.641 151.471 205.421 151.163 205.16L151.611 204.376C151.909 204.6 152.292 204.796 152.759 204.964C153.225 205.123 153.715 205.202 154.229 205.202C154.929 205.202 155.433 205.095 155.741 204.88C156.049 204.656 156.203 204.362 156.203 203.998C156.203 203.727 156.114 203.517 155.937 203.368C155.769 203.209 155.545 203.093 155.265 203.018C154.985 202.934 154.672 202.864 154.327 202.808C153.981 202.752 153.636 202.687 153.291 202.612C152.955 202.537 152.647 202.43 152.367 202.29C152.087 202.141 151.858 201.94 151.681 201.688C151.513 201.436 151.429 201.1 151.429 200.68C151.429 200.279 151.541 199.919 151.765 199.602C151.989 199.285 152.315 199.037 152.745 198.86C153.183 198.673 153.715 198.58 154.341 198.58C154.817 198.58 155.293 198.645 155.769 198.776C156.245 198.897 156.637 199.061 156.945 199.266L156.511 200.064C156.184 199.84 155.834 199.681 155.461 199.588C155.087 199.485 154.714 199.434 154.341 199.434C153.678 199.434 153.188 199.551 152.871 199.784C152.563 200.008 152.409 200.297 152.409 200.652C152.409 200.932 152.493 201.151 152.661 201.31C152.838 201.469 153.067 201.595 153.347 201.688C153.636 201.772 153.949 201.842 154.285 201.898C154.63 201.954 154.971 202.024 155.307 202.108C155.652 202.183 155.965 202.29 156.245 202.43C156.534 202.561 156.763 202.752 156.931 203.004C157.108 203.247 157.197 203.569 157.197 203.97C157.197 204.399 157.075 204.773 156.833 205.09C156.599 205.398 156.254 205.641 155.797 205.818C155.349 205.986 154.803 206.07 154.159 206.07ZM165.807 206.07C165.041 206.07 164.369 205.911 163.791 205.594C163.212 205.267 162.759 204.824 162.433 204.264C162.106 203.695 161.943 203.046 161.943 202.318C161.943 201.59 162.097 200.946 162.405 200.386C162.722 199.826 163.151 199.387 163.693 199.07C164.243 198.743 164.859 198.58 165.541 198.58C166.231 198.58 166.843 198.739 167.375 199.056C167.916 199.364 168.341 199.803 168.649 200.372C168.957 200.932 169.111 201.581 169.111 202.318C169.111 202.365 169.106 202.416 169.097 202.472C169.097 202.519 169.097 202.57 169.097 202.626H162.699V201.884H168.565L168.173 202.178C168.173 201.646 168.056 201.175 167.823 200.764C167.599 200.344 167.291 200.017 166.899 199.784C166.507 199.551 166.054 199.434 165.541 199.434C165.037 199.434 164.584 199.551 164.183 199.784C163.781 200.017 163.469 200.344 163.245 200.764C163.021 201.184 162.909 201.665 162.909 202.206V202.36C162.909 202.92 163.03 203.415 163.273 203.844C163.525 204.264 163.87 204.595 164.309 204.838C164.757 205.071 165.265 205.188 165.835 205.188C166.283 205.188 166.698 205.109 167.081 204.95C167.473 204.791 167.809 204.549 168.089 204.222L168.649 204.866C168.322 205.258 167.911 205.557 167.417 205.762C166.931 205.967 166.395 206.07 165.807 206.07ZM177.92 206.07C177.155 206.07 176.483 205.911 175.904 205.594C175.325 205.267 174.873 204.824 174.546 204.264C174.219 203.695 174.056 203.046 174.056 202.318C174.056 201.59 174.21 200.946 174.518 200.386C174.835 199.826 175.265 199.387 175.806 199.07C176.357 198.743 176.973 198.58 177.654 198.58C178.345 198.58 178.956 198.739 179.488 199.056C180.029 199.364 180.454 199.803 180.762 200.372C181.07 200.932 181.224 201.581 181.224 202.318C181.224 202.365 181.219 202.416 181.21 202.472C181.21 202.519 181.21 202.57 181.21 202.626H174.812V201.884H180.678L180.286 202.178C180.286 201.646 180.169 201.175 179.936 200.764C179.712 200.344 179.404 200.017 179.012 199.784C178.62 199.551 178.167 199.434 177.654 199.434C177.15 199.434 176.697 199.551 176.296 199.784C175.895 200.017 175.582 200.344 175.358 200.764C175.134 201.184 175.022 201.665 175.022 202.206V202.36C175.022 202.92 175.143 203.415 175.386 203.844C175.638 204.264 175.983 204.595 176.422 204.838C176.87 205.071 177.379 205.188 177.948 205.188C178.396 205.188 178.811 205.109 179.194 204.95C179.586 204.791 179.922 204.549 180.202 204.222L180.762 204.866C180.435 205.258 180.025 205.557 179.53 205.762C179.045 205.967 178.508 206.07 177.92 206.07ZM186.999 198.58C187.597 198.58 188.119 198.697 188.567 198.93C189.025 199.154 189.379 199.499 189.631 199.966C189.893 200.433 190.023 201.021 190.023 201.73V206H189.029V201.828C189.029 201.053 188.833 200.47 188.441 200.078C188.059 199.677 187.517 199.476 186.817 199.476C186.295 199.476 185.837 199.583 185.445 199.798C185.063 200.003 184.764 200.307 184.549 200.708C184.344 201.1 184.241 201.576 184.241 202.136V206H183.247V198.65H184.199V200.666L184.045 200.288C184.279 199.756 184.652 199.341 185.165 199.042C185.679 198.734 186.29 198.58 186.999 198.58ZM195.032 206.07C194.342 206.07 193.81 205.883 193.436 205.51C193.063 205.137 192.876 204.609 192.876 203.928V197.026H193.87V203.872C193.87 204.301 193.978 204.633 194.192 204.866C194.416 205.099 194.734 205.216 195.144 205.216C195.583 205.216 195.947 205.09 196.236 204.838L196.586 205.552C196.39 205.729 196.152 205.86 195.872 205.944C195.602 206.028 195.322 206.07 195.032 206.07ZM191.56 199.476V198.65H196.11V199.476H191.56ZM198.396 206V198.65H199.348V200.652L199.25 200.302C199.455 199.742 199.8 199.317 200.286 199.028C200.771 198.729 201.373 198.58 202.092 198.58V199.546C202.054 199.546 202.017 199.546 201.98 199.546C201.942 199.537 201.905 199.532 201.868 199.532C201.093 199.532 200.486 199.77 200.048 200.246C199.609 200.713 199.39 201.38 199.39 202.248V206H198.396ZM206.959 206.07C206.194 206.07 205.522 205.911 204.943 205.594C204.365 205.267 203.912 204.824 203.585 204.264C203.259 203.695 203.095 203.046 203.095 202.318C203.095 201.59 203.249 200.946 203.557 200.386C203.875 199.826 204.304 199.387 204.845 199.07C205.396 198.743 206.012 198.58 206.693 198.58C207.384 198.58 207.995 198.739 208.527 199.056C209.069 199.364 209.493 199.803 209.801 200.372C210.109 200.932 210.263 201.581 210.263 202.318C210.263 202.365 210.259 202.416 210.249 202.472C210.249 202.519 210.249 202.57 210.249 202.626H203.851V201.884H209.717L209.325 202.178C209.325 201.646 209.209 201.175 208.975 200.764C208.751 200.344 208.443 200.017 208.051 199.784C207.659 199.551 207.207 199.434 206.693 199.434C206.189 199.434 205.737 199.551 205.335 199.784C204.934 200.017 204.621 200.344 204.397 200.764C204.173 201.184 204.061 201.665 204.061 202.206V202.36C204.061 202.92 204.183 203.415 204.425 203.844C204.677 204.264 205.023 204.595 205.461 204.838C205.909 205.071 206.418 205.188 206.987 205.188C207.435 205.188 207.851 205.109 208.233 204.95C208.625 204.791 208.961 204.549 209.241 204.222L209.801 204.866C209.475 205.258 209.064 205.557 208.569 205.762C208.084 205.967 207.547 206.07 206.959 206.07ZM215.422 208.786C214.75 208.786 214.106 208.688 213.49 208.492C212.874 208.296 212.375 208.016 211.992 207.652L212.496 206.896C212.842 207.204 213.266 207.447 213.77 207.624C214.284 207.811 214.825 207.904 215.394 207.904C216.328 207.904 217.014 207.685 217.452 207.246C217.891 206.817 218.11 206.145 218.11 205.23V203.396L218.25 202.136L218.152 200.876V198.65H219.104V205.104C219.104 206.373 218.792 207.302 218.166 207.89C217.55 208.487 216.636 208.786 215.422 208.786ZM215.24 205.72C214.54 205.72 213.91 205.571 213.35 205.272C212.79 204.964 212.347 204.539 212.02 203.998C211.703 203.457 211.544 202.836 211.544 202.136C211.544 201.436 211.703 200.82 212.02 200.288C212.347 199.747 212.79 199.327 213.35 199.028C213.91 198.729 214.54 198.58 215.24 198.58C215.894 198.58 216.482 198.715 217.004 198.986C217.527 199.257 217.942 199.658 218.25 200.19C218.558 200.722 218.712 201.371 218.712 202.136C218.712 202.901 218.558 203.55 218.25 204.082C217.942 204.614 217.527 205.02 217.004 205.3C216.482 205.58 215.894 205.72 215.24 205.72ZM215.338 204.838C215.88 204.838 216.36 204.726 216.78 204.502C217.2 204.269 217.532 203.951 217.774 203.55C218.017 203.139 218.138 202.668 218.138 202.136C218.138 201.604 218.017 201.137 217.774 200.736C217.532 200.335 217.2 200.022 216.78 199.798C216.36 199.565 215.88 199.448 215.338 199.448C214.806 199.448 214.326 199.565 213.896 199.798C213.476 200.022 213.145 200.335 212.902 200.736C212.669 201.137 212.552 201.604 212.552 202.136C212.552 202.668 212.669 203.139 212.902 203.55C213.145 203.951 213.476 204.269 213.896 204.502C214.326 204.726 214.806 204.838 215.338 204.838ZM226.476 206V204.376L226.434 204.11V201.394C226.434 200.769 226.257 200.288 225.902 199.952C225.557 199.616 225.039 199.448 224.348 199.448C223.872 199.448 223.42 199.527 222.99 199.686C222.561 199.845 222.197 200.055 221.898 200.316L221.45 199.574C221.824 199.257 222.272 199.014 222.794 198.846C223.317 198.669 223.868 198.58 224.446 198.58C225.398 198.58 226.131 198.818 226.644 199.294C227.167 199.761 227.428 200.475 227.428 201.436V206H226.476ZM223.942 206.07C223.392 206.07 222.911 205.981 222.5 205.804C222.099 205.617 221.791 205.365 221.576 205.048C221.362 204.721 221.254 204.348 221.254 203.928C221.254 203.545 221.343 203.2 221.52 202.892C221.707 202.575 222.006 202.323 222.416 202.136C222.836 201.94 223.396 201.842 224.096 201.842H226.63V202.584H224.124C223.415 202.584 222.92 202.71 222.64 202.962C222.37 203.214 222.234 203.527 222.234 203.9C222.234 204.32 222.398 204.656 222.724 204.908C223.051 205.16 223.508 205.286 224.096 205.286C224.656 205.286 225.137 205.16 225.538 204.908C225.949 204.647 226.248 204.273 226.434 203.788L226.658 204.474C226.472 204.959 226.145 205.347 225.678 205.636C225.221 205.925 224.642 206.07 223.942 206.07ZM239.312 198.58C239.91 198.58 240.428 198.697 240.866 198.93C241.314 199.154 241.66 199.499 241.902 199.966C242.154 200.433 242.28 201.021 242.28 201.73V206H241.286V201.828C241.286 201.053 241.1 200.47 240.726 200.078C240.362 199.677 239.844 199.476 239.172 199.476C238.668 199.476 238.23 199.583 237.856 199.798C237.492 200.003 237.208 200.307 237.002 200.708C236.806 201.1 236.708 201.576 236.708 202.136V206H235.714V201.828C235.714 201.053 235.528 200.47 235.154 200.078C234.781 199.677 234.258 199.476 233.586 199.476C233.092 199.476 232.658 199.583 232.284 199.798C231.911 200.003 231.622 200.307 231.416 200.708C231.22 201.1 231.122 201.576 231.122 202.136V206H230.128V198.65H231.08V200.638L230.926 200.288C231.15 199.756 231.51 199.341 232.004 199.042C232.508 198.734 233.101 198.58 233.782 198.58C234.501 198.58 235.112 198.762 235.616 199.126C236.12 199.481 236.447 200.017 236.596 200.736L236.204 200.582C236.419 199.985 236.797 199.504 237.338 199.14C237.889 198.767 238.547 198.58 239.312 198.58ZM247.972 206.07C247.263 206.07 246.623 205.911 246.054 205.594C245.494 205.267 245.051 204.824 244.724 204.264C244.397 203.695 244.234 203.046 244.234 202.318C244.234 201.581 244.397 200.932 244.724 200.372C245.051 199.812 245.494 199.373 246.054 199.056C246.614 198.739 247.253 198.58 247.972 198.58C248.7 198.58 249.344 198.739 249.904 199.056C250.473 199.373 250.917 199.812 251.234 200.372C251.561 200.932 251.724 201.581 251.724 202.318C251.724 203.046 251.561 203.695 251.234 204.264C250.917 204.824 250.473 205.267 249.904 205.594C249.335 205.911 248.691 206.07 247.972 206.07ZM247.972 205.188C248.504 205.188 248.975 205.071 249.386 204.838C249.797 204.595 250.119 204.259 250.352 203.83C250.595 203.391 250.716 202.887 250.716 202.318C250.716 201.739 250.595 201.235 250.352 200.806C250.119 200.377 249.797 200.045 249.386 199.812C248.975 199.569 248.509 199.448 247.986 199.448C247.463 199.448 246.997 199.569 246.586 199.812C246.175 200.045 245.849 200.377 245.606 200.806C245.363 201.235 245.242 201.739 245.242 202.318C245.242 202.887 245.363 203.391 245.606 203.83C245.849 204.259 246.175 204.595 246.586 204.838C246.997 205.071 247.459 205.188 247.972 205.188ZM255.727 206.07C255.121 206.07 254.547 205.986 254.005 205.818C253.464 205.641 253.039 205.421 252.731 205.16L253.179 204.376C253.478 204.6 253.861 204.796 254.327 204.964C254.794 205.123 255.284 205.202 255.797 205.202C256.497 205.202 257.001 205.095 257.309 204.88C257.617 204.656 257.771 204.362 257.771 203.998C257.771 203.727 257.683 203.517 257.505 203.368C257.337 203.209 257.113 203.093 256.833 203.018C256.553 202.934 256.241 202.864 255.895 202.808C255.55 202.752 255.205 202.687 254.859 202.612C254.523 202.537 254.215 202.43 253.935 202.29C253.655 202.141 253.427 201.94 253.249 201.688C253.081 201.436 252.997 201.1 252.997 200.68C252.997 200.279 253.109 199.919 253.333 199.602C253.557 199.285 253.884 199.037 254.313 198.86C254.752 198.673 255.284 198.58 255.909 198.58C256.385 198.58 256.861 198.645 257.337 198.776C257.813 198.897 258.205 199.061 258.513 199.266L258.079 200.064C257.753 199.84 257.403 199.681 257.029 199.588C256.656 199.485 256.283 199.434 255.909 199.434C255.247 199.434 254.757 199.551 254.439 199.784C254.131 200.008 253.977 200.297 253.977 200.652C253.977 200.932 254.061 201.151 254.229 201.31C254.407 201.469 254.635 201.595 254.915 201.688C255.205 201.772 255.517 201.842 255.853 201.898C256.199 201.954 256.539 202.024 256.875 202.108C257.221 202.183 257.533 202.29 257.813 202.43C258.103 202.561 258.331 202.752 258.499 203.004C258.677 203.247 258.765 203.569 258.765 203.97C258.765 204.399 258.644 204.773 258.401 205.09C258.168 205.398 257.823 205.641 257.365 205.818C256.917 205.986 256.371 206.07 255.727 206.07ZM42.1126 228.07C41.478 228.07 40.904 227.925 40.3906 227.636C39.8773 227.337 39.4666 226.913 39.1586 226.362C38.86 225.802 38.7106 225.121 38.7106 224.318C38.7106 223.515 38.86 222.839 39.1586 222.288C39.4573 221.728 39.8633 221.303 40.3766 221.014C40.89 220.725 41.4686 220.58 42.1126 220.58C42.8126 220.58 43.438 220.739 43.9886 221.056C44.5486 221.364 44.9873 221.803 45.3046 222.372C45.622 222.932 45.7806 223.581 45.7806 224.318C45.7806 225.065 45.622 225.718 45.3046 226.278C44.9873 226.838 44.5486 227.277 43.9886 227.594C43.438 227.911 42.8126 228.07 42.1126 228.07ZM38.3186 230.716V220.65H39.2706V222.862L39.1726 224.332L39.3126 225.816V230.716H38.3186ZM42.0426 227.188C42.5653 227.188 43.032 227.071 43.4426 226.838C43.8533 226.595 44.18 226.259 44.4226 225.83C44.6653 225.391 44.7866 224.887 44.7866 224.318C44.7866 223.749 44.6653 223.249 44.4226 222.82C44.18 222.391 43.8533 222.055 43.4426 221.812C43.032 221.569 42.5653 221.448 42.0426 221.448C41.52 221.448 41.0486 221.569 40.6286 221.812C40.218 222.055 39.8913 222.391 39.6486 222.82C39.4153 223.249 39.2986 223.749 39.2986 224.318C39.2986 224.887 39.4153 225.391 39.6486 225.83C39.8913 226.259 40.218 226.595 40.6286 226.838C41.0486 227.071 41.52 227.188 42.0426 227.188ZM47.8069 228V220.65H48.7589V222.652L48.6609 222.302C48.8662 221.742 49.2116 221.317 49.6969 221.028C50.1822 220.729 50.7842 220.58 51.5029 220.58V221.546C51.4656 221.546 51.4282 221.546 51.3909 221.546C51.3536 221.537 51.3162 221.532 51.2789 221.532C50.5042 221.532 49.8976 221.77 49.4589 222.246C49.0202 222.713 48.8009 223.38 48.8009 224.248V228H47.8069ZM56.2443 228.07C55.535 228.07 54.8956 227.911 54.3263 227.594C53.7663 227.267 53.323 226.824 52.9963 226.264C52.6696 225.695 52.5063 225.046 52.5063 224.318C52.5063 223.581 52.6696 222.932 52.9963 222.372C53.323 221.812 53.7663 221.373 54.3263 221.056C54.8863 220.739 55.5256 220.58 56.2443 220.58C56.9723 220.58 57.6163 220.739 58.1763 221.056C58.7456 221.373 59.189 221.812 59.5063 222.372C59.833 222.932 59.9963 223.581 59.9963 224.318C59.9963 225.046 59.833 225.695 59.5063 226.264C59.189 226.824 58.7456 227.267 58.1763 227.594C57.607 227.911 56.963 228.07 56.2443 228.07ZM56.2443 227.188C56.7763 227.188 57.2476 227.071 57.6583 226.838C58.069 226.595 58.391 226.259 58.6243 225.83C58.867 225.391 58.9883 224.887 58.9883 224.318C58.9883 223.739 58.867 223.235 58.6243 222.806C58.391 222.377 58.069 222.045 57.6583 221.812C57.2476 221.569 56.781 221.448 56.2583 221.448C55.7356 221.448 55.269 221.569 54.8583 221.812C54.4476 222.045 54.121 222.377 53.8783 222.806C53.6356 223.235 53.5143 223.739 53.5143 224.318C53.5143 224.887 53.6356 225.391 53.8783 225.83C54.121 226.259 54.4476 226.595 54.8583 226.838C55.269 227.071 55.731 227.188 56.2443 227.188ZM60.9336 230.786C60.635 230.786 60.3503 230.744 60.0796 230.66C59.7996 230.585 59.5663 230.469 59.3796 230.31L59.7296 229.554C60.0283 229.806 60.411 229.932 60.8776 229.932C61.2696 229.932 61.5683 229.815 61.7736 229.582C61.9883 229.349 62.0956 229.003 62.0956 228.546V220.65H63.0896V228.546C63.0896 229.227 62.903 229.769 62.5296 230.17C62.1656 230.581 61.6336 230.786 60.9336 230.786ZM62.5996 219.026C62.3943 219.026 62.2216 218.956 62.0816 218.816C61.9416 218.676 61.8716 218.508 61.8716 218.312C61.8716 218.116 61.9416 217.953 62.0816 217.822C62.2216 217.682 62.3943 217.612 62.5996 217.612C62.805 217.612 62.9776 217.677 63.1176 217.808C63.2576 217.939 63.3276 218.102 63.3276 218.298C63.3276 218.503 63.2576 218.676 63.1176 218.816C62.987 218.956 62.8143 219.026 62.5996 219.026ZM68.9894 228.07C68.2241 228.07 67.5521 227.911 66.9734 227.594C66.3948 227.267 65.9421 226.824 65.6154 226.264C65.2888 225.695 65.1254 225.046 65.1254 224.318C65.1254 223.59 65.2794 222.946 65.5874 222.386C65.9048 221.826 66.3341 221.387 66.8754 221.07C67.4261 220.743 68.0421 220.58 68.7234 220.58C69.4141 220.58 70.0254 220.739 70.5574 221.056C71.0988 221.364 71.5234 221.803 71.8314 222.372C72.1394 222.932 72.2934 223.581 72.2934 224.318C72.2934 224.365 72.2888 224.416 72.2794 224.472C72.2794 224.519 72.2794 224.57 72.2794 224.626H65.8814V223.884H71.7474L71.3554 224.178C71.3554 223.646 71.2388 223.175 71.0054 222.764C70.7814 222.344 70.4734 222.017 70.0814 221.784C69.6894 221.551 69.2368 221.434 68.7234 221.434C68.2194 221.434 67.7668 221.551 67.3654 221.784C66.9641 222.017 66.6514 222.344 66.4274 222.764C66.2034 223.184 66.0914 223.665 66.0914 224.206V224.36C66.0914 224.92 66.2128 225.415 66.4554 225.844C66.7074 226.264 67.0528 226.595 67.4914 226.838C67.9394 227.071 68.4481 227.188 69.0174 227.188C69.4654 227.188 69.8808 227.109 70.2634 226.95C70.6554 226.791 70.9914 226.549 71.2714 226.222L71.8314 226.866C71.5048 227.258 71.0941 227.557 70.5994 227.762C70.1141 227.967 69.5774 228.07 68.9894 228.07ZM76.6407 228.07C75.95 228.07 75.418 227.883 75.0447 227.51C74.6713 227.137 74.4847 226.609 74.4847 225.928V219.026H75.4787V225.872C75.4787 226.301 75.586 226.633 75.8007 226.866C76.0247 227.099 76.342 227.216 76.7527 227.216C77.1913 227.216 77.5553 227.09 77.8447 226.838L78.1947 227.552C77.9987 227.729 77.7607 227.86 77.4807 227.944C77.21 228.028 76.93 228.07 76.6407 228.07ZM73.1687 221.476V220.65H77.7187V221.476H73.1687ZM82.7404 228.07C82.0311 228.07 81.3917 227.911 80.8224 227.594C80.2624 227.267 79.8191 226.824 79.4924 226.264C79.1657 225.695 79.0024 225.046 79.0024 224.318C79.0024 223.581 79.1657 222.932 79.4924 222.372C79.8191 221.812 80.2624 221.373 80.8224 221.056C81.3824 220.739 82.0217 220.58 82.7404 220.58C83.4684 220.58 84.1124 220.739 84.6724 221.056C85.2417 221.373 85.6851 221.812 86.0024 222.372C86.3291 222.932 86.4924 223.581 86.4924 224.318C86.4924 225.046 86.3291 225.695 86.0024 226.264C85.6851 226.824 85.2417 227.267 84.6724 227.594C84.1031 227.911 83.4591 228.07 82.7404 228.07ZM82.7404 227.188C83.2724 227.188 83.7437 227.071 84.1544 226.838C84.5651 226.595 84.8871 226.259 85.1204 225.83C85.3631 225.391 85.4844 224.887 85.4844 224.318C85.4844 223.739 85.3631 223.235 85.1204 222.806C84.8871 222.377 84.5651 222.045 84.1544 221.812C83.7437 221.569 83.2771 221.448 82.7544 221.448C82.2317 221.448 81.7651 221.569 81.3544 221.812C80.9437 222.045 80.6171 222.377 80.3744 222.806C80.1317 223.235 80.0104 223.739 80.0104 224.318C80.0104 224.887 80.1317 225.391 80.3744 225.83C80.6171 226.259 80.9437 226.595 81.3544 226.838C81.7651 227.071 82.2271 227.188 82.7404 227.188ZM90.4957 228.07C89.8891 228.07 89.3151 227.986 88.7737 227.818C88.2324 227.641 87.8077 227.421 87.4997 227.16L87.9477 226.376C88.2464 226.6 88.6291 226.796 89.0957 226.964C89.5624 227.123 90.0524 227.202 90.5657 227.202C91.2657 227.202 91.7697 227.095 92.0777 226.88C92.3857 226.656 92.5397 226.362 92.5397 225.998C92.5397 225.727 92.4511 225.517 92.2737 225.368C92.1057 225.209 91.8817 225.093 91.6017 225.018C91.3217 224.934 91.0091 224.864 90.6637 224.808C90.3184 224.752 89.9731 224.687 89.6277 224.612C89.2917 224.537 88.9837 224.43 88.7037 224.29C88.4237 224.141 88.1951 223.94 88.0177 223.688C87.8497 223.436 87.7657 223.1 87.7657 222.68C87.7657 222.279 87.8777 221.919 88.1017 221.602C88.3257 221.285 88.6524 221.037 89.0817 220.86C89.5204 220.673 90.0524 220.58 90.6777 220.58C91.1537 220.58 91.6297 220.645 92.1057 220.776C92.5817 220.897 92.9737 221.061 93.2817 221.266L92.8477 222.064C92.5211 221.84 92.1711 221.681 91.7977 221.588C91.4244 221.485 91.0511 221.434 90.6777 221.434C90.0151 221.434 89.5251 221.551 89.2077 221.784C88.8997 222.008 88.7457 222.297 88.7457 222.652C88.7457 222.932 88.8297 223.151 88.9977 223.31C89.1751 223.469 89.4037 223.595 89.6837 223.688C89.9731 223.772 90.2857 223.842 90.6217 223.898C90.9671 223.954 91.3077 224.024 91.6437 224.108C91.9891 224.183 92.3017 224.29 92.5817 224.43C92.8711 224.561 93.0997 224.752 93.2677 225.004C93.4451 225.247 93.5337 225.569 93.5337 225.97C93.5337 226.399 93.4124 226.773 93.1697 227.09C92.9364 227.398 92.5911 227.641 92.1337 227.818C91.6857 227.986 91.1397 228.07 90.4957 228.07ZM101.948 228.07C101.248 228.07 100.618 227.911 100.058 227.594C99.5071 227.277 99.0731 226.838 98.7557 226.278C98.4384 225.709 98.2797 225.055 98.2797 224.318C98.2797 223.571 98.4384 222.918 98.7557 222.358C99.0731 221.798 99.5071 221.364 100.058 221.056C100.618 220.739 101.248 220.58 101.948 220.58C102.592 220.58 103.166 220.725 103.67 221.014C104.183 221.303 104.589 221.728 104.888 222.288C105.196 222.839 105.35 223.515 105.35 224.318C105.35 225.111 105.2 225.788 104.902 226.348C104.603 226.908 104.197 227.337 103.684 227.636C103.18 227.925 102.601 228.07 101.948 228.07ZM102.018 227.188C102.54 227.188 103.007 227.071 103.418 226.838C103.838 226.595 104.164 226.259 104.398 225.83C104.64 225.391 104.762 224.887 104.762 224.318C104.762 223.739 104.64 223.235 104.398 222.806C104.164 222.377 103.838 222.045 103.418 221.812C103.007 221.569 102.54 221.448 102.018 221.448C101.504 221.448 101.042 221.569 100.632 221.812C100.221 222.045 99.8944 222.377 99.6517 222.806C99.4091 223.235 99.2877 223.739 99.2877 224.318C99.2877 224.887 99.4091 225.391 99.6517 225.83C99.8944 226.259 100.221 226.595 100.632 226.838C101.042 227.071 101.504 227.188 102.018 227.188ZM104.79 228V225.788L104.888 224.304L104.748 222.82V217.612H105.742V228H104.79ZM111.632 228.07C110.867 228.07 110.195 227.911 109.616 227.594C109.037 227.267 108.585 226.824 108.258 226.264C107.931 225.695 107.768 225.046 107.768 224.318C107.768 223.59 107.922 222.946 108.23 222.386C108.547 221.826 108.977 221.387 109.518 221.07C110.069 220.743 110.685 220.58 111.366 220.58C112.057 220.58 112.668 220.739 113.2 221.056C113.741 221.364 114.166 221.803 114.474 222.372C114.782 222.932 114.936 223.581 114.936 224.318C114.936 224.365 114.931 224.416 114.922 224.472C114.922 224.519 114.922 224.57 114.922 224.626H108.524V223.884H114.39L113.998 224.178C113.998 223.646 113.881 223.175 113.648 222.764C113.424 222.344 113.116 222.017 112.724 221.784C112.332 221.551 111.879 221.434 111.366 221.434C110.862 221.434 110.409 221.551 110.008 221.784C109.607 222.017 109.294 222.344 109.07 222.764C108.846 223.184 108.734 223.665 108.734 224.206V224.36C108.734 224.92 108.855 225.415 109.098 225.844C109.35 226.264 109.695 226.595 110.134 226.838C110.582 227.071 111.091 227.188 111.66 227.188C112.108 227.188 112.523 227.109 112.906 226.95C113.298 226.791 113.634 226.549 113.914 226.222L114.474 226.866C114.147 227.258 113.737 227.557 113.242 227.762C112.757 227.967 112.22 228.07 111.632 228.07ZM122.597 228.07C121.991 228.07 121.417 227.986 120.875 227.818C120.334 227.641 119.909 227.421 119.601 227.16L120.049 226.376C120.348 226.6 120.731 226.796 121.197 226.964C121.664 227.123 122.154 227.202 122.667 227.202C123.367 227.202 123.871 227.095 124.179 226.88C124.487 226.656 124.641 226.362 124.641 225.998C124.641 225.727 124.553 225.517 124.375 225.368C124.207 225.209 123.983 225.093 123.703 225.018C123.423 224.934 123.111 224.864 122.765 224.808C122.42 224.752 122.075 224.687 121.729 224.612C121.393 224.537 121.085 224.43 120.805 224.29C120.525 224.141 120.297 223.94 120.119 223.688C119.951 223.436 119.867 223.1 119.867 222.68C119.867 222.279 119.979 221.919 120.203 221.602C120.427 221.285 120.754 221.037 121.183 220.86C121.622 220.673 122.154 220.58 122.779 220.58C123.255 220.58 123.731 220.645 124.207 220.776C124.683 220.897 125.075 221.061 125.383 221.266L124.949 222.064C124.623 221.84 124.273 221.681 123.899 221.588C123.526 221.485 123.153 221.434 122.779 221.434C122.117 221.434 121.627 221.551 121.309 221.784C121.001 222.008 120.847 222.297 120.847 222.652C120.847 222.932 120.931 223.151 121.099 223.31C121.277 223.469 121.505 223.595 121.785 223.688C122.075 223.772 122.387 223.842 122.723 223.898C123.069 223.954 123.409 224.024 123.745 224.108C124.091 224.183 124.403 224.29 124.683 224.43C124.973 224.561 125.201 224.752 125.369 225.004C125.547 225.247 125.635 225.569 125.635 225.97C125.635 226.399 125.514 226.773 125.271 227.09C125.038 227.398 124.693 227.641 124.235 227.818C123.787 227.986 123.241 228.07 122.597 228.07ZM130.455 228.07C129.746 228.07 129.107 227.911 128.537 227.594C127.977 227.267 127.534 226.824 127.207 226.264C126.881 225.695 126.717 225.046 126.717 224.318C126.717 223.581 126.881 222.932 127.207 222.372C127.534 221.812 127.977 221.373 128.537 221.056C129.097 220.739 129.737 220.58 130.455 220.58C131.183 220.58 131.827 220.739 132.387 221.056C132.957 221.373 133.4 221.812 133.717 222.372C134.044 222.932 134.207 223.581 134.207 224.318C134.207 225.046 134.044 225.695 133.717 226.264C133.4 226.824 132.957 227.267 132.387 227.594C131.818 227.911 131.174 228.07 130.455 228.07ZM130.455 227.188C130.987 227.188 131.459 227.071 131.869 226.838C132.28 226.595 132.602 226.259 132.835 225.83C133.078 225.391 133.199 224.887 133.199 224.318C133.199 223.739 133.078 223.235 132.835 222.806C132.602 222.377 132.28 222.045 131.869 221.812C131.459 221.569 130.992 221.448 130.469 221.448C129.947 221.448 129.48 221.569 129.069 221.812C128.659 222.045 128.332 222.377 128.089 222.806C127.847 223.235 127.725 223.739 127.725 224.318C127.725 224.887 127.847 225.391 128.089 225.83C128.332 226.259 128.659 226.595 129.069 226.838C129.48 227.071 129.942 227.188 130.455 227.188ZM136.405 228V219.726C136.405 219.073 136.596 218.545 136.979 218.144C137.361 217.743 137.912 217.542 138.631 217.542C138.911 217.542 139.181 217.579 139.443 217.654C139.704 217.729 139.923 217.845 140.101 218.004L139.765 218.746C139.625 218.625 139.461 218.536 139.275 218.48C139.088 218.415 138.887 218.382 138.673 218.382C138.253 218.382 137.931 218.499 137.707 218.732C137.483 218.965 137.371 219.311 137.371 219.768V220.888L137.399 221.35V228H136.405ZM135.089 221.476V220.65H139.639V221.476H135.089ZM143.305 228.07C142.614 228.07 142.082 227.883 141.709 227.51C141.335 227.137 141.149 226.609 141.149 225.928V219.026H142.143V225.872C142.143 226.301 142.25 226.633 142.465 226.866C142.689 227.099 143.006 227.216 143.417 227.216C143.855 227.216 144.219 227.09 144.509 226.838L144.859 227.552C144.663 227.729 144.425 227.86 144.145 227.944C143.874 228.028 143.594 228.07 143.305 228.07ZM139.833 221.476V220.65H144.383V221.476H139.833ZM148.03 228L145.258 220.65H146.21L148.73 227.468H148.296L150.886 220.65H151.74L154.302 227.468H153.868L156.43 220.65H157.34L154.554 228H153.616L151.152 221.588H151.446L148.968 228H148.03ZM163.223 228V226.376L163.181 226.11V223.394C163.181 222.769 163.004 222.288 162.649 221.952C162.304 221.616 161.786 221.448 161.095 221.448C160.619 221.448 160.167 221.527 159.737 221.686C159.308 221.845 158.944 222.055 158.645 222.316L158.197 221.574C158.571 221.257 159.019 221.014 159.541 220.846C160.064 220.669 160.615 220.58 161.193 220.58C162.145 220.58 162.878 220.818 163.391 221.294C163.914 221.761 164.175 222.475 164.175 223.436V228H163.223ZM160.689 228.07C160.139 228.07 159.658 227.981 159.247 227.804C158.846 227.617 158.538 227.365 158.323 227.048C158.109 226.721 158.001 226.348 158.001 225.928C158.001 225.545 158.09 225.2 158.267 224.892C158.454 224.575 158.753 224.323 159.163 224.136C159.583 223.94 160.143 223.842 160.843 223.842H163.377V224.584H160.871C160.162 224.584 159.667 224.71 159.387 224.962C159.117 225.214 158.981 225.527 158.981 225.9C158.981 226.32 159.145 226.656 159.471 226.908C159.798 227.16 160.255 227.286 160.843 227.286C161.403 227.286 161.884 227.16 162.285 226.908C162.696 226.647 162.995 226.273 163.181 225.788L163.405 226.474C163.219 226.959 162.892 227.347 162.425 227.636C161.968 227.925 161.389 228.07 160.689 228.07ZM166.875 228V220.65H167.827V222.652L167.729 222.302C167.935 221.742 168.28 221.317 168.765 221.028C169.251 220.729 169.853 220.58 170.571 220.58V221.546C170.534 221.546 170.497 221.546 170.459 221.546C170.422 221.537 170.385 221.532 170.347 221.532C169.573 221.532 168.966 221.77 168.527 222.246C168.089 222.713 167.869 223.38 167.869 224.248V228H166.875ZM175.439 228.07C174.673 228.07 174.001 227.911 173.423 227.594C172.844 227.267 172.391 226.824 172.065 226.264C171.738 225.695 171.575 225.046 171.575 224.318C171.575 223.59 171.729 222.946 172.037 222.386C172.354 221.826 172.783 221.387 173.325 221.07C173.875 220.743 174.491 220.58 175.173 220.58C175.863 220.58 176.475 220.739 177.007 221.056C177.548 221.364 177.973 221.803 178.281 222.372C178.589 222.932 178.743 223.581 178.743 224.318C178.743 224.365 178.738 224.416 178.729 224.472C178.729 224.519 178.729 224.57 178.729 224.626H172.331V223.884H178.197L177.805 224.178C177.805 223.646 177.688 223.175 177.455 222.764C177.231 222.344 176.923 222.017 176.531 221.784C176.139 221.551 175.686 221.434 175.173 221.434C174.669 221.434 174.216 221.551 173.815 221.784C173.413 222.017 173.101 222.344 172.877 222.764C172.653 223.184 172.541 223.665 172.541 224.206V224.36C172.541 224.92 172.662 225.415 172.905 225.844C173.157 226.264 173.502 226.595 173.941 226.838C174.389 227.071 174.897 227.188 175.467 227.188C175.915 227.188 176.33 227.109 176.713 226.95C177.105 226.791 177.441 226.549 177.721 226.222L178.281 226.866C177.954 227.258 177.543 227.557 177.049 227.762C176.563 227.967 176.027 228.07 175.439 228.07ZM186.404 228.07C185.797 228.07 185.223 227.986 184.682 227.818C184.141 227.641 183.716 227.421 183.408 227.16L183.856 226.376C184.155 226.6 184.537 226.796 185.004 226.964C185.471 227.123 185.961 227.202 186.474 227.202C187.174 227.202 187.678 227.095 187.986 226.88C188.294 226.656 188.448 226.362 188.448 225.998C188.448 225.727 188.359 225.517 188.182 225.368C188.014 225.209 187.79 225.093 187.51 225.018C187.23 224.934 186.917 224.864 186.572 224.808C186.227 224.752 185.881 224.687 185.536 224.612C185.2 224.537 184.892 224.43 184.612 224.29C184.332 224.141 184.103 223.94 183.926 223.688C183.758 223.436 183.674 223.1 183.674 222.68C183.674 222.279 183.786 221.919 184.01 221.602C184.234 221.285 184.561 221.037 184.99 220.86C185.429 220.673 185.961 220.58 186.586 220.58C187.062 220.58 187.538 220.645 188.014 220.776C188.49 220.897 188.882 221.061 189.19 221.266L188.756 222.064C188.429 221.84 188.079 221.681 187.706 221.588C187.333 221.485 186.959 221.434 186.586 221.434C185.923 221.434 185.433 221.551 185.116 221.784C184.808 222.008 184.654 222.297 184.654 222.652C184.654 222.932 184.738 223.151 184.906 223.31C185.083 223.469 185.312 223.595 185.592 223.688C185.881 223.772 186.194 223.842 186.53 223.898C186.875 223.954 187.216 224.024 187.552 224.108C187.897 224.183 188.21 224.29 188.49 224.43C188.779 224.561 189.008 224.752 189.176 225.004C189.353 225.247 189.442 225.569 189.442 225.97C189.442 226.399 189.321 226.773 189.078 227.09C188.845 227.398 188.499 227.641 188.042 227.818C187.594 227.986 187.048 228.07 186.404 228.07ZM194.262 228.07C193.553 228.07 192.913 227.911 192.344 227.594C191.784 227.267 191.341 226.824 191.014 226.264C190.687 225.695 190.524 225.046 190.524 224.318C190.524 223.581 190.687 222.932 191.014 222.372C191.341 221.812 191.784 221.373 192.344 221.056C192.904 220.739 193.543 220.58 194.262 220.58C194.99 220.58 195.634 220.739 196.194 221.056C196.763 221.373 197.207 221.812 197.524 222.372C197.851 222.932 198.014 223.581 198.014 224.318C198.014 225.046 197.851 225.695 197.524 226.264C197.207 226.824 196.763 227.267 196.194 227.594C195.625 227.911 194.981 228.07 194.262 228.07ZM194.262 227.188C194.794 227.188 195.265 227.071 195.676 226.838C196.087 226.595 196.409 226.259 196.642 225.83C196.885 225.391 197.006 224.887 197.006 224.318C197.006 223.739 196.885 223.235 196.642 222.806C196.409 222.377 196.087 222.045 195.676 221.812C195.265 221.569 194.799 221.448 194.276 221.448C193.753 221.448 193.287 221.569 192.876 221.812C192.465 222.045 192.139 222.377 191.896 222.806C191.653 223.235 191.532 223.739 191.532 224.318C191.532 224.887 191.653 225.391 191.896 225.83C192.139 226.259 192.465 226.595 192.876 226.838C193.287 227.071 193.749 227.188 194.262 227.188ZM203.837 228.07C203.193 228.07 202.615 227.925 202.101 227.636C201.588 227.337 201.182 226.908 200.883 226.348C200.585 225.788 200.435 225.111 200.435 224.318C200.435 223.515 200.585 222.839 200.883 222.288C201.191 221.728 201.602 221.303 202.115 221.014C202.629 220.725 203.203 220.58 203.837 220.58C204.537 220.58 205.163 220.739 205.713 221.056C206.273 221.364 206.712 221.798 207.029 222.358C207.347 222.918 207.505 223.571 207.505 224.318C207.505 225.055 207.347 225.709 207.029 226.278C206.712 226.838 206.273 227.277 205.713 227.594C205.163 227.911 204.537 228.07 203.837 228.07ZM200.043 228V217.612H201.037V222.82L200.897 224.304L200.995 225.788V228H200.043ZM203.767 227.188C204.29 227.188 204.757 227.071 205.167 226.838C205.578 226.595 205.905 226.259 206.147 225.83C206.39 225.391 206.511 224.887 206.511 224.318C206.511 223.739 206.39 223.235 206.147 222.806C205.905 222.377 205.578 222.045 205.167 221.812C204.757 221.569 204.29 221.448 203.767 221.448C203.245 221.448 202.773 221.569 202.353 221.812C201.943 222.045 201.616 222.377 201.373 222.806C201.14 223.235 201.023 223.739 201.023 224.318C201.023 224.887 201.14 225.391 201.373 225.83C201.616 226.259 201.943 226.595 202.353 226.838C202.773 227.071 203.245 227.188 203.767 227.188ZM222.38 220.58C222.977 220.58 223.495 220.697 223.934 220.93C224.382 221.154 224.727 221.499 224.97 221.966C225.222 222.433 225.348 223.021 225.348 223.73V228H224.354V223.828C224.354 223.053 224.167 222.47 223.794 222.078C223.43 221.677 222.912 221.476 222.24 221.476C221.736 221.476 221.297 221.583 220.924 221.798C220.56 222.003 220.275 222.307 220.07 222.708C219.874 223.1 219.776 223.576 219.776 224.136V228H218.782V223.828C218.782 223.053 218.595 222.47 218.222 222.078C217.848 221.677 217.326 221.476 216.654 221.476C216.159 221.476 215.725 221.583 215.352 221.798C214.978 222.003 214.689 222.307 214.484 222.708C214.288 223.1 214.19 223.576 214.19 224.136V228H213.196V220.65H214.148V222.638L213.994 222.288C214.218 221.756 214.577 221.341 215.072 221.042C215.576 220.734 216.168 220.58 216.85 220.58C217.568 220.58 218.18 220.762 218.684 221.126C219.188 221.481 219.514 222.017 219.664 222.736L219.272 222.582C219.486 221.985 219.864 221.504 220.406 221.14C220.956 220.767 221.614 220.58 222.38 220.58ZM231.165 228.07C230.4 228.07 229.728 227.911 229.149 227.594C228.571 227.267 228.118 226.824 227.791 226.264C227.465 225.695 227.301 225.046 227.301 224.318C227.301 223.59 227.455 222.946 227.763 222.386C228.081 221.826 228.51 221.387 229.051 221.07C229.602 220.743 230.218 220.58 230.899 220.58C231.59 220.58 232.201 220.739 232.733 221.056C233.275 221.364 233.699 221.803 234.007 222.372C234.315 222.932 234.469 223.581 234.469 224.318C234.469 224.365 234.465 224.416 234.455 224.472C234.455 224.519 234.455 224.57 234.455 224.626H228.057V223.884H233.923L233.531 224.178C233.531 223.646 233.415 223.175 233.181 222.764C232.957 222.344 232.649 222.017 232.257 221.784C231.865 221.551 231.413 221.434 230.899 221.434C230.395 221.434 229.943 221.551 229.541 221.784C229.14 222.017 228.827 222.344 228.603 222.764C228.379 223.184 228.267 223.665 228.267 224.206V224.36C228.267 224.92 228.389 225.415 228.631 225.844C228.883 226.264 229.229 226.595 229.667 226.838C230.115 227.071 230.624 227.188 231.193 227.188C231.641 227.188 232.057 227.109 232.439 226.95C232.831 226.791 233.167 226.549 233.447 226.222L234.007 226.866C233.681 227.258 233.27 227.557 232.775 227.762C232.29 227.967 231.753 228.07 231.165 228.07ZM239.418 228.07C238.718 228.07 238.088 227.911 237.528 227.594C236.978 227.277 236.544 226.838 236.226 226.278C235.909 225.709 235.75 225.055 235.75 224.318C235.75 223.571 235.909 222.918 236.226 222.358C236.544 221.798 236.978 221.364 237.528 221.056C238.088 220.739 238.718 220.58 239.418 220.58C240.062 220.58 240.636 220.725 241.14 221.014C241.654 221.303 242.06 221.728 242.358 222.288C242.666 222.839 242.82 223.515 242.82 224.318C242.82 225.111 242.671 225.788 242.372 226.348C242.074 226.908 241.668 227.337 241.154 227.636C240.65 227.925 240.072 228.07 239.418 228.07ZM239.488 227.188C240.011 227.188 240.478 227.071 240.888 226.838C241.308 226.595 241.635 226.259 241.868 225.83C242.111 225.391 242.232 224.887 242.232 224.318C242.232 223.739 242.111 223.235 241.868 222.806C241.635 222.377 241.308 222.045 240.888 221.812C240.478 221.569 240.011 221.448 239.488 221.448C238.975 221.448 238.513 221.569 238.102 221.812C237.692 222.045 237.365 222.377 237.122 222.806C236.88 223.235 236.758 223.739 236.758 224.318C236.758 224.887 236.88 225.391 237.122 225.83C237.365 226.259 237.692 226.595 238.102 226.838C238.513 227.071 238.975 227.188 239.488 227.188ZM242.26 228V225.788L242.358 224.304L242.218 222.82V217.612H243.212V228H242.26ZM245.981 228V220.65H246.975V228H245.981ZM246.485 219.026C246.279 219.026 246.107 218.956 245.967 218.816C245.827 218.676 245.757 218.508 245.757 218.312C245.757 218.116 245.827 217.953 245.967 217.822C246.107 217.682 246.279 217.612 246.485 217.612C246.69 217.612 246.863 217.677 247.003 217.808C247.143 217.939 247.213 218.102 247.213 218.298C247.213 218.503 247.143 218.676 247.003 218.816C246.872 218.956 246.699 219.026 246.485 219.026ZM252.666 228.07C251.966 228.07 251.336 227.911 250.776 227.594C250.226 227.277 249.792 226.838 249.474 226.278C249.157 225.709 248.998 225.055 248.998 224.318C248.998 223.571 249.157 222.918 249.474 222.358C249.792 221.798 250.226 221.364 250.776 221.056C251.336 220.739 251.966 220.58 252.666 220.58C253.31 220.58 253.884 220.725 254.388 221.014C254.902 221.303 255.308 221.728 255.606 222.288C255.914 222.839 256.068 223.515 256.068 224.318C256.068 225.111 255.919 225.788 255.62 226.348C255.322 226.908 254.916 227.337 254.402 227.636C253.898 227.925 253.32 228.07 252.666 228.07ZM252.736 227.188C253.259 227.188 253.726 227.071 254.136 226.838C254.556 226.595 254.883 226.259 255.116 225.83C255.359 225.391 255.48 224.887 255.48 224.318C255.48 223.739 255.359 223.235 255.116 222.806C254.883 222.377 254.556 222.045 254.136 221.812C253.726 221.569 253.259 221.448 252.736 221.448C252.223 221.448 251.761 221.569 251.35 221.812C250.94 222.045 250.613 222.377 250.37 222.806C250.128 223.235 250.006 223.739 250.006 224.318C250.006 224.887 250.128 225.391 250.37 225.83C250.613 226.259 250.94 226.595 251.35 226.838C251.761 227.071 252.223 227.188 252.736 227.188ZM255.508 228V225.788L255.606 224.304L255.466 222.82V217.612H256.46V228H255.508ZM263.835 228V226.376L263.793 226.11V223.394C263.793 222.769 263.615 222.288 263.261 221.952C262.915 221.616 262.397 221.448 261.707 221.448C261.231 221.448 260.778 221.527 260.349 221.686C259.919 221.845 259.555 222.055 259.257 222.316L258.809 221.574C259.182 221.257 259.63 221.014 260.153 220.846C260.675 220.669 261.226 220.58 261.805 220.58C262.757 220.58 263.489 220.818 264.003 221.294C264.525 221.761 264.787 222.475 264.787 223.436V228H263.835ZM261.301 228.07C260.75 228.07 260.269 227.981 259.859 227.804C259.457 227.617 259.149 227.365 258.935 227.048C258.72 226.721 258.613 226.348 258.613 225.928C258.613 225.545 258.701 225.2 258.879 224.892C259.065 224.575 259.364 224.323 259.775 224.136C260.195 223.94 260.755 223.842 261.455 223.842H263.989V224.584H261.483C260.773 224.584 260.279 224.71 259.999 224.962C259.728 225.214 259.593 225.527 259.593 225.9C259.593 226.32 259.756 226.656 260.083 226.908C260.409 227.16 260.867 227.286 261.455 227.286C262.015 227.286 262.495 227.16 262.897 226.908C263.307 226.647 263.606 226.273 263.793 225.788L264.017 226.474C263.83 226.959 263.503 227.347 263.037 227.636C262.579 227.925 262.001 228.07 261.301 228.07ZM267.585 228.07C267.379 228.07 267.202 227.995 267.053 227.846C266.913 227.697 266.843 227.515 266.843 227.3C266.843 227.076 266.913 226.894 267.053 226.754C267.202 226.614 267.379 226.544 267.585 226.544C267.79 226.544 267.963 226.614 268.103 226.754C268.252 226.894 268.327 227.076 268.327 227.3C268.327 227.515 268.252 227.697 268.103 227.846C267.963 227.995 267.79 228.07 267.585 228.07Z" fill="#212121"/>
<g filter="url(#filter0_bd_5_4)">
<rect x="118" y="40" width="70" height="70" rx="15.102" fill="url(#paint0_linear_5_4)" shape-rendering="crispEdges"/>
<rect x="118.378" y="40.3776" width="69.2449" height="69.2449" rx="14.7245" stroke="url(#paint1_linear_5_4)" stroke-width="0.755102" shape-rendering="crispEdges"/>
</g>
<path d="M160.863 71.5285C161.19 73.2697 160.929 75.07 160.121 76.6469C159.314 78.2239 158.005 79.4881 156.401 80.2413C154.797 80.9944 152.988 81.1939 151.258 80.8082C149.528 80.4226 147.975 79.4738 146.843 78.1107M145.137 74.4715C144.81 72.7303 145.071 70.93 145.879 69.3531C146.686 67.7761 147.995 66.5119 149.599 65.7587C151.203 65.0056 153.012 64.8061 154.742 65.1918C156.472 65.5774 158.025 66.5262 159.157 67.8893" stroke="url(#paint2_linear_5_4)" stroke-width="1.5" stroke-linecap="round" stroke-linejoin="round"/>
<path d="M135.934 72.75L140.99 67.6965C141.2 67.4865 141.312 67.2285 141.327 66.9225C141.342 66.6165 141.23 66.3435 140.99 66.1035C140.75 65.8635 140.484 65.7435 140.193 65.7435C139.901 65.7435 139.635 65.8635 139.397 66.1035L134.021 71.4788C133.658 71.8418 133.477 72.2655 133.477 72.75C133.477 73.2345 133.658 73.6582 134.021 74.0212L139.397 79.3965C139.607 79.6065 139.864 79.719 140.17 79.734C140.476 79.749 140.75 79.6365 140.99 79.3965C141.23 79.1565 141.349 78.891 141.349 78.6C141.349 78.309 141.23 78.0435 140.99 77.8035L135.934 72.75ZM170.066 72.75L165.01 77.8035C164.8 78.0135 164.688 78.2715 164.673 78.5775C164.658 78.8835 164.77 79.1565 165.01 79.3965C165.25 79.6365 165.516 79.7565 165.807 79.7565C166.099 79.7565 166.365 79.6365 166.604 79.3965L171.979 74.0212C172.342 73.6582 172.523 73.2345 172.523 72.75C172.523 72.2655 172.342 71.8418 171.979 71.4788L166.604 66.1035C166.394 65.8935 166.135 65.781 165.829 65.766C165.523 65.751 165.25 65.8635 165.01 66.1035C164.77 66.3435 164.65 66.609 164.65 66.9C164.65 67.191 164.77 67.4565 165.01 67.6965L170.066 72.75ZM132.75 63.2325V60.6315C132.75 59.5965 133.097 58.7325 133.792 58.0395C134.485 57.3465 135.349 57 136.384 57H169.616C170.651 57 171.515 57.3472 172.208 58.0417C172.903 58.7347 173.25 59.5987 173.25 60.6337V63.2325C173.25 63.5535 173.143 63.8212 172.928 64.0357C172.712 64.2502 172.444 64.3575 172.125 64.3575C171.806 64.3575 171.538 64.2502 171.322 64.0357C171.107 63.8197 171 63.5513 171 63.2303V60.6337C171 60.2302 170.87 59.8987 170.611 59.6392C170.351 59.3797 170.02 59.25 169.616 59.25H136.384C135.98 59.25 135.649 59.3797 135.389 59.6392C135.13 59.8987 135 60.2302 135 60.6337V63.2325C135 63.5535 134.893 63.8212 134.678 64.0357C134.462 64.2502 134.194 64.3575 133.875 64.3575C133.556 64.3575 133.288 64.2502 133.072 64.0357C132.857 63.8197 132.75 63.5535 132.75 63.2325ZM148.068 93C147.546 93 147.112 92.8275 146.767 92.4825C146.422 92.1375 146.25 91.704 146.25 91.182V88.5H136.384C135.349 88.5 134.485 88.1535 133.792 87.4605C133.097 86.766 132.75 85.9013 132.75 84.8663V82.2833C132.75 81.9623 132.857 81.6968 133.072 81.4868C133.288 81.2768 133.556 81.1717 133.875 81.1717C134.194 81.1717 134.462 81.279 134.678 81.4935C134.894 81.708 135.002 81.975 135 82.2945V84.8663C135 85.2698 135.13 85.6012 135.389 85.8607C135.649 86.1202 135.98 86.25 136.384 86.25H169.616C170.02 86.25 170.351 86.1202 170.611 85.8607C170.87 85.6012 171 85.2698 171 84.8663V82.2833C171 81.9623 171.107 81.6968 171.322 81.4868C171.538 81.2768 171.806 81.1717 172.125 81.1717C172.444 81.1717 172.712 81.279 172.928 81.4935C173.143 81.708 173.25 81.975 173.25 82.2945V84.8663C173.25 85.9013 172.903 86.7653 172.21 87.4583C171.516 88.1528 170.651 88.5 169.616 88.5H159.75V91.182C159.75 91.704 159.578 92.1375 159.233 92.4825C158.888 92.8275 158.454 93 157.932 93H148.068Z" fill="url(#paint3_linear_5_4)" stroke="#212121" stroke-width="0.5"/>
<path d="M159 65V68H156" stroke="url(#paint4_linear_5_4)" stroke-width="1.5" stroke-linecap="round" stroke-linejoin="round"/>
<defs>
<filter id="filter0_bd_5_4" x="95.3469" y="17.3469" width="115.306" height="115.306" filterUnits="userSpaceOnUse" color-interpolation-filters="sRGB">
<feFlood flood-opacity="0" result="BackgroundImageFix"/>
<feGaussianBlur in="BackgroundImageFix" stdDeviation="11.3265"/>
<feComposite in2="SourceAlpha" operator="in" result="effect1_backgroundBlur_5_4"/>
<feColorMatrix in="SourceAlpha" type="matrix" values="0 0 0 0 0 0 0 0 0 0 0 0 0 0 0 0 0 0 127 0" result="hardAlpha"/>
<feMorphology radius="0.755102" operator="erode" in="SourceAlpha" result="effect2_dropShadow_5_4"/>
<feOffset dy="3.02041"/>
<feGaussianBlur stdDeviation="9.06122"/>
<feComposite in2="hardAlpha" operator="out"/>
<feColorMatrix type="matrix" values="0 0 0 0 0 0 0 0 0 0 0 0 0 0 0 0 0 0 0.2 0"/>
<feBlend mode="normal" in2="effect1_backgroundBlur_5_4" result="effect2_dropShadow_5_4"/>
<feBlend mode="normal" in="SourceGraphic" in2="effect2_dropShadow_5_4" result="shape"/>
</filter>
<linearGradient id="paint0_linear_5_4" x1="117.34" y1="84.9115" x2="190.956" y2="102.978" gradientUnits="userSpaceOnUse">
<stop stop-color="#8A8A8A" stop-opacity="0.15"/>
<stop offset="0.626245" stop-color="#B8B8B8" stop-opacity="0.04"/>
</linearGradient>
<linearGradient id="paint1_linear_5_4" x1="187.959" y1="-34.7078" x2="112.862" y2="-31.7312" gradientUnits="userSpaceOnUse">
<stop stop-color="#ED6D1D"/>
<stop offset="1" stop-color="#E50071"/>
</linearGradient>
<linearGradient id="paint2_linear_5_4" x1="163.152" y1="48.5232" x2="142.987" y2="47.4112" gradientUnits="userSpaceOnUse">
<stop stop-color="#ED6D1D"/>
<stop offset="0.404403" stop-color="#E50071"/>
<stop offset="1" stop-color="#7404BF"/>
</linearGradient>
<linearGradient id="paint3_linear_5_4" x1="178.697" y1="19.9271" x2="127.694" y2="16.7631" gradientUnits="userSpaceOnUse">
<stop stop-color="#ED6D1D"/>
<stop offset="0.404403" stop-color="#E50071"/>
<stop offset="1" stop-color="#7404BF"/>
</linearGradient>
<linearGradient id="paint4_linear_5_4" x1="159.403" y1="61.9106" x2="155.622" y2="61.7021" gradientUnits="userSpaceOnUse">
<stop stop-color="#ED6D1D"/>
<stop offset="0.404403" stop-color="#E50071"/>
<stop offset="1" stop-color="#7404BF"/>
</linearGradient>
</defs>
</svg>
