<svg width="106" height="106" viewBox="0 0 106 106" fill="none" xmlns="http://www.w3.org/2000/svg">
<g filter="url(#filter0_bd_110_266)">
<rect x="18" y="15" width="70" height="70" rx="15.102" fill="url(#paint0_linear_110_266)" shape-rendering="crispEdges"/>
<rect x="18.3776" y="15.3776" width="69.2449" height="69.2449" rx="14.7245" stroke="url(#paint1_linear_110_266)" stroke-width="0.755102" shape-rendering="crispEdges"/>
</g>
<path d="M60.8628 46.5285C61.1896 48.2697 60.9287 50.07 60.1211 51.6469C59.3135 53.2239 58.0049 54.4881 56.4008 55.2413C54.7966 55.9944 52.9876 56.1939 51.2578 55.8082C49.5279 55.4226 47.9752 54.4738 46.8432 53.1107M45.1372 49.4715C44.8104 47.7303 45.0713 45.93 45.8789 44.3531C46.6865 42.7761 47.9951 41.5119 49.5992 40.7587C51.2034 40.0056 53.0124 39.8061 54.7422 40.1918C56.4721 40.5774 58.0248 41.5262 59.1568 42.8893" stroke="url(#paint2_linear_110_266)" stroke-width="1.5" stroke-linecap="round" stroke-linejoin="round"/>
<path d="M35.9337 47.75L40.9895 42.6965C41.1995 42.4865 41.312 42.2285 41.327 41.9225C41.342 41.6165 41.2295 41.3435 40.9895 41.1035C40.7495 40.8635 40.484 40.7435 40.193 40.7435C39.9005 40.7435 39.635 40.8635 39.3965 41.1035L34.0213 46.4788C33.6583 46.8418 33.4767 47.2655 33.4767 47.75C33.4767 48.2345 33.6583 48.6582 34.0213 49.0212L39.3965 54.3965C39.6065 54.6065 39.8645 54.719 40.1705 54.734C40.4765 54.749 40.7495 54.6365 40.9895 54.3965C41.2295 54.1565 41.3495 53.891 41.3495 53.6C41.3495 53.309 41.2295 53.0435 40.9895 52.8035L35.9337 47.75ZM70.0662 47.75L65.0105 52.8035C64.8005 53.0135 64.688 53.2715 64.673 53.5775C64.658 53.8835 64.7705 54.1565 65.0105 54.3965C65.2505 54.6365 65.516 54.7565 65.807 54.7565C66.0995 54.7565 66.365 54.6365 66.6035 54.3965L71.9787 49.0212C72.3417 48.6582 72.5233 48.2345 72.5233 47.75C72.5233 47.2655 72.3417 46.8418 71.9787 46.4788L66.6035 41.1035C66.3935 40.8935 66.1355 40.781 65.8295 40.766C65.5235 40.751 65.2505 40.8635 65.0105 41.1035C64.7705 41.3435 64.6505 41.609 64.6505 41.9C64.6505 42.191 64.7705 42.4565 65.0105 42.6965L70.0662 47.75ZM32.75 38.2325V35.6315C32.75 34.5965 33.0973 33.7325 33.7918 33.0395C34.4848 32.3465 35.3487 32 36.3837 32H69.6162C70.6512 32 71.5153 32.3472 72.2083 33.0417C72.9028 33.7347 73.25 34.5987 73.25 35.6337V38.2325C73.25 38.5535 73.1427 38.8212 72.9282 39.0357C72.7122 39.2502 72.4445 39.3575 72.125 39.3575C71.8055 39.3575 71.5378 39.2502 71.3218 39.0357C71.1073 38.8197 71 38.5513 71 38.2303V35.6337C71 35.2302 70.8702 34.8987 70.6107 34.6392C70.3512 34.3797 70.0197 34.25 69.6162 34.25H36.3837C35.9802 34.25 35.6487 34.3797 35.3892 34.6392C35.1297 34.8987 35 35.2302 35 35.6337V38.2325C35 38.5535 34.8928 38.8212 34.6783 39.0357C34.4623 39.2502 34.1945 39.3575 33.875 39.3575C33.5555 39.3575 33.2877 39.2502 33.0717 39.0357C32.8572 38.8197 32.75 38.5535 32.75 38.2325ZM48.068 68C47.546 68 47.1125 67.8275 46.7675 67.4825C46.4225 67.1375 46.25 66.704 46.25 66.182V63.5H36.3837C35.3487 63.5 34.4848 63.1535 33.7918 62.4605C33.0973 61.766 32.75 60.9013 32.75 59.8663V57.2833C32.75 56.9623 32.8572 56.6968 33.0717 56.4868C33.2877 56.2768 33.5555 56.1717 33.875 56.1717C34.1945 56.1717 34.4623 56.279 34.6783 56.4935C34.8943 56.708 35.0015 56.975 35 57.2945V59.8663C35 60.2698 35.1297 60.6012 35.3892 60.8607C35.6487 61.1202 35.9802 61.25 36.3837 61.25H69.6162C70.0197 61.25 70.3512 61.1202 70.6107 60.8607C70.8702 60.6012 71 60.2698 71 59.8663V57.2833C71 56.9623 71.1073 56.6968 71.3218 56.4868C71.5378 56.2768 71.8055 56.1717 72.125 56.1717C72.4445 56.1717 72.7122 56.279 72.9282 56.4935C73.1427 56.708 73.25 56.975 73.25 57.2945V59.8663C73.25 60.9013 72.9035 61.7653 72.2105 62.4583C71.516 63.1528 70.6512 63.5 69.6162 63.5H59.75V66.182C59.75 66.704 59.5775 67.1375 59.2325 67.4825C58.8875 67.8275 58.454 68 57.932 68H48.068Z" fill="url(#paint3_linear_110_266)" stroke="#F5EDED" stroke-width="0.5"/>
<path d="M59 40V43H56" stroke="url(#paint4_linear_110_266)" stroke-width="1.5" stroke-linecap="round" stroke-linejoin="round"/>
<defs>
<filter id="filter0_bd_110_266" x="-4.65306" y="-7.65306" width="115.306" height="115.306" filterUnits="userSpaceOnUse" color-interpolation-filters="sRGB">
<feFlood flood-opacity="0" result="BackgroundImageFix"/>
<feGaussianBlur in="BackgroundImageFix" stdDeviation="11.3265"/>
<feComposite in2="SourceAlpha" operator="in" result="effect1_backgroundBlur_110_266"/>
<feColorMatrix in="SourceAlpha" type="matrix" values="0 0 0 0 0 0 0 0 0 0 0 0 0 0 0 0 0 0 127 0" result="hardAlpha"/>
<feMorphology radius="0.755102" operator="erode" in="SourceAlpha" result="effect2_dropShadow_110_266"/>
<feOffset dy="3.02041"/>
<feGaussianBlur stdDeviation="9.06122"/>
<feComposite in2="hardAlpha" operator="out"/>
<feColorMatrix type="matrix" values="0 0 0 0 0 0 0 0 0 0 0 0 0 0 0 0 0 0 0.2 0"/>
<feBlend mode="normal" in2="effect1_backgroundBlur_110_266" result="effect2_dropShadow_110_266"/>
<feBlend mode="normal" in="SourceGraphic" in2="effect2_dropShadow_110_266" result="shape"/>
</filter>
<linearGradient id="paint0_linear_110_266" x1="17.3402" y1="59.9115" x2="90.9562" y2="77.9777" gradientUnits="userSpaceOnUse">
<stop stop-color="#8A8A8A" stop-opacity="0.15"/>
<stop offset="0.626245" stop-color="#B8B8B8" stop-opacity="0.04"/>
</linearGradient>
<linearGradient id="paint1_linear_110_266" x1="87.959" y1="-59.7078" x2="12.8616" y2="-56.7312" gradientUnits="userSpaceOnUse">
<stop stop-color="#ED6D1D"/>
<stop offset="1" stop-color="#E50071"/>
</linearGradient>
<linearGradient id="paint2_linear_110_266" x1="63.1519" y1="23.5232" x2="42.9865" y2="22.4112" gradientUnits="userSpaceOnUse">
<stop stop-color="#ED6D1D"/>
<stop offset="0.404403" stop-color="#E50071"/>
<stop offset="1" stop-color="#7404BF"/>
</linearGradient>
<linearGradient id="paint3_linear_110_266" x1="78.697" y1="-5.07287" x2="27.6945" y2="-8.23688" gradientUnits="userSpaceOnUse">
<stop stop-color="#ED6D1D"/>
<stop offset="0.404403" stop-color="#E50071"/>
<stop offset="1" stop-color="#7404BF"/>
</linearGradient>
<linearGradient id="paint4_linear_110_266" x1="59.4035" y1="36.9106" x2="55.6225" y2="36.7021" gradientUnits="userSpaceOnUse">
<stop stop-color="#ED6D1D"/>
<stop offset="0.404403" stop-color="#E50071"/>
<stop offset="1" stop-color="#7404BF"/>
</linearGradient>
</defs>
</svg>
