<svg width="346" height="169" viewBox="0 0 346 169" fill="none" xmlns="http://www.w3.org/2000/svg">
<g filter="url(#filter0_d_2005_70)">
<rect x="4" width="338" height="161" rx="14" fill="url(#paint0_linear_2005_70)"/>
</g>
<path d="M135.95 68.8474C135.525 68.2102 135.058 67.6721 134.463 67.0987C133.366 66.0438 132.155 65.0031 130.838 63.9836C127.518 61.4136 124.112 59.1127 120.615 57.0879C118.888 56.0897 117.068 55.1693 115.142 54.3339C113.705 53.7109 112.176 53.2153 110.626 53.0808C107.971 52.8543 105.273 53.1233 102.604 53.6472C98.3281 54.4826 94.2219 55.8277 90.2714 57.6685C88.3315 58.5747 86.4908 59.6296 84.735 60.8402C83.489 61.6968 82.3067 62.688 81.3934 63.9057C81.3722 63.9269 81.3722 63.9623 81.3863 63.9907C82.2147 65.6402 83.397 67.1411 84.6147 68.4863C86.7386 70.8368 89.1103 73.081 91.659 75.0067C94.2714 76.9749 96.9122 78.9784 99.6732 80.7271C101.79 82.0652 104.105 83.113 106.618 83.0988C108.226 83.0988 109.861 82.7661 111.348 82.3059C112.856 81.8386 114.413 81.2793 116.02 80.6138C118.59 79.5519 121.146 78.4333 123.673 77.2722C125.96 76.2173 128.197 74.9996 130.144 73.6757C131.405 72.8191 132.658 71.9412 133.897 71.0562C134.746 70.4474 135.433 69.8173 135.95 68.9535C135.971 68.9182 135.971 68.8828 135.95 68.8474ZM110.116 61.0526C107.907 59.7216 105.479 59.1552 102.93 59.7712C101.252 60.1747 99.5883 60.9039 98.0308 61.6402C98.0237 61.6402 98.0237 61.6473 98.0166 61.6473C98.0024 61.6614 98.0095 61.6685 98.0237 61.6827L118.059 76.1182C118.073 76.1253 118.073 76.1395 118.066 76.1536C118.066 76.1607 118.059 76.1607 118.059 76.1607L113.089 78.3129C113.075 78.3129 113.068 78.32 113.054 78.32C113.04 78.32 113.026 78.32 113.019 78.3059L89.2873 61.2083C89.2873 61.2013 89.2802 61.2013 89.2802 61.1942C89.2731 61.18 89.2802 61.1659 89.2873 61.1588C92.19 59.8986 95.0927 58.6384 97.9954 57.3853C99.8219 56.5994 101.691 56.1463 103.659 55.9056C104.438 55.8065 105.224 55.764 106.003 55.7711C108.339 55.7853 110.647 56.2667 112.813 57.2579C113.939 57.7747 114.817 58.3977 115.794 59.1552C117.111 60.1818 118.527 61.711 118.647 63.4668C118.767 65.2792 117.734 66.6172 116.353 67.6509C115.787 68.0757 115.157 68.4438 114.526 68.7766C113.889 69.1164 113.252 69.4067 112.665 69.6757C112.657 69.6828 112.65 69.6828 112.636 69.6828C112.615 69.6898 112.594 69.6828 112.58 69.6686L108.926 66.9783C108.919 66.9783 108.912 66.9712 108.912 66.9641C108.905 66.95 108.919 66.9288 108.934 66.9217L108.941 66.9146C109.946 66.4969 110.81 66.15 111.581 65.3287C111.603 65.3075 111.624 65.2863 111.645 65.2579C112.99 63.7641 111.411 61.8314 110.116 61.0526Z" fill="white"/>
<path d="M94.9299 104.126C91.4891 101.308 88.1829 98.1645 85.2094 94.9998C83.5386 93.2228 82.3705 91.6653 80.643 89.4069C79.2129 87.5449 77.8748 85.6192 78.0094 83.1767C78.0448 82.4829 78.1297 81.7891 78.2501 81.1023C78.4766 79.8492 78.6961 78.6032 78.9156 77.3501C79.4041 74.5819 79.7793 71.7925 80.0483 68.9889C80.0483 68.9748 80.0625 68.9606 80.0766 68.9677C80.0837 68.9677 80.0837 68.9677 80.0908 68.9748C82.9581 71.4314 85.4006 74.3412 88.2749 76.7766C92.3812 80.2528 96.4945 83.7218 100.615 87.1909C101.033 87.5378 101.167 87.9909 101.259 88.5219C101.507 89.9732 101.535 91.3467 101.493 92.7697C101.429 95.1343 101.295 97.4919 101.082 99.8494C100.856 102.412 100.572 104.968 100.381 107.531C100.381 107.559 100.367 107.566 100.339 107.559C100.133 107.503 99.9636 107.439 99.8149 107.375C98.0733 106.589 96.4237 105.343 94.9299 104.126Z" fill="white"/>
<path d="M106.746 88.2383C106.746 88.2171 106.76 88.1958 106.774 88.1887C109.656 86.7091 112.778 85.9657 115.794 84.8188C119.277 83.4949 122.647 81.9444 125.918 80.1533C129.054 78.44 132.077 76.5355 135.129 74.6736C135.907 74.1992 136.707 73.7674 137.522 73.3709C137.564 73.3496 137.592 73.3638 137.6 73.4134L140.87 89.2649C140.877 89.2932 140.863 89.3215 140.842 89.3357C135.327 93.5339 129.656 97.4986 123.702 101.046C118.307 104.267 112.679 106.985 106.803 109.208C106.781 109.216 106.76 109.208 106.746 109.187V88.2383Z" fill="white"/>
<path d="M155.737 77.8316C155.412 77.8316 155.157 77.7395 154.98 77.5555C154.803 77.3714 154.718 77.1165 154.718 76.7908V64.8898C154.718 64.55 154.81 64.2881 154.994 64.1111C155.178 63.9341 155.433 63.8491 155.759 63.8491H160.453C161.946 63.8491 163.093 64.2173 163.907 64.9606C164.722 65.6969 165.125 66.7376 165.125 68.0757C165.125 69.4209 164.722 70.4687 163.907 71.2049C163.093 71.9412 161.946 72.3165 160.453 72.3165H156.764V76.7908C156.764 77.1165 156.679 77.3714 156.509 77.5555C156.332 77.7395 156.077 77.8316 155.737 77.8316ZM156.757 70.681H160.155C161.139 70.681 161.883 70.4616 162.385 70.0226C162.888 69.5837 163.143 68.9324 163.143 68.0686C163.143 67.2191 162.888 66.5748 162.385 66.1359C161.883 65.6969 161.139 65.4775 160.155 65.4775H156.757V70.681Z" fill="white"/>
<path d="M167.908 77.8318C167.582 77.8318 167.334 77.7468 167.164 77.5698C166.994 77.3928 166.909 77.145 166.909 76.8335V68.975C166.909 68.6494 166.994 68.4016 167.164 68.2317C167.334 68.0617 167.568 67.9768 167.872 67.9768C168.184 67.9768 168.424 68.0617 168.587 68.2317C168.75 68.4016 168.835 68.6494 168.835 68.975V70.4051H168.637C168.849 69.6193 169.232 69.0246 169.798 68.621C170.357 68.2175 171.079 67.9768 171.957 67.9131C172.191 67.8989 172.382 67.9626 172.517 68.0901C172.651 68.2246 172.729 68.4228 172.743 68.6989C172.771 68.975 172.708 69.1945 172.566 69.3573C172.425 69.5202 172.198 69.6193 171.901 69.6405L171.525 69.683C170.676 69.7609 170.024 70.0299 169.578 70.4901C169.132 70.9503 168.913 71.5733 168.913 72.3733V76.8335C168.913 77.145 168.828 77.3928 168.665 77.5698C168.502 77.7397 168.247 77.8318 167.908 77.8318Z" fill="white"/>
<path d="M178.251 77.8669C177.281 77.8669 176.446 77.6616 175.745 77.2581C175.044 76.8545 174.499 76.274 174.103 75.5306C173.713 74.7873 173.515 73.9094 173.515 72.897C173.515 72.1253 173.628 71.4385 173.848 70.8368C174.067 70.235 174.386 69.7182 174.803 69.2792C175.214 68.8403 175.71 68.5075 176.297 68.281C176.878 68.0544 177.529 67.9341 178.251 67.9341C179.207 67.9341 180.035 68.1394 180.736 68.5429C181.437 68.9465 181.982 69.5199 182.379 70.2633C182.768 70.9996 182.966 71.8846 182.966 72.904C182.966 73.6616 182.853 74.3483 182.634 74.9642C182.414 75.5802 182.096 76.1041 181.678 76.5359C181.267 76.9678 180.765 77.3006 180.184 77.5271C179.603 77.7537 178.959 77.8669 178.251 77.8669ZM178.251 76.3377C178.789 76.3377 179.257 76.2103 179.667 75.9483C180.071 75.6864 180.389 75.297 180.616 74.7873C180.842 74.2775 180.963 73.6474 180.963 72.904C180.963 71.7784 180.715 70.9288 180.219 70.3483C179.724 69.7748 179.065 69.4845 178.258 69.4845C177.706 69.4845 177.232 69.612 176.828 69.8668C176.425 70.1217 176.106 70.504 175.872 71.0138C175.646 71.5235 175.526 72.1536 175.526 72.897C175.526 74.0085 175.773 74.858 176.269 75.4527C176.772 76.0404 177.43 76.3377 178.251 76.3377Z" fill="white"/>
<path d="M189.522 81.4C188.814 81.4 188.135 81.3292 187.469 81.1876C186.811 81.046 186.209 80.8053 185.671 80.4796C185.473 80.3734 185.345 80.246 185.281 80.0973C185.218 79.9486 185.197 79.7929 185.232 79.6371C185.267 79.4814 185.331 79.3398 185.437 79.2265C185.543 79.1061 185.671 79.0282 185.82 78.9928C185.968 78.9504 186.131 78.9787 186.301 79.0707C186.874 79.3822 187.427 79.5946 187.943 79.7079C188.46 79.8212 188.942 79.8778 189.388 79.8778C190.301 79.8778 190.988 79.6442 191.448 79.184C191.908 78.7167 192.135 78.0371 192.135 77.1309V75.1273H192.312C192.113 75.8495 191.703 76.4158 191.073 76.8335C190.443 77.2512 189.72 77.4636 188.892 77.4636C188.028 77.4636 187.278 77.2654 186.634 76.8619C185.989 76.4654 185.494 75.9061 185.14 75.191C184.786 74.476 184.609 73.6406 184.609 72.6848C184.609 71.9627 184.708 71.3184 184.913 70.7379C185.119 70.1644 185.402 69.6618 185.777 69.2441C186.152 68.8264 186.598 68.5007 187.129 68.2742C187.66 68.0476 188.248 67.9272 188.885 67.9272C189.72 67.9272 190.45 68.1396 191.073 68.5573C191.696 68.975 192.099 69.5485 192.283 70.2636L192.085 70.5963V68.968C192.085 68.6423 192.17 68.3945 192.347 68.2246C192.524 68.0547 192.765 67.9697 193.062 67.9697C193.374 67.9697 193.621 68.0547 193.791 68.2246C193.961 68.3945 194.046 68.6423 194.046 68.968V76.8831C194.046 78.3769 193.657 79.5026 192.885 80.2601C192.128 81.0247 191.002 81.4 189.522 81.4ZM189.366 75.9061C189.94 75.9061 190.435 75.7787 190.839 75.5167C191.243 75.2548 191.561 74.8795 191.781 74.3981C192 73.9167 192.113 73.3432 192.113 72.6919C192.113 71.7078 191.866 70.929 191.377 70.3556C190.889 69.7821 190.216 69.4919 189.366 69.4919C188.8 69.4919 188.319 69.6264 187.915 69.8812C187.512 70.1432 187.193 70.5113 186.959 70.9928C186.733 71.4742 186.612 72.0335 186.612 72.6919C186.612 73.6901 186.86 74.4689 187.356 75.0494C187.858 75.6158 188.531 75.9061 189.366 75.9061Z" fill="white"/>
<path d="M197.848 77.8318C197.522 77.8318 197.274 77.7468 197.104 77.5698C196.935 77.3928 196.85 77.145 196.85 76.8335V68.975C196.85 68.6494 196.935 68.4016 197.104 68.2317C197.274 68.0617 197.508 67.9768 197.812 67.9768C198.124 67.9768 198.365 68.0617 198.527 68.2317C198.69 68.4016 198.775 68.6494 198.775 68.975V70.4051H198.577C198.789 69.6193 199.172 69.0246 199.738 68.621C200.297 68.2175 201.02 67.9768 201.897 67.9131C202.131 67.8989 202.322 67.9626 202.457 68.0901C202.591 68.2246 202.669 68.4228 202.683 68.6989C202.712 68.975 202.648 69.1945 202.506 69.3573C202.365 69.5202 202.138 69.6193 201.841 69.6405L201.466 69.683C200.616 69.7609 199.965 70.0299 199.519 70.4901C199.073 70.9503 198.853 71.5733 198.853 72.3733V76.8335C198.853 77.145 198.768 77.3928 198.605 77.5698C198.443 77.7397 198.188 77.8318 197.848 77.8318Z" fill="white"/>
<path d="M207.136 77.8669C206.471 77.8669 205.869 77.7324 205.338 77.4775C204.807 77.2227 204.389 76.8616 204.092 76.4156C203.788 75.9696 203.639 75.4669 203.639 74.9005C203.639 74.1926 203.816 73.6333 204.177 73.2226C204.538 72.812 205.133 72.5147 205.961 72.3377C206.789 72.1607 207.915 72.0757 209.331 72.0757H210.251V73.2934H209.345C208.404 73.2934 207.66 73.343 207.108 73.4279C206.556 73.52 206.166 73.6757 205.94 73.8881C205.713 74.1005 205.593 74.4049 205.593 74.7802C205.593 75.2758 205.763 75.6793 206.103 75.9908C206.442 76.2952 206.917 76.451 207.519 76.451C208 76.451 208.425 76.3377 208.793 76.1041C209.161 75.8775 209.451 75.566 209.664 75.1696C209.876 74.7802 209.989 74.3271 209.989 73.8173V71.5589C209.989 70.8155 209.834 70.2775 209.515 69.9518C209.204 69.6261 208.687 69.4633 207.965 69.4633C207.547 69.4633 207.108 69.5129 206.662 69.6191C206.209 69.7253 205.742 69.9022 205.26 70.15C205.041 70.2562 204.85 70.2845 204.694 70.2492C204.538 70.2138 204.411 70.1217 204.319 69.9872C204.227 69.8527 204.177 69.6969 204.17 69.5341C204.163 69.3713 204.205 69.2084 204.29 69.0527C204.375 68.8969 204.524 68.7766 204.729 68.6987C205.303 68.4226 205.876 68.2244 206.435 68.1111C206.995 67.9907 207.526 67.9341 208.028 67.9341C208.906 67.9341 209.628 68.0686 210.195 68.3447C210.761 68.6208 211.186 69.0385 211.462 69.5978C211.738 70.1642 211.873 70.8863 211.873 71.7784V76.8262C211.873 77.1377 211.795 77.3855 211.639 77.5625C211.483 77.7395 211.25 77.8244 210.952 77.8244C210.662 77.8244 210.435 77.7395 210.266 77.5625C210.096 77.3855 210.011 77.1377 210.011 76.8262V75.5519H210.188C210.081 76.0333 209.89 76.451 209.607 76.7979C209.324 77.1448 208.977 77.4067 208.559 77.5908C208.149 77.7749 207.674 77.8669 207.136 77.8669Z" fill="white"/>
<path d="M215.632 77.8315C215.321 77.8315 215.073 77.7466 214.903 77.5696C214.733 77.3926 214.648 77.1448 214.648 76.8333V68.9748C214.648 68.6491 214.733 68.4013 214.903 68.2314C215.073 68.0615 215.306 67.9766 215.611 67.9766C215.922 67.9766 216.163 68.0615 216.326 68.2314C216.489 68.4013 216.574 68.6491 216.574 68.9748V70.5819L216.354 70.15C216.616 69.4562 217.02 68.9111 217.572 68.5217C218.124 68.1323 218.783 67.9341 219.554 67.9341C220.354 67.9341 220.998 68.1252 221.501 68.5005C221.997 68.8828 222.337 69.4633 222.521 70.2492H222.244C222.492 69.527 222.917 68.9606 223.519 68.55C224.121 68.1394 224.822 67.9341 225.622 67.9341C226.358 67.9341 226.96 68.0757 227.427 68.3589C227.901 68.6421 228.248 69.0668 228.489 69.6332C228.73 70.1996 228.843 70.9217 228.843 71.7854V76.8333C228.843 77.1448 228.758 77.3926 228.581 77.5696C228.404 77.7466 228.156 77.8315 227.845 77.8315C227.533 77.8315 227.285 77.7466 227.115 77.5696C226.945 77.3926 226.86 77.1448 226.86 76.8333V71.8846C226.86 71.0704 226.719 70.4757 226.436 70.1005C226.152 69.7182 225.692 69.5341 225.048 69.5341C224.326 69.5341 223.76 69.7819 223.342 70.2775C222.924 70.7731 222.712 71.4598 222.712 72.3377V76.8333C222.712 77.1448 222.627 77.3926 222.457 77.5696C222.287 77.7466 222.046 77.8315 221.728 77.8315C221.416 77.8315 221.168 77.7466 220.991 77.5696C220.814 77.3926 220.729 77.1448 220.729 76.8333V71.8846C220.729 71.0704 220.595 70.4757 220.319 70.1005C220.043 69.7182 219.583 69.5341 218.945 69.5341C218.223 69.5341 217.657 69.7819 217.246 70.2775C216.836 70.7731 216.63 71.4598 216.63 72.3377V76.8333C216.637 77.4988 216.305 77.8315 215.632 77.8315Z" fill="white"/>
<path d="M234.676 77.8669C234.011 77.8669 233.409 77.7324 232.878 77.4775C232.347 77.2156 231.929 76.8616 231.632 76.4156C231.328 75.9696 231.179 75.4669 231.179 74.9005C231.179 74.1926 231.356 73.6333 231.717 73.2226C232.078 72.812 232.673 72.5147 233.501 72.3377C234.329 72.1607 235.455 72.0757 236.871 72.0757H237.791V73.2934H236.885C235.944 73.2934 235.2 73.343 234.648 73.4279C234.096 73.52 233.706 73.6757 233.48 73.8881C233.253 74.1005 233.133 74.4049 233.133 74.7802C233.133 75.2758 233.303 75.6793 233.643 75.9908C233.983 76.2952 234.457 76.451 235.059 76.451C235.54 76.451 235.965 76.3377 236.333 76.1041C236.701 75.8775 236.991 75.566 237.204 75.1696C237.423 74.7802 237.529 74.3271 237.529 73.8173V71.5589C237.529 70.8155 237.374 70.2775 237.055 69.9518C236.744 69.6261 236.227 69.4633 235.505 69.4633C235.087 69.4633 234.648 69.5129 234.202 69.6191C233.749 69.7253 233.282 69.9022 232.8 70.15C232.581 70.2562 232.39 70.2845 232.234 70.2492C232.078 70.2138 231.951 70.1217 231.859 69.9872C231.767 69.8527 231.717 69.6969 231.71 69.5341C231.703 69.3713 231.745 69.2084 231.83 69.0527C231.915 68.8969 232.064 68.7766 232.269 68.6987C232.843 68.4226 233.416 68.2244 233.975 68.1111C234.535 67.9907 235.066 67.9341 235.568 67.9341C236.446 67.9341 237.168 68.0686 237.735 68.3447C238.301 68.6208 238.726 69.0385 239.002 69.5978C239.278 70.1642 239.413 70.8863 239.413 71.7784V76.8262C239.413 77.1377 239.335 77.3855 239.179 77.5625C239.023 77.7395 238.79 77.8244 238.492 77.8244C238.202 77.8244 237.975 77.7395 237.806 77.5625C237.636 77.3855 237.551 77.1377 237.551 76.8262V75.5519H237.728C237.621 76.0333 237.43 76.451 237.147 76.7979C236.864 77.1448 236.517 77.4067 236.099 77.5908C235.696 77.7749 235.214 77.8669 234.676 77.8669Z" fill="white"/>
<path d="M243.158 77.8318C242.832 77.8318 242.584 77.7468 242.415 77.5698C242.245 77.3928 242.16 77.145 242.16 76.8335V68.975C242.16 68.6494 242.245 68.4016 242.415 68.2317C242.584 68.0617 242.818 67.9768 243.123 67.9768C243.434 67.9768 243.675 68.0617 243.838 68.2317C244 68.4016 244.085 68.6494 244.085 68.975V70.4051H243.887C244.1 69.6193 244.482 69.0246 245.048 68.621C245.607 68.2175 246.33 67.9768 247.208 67.9131C247.441 67.8989 247.632 67.9626 247.767 68.0901C247.901 68.2246 247.979 68.4228 247.993 68.6989C248.022 68.975 247.958 69.1945 247.816 69.3573C247.675 69.5202 247.448 69.6193 247.151 69.6405L246.776 69.683C245.926 69.7609 245.275 70.0299 244.829 70.4901C244.383 70.9503 244.163 71.5733 244.163 72.3733V76.8335C244.163 77.145 244.078 77.3928 243.915 77.5698C243.753 77.7397 243.505 77.8318 243.158 77.8318Z" fill="white"/>
<path d="M158.562 95.4958C157.635 95.4958 156.835 95.2905 156.169 94.8799C155.504 94.4693 154.987 93.8887 154.626 93.1312C154.265 92.3808 154.088 91.5029 154.088 90.5117C154.088 89.7542 154.187 89.0745 154.392 88.4798C154.598 87.8851 154.888 87.3754 155.277 86.9577C155.66 86.54 156.134 86.2143 156.693 85.9878C157.253 85.7612 157.876 85.6479 158.569 85.6479C159.051 85.6479 159.553 85.7329 160.063 85.8957C160.573 86.0586 161.04 86.3347 161.458 86.7099C161.55 86.7878 161.607 86.8798 161.635 86.986C161.663 87.0922 161.656 87.1913 161.614 87.2904C161.571 87.3896 161.515 87.4674 161.437 87.5241C161.359 87.5807 161.267 87.6161 161.153 87.6232C161.04 87.6303 160.927 87.5807 160.814 87.4745C160.445 87.1772 160.077 86.9648 159.702 86.8586C159.327 86.7453 158.966 86.6887 158.612 86.6887C158.074 86.6887 157.607 86.7736 157.196 86.9435C156.792 87.1135 156.445 87.3612 156.162 87.6869C155.879 88.0126 155.667 88.4161 155.525 88.8975C155.383 89.379 155.306 89.9241 155.306 90.54C155.306 91.7719 155.589 92.7347 156.162 93.4356C156.729 94.1365 157.55 94.4834 158.605 94.4834C158.959 94.4834 159.32 94.4268 159.695 94.3135C160.07 94.2003 160.438 93.9949 160.807 93.6976C160.927 93.5914 161.04 93.5418 161.146 93.5489C161.26 93.556 161.352 93.5843 161.43 93.648C161.507 93.7047 161.564 93.7826 161.599 93.8817C161.635 93.9808 161.635 94.0799 161.607 94.1861C161.578 94.2923 161.522 94.3843 161.43 94.4622C161.026 94.8445 160.566 95.1135 160.056 95.2693C159.546 95.425 159.044 95.5029 158.562 95.4958Z" fill="white"/>
<path d="M167.278 95.4958C166.386 95.4958 165.614 95.2905 164.963 94.887C164.311 94.4834 163.801 93.91 163.44 93.1808C163.079 92.4516 162.902 91.5737 162.902 90.5684C162.902 89.825 163.001 89.1453 163.207 88.5436C163.412 87.9418 163.702 87.425 164.092 86.986C164.474 86.5471 164.941 86.2143 165.486 85.9878C166.032 85.7612 166.626 85.6479 167.285 85.6479C168.191 85.6479 168.97 85.8533 169.621 86.2568C170.272 86.6604 170.782 87.2338 171.143 87.9772C171.504 88.7205 171.681 89.5843 171.681 90.5825C171.681 91.34 171.582 92.0197 171.377 92.6215C171.171 93.2233 170.881 93.7401 170.492 94.1719C170.102 94.6038 169.642 94.9365 169.104 95.1631C168.566 95.3826 167.957 95.5029 167.278 95.4958ZM167.278 94.4976C167.929 94.4976 168.495 94.3418 168.977 94.0374C169.458 93.733 169.819 93.2799 170.074 92.6923C170.329 92.1047 170.456 91.3967 170.456 90.5684C170.456 89.3223 170.173 88.3595 169.6 87.6798C169.033 87.0002 168.255 86.6604 167.271 86.6604C166.626 86.6604 166.067 86.8161 165.593 87.1205C165.111 87.425 164.75 87.871 164.495 88.4586C164.24 89.0462 164.113 89.7471 164.113 90.5684C164.113 91.8285 164.403 92.7914 164.977 93.471C165.557 94.1578 166.322 94.4976 167.278 94.4976Z" fill="white"/>
<path d="M174.874 95.4604C174.676 95.4604 174.527 95.4109 174.421 95.3047C174.315 95.1985 174.265 95.0498 174.265 94.8516V86.3134C174.265 86.1011 174.315 85.9453 174.421 85.8391C174.527 85.7329 174.676 85.6833 174.874 85.6833C175.058 85.6833 175.2 85.7329 175.299 85.8391C175.398 85.9453 175.447 86.1011 175.447 86.3134V88.1754L175.228 88.0409C175.462 87.2692 175.865 86.6745 176.424 86.2639C176.984 85.8533 177.663 85.6479 178.449 85.6479C179.285 85.6479 179.957 85.8533 180.46 86.2568C180.963 86.6604 181.295 87.2692 181.451 88.0834H181.154C181.373 87.3542 181.791 86.7595 182.4 86.3134C183.009 85.8674 183.724 85.6479 184.552 85.6479C185.26 85.6479 185.848 85.7825 186.308 86.0586C186.775 86.3347 187.122 86.7453 187.356 87.2834C187.589 87.8285 187.71 88.5082 187.71 89.3365V94.8516C187.71 95.0498 187.66 95.1985 187.554 95.3047C187.448 95.4109 187.299 95.4604 187.101 95.4604C186.917 95.4604 186.775 95.4109 186.669 95.3047C186.563 95.1985 186.513 95.0498 186.513 94.8516V89.4356C186.513 88.4798 186.343 87.786 186.01 87.3471C185.678 86.9081 185.118 86.6887 184.332 86.6887C183.497 86.6887 182.825 86.9789 182.329 87.5595C181.833 88.14 181.586 88.9329 181.586 89.9241V94.8516C181.586 95.0498 181.536 95.1985 181.43 95.3047C181.324 95.4109 181.182 95.4604 180.998 95.4604C180.8 95.4604 180.651 95.4109 180.545 95.3047C180.439 95.1985 180.389 95.0498 180.389 94.8516V89.4356C180.389 88.4798 180.219 87.786 179.886 87.3471C179.554 86.9081 179.001 86.6887 178.23 86.6887C177.38 86.6887 176.708 86.9789 176.205 87.5595C175.709 88.14 175.462 88.9329 175.462 89.9241V94.8516C175.462 95.2551 175.27 95.4604 174.874 95.4604Z" fill="white"/>
<path d="M199.242 95.4602C199.044 95.4602 198.881 95.4106 198.754 95.3044C198.627 95.1983 198.506 95.0425 198.4 94.8301L194.867 86.5822C194.804 86.4265 194.782 86.2778 194.796 86.1433C194.811 86.0088 194.874 85.8955 194.973 85.8105C195.073 85.7256 195.214 85.6831 195.398 85.6831C195.568 85.6831 195.696 85.7185 195.781 85.8035C195.865 85.8813 195.943 86.0088 196.007 86.1787L199.504 94.6177H199.016L202.527 86.1787C202.591 86.0088 202.669 85.8813 202.761 85.8035C202.853 85.7256 202.981 85.6831 203.158 85.6831C203.335 85.6831 203.455 85.7256 203.54 85.8105C203.625 85.8955 203.674 86.0017 203.689 86.1362C203.703 86.2636 203.674 86.4123 203.611 86.5681L200.078 94.8372C200 95.0496 199.887 95.2053 199.745 95.3115C199.589 95.4106 199.427 95.4602 199.242 95.4602Z" fill="white"/>
<path d="M209.473 95.4958C208.581 95.4958 207.809 95.2905 207.158 94.887C206.506 94.4834 205.997 93.91 205.635 93.1808C205.274 92.4516 205.097 91.5737 205.097 90.5684C205.097 89.825 205.197 89.1453 205.402 88.5436C205.607 87.9418 205.897 87.425 206.287 86.986C206.669 86.5471 207.136 86.2143 207.682 85.9878C208.227 85.7612 208.821 85.6479 209.48 85.6479C210.386 85.6479 211.165 85.8533 211.816 86.2568C212.467 86.6604 212.977 87.2338 213.338 87.9772C213.699 88.7205 213.876 89.5843 213.876 90.5825C213.876 91.34 213.777 92.0197 213.572 92.6215C213.367 93.2232 213.076 93.7401 212.687 94.1719C212.297 94.6038 211.837 94.9365 211.299 95.1631C210.761 95.3896 210.152 95.5029 209.473 95.4958ZM209.473 94.4976C210.124 94.4976 210.69 94.3418 211.172 94.0374C211.653 93.733 212.014 93.2799 212.269 92.6923C212.524 92.1047 212.651 91.3967 212.651 90.5684C212.651 89.3223 212.368 88.3595 211.795 87.6798C211.228 87.0002 210.45 86.6604 209.466 86.6604C208.821 86.6604 208.262 86.8161 207.788 87.1205C207.306 87.425 206.945 87.871 206.69 88.4586C206.435 89.0462 206.308 89.7471 206.308 90.5684C206.308 91.8285 206.598 92.7914 207.172 93.471C207.752 94.1578 208.517 94.4976 209.473 94.4976Z" fill="white"/>
<path d="M220.305 95.4958C219.377 95.4958 218.577 95.2905 217.912 94.8799C217.246 94.4693 216.729 93.8887 216.368 93.1312C216.007 92.3808 215.83 91.5029 215.83 90.5117C215.83 89.7542 215.929 89.0745 216.135 88.4798C216.34 87.8851 216.63 87.3754 217.02 86.9577C217.402 86.54 217.876 86.2143 218.436 85.9878C218.995 85.7612 219.618 85.6479 220.312 85.6479C220.793 85.6479 221.296 85.7329 221.806 85.8957C222.315 86.0586 222.783 86.3347 223.2 86.7099C223.292 86.7878 223.349 86.8798 223.377 86.986C223.406 87.0922 223.399 87.1913 223.356 87.2904C223.314 87.3896 223.257 87.4674 223.179 87.5241C223.101 87.5807 223.009 87.6161 222.896 87.6232C222.783 87.6303 222.669 87.5807 222.549 87.4745C222.181 87.1772 221.813 86.9648 221.437 86.8586C221.062 86.7453 220.701 86.6887 220.347 86.6887C219.809 86.6887 219.342 86.7736 218.931 86.9435C218.528 87.1135 218.181 87.3612 217.898 87.6869C217.614 88.0126 217.402 88.4161 217.26 88.8975C217.119 89.379 217.041 89.9241 217.041 90.54C217.041 91.7719 217.324 92.7347 217.898 93.4356C218.464 94.1365 219.285 94.4834 220.34 94.4834C220.694 94.4834 221.055 94.4268 221.43 94.3135C221.806 94.2003 222.174 93.9949 222.542 93.6976C222.662 93.5914 222.776 93.5418 222.889 93.5489C223.002 93.556 223.094 93.5843 223.172 93.648C223.25 93.7118 223.307 93.7826 223.342 93.8817C223.377 93.9808 223.377 94.0799 223.349 94.1861C223.321 94.2923 223.264 94.3843 223.172 94.4622C222.768 94.8445 222.308 95.1135 221.799 95.2693C221.289 95.425 220.793 95.5029 220.305 95.4958Z" fill="white"/>
<path d="M230.457 84.161C230.499 84.2389 230.513 84.3026 230.492 84.3663C230.471 84.4301 230.428 84.4654 230.365 84.4938C230.301 84.5221 230.237 84.5292 230.174 84.5221C230.11 84.515 230.053 84.4725 230.004 84.4159L228.743 82.6672L227.54 84.4513C227.497 84.515 227.441 84.5504 227.377 84.5646C227.313 84.5787 227.25 84.5716 227.186 84.5433C227.122 84.515 227.08 84.4725 227.058 84.4159C227.037 84.3593 227.044 84.2885 227.087 84.2106L228.227 82.3132C228.29 82.207 228.361 82.1221 228.446 82.0796C228.531 82.03 228.63 82.0088 228.736 82.0088C228.843 82.0088 228.942 82.03 229.027 82.0725C229.112 82.115 229.189 82.1929 229.253 82.2991L230.457 84.161Z" fill="white"/>
<path d="M230.329 95.3959C229.367 95.58 228.496 95.5446 227.731 95.2897C226.967 95.0349 226.322 94.5818 225.82 93.9304C225.317 93.2791 224.963 92.4578 224.779 91.4667C224.595 90.4897 224.623 89.6047 224.857 88.8047C225.09 88.0047 225.501 87.3392 226.089 86.8012C226.676 86.2631 227.398 85.9162 228.255 85.7534C228.885 85.633 229.459 85.633 229.983 85.7534C230.506 85.8737 230.974 86.1003 231.391 86.4259C231.809 86.7516 232.156 87.1835 232.439 87.7074C232.722 88.2313 232.935 88.8472 233.069 89.5552C233.105 89.7322 233.083 89.8808 232.998 89.987C232.921 90.0932 232.793 90.164 232.63 90.1994L225.664 91.5162L225.501 90.6454L232.269 89.3711L232.007 89.6826C231.866 88.9392 231.639 88.3233 231.321 87.8419C231.002 87.3604 230.606 87.0206 230.117 86.8224C229.629 86.6242 229.076 86.5817 228.446 86.695C227.738 86.8295 227.172 87.1056 226.747 87.5233C226.322 87.941 226.039 88.4649 225.905 89.0808C225.77 89.6968 225.77 90.3835 225.912 91.1269L225.933 91.226C226.167 92.4578 226.648 93.3499 227.377 93.9021C228.106 94.4543 229.02 94.6242 230.11 94.4119C230.584 94.3198 231.037 94.1711 231.455 93.9587C231.873 93.7464 232.269 93.449 232.63 93.0596C232.744 92.9463 232.857 92.8756 232.977 92.8543C233.098 92.8331 233.211 92.8472 233.303 92.8897C233.402 92.9393 233.473 93.0101 233.522 93.095C233.572 93.1871 233.586 93.2933 233.565 93.4065C233.537 93.5269 233.473 93.6402 233.36 93.7534C233.013 94.1641 232.567 94.511 232.021 94.7942C231.469 95.0915 230.903 95.2897 230.329 95.3959Z" fill="white"/>
<path d="M237.313 91.2061V89.6649C237.313 89.5482 237.343 89.4431 237.401 89.3497C237.459 89.2505 237.556 89.1658 237.69 89.0958L240.868 87.4583C241.125 87.3299 241.426 87.2248 241.77 87.1431C241.601 87.1022 241.441 87.0585 241.289 87.0118C241.143 86.9592 241.003 86.8979 240.868 86.8279L237.69 85.1992C237.556 85.1291 237.459 85.0474 237.401 84.954C237.343 84.8548 237.313 84.7468 237.313 84.63V83.0889L244.248 86.7053V87.5809L237.313 91.2061Z" fill="white"/>
<path d="M150.158 70.9126V72.4537C150.158 72.5705 150.129 72.6755 150.07 72.7689C150.012 72.8682 149.916 72.9528 149.781 73.0229L146.603 74.6603C146.346 74.7887 146.045 74.8938 145.701 74.9756C145.87 75.0164 146.031 75.0602 146.182 75.1069C146.328 75.1594 146.469 75.2207 146.603 75.2908L149.781 76.9195C149.916 76.9895 150.012 77.0713 150.07 77.1647C150.129 77.2639 150.158 77.3719 150.158 77.4886V79.0298L143.223 75.4134V74.5377L150.158 70.9126Z" fill="white"/>
<defs>
<filter id="filter0_d_2005_70" x="0" y="0" width="346" height="169" filterUnits="userSpaceOnUse" color-interpolation-filters="sRGB">
<feFlood flood-opacity="0" result="BackgroundImageFix"/>
<feColorMatrix in="SourceAlpha" type="matrix" values="0 0 0 0 0 0 0 0 0 0 0 0 0 0 0 0 0 0 127 0" result="hardAlpha"/>
<feOffset dy="4"/>
<feGaussianBlur stdDeviation="2"/>
<feComposite in2="hardAlpha" operator="out"/>
<feColorMatrix type="matrix" values="0 0 0 0 0 0 0 0 0 0 0 0 0 0 0 0 0 0 0.25 0"/>
<feBlend mode="normal" in2="BackgroundImageFix" result="effect1_dropShadow_2005_70"/>
<feBlend mode="normal" in="SourceGraphic" in2="effect1_dropShadow_2005_70" result="shape"/>
</filter>
<linearGradient id="paint0_linear_2005_70" x1="387.459" y1="-165.798" x2="-34.1791" y2="-214.61" gradientUnits="userSpaceOnUse">
<stop stop-color="#ED6D1D"/>
<stop offset="0.404403" stop-color="#E50071"/>
<stop offset="1" stop-color="#7404BF"/>
</linearGradient>
</defs>
</svg>
