<svg width="40" height="40" viewBox="0 0 40 40" fill="none" xmlns="http://www.w3.org/2000/svg">
<rect x="0.5" y="0.5" width="39" height="39" rx="8.5" fill="#FAF1F1" stroke="#FAF1F1"/>
<path d="M29.5104 13.3026L29.6114 13.4905C29.6828 13.6232 29.7523 13.7502 29.8197 13.8734C29.9925 14.1892 30.1517 14.4802 30.2948 14.7794C30.3616 14.9115 30.4402 15.0017 30.5353 15.0628C30.6312 15.1245 30.7523 15.1619 30.9119 15.1746C31.2262 15.199 31.5444 15.2478 31.8604 15.2963C32.0245 15.3214 32.188 15.3465 32.3501 15.3681L32.5832 15.399L32.4154 15.5637C32.3398 15.6378 32.265 15.7117 32.1905 15.7853C31.9161 16.0562 31.6465 16.3224 31.365 16.5767L31.3644 16.5773C31.2559 16.674 31.191 16.7661 31.1584 16.8614C31.1262 16.956 31.1221 17.0642 31.1529 17.1997C31.2321 17.528 31.2858 17.8581 31.3425 18.2075C31.3644 18.3419 31.3867 18.4791 31.4111 18.6201L31.4491 18.8401L31.2481 18.743C31.1059 18.6742 30.9672 18.6083 30.8313 18.5437C30.4985 18.3854 30.1823 18.2351 29.8722 18.0713M29.5104 13.3026L29.9252 17.9695M29.5104 13.3026L29.4093 13.4905C29.3487 13.6033 29.2899 13.7116 29.2329 13.8166C29.0407 14.1706 28.8691 14.4868 28.7156 14.8079M29.5104 13.3026L28.819 14.8576M29.8722 18.0713C29.872 18.0712 29.8718 18.0711 29.8716 18.071L29.9252 17.9695M29.8722 18.0713C29.8724 18.0714 29.8726 18.0715 29.8728 18.0716L29.9252 17.9695M29.8722 18.0713C29.7419 18.0046 29.6245 17.9743 29.5113 17.9753C29.398 17.9762 29.2807 18.0085 29.1505 18.0795L29.1501 18.0797C28.8344 18.2503 28.507 18.4062 28.1599 18.5715C28.0367 18.6302 27.911 18.6901 27.7825 18.7522L27.5777 18.8512L27.6199 18.6276C27.6557 18.4378 27.6867 18.2525 27.717 18.071C27.7688 17.7614 27.8188 17.4628 27.8876 17.172L27.8878 17.1713C27.9179 17.0471 27.9121 16.9488 27.8814 16.8631C27.8501 16.7759 27.7895 16.6919 27.694 16.6032C27.4148 16.3436 27.1472 16.0724 26.875 15.7965C26.7984 15.7189 26.7215 15.6409 26.6438 15.5627L26.4819 15.3996L26.7095 15.3681C26.822 15.3526 26.9359 15.3364 27.0511 15.3201C27.4092 15.2693 27.7791 15.2169 28.1542 15.175M29.9252 17.9695C29.6388 17.8227 29.382 17.8227 29.0956 17.9787C28.7826 18.1478 28.459 18.3019 28.1128 18.4668C28.0301 18.5062 27.9462 18.5462 27.8608 18.5871C27.8558 18.6146 27.8506 18.6423 27.8454 18.6701L27.7326 18.6488L27.6827 18.5455C27.708 18.5333 27.7333 18.5211 27.7583 18.5091C27.7845 18.3636 27.8081 18.2222 27.8313 18.0838C27.8825 17.7775 27.9312 17.4862 27.9993 17.1984C28.0684 16.9138 27.9795 16.7119 27.7721 16.5191C27.4949 16.2614 27.2296 15.9926 26.9577 15.7169C26.914 15.6727 26.8702 15.6282 26.8261 15.5836C26.7977 15.5876 26.7693 15.5915 26.741 15.5955L26.7252 15.4818L26.8066 15.4009C26.8269 15.4213 26.8471 15.4417 26.8672 15.462C26.9339 15.4526 27.001 15.4431 27.0685 15.4335C27.4262 15.3828 27.7939 15.3307 28.1672 15.289M28.1542 15.175C28.1541 15.175 28.154 15.175 28.1539 15.175L28.1672 15.289M28.1542 15.175C28.1543 15.175 28.1544 15.175 28.1545 15.175L28.1672 15.289M28.1542 15.175C28.3 15.158 28.4124 15.1209 28.5008 15.0632C28.5883 15.0062 28.6592 14.9247 28.7156 14.8079M28.1672 15.289C28.4832 15.2523 28.6906 15.1238 28.819 14.8576M28.819 14.8576L28.7155 14.8081C28.7155 14.808 28.7156 14.808 28.7156 14.8079M28.819 14.8576L28.7157 14.8077C28.7156 14.8078 28.7156 14.8078 28.7156 14.8079M30.4597 13.3768C30.5986 13.6405 30.7391 13.9071 30.8917 14.1701C30.9376 14.2545 31.0139 14.3284 31.0946 14.384C31.1764 14.4404 31.2727 14.4849 31.3659 14.5022L31.3659 14.5022L31.3674 14.5025C31.69 14.5582 32.0147 14.6 32.3356 14.6413C32.3614 14.6446 32.3872 14.6479 32.4129 14.6512C32.76 14.696 33.1026 14.7415 33.4396 14.8051L33.4399 14.8051C33.5232 14.8206 33.6261 14.8608 33.7143 14.9151C33.8066 14.972 33.8612 15.0308 33.8771 15.0727C33.8917 15.1112 33.8885 15.1838 33.8525 15.2779C33.8181 15.3677 33.7623 15.4545 33.7059 15.5106L33.7053 15.5112C33.2447 15.9758 32.7441 16.4138 32.2307 16.8543L32.2307 16.8543L32.2297 16.8552C32.1317 16.9411 32.0598 17.0327 32.0228 17.1405C31.9856 17.2487 31.9878 17.3606 32.0155 17.4798C32.0247 17.5257 32.034 17.5714 32.0432 17.6171C32.1523 18.1572 32.2596 18.6885 32.3502 19.2275C32.3789 19.4056 32.3844 19.591 32.3271 19.7357L32.3267 19.7368C32.2935 19.823 32.2235 19.8782 32.1205 19.8983C32.0142 19.9189 31.8739 19.9006 31.7222 19.8302C31.4824 19.7153 31.2424 19.5969 31.0015 19.478C30.6127 19.2862 30.2215 19.0932 29.8251 18.9118C29.7354 18.8702 29.6281 18.8553 29.5286 18.8566C29.4284 18.8578 29.3252 18.8758 29.2407 18.9094L29.2407 18.9093L29.2361 18.9114C28.9083 19.0591 28.5858 19.2159 28.2648 19.3731C28.2296 19.3904 28.1944 19.4077 28.1591 19.4249C27.8741 19.5646 27.5899 19.704 27.3018 19.8379C27.0991 19.9191 26.9345 19.903 26.8273 19.8333C26.7232 19.7655 26.6453 19.6287 26.652 19.4047C26.676 19.2725 26.7 19.1376 26.7244 19.0004C26.8101 18.5181 26.9007 18.0088 27.015 17.4989L27.015 17.4989L27.0154 17.4971C27.0426 17.3654 27.045 17.2424 27.0056 17.1251C26.9661 17.0077 26.8889 16.9087 26.7796 16.8171C26.4727 16.5546 26.1792 16.2868 25.886 16.0193C25.7081 15.8569 25.5303 15.6947 25.3497 15.5338L25.3492 15.5334C25.258 15.4531 25.188 15.3778 25.1488 15.2996C25.1125 15.227 25.1012 15.149 25.1347 15.0517C25.1993 14.8725 25.3608 14.8058 25.621 14.7789L25.621 14.7789L25.6228 14.7787C26.3146 14.696 27.0172 14.6041 27.7103 14.4937C27.7968 14.4811 27.8847 14.4399 27.9572 14.3896C28.0294 14.3396 28.0982 14.2726 28.1391 14.1973C28.2892 13.9346 28.4294 13.6684 28.5684 13.4046C28.5858 13.3716 28.6032 13.3387 28.6205 13.3058C28.7773 13.0086 28.934 12.715 29.1052 12.4287C29.1449 12.3622 29.2168 12.2862 29.3002 12.227C29.3859 12.1662 29.466 12.1357 29.5202 12.1357C29.5745 12.1357 29.6545 12.1662 29.7403 12.227C29.8237 12.2862 29.8956 12.3622 29.9353 12.4287L29.9357 12.4294C30.1066 12.7107 30.2607 12.9994 30.415 13.292C30.4299 13.3202 30.4448 13.3485 30.4597 13.3768ZM31.1711 18.5786C31.1756 18.6053 31.1802 18.6321 31.1849 18.6592L31.298 18.6397L31.3479 18.5364C31.3233 18.5244 31.2988 18.5126 31.2744 18.5009C31.2585 18.4059 31.2434 18.313 31.2286 18.2218C31.1721 17.8739 31.1194 17.5499 31.0412 17.226C30.9721 16.923 31.0511 16.7027 31.2881 16.4916L31.1711 18.5786Z" fill="url(#paint0_linear_28_8)" stroke="#FAF1F1" stroke-width="0.229485"/>
<path d="M19.5104 7.28165L19.6114 7.4695C19.6828 7.60223 19.7523 7.72919 19.8197 7.85237C19.9925 8.16823 20.1517 8.45916 20.2948 8.75842C20.3616 8.89047 20.4402 8.9807 20.5353 9.04183C20.6312 9.10347 20.7523 9.1409 20.9119 9.15363C21.2262 9.17798 21.5444 9.2268 21.8604 9.27528C22.0245 9.30045 22.188 9.32554 22.3501 9.34706L22.5832 9.37801L22.4154 9.54271C22.3398 9.61682 22.265 9.69072 22.1905 9.76427C21.9161 10.0352 21.6465 10.3014 21.365 10.5557L21.3644 10.5563C21.2559 10.653 21.191 10.7451 21.1584 10.8404C21.1262 10.935 21.1221 11.0432 21.1529 11.1787C21.2321 11.507 21.2858 11.8371 21.3425 12.1865C21.3644 12.3209 21.3867 12.4581 21.4111 12.5991L21.4491 12.8191L21.2481 12.722C21.1059 12.6533 20.9672 12.5873 20.8313 12.5227C20.4985 12.3644 20.1823 12.2141 19.8722 12.0503M19.5104 7.28165L19.9252 11.9485M19.5104 7.28165L19.4093 7.4695C19.3487 7.58226 19.2899 7.69057 19.2329 7.79556C19.0407 8.14962 18.8691 8.46581 18.7156 8.7869M19.5104 7.28165L18.819 8.83657M19.8722 12.0503C19.872 12.0502 19.8718 12.0501 19.8716 12.05L19.9252 11.9485M19.8722 12.0503C19.8724 12.0504 19.8726 12.0505 19.8728 12.0506L19.9252 11.9485M19.8722 12.0503C19.7419 11.9836 19.6245 11.9533 19.5113 11.9543C19.398 11.9552 19.2807 11.9875 19.1505 12.0585L19.1501 12.0587C18.8344 12.2293 18.507 12.3852 18.1599 12.5505C18.0367 12.6092 17.911 12.6691 17.7825 12.7312L17.5777 12.8302L17.6199 12.6066C17.6557 12.4168 17.6867 12.2315 17.717 12.05C17.7688 11.7404 17.8188 11.4418 17.8876 11.151L17.8878 11.1503C17.9179 11.0261 17.9121 10.9278 17.8814 10.8421C17.8501 10.7549 17.7895 10.6709 17.694 10.5822C17.4148 10.3226 17.1472 10.0514 16.875 9.77546C16.7984 9.69785 16.7215 9.61987 16.6438 9.54166L16.4819 9.37864L16.7095 9.34714C16.822 9.33157 16.9359 9.31541 17.0511 9.29908C17.4092 9.24831 17.7791 9.19586 18.1542 9.15402M19.9252 11.9485C19.6388 11.8017 19.382 11.8017 19.0956 11.9577C18.7826 12.1268 18.459 12.2809 18.1128 12.4458C18.0301 12.4852 17.9462 12.5252 17.8608 12.5662C17.8558 12.5936 17.8506 12.6213 17.8454 12.6491L17.7326 12.6278L17.6827 12.5245C17.708 12.5123 17.7333 12.5001 17.7583 12.4881C17.7845 12.3426 17.8081 12.2012 17.8313 12.0628C17.8825 11.7566 17.9312 11.4652 17.9993 11.1774C18.0684 10.8929 17.9795 10.6909 17.7721 10.4981C17.4949 10.2404 17.2296 9.97158 16.9577 9.69592C16.914 9.65166 16.8702 9.60721 16.8261 9.56261C16.7977 9.56659 16.7693 9.57054 16.741 9.57446L16.7252 9.4608L16.8066 9.37995C16.8269 9.40033 16.8471 9.42068 16.8672 9.44098C16.9339 9.43159 17.001 9.42208 17.0685 9.41251C17.4262 9.36179 17.7939 9.30966 18.1672 9.26802M18.1542 9.15402C18.1541 9.15403 18.154 9.15404 18.1539 9.15405L18.1672 9.26802M18.1542 9.15402C18.1543 9.15401 18.1544 9.154 18.1545 9.15399L18.1672 9.26802M18.1542 9.15402C18.3 9.13705 18.4124 9.09987 18.5008 9.04223C18.5883 8.98521 18.6592 8.90374 18.7156 8.7869M18.1672 9.26802C18.4832 9.2313 18.6906 9.10279 18.819 8.83657M18.819 8.83657L18.7155 8.78707C18.7155 8.78701 18.7156 8.78696 18.7156 8.7869M18.819 8.83657L18.7157 8.78673C18.7156 8.78678 18.7156 8.78684 18.7156 8.7869M20.4597 7.35576C20.5986 7.61951 20.7391 7.88615 20.8917 8.14912C20.9376 8.23354 21.0139 8.30742 21.0946 8.36305C21.1764 8.41939 21.2727 8.46388 21.3659 8.48121L21.3659 8.48122L21.3674 8.48147C21.69 8.53717 22.0147 8.57896 22.3356 8.62027C22.3614 8.62359 22.3872 8.6269 22.4129 8.63022C22.76 8.675 23.1026 8.72052 23.4396 8.78409L23.4399 8.78414C23.5232 8.79962 23.6261 8.83979 23.7143 8.89411C23.8066 8.95096 23.8612 9.00983 23.8771 9.05172C23.8917 9.09025 23.8885 9.1628 23.8525 9.25686C23.8181 9.34674 23.7623 9.43349 23.7059 9.48965L23.7053 9.49017C23.2447 9.95478 22.7441 10.3928 22.2307 10.8333L22.2307 10.8333L22.2297 10.8342C22.1317 10.9201 22.0598 11.0117 22.0228 11.1195C21.9856 11.2277 21.9878 11.3396 22.0155 11.4588C22.0247 11.5047 22.034 11.5504 22.0432 11.5961C22.1523 12.1362 22.2596 12.6675 22.3502 13.2065C22.3789 13.3846 22.3844 13.57 22.3271 13.7147L22.3267 13.7158C22.2935 13.802 22.2235 13.8572 22.1205 13.8773C22.0142 13.8979 21.8739 13.8796 21.7222 13.8092C21.4824 13.6943 21.2424 13.5759 21.0015 13.4571C20.6127 13.2652 20.2215 13.0722 19.8251 12.8908C19.7354 12.8492 19.6281 12.8343 19.5286 12.8356C19.4284 12.8368 19.3252 12.8548 19.2407 12.8884L19.2407 12.8883L19.2361 12.8904C18.9083 13.0381 18.5858 13.1949 18.2648 13.3521C18.2296 13.3694 18.1944 13.3867 18.1591 13.4039C17.8741 13.5436 17.5899 13.683 17.3018 13.8169C17.0991 13.8981 16.9345 13.882 16.8273 13.8123C16.7232 13.7445 16.6453 13.6077 16.652 13.3837C16.676 13.2515 16.7 13.1166 16.7244 12.9794C16.8101 12.4971 16.9007 11.9878 17.015 11.4779L17.015 11.4779L17.0154 11.4761C17.0426 11.3444 17.045 11.2214 17.0056 11.1041C16.9661 10.9867 16.8889 10.8877 16.7796 10.7961C16.4727 10.5336 16.1792 10.2658 15.886 9.99826C15.7081 9.83591 15.5303 9.67367 15.3497 9.51282L15.3492 9.51238C15.258 9.4321 15.188 9.35684 15.1488 9.27864C15.1125 9.20599 15.1012 9.12799 15.1347 9.03075C15.1993 8.85148 15.3608 8.7848 15.621 8.75793L15.621 8.75795L15.6228 8.75773C16.3146 8.67505 17.0172 8.5831 17.7103 8.47268C17.7968 8.4601 17.8847 8.41888 17.9572 8.36864C18.0294 8.31865 18.0982 8.25157 18.1391 8.17631C18.2892 7.91365 18.4294 7.64739 18.5684 7.38356C18.5858 7.35059 18.6032 7.31766 18.6205 7.28479C18.7773 6.98762 18.934 6.69398 19.1052 6.4077C19.1449 6.34125 19.2168 6.26522 19.3002 6.20604C19.3859 6.14523 19.466 6.11474 19.5202 6.11474C19.5745 6.11474 19.6545 6.14523 19.7403 6.20604C19.8237 6.26522 19.8956 6.34125 19.9353 6.40771L19.9357 6.4084C20.1066 6.68969 20.2607 6.97839 20.415 7.271C20.4299 7.29922 20.4448 7.32747 20.4597 7.35576ZM21.1711 12.5576C21.1756 12.5843 21.1802 12.6111 21.1849 12.6382L21.298 12.6187L21.3479 12.5154C21.3233 12.5034 21.2988 12.4916 21.2744 12.4799C21.2585 12.3849 21.2434 12.2921 21.2286 12.2008C21.1721 11.8529 21.1194 11.5289 21.0412 11.205C20.9721 10.902 21.0511 10.6817 21.2881 10.4706L21.1711 12.5576Z" fill="url(#paint1_linear_28_8)" stroke="#FAF1F1" stroke-width="0.229485"/>
<path d="M9.51036 13.2816L9.61141 13.4695C9.68281 13.6022 9.75228 13.7292 9.81967 13.8524C9.99249 14.1682 10.1517 14.4592 10.2948 14.7584C10.3616 14.8905 10.4402 14.9807 10.5353 15.0418C10.6312 15.1035 10.7523 15.1409 10.9119 15.1536C11.2262 15.178 11.5444 15.2268 11.8604 15.2753C12.0245 15.3005 12.188 15.3255 12.3501 15.3471L12.5832 15.378L12.4154 15.5427C12.3398 15.6168 12.265 15.6907 12.1905 15.7643C11.9161 16.0352 11.6465 16.3014 11.365 16.5557L11.3644 16.5563C11.2559 16.653 11.191 16.7451 11.1584 16.8404C11.1262 16.935 11.1221 17.0432 11.1529 17.1787C11.2321 17.507 11.2858 17.8371 11.3425 18.1865C11.3644 18.3209 11.3867 18.4581 11.4111 18.5991L11.4491 18.8191L11.2481 18.722C11.1059 18.6533 10.9672 18.5873 10.8313 18.5227C10.4985 18.3644 10.1823 18.2141 9.87221 18.0503M9.51036 13.2816L9.92517 17.9485M9.51036 13.2816L9.40931 13.4695C9.34865 13.5823 9.28987 13.6906 9.23289 13.7956C9.04073 14.1496 8.86912 14.4658 8.71558 14.7869M9.51036 13.2816L8.81901 14.8366M9.87221 18.0503C9.872 18.0502 9.87179 18.0501 9.87158 18.05L9.92517 17.9485M9.87221 18.0503C9.87241 18.0504 9.87261 18.0505 9.87281 18.0506L9.92517 17.9485M9.87221 18.0503C9.74189 17.9836 9.62454 17.9533 9.51133 17.9543C9.39805 17.9552 9.28065 17.9875 9.15045 18.0585L9.1501 18.0587C8.83441 18.2293 8.50696 18.3852 8.15986 18.5505C8.03668 18.6092 7.91102 18.6691 7.78254 18.7312L7.57765 18.8302L7.61986 18.6066C7.65567 18.4168 7.68667 18.2315 7.71704 18.05C7.76883 17.7404 7.81879 17.4418 7.88762 17.151L7.88777 17.1503C7.91795 17.0261 7.91212 16.9278 7.88139 16.8421C7.85011 16.7549 7.78949 16.6709 7.694 16.5822C7.41476 16.3226 7.14722 16.0514 6.87498 15.7755C6.79842 15.6979 6.72148 15.6199 6.64381 15.5417L6.48192 15.3786L6.70949 15.3471C6.82199 15.3316 6.93594 15.3154 7.05113 15.2991C7.40917 15.2483 7.77912 15.1959 8.1542 15.154M9.92517 17.9485C9.63875 17.8017 9.38197 17.8017 9.09555 17.9577C8.78265 18.1268 8.45902 18.2809 8.11281 18.4458C8.03015 18.4852 7.9462 18.5252 7.8608 18.5662C7.85576 18.5936 7.85062 18.6213 7.84536 18.6491L7.73261 18.6278L7.68268 18.5245C7.70805 18.5123 7.73327 18.5001 7.75835 18.4881C7.78451 18.3426 7.80814 18.2012 7.83127 18.0628C7.88246 17.7566 7.93116 17.4652 7.99927 17.1774C8.06841 16.8929 7.97952 16.6909 7.77212 16.4981C7.49488 16.2404 7.22965 15.9716 6.9577 15.6959C6.91403 15.6517 6.87018 15.6072 6.82608 15.5626C6.79765 15.5666 6.76928 15.5705 6.74096 15.5745L6.72522 15.4608L6.80664 15.3799C6.82689 15.4003 6.84706 15.4207 6.86716 15.441C6.93389 15.4316 7.00101 15.4221 7.06848 15.4125C7.42622 15.3618 7.79388 15.3097 8.16717 15.268M8.1542 15.154C8.15411 15.154 8.15402 15.154 8.15393 15.154L8.16717 15.268M8.1542 15.154C8.15428 15.154 8.15437 15.154 8.15445 15.154L8.16717 15.268M8.1542 15.154C8.29997 15.1371 8.41237 15.0999 8.50081 15.0422C8.58831 14.9852 8.6592 14.9037 8.71558 14.7869M8.16717 15.268C8.48322 15.2313 8.69062 15.1028 8.81901 14.8366M8.81901 14.8366L8.7155 14.7871C8.71552 14.787 8.71555 14.787 8.71558 14.7869M8.81901 14.8366L8.71566 14.7867C8.71563 14.7868 8.71561 14.7868 8.71558 14.7869M10.4597 13.3558C10.5986 13.6195 10.7391 13.8862 10.8917 14.1491C10.9376 14.2335 11.0139 14.3074 11.0946 14.3631C11.1764 14.4194 11.2727 14.4639 11.3659 14.4812L11.3659 14.4812L11.3674 14.4815C11.69 14.5372 12.0147 14.579 12.3356 14.6203C12.3614 14.6236 12.3872 14.6269 12.4129 14.6302C12.76 14.675 13.1026 14.7205 13.4396 14.7841L13.4399 14.7841C13.5232 14.7996 13.6261 14.8398 13.7143 14.8941C13.8066 14.951 13.8612 15.0098 13.8771 15.0517C13.8917 15.0902 13.8885 15.1628 13.8525 15.2569C13.8181 15.3467 13.7623 15.4335 13.7059 15.4897L13.7053 15.4902C13.2447 15.9548 12.7441 16.3928 12.2307 16.8333L12.2307 16.8333L12.2297 16.8342C12.1317 16.9201 12.0598 17.0117 12.0228 17.1195C11.9856 17.2277 11.9878 17.3396 12.0155 17.4588C12.0247 17.5047 12.034 17.5504 12.0432 17.5961C12.1523 18.1362 12.2596 18.6675 12.3502 19.2065C12.3789 19.3846 12.3844 19.57 12.3271 19.7147L12.3267 19.7158C12.2935 19.802 12.2235 19.8572 12.1205 19.8773C12.0142 19.8979 11.8739 19.8796 11.7222 19.8092C11.4824 19.6943 11.2424 19.5759 11.0015 19.4571C10.6127 19.2652 10.2215 19.0722 9.82507 18.8908C9.73538 18.8492 9.62806 18.8343 9.52863 18.8356C9.42844 18.8368 9.32524 18.8548 9.24074 18.8884L9.2407 18.8883L9.23606 18.8904C8.9083 19.0381 8.58585 19.1949 8.26485 19.3521C8.22959 19.3694 8.19435 19.3867 8.15913 19.4039C7.87409 19.5436 7.58986 19.683 7.3018 19.8169C7.09914 19.8981 6.93447 19.882 6.8273 19.8123C6.72319 19.7445 6.64526 19.6077 6.65196 19.3837C6.676 19.2515 6.7 19.1166 6.72438 18.9794C6.81012 18.4971 6.90066 17.9878 7.01496 17.4779L7.01498 17.4779L7.01536 17.4761C7.04259 17.3444 7.04502 17.2214 7.00558 17.1041C6.9661 16.9867 6.88894 16.8877 6.77958 16.7961C6.47269 16.5336 6.17917 16.2658 5.88599 15.9983C5.70808 15.8359 5.53029 15.6737 5.34971 15.5128L5.34922 15.5124C5.25805 15.4321 5.18798 15.3568 5.14885 15.2786C5.1125 15.206 5.10124 15.128 5.13471 15.0307C5.19932 14.8515 5.36078 14.7848 5.62098 14.7579L5.62098 14.7579L5.6228 14.7577C6.31464 14.6751 7.01717 14.5831 7.71026 14.4727C7.79679 14.4601 7.88465 14.4189 7.9572 14.3686C8.02937 14.3187 8.09818 14.2516 8.13907 14.1763C8.28916 13.9137 8.42944 13.6474 8.56844 13.3836C8.58581 13.3506 8.60316 13.3177 8.62051 13.2848C8.77728 12.9876 8.93404 12.694 9.10516 12.4077C9.14488 12.3413 9.21678 12.2652 9.30021 12.206C9.38594 12.1452 9.46601 12.1147 9.52024 12.1147C9.57447 12.1147 9.65453 12.1452 9.74027 12.206C9.82369 12.2652 9.8956 12.3413 9.93532 12.4077L9.93574 12.4084C10.1066 12.6897 10.2607 12.9784 10.415 13.271C10.4299 13.2992 10.4448 13.3275 10.4597 13.3558ZM11.1711 18.5576C11.1756 18.5843 11.1802 18.6111 11.1849 18.6382L11.298 18.6187L11.3479 18.5154C11.3233 18.5034 11.2988 18.4916 11.2744 18.4799C11.2585 18.3849 11.2434 18.2921 11.2286 18.2008C11.1721 17.8529 11.1194 17.5289 11.0412 17.205C10.9721 16.902 11.0511 16.6817 11.2881 16.4706L11.1711 18.5576Z" fill="url(#paint2_linear_28_8)" stroke="#FAF1F1" stroke-width="0.229485"/>
<path fill-rule="evenodd" clip-rule="evenodd" d="M15.6129 20.2553C15.6129 19.6965 15.7264 19.1431 15.9469 18.6269C16.1673 18.1106 16.4905 17.6415 16.8979 17.2463C17.3052 16.8512 17.7889 16.5378 18.3211 16.3239C18.8534 16.1101 19.4239 16 20 16C20.5761 16 21.1466 16.1101 21.6789 16.3239C22.2111 16.5378 22.6948 16.8512 23.1021 17.2463C23.5095 17.6415 23.8327 18.1106 24.0531 18.6269C24.2736 19.1431 24.3871 19.6965 24.3871 20.2553C24.3871 21.3839 23.9249 22.4662 23.1021 23.2643C22.2794 24.0623 21.1635 24.5106 20 24.5106C18.8365 24.5106 17.7206 24.0623 16.8979 23.2643C16.0751 22.4662 15.6129 21.3839 15.6129 20.2553ZM20 17.5019C19.2471 17.5019 18.5251 17.792 17.9927 18.3083C17.4604 18.8247 17.1613 19.525 17.1613 20.2553C17.1613 20.9856 17.4604 21.6859 17.9927 22.2023C18.5251 22.7186 19.2471 23.0087 20 23.0087C20.7529 23.0087 21.4749 22.7186 22.0073 22.2023C22.5396 21.6859 22.8387 20.9856 22.8387 20.2553C22.8387 19.525 22.5396 18.8247 22.0073 18.3083C21.4749 17.792 20.7529 17.5019 20 17.5019ZM15.871 27.5143C15.255 27.5143 14.6642 27.7517 14.2287 28.1742C13.7931 28.5967 13.5484 29.1697 13.5484 29.7671V30.9566C13.5484 30.9746 13.5618 30.9907 13.5804 30.9937C17.8323 31.6665 22.1688 31.6665 26.4196 30.9937C26.4286 30.9922 26.4368 30.9877 26.4427 30.9809C26.4486 30.9741 26.4517 30.9655 26.4516 30.9566V29.7671C26.4516 29.1697 26.2069 28.5967 25.7713 28.1742C25.3358 27.7517 24.745 27.5143 24.129 27.5143H23.7781C23.7504 27.5141 23.7229 27.5182 23.6965 27.5264L22.8036 27.8097C20.9819 28.3866 19.0181 28.3866 17.1964 27.8097L16.3025 27.5264C16.2768 27.5184 16.2499 27.5143 16.223 27.5143H15.871ZM12 29.7671C12 28.7713 12.4078 27.8163 13.1338 27.1122C13.8597 26.408 14.8443 26.0125 15.871 26.0125H16.2219C16.4129 26.0125 16.6028 26.0425 16.7835 26.0986L17.6774 26.3819C19.1866 26.8598 20.8134 26.8598 22.3226 26.3819L23.2165 26.0986C23.3972 26.0415 23.5871 26.0125 23.777 26.0125H24.129C25.1557 26.0125 26.1403 26.408 26.8662 27.1122C27.5922 27.8163 28 28.7713 28 29.7671V30.9566C28 31.7116 27.4364 32.3544 26.6684 32.4755C22.252 33.1748 17.748 33.1748 13.3316 32.4755C12.9599 32.4168 12.6219 32.2318 12.3779 31.9535C12.134 31.6753 12 31.3219 12 30.9566V29.7671Z" fill="url(#paint3_linear_28_8)" stroke="#FAF1F1" stroke-width="0.4"/>
<defs>
<linearGradient id="paint0_linear_28_8" x1="35.2104" y1="3.78258" x2="23.8765" y2="3.07947" gradientUnits="userSpaceOnUse">
<stop stop-color="#ED6D1D"/>
<stop offset="0.404403" stop-color="#E50071"/>
<stop offset="1" stop-color="#7404BF"/>
</linearGradient>
<linearGradient id="paint1_linear_28_8" x1="25.2104" y1="-2.23842" x2="13.8765" y2="-2.94153" gradientUnits="userSpaceOnUse">
<stop stop-color="#ED6D1D"/>
<stop offset="0.404403" stop-color="#E50071"/>
<stop offset="1" stop-color="#7404BF"/>
</linearGradient>
<linearGradient id="paint2_linear_28_8" x1="15.2104" y1="3.76158" x2="3.87655" y2="3.05847" gradientUnits="userSpaceOnUse">
<stop stop-color="#ED6D1D"/>
<stop offset="0.404403" stop-color="#E50071"/>
<stop offset="1" stop-color="#7404BF"/>
</linearGradient>
<linearGradient id="paint3_linear_28_8" x1="30.1519" y1="-1.50663" x2="9.97955" y2="-2.55357" gradientUnits="userSpaceOnUse">
<stop stop-color="#ED6D1D"/>
<stop offset="0.404403" stop-color="#E50071"/>
<stop offset="1" stop-color="#7404BF"/>
</linearGradient>
</defs>
</svg>
