<svg width="41" height="40" viewBox="0 0 41 40" fill="none" xmlns="http://www.w3.org/2000/svg">
<path d="M9 39.5H31.365C36.0594 39.5 39.865 35.6944 39.865 31V9C39.865 4.30558 36.0594 0.5 31.365 0.5H8.99999C4.30557 0.5 0.5 4.30558 0.5 9V31C0.5 35.6944 4.30558 39.5 9 39.5Z" fill="#FAF1F1" stroke="#FAF1F1"/>
<path d="M28.7999 24.1915C28.8655 24.3043 28.8837 24.4384 28.8505 24.5645C28.8173 24.6907 28.7354 24.7984 28.6227 24.8642L20.7477 29.458C20.6729 29.5012 20.588 29.5239 20.5016 29.5239C20.4152 29.5239 20.3304 29.5012 20.2555 29.458L12.3805 24.8642C12.2771 24.7945 12.204 24.6881 12.1761 24.5665C12.1481 24.445 12.1673 24.3174 12.2298 24.2094C12.2923 24.1015 12.3934 24.0213 12.5128 23.9851C12.6321 23.9489 12.7608 23.9594 12.8727 24.0144L20.5016 28.4629L28.1305 24.0144C28.243 23.9498 28.3763 23.9322 28.5017 23.9653C28.627 23.9985 28.7342 24.0798 28.7999 24.1915ZM28.1289 20.0752L20.5 24.5238L12.8711 20.0752C12.7592 20.0202 12.6305 20.0098 12.5112 20.046C12.3918 20.0822 12.2907 20.1624 12.2281 20.2703C12.1656 20.3782 12.1464 20.5059 12.1744 20.6274C12.2024 20.749 12.2755 20.8553 12.3789 20.9251L20.2539 25.5188C20.3287 25.562 20.4136 25.5848 20.5 25.5848C20.5864 25.5848 20.6713 25.562 20.7461 25.5188L28.6211 20.9251C28.7245 20.8553 28.7976 20.749 28.8256 20.6274C28.8536 20.5059 28.8344 20.3782 28.7719 20.2703C28.7093 20.1624 28.6082 20.0822 28.4888 20.046C28.3695 20.0098 28.2409 20.0202 28.1289 20.0752ZM12.1328 16.5626C12.133 16.4765 12.1559 16.3919 12.1991 16.3173C12.2423 16.2427 12.3043 16.1808 12.3789 16.1377L20.2539 11.544C20.3287 11.5008 20.4136 11.478 20.5 11.478C20.5864 11.478 20.6713 11.5008 20.7461 11.544L28.6211 16.1377C28.6953 16.1811 28.7569 16.2431 28.7996 16.3177C28.8424 16.3922 28.8649 16.4767 28.8649 16.5626C28.8649 16.6486 28.8424 16.733 28.7996 16.8076C28.7569 16.8821 28.6953 16.9442 28.6211 16.9876L20.7461 21.5813C20.6713 21.6245 20.5864 21.6473 20.5 21.6473C20.4136 21.6473 20.3287 21.6245 20.2539 21.5813L12.3789 16.9876C12.3043 16.9445 12.2423 16.8826 12.1991 16.808C12.1559 16.7334 12.133 16.6488 12.1328 16.5626ZM13.602 16.5626L20.5 20.5863L27.398 16.5626L20.5 12.5431L13.602 16.5626Z" fill="url(#paint0_linear_28_23)" stroke="url(#paint1_linear_28_23)" stroke-width="0.3"/>
<defs>
<linearGradient id="paint0_linear_28_23" x1="31.1174" y1="-7.10564" x2="10.018" y2="-8.18454" gradientUnits="userSpaceOnUse">
<stop stop-color="#ED6D1D"/>
<stop offset="0.404403" stop-color="#E50071"/>
<stop offset="1" stop-color="#7404BF"/>
</linearGradient>
<linearGradient id="paint1_linear_28_23" x1="31.1174" y1="-7.10564" x2="10.018" y2="-8.18454" gradientUnits="userSpaceOnUse">
<stop stop-color="#ED6D1D"/>
<stop offset="0.404403" stop-color="#E50071"/>
<stop offset="1" stop-color="#7404BF"/>
</linearGradient>
</defs>
</svg>
