<svg width="599" height="130" viewBox="0 0 599 130" fill="none" xmlns="http://www.w3.org/2000/svg">
<path opacity="0.6" d="M-1.19209e-06 11.529C-1.19209e-06 23.058 -1.19209e-06 86 -1.19209e-06 86C23.3905 58.1583 44.2481 84.1439 65.8508 41.9173C83.0223 8.35248 95.052 37.8957 132 4.05312e-06H11.3894C11.3894 4.05312e-06 -1.19209e-06 4.05312e-06 -1.19209e-06 11.529Z" fill="url(#paint0_radial_1_4)" fill-opacity="0.3"/>
<path opacity="0.6" d="M591.407 130C595.45 127.994 597.064 126.176 599 121.931V40C575.61 69.1367 554.752 41.9424 533.149 86.133C515.978 121.259 503.948 90.3417 467 130H591.407Z" fill="url(#paint1_radial_1_4)" fill-opacity="0.3"/>
<defs>
<radialGradient id="paint0_radial_1_4" cx="0" cy="0" r="1" gradientUnits="userSpaceOnUse" gradientTransform="translate(69.3097 30.1827) rotate(-168.445) scale(63.9871 1864.42)">
<stop stop-color="#E50071"/>
<stop offset="1" stop-color="#E50071" stop-opacity="0.17"/>
</radialGradient>
<radialGradient id="paint1_radial_1_4" cx="0" cy="0" r="1" gradientUnits="userSpaceOnUse" gradientTransform="translate(529.69 98.4135) rotate(12.0771) scale(64.1092 1947.42)">
<stop stop-color="#E50071"/>
<stop offset="1" stop-color="#E50071" stop-opacity="0.47"/>
</radialGradient>
</defs>
</svg>
