<svg width="41" height="40" viewBox="0 0 41 40" fill="none" xmlns="http://www.w3.org/2000/svg">
<rect x="0.5" y="0.5" width="39.365" height="39" rx="8.5" fill="#FAF1F1" stroke="#FAF1F1"/>
<g clip-path="url(#clip0_28_2)">
<path d="M28.322 8.75H29.498C29.9619 8.75 30.4069 8.93424 30.7351 9.26221C31.0632 9.59018 31.2477 10.035 31.248 10.499V11.676C31.2487 14.417 30.2024 17.0548 28.323 19.05L27.095 20.354C26.5874 20.8926 26.0548 21.4072 25.499 21.896V26.934C25.499 27.549 25.176 28.118 24.649 28.434L20.135 31.143C20.0325 31.2046 19.9168 31.2407 19.7975 31.2485C19.6782 31.2562 19.5588 31.2354 19.4492 31.1876C19.3396 31.1399 19.243 31.0666 19.1675 30.974C19.092 30.8813 19.0397 30.772 19.015 30.655L18.052 26.083C18.0022 26.0435 17.9554 26.0004 17.912 25.954L16.04 23.96L14.046 22.087C13.9996 22.0435 13.9565 21.9967 13.917 21.947L9.34599 20.984C9.22885 20.9596 9.11926 20.9075 9.02637 20.832C8.93348 20.7566 8.85999 20.66 8.81203 20.5504C8.76407 20.4408 8.74303 20.3213 8.75068 20.2019C8.75833 20.0825 8.79443 19.9666 8.85599 19.864L11.566 15.35C11.882 14.823 12.451 14.5 13.066 14.5H18.103C18.5918 13.9449 19.1064 13.4129 19.645 12.906L20.949 11.676C22.9437 9.79692 25.5806 8.75032 28.321 8.75H28.322ZM21.978 12.768L20.674 13.997C19.4467 15.1533 18.3547 16.4453 17.419 17.848L15.226 21.138L17.085 22.882C17.0968 22.8928 17.1082 22.9042 17.119 22.916L18.862 24.774L22.15 22.582C23.5539 21.6459 24.8469 20.5532 26.004 19.325L27.232 18.022C28.8494 16.3049 29.7497 14.0349 29.749 11.676V10.5C29.749 10.4337 29.7226 10.3701 29.6758 10.3232C29.6289 10.2763 29.5653 10.25 29.499 10.25H28.322C25.9637 10.2501 23.6945 11.1508 21.978 12.768ZM14.5 29C13.291 30.209 10.599 30.445 9.75699 30.49C9.72396 30.4921 9.69087 30.4872 9.65986 30.4756C9.62885 30.4641 9.60062 30.4462 9.57699 30.423C9.55382 30.3994 9.53589 30.3711 9.52435 30.3401C9.5128 30.3091 9.50791 30.276 9.50999 30.243C9.55499 29.401 9.79099 26.709 11 25.5C11.9 24.6 13.6 24.6 14.5 25.5C15.4 26.4 15.4 28.1 14.5 29ZM13.908 20.412L16.17 17.017C16.4 16.671 16.64 16.332 16.887 16H13.066C13.0229 16 12.9806 16.0112 12.9431 16.0324C12.9056 16.0536 12.8742 16.0841 12.852 16.121L10.685 19.733L13.908 20.412ZM24 23.112C23.667 23.36 23.328 23.599 22.982 23.83L19.589 26.092L20.267 29.315L23.879 27.148C23.9159 27.1258 23.9464 27.0944 23.9676 27.0569C23.9888 27.0194 24 26.9771 24 26.934V23.112ZM25.5 16C25.4999 16.197 25.461 16.3922 25.3856 16.5742C25.3101 16.7562 25.1995 16.9216 25.0601 17.0609C24.9208 17.2002 24.7553 17.3106 24.5732 17.386C24.3912 17.4613 24.196 17.5001 23.999 17.5C23.8019 17.4999 23.6068 17.4611 23.4248 17.3856C23.2428 17.3101 23.0774 17.1995 22.9381 17.0602C22.7988 16.9208 22.6884 16.7553 22.613 16.5733C22.5377 16.3912 22.4989 16.196 22.499 15.999C22.4991 15.601 22.6573 15.2194 22.9388 14.9381C23.2203 14.6568 23.602 14.4989 24 14.499C24.3979 14.4991 24.7795 14.6573 25.0609 14.9388C25.3422 15.2203 25.5001 15.602 25.5 16Z" fill="url(#paint0_linear_28_2)"/>
</g>
<defs>
<linearGradient id="paint0_linear_28_2" x1="34.2739" y1="-14.4206" x2="5.91784" y2="-15.9842" gradientUnits="userSpaceOnUse">
<stop stop-color="#ED6D1D"/>
<stop offset="0.404403" stop-color="#E50071"/>
<stop offset="1" stop-color="#7404BF"/>
</linearGradient>
<clipPath id="clip0_28_2">
<rect width="24" height="24" fill="white" transform="translate(8 8)"/>
</clipPath>
</defs>
</svg>
