<svg width="41" height="40" viewBox="0 0 41 40" fill="none" xmlns="http://www.w3.org/2000/svg">
<rect x="0.5" y="0.5" width="39.365" height="39" rx="8.5" fill="#FAF1F1" stroke="#FAF1F1"/>
<path d="M10.1476 17.7971C10.337 17.2342 10.8209 17.0674 11.389 17.0048L13.3668 27.7427M10.1476 17.7971C9.95824 18.3809 10.2738 18.798 10.6736 19.1733C11.0535 19.534 11.4304 19.9007 11.8088 20.2688C12.4364 20.8794 13.0682 21.4939 13.7245 22.0923M10.1476 17.7971L10.3846 17.8768C10.3847 17.8764 10.3848 17.876 10.385 17.8756C10.3851 17.8751 10.3853 17.8747 10.3854 17.8743L10.1476 17.7971ZM13.7245 22.0923C14.1453 22.4676 14.2505 22.8429 14.1453 23.385C13.9005 24.5494 13.7063 25.7139 13.5235 26.8102C13.4706 27.1273 13.4187 27.4386 13.3668 27.7427M13.7245 22.0923L13.8929 21.9075C13.8926 21.9072 13.8922 21.9069 13.8919 21.9066C13.8916 21.9063 13.8912 21.906 13.8909 21.9057L13.7245 22.0923ZM13.3668 27.7427L13.6132 27.7847C13.6142 27.7791 13.6151 27.7735 13.6161 27.7679C13.6163 27.7625 13.6164 27.7571 13.6166 27.7517L13.3668 27.7427ZM19.6999 13.9061L19.9231 14.3485C20.0754 14.6502 20.2234 14.9388 20.3671 15.2186C20.7352 15.9359 21.074 16.5962 21.3788 17.2755C21.5223 17.5781 21.6909 17.7836 21.8927 17.9219C22.0953 18.0607 22.3503 18.1448 22.6875 18.1735C23.3577 18.2289 24.0371 18.34 24.7109 18.4502C25.0603 18.5073 25.4082 18.5642 25.7525 18.613L26.2347 18.6812L25.8982 19.0333C25.7372 19.2016 25.5778 19.3695 25.4191 19.5365C24.8345 20.1519 24.2603 20.7564 23.6607 21.3341L23.6594 21.3353C23.4284 21.5546 23.2884 21.7653 23.2177 21.9861C23.1473 22.2059 23.1389 22.4569 23.2053 22.7683C23.374 23.5129 23.488 24.2614 23.6089 25.0547C23.6554 25.36 23.703 25.672 23.755 25.9929L23.8344 26.4822L23.3937 26.2552C23.091 26.0992 22.7956 25.9494 22.5061 25.8027C21.7971 25.4432 21.1232 25.1015 20.4624 24.7295C20.1859 24.5786 19.9389 24.5111 19.7022 24.5133C19.4653 24.5154 19.2182 24.5874 18.9418 24.7479L18.941 24.7484C18.2682 25.136 17.5703 25.4904 16.8307 25.8659C16.5684 25.9992 16.3008 26.1351 16.0272 26.276L15.5785 26.5072L15.6665 26.0102C15.743 25.5781 15.8091 25.1567 15.8738 24.7442C15.984 24.0418 16.0902 23.3651 16.2367 22.7053L16.237 22.7039C16.3022 22.4178 16.2899 22.1891 16.2228 21.9895C16.1548 21.7875 16.024 21.5954 15.8209 21.3941C15.226 20.8047 14.6561 20.1888 14.0761 19.562C13.913 19.3857 13.7491 19.2086 13.5836 19.0309L13.2592 18.6827L13.7301 18.6132C13.9696 18.5778 14.2122 18.5411 14.4576 18.5041C15.2203 18.3888 16.0089 18.2695 16.8083 18.1745M19.6999 13.9061L16.8384 18.4226M19.6999 13.9061L19.4767 14.3485C19.3474 14.6048 19.2221 14.8509 19.1007 15.0894C18.6914 15.8935 18.3261 16.6112 17.9992 17.34M19.6999 13.9061L18.2271 17.4427M16.8083 18.1745C16.8085 18.1745 16.8087 18.1744 16.8089 18.1744L16.8384 18.4226M16.8083 18.1745C16.8081 18.1745 16.8079 18.1745 16.8077 18.1745L16.8384 18.4226M16.8083 18.1745C17.1161 18.1363 17.3531 18.0527 17.54 17.9228C17.7256 17.7939 17.8777 17.6083 17.9992 17.34M16.8384 18.4226C17.5117 18.3392 17.9536 18.0473 18.2271 17.4427M17.9992 17.34C17.9991 17.3401 17.9991 17.3403 17.999 17.3404L18.2271 17.4427M17.9992 17.34C17.9992 17.3399 17.9993 17.3398 17.9993 17.3397L18.2271 17.4427M13.7666 18.8605L13.9495 18.6901C13.9886 18.7321 14.0276 18.774 14.0665 18.8159C13.9661 18.8309 13.8661 18.8458 13.7666 18.8605ZM13.7666 18.8605L13.8031 19.1078C13.8596 19.0995 13.9162 19.0911 13.973 19.0826C13.9045 19.0088 13.8357 18.9347 13.7666 18.8605ZM15.9127 26.0538L15.7982 25.8316C15.8544 25.8026 15.9104 25.7738 15.966 25.7453C15.9488 25.8472 15.931 25.95 15.9127 26.0538ZM15.9127 26.0538L16.1588 26.0974C16.1699 26.0347 16.1808 25.9725 16.1914 25.9108C16.0993 25.9579 16.0064 26.0055 15.9127 26.0538ZM23.5082 26.0329C23.4155 25.9851 23.3235 25.938 23.2323 25.8914C23.2419 25.9514 23.2516 26.012 23.2615 26.073L23.5082 26.0329ZM23.5082 26.0329L23.6228 25.8107C23.568 25.7825 23.5135 25.7545 23.4594 25.7268C23.4753 25.8278 23.4915 25.9298 23.5082 26.0329ZM25.7175 18.8605L25.6824 19.108C25.6233 19.0997 25.5645 19.0911 25.5058 19.0824C25.576 19.0087 25.6466 18.9347 25.7175 18.8605ZM25.7175 18.8605L25.5368 18.6877C25.4959 18.7305 25.4551 18.7733 25.4145 18.8159C25.5153 18.8312 25.6163 18.8462 25.7175 18.8605ZM19.6999 14.4611L19.9231 14.5737C19.8953 14.629 19.8676 14.6837 19.8402 14.7378C19.7939 14.6469 19.7472 14.5547 19.6999 14.4611ZM19.6999 14.4611L19.4767 14.5737C19.5046 14.629 19.5323 14.6838 19.5598 14.738C19.606 14.6471 19.6527 14.5548 19.6999 14.4611ZM14.9872 28.7666C14.9852 28.7676 14.9832 28.7686 14.9811 28.7697L15.0921 28.9937L14.9932 28.7641C14.9912 28.7649 14.9892 28.7658 14.9872 28.7666ZM24.4215 28.7502C24.4211 28.7499 24.4206 28.7497 24.4201 28.7495C24.4197 28.7492 24.4192 28.749 24.4188 28.7488L24.3078 28.9728L24.4215 28.7502ZM25.7438 27.3631C25.7439 27.3634 25.7439 27.3636 25.744 27.3639C25.744 27.3641 25.744 27.3644 25.7441 27.3646L25.991 27.3257L25.7438 27.3631ZM25.03 23.3898C25.0302 23.3909 25.0304 23.3921 25.0306 23.3932C25.0309 23.3944 25.0312 23.3956 25.0314 23.3968L25.2756 23.3433L25.03 23.3898ZM22.6328 15.8665C22.6334 15.8677 22.6341 15.8689 22.6347 15.8702C22.6353 15.8713 22.6359 15.8723 22.6364 15.8734L22.856 15.7538L22.6328 15.8665ZM16.7853 15.9345C16.7857 15.9337 16.7861 15.9328 16.7866 15.932C16.7871 15.931 16.7876 15.93 16.7881 15.929L16.5649 15.8164L16.7853 15.9345ZM15.8662 16.6056C15.8669 16.6055 15.8676 16.6054 15.8683 16.6053C15.869 16.6052 15.8697 16.6051 15.8704 16.605L15.8285 16.3585L15.8662 16.6056Z" fill="url(#paint0_linear_28_14)" stroke="#FAF1F1" stroke-width="0.5"/>
<defs>
<linearGradient id="paint0_linear_28_14" x1="31.8432" y1="-7.71188" x2="7.68668" y2="-9.11748" gradientUnits="userSpaceOnUse">
<stop stop-color="#ED6D1D"/>
<stop offset="0.404403" stop-color="#E50071"/>
<stop offset="1" stop-color="#7404BF"/>
</linearGradient>
</defs>
</svg>
