<svg width="41" height="40" viewBox="0 0 41 40" fill="none" xmlns="http://www.w3.org/2000/svg">
<rect x="0.5" y="0.5" width="39.365" height="39" rx="8.5" fill="#FAF1F1" stroke="#FAF1F1"/>
<mask id="path-2-inside-1_28_24" fill="white">
<path fill-rule="evenodd" clip-rule="evenodd" d="M11.2113 14.2282C11.4995 13.9306 11.9743 13.9231 12.2718 14.2113C12.5694 14.4995 12.5769 14.9743 12.2887 15.2718L7.79422 19.9113L12.2887 24.5507C12.5769 24.8482 12.5694 25.3231 12.2718 25.6113C11.9743 25.8995 11.4995 25.8919 11.2113 25.5944L6.21132 20.4331C5.92956 20.1423 5.92956 19.6803 6.21132 19.3894L11.2113 14.2282ZM27.2282 14.2113C27.5257 13.9231 28.0005 13.9307 28.2887 14.2282L33.2887 19.3894C33.5704 19.6803 33.5704 20.1423 33.2887 20.4331L28.2887 25.5944C28.0005 25.8919 27.5257 25.8995 27.2282 25.6113C26.9306 25.3231 26.9231 24.8482 27.2113 24.5507L31.7058 19.9113L27.2113 15.2718C26.9231 14.9743 26.9306 14.4995 27.2282 14.2113ZM17.6495 25.11C17.7981 25.11 17.9228 25.0637 18.0236 24.9711C18.1243 24.8785 18.2045 24.7574 18.2642 24.6078L20.7244 16.9211L22.6859 19.9906C22.8081 20.1554 22.9509 20.2867 23.1143 20.3844C23.2776 20.4821 23.4629 20.5309 23.6703 20.5309H27.2665C27.4748 20.5309 27.6494 20.4582 27.7902 20.3127C27.931 20.1671 28.001 19.9855 28 19.7677C27.999 19.55 27.9291 19.3683 27.7902 19.2228C27.6494 19.0773 27.4748 19.0046 27.2665 19.0046H23.8082L21.1088 14.7887C21.0374 14.6768 20.942 14.5934 20.8227 14.5384C20.7034 14.4835 20.5748 14.4555 20.4369 14.4545C20.2882 14.4545 20.1591 14.5013 20.0496 14.5949C19.94 14.6885 19.8642 14.8091 19.8222 14.9566L17.3619 22.6648L15.352 19.5449C15.2308 19.38 15.088 19.2488 14.9237 19.1511C14.7594 19.0534 14.574 19.0046 14.3677 19.0046H11.4835C11.2752 19.0046 11.1006 19.0773 10.9598 19.2228C10.8199 19.3694 10.75 19.551 10.75 19.7677C10.75 19.9845 10.8199 20.1661 10.9598 20.3127C11.0996 20.4592 11.2742 20.5319 11.4835 20.5309L14.221 20.5309L16.9497 24.7742C17.0211 24.9065 17.1213 24.9955 17.2504 25.0413C17.3795 25.0871 17.5125 25.11 17.6495 25.11Z"/>
</mask>
<path fill-rule="evenodd" clip-rule="evenodd" d="M11.2113 14.2282C11.4995 13.9306 11.9743 13.9231 12.2718 14.2113C12.5694 14.4995 12.5769 14.9743 12.2887 15.2718L7.79422 19.9113L12.2887 24.5507C12.5769 24.8482 12.5694 25.3231 12.2718 25.6113C11.9743 25.8995 11.4995 25.8919 11.2113 25.5944L6.21132 20.4331C5.92956 20.1423 5.92956 19.6803 6.21132 19.3894L11.2113 14.2282ZM27.2282 14.2113C27.5257 13.9231 28.0005 13.9307 28.2887 14.2282L33.2887 19.3894C33.5704 19.6803 33.5704 20.1423 33.2887 20.4331L28.2887 25.5944C28.0005 25.8919 27.5257 25.8995 27.2282 25.6113C26.9306 25.3231 26.9231 24.8482 27.2113 24.5507L31.7058 19.9113L27.2113 15.2718C26.9231 14.9743 26.9306 14.4995 27.2282 14.2113ZM17.6495 25.11C17.7981 25.11 17.9228 25.0637 18.0236 24.9711C18.1243 24.8785 18.2045 24.7574 18.2642 24.6078L20.7244 16.9211L22.6859 19.9906C22.8081 20.1554 22.9509 20.2867 23.1143 20.3844C23.2776 20.4821 23.4629 20.5309 23.6703 20.5309H27.2665C27.4748 20.5309 27.6494 20.4582 27.7902 20.3127C27.931 20.1671 28.001 19.9855 28 19.7677C27.999 19.55 27.9291 19.3683 27.7902 19.2228C27.6494 19.0773 27.4748 19.0046 27.2665 19.0046H23.8082L21.1088 14.7887C21.0374 14.6768 20.942 14.5934 20.8227 14.5384C20.7034 14.4835 20.5748 14.4555 20.4369 14.4545C20.2882 14.4545 20.1591 14.5013 20.0496 14.5949C19.94 14.6885 19.8642 14.8091 19.8222 14.9566L17.3619 22.6648L15.352 19.5449C15.2308 19.38 15.088 19.2488 14.9237 19.1511C14.7594 19.0534 14.574 19.0046 14.3677 19.0046H11.4835C11.2752 19.0046 11.1006 19.0773 10.9598 19.2228C10.8199 19.3694 10.75 19.551 10.75 19.7677C10.75 19.9845 10.8199 20.1661 10.9598 20.3127C11.0996 20.4592 11.2742 20.5319 11.4835 20.5309L14.221 20.5309L16.9497 24.7742C17.0211 24.9065 17.1213 24.9955 17.2504 25.0413C17.3795 25.0871 17.5125 25.11 17.6495 25.11Z" fill="url(#paint0_linear_28_24)"/>
<path d="M12.2718 14.2113L12.2023 14.2831L12.2023 14.2831L12.2718 14.2113ZM11.2113 14.2282L11.2831 14.2977L11.2831 14.2977L11.2113 14.2282ZM12.2887 15.2718L12.2169 15.2023L12.2169 15.2023L12.2887 15.2718ZM7.79422 19.9113L7.72239 19.8417L7.65499 19.9113L7.72239 19.9809L7.79422 19.9113ZM12.2887 24.5507L12.3605 24.4812L12.3605 24.4812L12.2887 24.5507ZM11.2113 25.5944L11.1395 25.664L11.1395 25.664L11.2113 25.5944ZM6.21132 20.4331L6.28314 20.3636L6.28314 20.3636L6.21132 20.4331ZM6.21132 19.3894L6.28314 19.459L6.28314 19.459L6.21132 19.3894ZM28.2887 14.2282L28.3605 14.1586L28.3605 14.1586L28.2887 14.2282ZM27.2282 14.2113L27.2977 14.2831L27.2977 14.2831L27.2282 14.2113ZM33.2887 19.3894L33.3605 19.3199L33.3605 19.3199L33.2887 19.3894ZM33.2887 20.4331L33.3605 20.5027L33.3605 20.5027L33.2887 20.4331ZM28.2887 25.5944L28.3605 25.664L28.3605 25.664L28.2887 25.5944ZM27.2113 24.5507L27.1395 24.4812L27.1395 24.4812L27.2113 24.5507ZM31.7058 19.9113L31.7776 19.9809L31.845 19.9113L31.7776 19.8417L31.7058 19.9113ZM27.2113 15.2718L27.1395 15.3414L27.1395 15.3414L27.2113 15.2718ZM18.0236 24.9711L17.9559 24.8975L17.9559 24.8975L18.0236 24.9711ZM18.2642 24.6078L18.3573 24.645L18.3594 24.6383L18.2642 24.6078ZM20.7244 16.9211L20.8087 16.8672L20.6941 16.6879L20.6292 16.8906L20.7244 16.9211ZM22.6859 19.9906L22.6014 20.0446L22.6056 20.0502L22.6859 19.9906ZM23.1143 20.3844L23.1656 20.2986L23.1656 20.2986L23.1143 20.3844ZM28 19.7677L28.1 19.7673L28.1 19.7673L28 19.7677ZM27.7902 19.2228L27.8625 19.1538L27.8621 19.1533L27.7902 19.2228ZM23.8082 19.0046L23.724 19.0585L23.7535 19.1046H23.8082V19.0046ZM21.1088 14.7887L21.0245 14.8425L21.0246 14.8427L21.1088 14.7887ZM20.8227 14.5384L20.8646 14.4476L20.8646 14.4476L20.8227 14.5384ZM20.4369 14.4545L20.4376 14.3545H20.4369V14.4545ZM20.0496 14.5949L20.1146 14.6709L20.1146 14.6709L20.0496 14.5949ZM19.8222 14.9566L19.9175 14.9871L19.9184 14.9841L19.8222 14.9566ZM17.3619 22.6648L17.2779 22.7189L17.3927 22.8972L17.4572 22.6952L17.3619 22.6648ZM15.352 19.5449L15.4363 19.4906L15.4326 19.4856L15.352 19.5449ZM14.9237 19.1511L14.8726 19.237L14.8726 19.237L14.9237 19.1511ZM10.9598 19.2228L10.8879 19.1533L10.8875 19.1538L10.9598 19.2228ZM10.9598 20.3127L10.8875 20.3817L10.8875 20.3817L10.9598 20.3127ZM11.4835 20.5309L11.4835 20.4309L11.483 20.4309L11.4835 20.5309ZM14.221 20.5309L14.3051 20.4768L14.2755 20.4309L14.221 20.4309L14.221 20.5309ZM16.9497 24.7742L17.0379 24.7266L17.0338 24.7201L16.9497 24.7742ZM17.2504 25.0413L17.217 25.1356L17.217 25.1356L17.2504 25.0413ZM12.3414 14.1395C12.0043 13.8129 11.4661 13.8214 11.1395 14.1586L11.2831 14.2977C11.5329 14.0399 11.9444 14.0334 12.2023 14.2831L12.3414 14.1395ZM12.3605 15.3414C12.6871 15.0043 12.6786 14.4661 12.3414 14.1395L12.2023 14.2831C12.4601 14.5329 12.4666 14.9444 12.2169 15.2023L12.3605 15.3414ZM7.86604 19.9809L12.3605 15.3414L12.2169 15.2023L7.72239 19.8417L7.86604 19.9809ZM12.3605 24.4812L7.86604 19.8417L7.72239 19.9809L12.2169 24.6203L12.3605 24.4812ZM12.3414 25.6831C12.6786 25.3564 12.6871 24.8183 12.3605 24.4812L12.2169 24.6203C12.4666 24.8782 12.4601 25.2897 12.2023 25.5394L12.3414 25.6831ZM11.1395 25.664C11.4661 26.0012 12.0043 26.0097 12.3414 25.6831L12.2023 25.5394C11.9444 25.7892 11.5329 25.7827 11.2831 25.5248L11.1395 25.664ZM6.1395 20.5027L11.1395 25.664L11.2831 25.5248L6.28314 20.3636L6.1395 20.5027ZM6.1395 19.3199C5.82017 19.6495 5.82017 20.1731 6.1395 20.5027L6.28314 20.3636C6.03895 20.1115 6.03895 19.7111 6.28314 19.459L6.1395 19.3199ZM11.1395 14.1586L6.1395 19.3199L6.28314 19.459L11.2831 14.2977L11.1395 14.1586ZM28.3605 14.1586C28.0339 13.8214 27.4957 13.8129 27.1586 14.1395L27.2977 14.2831C27.5556 14.0334 27.9671 14.0399 28.2169 14.2977L28.3605 14.1586ZM33.3605 19.3199L28.3605 14.1586L28.2169 14.2977L33.2169 19.459L33.3605 19.3199ZM33.3605 20.5027C33.6798 20.1731 33.6798 19.6495 33.3605 19.3199L33.2169 19.459C33.461 19.7111 33.461 20.1115 33.2169 20.3636L33.3605 20.5027ZM28.3605 25.664L33.3605 20.5027L33.2169 20.3636L28.2169 25.5249L28.3605 25.664ZM27.1586 25.6831C27.4957 26.0097 28.0339 26.0012 28.3605 25.664L28.2169 25.5249C27.9671 25.7827 27.5556 25.7892 27.2977 25.5394L27.1586 25.6831ZM27.1395 24.4812C26.8129 24.8183 26.8214 25.3565 27.1586 25.6831L27.2977 25.5394C27.0399 25.2897 27.0334 24.8782 27.2831 24.6203L27.1395 24.4812ZM31.634 19.8417L27.1395 24.4812L27.2831 24.6203L31.7776 19.9809L31.634 19.8417ZM27.1395 15.3414L31.634 19.9809L31.7776 19.8417L27.2831 15.2023L27.1395 15.3414ZM27.1586 14.1395C26.8214 14.4661 26.8129 15.0043 27.1395 15.3414L27.2831 15.2023C27.0334 14.9444 27.0399 14.5329 27.2977 14.2831L27.1586 14.1395ZM17.9559 24.8975C17.8753 24.9716 17.7754 25.01 17.6495 25.01V25.21C17.8208 25.21 17.9704 25.1558 18.0912 25.0447L17.9559 24.8975ZM18.1713 24.5708C18.1162 24.7089 18.0438 24.8167 17.9559 24.8975L18.0912 25.0447C18.2048 24.9403 18.2928 24.8059 18.3571 24.6449L18.1713 24.5708ZM20.6292 16.8906L18.1689 24.5773L18.3594 24.6383L20.8197 16.9516L20.6292 16.8906ZM22.7702 19.9367L20.8087 16.8672L20.6402 16.9749L22.6016 20.0444L22.7702 19.9367ZM23.1656 20.2986C23.0144 20.2082 22.8812 20.0861 22.7662 19.931L22.6056 20.0502C22.735 20.2247 22.8875 20.3653 23.0629 20.4702L23.1656 20.2986ZM23.6703 20.4309C23.4794 20.4309 23.312 20.3862 23.1656 20.2986L23.0629 20.4702C23.2432 20.578 23.4465 20.6309 23.6703 20.6309V20.4309ZM27.2665 20.4309H23.6703V20.6309H27.2665V20.4309ZM27.7183 20.2431C27.5969 20.3685 27.4486 20.4309 27.2665 20.4309V20.6309C27.501 20.6309 27.7018 20.5478 27.8621 20.3822L27.7183 20.2431ZM27.9 19.7682C27.9009 19.962 27.8396 20.1179 27.7183 20.2431L27.8621 20.3822C28.0225 20.2164 28.1011 20.009 28.1 19.7673L27.9 19.7682ZM27.7179 19.2919C27.8376 19.4173 27.8991 19.5737 27.9 19.7682L28.1 19.7673C28.0989 19.5263 28.0206 19.3194 27.8625 19.1538L27.7179 19.2919ZM27.2665 19.1046C27.4486 19.1046 27.5969 19.1669 27.7183 19.2924L27.8621 19.1533C27.7018 18.9877 27.501 18.9046 27.2665 18.9046V19.1046ZM23.8082 19.1046H27.2665V18.9046H23.8082V19.1046ZM21.0246 14.8427L23.724 19.0585L23.8924 18.9506L21.193 14.7348L21.0246 14.8427ZM20.7809 14.6293C20.8826 14.6761 20.9633 14.7466 21.0245 14.8425L21.1931 14.735C21.1115 14.6071 21.0015 14.5107 20.8646 14.4476L20.7809 14.6293ZM20.4361 14.5545C20.5606 14.5554 20.6751 14.5805 20.7809 14.6293L20.8646 14.4476C20.7317 14.3864 20.589 14.3556 20.4376 14.3545L20.4361 14.5545ZM20.1146 14.6709C20.2054 14.5933 20.3112 14.5545 20.4369 14.5545V14.3545C20.2652 14.3545 20.1129 14.4093 19.9846 14.5189L20.1146 14.6709ZM19.9184 14.9841C19.9554 14.8541 20.021 14.7509 20.1146 14.6709L19.9846 14.5189C19.8591 14.6261 19.7731 14.7641 19.726 14.9292L19.9184 14.9841ZM17.4572 22.6952L19.9175 14.9871L19.7269 14.9262L17.2667 22.6344L17.4572 22.6952ZM15.268 19.599L17.2779 22.7189L17.446 22.6106L15.4361 19.4907L15.268 19.599ZM14.8726 19.237C15.0246 19.3274 15.1576 19.4493 15.2715 19.6042L15.4326 19.4856C15.304 19.3108 15.1514 19.1701 14.9748 19.0651L14.8726 19.237ZM14.3677 19.1046C14.5575 19.1046 14.7249 19.1493 14.8726 19.237L14.9748 19.0651C14.7938 18.9575 14.5905 18.9046 14.3677 18.9046V19.1046ZM11.4835 19.1046H14.3677V18.9046H11.4835V19.1046ZM11.0316 19.2924C11.153 19.1669 11.3014 19.1046 11.4835 19.1046V18.9046C11.249 18.9046 11.0482 18.9877 10.8879 19.1533L11.0316 19.2924ZM10.85 19.7677C10.85 19.5747 10.9113 19.4184 11.0321 19.2919L10.8875 19.1538C10.7285 19.3203 10.65 19.5273 10.65 19.7677H10.85ZM11.0321 20.2436C10.9113 20.1171 10.85 19.9607 10.85 19.7677H10.65C10.65 20.0082 10.7285 20.2152 10.8875 20.3817L11.0321 20.2436ZM11.483 20.4309C11.3002 20.4318 11.1523 20.3695 11.0321 20.2436L10.8875 20.3817C11.047 20.5489 11.2483 20.6321 11.484 20.6309L11.483 20.4309ZM14.221 20.4309L11.4835 20.4309L11.4835 20.6309L14.221 20.6309L14.221 20.4309ZM17.0338 24.7201L14.3051 20.4768L14.1368 20.585L16.8656 24.8283L17.0338 24.7201ZM17.2839 24.9471C17.1805 24.9104 17.0985 24.8395 17.0377 24.7267L16.8617 24.8217C16.9436 24.9735 17.0622 25.0807 17.217 25.1356L17.2839 24.9471ZM17.6495 25.01C17.5239 25.01 17.4022 24.9891 17.2839 24.9471L17.217 25.1356C17.3568 25.1852 17.5011 25.21 17.6495 25.21V25.01Z" fill="#FAF1F1" mask="url(#path-2-inside-1_28_24)"/>
<defs>
<linearGradient id="paint0_linear_28_24" x1="37.1986" y1="1.82508" x2="2.99666" y2="-2.56188" gradientUnits="userSpaceOnUse">
<stop stop-color="#ED6D1D"/>
<stop offset="0.404403" stop-color="#E50071"/>
<stop offset="1" stop-color="#7404BF"/>
</linearGradient>
</defs>
</svg>
