<svg width="41" height="40" viewBox="0 0 41 40" fill="none" xmlns="http://www.w3.org/2000/svg">
<rect width="40.365" height="40" rx="9" fill="#FAF1F1"/>
<path d="M13.5323 9.25415C13.2129 8.93373 12.694 8.93348 12.3742 9.2536C12.0553 9.57289 12.0551 10.0902 12.3739 10.4096L12.9388 10.9756C13.2584 11.2959 13.7773 11.2958 14.0968 10.9755C14.4152 10.6563 14.4152 10.1397 14.0969 9.82044L13.5323 9.25415ZM28.6263 9.25449C28.3068 8.93394 27.7877 8.93378 27.468 9.25414L26.9031 9.82016C26.5844 10.1395 26.5844 10.6565 26.9032 10.9758C27.2227 11.296 27.7415 11.296 28.0611 10.9758L28.6259 10.4098C28.9444 10.0906 28.9446 9.57385 28.6263 9.25449ZM9.8235 16.5743C9.36869 16.5743 9 16.943 9 17.3978C9 17.8526 9.36869 18.2213 9.8235 18.2213H10.6408C11.0956 18.2213 11.4643 17.8526 11.4643 17.3978C11.4643 16.943 11.0956 16.5743 10.6408 16.5743H9.8235ZM30.3592 16.5743C29.9044 16.5743 29.5357 16.943 29.5357 17.3978C29.5357 17.8526 29.9044 18.2213 30.3592 18.2213H31.1765C31.6313 18.2213 32 17.8526 32 17.3978C32 16.943 31.6313 16.5743 31.1765 16.5743H30.3592ZM14.0966 23.8203C13.7772 23.4999 13.2583 23.4997 12.9387 23.82L12.3743 24.3856C12.0557 24.7048 12.0556 25.2217 12.3741 25.541C12.6938 25.8616 13.2131 25.8614 13.5327 25.5408L14.0967 24.9748C14.4147 24.6556 14.4147 24.1394 14.0966 23.8203ZM28.0612 23.8199C27.7416 23.4997 27.2227 23.4997 26.9032 23.82C26.5848 24.1392 26.5848 24.6558 26.9031 24.9751L27.4673 25.541C27.7869 25.8616 28.3061 25.8616 28.6258 25.5411C28.9444 25.2218 28.9443 24.7048 28.6257 24.3855L28.0612 23.8199Z" fill="url(#paint0_linear_28_11)"/>
<path d="M16.9614 27.1052H24.9375V28.6365H16.9614V27.1052ZM18.5566 30.1679H23.3423V31.6993H18.5566V30.1679ZM20.9495 10.2598C18.8341 10.2598 16.8054 11.0665 15.3096 12.5025C13.8138 13.9385 12.9734 15.886 12.9734 17.9168C12.9195 19.0296 13.1416 20.1388 13.6213 21.1532C14.1011 22.1675 14.8249 23.058 15.7331 23.7514C16.5307 24.4635 16.9614 24.8693 16.9614 25.5738H18.5566C18.5566 24.1649 17.6713 23.3762 16.8099 22.6182C16.0644 22.0701 15.4703 21.355 15.0796 20.5353C14.6888 19.7157 14.5134 18.8166 14.5686 17.9168C14.5686 16.2922 15.2409 14.7341 16.4375 13.5854C17.6342 12.4366 19.2572 11.7912 20.9495 11.7912C22.6417 11.7912 24.2647 12.4366 25.4614 13.5854C26.658 14.7341 27.3303 16.2922 27.3303 17.9168C27.3846 18.8173 27.2079 19.7168 26.8158 20.5365C26.4236 21.3562 25.828 22.071 25.081 22.6182C24.2276 23.3839 23.3423 24.1496 23.3423 25.5738H24.9375C24.9375 24.8693 25.3602 24.4635 26.1658 23.7437C27.0734 23.0515 27.7968 22.1623 28.2766 21.1493C28.7564 20.1363 28.9788 19.0284 28.9255 17.9168C28.9255 16.9113 28.7192 15.9156 28.3183 14.9866C27.9175 14.0576 27.33 13.2135 26.5893 12.5025C25.8487 11.7915 24.9694 11.2275 24.0017 10.8427C23.034 10.4579 21.9969 10.2598 20.9495 10.2598Z" fill="url(#paint1_linear_28_11)"/>
<path fill-rule="evenodd" clip-rule="evenodd" d="M22.5065 14.2254C22.278 14.2253 22.0522 14.2719 21.8451 14.3619C21.638 14.4519 21.4547 14.5831 21.308 14.7462C21.1613 14.9094 21.0549 15.1005 20.9962 15.3061C20.9375 15.5117 20.928 15.7268 20.9684 15.9362L18.6949 17.418C18.6835 17.4253 18.6726 17.4332 18.6622 17.4417C18.4315 17.2739 18.1548 17.1697 17.8637 17.1412C17.5725 17.1127 17.2786 17.1608 17.0155 17.2803C16.7523 17.3997 16.5305 17.5855 16.3754 17.8166C16.2202 18.0477 16.1379 18.3147 16.1379 18.5872C16.1379 18.8597 16.2202 19.1268 16.3754 19.3578C16.5305 19.5889 16.7523 19.7748 17.0155 19.8942C17.2786 20.0136 17.5725 20.0618 17.8637 20.0333C18.1548 20.0047 18.4315 19.9006 18.6622 19.7328C18.6726 19.7414 18.6835 19.7495 18.6949 19.7569L20.9684 21.2387C20.9009 21.5889 20.9737 21.95 21.173 22.2536C21.3723 22.5572 21.6843 22.7822 22.0499 22.8861C22.4155 22.99 22.8093 22.9655 23.1568 22.8173C23.5043 22.6691 23.7813 22.4074 23.9355 22.0818C24.0897 21.7563 24.1102 21.3894 23.9933 21.0507C23.8764 20.7119 23.63 20.4249 23.301 20.2438C22.9719 20.0627 22.583 20.0002 22.2078 20.0682C21.8326 20.1361 21.4971 20.3297 21.265 20.6124L19.1121 19.2098C19.2082 19.021 19.262 18.8103 19.262 18.5875C19.262 18.3647 19.2082 18.1535 19.1121 17.9651L21.2655 16.5621C21.4268 16.7586 21.6392 16.9136 21.8828 17.0124C22.1264 17.1112 22.3931 17.1505 22.6575 17.1266C22.922 17.1028 23.1755 17.0165 23.3942 16.876C23.6129 16.7355 23.7894 16.5455 23.9072 16.3238C24.0249 16.1021 24.08 15.8561 24.0671 15.609C24.0543 15.362 23.9739 15.1221 23.8337 14.912C23.6935 14.702 23.498 14.5287 23.2658 14.4085C23.0336 14.2883 22.7722 14.2253 22.5065 14.2254ZM21.6654 15.6794C21.6654 15.4717 21.754 15.2726 21.9117 15.1258C22.0695 14.9789 22.2834 14.8964 22.5065 14.8964C22.7296 14.8964 22.9436 14.9789 23.1013 15.1258C23.2591 15.2726 23.3477 15.4717 23.3477 15.6794C23.3477 15.887 23.2591 16.0862 23.1013 16.233C22.9436 16.3798 22.7296 16.4623 22.5065 16.4623C22.2834 16.4623 22.0695 16.3798 21.9117 16.233C21.754 16.0862 21.6654 15.887 21.6654 15.6794ZM17.6999 17.8045C17.4768 17.8045 17.2628 17.887 17.1051 18.0338C16.9473 18.1807 16.8587 18.3798 16.8587 18.5875C16.8587 18.7951 16.9473 18.9942 17.1051 19.1411C17.2628 19.2879 17.4768 19.3704 17.6999 19.3704C17.923 19.3704 18.1369 19.2879 18.2947 19.1411C18.4524 18.9942 18.5411 18.7951 18.5411 18.5875C18.5411 18.3798 18.4524 18.1807 18.2947 18.0338C18.1369 17.887 17.923 17.8045 17.6999 17.8045ZM22.5065 20.7126C22.2834 20.7126 22.0695 20.7951 21.9117 20.9419C21.754 21.0887 21.6654 21.2879 21.6654 21.4955C21.6654 21.7032 21.754 21.9023 21.9117 22.0491C22.0695 22.196 22.2834 22.2785 22.5065 22.2785C22.7296 22.2785 22.9436 22.196 23.1013 22.0491C23.2591 21.9023 23.3477 21.7032 23.3477 21.4955C23.3477 21.2879 23.2591 21.0887 23.1013 20.9419C22.9436 20.7951 22.7296 20.7126 22.5065 20.7126Z" fill="url(#paint2_linear_28_11)"/>
<defs>
<linearGradient id="paint0_linear_28_11" x1="35.0934" y1="-14.3481" x2="6.10809" y2="-15.9686" gradientUnits="userSpaceOnUse">
<stop stop-color="#ED6D1D"/>
<stop offset="0.404403" stop-color="#E50071"/>
<stop offset="1" stop-color="#7404BF"/>
</linearGradient>
<linearGradient id="paint1_linear_28_11" x1="35.0934" y1="-14.3481" x2="6.10809" y2="-15.9686" gradientUnits="userSpaceOnUse">
<stop stop-color="#ED6D1D"/>
<stop offset="0.404403" stop-color="#E50071"/>
<stop offset="1" stop-color="#7404BF"/>
</linearGradient>
<linearGradient id="paint2_linear_28_11" x1="35.0934" y1="-14.3481" x2="6.10809" y2="-15.9686" gradientUnits="userSpaceOnUse">
<stop stop-color="#ED6D1D"/>
<stop offset="0.404403" stop-color="#E50071"/>
<stop offset="1" stop-color="#7404BF"/>
</linearGradient>
</defs>
</svg>
