<svg width="123" height="122" viewBox="0 0 123 122" fill="none" xmlns="http://www.w3.org/2000/svg">
<g filter="url(#filter0_bd_31_7)">
<rect x="21" y="17" width="81" height="81" rx="17.4752" fill="url(#paint0_linear_31_7)" shape-rendering="crispEdges"/>
<rect x="21.4369" y="17.4369" width="80.1262" height="80.1262" rx="17.0383" stroke="url(#paint1_linear_31_7)" stroke-width="0.873761" shape-rendering="crispEdges"/>
</g>
<path d="M36.5594 54.75L43.7998 47.4505C44.1005 47.1472 44.2616 46.7745 44.2831 46.3325C44.3046 45.8905 44.1435 45.4962 43.7998 45.1495C43.4561 44.8028 43.0759 44.6295 42.6591 44.6295C42.2402 44.6295 41.86 44.8028 41.5184 45.1495L33.8206 52.9138C33.3007 53.4381 33.0408 54.0502 33.0408 54.75C33.0408 55.4498 33.3007 56.0619 33.8206 56.5862L41.5184 64.3505C41.8192 64.6538 42.1887 64.8163 42.6269 64.838C43.0651 64.8597 43.4561 64.6972 43.7998 64.3505C44.1435 64.0038 44.3153 63.6203 44.3153 63.2C44.3153 62.7797 44.1435 62.3962 43.7998 62.0495L36.5594 54.75ZM85.4406 54.75L78.2002 62.0495C77.8995 62.3528 77.7384 62.7255 77.7169 63.1675C77.6954 63.6095 77.8565 64.0038 78.2002 64.3505C78.5439 64.6972 78.9241 64.8705 79.3409 64.8705C79.7576 64.8705 80.1379 64.6972 80.4816 64.3505L88.1794 56.5862C88.6993 56.0619 88.9592 55.4498 88.9592 54.75C88.9592 54.0502 88.6993 53.4381 88.1794 52.9138L80.4816 45.1495C80.1808 44.8462 79.8113 44.6837 79.3731 44.662C78.9349 44.6403 78.5439 44.8028 78.2002 45.1495C77.8565 45.4962 77.6847 45.8797 77.6847 46.3C77.6847 46.7203 77.8565 47.1038 78.2002 47.4505L85.4406 54.75ZM32 41.0025V37.2455C32 35.7505 32.4973 34.5025 33.4919 33.5015C34.4865 32.5005 35.7238 32 37.2039 32H84.7961C86.2783 32 87.5157 32.5016 88.5081 33.5047C89.5006 34.5079 89.9979 35.7559 90 37.2487V41.0025C90 41.4662 89.8464 41.8529 89.5392 42.1627C89.232 42.4726 88.8486 42.6275 88.3889 42.6275C87.9292 42.6275 87.5457 42.4726 87.2386 42.1627C86.9314 41.8529 86.7778 41.4651 86.7778 40.9993V37.2487C86.7778 36.6659 86.592 36.1871 86.2203 35.8122C85.8487 35.4374 85.374 35.25 84.7961 35.25H37.2039C36.626 35.25 36.1513 35.4374 35.7797 35.8122C35.408 36.1871 35.2222 36.6659 35.2222 37.2487V41.0025C35.2222 41.4662 35.0686 41.8529 34.7614 42.1627C34.4543 42.4726 34.0708 42.6275 33.6111 42.6275C33.1514 42.6275 32.768 42.4726 32.4608 42.1627C32.1536 41.8529 32 41.4683 32 41.0025ZM53.9369 84C53.1893 84 52.5685 83.7508 52.0744 83.2525C51.5804 82.7542 51.3333 82.128 51.3333 81.374V77.5H37.2039C35.7217 77.5 34.4843 76.9995 33.4919 75.9985C32.4994 74.9975 32.0021 73.7484 32 72.2513V68.5203C32 68.0566 32.1536 67.6731 32.4608 67.3698C32.768 67.0664 33.1514 66.9148 33.6111 66.9148C34.0708 66.9148 34.4543 67.0697 34.7614 67.3795C35.0686 67.6893 35.2222 68.075 35.2222 68.5365V72.2513C35.2222 72.8341 35.408 73.3129 35.7797 73.6877C36.1513 74.0626 36.626 74.25 37.2039 74.25H84.7961C85.374 74.25 85.8487 74.0626 86.2203 73.6877C86.592 73.3129 86.7778 72.8341 86.7778 72.2513V68.5203C86.7778 68.0566 86.9314 67.6731 87.2386 67.3698C87.5457 67.0664 87.9292 66.9148 88.3889 66.9148C88.8486 66.9148 89.232 67.0697 89.5392 67.3795C89.8464 67.6893 90 68.075 90 68.5365V72.2513C90 73.7463 89.5038 74.9943 88.5113 75.9953C87.5189 76.9963 86.2805 77.4978 84.7961 77.5H70.6667V81.374C70.6667 82.128 70.4196 82.7542 69.9256 83.2525C69.4315 83.7508 68.8107 84 68.0631 84H53.9369Z" fill="url(#paint2_linear_31_7)"/>
<path d="M63.024 45.16H65.804L59.204 64H56.424L63.024 45.16Z" fill="url(#paint3_linear_31_7)"/>
<defs>
<filter id="filter0_bd_31_7" x="-5.21283" y="-9.21283" width="133.426" height="133.426" filterUnits="userSpaceOnUse" color-interpolation-filters="sRGB">
<feFlood flood-opacity="0" result="BackgroundImageFix"/>
<feGaussianBlur in="BackgroundImageFix" stdDeviation="13.1064"/>
<feComposite in2="SourceAlpha" operator="in" result="effect1_backgroundBlur_31_7"/>
<feColorMatrix in="SourceAlpha" type="matrix" values="0 0 0 0 0 0 0 0 0 0 0 0 0 0 0 0 0 0 127 0" result="hardAlpha"/>
<feMorphology radius="0.873761" operator="erode" in="SourceAlpha" result="effect2_dropShadow_31_7"/>
<feOffset dy="3.49504"/>
<feGaussianBlur stdDeviation="10.4851"/>
<feComposite in2="hardAlpha" operator="out"/>
<feColorMatrix type="matrix" values="0 0 0 0 0 0 0 0 0 0 0 0 0 0 0 0 0 0 0.2 0"/>
<feBlend mode="normal" in2="effect1_backgroundBlur_31_7" result="effect2_dropShadow_31_7"/>
<feBlend mode="normal" in="SourceGraphic" in2="effect2_dropShadow_31_7" result="shape"/>
</filter>
<linearGradient id="paint0_linear_31_7" x1="20.2365" y1="68.969" x2="105.421" y2="89.8741" gradientUnits="userSpaceOnUse">
<stop stop-color="#8A8A8A" stop-opacity="0.15"/>
<stop offset="0.626245" stop-color="#B8B8B8" stop-opacity="0.04"/>
</linearGradient>
<linearGradient id="paint1_linear_31_7" x1="112.894" y1="-66.414" x2="10.8068" y2="-72.0434" gradientUnits="userSpaceOnUse">
<stop stop-color="#ED6D1D"/>
<stop offset="0.404403" stop-color="#E50071"/>
<stop offset="1" stop-color="#7404BF"/>
</linearGradient>
<linearGradient id="paint2_linear_31_7" x1="97.8006" y1="-21.5497" x2="24.7552" y2="-26.0424" gradientUnits="userSpaceOnUse">
<stop stop-color="#ED6D1D"/>
<stop offset="0.404403" stop-color="#E50071"/>
<stop offset="1" stop-color="#7404BF"/>
</linearGradient>
<linearGradient id="paint3_linear_31_7" x1="66.0759" y1="4.01653" x2="55.9644" y2="3.88136" gradientUnits="userSpaceOnUse">
<stop stop-color="#ED6D1D"/>
<stop offset="0.404403" stop-color="#E50071"/>
<stop offset="1" stop-color="#7404BF"/>
</linearGradient>
</defs>
</svg>
