<svg width="123" height="122" viewBox="0 0 123 122" fill="none" xmlns="http://www.w3.org/2000/svg">
<g filter="url(#filter0_bd_110_383)">
<rect x="21" y="17" width="81" height="81" rx="17.4752" fill="url(#paint0_linear_110_383)" shape-rendering="crispEdges"/>
<rect x="21.4369" y="17.4369" width="80.1262" height="80.1262" rx="17.0383" stroke="url(#paint1_linear_110_383)" stroke-width="0.873761" shape-rendering="crispEdges"/>
</g>
<path d="M39.7207 53.8458C39.381 53.5059 39.1901 53.045 39.1901 52.5644C39.1901 52.0838 39.381 51.6228 39.7207 51.2829L56.5625 34.4376L56.8162 34.2237C57.1655 33.9839 57.5877 33.8739 58.0095 33.913C58.4313 33.9521 58.8261 34.1377 59.1254 34.4376L59.3356 34.6913C59.5762 35.0407 59.6869 35.4632 59.6485 35.8857C59.6101 36.3081 59.425 36.7038 59.1254 37.0041L45.3794 50.7501H85.5625C86.0432 50.7501 86.5042 50.941 86.8441 51.2809C87.184 51.6208 87.375 52.0819 87.375 52.5626C87.375 53.0433 87.184 53.5043 86.8441 53.8442C86.5042 54.1841 86.0432 54.3751 85.5625 54.3751H41.0004C40.5206 54.375 40.0604 54.1846 39.7207 53.8458ZM36.625 63.4376C36.625 62.9569 36.816 62.4958 37.1559 62.1559C37.4958 61.816 37.9568 61.6251 38.4375 61.6251H82.9996C83.3578 61.6251 83.708 61.7313 84.0059 61.9303C84.3037 62.1292 84.536 62.412 84.6733 62.7428C84.8106 63.0737 84.8468 63.4378 84.7773 63.7892C84.7078 64.1406 84.5358 64.4635 84.2829 64.7172L67.4375 81.5626L67.1838 81.7764C66.8107 82.0281 66.3576 82.1323 65.9121 82.0689C65.4666 82.0055 65.0605 81.7789 64.7726 81.4332C64.4846 81.0874 64.3352 80.6471 64.3534 80.1975C64.3716 79.7479 64.556 79.321 64.871 78.9997L78.6315 65.2501H38.4375C37.9568 65.2501 37.4958 65.0591 37.1559 64.7192C36.816 64.3793 36.625 63.9183 36.625 63.4376Z" fill="url(#paint2_linear_110_383)"/>
<defs>
<filter id="filter0_bd_110_383" x="-5.21283" y="-9.21283" width="133.426" height="133.426" filterUnits="userSpaceOnUse" color-interpolation-filters="sRGB">
<feFlood flood-opacity="0" result="BackgroundImageFix"/>
<feGaussianBlur in="BackgroundImageFix" stdDeviation="13.1064"/>
<feComposite in2="SourceAlpha" operator="in" result="effect1_backgroundBlur_110_383"/>
<feColorMatrix in="SourceAlpha" type="matrix" values="0 0 0 0 0 0 0 0 0 0 0 0 0 0 0 0 0 0 127 0" result="hardAlpha"/>
<feMorphology radius="0.873761" operator="erode" in="SourceAlpha" result="effect2_dropShadow_110_383"/>
<feOffset dy="3.49504"/>
<feGaussianBlur stdDeviation="10.4851"/>
<feComposite in2="hardAlpha" operator="out"/>
<feColorMatrix type="matrix" values="0 0 0 0 0 0 0 0 0 0 0 0 0 0 0 0 0 0 0.2 0"/>
<feBlend mode="normal" in2="effect1_backgroundBlur_110_383" result="effect2_dropShadow_110_383"/>
<feBlend mode="normal" in="SourceGraphic" in2="effect2_dropShadow_110_383" result="shape"/>
</filter>
<linearGradient id="paint0_linear_110_383" x1="20.2365" y1="68.969" x2="105.421" y2="89.8741" gradientUnits="userSpaceOnUse">
<stop stop-color="#8A8A8A" stop-opacity="0.15"/>
<stop offset="0.626245" stop-color="#B8B8B8" stop-opacity="0.04"/>
</linearGradient>
<linearGradient id="paint1_linear_110_383" x1="21" y1="57.5" x2="98.2291" y2="58.4701" gradientUnits="userSpaceOnUse">
<stop stop-color="#7404BF"/>
<stop offset="1" stop-color="#E50071"/>
</linearGradient>
<linearGradient id="paint2_linear_110_383" x1="36.625" y1="57.9962" x2="85.0116" y2="58.6363" gradientUnits="userSpaceOnUse">
<stop stop-color="#7404BF"/>
<stop offset="1" stop-color="#E50071"/>
</linearGradient>
</defs>
</svg>
