<svg width="123" height="122" viewBox="0 0 123 122" fill="none" xmlns="http://www.w3.org/2000/svg">
<g filter="url(#filter0_bd_31_33)">
<rect x="21" y="17" width="81" height="81" rx="17.4752" fill="url(#paint0_linear_31_33)" shape-rendering="crispEdges"/>
<rect x="21.4369" y="17.4369" width="80.1262" height="80.1262" rx="17.0383" stroke="url(#paint1_linear_31_33)" stroke-width="0.873761" shape-rendering="crispEdges"/>
</g>
<path d="M45.3276 57.09C44.0463 56.1773 44.099 54.9311 44.3623 53.5971C44.766 51.4207 45.3978 49.3144 46.4509 47.2608C45.626 46.7869 44.8186 46.313 43.9937 45.8918C43.4671 45.6109 43.2389 45.2424 43.2565 44.628C43.274 41.5389 43.274 38.4497 43.2565 35.3606C43.2565 34.7814 43.4495 34.4303 43.9586 34.1495C46.5036 32.7453 49.0486 31.3412 51.5937 29.9195C52.05 29.6562 52.4362 29.6737 52.8925 29.9195C55.42 31.3412 57.9475 32.7453 60.5101 34.1495C60.984 34.4128 61.1946 34.7638 61.1946 35.3079C61.1771 38.4322 61.1771 41.574 61.1946 44.6982C61.1946 45.2424 60.984 45.5934 60.5101 45.8567C57.9651 47.2608 55.42 48.665 52.875 50.0867C52.4362 50.3324 52.0325 50.35 51.5761 50.0867C50.4177 49.4197 49.2417 48.7879 47.9078 48.0507C47.3987 49.5601 46.8897 50.9819 46.4509 52.4387C46.2403 53.1408 46.135 53.8955 46.0297 54.6327C45.9244 55.405 46.1877 55.6858 46.96 55.7033C47.7673 55.7209 48.5747 55.7033 49.3997 55.7033C50.0316 55.7209 50.4001 56.0544 50.4177 56.5809C50.4352 57.1075 50.0667 57.4586 49.4348 57.5112C49.347 57.5112 49.2593 57.5288 49.1715 57.5112C47.6971 57.2128 46.8371 57.8622 46.135 59.1611C45.117 61.0392 43.8708 62.7944 42.7124 64.6022C42.256 65.3218 42.3438 65.5676 43.1687 65.8133C43.8708 66.0239 44.5904 66.2697 45.3101 66.4452C45.977 66.6031 46.3983 66.9717 46.3281 67.6738C46.2052 68.8849 46.8195 69.3764 47.9078 69.5519C48.5045 69.6396 49.0837 69.8854 49.663 70.0784C50.1544 70.2364 50.4528 70.5523 50.3826 71.0965C50.2948 71.6406 49.9262 71.8512 49.3997 71.8688C48.9609 71.8863 48.5221 71.8688 48.0833 71.8688C47.6445 71.8688 47.2232 71.8688 46.7142 71.8688C46.8546 73.5011 46.9775 75.0632 47.1355 76.6253C47.311 78.4332 46.96 78.363 49.0662 78.3103C50.8916 78.2577 52.6995 78.2226 54.5249 78.1699C55.4902 78.1524 55.6131 78.2401 55.8939 79.2055C56.3503 80.7852 56.7891 82.3648 57.2454 83.927C57.3332 84.2254 57.4209 84.4184 57.8071 84.4184C62.7392 84.4009 67.6713 84.4009 72.5859 84.4009C72.6561 84.4009 72.7088 84.3833 72.8492 84.3482C72.8492 84.12 72.8492 83.8919 72.8492 83.6637C72.8492 80.9782 72.9018 78.2752 72.8316 75.5898C72.7614 73.0798 73.6215 70.956 75.1836 69.078C77.3776 66.4452 78.7993 63.4613 79.3259 60.0738C79.9402 56.0895 79.3259 52.3158 77.4829 48.7352C77.3951 48.5772 77.3249 48.4193 77.2372 48.2788C76.9037 47.6294 77.009 47.1204 77.518 46.8571C78.0095 46.6114 78.4658 46.8045 78.7993 47.4012C79.8524 49.2618 80.6072 51.2451 80.9757 53.3514C82.0991 59.6174 80.6423 65.2341 76.6053 70.1662C75.324 71.7283 74.6044 73.4484 74.657 75.5196C74.7272 78.6263 74.6746 81.733 74.6746 84.8397C74.6746 85.9455 74.4288 86.2087 73.3406 86.2087C67.9346 86.2087 62.5286 86.2087 57.105 86.2087C56.1748 86.2087 55.9992 86.0683 55.7535 85.2083C55.2972 83.6286 54.8408 82.0665 54.4196 80.4692C54.3142 80.0655 54.1387 79.9251 53.6999 79.9427C51.8219 80.0129 49.9438 80.0655 48.0482 80.1006C46.5914 80.1357 45.626 79.3283 45.4856 77.8715C45.2048 75.0106 44.959 72.1671 44.7308 69.3062C44.6255 68.1126 44.6431 68.1126 43.5373 67.7791C43.1161 67.6563 42.6948 67.5334 42.2911 67.393C40.8167 66.9015 40.22 65.2516 41.0449 63.9352C42.3613 61.8641 43.6777 59.793 44.9941 57.7394C45.0819 57.5288 45.2048 57.3181 45.3276 57.09ZM53.1207 47.8576C53.2787 47.7874 53.3664 47.7698 53.4366 47.7347C55.3147 46.6992 57.1928 45.6812 59.0357 44.6105C59.2288 44.5052 59.3868 44.1366 59.3868 43.8908C59.4219 41.6617 59.4043 39.4326 59.4043 37.2035C59.4043 37.0456 59.3692 36.8876 59.3517 36.6594C57.3156 37.7827 55.3498 38.871 53.4015 39.9943C53.2436 40.0821 53.1383 40.3804 53.1383 40.5735C53.1207 41.9952 53.1207 43.4169 53.1207 44.8387C53.1207 45.7865 53.1207 46.7869 53.1207 47.8576ZM51.3129 47.8927C51.3129 45.3126 51.3304 42.8553 51.2953 40.398C51.2953 40.2049 51.0671 39.9416 50.8741 39.8363C49.7507 39.1869 48.6274 38.5726 47.4865 37.9407C46.7142 37.5019 45.9244 37.0807 45.1345 36.6419C45.0994 36.7647 45.0643 36.8349 45.0643 36.8876C45.0643 39.2747 45.0468 41.6617 45.0643 44.0488C45.0643 44.2243 45.2047 44.4701 45.3627 44.5578C47.2934 45.6636 49.2417 46.7343 51.3129 47.8927ZM58.4565 35.0797C56.4029 33.9389 54.5073 32.8682 52.5766 31.8326C52.3835 31.7273 52.0149 31.7624 51.8219 31.8677C50.1544 32.7629 48.487 33.6931 46.8195 34.6234C46.5914 34.7463 46.3632 34.9042 46.0472 35.0973C48.1184 36.2382 50.0667 37.3439 52.05 38.4146C52.1904 38.4848 52.4713 38.4146 52.6293 38.3269C53.6473 37.7827 54.6653 37.2035 55.6657 36.6419C56.5609 36.1329 57.4561 35.6239 58.4565 35.0797Z" fill="url(#paint2_linear_31_33)"/>
<path d="M50.2246 59.8458C50.2597 59.5825 50.2948 59.0735 50.3826 58.582C50.4879 58.073 50.8214 57.7746 51.3655 57.8273C51.8745 57.8799 52.2255 58.3187 52.1378 58.8628C51.8394 60.7058 52.1904 62.3908 53.2962 63.9003C53.6297 64.3566 53.577 64.813 53.1382 65.1816C52.7345 65.5151 52.1904 65.4097 51.8218 64.9183C50.7512 63.4966 50.2422 61.8818 50.2246 59.8458Z" fill="url(#paint3_linear_31_33)"/>
<path d="M53.3709 25.2316C53.3709 25.6704 53.3885 26.1092 53.3709 26.548C53.3534 27.0746 53.0901 27.4256 52.5284 27.4607C51.9843 27.4958 51.6333 27.1799 51.5982 26.6533C51.5455 25.7231 51.5631 24.7753 51.5982 23.8275C51.6157 23.3009 51.9843 22.9674 52.5109 23.0025C53.0374 23.0376 53.3358 23.3711 53.3534 23.9152C53.3709 24.3716 53.3709 24.8104 53.3709 25.2316Z" fill="url(#paint4_linear_31_33)"/>
<path d="M56.4602 24.3716C57.1973 24.3716 57.6712 25.1439 57.2675 25.6704C56.7936 26.2847 56.2144 26.8464 55.6001 27.3203C55.3895 27.4783 54.8278 27.4081 54.6172 27.2326C54.4066 27.057 54.2486 26.4427 54.3715 26.2847C54.8805 25.6178 55.5299 25.0561 56.1267 24.4593C56.2144 24.3716 56.3899 24.3891 56.4602 24.3716Z" fill="url(#paint5_linear_31_33)"/>
<path d="M49.7905 27.4607C49.2113 27.4607 47.9826 26.232 48.0002 25.6704C48.0177 25.0736 48.7198 24.547 49.1937 24.8805C49.7378 25.2491 50.2468 25.7406 50.5979 26.3023C50.9138 26.8113 50.4048 27.4607 49.7905 27.4607Z" fill="url(#paint6_linear_31_33)"/>
<path d="M67.2908 49.5609C67.2908 49.1953 67.3501 48.8741 67.4687 48.5974C67.5873 48.3207 67.7405 48.0736 67.9282 47.8562C68.116 47.6388 68.3136 47.4362 68.5212 47.2485C68.7386 47.0607 68.9412 46.8779 69.1289 46.7C69.3167 46.5221 69.4699 46.3344 69.5885 46.1367C69.7071 45.9391 69.7664 45.7167 69.7664 45.4696C69.7664 45.0546 69.5984 44.7186 69.2624 44.4616C68.9264 44.2047 68.4767 44.0762 67.9134 44.0762C67.3699 44.0762 66.8955 44.1751 66.4904 44.3727C66.0951 44.5704 65.764 44.852 65.4972 45.2176L64.0593 44.2838C64.4744 43.7205 65.0179 43.2807 65.6899 42.9645C66.3619 42.6384 67.1574 42.4753 68.0765 42.4753C68.7979 42.4753 69.4304 42.584 69.9739 42.8014C70.5174 43.0089 70.9424 43.3153 71.2487 43.7205C71.5551 44.1158 71.7082 44.6 71.7082 45.1732C71.7082 45.5685 71.644 45.9144 71.5155 46.2108C71.3969 46.5073 71.2388 46.7692 71.0412 46.9965C70.8534 47.2139 70.6508 47.4214 70.4334 47.6191C70.216 47.8068 70.0085 47.9946 69.8108 48.1824C69.6231 48.3701 69.4699 48.5727 69.3513 48.7901C69.2327 49.0075 69.1734 49.2645 69.1734 49.5609H67.2908ZM68.2395 53.1038C67.8936 53.1038 67.6071 52.9901 67.3798 52.7628C67.1624 52.5355 67.0536 52.2638 67.0536 51.9475C67.0536 51.6313 67.1624 51.3645 67.3798 51.1471C67.6071 50.9198 67.8936 50.8061 68.2395 50.8061C68.5854 50.8061 68.8671 50.9198 69.0845 51.1471C69.3019 51.3645 69.4106 51.6313 69.4106 51.9475C69.4106 52.2638 69.3019 52.5355 69.0845 52.7628C68.8671 52.9901 68.5854 53.1038 68.2395 53.1038Z" fill="url(#paint7_linear_31_33)"/>
<path d="M72.4462 52.8458C72.6595 52.7195 72.8674 52.6431 73.0699 52.6167C73.2723 52.5903 73.4694 52.5944 73.6612 52.6288C73.8529 52.6633 74.0394 52.7086 74.2207 52.7648C74.4054 52.8268 74.582 52.8819 74.7507 52.93C74.9194 52.9781 75.0819 53.0026 75.2382 53.0035C75.3945 53.0044 75.5447 52.9622 75.6889 52.8769C75.9311 52.7335 76.0691 52.5193 76.103 52.2345C76.1368 51.9496 76.0564 51.6429 75.8618 51.3142C75.674 50.997 75.4525 50.7543 75.1971 50.5862C74.9452 50.4238 74.6665 50.3279 74.3609 50.2986L74.4091 49.1368C74.8812 49.1844 75.3256 49.3497 75.7423 49.6325C76.1648 49.912 76.5348 50.3199 76.8524 50.8562C77.1016 51.2772 77.2567 51.6838 77.3176 52.0761C77.3843 52.4649 77.3524 52.8188 77.2218 53.1375C77.097 53.4529 76.8673 53.7096 76.5328 53.9076C76.3022 54.0442 76.0781 54.1262 75.8607 54.1536C75.6468 54.1869 75.4393 54.1851 75.2384 54.1483C75.0467 54.1138 74.8556 54.0673 74.6651 54.0087C74.4804 53.9467 74.2992 53.8905 74.1213 53.8401C73.9469 53.7954 73.7757 53.776 73.6079 53.7819C73.44 53.7878 73.2696 53.842 73.0966 53.9444L72.4462 52.8458ZM70.7066 54.6235C70.5871 54.4217 70.5544 54.2152 70.6085 54.004C70.666 53.7986 70.787 53.6413 70.9716 53.532C71.1561 53.4228 71.3494 53.394 71.5513 53.4458C71.7625 53.4999 71.9278 53.6278 72.0473 53.8297C72.1668 54.0315 72.1978 54.2351 72.1403 54.4405C72.0886 54.6425 71.9704 54.7981 71.7859 54.9074C71.6014 55.0166 71.4052 55.0471 71.1975 54.9988C70.9897 54.9504 70.8261 54.8253 70.7066 54.6235Z" fill="url(#paint8_linear_31_33)"/>
<path d="M60.606 54.3762C60.5155 54.1453 60.4735 53.9279 60.4799 53.7238C60.4863 53.5198 60.5218 53.3259 60.5866 53.1421C60.6513 52.9584 60.726 52.7816 60.8105 52.6117C60.9013 52.4393 60.984 52.2737 61.0585 52.115C61.133 51.9562 61.1833 51.7997 61.2092 51.6456C61.2352 51.4914 61.2176 51.3364 61.1565 51.1804C61.0537 50.9183 60.8645 50.7478 60.5888 50.6687C60.313 50.5896 59.9974 50.6198 59.6417 50.7592C59.2985 50.8937 59.0235 51.0735 58.8166 51.2986C58.6159 51.5212 58.4766 51.781 58.3986 52.0779L57.2597 51.8441C57.3823 51.3857 57.6166 50.9736 57.9627 50.6076C58.3062 50.2354 58.7682 49.9355 59.3484 49.7081C59.8039 49.5295 60.2301 49.4416 60.6271 49.4444C61.0217 49.4409 61.3658 49.5291 61.6595 49.7091C61.9507 49.8829 62.1673 50.1507 62.3091 50.5126C62.407 50.7622 62.452 50.9965 62.4443 51.2154C62.4428 51.432 62.4078 51.6364 62.3392 51.8289C62.2745 52.0126 62.1979 52.1938 62.1096 52.3724C62.0188 52.5447 61.9342 52.7146 61.8559 52.8821C61.7838 53.0471 61.7373 53.213 61.7162 53.3796C61.6951 53.5462 61.7213 53.7231 61.7947 53.9103L60.606 54.3762ZM62.0819 56.3783C61.8635 56.4639 61.6544 56.463 61.4546 56.3758C61.2611 56.2861 61.1252 56.1414 61.047 55.9417C60.9687 55.7421 60.9713 55.5467 61.0548 55.3556C61.142 55.1559 61.2948 55.0132 61.5132 54.9276C61.7316 54.842 61.9375 54.844 62.1311 54.9337C62.3221 55.0172 62.4568 55.1588 62.5351 55.3584C62.6133 55.5581 62.612 55.7566 62.531 55.9539C62.4499 56.1512 62.3002 56.2927 62.0819 56.3783Z" fill="url(#paint9_linear_31_33)"/>
<defs>
<filter id="filter0_bd_31_33" x="-5.21283" y="-9.21283" width="133.426" height="133.426" filterUnits="userSpaceOnUse" color-interpolation-filters="sRGB">
<feFlood flood-opacity="0" result="BackgroundImageFix"/>
<feGaussianBlur in="BackgroundImageFix" stdDeviation="13.1064"/>
<feComposite in2="SourceAlpha" operator="in" result="effect1_backgroundBlur_31_33"/>
<feColorMatrix in="SourceAlpha" type="matrix" values="0 0 0 0 0 0 0 0 0 0 0 0 0 0 0 0 0 0 127 0" result="hardAlpha"/>
<feMorphology radius="0.873761" operator="erode" in="SourceAlpha" result="effect2_dropShadow_31_33"/>
<feOffset dy="3.49504"/>
<feGaussianBlur stdDeviation="10.4851"/>
<feComposite in2="hardAlpha" operator="out"/>
<feColorMatrix type="matrix" values="0 0 0 0 0 0 0 0 0 0 0 0 0 0 0 0 0 0 0.2 0"/>
<feBlend mode="normal" in2="effect1_backgroundBlur_31_33" result="effect2_dropShadow_31_33"/>
<feBlend mode="normal" in="SourceGraphic" in2="effect2_dropShadow_31_33" result="shape"/>
</filter>
<linearGradient id="paint0_linear_31_33" x1="20.2365" y1="68.969" x2="105.421" y2="89.8741" gradientUnits="userSpaceOnUse">
<stop stop-color="#8A8A8A" stop-opacity="0.15"/>
<stop offset="0.626245" stop-color="#B8B8B8" stop-opacity="0.04"/>
</linearGradient>
<linearGradient id="paint1_linear_31_33" x1="112.894" y1="-66.414" x2="10.8068" y2="-72.0434" gradientUnits="userSpaceOnUse">
<stop stop-color="#ED6D1D"/>
<stop offset="0.404403" stop-color="#E50071"/>
<stop offset="1" stop-color="#7404BF"/>
</linearGradient>
<linearGradient id="paint2_linear_31_33" x1="86.8126" y1="-28.4349" x2="35.4783" y2="-30.4733" gradientUnits="userSpaceOnUse">
<stop stop-color="#ED6D1D"/>
<stop offset="0.404403" stop-color="#E50071"/>
<stop offset="1" stop-color="#7404BF"/>
</linearGradient>
<linearGradient id="paint3_linear_31_33" x1="53.9544" y1="50.0428" x2="49.8007" y2="49.9431" gradientUnits="userSpaceOnUse">
<stop stop-color="#ED6D1D"/>
<stop offset="0.404403" stop-color="#E50071"/>
<stop offset="1" stop-color="#7404BF"/>
</linearGradient>
<linearGradient id="paint4_linear_31_33" x1="53.6227" y1="18.4036" x2="51.3309" y2="18.3522" gradientUnits="userSpaceOnUse">
<stop stop-color="#ED6D1D"/>
<stop offset="0.404403" stop-color="#E50071"/>
<stop offset="1" stop-color="#7404BF"/>
</linearGradient>
<linearGradient id="paint5_linear_31_33" x1="57.8306" y1="21.2443" x2="53.9403" y2="21.0263" gradientUnits="userSpaceOnUse">
<stop stop-color="#ED6D1D"/>
<stop offset="0.404403" stop-color="#E50071"/>
<stop offset="1" stop-color="#7404BF"/>
</linearGradient>
<linearGradient id="paint6_linear_31_33" x1="51.0568" y1="22.013" x2="47.661" y2="21.825" gradientUnits="userSpaceOnUse">
<stop stop-color="#ED6D1D"/>
<stop offset="0.404403" stop-color="#E50071"/>
<stop offset="1" stop-color="#7404BF"/>
</linearGradient>
<linearGradient id="paint7_linear_31_33" x1="74.2104" y1="9.25495" x2="62.8374" y2="9.02918" gradientUnits="userSpaceOnUse">
<stop stop-color="#ED6D1D"/>
<stop offset="0.404403" stop-color="#E50071"/>
<stop offset="1" stop-color="#7404BF"/>
</linearGradient>
<linearGradient id="paint8_linear_31_33" x1="98.1603" y1="42.9381" x2="94.4244" y2="36.3386" gradientUnits="userSpaceOnUse">
<stop stop-color="#ED6D1D"/>
<stop offset="0.404403" stop-color="#E50071"/>
<stop offset="1" stop-color="#7404BF"/>
</linearGradient>
<linearGradient id="paint9_linear_31_33" x1="54.9484" y1="27.4063" x2="47.8353" y2="30.0361" gradientUnits="userSpaceOnUse">
<stop stop-color="#ED6D1D"/>
<stop offset="0.404403" stop-color="#E50071"/>
<stop offset="1" stop-color="#7404BF"/>
</linearGradient>
</defs>
</svg>
