<svg width="123" height="122" viewBox="0 0 123 122" fill="none" xmlns="http://www.w3.org/2000/svg">
<g filter="url(#filter0_bd_31_21)">
<rect x="21" y="17" width="81" height="81" rx="17.4752" fill="url(#paint0_linear_31_21)" shape-rendering="crispEdges"/>
<rect x="21.4369" y="17.4369" width="80.1262" height="80.1262" rx="17.0383" stroke="url(#paint1_linear_31_21)" stroke-width="0.873761" shape-rendering="crispEdges"/>
</g>
<g clip-path="url(#clip0_31_21)">
<path d="M87.2898 74.1201C87.0838 74.4526 86.9443 74.8711 86.6549 75.0967C86.2924 75.3796 85.8204 75.6208 85.3719 75.6717C84.5491 75.7656 83.7094 75.7212 82.8763 75.7095C82.3417 75.7017 82.0066 75.3861 82.004 74.9441C82.0027 74.5086 82.3365 74.1827 82.8724 74.1657C83.583 74.1423 84.2949 74.167 85.0068 74.1553C85.5701 74.1462 85.7226 73.9962 85.7226 73.4395C85.7265 66.7598 85.7252 60.0801 85.7226 53.3992C85.7226 52.8111 85.5714 52.6677 84.9781 52.6664C76.4574 52.6638 67.9367 52.6625 59.4159 52.6625C58.824 52.6625 58.6636 52.8137 58.6649 53.394C58.6688 59.9693 58.678 66.546 58.6858 73.1213C58.6858 73.2778 58.7001 73.433 58.7001 73.5894C58.7001 73.978 58.8788 74.1344 59.279 74.1331C61.4826 74.1292 63.6861 74.1462 65.8909 74.1527C66.7567 74.1553 67.6224 74.1527 68.5703 74.1527V73.6233C68.5703 70.5527 68.5756 67.4808 68.5599 64.4103C68.5599 64.199 68.3917 63.9943 68.337 63.7779C68.2639 63.4936 68.1153 63.1599 68.2027 62.9239C68.2809 62.7139 68.6225 62.5236 68.8754 62.4766C69.2783 62.4023 69.7047 62.4532 70.1206 62.4532C71.8561 62.4532 73.5915 62.4558 75.3269 62.4506C75.7024 62.4506 76.0727 62.4545 76.2761 62.8404C76.4691 63.2055 76.4065 63.5341 76.1106 63.8339C76.0388 63.907 76.018 64.0556 76.018 64.169C76.0154 67.4313 76.018 70.6922 76.0206 73.9545C76.0206 74.0027 76.048 74.0497 76.0806 74.154C76.6751 74.154 77.2775 74.154 77.8799 74.154C78.2619 74.154 78.644 74.1396 79.0247 74.1605C79.5945 74.1905 79.9204 74.5086 79.8983 74.9793C79.8761 75.4318 79.5632 75.7043 79.0012 75.7108C78.0324 75.7238 77.0637 75.7147 76.0545 75.7147V76.8882C76.31 76.9182 76.5526 76.9221 76.7833 76.9755C77.8603 77.2259 78.5762 78.2038 78.481 79.2756C78.3793 80.4203 77.5135 81.2678 76.3492 81.2926C74.9958 81.3213 73.6424 81.3017 72.2889 81.303C71.0216 81.303 69.7556 81.2874 68.4882 81.3083C67.625 81.3226 66.874 81.1179 66.2795 80.3395C65.0447 81.4569 63.5283 81.3044 62.0406 81.303C54.1275 81.3017 46.2144 81.3031 38.3 81.3004C36.3742 81.3004 34.8838 80.2678 34.2189 78.4906C33.8564 77.5219 34.0194 76.5492 34.1785 75.5661C35.0494 70.2294 35.8956 64.8888 36.7718 59.5534C37.0652 57.7658 38.1305 56.6027 39.8294 56.0043C39.9767 55.9521 40.1241 55.8934 40.2766 55.8674C42.5466 55.4749 44.5011 54.3692 46.4074 53.1553C46.9015 52.8411 46.9093 52.5399 46.4152 52.2335C44.4294 51.0014 43.076 49.279 42.454 47.0233C42.2859 46.4118 42.2454 45.7612 42.1907 45.1249C42.1633 44.8028 42.0577 44.6529 41.7382 44.5486C40.244 44.0596 39.3887 42.6893 39.7081 41.3085C39.7772 41.0112 39.8828 40.6774 40.0836 40.4662C40.4435 40.0881 40.3718 39.7152 40.2753 39.281C39.8268 37.2613 39.8972 35.2677 40.8529 33.4019C41.2584 32.6117 41.8425 31.9077 42.3967 31.2036C42.7174 30.7955 43.2129 30.7994 43.5415 31.1149C43.8544 31.4148 43.8792 31.8594 43.5336 32.2297C42.7409 33.0824 42.1346 34.0303 41.8373 35.1686C41.4931 36.4894 41.5296 37.8024 41.8621 39.1884C42.7239 38.8233 43.4606 39.2262 44.2338 39.4687C46.6473 40.2237 49.0438 39.9772 51.3829 39.1676C52.3556 38.8299 53.2761 38.3213 54.1888 37.8311C55.0402 37.3734 55.6804 37.4073 56.3297 38.1206C56.9334 38.7842 57.661 39.0802 58.5502 39.0515C58.9622 39.0385 59.3755 39.0828 59.8462 39.1037C60.1539 37.3265 60.3195 35.5506 59.3156 33.896C58.837 33.1072 58.0899 32.6613 57.2229 32.3601C56.7795 32.2062 56.2893 31.995 55.9868 31.6599C54.8329 30.3782 53.3556 29.845 51.7154 29.6455C50.049 29.4421 48.4322 29.6781 46.8598 30.2531C46.6968 30.3117 46.5299 30.3574 46.3643 30.4082C45.9119 30.5464 45.5716 30.3965 45.3773 29.9766C45.1948 29.5842 45.3786 29.1187 45.8389 28.9622C46.689 28.6741 47.5587 28.4381 48.427 28.2073C48.8051 28.1069 49.2041 28.0678 49.5953 28C50.2889 28 50.9839 28 51.6775 28C51.7727 28.0313 51.8666 28.0795 51.9644 28.0913C53.9319 28.339 55.6856 29.0222 57.0494 30.5334C57.1916 30.6899 57.4119 30.8085 57.6192 30.8698C59.8801 31.5361 61.0784 33.1124 61.493 35.3629C61.7381 36.6954 61.626 38.0202 61.4082 39.3449C61.3652 39.6096 61.3457 39.9786 61.4904 40.1585C62.7291 41.6892 62.0771 43.7989 60.1578 44.4925C59.7002 44.6581 59.6076 44.8889 59.5907 45.3113C59.5255 46.9099 58.9948 48.3558 58.086 49.6688C57.3532 50.7289 56.4145 51.5594 55.3101 52.2127C54.9515 52.4252 54.8225 52.8229 55.0832 53.0028C55.7117 53.437 56.3806 53.8151 57.1055 54.261C57.1055 53.8255 57.0899 53.5126 57.1081 53.2023C57.1824 51.9454 57.9856 51.12 59.1799 51.1187C67.8363 51.1083 76.4926 51.1057 85.1489 51.1044C86.1216 51.1044 86.7866 51.5764 87.1634 52.4669C87.1947 52.5412 87.2455 52.6064 87.2885 52.6755V74.1214L87.2898 74.1201ZM47.6434 60.1219C47.603 60.1492 47.5626 60.1766 47.5221 60.204C47.5221 60.4635 47.5221 60.7229 47.5221 60.9824C47.5221 61.9186 47.5313 62.8561 47.513 63.7922C47.5039 64.2629 47.2001 64.5576 46.7776 64.5745C46.3526 64.5915 46.0384 64.3164 45.9745 63.8548C45.9536 63.701 45.9601 63.5432 45.9601 63.3867C45.9601 61.9812 45.9719 60.5769 45.9471 59.1714C45.9432 58.968 45.8154 58.7098 45.6602 58.5742C44.9796 57.9822 44.2768 57.4164 43.561 56.8674C43.4228 56.7618 43.1777 56.6992 43.0134 56.7397C42.1242 56.9639 41.2362 57.2012 40.364 57.4842C39.1722 57.8701 38.4655 58.6798 38.2648 59.9471C37.3951 65.4586 36.5411 70.9726 35.6023 76.4709C35.335 78.0356 36.3168 79.7997 38.4421 79.7515C40.6273 79.7006 42.8139 79.741 45.0005 79.7397C45.1674 79.7397 45.3356 79.7254 45.5364 79.715C45.5364 78.724 45.5364 77.7735 45.5364 76.8217C45.5364 75.8986 45.3604 75.7173 44.4516 75.716C42.8895 75.7134 41.3288 75.7212 39.7668 75.7108C39.1683 75.7069 38.858 75.4266 38.8554 74.9441C38.8528 74.4643 39.1644 74.1892 39.759 74.1566C39.9754 74.1449 40.1945 74.1553 40.4187 74.1553C40.8138 71.4876 41.1945 68.8994 41.5792 66.3113C41.7017 65.4885 41.8126 64.6645 41.9612 63.8457C42.0433 63.3959 42.3537 63.1546 42.823 63.199C43.2351 63.2381 43.4828 63.5823 43.4737 64.0582C43.4711 64.1795 43.4606 64.3007 43.4424 64.4207C43.2546 65.6893 43.063 66.9567 42.8752 68.2253C42.5857 70.1759 42.2989 72.1278 42.0042 74.1292C42.574 74.1292 43.1086 74.1527 43.6393 74.124C44.6302 74.0692 45.4268 73.6051 45.8754 72.7367C46.2026 72.103 46.3943 71.3872 46.5638 70.687C46.7229 70.0312 46.9276 69.7743 47.603 69.7717C49.7896 69.7639 51.9748 69.7626 54.1614 69.7717C54.7951 69.7743 54.9789 70.0012 55.1484 70.6127C55.3531 71.3572 55.5852 72.103 55.902 72.8045C56.1185 73.283 56.5227 73.6598 57.069 73.828V57.844C56.7991 58.0566 56.6113 58.2404 56.3923 58.3695C55.9034 58.6563 55.7599 59.054 55.7782 59.6173C55.8225 60.9342 55.7925 62.2537 55.7912 63.5719C55.7912 63.95 55.7404 64.3099 55.3518 64.5002C54.8029 64.7688 54.2553 64.3946 54.237 63.7036C54.2122 62.7152 54.2305 61.7256 54.2266 60.7373C54.2266 60.5613 54.2057 60.3852 54.1862 60.0619C53.4156 60.7477 52.7389 61.311 52.1091 61.9238C51.3842 62.6305 50.272 62.5744 49.5627 61.8364C48.9707 61.2184 48.2862 60.689 47.6421 60.1193L47.6434 60.1219ZM43.6797 40.9969C43.6797 42.2225 43.6497 43.4181 43.6875 44.6112C43.7384 46.2566 44.1764 47.7639 45.2039 49.1095C47.5899 52.2374 52.3999 52.7942 55.4131 50.2608C57.0403 48.893 57.9817 47.185 58.0417 45.0493C58.0834 43.5811 58.0495 42.1104 58.0495 40.6161C56.8695 40.4962 55.876 40.0242 55.1328 39.1245C51.5472 41.3215 47.7621 41.98 43.681 40.9969H43.6797ZM70.178 64.0334V76.883H74.4051V64.0334H70.178ZM56.2124 79.7176C56.4079 79.728 56.5435 79.741 56.6791 79.741C58.9492 79.741 61.2192 79.7488 63.4892 79.741C65.2664 79.7345 66.3838 78.4971 66.1308 76.7317C65.9574 75.523 66.2247 75.7434 65.0095 75.7199C64.75 75.7147 64.4893 75.7199 64.2298 75.7199C61.8907 75.7199 59.5516 75.7173 57.2111 75.7212C56.4953 75.7212 56.2306 75.9103 56.2176 76.4931C56.1941 77.5479 56.2111 78.6041 56.2111 79.7189L56.2124 79.7176ZM50.8835 77.7722C51.6945 76.5792 52.7637 75.7643 54.1575 75.5296C54.7625 75.4279 55.1093 75.1475 55.3049 74.8333C54.812 73.9271 54.3009 73.1252 53.9293 72.2647C53.5395 71.3598 53.5968 71.3337 52.6059 71.3337H48.0685C47.7803 72.6272 47.2796 73.772 46.3356 74.6599C46.6316 75.1423 46.9563 75.437 47.5521 75.523C48.6422 75.6821 49.5614 76.2519 50.3046 77.0785C50.4989 77.295 50.6788 77.5245 50.8848 77.7735L50.8835 77.7722ZM53.4026 53.0563C51.6997 53.5296 50.0399 53.5674 48.3149 53.0758C48.3149 53.4722 48.2914 53.8164 48.3188 54.1567C48.4049 55.2246 48.6174 55.6627 49.5483 55.8843C50.1938 56.0382 50.89 56.1412 51.5393 56.0669C52.3556 55.973 53.2396 55.7605 53.3895 54.7187C53.4651 54.1971 53.4026 53.656 53.4026 53.0563ZM72.2472 78.4828C70.9486 78.4828 69.6486 78.4802 68.35 78.4828C67.7502 78.4841 67.4712 78.6953 67.4803 79.1243C67.4894 79.5337 67.7633 79.7384 68.3278 79.7397C70.9095 79.7423 73.4898 79.7423 76.0714 79.7397C76.623 79.7397 76.9124 79.522 76.919 79.1191C76.9268 78.7097 76.6451 78.4854 76.0923 78.4841C74.8106 78.4802 73.5289 78.4828 72.2459 78.4828H72.2472ZM49.9421 79.7254C49.7935 78.3707 48.1754 76.9899 47.1349 77.0916V79.7254H49.9421ZM54.6034 79.7215V77.0551C53.2174 77.2076 51.8275 78.561 51.834 79.7215H54.6034ZM52.2656 57.6354H49.5105C49.9356 58.7189 50.3646 59.8142 50.7948 60.9107C50.8522 60.9068 50.9109 60.9029 50.9682 60.9003C51.3998 59.8142 51.8314 58.728 52.2656 57.6354ZM44.8492 55.8882C45.9653 56.7931 47.0163 57.6445 48.0672 58.496C48.0932 58.4751 48.1193 58.4555 48.1454 58.4347C47.6812 57.2299 47.217 56.0251 46.7372 54.7787C46.1192 55.1424 45.5259 55.4919 44.8505 55.8895L44.8492 55.8882ZM53.6346 58.4347C53.6698 58.4542 53.705 58.4738 53.7389 58.4933C54.7846 57.6602 55.8316 56.827 56.9125 55.9665C56.2476 55.5649 55.6491 55.2037 55.0363 54.8334C54.5552 56.0695 54.0949 57.2521 53.6346 58.4334V58.4347ZM42.0929 40.8091C41.4827 41.066 41.1697 41.4806 41.1997 41.9448C41.2297 42.4298 41.5648 42.804 42.0929 42.9331V40.8091ZM59.6832 40.7804V42.9944C60.2074 42.7662 60.5386 42.4507 60.5438 41.9043C60.5503 41.358 60.2243 41.0321 59.6832 40.7791V40.7804ZM67.7333 76.8882H68.5417V75.759H67.5755C67.6316 76.1606 67.6811 76.514 67.7333 76.8882Z" fill="url(#paint2_linear_31_21)"/>
<path d="M72.1796 55.2845C73.5148 55.2845 74.6309 56.3889 74.653 57.7305C74.6752 59.0787 73.5382 60.2248 72.1783 60.2248C70.8197 60.2248 69.6853 59.0813 69.7036 57.7292C69.7218 56.3954 70.8471 55.2832 72.1796 55.2832V55.2845ZM72.1653 58.6524C72.6542 58.6589 73.0623 58.269 73.0793 57.7814C73.0949 57.2885 72.6581 56.8413 72.1666 56.8491C71.6985 56.857 71.2721 57.2885 71.2721 57.7553C71.2721 58.2325 71.6841 58.6472 72.1653 58.6537V58.6524Z" fill="url(#paint3_linear_31_21)"/>
<path d="M62.3641 72.2804C61.9482 72.2804 61.5309 72.3012 61.1176 72.2752C60.6769 72.2465 60.42 71.9896 60.3979 71.5385C60.377 71.1017 60.643 70.7809 61.1267 70.7614C61.9573 70.7301 62.7891 70.7353 63.6197 70.7653C64.0669 70.7809 64.3147 71.0808 64.3121 71.5215C64.3094 71.9635 64.0552 72.2413 63.6093 72.2713C63.1959 72.2999 62.7787 72.2778 62.3628 72.2778V72.2804H62.3641Z" fill="url(#paint4_linear_31_21)"/>
<path d="M66.1962 72.2792C65.7803 72.2779 65.4452 71.9454 65.436 71.5255C65.4256 71.0913 65.7372 70.7719 66.1714 70.7693C66.6291 70.768 66.9811 71.1044 66.9707 71.5334C66.9603 71.9389 66.6056 72.2792 66.1962 72.2779V72.2792Z" fill="url(#paint5_linear_31_21)"/>
<path d="M83.5583 47.8305C83.5583 46.9764 83.5583 46.1355 83.5583 45.2945C83.5583 44.7742 83.5387 44.2527 83.5713 43.7337C83.6039 43.2318 83.9325 42.9384 84.3706 42.9527C84.8139 42.9671 85.1099 43.2709 85.1125 43.782C85.1229 45.2736 85.1177 46.7652 85.1099 48.2568C85.1072 48.8318 84.8191 49.253 84.3158 49.5046C83.789 49.7667 83.2649 49.7145 82.8033 49.3456C82.4513 49.0652 82.1123 48.764 81.7954 48.4446C81.4786 48.1251 81.1174 48.0156 80.6728 48.0169C76.0754 48.0274 71.4767 48.0234 66.8793 48.0221C65.1087 48.0221 64.3824 47.2959 64.3824 45.5305C64.3824 42.9801 64.3811 40.4311 64.3824 37.8807C64.3837 36.3422 65.1791 35.5377 66.7241 35.5364C72.0856 35.5312 77.4471 35.5312 82.8072 35.5364C84.3262 35.5377 85.1099 36.337 85.1164 37.8494C85.119 38.5431 85.1242 39.2367 85.1138 39.9304C85.1059 40.4871 84.836 40.8027 84.3823 40.8235C83.9038 40.8457 83.5791 40.5249 83.5622 39.9552C83.5413 39.2615 83.5583 38.5679 83.5557 37.8742C83.5531 37.2236 83.4396 37.0971 82.8112 37.0971C77.4327 37.0945 72.0543 37.0945 66.6759 37.0971C66.0787 37.0971 65.947 37.2405 65.947 37.8429C65.9444 40.4454 65.9457 43.0466 65.947 45.6491C65.947 46.3675 66.0357 46.4575 66.7607 46.4575C71.2537 46.4588 75.7482 46.4823 80.2412 46.4419C81.3899 46.4314 82.3613 46.6726 83.1293 47.5554C83.2075 47.6466 83.3105 47.717 83.4044 47.7927C83.4266 47.8096 83.4631 47.807 83.5583 47.8266V47.8305Z" fill="url(#paint6_linear_31_21)"/>
<path d="M73.4038 45.5174C72.834 45.5174 72.4989 45.0206 72.7049 44.4183C73.0804 43.323 73.4846 42.2382 73.8797 41.1508C74.1744 40.3385 74.4677 39.5262 74.7742 38.7191C74.9919 38.1454 75.3844 37.9263 75.842 38.1011C76.2684 38.2627 76.4353 38.6943 76.2423 39.2302C75.563 41.1156 74.8706 42.997 74.1861 44.8798C74.0518 45.2514 73.8341 45.5135 73.4038 45.5187V45.5174Z" fill="url(#paint7_linear_31_21)"/>
<path d="M78.6727 41.5784C78.2098 41.152 77.7809 40.7791 77.3793 40.3789C76.9347 39.9355 76.8982 39.4988 77.2398 39.1493C77.5697 38.8129 78.039 38.8507 78.4706 39.2719C79.0287 39.8156 79.5815 40.3645 80.1252 40.9226C80.6155 41.4259 80.6103 41.8092 80.12 42.3086C79.5867 42.8523 79.0521 43.3947 78.5045 43.9241C78.0104 44.4013 77.5944 44.4443 77.2424 44.0831C76.8838 43.7154 76.9347 43.2956 77.4093 42.8197C77.7978 42.4298 78.1955 42.0478 78.6727 41.5797V41.5784Z" fill="url(#paint8_linear_31_21)"/>
<path d="M70.4611 41.6476C70.924 42.0752 71.353 42.4494 71.7572 42.851C72.1835 43.2748 72.2227 43.752 71.8928 44.0819C71.5433 44.43 71.1092 44.3948 70.6619 43.9567C70.0935 43.4 69.5289 42.8393 68.976 42.2669C68.5236 41.7975 68.5249 41.4272 68.976 40.9591C69.5419 40.375 70.1169 39.8013 70.7011 39.2354C71.1092 38.8404 71.5629 38.8195 71.8915 39.1533C72.2161 39.4832 72.1861 39.9317 71.7859 40.3424C71.3882 40.7518 70.9736 41.143 70.4598 41.6476H70.4611Z" fill="url(#paint9_linear_31_21)"/>
</g>
<defs>
<filter id="filter0_bd_31_21" x="-5.21283" y="-9.21283" width="133.426" height="133.426" filterUnits="userSpaceOnUse" color-interpolation-filters="sRGB">
<feFlood flood-opacity="0" result="BackgroundImageFix"/>
<feGaussianBlur in="BackgroundImageFix" stdDeviation="13.1064"/>
<feComposite in2="SourceAlpha" operator="in" result="effect1_backgroundBlur_31_21"/>
<feColorMatrix in="SourceAlpha" type="matrix" values="0 0 0 0 0 0 0 0 0 0 0 0 0 0 0 0 0 0 127 0" result="hardAlpha"/>
<feMorphology radius="0.873761" operator="erode" in="SourceAlpha" result="effect2_dropShadow_31_21"/>
<feOffset dy="3.49504"/>
<feGaussianBlur stdDeviation="10.4851"/>
<feComposite in2="hardAlpha" operator="out"/>
<feColorMatrix type="matrix" values="0 0 0 0 0 0 0 0 0 0 0 0 0 0 0 0 0 0 0.2 0"/>
<feBlend mode="normal" in2="effect1_backgroundBlur_31_21" result="effect2_dropShadow_31_21"/>
<feBlend mode="normal" in="SourceGraphic" in2="effect2_dropShadow_31_21" result="shape"/>
</filter>
<linearGradient id="paint0_linear_31_21" x1="20.2365" y1="68.969" x2="105.421" y2="89.8741" gradientUnits="userSpaceOnUse">
<stop stop-color="#8A8A8A" stop-opacity="0.15"/>
<stop offset="0.626245" stop-color="#B8B8B8" stop-opacity="0.04"/>
</linearGradient>
<linearGradient id="paint1_linear_31_21" x1="21" y1="57.5" x2="98.2291" y2="58.4701" gradientUnits="userSpaceOnUse">
<stop stop-color="#7404BF"/>
<stop offset="1" stop-color="#E50071"/>
</linearGradient>
<linearGradient id="paint2_linear_31_21" x1="94.4569" y1="-26.8995" x2="27.2943" y2="-30.6016" gradientUnits="userSpaceOnUse">
<stop stop-color="#ED6D1D"/>
<stop offset="0.404403" stop-color="#E50071"/>
<stop offset="1" stop-color="#7404BF"/>
</linearGradient>
<linearGradient id="paint3_linear_31_21" x1="75.3191" y1="50.1943" x2="69.0805" y2="49.8497" gradientUnits="userSpaceOnUse">
<stop stop-color="#ED6D1D"/>
<stop offset="0.404403" stop-color="#E50071"/>
<stop offset="1" stop-color="#7404BF"/>
</linearGradient>
<linearGradient id="paint4_linear_31_21" x1="64.8387" y1="69.1461" x2="59.9835" y2="68.4689" gradientUnits="userSpaceOnUse">
<stop stop-color="#ED6D1D"/>
<stop offset="0.404403" stop-color="#E50071"/>
<stop offset="1" stop-color="#7404BF"/>
</linearGradient>
<linearGradient id="paint5_linear_31_21" x1="67.1774" y1="69.2144" x2="65.2428" y2="69.106" gradientUnits="userSpaceOnUse">
<stop stop-color="#ED6D1D"/>
<stop offset="0.404403" stop-color="#E50071"/>
<stop offset="1" stop-color="#7404BF"/>
</linearGradient>
<linearGradient id="paint6_linear_31_21" x1="87.9092" y1="20.9753" x2="61.8631" y2="18.8682" gradientUnits="userSpaceOnUse">
<stop stop-color="#ED6D1D"/>
<stop offset="0.404403" stop-color="#E50071"/>
<stop offset="1" stop-color="#7404BF"/>
</linearGradient>
<linearGradient id="paint7_linear_31_21" x1="76.8166" y1="30.3434" x2="72.1703" y2="30.2174" gradientUnits="userSpaceOnUse">
<stop stop-color="#ED6D1D"/>
<stop offset="0.404403" stop-color="#E50071"/>
<stop offset="1" stop-color="#7404BF"/>
</linearGradient>
<linearGradient id="paint8_linear_31_21" x1="80.9587" y1="33.3632" x2="76.5621" y2="33.2069" gradientUnits="userSpaceOnUse">
<stop stop-color="#ED6D1D"/>
<stop offset="0.404403" stop-color="#E50071"/>
<stop offset="1" stop-color="#7404BF"/>
</linearGradient>
<linearGradient id="paint9_linear_31_21" x1="72.5804" y1="33.3613" x2="68.192" y2="33.2055" gradientUnits="userSpaceOnUse">
<stop stop-color="#ED6D1D"/>
<stop offset="0.404403" stop-color="#E50071"/>
<stop offset="1" stop-color="#7404BF"/>
</linearGradient>
<clipPath id="clip0_31_21">
<rect width="53.29" height="53.3109" fill="white" transform="translate(34 28)"/>
</clipPath>
</defs>
</svg>
