<svg width="212" height="70" viewBox="0 0 212 70" fill="none" xmlns="http://www.w3.org/2000/svg">
<path d="M72.1653 19.7348C71.6363 18.9413 71.0545 18.2713 70.3139 17.5572C68.9473 16.2435 67.4397 14.9475 65.7999 13.6779C61.665 10.4776 57.4243 7.61224 53.0689 5.09074C50.9177 3.84763 48.6519 2.70149 46.2538 1.66115C44.4641 0.885306 42.5598 0.268157 40.629 0.100645C37.3228 -0.181481 33.9637 0.153543 30.64 0.805959C25.3148 1.8463 20.2013 3.52142 15.2817 5.81369C12.866 6.94219 10.5738 8.25584 8.38729 9.76345C6.8356 10.8302 5.36326 12.0645 4.22594 13.581C4.19949 13.6074 4.19949 13.6515 4.21712 13.6868C5.24864 15.741 6.72099 17.6101 8.23741 19.2852C10.8823 22.2122 13.8358 25.007 17.0098 27.4051C20.263 29.8561 23.5515 32.3511 26.99 34.5288C29.6261 36.1951 32.509 37.4999 35.6389 37.4823C37.6402 37.4823 39.6768 37.0679 41.5282 36.4949C43.4061 35.913 45.3458 35.2165 47.3471 34.3877C50.5474 33.0653 53.7302 31.6723 56.8776 30.2264C59.7253 28.9127 62.5113 27.3963 64.9359 25.7476C66.5052 24.6808 68.0657 23.5876 69.6086 22.4856C70.6665 21.7273 71.5217 20.9427 72.1653 19.8671C72.1918 19.823 72.1918 19.7789 72.1653 19.7348ZM39.9942 10.0279C37.2435 8.37045 34.2194 7.66514 31.0455 8.43217C28.956 8.9347 26.8842 9.8428 24.9445 10.7597C24.9357 10.7597 24.9357 10.7685 24.9269 10.7685C24.9093 10.7862 24.9181 10.795 24.9357 10.8126L49.8862 28.7893C49.9039 28.7981 49.9038 28.8157 49.895 28.8334C49.895 28.8422 49.8862 28.8422 49.8862 28.8422L43.6971 31.5224C43.6794 31.5224 43.6706 31.5312 43.653 31.5312C43.6354 31.5312 43.6177 31.5312 43.6089 31.5136L28.8326 20.8677L14.0563 10.2219C14.0563 10.2131 14.0474 10.2131 14.0474 10.2043C14.0386 10.1866 14.0474 10.169 14.0563 10.1602C17.671 8.59086 21.2857 7.02154 24.9005 5.46103C27.1751 4.48241 29.5026 3.91816 31.9536 3.6184C32.9234 3.49497 33.902 3.44207 34.8718 3.45089C37.7813 3.46852 40.6554 4.06804 43.3532 5.30234C44.7551 5.94594 45.8483 6.72178 47.065 7.66514C48.7048 8.94352 50.4681 10.8479 50.618 13.0343C50.7679 15.2913 49.4807 16.9577 47.7615 18.2449C47.0561 18.7738 46.2715 19.2323 45.4868 19.6467C44.6933 20.0698 43.8999 20.4313 43.1681 20.7663C43.1593 20.7752 43.1505 20.7752 43.1328 20.7752C43.1064 20.784 43.0799 20.7752 43.0623 20.7575L38.513 17.4073C38.5042 17.4073 38.4954 17.3985 38.4954 17.3897C38.4866 17.372 38.5042 17.3456 38.5218 17.3368L38.5307 17.3279C39.7826 16.8078 40.8582 16.3758 41.8192 15.3531C41.8456 15.3266 41.8721 15.3002 41.8985 15.2649C43.5737 13.4046 41.6076 10.9977 39.9942 10.0279Z" fill="#7404BF"/>
<path d="M39.9715 10.0048C37.2208 8.34727 34.1967 7.64195 31.0228 8.40898C28.9333 8.91152 26.8615 9.81961 24.9219 10.7365C24.9131 10.7365 24.9131 10.7453 24.9042 10.7453C24.8866 10.763 24.8954 10.7718 24.9131 10.7894L49.8636 28.7661C49.8812 28.7749 49.8812 28.7926 49.8724 28.8102C49.8724 28.819 49.8636 28.819 49.8636 28.819L43.6744 31.4992C43.6568 31.4992 43.648 31.508 43.6303 31.508C43.6127 31.508 43.5951 31.508 43.5863 31.4904L28.8099 20.8446L14.0336 10.1987C14.0336 10.1899 14.0248 10.1899 14.0248 10.1811C14.016 10.1634 14.0248 10.1458 14.0336 10.137C17.6483 8.56768 21.2631 6.99835 24.8778 5.43784C27.1524 4.45922 29.48 3.89497 31.9309 3.59521C32.9007 3.47178 33.8794 3.41888 34.8492 3.4277C37.7586 3.44533 40.6328 4.04485 43.3306 5.27915C44.7324 5.92275 45.8256 6.69859 47.0423 7.64195C48.6822 8.92033 50.4454 10.8247 50.5953 13.0112C50.7452 15.2682 49.458 16.9345 47.7388 18.2217C47.0335 18.7507 46.2488 19.2091 45.4642 19.6235C44.6707 20.0467 43.8772 20.4081 43.1454 20.7432C43.1366 20.752 43.1278 20.752 43.1102 20.752C43.0837 20.7608 43.0573 20.752 43.0396 20.7343L38.4903 17.3841C38.4815 17.3841 38.4727 17.3753 38.4727 17.3665C38.4639 17.3488 38.4815 17.3224 38.4992 17.3136L38.508 17.3048C39.7599 16.7846 40.8355 16.3526 41.7965 15.3299C41.823 15.3034 41.8494 15.277 41.8759 15.2417C43.551 13.3814 41.5849 10.9746 39.9715 10.0048Z" fill="white"/>
<path d="M21.0829 63.6675C16.7981 60.1586 12.6809 56.2441 8.97795 52.3032C6.89727 50.0902 5.44256 48.1506 3.29136 45.3382C1.51044 43.0195 -0.155867 40.6214 0.0116455 37.5797C0.0557276 36.7157 0.161525 35.8517 0.311404 34.9965C0.59353 33.436 0.866839 31.8843 1.14015 30.3238C1.74848 26.8766 2.21575 23.4029 2.55078 19.9116C2.55078 19.894 2.56841 19.8763 2.58604 19.8852C2.59486 19.8852 2.59486 19.8852 2.60368 19.894C6.17433 22.9533 9.216 26.5768 12.7955 29.6097C17.909 33.9385 23.0313 38.2586 28.1625 42.5786C28.6827 43.0107 28.8502 43.5749 28.9648 44.2361C29.2734 46.0435 29.3086 47.7539 29.2557 49.526C29.1764 52.4707 29.0089 55.4065 28.7444 58.3424C28.4623 61.534 28.1096 64.7167 27.8716 67.9082C27.8716 67.9435 27.8539 67.9523 27.8187 67.9435C27.563 67.873 27.3514 67.7936 27.1662 67.7143C24.9974 66.7357 22.9432 65.184 21.0829 63.6675Z" fill="#EB9203"/>
<path d="M35.7975 43.8828C35.7975 43.8564 35.8152 43.8299 35.8328 43.8211C39.4211 41.9785 43.3091 41.0528 47.0649 39.6245C51.4026 37.9758 55.5992 36.045 59.6724 33.8145C63.5781 31.6809 67.3427 29.3093 71.1426 26.9906C72.1124 26.3999 73.1087 25.8621 74.1226 25.3683C74.1755 25.3419 74.2107 25.3595 74.2195 25.4212L78.2927 45.1612C78.3015 45.1965 78.2839 45.2318 78.2575 45.2494C71.3895 50.4775 64.3275 55.4147 56.9129 59.8318C50.1948 63.8432 43.1857 67.2288 35.8681 69.9971C35.8416 70.0059 35.8152 69.9971 35.7975 69.9707V43.8828Z" fill="#E50071"/>
<path d="M96.8072 30.9242C96.4017 30.9242 96.0843 30.8095 95.8639 30.5803C95.6435 30.3511 95.5377 30.0337 95.5377 29.6281V14.8077C95.5377 14.3845 95.6523 14.0583 95.8815 13.8379C96.1107 13.6175 96.4281 13.5117 96.8337 13.5117H102.679C104.539 13.5117 105.967 13.9702 106.981 14.8959C107.995 15.8128 108.498 17.1088 108.498 18.7751C108.498 20.4502 107.995 21.7551 106.981 22.672C105.967 23.5889 104.539 24.0562 102.679 24.0562H98.0856V29.6281C98.0856 30.0337 97.9798 30.3511 97.7682 30.5803C97.5478 30.8095 97.2304 30.9242 96.8072 30.9242ZM98.0768 22.0196H102.309C103.534 22.0196 104.46 21.7463 105.086 21.1996C105.712 20.653 106.029 19.8419 106.029 18.7663C106.029 17.7083 105.712 16.906 105.086 16.3594C104.46 15.8128 103.534 15.5395 102.309 15.5395H98.0768V22.0196Z" fill="white"/>
<path d="M111.963 30.9226C111.557 30.9226 111.248 30.8168 111.037 30.5964C110.825 30.376 110.719 30.0674 110.719 29.6795V19.8932C110.719 19.4877 110.825 19.1791 111.037 18.9675C111.248 18.7559 111.539 18.6501 111.918 18.6501C112.306 18.6501 112.606 18.7559 112.809 18.9675C113.012 19.1791 113.117 19.4877 113.117 19.8932V21.6742H112.871C113.135 20.6955 113.611 19.955 114.317 19.4524C115.013 18.9499 115.912 18.6501 117.006 18.5708C117.296 18.5531 117.535 18.6325 117.702 18.7912C117.87 18.9587 117.967 19.2056 117.984 19.5494C118.019 19.8932 117.94 20.1666 117.764 20.3693C117.587 20.5721 117.305 20.6955 116.935 20.722L116.468 20.7749C115.41 20.8719 114.599 21.2069 114.043 21.78C113.488 22.353 113.214 23.1289 113.214 24.1251V29.6795C113.214 30.0674 113.109 30.376 112.906 30.5964C112.703 30.808 112.386 30.9226 111.963 30.9226Z" fill="white"/>
<path d="M124.843 30.9661C123.636 30.9661 122.595 30.7105 121.722 30.2079C120.85 29.7054 120.171 28.9824 119.677 28.0567C119.192 27.131 118.945 26.0377 118.945 24.777C118.945 23.816 119.086 22.9608 119.36 22.2114C119.633 21.462 120.03 20.8184 120.55 20.2718C121.061 19.7252 121.678 19.3108 122.41 19.0287C123.133 18.7466 123.944 18.5967 124.843 18.5967C126.034 18.5967 127.065 18.8524 127.938 19.3549C128.811 19.8574 129.49 20.5716 129.983 21.4973C130.468 22.4142 130.715 23.5162 130.715 24.7858C130.715 25.7292 130.574 26.5844 130.301 27.3514C130.027 28.1184 129.631 28.7708 129.111 29.3086C128.599 29.8464 127.973 30.2608 127.25 30.5429C126.527 30.8251 125.725 30.9661 124.843 30.9661ZM124.843 29.0618C125.513 29.0618 126.095 28.9031 126.607 28.5769C127.109 28.2507 127.506 27.7658 127.788 27.131C128.07 26.4962 128.22 25.7115 128.22 24.7858C128.22 23.384 127.912 22.326 127.294 21.6031C126.677 20.889 125.857 20.5275 124.852 20.5275C124.165 20.5275 123.574 20.6862 123.071 21.0036C122.569 21.321 122.172 21.797 121.881 22.4318C121.599 23.0666 121.449 23.8513 121.449 24.777C121.449 26.1612 121.758 27.2191 122.375 27.9597C123.001 28.6915 123.821 29.0618 124.843 29.0618Z" fill="white"/>
<path d="M138.879 35.3656C137.998 35.3656 137.151 35.2774 136.322 35.1011C135.503 34.9247 134.753 34.625 134.083 34.2194C133.836 34.0872 133.678 33.9285 133.598 33.7433C133.519 33.5582 133.492 33.3642 133.537 33.1703C133.581 32.9763 133.66 32.8 133.792 32.6589C133.924 32.509 134.083 32.412 134.268 32.368C134.453 32.3151 134.656 32.3503 134.868 32.465C135.582 32.8529 136.27 33.1174 136.913 33.2584C137.557 33.3995 138.156 33.47 138.712 33.47C139.849 33.47 140.704 33.1791 141.277 32.606C141.85 32.0241 142.133 31.1778 142.133 30.0492V27.5542H142.353C142.106 28.4535 141.595 29.1588 140.81 29.679C140.025 30.1991 139.126 30.4636 138.095 30.4636C137.019 30.4636 136.084 30.2168 135.282 29.7142C134.48 29.2205 133.863 28.524 133.422 27.6335C132.981 26.7431 132.761 25.7027 132.761 24.5125C132.761 23.6133 132.884 22.811 133.14 22.088C133.395 21.3739 133.748 20.7479 134.215 20.2277C134.683 19.7076 135.238 19.302 135.899 19.0199C136.561 18.7378 137.292 18.5879 138.086 18.5879C139.126 18.5879 140.034 18.8524 140.81 19.3726C141.586 19.8927 142.088 20.6069 142.318 21.4973L142.071 21.9117V19.8839C142.071 19.4784 142.177 19.1698 142.397 18.9582C142.617 18.7466 142.917 18.6408 143.287 18.6408C143.675 18.6408 143.984 18.7466 144.196 18.9582C144.407 19.1698 144.513 19.4784 144.513 19.8839V29.7407C144.513 31.6009 144.028 33.0028 143.067 33.9461C142.124 34.8983 140.722 35.3656 138.879 35.3656ZM138.685 28.524C139.399 28.524 140.017 28.3653 140.519 28.0391C141.022 27.7129 141.418 27.2456 141.692 26.6461C141.965 26.0466 142.106 25.3325 142.106 24.5213C142.106 23.2959 141.797 22.3261 141.189 21.6119C140.581 20.8978 139.743 20.5363 138.685 20.5363C137.98 20.5363 137.38 20.7038 136.878 21.0212C136.375 21.3474 135.979 21.8059 135.688 22.4054C135.406 23.0049 135.256 23.7014 135.256 24.5213C135.256 25.7645 135.564 26.7343 136.181 27.4572C136.807 28.1625 137.645 28.524 138.685 28.524Z" fill="white"/>
<path d="M149.247 30.9226C148.842 30.9226 148.533 30.8168 148.322 30.5964C148.11 30.376 148.004 30.0674 148.004 29.6795V19.8932C148.004 19.4877 148.11 19.1791 148.322 18.9675C148.533 18.7559 148.824 18.6501 149.203 18.6501C149.591 18.6501 149.891 18.7559 150.094 18.9675C150.296 19.1791 150.402 19.4877 150.402 19.8932V21.6742H150.155C150.42 20.6955 150.896 19.955 151.601 19.4524C152.298 18.9499 153.197 18.6501 154.29 18.5708C154.581 18.5531 154.819 18.6325 154.987 18.7912C155.154 18.9587 155.251 19.2056 155.269 19.5494C155.304 19.8932 155.225 20.1666 155.049 20.3693C154.872 20.5721 154.59 20.6955 154.22 20.722L153.753 20.7749C152.695 20.8719 151.883 21.2069 151.328 21.78C150.773 22.353 150.499 23.1289 150.499 24.1251V29.6795C150.499 30.0674 150.393 30.376 150.191 30.5964C149.988 30.808 149.671 30.9226 149.247 30.9226Z" fill="white"/>
<path d="M161.264 31.0482C160.435 31.0482 159.686 30.8806 159.025 30.5633C158.363 30.2459 157.843 29.7962 157.473 29.2408C157.094 28.6854 156.909 28.0594 156.909 27.3541C156.909 26.4724 157.129 25.7759 157.579 25.2646C158.028 24.7532 158.769 24.3829 159.8 24.1625C160.832 23.9421 162.234 23.8363 163.997 23.8363H165.143V25.3527H164.015C162.842 25.3527 161.916 25.4145 161.229 25.5203C160.541 25.6349 160.056 25.8288 159.774 26.0933C159.492 26.3578 159.342 26.7369 159.342 27.2042C159.342 27.8213 159.554 28.3239 159.977 28.7118C160.4 29.0909 160.991 29.2849 161.74 29.2849C162.34 29.2849 162.869 29.1438 163.327 28.8529C163.785 28.5707 164.147 28.1828 164.411 27.6891C164.676 27.2042 164.817 26.6399 164.817 26.0052V23.1927C164.817 22.267 164.623 21.5969 164.226 21.1914C163.838 20.7858 163.195 20.5831 162.296 20.5831C161.775 20.5831 161.229 20.6448 160.673 20.777C160.109 20.9093 159.527 21.1297 158.928 21.4383C158.654 21.5705 158.416 21.6058 158.222 21.5617C158.028 21.5176 157.87 21.403 157.755 21.2355C157.64 21.068 157.579 20.874 157.57 20.6712C157.561 20.4684 157.614 20.2657 157.72 20.0717C157.826 19.8777 158.011 19.7279 158.266 19.6309C158.981 19.287 159.695 19.0402 160.391 18.8991C161.088 18.7492 161.749 18.6787 162.375 18.6787C163.468 18.6787 164.367 18.8462 165.073 19.1901C165.778 19.5339 166.307 20.0541 166.651 20.7506C166.995 21.4559 167.162 22.3552 167.162 23.466V29.7521C167.162 30.1401 167.065 30.4486 166.871 30.6691C166.677 30.8895 166.386 30.9953 166.016 30.9953C165.655 30.9953 165.372 30.8895 165.161 30.6691C164.949 30.4486 164.843 30.1401 164.843 29.7521V28.1652H165.064C164.932 28.7647 164.694 29.2849 164.341 29.7169C163.988 30.1489 163.556 30.4751 163.036 30.7043C162.525 30.9335 161.934 31.0482 161.264 31.0482Z" fill="white"/>
<path d="M171.394 30.922C171.006 30.922 170.698 30.8162 170.486 30.5958C170.275 30.3754 170.169 30.0669 170.169 29.6789V19.8927C170.169 19.4871 170.275 19.1786 170.486 18.967C170.698 18.7554 170.989 18.6496 171.368 18.6496C171.756 18.6496 172.055 18.7554 172.258 18.967C172.461 19.1786 172.567 19.4871 172.567 19.8927V21.894L172.293 21.3562C172.62 20.4922 173.122 19.8133 173.81 19.3284C174.498 18.8435 175.318 18.5967 176.279 18.5967C177.275 18.5967 178.077 18.8347 178.703 19.302C179.32 19.7781 179.743 20.501 179.973 21.4797H179.629C179.937 20.5804 180.466 19.8751 181.216 19.3637C181.965 18.8524 182.838 18.5967 183.834 18.5967C184.751 18.5967 185.5 18.773 186.082 19.1257C186.673 19.4783 187.105 20.0073 187.405 20.7126C187.705 21.4179 187.846 22.3172 187.846 23.3928V29.6789C187.846 30.0669 187.74 30.3754 187.519 30.5958C187.299 30.8162 186.99 30.922 186.603 30.922C186.215 30.922 185.906 30.8162 185.694 30.5958C185.483 30.3754 185.377 30.0669 185.377 29.6789V23.5162C185.377 22.5024 185.201 21.7618 184.848 21.2945C184.495 20.8184 183.922 20.5892 183.12 20.5892C182.221 20.5892 181.515 20.8978 180.995 21.5149C180.475 22.1321 180.211 22.9873 180.211 24.0805V29.6789C180.211 30.0669 180.105 30.3754 179.893 30.5958C179.682 30.8162 179.382 30.922 178.985 30.922C178.597 30.922 178.289 30.8162 178.068 30.5958C177.848 30.3754 177.742 30.0669 177.742 29.6789V23.5162C177.742 22.5024 177.575 21.7618 177.231 21.2945C176.887 20.8184 176.314 20.5892 175.52 20.5892C174.621 20.5892 173.916 20.8978 173.404 21.5149C172.893 22.1321 172.637 22.9873 172.637 24.0805V29.6789C172.646 30.5077 172.232 30.922 171.394 30.922Z" fill="white"/>
<path d="M195.11 30.9661C194.282 30.9661 193.532 30.7986 192.871 30.4812C192.21 30.155 191.69 29.7142 191.319 29.1588C190.94 28.6033 190.755 27.9774 190.755 27.272C190.755 26.3904 190.975 25.6939 191.425 25.1826C191.875 24.6712 192.615 24.3009 193.647 24.0805C194.678 23.8601 196.08 23.7543 197.843 23.7543H198.99V25.2707H197.861C196.688 25.2707 195.763 25.3324 195.075 25.4382C194.387 25.5528 193.903 25.7468 193.62 26.0113C193.338 26.2758 193.188 26.6549 193.188 27.1222C193.188 27.7393 193.4 28.2419 193.823 28.6298C194.246 29.0089 194.837 29.2028 195.586 29.2028C196.186 29.2028 196.715 29.0618 197.173 28.7708C197.632 28.4887 197.993 28.1008 198.258 27.6071C198.531 27.1222 198.663 26.5579 198.663 25.9231V23.1107C198.663 22.185 198.469 21.5149 198.073 21.1094C197.685 20.7038 197.041 20.501 196.142 20.501C195.622 20.501 195.075 20.5627 194.52 20.695C193.955 20.8272 193.374 21.0476 192.774 21.3562C192.501 21.4885 192.263 21.5237 192.069 21.4797C191.875 21.4356 191.716 21.321 191.601 21.1534C191.487 20.9859 191.425 20.792 191.416 20.5892C191.407 20.3864 191.46 20.1836 191.566 19.9897C191.672 19.7957 191.857 19.6458 192.113 19.5489C192.827 19.205 193.541 18.9582 194.238 18.8171C194.934 18.6672 195.595 18.5967 196.221 18.5967C197.314 18.5967 198.214 18.7642 198.919 19.108C199.624 19.4519 200.153 19.972 200.497 20.6685C200.841 21.3739 201.009 22.2731 201.009 23.384V29.6701C201.009 30.058 200.912 30.3666 200.718 30.587C200.524 30.8074 200.233 30.9132 199.862 30.9132C199.501 30.9132 199.219 30.8074 199.007 30.587C198.796 30.3666 198.69 30.058 198.69 29.6701V28.0832H198.91C198.778 28.6827 198.54 29.2028 198.187 29.6348C197.835 30.0669 197.403 30.3931 196.882 30.6223C196.38 30.8515 195.78 30.9661 195.11 30.9661Z" fill="white"/>
<path d="M205.672 30.9226C205.267 30.9226 204.958 30.8168 204.747 30.5964C204.535 30.376 204.429 30.0674 204.429 29.6795V19.8932C204.429 19.4877 204.535 19.1791 204.747 18.9675C204.958 18.7559 205.249 18.6501 205.628 18.6501C206.016 18.6501 206.316 18.7559 206.519 18.9675C206.721 19.1791 206.827 19.4877 206.827 19.8932V21.6742H206.58C206.845 20.6955 207.321 19.955 208.026 19.4524C208.723 18.9499 209.622 18.6501 210.715 18.5708C211.006 18.5531 211.244 18.6325 211.412 18.7912C211.579 18.9587 211.676 19.2056 211.694 19.5494C211.729 19.8932 211.65 20.1666 211.474 20.3693C211.297 20.5721 211.015 20.6955 210.645 20.722L210.177 20.7749C209.12 20.8719 208.308 21.2069 207.753 21.78C207.198 22.353 206.924 23.1289 206.924 24.1251V29.6795C206.924 30.0674 206.818 30.376 206.616 30.5964C206.413 30.808 206.104 30.9226 205.672 30.9226Z" fill="white"/>
<path d="M100.325 52.9199C99.1699 52.9199 98.1737 52.6642 97.3449 52.1529C96.5162 51.6415 95.8726 50.9186 95.4229 49.9752C94.9733 49.0407 94.7529 47.9474 94.7529 46.7131C94.7529 45.7698 94.8763 44.9234 95.132 44.1828C95.3877 43.4422 95.7491 42.8075 96.2341 42.2873C96.7101 41.7671 97.3008 41.3616 97.9973 41.0794C98.6938 40.7973 99.4697 40.6562 100.334 40.6562C100.933 40.6562 101.559 40.762 102.194 40.9648C102.829 41.1676 103.411 41.5114 103.931 41.9787C104.045 42.0757 104.116 42.1903 104.151 42.3226C104.186 42.4548 104.178 42.5782 104.125 42.7017C104.072 42.8251 104.001 42.9221 103.904 42.9926C103.807 43.0631 103.693 43.1072 103.552 43.116C103.411 43.1249 103.27 43.0631 103.129 42.9309C102.67 42.5606 102.212 42.2961 101.744 42.1639C101.277 42.0228 100.827 41.9523 100.387 41.9523C99.7166 41.9523 99.1347 42.0581 98.6233 42.2697C98.1208 42.4813 97.6888 42.7898 97.3361 43.1954C96.9834 43.6009 96.719 44.1035 96.5426 44.703C96.3663 45.3025 96.2693 45.9814 96.2693 46.7484C96.2693 48.2825 96.622 49.4815 97.3361 50.3543C98.0414 51.2271 99.0641 51.6592 100.378 51.6592C100.819 51.6592 101.268 51.5886 101.736 51.4476C102.203 51.3065 102.661 51.0508 103.12 50.6805C103.27 50.5483 103.411 50.4866 103.543 50.4954C103.684 50.5042 103.799 50.5395 103.896 50.6188C103.993 50.6893 104.063 50.7863 104.107 50.9098C104.151 51.0332 104.151 51.1566 104.116 51.2889C104.081 51.4211 104.01 51.5357 103.896 51.6327C103.393 52.1088 102.82 52.4438 102.185 52.6378C101.55 52.8317 100.924 52.9287 100.325 52.9199Z" fill="#E50071"/>
<path d="M111.178 52.9199C110.067 52.9199 109.106 52.6642 108.295 52.1617C107.484 51.6592 106.849 50.945 106.4 50.0369C105.95 49.1288 105.73 48.0356 105.73 46.7837C105.73 45.8579 105.853 45.0116 106.109 44.2622C106.364 43.5128 106.726 42.8692 107.211 42.3226C107.687 41.7759 108.269 41.3616 108.948 41.0794C109.626 40.7973 110.367 40.6562 111.187 40.6562C112.315 40.6562 113.285 40.9119 114.096 41.4145C114.907 41.917 115.542 42.6311 115.992 43.5569C116.441 44.4826 116.662 45.5582 116.662 46.8013C116.662 47.7447 116.538 48.591 116.283 49.3404C116.027 50.0898 115.666 50.7334 115.181 51.2712C114.696 51.809 114.123 52.2234 113.453 52.5055C112.783 52.7788 112.024 52.9287 111.178 52.9199ZM111.178 51.6768C111.989 51.6768 112.694 51.4828 113.294 51.1037C113.894 50.7246 114.343 50.1604 114.661 49.4286C114.978 48.6968 115.137 47.8152 115.137 46.7837C115.137 45.232 114.784 44.0329 114.07 43.1866C113.365 42.3402 112.395 41.917 111.169 41.917C110.367 41.917 109.67 42.111 109.08 42.4901C108.48 42.8692 108.031 43.4246 107.713 44.1564C107.396 44.8881 107.237 45.761 107.237 46.7837C107.237 48.353 107.599 49.552 108.313 50.3984C109.036 51.2536 109.988 51.6768 111.178 51.6768Z" fill="#E50071"/>
<path d="M120.638 52.8758C120.391 52.8758 120.206 52.8141 120.074 52.6819C119.941 52.5496 119.88 52.3645 119.88 52.1176V41.485C119.88 41.2205 119.941 41.0265 120.074 40.8943C120.206 40.762 120.391 40.7003 120.638 40.7003C120.867 40.7003 121.044 40.762 121.167 40.8943C121.29 41.0265 121.352 41.2205 121.352 41.485V43.8037L121.079 43.6362C121.37 42.6752 121.872 41.9346 122.569 41.4233C123.265 40.9119 124.112 40.6562 125.09 40.6562C126.131 40.6562 126.968 40.9119 127.594 41.4145C128.22 41.917 128.634 42.6752 128.828 43.6891H128.458C128.731 42.781 129.252 42.0404 130.01 41.485C130.768 40.9296 131.659 40.6562 132.69 40.6562C133.572 40.6562 134.303 40.8238 134.877 41.1676C135.458 41.5114 135.89 42.0228 136.181 42.6928C136.472 43.3717 136.622 44.2181 136.622 45.2496V52.1176C136.622 52.3645 136.56 52.5496 136.428 52.6819C136.296 52.8141 136.111 52.8758 135.864 52.8758C135.635 52.8758 135.458 52.8141 135.326 52.6819C135.194 52.5496 135.132 52.3645 135.132 52.1176V45.373C135.132 44.1828 134.921 43.3188 134.506 42.7722C134.092 42.2256 133.395 41.9523 132.417 41.9523C131.376 41.9523 130.539 42.3137 129.922 43.0367C129.305 43.7596 128.996 44.7471 128.996 45.9814V52.1176C128.996 52.3645 128.934 52.5496 128.802 52.6819C128.67 52.8141 128.493 52.8758 128.264 52.8758C128.017 52.8758 127.832 52.8141 127.7 52.6819C127.568 52.5496 127.506 52.3645 127.506 52.1176V45.373C127.506 44.1828 127.294 43.3188 126.88 42.7722C126.466 42.2256 125.778 41.9523 124.817 41.9523C123.759 41.9523 122.921 42.3137 122.295 43.0367C121.678 43.7596 121.37 44.7471 121.37 45.9814V52.1176C121.37 52.6201 121.132 52.8758 120.638 52.8758Z" fill="#E50071"/>
<path d="M150.984 52.8767C150.737 52.8767 150.535 52.8149 150.376 52.6827C150.217 52.5505 150.067 52.3565 149.935 52.092L145.536 41.8209C145.456 41.6269 145.43 41.4418 145.447 41.2742C145.465 41.1067 145.544 40.9657 145.668 40.8599C145.791 40.7541 145.968 40.7012 146.197 40.7012C146.408 40.7012 146.567 40.7453 146.673 40.8511C146.779 40.948 146.876 41.1067 146.955 41.3183L151.31 51.8275H150.702L155.075 41.3183C155.154 41.1067 155.251 40.948 155.366 40.8511C155.481 40.7541 155.639 40.7012 155.86 40.7012C156.08 40.7012 156.23 40.7541 156.336 40.8599C156.442 40.9657 156.503 41.0979 156.521 41.2654C156.539 41.4241 156.503 41.6093 156.424 41.8032L152.025 52.1008C151.928 52.3653 151.786 52.5593 151.61 52.6915C151.416 52.8149 151.213 52.8767 150.984 52.8767Z" fill="#E50071"/>
<path d="M163.724 52.9199C162.613 52.9199 161.652 52.6642 160.841 52.1617C160.03 51.6592 159.395 50.945 158.945 50.0369C158.496 49.1288 158.275 48.0356 158.275 46.7837C158.275 45.8579 158.399 45.0116 158.654 44.2622C158.91 43.5128 159.272 42.8692 159.756 42.3226C160.233 41.7759 160.814 41.3616 161.493 41.0794C162.172 40.7973 162.913 40.6562 163.733 40.6562C164.861 40.6562 165.831 40.9119 166.642 41.4145C167.453 41.917 168.088 42.6311 168.538 43.5569C168.987 44.4826 169.208 45.5582 169.208 46.8013C169.208 47.7447 169.084 48.591 168.829 49.3404C168.573 50.0898 168.211 50.7334 167.727 51.2712C167.242 51.809 166.669 52.2234 165.999 52.5055C165.328 52.7877 164.57 52.9287 163.724 52.9199ZM163.724 51.6768C164.535 51.6768 165.24 51.4828 165.84 51.1037C166.439 50.7246 166.889 50.1604 167.206 49.4286C167.524 48.6968 167.682 47.8152 167.682 46.7837C167.682 45.232 167.33 44.0329 166.616 43.1866C165.91 42.3402 164.941 41.917 163.715 41.917C162.913 41.917 162.216 42.111 161.626 42.4901C161.026 42.8692 160.576 43.4246 160.259 44.1564C159.942 44.8881 159.783 45.761 159.783 46.7837C159.783 48.353 160.144 49.552 160.859 50.3984C161.581 51.2536 162.534 51.6768 163.724 51.6768Z" fill="#E50071"/>
<path d="M177.213 52.9199C176.058 52.9199 175.062 52.6642 174.233 52.1529C173.404 51.6415 172.761 50.9186 172.311 49.9752C171.861 49.0407 171.641 47.9474 171.641 46.7131C171.641 45.7698 171.764 44.9234 172.02 44.1828C172.276 43.4422 172.637 42.8075 173.122 42.2873C173.598 41.7671 174.189 41.3616 174.886 41.0794C175.582 40.7973 176.358 40.6562 177.222 40.6562C177.821 40.6562 178.447 40.762 179.082 40.9648C179.717 41.1676 180.299 41.5114 180.819 41.9787C180.934 42.0757 181.004 42.1903 181.039 42.3226C181.075 42.4548 181.066 42.5782 181.013 42.7017C180.96 42.8251 180.889 42.9221 180.793 42.9926C180.696 43.0631 180.581 43.1072 180.44 43.116C180.299 43.1249 180.158 43.0631 180.008 42.9309C179.549 42.5606 179.091 42.2961 178.624 42.1639C178.156 42.0228 177.707 41.9523 177.266 41.9523C176.596 41.9523 176.014 42.0581 175.503 42.2697C175 42.4813 174.568 42.7898 174.215 43.1954C173.863 43.6009 173.598 44.1035 173.422 44.703C173.246 45.3025 173.149 45.9814 173.149 46.7484C173.149 48.2825 173.501 49.4815 174.215 50.3543C174.921 51.2271 175.943 51.6592 177.257 51.6592C177.698 51.6592 178.148 51.5886 178.615 51.4476C179.082 51.3065 179.541 51.0508 179.999 50.6805C180.149 50.5483 180.29 50.4866 180.431 50.4954C180.572 50.5042 180.687 50.5395 180.784 50.6188C180.881 50.6982 180.951 50.7863 180.995 50.9098C181.039 51.0332 181.039 51.1566 181.004 51.2889C180.969 51.4211 180.898 51.5357 180.784 51.6327C180.281 52.1088 179.708 52.4438 179.073 52.6378C178.439 52.8317 177.821 52.9287 177.213 52.9199Z" fill="#E50071"/>
<path d="M189.856 38.8052C189.909 38.9022 189.926 38.9815 189.9 39.0609C189.873 39.1402 189.82 39.1843 189.741 39.2196C189.662 39.2548 189.582 39.2636 189.503 39.2548C189.424 39.246 189.353 39.1931 189.291 39.1226L187.722 36.9449L186.223 39.1667C186.17 39.246 186.1 39.2901 186.021 39.3077C185.941 39.3254 185.862 39.3165 185.782 39.2813C185.703 39.246 185.65 39.1931 185.624 39.1226C185.597 39.0521 185.606 38.9639 185.659 38.8669L187.079 36.5041C187.158 36.3719 187.246 36.2661 187.352 36.2132C187.458 36.1514 187.581 36.125 187.713 36.125C187.846 36.125 187.969 36.1514 188.075 36.2043C188.181 36.2572 188.278 36.3542 188.357 36.4865L189.856 38.8052Z" fill="#E50071"/>
<path d="M189.697 52.7962C188.498 53.0254 187.414 52.9813 186.461 52.6639C185.509 52.3465 184.707 51.7823 184.081 50.9712C183.455 50.1601 183.014 49.1373 182.785 47.903C182.556 46.6864 182.591 45.5843 182.882 44.5881C183.173 43.5918 183.684 42.7631 184.416 42.093C185.148 41.423 186.047 40.991 187.114 40.7882C187.899 40.6383 188.613 40.6383 189.265 40.7882C189.917 40.9381 190.499 41.2202 191.02 41.6258C191.54 42.0313 191.972 42.5691 192.324 43.2215C192.677 43.8739 192.942 44.641 193.109 45.5226C193.153 45.743 193.127 45.9282 193.021 46.0604C192.924 46.1927 192.765 46.2808 192.562 46.3249L183.887 47.9648L183.684 46.8803L192.113 45.2934L191.787 45.6813C191.61 44.7556 191.328 43.9886 190.931 43.389C190.535 42.7895 190.041 42.3663 189.433 42.1195C188.824 41.8726 188.137 41.8197 187.352 41.9608C186.47 42.1283 185.765 42.4721 185.236 42.9923C184.707 43.5125 184.354 44.1649 184.187 44.9319C184.019 45.6989 184.019 46.5541 184.196 47.4799L184.222 47.6033C184.513 49.1374 185.113 50.2482 186.021 50.9359C186.929 51.6236 188.066 51.8352 189.424 51.5707C190.014 51.4561 190.579 51.2709 191.099 51.0064C191.619 50.7419 192.113 50.3716 192.562 49.8867C192.703 49.7457 192.845 49.6575 192.994 49.6311C193.144 49.6046 193.285 49.6223 193.4 49.6752C193.523 49.7369 193.612 49.825 193.673 49.9308C193.735 50.0454 193.753 50.1777 193.726 50.3188C193.691 50.4686 193.612 50.6097 193.47 50.7508C193.038 51.2621 192.483 51.6941 191.804 52.0468C191.117 52.4171 190.411 52.6639 189.697 52.7962Z" fill="#E50071"/>
<path d="M204.732 39.3586V40.2342L197.788 43.8594V42.3183C197.788 42.2015 197.817 42.0935 197.876 41.9943C197.934 41.895 198.03 41.8133 198.165 41.7491L201.343 40.1117C201.618 39.9774 201.918 39.8723 202.245 39.7964C201.918 39.7205 201.618 39.6155 201.343 39.4812L198.165 37.8525C198.03 37.7824 197.934 37.7007 197.876 37.6073C197.817 37.5081 197.788 37.4001 197.788 37.2833V35.7422L204.732 39.3586Z" fill="#7300F2"/>
<path d="M83.5207 30.5271V29.6515L90.4645 26.0263V27.5675C90.4645 27.6842 90.4354 27.7922 90.377 27.8915C90.3186 27.9907 90.2223 28.0724 90.088 28.1366L86.9094 29.7741C86.6351 29.9084 86.3344 30.0134 86.0075 30.0893C86.3344 30.1652 86.6351 30.2703 86.9094 30.4046L90.088 32.0332C90.2223 32.1033 90.3186 32.185 90.377 32.2784C90.4354 32.3777 90.4645 32.4857 90.4645 32.6024V34.1435L83.5207 30.5271Z" fill="#7300F2"/>
</svg>
