<svg width="258" height="50" viewBox="0 0 258 50" fill="none" xmlns="http://www.w3.org/2000/svg">
<g clip-path="url(#clip0_182_3401)">
<path d="M67.6463 48.4766H58.1924V0.913982H75.0973C77.8223 14.3533 80.5534 27.8236 83.2846 41.2939C83.3424 41.2897 83.3981 41.2836 83.4559 41.2794C84.5017 36.1739 85.5496 31.0684 86.5913 25.9609C88.2457 17.8581 89.8981 9.75527 91.5421 1.65248C91.637 1.18009 91.7154 0.829406 92.3487 0.833532C97.677 0.858286 103.003 0.85416 108.332 0.862412C108.395 0.862412 108.459 0.89748 108.606 0.938736V48.4539H99.2035V8.57533C99.1375 8.56708 99.0715 8.55883 99.0075 8.55264C96.037 21.8311 93.0666 35.1095 90.0652 48.5261C89.733 48.5261 89.403 48.5261 89.0709 48.5261C85.3578 48.5261 81.6467 48.4993 77.9337 48.5468C77.1023 48.5571 76.8507 48.2662 76.6774 47.4927C73.8059 34.7052 70.8973 21.9239 67.997 9.14261C67.9392 8.88475 67.8464 8.63721 67.6463 8.40205V48.4766Z" fill="black"/>
<path d="M151.713 0.845777C152.117 0.845777 152.451 0.845777 152.786 0.845777C159.04 0.845777 165.297 0.75295 171.547 0.897348C173.779 0.948919 176.071 1.34292 178.208 1.99684C181.867 3.11695 184.229 5.71405 185.285 9.41477C186.053 12.1068 186.172 14.8606 185.508 17.5691C184.502 21.668 182.028 24.5436 177.773 25.9566C178.16 26.068 178.375 26.1402 178.596 26.1938C182.563 27.1407 184.743 29.8285 184.797 33.9377C184.836 36.9948 184.747 40.056 184.83 43.1131C184.877 44.8769 185.149 46.6323 185.333 48.5281C184.86 48.5281 184.159 48.5281 183.458 48.5281C181.156 48.5281 178.851 48.493 176.551 48.5446C175.815 48.5611 175.435 48.2764 175.328 47.6204C175.134 46.4384 174.887 45.2523 174.854 44.062C174.782 41.4876 174.841 38.907 174.823 36.3306C174.817 35.6106 174.779 34.8845 174.664 34.1749C174.27 31.7325 172.638 30.1524 169.917 29.9791C167.153 29.8058 164.37 29.9399 161.499 29.9399V48.4559H151.715V0.845777H151.713ZM161.534 22.0991C164.156 22.0991 166.726 22.1589 169.292 22.0826C171.805 22.0083 173.645 20.7686 174.796 18.5263C177.288 13.6704 174.52 8.81655 169.115 8.61852C167.054 8.54426 164.989 8.59376 162.928 8.58757C162.466 8.58757 162.002 8.58757 161.534 8.58757V22.0991Z" fill="black"/>
<path d="M214.299 37.535H200.325C199.48 41.178 198.636 44.8086 197.784 48.4721H187.526C187.862 47.1107 188.18 45.8235 188.499 44.5383C192.047 30.2883 195.606 16.0424 199.127 1.78619C199.323 0.994065 199.626 0.77128 200.427 0.777468C205.34 0.816662 210.254 0.798097 215.275 0.798097C219.207 16.6633 223.132 32.5017 227.08 48.4391H216.81C215.976 44.8189 215.141 41.1862 214.299 37.5371V37.535ZM212.502 29.6323C210.805 22.1896 209.121 14.815 207.44 7.44041C207.38 7.43628 207.321 7.43215 207.261 7.42803C205.559 14.815 203.857 22.1999 202.145 29.6344H212.504L212.502 29.6323Z" fill="black"/>
<path d="M138.205 0.905762H148.243V2.0692C148.243 11.9708 148.262 21.8724 148.233 31.7739C148.223 34.9961 147.736 38.1501 146.261 41.0629C144.256 45.0194 140.951 47.3896 136.745 48.5097C132.269 49.702 127.753 49.6979 123.318 48.324C117.177 46.4221 113.794 42.1005 112.829 35.8336C112.583 34.2431 112.468 32.6176 112.463 31.0086C112.43 21.3484 112.447 11.6861 112.447 2.02588C112.447 1.68757 112.447 1.35133 112.447 0.928453H122.509C122.509 1.3307 122.509 1.72883 122.509 2.12902C122.509 11.7892 122.48 21.4515 122.536 31.1118C122.546 32.8487 122.747 34.6206 123.145 36.308C123.786 39.0351 125.575 40.7328 128.419 41.0897C129.568 41.2341 130.763 41.3021 131.908 41.1639C135.14 40.7761 137.067 39.0289 137.729 35.7944C138.057 34.1936 138.181 32.5248 138.187 30.8869C138.228 21.3298 138.207 11.7707 138.207 2.2136C138.207 1.80722 138.207 1.40084 138.207 0.905762H138.205Z" fill="black"/>
<path d="M239.641 40.3696H257.348V48.4394H229.704V0.917969H239.641V40.3675V40.3696Z" fill="black"/>
<path d="M23.4894 13.4658C23.9019 11.2359 24.3186 8.98124 24.7333 6.72657C24.8261 6.21911 24.8818 5.70547 24.9994 5.2042C25.152 4.54616 25.1871 4.03458 24.5724 3.47555C23.8504 2.81957 23.8339 1.85829 24.3558 1.00841C24.8529 0.199778 25.6388 -0.150903 26.5692 0.0574432C27.5243 0.271977 28.0833 0.884638 28.2566 1.90161C28.3535 2.47095 28.5392 3.11249 28.9022 3.53537C33.1249 8.47172 37.3949 13.3668 41.634 18.2887C42.094 18.8209 42.4695 19.1118 43.2678 18.8746C44.5282 18.5012 45.8773 19.2294 46.4569 20.3887C47.0428 21.5604 46.7519 23.0209 45.7679 23.8646C44.7695 24.7206 43.3111 24.8093 42.2261 24.077C41.1348 23.3406 40.6109 21.9523 41.1451 20.7229C41.4628 19.9926 41.3205 19.578 40.8316 19.019C36.6935 14.2827 32.5947 9.51139 28.4587 4.77101C28.1452 4.41208 27.6357 4.0057 27.2169 4.0057C26.4248 4.0057 26.1917 4.63692 26.07 5.41255C25.6615 8.02203 25.1665 10.6171 24.6693 13.2121C24.5641 13.7567 24.6899 14.062 25.1376 14.4127C27.4211 16.197 27.5016 19.2211 25.3996 21.2468C25.1706 21.4675 24.9499 21.9894 25.0551 22.2184C26.7466 25.8593 28.4917 29.4755 30.2575 33.1638C32.1429 32.5284 33.9809 32.3531 35.856 32.9658C39.4371 34.1374 41.7 37.7928 41.1101 41.5306C40.516 45.2912 37.3062 48.0492 33.4962 48.0739C29.6531 48.0987 26.3216 45.3964 25.7977 41.673C25.645 40.592 25.1788 40.2991 24.2114 40.1423C21.0243 39.6246 17.8496 39.0346 14.6811 38.4219C14.0169 38.294 13.7178 38.457 13.4125 39.0552C12.4924 40.854 10.9432 41.7328 8.94643 41.5884C6.95168 41.446 5.54689 40.3548 4.85997 38.4591C4.20811 36.6644 4.74239 34.6635 6.26269 33.4258C6.82172 32.9699 6.79696 32.5986 6.5618 32.0313C5.17352 28.6668 3.82855 25.2817 2.41139 21.9296C2.21336 21.4593 1.73684 21.0488 1.2954 20.7517C0.490895 20.2133 -0.0392524 19.545 0.00200415 18.561C0.0453236 17.544 0.567219 16.8014 1.53675 16.4446C2.46502 16.1021 3.36442 16.2692 3.9812 17.0222C4.43709 17.5812 4.9136 17.7111 5.57371 17.6967C9.42295 17.6142 13.2722 17.5729 17.1214 17.4822C17.4639 17.4739 17.9919 17.3068 18.1075 17.0593C19.4957 14.0847 20.1785 13.5958 23.4894 13.4658ZM3.33554 21.0921C3.31697 20.9869 3.31697 21.0921 3.35204 21.1808C4.79396 24.7454 6.22556 28.3161 7.71905 31.8601C7.82838 32.1179 8.39978 32.3366 8.74221 32.318C11.4672 32.1736 13.4908 33.7208 13.891 36.4251C13.99 37.0914 14.2706 37.2564 14.8502 37.3555C17.0492 37.7288 19.2399 38.1538 21.4369 38.5478C22.8375 38.7994 24.2444 39.0263 25.6223 39.2615C26.5609 36.2663 26.7466 36.0022 28.8053 34.0508C29.0013 33.8652 29.0611 33.3102 28.9373 33.0441C27.3531 29.6508 25.7152 26.2843 24.1185 22.8992C23.8772 22.3896 23.607 22.2205 23.0211 22.2597C20.6241 22.4206 19.2069 21.4531 18.2271 19.1861C18.1075 18.9076 17.6557 18.5961 17.3607 18.5982C13.3753 18.6229 9.38788 18.6951 5.40455 18.7859C5.1302 18.7921 4.78364 18.9942 4.6083 19.2149C4.17304 19.7616 3.81617 20.3701 3.33554 21.0942V21.0921Z" fill="black"/>
</g>
<defs>
<clipPath id="clip0_182_3401">
<rect width="257.348" height="49.38" fill="white"/>
</clipPath>
</defs>
</svg>
