<svg width="245" height="282" viewBox="0 0 245 282" fill="none" xmlns="http://www.w3.org/2000/svg">
<rect width="245" height="282" rx="9" fill="#FAF1F1"/>
<path d="M54.225 160V148.8H58.593C59.5743 148.8 60.4117 148.955 61.105 149.264C61.7983 149.573 62.3317 150.021 62.705 150.608C63.0783 151.195 63.265 151.893 63.265 152.704C63.265 153.515 63.0783 154.213 62.705 154.8C62.3317 155.376 61.7983 155.824 61.105 156.144C60.4117 156.453 59.5743 156.608 58.593 156.608H55.105L55.825 155.856V160H54.225ZM55.825 156.016L55.105 155.216H58.545C59.569 155.216 60.3423 154.997 60.865 154.56C61.3983 154.123 61.665 153.504 61.665 152.704C61.665 151.904 61.3983 151.285 60.865 150.848C60.3423 150.411 59.569 150.192 58.545 150.192H55.105L55.825 149.392V156.016ZM70.3375 160V158.208L70.2575 157.872V154.816C70.2575 154.165 70.0655 153.664 69.6815 153.312C69.3082 152.949 68.7428 152.768 67.9855 152.768C67.4842 152.768 66.9935 152.853 66.5135 153.024C66.0335 153.184 65.6282 153.403 65.2975 153.68L64.6575 152.528C65.0948 152.176 65.6175 151.909 66.2255 151.728C66.8442 151.536 67.4895 151.44 68.1615 151.44C69.3242 151.44 70.2202 151.723 70.8495 152.288C71.4788 152.853 71.7935 153.717 71.7935 154.88V160H70.3375ZM67.5535 160.096C66.9242 160.096 66.3695 159.989 65.8895 159.776C65.4202 159.563 65.0575 159.269 64.8015 158.896C64.5455 158.512 64.4175 158.08 64.4175 157.6C64.4175 157.141 64.5242 156.725 64.7375 156.352C64.9615 155.979 65.3188 155.68 65.8095 155.456C66.3108 155.232 66.9828 155.12 67.8255 155.12H70.5135V156.224H67.8895C67.1215 156.224 66.6042 156.352 66.3375 156.608C66.0708 156.864 65.9375 157.173 65.9375 157.536C65.9375 157.952 66.1028 158.288 66.4335 158.544C66.7642 158.789 67.2228 158.912 67.8095 158.912C68.3855 158.912 68.8868 158.784 69.3135 158.528C69.7508 158.272 70.0655 157.899 70.2575 157.408L70.5615 158.464C70.3588 158.965 70.0015 159.365 69.4895 159.664C68.9775 159.952 68.3322 160.096 67.5535 160.096ZM74.396 160V151.52H75.868V153.824L75.724 153.248C75.9587 152.661 76.3533 152.213 76.908 151.904C77.4627 151.595 78.1453 151.44 78.956 151.44V152.928C78.892 152.917 78.828 152.912 78.764 152.912C78.7107 152.912 78.6573 152.912 78.604 152.912C77.7827 152.912 77.132 153.157 76.652 153.648C76.172 154.139 75.932 154.848 75.932 155.776V160H74.396ZM85.2481 160V158.208L85.1681 157.872V154.816C85.1681 154.165 84.9761 153.664 84.5921 153.312C84.2188 152.949 83.6535 152.768 82.8961 152.768C82.3948 152.768 81.9041 152.853 81.4241 153.024C80.9441 153.184 80.5388 153.403 80.2081 153.68L79.5681 152.528C80.0055 152.176 80.5281 151.909 81.1361 151.728C81.7548 151.536 82.4001 151.44 83.0721 151.44C84.2348 151.44 85.1308 151.723 85.7601 152.288C86.3895 152.853 86.7041 153.717 86.7041 154.88V160H85.2481ZM82.4641 160.096C81.8348 160.096 81.2801 159.989 80.8001 159.776C80.3308 159.563 79.9681 159.269 79.7121 158.896C79.4561 158.512 79.3281 158.08 79.3281 157.6C79.3281 157.141 79.4348 156.725 79.6481 156.352C79.8721 155.979 80.2295 155.68 80.7201 155.456C81.2215 155.232 81.8935 155.12 82.7361 155.12H85.4241V156.224H82.8001C82.0321 156.224 81.5148 156.352 81.2481 156.608C80.9815 156.864 80.8481 157.173 80.8481 157.536C80.8481 157.952 81.0135 158.288 81.3441 158.544C81.6748 158.789 82.1335 158.912 82.7201 158.912C83.2961 158.912 83.7975 158.784 84.2241 158.528C84.6615 158.272 84.9761 157.899 85.1681 157.408L85.4721 158.464C85.2695 158.965 84.9121 159.365 84.4001 159.664C83.8881 159.952 83.2428 160.096 82.4641 160.096ZM96.8675 160.096C96.0462 160.096 95.3102 159.915 94.6595 159.552C94.0195 159.189 93.5128 158.683 93.1395 158.032C92.7662 157.381 92.5795 156.624 92.5795 155.76C92.5795 154.896 92.7662 154.144 93.1395 153.504C93.5128 152.853 94.0195 152.347 94.6595 151.984C95.3102 151.621 96.0462 151.44 96.8675 151.44C97.6035 151.44 98.2595 151.6 98.8355 151.92C99.4115 152.24 99.8648 152.72 100.196 153.36C100.537 154 100.708 154.8 100.708 155.76C100.708 156.72 100.532 157.52 100.18 158.16C99.8382 158.8 99.3795 159.285 98.8035 159.616C98.2275 159.936 97.5822 160.096 96.8675 160.096ZM96.9955 158.752C97.5288 158.752 98.0088 158.629 98.4355 158.384C98.8728 158.139 99.2142 157.792 99.4595 157.344C99.7155 156.885 99.8435 156.357 99.8435 155.76C99.8435 155.152 99.7155 154.629 99.4595 154.192C99.2142 153.744 98.8728 153.397 98.4355 153.152C98.0088 152.907 97.5288 152.784 96.9955 152.784C96.4515 152.784 95.9662 152.907 95.5395 153.152C95.1128 153.397 94.7715 153.744 94.5155 154.192C94.2595 154.629 94.1315 155.152 94.1315 155.76C94.1315 156.357 94.2595 156.885 94.5155 157.344C94.7715 157.792 95.1128 158.139 95.5395 158.384C95.9662 158.629 96.4515 158.752 96.9955 158.752ZM99.8275 163.104V157.744L99.9875 155.776L99.8915 153.808V151.52H101.364V163.104H99.8275ZM107.598 160.096C106.872 160.096 106.232 159.963 105.678 159.696C105.134 159.429 104.707 159.024 104.398 158.48C104.099 157.925 103.95 157.232 103.95 156.4V151.52H105.486V156.224C105.486 157.056 105.683 157.68 106.078 158.096C106.483 158.512 107.048 158.72 107.774 158.72C108.307 158.72 108.771 158.613 109.166 158.4C109.56 158.176 109.864 157.856 110.078 157.44C110.291 157.013 110.398 156.501 110.398 155.904V151.52H111.934V160H110.478V157.712L110.718 158.32C110.44 158.885 110.024 159.323 109.47 159.632C108.915 159.941 108.291 160.096 107.598 160.096ZM118.394 160.096C117.487 160.096 116.687 159.909 115.994 159.536C115.311 159.163 114.778 158.651 114.394 158C114.021 157.349 113.834 156.603 113.834 155.76C113.834 154.917 114.015 154.171 114.378 153.52C114.751 152.869 115.258 152.363 115.898 152C116.549 151.627 117.279 151.44 118.09 151.44C118.911 151.44 119.637 151.621 120.266 151.984C120.895 152.347 121.386 152.859 121.738 153.52C122.101 154.171 122.282 154.933 122.282 155.808C122.282 155.872 122.277 155.947 122.266 156.032C122.266 156.117 122.261 156.197 122.25 156.272H115.034V155.168H121.45L120.826 155.552C120.837 155.008 120.725 154.523 120.49 154.096C120.255 153.669 119.93 153.339 119.514 153.104C119.109 152.859 118.634 152.736 118.09 152.736C117.557 152.736 117.082 152.859 116.666 153.104C116.25 153.339 115.925 153.675 115.69 154.112C115.455 154.539 115.338 155.029 115.338 155.584V155.84C115.338 156.405 115.466 156.912 115.722 157.36C115.989 157.797 116.357 158.139 116.826 158.384C117.295 158.629 117.834 158.752 118.442 158.752C118.943 158.752 119.397 158.667 119.802 158.496C120.218 158.325 120.581 158.069 120.89 157.728L121.738 158.72C121.354 159.168 120.874 159.509 120.298 159.744C119.733 159.979 119.098 160.096 118.394 160.096ZM134.783 151.44C135.465 151.44 136.068 151.573 136.591 151.84C137.113 152.107 137.519 152.512 137.807 153.056C138.105 153.6 138.255 154.288 138.255 155.12V160H136.719V155.296C136.719 154.475 136.527 153.856 136.143 153.44C135.759 153.024 135.22 152.816 134.527 152.816C134.015 152.816 133.567 152.923 133.183 153.136C132.799 153.349 132.5 153.664 132.287 154.08C132.084 154.496 131.983 155.013 131.983 155.632V160H130.447V155.296C130.447 154.475 130.255 153.856 129.871 153.44C129.497 153.024 128.959 152.816 128.255 152.816C127.753 152.816 127.311 152.923 126.927 153.136C126.543 153.349 126.244 153.664 126.031 154.08C125.817 154.496 125.711 155.013 125.711 155.632V160H124.175V151.52H125.647V153.776L125.407 153.2C125.673 152.645 126.084 152.213 126.639 151.904C127.193 151.595 127.839 151.44 128.575 151.44C129.385 151.44 130.084 151.643 130.671 152.048C131.257 152.443 131.641 153.045 131.823 153.856L131.199 153.6C131.455 152.949 131.903 152.427 132.543 152.032C133.183 151.637 133.929 151.44 134.783 151.44ZM143.81 163.2C143.458 163.2 143.122 163.157 142.802 163.072C142.471 162.987 142.194 162.859 141.97 162.688L142.466 161.504C142.786 161.771 143.202 161.904 143.714 161.904C144.119 161.904 144.429 161.776 144.642 161.52C144.866 161.275 144.978 160.907 144.978 160.416V151.52H146.514V160.384C146.514 161.248 146.279 161.931 145.81 162.432C145.351 162.944 144.685 163.2 143.81 163.2ZM145.746 149.888C145.447 149.888 145.197 149.792 144.994 149.6C144.802 149.408 144.706 149.173 144.706 148.896C144.706 148.608 144.802 148.368 144.994 148.176C145.197 147.984 145.447 147.888 145.746 147.888C146.045 147.888 146.29 147.984 146.482 148.176C146.685 148.357 146.786 148.587 146.786 148.864C146.786 149.152 146.69 149.397 146.498 149.6C146.306 149.792 146.055 149.888 145.746 149.888ZM154.469 160V158.208L154.389 157.872V154.816C154.389 154.165 154.197 153.664 153.813 153.312C153.439 152.949 152.874 152.768 152.117 152.768C151.615 152.768 151.125 152.853 150.645 153.024C150.165 153.184 149.759 153.403 149.429 153.68L148.789 152.528C149.226 152.176 149.749 151.909 150.357 151.728C150.975 151.536 151.621 151.44 152.293 151.44C153.455 151.44 154.351 151.723 154.981 152.288C155.61 152.853 155.925 153.717 155.925 154.88V160H154.469ZM151.685 160.096C151.055 160.096 150.501 159.989 150.021 159.776C149.551 159.563 149.189 159.269 148.933 158.896C148.677 158.512 148.549 158.08 148.549 157.6C148.549 157.141 148.655 156.725 148.869 156.352C149.093 155.979 149.45 155.68 149.941 155.456C150.442 155.232 151.114 155.12 151.957 155.12H154.645V156.224H152.021C151.253 156.224 150.735 156.352 150.469 156.608C150.202 156.864 150.069 157.173 150.069 157.536C150.069 157.952 150.234 158.288 150.565 158.544C150.895 158.789 151.354 158.912 151.941 158.912C152.517 158.912 153.018 158.784 153.445 158.528C153.882 158.272 154.197 157.899 154.389 157.408L154.693 158.464C154.49 158.965 154.133 159.365 153.621 159.664C153.109 159.952 152.463 160.096 151.685 160.096ZM151.205 150.288L153.381 148.208H155.333L152.645 150.288H151.205ZM165.496 160.096C164.643 160.096 163.981 159.867 163.512 159.408C163.043 158.949 162.808 158.293 162.808 157.44V149.664H164.344V157.376C164.344 157.835 164.456 158.187 164.68 158.432C164.915 158.677 165.245 158.8 165.672 158.8C166.152 158.8 166.552 158.667 166.872 158.4L167.352 159.504C167.117 159.707 166.835 159.856 166.504 159.952C166.184 160.048 165.848 160.096 165.496 160.096ZM161.368 152.784V151.52H166.776V152.784H161.368ZM172.464 160.096C171.557 160.096 170.757 159.909 170.064 159.536C169.381 159.163 168.848 158.651 168.464 158C168.091 157.349 167.904 156.603 167.904 155.76C167.904 154.917 168.085 154.171 168.448 153.52C168.821 152.869 169.328 152.363 169.968 152C170.619 151.627 171.349 151.44 172.16 151.44C172.981 151.44 173.707 151.621 174.336 151.984C174.965 152.347 175.456 152.859 175.808 153.52C176.171 154.171 176.352 154.933 176.352 155.808C176.352 155.872 176.347 155.947 176.336 156.032C176.336 156.117 176.331 156.197 176.32 156.272H169.104V155.168H175.52L174.896 155.552C174.907 155.008 174.795 154.523 174.56 154.096C174.325 153.669 174 153.339 173.584 153.104C173.179 152.859 172.704 152.736 172.16 152.736C171.627 152.736 171.152 152.859 170.736 153.104C170.32 153.339 169.995 153.675 169.76 154.112C169.525 154.539 169.408 155.029 169.408 155.584V155.84C169.408 156.405 169.536 156.912 169.792 157.36C170.059 157.797 170.427 158.139 170.896 158.384C171.365 158.629 171.904 158.752 172.512 158.752C173.013 158.752 173.467 158.667 173.872 158.496C174.288 158.325 174.651 158.069 174.96 157.728L175.808 158.72C175.424 159.168 174.944 159.509 174.368 159.744C173.803 159.979 173.168 160.096 172.464 160.096ZM188.853 151.44C189.535 151.44 190.138 151.573 190.661 151.84C191.183 152.107 191.589 152.512 191.877 153.056C192.175 153.6 192.325 154.288 192.325 155.12V160H190.789V155.296C190.789 154.475 190.597 153.856 190.213 153.44C189.829 153.024 189.29 152.816 188.597 152.816C188.085 152.816 187.637 152.923 187.253 153.136C186.869 153.349 186.57 153.664 186.357 154.08C186.154 154.496 186.053 155.013 186.053 155.632V160H184.517V155.296C184.517 154.475 184.325 153.856 183.941 153.44C183.567 153.024 183.029 152.816 182.325 152.816C181.823 152.816 181.381 152.923 180.997 153.136C180.613 153.349 180.314 153.664 180.101 154.08C179.887 154.496 179.781 155.013 179.781 155.632V160H178.245V151.52H179.717V153.776L179.477 153.2C179.743 152.645 180.154 152.213 180.709 151.904C181.263 151.595 181.909 151.44 182.645 151.44C183.455 151.44 184.154 151.643 184.741 152.048C185.327 152.443 185.711 153.045 185.893 153.856L185.269 153.6C185.525 152.949 185.973 152.427 186.613 152.032C187.253 151.637 187.999 151.44 188.853 151.44ZM35.9923 187.096C35.1283 187.096 34.355 186.909 33.6723 186.536C33.0003 186.163 32.4723 185.651 32.0883 185C31.7043 184.349 31.5123 183.603 31.5123 182.76C31.5123 181.917 31.7043 181.171 32.0883 180.52C32.4723 179.869 33.0003 179.363 33.6723 179C34.355 178.627 35.1283 178.44 35.9923 178.44C36.7603 178.44 37.443 178.595 38.0403 178.904C38.6483 179.203 39.1176 179.651 39.4483 180.248L38.2803 181C38.003 180.584 37.6616 180.28 37.2563 180.088C36.8616 179.885 36.435 179.784 35.9763 179.784C35.4216 179.784 34.9256 179.907 34.4883 180.152C34.051 180.397 33.7043 180.744 33.4483 181.192C33.1923 181.629 33.0643 182.152 33.0643 182.76C33.0643 183.368 33.1923 183.896 33.4483 184.344C33.7043 184.792 34.051 185.139 34.4883 185.384C34.9256 185.629 35.4216 185.752 35.9763 185.752C36.435 185.752 36.8616 185.656 37.2563 185.464C37.6616 185.261 38.003 184.952 38.2803 184.536L39.4483 185.272C39.1176 185.859 38.6483 186.312 38.0403 186.632C37.443 186.941 36.7603 187.096 35.9923 187.096ZM44.7039 187.096C43.8506 187.096 43.0933 186.909 42.4319 186.536C41.7706 186.163 41.2479 185.651 40.8639 185C40.4799 184.339 40.2879 183.592 40.2879 182.76C40.2879 181.917 40.4799 181.171 40.8639 180.52C41.2479 179.869 41.7706 179.363 42.4319 179C43.0933 178.627 43.8506 178.44 44.7039 178.44C45.5466 178.44 46.2986 178.627 46.9599 179C47.6319 179.363 48.1546 179.869 48.5279 180.52C48.9119 181.16 49.1039 181.907 49.1039 182.76C49.1039 183.603 48.9119 184.349 48.5279 185C48.1546 185.651 47.6319 186.163 46.9599 186.536C46.2986 186.909 45.5466 187.096 44.7039 187.096ZM44.7039 185.752C45.2479 185.752 45.7333 185.629 46.1599 185.384C46.5973 185.139 46.9386 184.792 47.1839 184.344C47.4293 183.885 47.5519 183.357 47.5519 182.76C47.5519 182.152 47.4293 181.629 47.1839 181.192C46.9386 180.744 46.5973 180.397 46.1599 180.152C45.7333 179.907 45.2479 179.784 44.7039 179.784C44.1599 179.784 43.6746 179.907 43.2479 180.152C42.8213 180.397 42.4799 180.744 42.2239 181.192C41.9679 181.629 41.8399 182.152 41.8399 182.76C41.8399 183.357 41.9679 183.885 42.2239 184.344C42.4799 184.792 42.8213 185.139 43.2479 185.384C43.6746 185.629 44.1599 185.752 44.7039 185.752ZM55.5162 178.44C56.2095 178.44 56.8175 178.573 57.3402 178.84C57.8735 179.107 58.2895 179.512 58.5882 180.056C58.8869 180.6 59.0362 181.288 59.0362 182.12V187H57.5002V182.296C57.5002 181.475 57.2975 180.856 56.8922 180.44C56.4975 180.024 55.9375 179.816 55.2122 179.816C54.6682 179.816 54.1935 179.923 53.7882 180.136C53.3829 180.349 53.0682 180.664 52.8442 181.08C52.6309 181.496 52.5242 182.013 52.5242 182.632V187H50.9882V178.52H52.4602V180.808L52.2202 180.2C52.4975 179.645 52.9242 179.213 53.5002 178.904C54.0762 178.595 54.7482 178.44 55.5162 178.44ZM66.1668 178.44C66.8601 178.44 67.4681 178.573 67.9908 178.84C68.5241 179.107 68.9401 179.512 69.2388 180.056C69.5375 180.6 69.6868 181.288 69.6868 182.12V187H68.1508V182.296C68.1508 181.475 67.9481 180.856 67.5428 180.44C67.1481 180.024 66.5881 179.816 65.8628 179.816C65.3188 179.816 64.8441 179.923 64.4388 180.136C64.0335 180.349 63.7188 180.664 63.4948 181.08C63.2815 181.496 63.1748 182.013 63.1748 182.632V187H61.6388V175.128H63.1748V180.808L62.8708 180.2C63.1481 179.645 63.5748 179.213 64.1508 178.904C64.7268 178.595 65.3988 178.44 66.1668 178.44ZM76.0654 187.096C75.1588 187.096 74.3588 186.909 73.6654 186.536C72.9828 186.163 72.4494 185.651 72.0654 185C71.6921 184.349 71.5054 183.603 71.5054 182.76C71.5054 181.917 71.6868 181.171 72.0494 180.52C72.4228 179.869 72.9294 179.363 73.5694 179C74.2201 178.627 74.9508 178.44 75.7614 178.44C76.5828 178.44 77.3081 178.621 77.9374 178.984C78.5668 179.347 79.0574 179.859 79.4094 180.52C79.7721 181.171 79.9534 181.933 79.9534 182.808C79.9534 182.872 79.9481 182.947 79.9374 183.032C79.9374 183.117 79.9321 183.197 79.9214 183.272H72.7054V182.168H79.1214L78.4974 182.552C78.5081 182.008 78.3961 181.523 78.1614 181.096C77.9268 180.669 77.6014 180.339 77.1854 180.104C76.7801 179.859 76.3054 179.736 75.7614 179.736C75.2281 179.736 74.7534 179.859 74.3374 180.104C73.9214 180.339 73.5961 180.675 73.3614 181.112C73.1268 181.539 73.0094 182.029 73.0094 182.584V182.84C73.0094 183.405 73.1374 183.912 73.3934 184.36C73.6601 184.797 74.0281 185.139 74.4974 185.384C74.9668 185.629 75.5054 185.752 76.1134 185.752C76.6148 185.752 77.0681 185.667 77.4734 185.496C77.8894 185.325 78.2521 185.069 78.5614 184.728L79.4094 185.72C79.0254 186.168 78.5454 186.509 77.9694 186.744C77.4041 186.979 76.7694 187.096 76.0654 187.096ZM85.5423 187.096C84.6783 187.096 83.905 186.909 83.2223 186.536C82.5503 186.163 82.0223 185.651 81.6383 185C81.2543 184.349 81.0623 183.603 81.0623 182.76C81.0623 181.917 81.2543 181.171 81.6383 180.52C82.0223 179.869 82.5503 179.363 83.2223 179C83.905 178.627 84.6783 178.44 85.5423 178.44C86.3103 178.44 86.993 178.595 87.5903 178.904C88.1983 179.203 88.6676 179.651 88.9983 180.248L87.8303 181C87.553 180.584 87.2116 180.28 86.8063 180.088C86.4116 179.885 85.985 179.784 85.5263 179.784C84.9716 179.784 84.4756 179.907 84.0383 180.152C83.601 180.397 83.2543 180.744 82.9983 181.192C82.7423 181.629 82.6143 182.152 82.6143 182.76C82.6143 183.368 82.7423 183.896 82.9983 184.344C83.2543 184.792 83.601 185.139 84.0383 185.384C84.4756 185.629 84.9716 185.752 85.5263 185.752C85.985 185.752 86.4116 185.656 86.8063 185.464C87.2116 185.261 87.553 184.952 87.8303 184.536L88.9983 185.272C88.6676 185.859 88.1983 186.312 87.5903 186.632C86.993 186.941 86.3103 187.096 85.5423 187.096ZM90.6376 187V178.52H92.1736V187H90.6376ZM91.4056 176.888C91.1069 176.888 90.8562 176.792 90.6536 176.6C90.4616 176.408 90.3656 176.173 90.3656 175.896C90.3656 175.608 90.4616 175.368 90.6536 175.176C90.8562 174.984 91.1069 174.888 91.4056 174.888C91.7042 174.888 91.9496 174.984 92.1416 175.176C92.3442 175.357 92.4456 175.587 92.4456 175.864C92.4456 176.152 92.3496 176.397 92.1576 176.6C91.9656 176.792 91.7149 176.888 91.4056 176.888ZM105.474 178.44C106.157 178.44 106.76 178.573 107.282 178.84C107.805 179.107 108.21 179.512 108.498 180.056C108.797 180.6 108.946 181.288 108.946 182.12V187H107.41V182.296C107.41 181.475 107.218 180.856 106.834 180.44C106.45 180.024 105.912 179.816 105.218 179.816C104.706 179.816 104.258 179.923 103.874 180.136C103.49 180.349 103.192 180.664 102.978 181.08C102.776 181.496 102.674 182.013 102.674 182.632V187H101.138V182.296C101.138 181.475 100.946 180.856 100.562 180.44C100.189 180.024 99.6503 179.816 98.9463 179.816C98.445 179.816 98.0023 179.923 97.6183 180.136C97.2343 180.349 96.9356 180.664 96.7223 181.08C96.509 181.496 96.4023 182.013 96.4023 182.632V187H94.8663V178.52H96.3383V180.776L96.0983 180.2C96.365 179.645 96.7756 179.213 97.3303 178.904C97.885 178.595 98.5303 178.44 99.2663 178.44C100.077 178.44 100.776 178.643 101.362 179.048C101.949 179.443 102.333 180.045 102.514 180.856L101.89 180.6C102.146 179.949 102.594 179.427 103.234 179.032C103.874 178.637 104.621 178.44 105.474 178.44ZM115.309 187.096C114.402 187.096 113.602 186.909 112.909 186.536C112.226 186.163 111.693 185.651 111.309 185C110.935 184.349 110.749 183.603 110.749 182.76C110.749 181.917 110.93 181.171 111.293 180.52C111.666 179.869 112.173 179.363 112.813 179C113.463 178.627 114.194 178.44 115.005 178.44C115.826 178.44 116.551 178.621 117.181 178.984C117.81 179.347 118.301 179.859 118.653 180.52C119.015 181.171 119.197 181.933 119.197 182.808C119.197 182.872 119.191 182.947 119.181 183.032C119.181 183.117 119.175 183.197 119.165 183.272H111.949V182.168H118.365L117.741 182.552C117.751 182.008 117.639 181.523 117.405 181.096C117.17 180.669 116.845 180.339 116.429 180.104C116.023 179.859 115.549 179.736 115.005 179.736C114.471 179.736 113.997 179.859 113.581 180.104C113.165 180.339 112.839 180.675 112.605 181.112C112.37 181.539 112.253 182.029 112.253 182.584V182.84C112.253 183.405 112.381 183.912 112.637 184.36C112.903 184.797 113.271 185.139 113.741 185.384C114.21 185.629 114.749 185.752 115.357 185.752C115.858 185.752 116.311 185.667 116.717 185.496C117.133 185.325 117.495 185.069 117.805 184.728L118.653 185.72C118.269 186.168 117.789 186.509 117.213 186.744C116.647 186.979 116.013 187.096 115.309 187.096ZM125.617 178.44C126.311 178.44 126.919 178.573 127.441 178.84C127.975 179.107 128.391 179.512 128.689 180.056C128.988 180.6 129.137 181.288 129.137 182.12V187H127.601V182.296C127.601 181.475 127.399 180.856 126.993 180.44C126.599 180.024 126.039 179.816 125.313 179.816C124.769 179.816 124.295 179.923 123.889 180.136C123.484 180.349 123.169 180.664 122.945 181.08C122.732 181.496 122.625 182.013 122.625 182.632V187H121.089V178.52H122.561V180.808L122.321 180.2C122.599 179.645 123.025 179.213 123.601 178.904C124.177 178.595 124.849 178.44 125.617 178.44ZM134.652 187.096C133.799 187.096 133.137 186.867 132.668 186.408C132.199 185.949 131.964 185.293 131.964 184.44V176.664H133.5V184.376C133.5 184.835 133.612 185.187 133.836 185.432C134.071 185.677 134.401 185.8 134.828 185.8C135.308 185.8 135.708 185.667 136.028 185.4L136.508 186.504C136.273 186.707 135.991 186.856 135.66 186.952C135.34 187.048 135.004 187.096 134.652 187.096ZM130.524 179.784V178.52H135.932V179.784H130.524ZM141.476 187.096C140.622 187.096 139.865 186.909 139.204 186.536C138.542 186.163 138.02 185.651 137.636 185C137.252 184.339 137.06 183.592 137.06 182.76C137.06 181.917 137.252 181.171 137.636 180.52C138.02 179.869 138.542 179.363 139.204 179C139.865 178.627 140.622 178.44 141.476 178.44C142.318 178.44 143.07 178.627 143.732 179C144.404 179.363 144.926 179.869 145.3 180.52C145.684 181.16 145.876 181.907 145.876 182.76C145.876 183.603 145.684 184.349 145.3 185C144.926 185.651 144.404 186.163 143.732 186.536C143.07 186.909 142.318 187.096 141.476 187.096ZM141.476 185.752C142.02 185.752 142.505 185.629 142.932 185.384C143.369 185.139 143.71 184.792 143.956 184.344C144.201 183.885 144.324 183.357 144.324 182.76C144.324 182.152 144.201 181.629 143.956 181.192C143.71 180.744 143.369 180.397 142.932 180.152C142.505 179.907 142.02 179.784 141.476 179.784C140.932 179.784 140.446 179.907 140.02 180.152C139.593 180.397 139.252 180.744 138.996 181.192C138.74 181.629 138.612 182.152 138.612 182.76C138.612 183.357 138.74 183.885 138.996 184.344C139.252 184.792 139.593 185.139 140.02 185.384C140.446 185.629 140.932 185.752 141.476 185.752ZM155.593 187.096C154.686 187.096 153.886 186.909 153.193 186.536C152.51 186.163 151.977 185.651 151.593 185C151.22 184.349 151.033 183.603 151.033 182.76C151.033 181.917 151.214 181.171 151.577 180.52C151.95 179.869 152.457 179.363 153.097 179C153.748 178.627 154.478 178.44 155.289 178.44C156.11 178.44 156.836 178.621 157.465 178.984C158.094 179.347 158.585 179.859 158.937 180.52C159.3 181.171 159.481 181.933 159.481 182.808C159.481 182.872 159.476 182.947 159.465 183.032C159.465 183.117 159.46 183.197 159.449 183.272H152.233V182.168H158.649L158.025 182.552C158.036 182.008 157.924 181.523 157.689 181.096C157.454 180.669 157.129 180.339 156.713 180.104C156.308 179.859 155.833 179.736 155.289 179.736C154.756 179.736 154.281 179.859 153.865 180.104C153.449 180.339 153.124 180.675 152.889 181.112C152.654 181.539 152.537 182.029 152.537 182.584V182.84C152.537 183.405 152.665 183.912 152.921 184.36C153.188 184.797 153.556 185.139 154.025 185.384C154.494 185.629 155.033 185.752 155.641 185.752C156.142 185.752 156.596 185.667 157.001 185.496C157.417 185.325 157.78 185.069 158.089 184.728L158.937 185.72C158.553 186.168 158.073 186.509 157.497 186.744C156.932 186.979 156.297 187.096 155.593 187.096ZM168.935 187.096C168.113 187.096 167.377 186.915 166.727 186.552C166.087 186.189 165.58 185.683 165.207 185.032C164.833 184.381 164.647 183.624 164.647 182.76C164.647 181.896 164.833 181.144 165.207 180.504C165.58 179.853 166.087 179.347 166.727 178.984C167.377 178.621 168.113 178.44 168.935 178.44C169.649 178.44 170.295 178.6 170.871 178.92C171.447 179.24 171.905 179.72 172.247 180.36C172.599 181 172.775 181.8 172.775 182.76C172.775 183.72 172.604 184.52 172.263 185.16C171.932 185.8 171.479 186.285 170.903 186.616C170.327 186.936 169.671 187.096 168.935 187.096ZM169.063 185.752C169.596 185.752 170.076 185.629 170.503 185.384C170.94 185.139 171.281 184.792 171.527 184.344C171.783 183.885 171.911 183.357 171.911 182.76C171.911 182.152 171.783 181.629 171.527 181.192C171.281 180.744 170.94 180.397 170.503 180.152C170.076 179.907 169.596 179.784 169.063 179.784C168.519 179.784 168.033 179.907 167.607 180.152C167.18 180.397 166.839 180.744 166.583 181.192C166.327 181.629 166.199 182.152 166.199 182.76C166.199 183.357 166.327 183.885 166.583 184.344C166.839 184.792 167.18 185.139 167.607 185.384C168.033 185.629 168.519 185.752 169.063 185.752ZM171.959 187V184.712L172.055 182.744L171.895 180.776V175.128H173.431V187H171.959ZM179.873 187.096C178.966 187.096 178.166 186.909 177.473 186.536C176.79 186.163 176.257 185.651 175.873 185C175.5 184.349 175.313 183.603 175.313 182.76C175.313 181.917 175.494 181.171 175.857 180.52C176.23 179.869 176.737 179.363 177.377 179C178.028 178.627 178.758 178.44 179.569 178.44C180.39 178.44 181.116 178.621 181.745 178.984C182.374 179.347 182.865 179.859 183.217 180.52C183.58 181.171 183.761 181.933 183.761 182.808C183.761 182.872 183.756 182.947 183.745 183.032C183.745 183.117 183.74 183.197 183.729 183.272H176.513V182.168H182.929L182.305 182.552C182.316 182.008 182.204 181.523 181.969 181.096C181.734 180.669 181.409 180.339 180.993 180.104C180.588 179.859 180.113 179.736 179.569 179.736C179.036 179.736 178.561 179.859 178.145 180.104C177.729 180.339 177.404 180.675 177.169 181.112C176.934 181.539 176.817 182.029 176.817 182.584V182.84C176.817 183.405 176.945 183.912 177.201 184.36C177.468 184.797 177.836 185.139 178.305 185.384C178.774 185.629 179.313 185.752 179.921 185.752C180.422 185.752 180.876 185.667 181.281 185.496C181.697 185.325 182.06 185.069 182.369 184.728L183.217 185.72C182.833 186.168 182.353 186.509 181.777 186.744C181.212 186.979 180.577 187.096 179.873 187.096ZM188.086 187.096C187.382 187.096 186.71 187 186.07 186.808C185.44 186.616 184.944 186.381 184.582 186.104L185.222 184.888C185.584 185.133 186.032 185.341 186.566 185.512C187.099 185.683 187.643 185.768 188.198 185.768C188.912 185.768 189.424 185.667 189.734 185.464C190.054 185.261 190.214 184.979 190.214 184.616C190.214 184.349 190.118 184.141 189.926 183.992C189.734 183.843 189.478 183.731 189.158 183.656C188.848 183.581 188.502 183.517 188.118 183.464C187.734 183.4 187.35 183.325 186.966 183.24C186.582 183.144 186.23 183.016 185.91 182.856C185.59 182.685 185.334 182.456 185.142 182.168C184.95 181.869 184.854 181.475 184.854 180.984C184.854 180.472 184.998 180.024 185.286 179.64C185.574 179.256 185.979 178.963 186.502 178.76C187.035 178.547 187.664 178.44 188.39 178.44C188.944 178.44 189.504 178.509 190.07 178.648C190.646 178.776 191.115 178.963 191.478 179.208L190.822 180.424C190.438 180.168 190.038 179.992 189.622 179.896C189.206 179.8 188.79 179.752 188.374 179.752C187.702 179.752 187.2 179.864 186.87 180.088C186.539 180.301 186.374 180.579 186.374 180.92C186.374 181.208 186.47 181.432 186.662 181.592C186.864 181.741 187.12 181.859 187.43 181.944C187.75 182.029 188.102 182.104 188.486 182.168C188.87 182.221 189.254 182.296 189.638 182.392C190.022 182.477 190.368 182.6 190.678 182.76C190.998 182.92 191.254 183.144 191.446 183.432C191.648 183.72 191.75 184.104 191.75 184.584C191.75 185.096 191.6 185.539 191.302 185.912C191.003 186.285 190.582 186.579 190.038 186.792C189.494 186.995 188.843 187.096 188.086 187.096ZM197.205 187.096C196.299 187.096 195.499 186.909 194.805 186.536C194.123 186.163 193.589 185.651 193.205 185C192.832 184.349 192.645 183.603 192.645 182.76C192.645 181.917 192.827 181.171 193.189 180.52C193.563 179.869 194.069 179.363 194.709 179C195.36 178.627 196.091 178.44 196.901 178.44C197.723 178.44 198.448 178.621 199.077 178.984C199.707 179.347 200.197 179.859 200.549 180.52C200.912 181.171 201.093 181.933 201.093 182.808C201.093 182.872 201.088 182.947 201.077 183.032C201.077 183.117 201.072 183.197 201.061 183.272H193.845V182.168H200.261L199.637 182.552C199.648 182.008 199.536 181.523 199.301 181.096C199.067 180.669 198.741 180.339 198.325 180.104C197.92 179.859 197.445 179.736 196.901 179.736C196.368 179.736 195.893 179.859 195.477 180.104C195.061 180.339 194.736 180.675 194.501 181.112C194.267 181.539 194.149 182.029 194.149 182.584V182.84C194.149 183.405 194.277 183.912 194.533 184.36C194.8 184.797 195.168 185.139 195.637 185.384C196.107 185.629 196.645 185.752 197.253 185.752C197.755 185.752 198.208 185.667 198.613 185.496C199.029 185.325 199.392 185.069 199.701 184.728L200.549 185.72C200.165 186.168 199.685 186.509 199.109 186.744C198.544 186.979 197.909 187.096 197.205 187.096ZM201.898 190.2C201.546 190.2 201.21 190.157 200.89 190.072C200.56 189.987 200.282 189.859 200.058 189.688L200.554 188.504C200.874 188.771 201.29 188.904 201.802 188.904C202.208 188.904 202.517 188.776 202.73 188.52C202.954 188.275 203.066 187.907 203.066 187.416V178.52H204.602V187.384C204.602 188.248 204.368 188.931 203.898 189.432C203.44 189.944 202.773 190.2 201.898 190.2ZM203.834 176.888C203.536 176.888 203.285 176.792 203.082 176.6C202.89 176.408 202.794 176.173 202.794 175.896C202.794 175.608 202.89 175.368 203.082 175.176C203.285 174.984 203.536 174.888 203.834 174.888C204.133 174.888 204.378 174.984 204.57 175.176C204.773 175.357 204.874 175.587 204.874 175.864C204.874 176.152 204.778 176.397 204.586 176.6C204.394 176.792 204.144 176.888 203.834 176.888ZM212.557 187V185.208L212.477 184.872V181.816C212.477 181.165 212.285 180.664 211.901 180.312C211.528 179.949 210.963 179.768 210.205 179.768C209.704 179.768 209.213 179.853 208.733 180.024C208.253 180.184 207.848 180.403 207.517 180.68L206.877 179.528C207.315 179.176 207.837 178.909 208.445 178.728C209.064 178.536 209.709 178.44 210.381 178.44C211.544 178.44 212.44 178.723 213.069 179.288C213.699 179.853 214.013 180.717 214.013 181.88V187H212.557ZM209.773 187.096C209.144 187.096 208.589 186.989 208.109 186.776C207.64 186.563 207.277 186.269 207.021 185.896C206.765 185.512 206.637 185.08 206.637 184.6C206.637 184.141 206.744 183.725 206.957 183.352C207.181 182.979 207.539 182.68 208.029 182.456C208.531 182.232 209.203 182.12 210.045 182.12H212.733V183.224H210.109C209.341 183.224 208.824 183.352 208.557 183.608C208.291 183.864 208.157 184.173 208.157 184.536C208.157 184.952 208.323 185.288 208.653 185.544C208.984 185.789 209.443 185.912 210.029 185.912C210.605 185.912 211.107 185.784 211.533 185.528C211.971 185.272 212.285 184.899 212.477 184.408L212.781 185.464C212.579 185.965 212.221 186.365 211.709 186.664C211.197 186.952 210.552 187.096 209.773 187.096ZM76.9014 214.096C75.9947 214.096 75.1947 213.909 74.5014 213.536C73.8187 213.163 73.2854 212.651 72.9014 212C72.528 211.349 72.3414 210.603 72.3414 209.76C72.3414 208.917 72.5227 208.171 72.8854 207.52C73.2587 206.869 73.7654 206.363 74.4054 206C75.056 205.627 75.7867 205.44 76.5974 205.44C77.4187 205.44 78.144 205.621 78.7734 205.984C79.4027 206.347 79.8934 206.859 80.2454 207.52C80.608 208.171 80.7894 208.933 80.7894 209.808C80.7894 209.872 80.784 209.947 80.7734 210.032C80.7734 210.117 80.768 210.197 80.7574 210.272H73.5414V209.168H79.9574L79.3334 209.552C79.344 209.008 79.232 208.523 78.9974 208.096C78.7627 207.669 78.4374 207.339 78.0214 207.104C77.616 206.859 77.1414 206.736 76.5974 206.736C76.064 206.736 75.5894 206.859 75.1734 207.104C74.7574 207.339 74.432 207.675 74.1974 208.112C73.9627 208.539 73.8454 209.029 73.8454 209.584V209.84C73.8454 210.405 73.9734 210.912 74.2294 211.36C74.496 211.797 74.864 212.139 75.3334 212.384C75.8027 212.629 76.3414 212.752 76.9494 212.752C77.4507 212.752 77.904 212.667 78.3094 212.496C78.7254 212.325 79.088 212.069 79.3974 211.728L80.2454 212.72C79.8614 213.168 79.3814 213.509 78.8054 213.744C78.24 213.979 77.6054 214.096 76.9014 214.096ZM82.6822 214V202.128H84.2182V214H82.6822ZM90.687 214.096C89.7803 214.096 88.9803 213.909 88.287 213.536C87.6043 213.163 87.071 212.651 86.687 212C86.3137 211.349 86.127 210.603 86.127 209.76C86.127 208.917 86.3083 208.171 86.671 207.52C87.0443 206.869 87.551 206.363 88.191 206C88.8417 205.627 89.5723 205.44 90.383 205.44C91.2043 205.44 91.9297 205.621 92.559 205.984C93.1883 206.347 93.679 206.859 94.031 207.52C94.3937 208.171 94.575 208.933 94.575 209.808C94.575 209.872 94.5697 209.947 94.559 210.032C94.559 210.117 94.5537 210.197 94.543 210.272H87.327V209.168H93.743L93.119 209.552C93.1297 209.008 93.0177 208.523 92.783 208.096C92.5483 207.669 92.223 207.339 91.807 207.104C91.4017 206.859 90.927 206.736 90.383 206.736C89.8497 206.736 89.375 206.859 88.959 207.104C88.543 207.339 88.2177 207.675 87.983 208.112C87.7483 208.539 87.631 209.029 87.631 209.584V209.84C87.631 210.405 87.759 210.912 88.015 211.36C88.2817 211.797 88.6497 212.139 89.119 212.384C89.5883 212.629 90.127 212.752 90.735 212.752C91.2363 212.752 91.6897 212.667 92.095 212.496C92.511 212.325 92.8737 212.069 93.183 211.728L94.031 212.72C93.647 213.168 93.167 213.509 92.591 213.744C92.0257 213.979 91.391 214.096 90.687 214.096ZM98.5356 214L94.8236 205.52H96.4236L99.7196 213.2H98.9516L102.312 205.52H103.816L100.104 214H98.5356ZM110.008 214V212.208L109.928 211.872V208.816C109.928 208.165 109.736 207.664 109.352 207.312C108.978 206.949 108.413 206.768 107.656 206.768C107.154 206.768 106.664 206.853 106.184 207.024C105.704 207.184 105.298 207.403 104.968 207.68L104.328 206.528C104.765 206.176 105.288 205.909 105.896 205.728C106.514 205.536 107.16 205.44 107.832 205.44C108.994 205.44 109.89 205.723 110.52 206.288C111.149 206.853 111.464 207.717 111.464 208.88V214H110.008ZM107.224 214.096C106.594 214.096 106.04 213.989 105.56 213.776C105.09 213.563 104.728 213.269 104.472 212.896C104.216 212.512 104.088 212.08 104.088 211.6C104.088 211.141 104.194 210.725 104.408 210.352C104.632 209.979 104.989 209.68 105.48 209.456C105.981 209.232 106.653 209.12 107.496 209.12H110.184V210.224H107.56C106.792 210.224 106.274 210.352 106.008 210.608C105.741 210.864 105.608 211.173 105.608 211.536C105.608 211.952 105.773 212.288 106.104 212.544C106.434 212.789 106.893 212.912 107.48 212.912C108.056 212.912 108.557 212.784 108.984 212.528C109.421 212.272 109.736 211.899 109.928 211.408L110.232 212.464C110.029 212.965 109.672 213.365 109.16 213.664C108.648 213.952 108.002 214.096 107.224 214.096ZM114.066 214V205.52H115.538V207.824L115.394 207.248C115.629 206.661 116.023 206.213 116.578 205.904C117.133 205.595 117.815 205.44 118.626 205.44V206.928C118.562 206.917 118.498 206.912 118.434 206.912C118.381 206.912 118.327 206.912 118.274 206.912C117.453 206.912 116.802 207.157 116.322 207.648C115.842 208.139 115.602 208.848 115.602 209.776V214H114.066ZM128.077 214.096C127.224 214.096 126.467 213.909 125.805 213.536C125.144 213.163 124.621 212.651 124.237 212C123.853 211.339 123.661 210.592 123.661 209.76C123.661 208.917 123.853 208.171 124.237 207.52C124.621 206.869 125.144 206.363 125.805 206C126.467 205.627 127.224 205.44 128.077 205.44C128.92 205.44 129.672 205.627 130.333 206C131.005 206.363 131.528 206.869 131.901 207.52C132.285 208.16 132.477 208.907 132.477 209.76C132.477 210.603 132.285 211.349 131.901 212C131.528 212.651 131.005 213.163 130.333 213.536C129.672 213.909 128.92 214.096 128.077 214.096ZM128.077 212.752C128.621 212.752 129.107 212.629 129.533 212.384C129.971 212.139 130.312 211.792 130.557 211.344C130.803 210.885 130.925 210.357 130.925 209.76C130.925 209.152 130.803 208.629 130.557 208.192C130.312 207.744 129.971 207.397 129.533 207.152C129.107 206.907 128.621 206.784 128.077 206.784C127.533 206.784 127.048 206.907 126.621 207.152C126.195 207.397 125.853 207.744 125.597 208.192C125.341 208.629 125.213 209.152 125.213 209.76C125.213 210.357 125.341 210.885 125.597 211.344C125.853 211.792 126.195 212.139 126.621 212.384C127.048 212.629 127.533 212.752 128.077 212.752ZM142.946 205.44C143.64 205.44 144.248 205.573 144.77 205.84C145.304 206.107 145.72 206.512 146.018 207.056C146.317 207.6 146.466 208.288 146.466 209.12V214H144.93V209.296C144.93 208.475 144.728 207.856 144.322 207.44C143.928 207.024 143.368 206.816 142.642 206.816C142.098 206.816 141.624 206.923 141.218 207.136C140.813 207.349 140.498 207.664 140.274 208.08C140.061 208.496 139.954 209.013 139.954 209.632V214H138.418V205.52H139.89V207.808L139.65 207.2C139.928 206.645 140.354 206.213 140.93 205.904C141.506 205.595 142.178 205.44 142.946 205.44ZM149.069 214V205.52H150.605V214H149.069ZM148.637 204.288L150.813 202.208H152.765L150.077 204.288H148.637ZM155.522 214L151.81 205.52H153.41L156.706 213.2H155.938L159.298 205.52H160.802L157.09 214H155.522ZM165.537 214.096C164.63 214.096 163.83 213.909 163.137 213.536C162.454 213.163 161.921 212.651 161.537 212C161.164 211.349 160.977 210.603 160.977 209.76C160.977 208.917 161.158 208.171 161.521 207.52C161.894 206.869 162.401 206.363 163.041 206C163.692 205.627 164.422 205.44 165.233 205.44C166.054 205.44 166.78 205.621 167.409 205.984C168.038 206.347 168.529 206.859 168.881 207.52C169.244 208.171 169.425 208.933 169.425 209.808C169.425 209.872 169.42 209.947 169.409 210.032C169.409 210.117 169.404 210.197 169.393 210.272H162.177V209.168H168.593L167.969 209.552C167.98 209.008 167.868 208.523 167.633 208.096C167.398 207.669 167.073 207.339 166.657 207.104C166.252 206.859 165.777 206.736 165.233 206.736C164.7 206.736 164.225 206.859 163.809 207.104C163.393 207.339 163.068 207.675 162.833 208.112C162.598 208.539 162.481 209.029 162.481 209.584V209.84C162.481 210.405 162.609 210.912 162.865 211.36C163.132 211.797 163.5 212.139 163.969 212.384C164.438 212.629 164.977 212.752 165.585 212.752C166.086 212.752 166.54 212.667 166.945 212.496C167.361 212.325 167.724 212.069 168.033 211.728L168.881 212.72C168.497 213.168 168.017 213.509 167.441 213.744C166.876 213.979 166.241 214.096 165.537 214.096ZM171.318 214V202.128H172.854V214H171.318Z" fill="#212121"/>
<g filter="url(#filter0_bd_2013_119)">
<rect x="88" y="50" width="70" height="70" rx="17.4752" fill="url(#paint0_linear_2013_119)" shape-rendering="crispEdges"/>
<rect x="88.4369" y="50.4369" width="69.1262" height="69.1262" rx="17.0383" stroke="url(#paint1_linear_2013_119)" stroke-width="0.873761" shape-rendering="crispEdges"/>
</g>
<g clip-path="url(#clip0_2013_119)">
<path d="M145.288 99.3632C145.11 99.6506 144.989 100.012 144.739 100.207C144.426 100.452 144.018 100.66 143.63 100.704C142.919 100.785 142.193 100.747 141.473 100.737C141.011 100.73 140.722 100.457 140.72 100.075C140.718 99.699 141.007 99.4173 141.47 99.4027C142.084 99.3824 142.699 99.4038 143.315 99.3936C143.801 99.3858 143.933 99.2562 143.933 98.775C143.937 93.0025 143.935 87.2299 143.933 81.4562C143.933 80.9481 143.803 80.8241 143.29 80.823C135.926 80.8207 128.563 80.8196 121.199 80.8196C120.688 80.8196 120.549 80.9503 120.55 81.4517C120.553 87.1342 120.561 92.8177 120.568 98.5001C120.568 98.6353 120.58 98.7694 120.58 98.9046C120.58 99.2404 120.735 99.3756 121.081 99.3745C122.985 99.3711 124.889 99.3858 126.795 99.3914C127.543 99.3936 128.291 99.3914 129.11 99.3914V98.9339C129.11 96.2803 129.115 93.6256 129.101 90.972C129.101 90.7895 128.956 90.6126 128.909 90.4255C128.845 90.1799 128.717 89.8914 128.793 89.6875C128.86 89.506 129.155 89.3415 129.374 89.301C129.722 89.2367 130.091 89.2807 130.45 89.2807C131.95 89.2807 133.45 89.2829 134.949 89.2784C135.274 89.2784 135.594 89.2818 135.77 89.6153C135.936 89.9308 135.882 90.2148 135.627 90.474C135.565 90.5371 135.547 90.6655 135.547 90.7635C135.544 93.5828 135.547 96.4009 135.549 99.2201C135.549 99.2618 135.572 99.3024 135.601 99.3925C136.114 99.3925 136.635 99.3925 137.156 99.3925C137.486 99.3925 137.816 99.3801 138.145 99.3982C138.637 99.4241 138.919 99.699 138.9 100.106C138.881 100.497 138.61 100.732 138.125 100.738C137.287 100.749 136.45 100.741 135.578 100.741V101.755C135.799 101.781 136.009 101.785 136.208 101.831C137.139 102.047 137.757 102.892 137.675 103.819C137.587 104.808 136.839 105.54 135.833 105.562C134.663 105.586 133.494 105.57 132.324 105.571C131.229 105.571 130.135 105.557 129.039 105.575C128.293 105.588 127.644 105.411 127.131 104.738C126.063 105.704 124.753 105.572 123.467 105.571C116.629 105.57 109.79 105.571 102.951 105.568C101.286 105.568 99.9985 104.676 99.4238 103.14C99.1106 102.303 99.2514 101.462 99.3889 100.613C100.142 96.0009 100.873 91.3855 101.63 86.7747C101.884 85.2299 102.804 84.2248 104.272 83.7076C104.4 83.6625 104.527 83.6118 104.659 83.5893C106.621 83.2501 108.31 82.2946 109.957 81.2455C110.384 80.974 110.391 80.7137 109.964 80.4489C108.248 79.3841 107.078 77.8956 106.541 75.9462C106.395 75.4178 106.36 74.8555 106.313 74.3056C106.289 74.0273 106.198 73.8977 105.922 73.8076C104.631 73.385 103.892 72.2008 104.168 71.0075C104.227 70.7506 104.319 70.4621 104.492 70.2796C104.803 69.9528 104.741 69.6306 104.658 69.2553C104.27 67.5099 104.331 65.7871 105.157 64.1746C105.507 63.4918 106.012 62.8833 106.491 62.2749C106.768 61.9222 107.196 61.9256 107.48 62.1983C107.751 62.4574 107.772 62.8417 107.474 63.1617C106.789 63.8986 106.265 64.7178 106.008 65.7014C105.71 66.8429 105.742 67.9776 106.029 69.1753C106.774 68.8598 107.411 69.208 108.079 69.4176C110.164 70.07 112.235 69.8571 114.257 69.1573C115.098 68.8655 115.893 68.426 116.682 68.0024C117.418 67.6069 117.971 67.6361 118.532 68.2525C119.054 68.826 119.682 69.0818 120.451 69.057C120.807 69.0458 121.164 69.0841 121.571 69.1021C121.837 67.5663 121.98 66.0316 121.112 64.6017C120.699 63.92 120.053 63.5346 119.304 63.2743C118.921 63.1414 118.497 62.9588 118.236 62.6693C117.238 61.5616 115.962 61.1008 114.544 60.9284C113.104 60.7526 111.707 60.9565 110.348 61.4534C110.207 61.5041 110.063 61.5436 109.92 61.5875C109.529 61.707 109.235 61.5774 109.067 61.2146C108.909 60.8754 109.068 60.4731 109.466 60.3379C110.2 60.0889 110.952 59.8849 111.702 59.6855C112.029 59.5987 112.374 59.5649 112.712 59.5063C113.312 59.5063 113.912 59.5063 114.512 59.5063C114.594 59.5334 114.675 59.5751 114.759 59.5852C116.46 59.7993 117.975 60.3898 119.154 61.6957C119.277 61.8309 119.467 61.9335 119.646 61.9864C121.6 62.5622 122.636 63.9245 122.994 65.8693C123.206 67.0209 123.109 68.1657 122.921 69.3106C122.884 69.5393 122.867 69.8582 122.992 70.0137C124.062 71.3365 123.499 73.1597 121.84 73.7591C121.445 73.9022 121.365 74.1017 121.35 74.4668C121.294 75.8482 120.835 77.0978 120.05 78.2325C119.416 79.1486 118.605 79.8663 117.651 80.4309C117.341 80.6145 117.229 80.9582 117.455 81.1137C117.998 81.4889 118.576 81.8157 119.202 82.2011C119.202 81.8247 119.189 81.5543 119.205 81.2861C119.269 80.1999 119.963 79.4866 120.995 79.4855C128.476 79.4765 135.957 79.4742 143.437 79.4731C144.278 79.4731 144.853 79.881 145.178 80.6506C145.205 80.7148 145.249 80.7712 145.287 80.8309V99.3643L145.288 99.3632ZM111.025 87.266C110.99 87.2896 110.955 87.3133 110.92 87.337C110.92 87.5612 110.92 87.7854 110.92 88.0097C110.92 88.8187 110.928 89.6289 110.913 90.4379C110.905 90.8447 110.642 91.0993 110.277 91.114C109.91 91.1286 109.638 90.8909 109.583 90.492C109.565 90.359 109.571 90.2227 109.571 90.0875C109.571 88.8728 109.581 87.6592 109.559 86.4446C109.556 86.2688 109.446 86.0457 109.311 85.9285C108.723 85.4169 108.116 84.9279 107.497 84.4535C107.378 84.3622 107.166 84.3082 107.024 84.3431C106.256 84.5369 105.488 84.742 104.734 84.9865C103.705 85.32 103.094 86.0198 102.92 87.115C102.169 91.8779 101.431 96.6431 100.619 101.395C100.388 102.747 101.237 104.272 103.074 104.23C104.962 104.186 106.852 104.221 108.741 104.22C108.886 104.22 109.031 104.207 109.204 104.198C109.204 103.342 109.204 102.52 109.204 101.698C109.204 100.9 109.052 100.744 108.267 100.742C106.917 100.74 105.568 100.747 104.218 100.738C103.701 100.735 103.433 100.492 103.431 100.075C103.428 99.6607 103.698 99.4229 104.212 99.3948C104.399 99.3846 104.588 99.3936 104.782 99.3936C105.123 97.0882 105.452 94.8515 105.785 92.6149C105.89 91.9039 105.986 91.1917 106.115 90.4841C106.186 90.0954 106.454 89.8869 106.86 89.9252C107.216 89.959 107.43 90.2565 107.422 90.6678C107.42 90.7726 107.411 90.8774 107.395 90.981C107.233 92.0774 107.067 93.1726 106.905 94.269C106.654 95.9547 106.407 97.6415 106.152 99.3711C106.644 99.3711 107.106 99.3914 107.565 99.3666C108.421 99.3193 109.11 98.9181 109.497 98.1677C109.78 97.6201 109.946 97.0015 110.092 96.3964C110.23 95.8296 110.407 95.6076 110.99 95.6054C112.88 95.5986 114.768 95.5975 116.658 95.6054C117.206 95.6076 117.365 95.8037 117.511 96.3322C117.688 96.9755 117.889 97.6201 118.162 98.2263C118.349 98.6398 118.699 98.9655 119.171 99.1108V85.2975C118.938 85.4811 118.775 85.64 118.586 85.7516C118.164 85.9995 118.04 86.3431 118.055 86.8299C118.094 87.968 118.068 89.1083 118.067 90.2475C118.067 90.5742 118.023 90.8852 117.687 91.0498C117.212 91.2819 116.739 90.9585 116.723 90.3613C116.702 89.5072 116.718 88.6519 116.714 87.7978C116.714 87.6457 116.696 87.4936 116.68 87.2142C116.014 87.8068 115.429 88.2936 114.885 88.8232C114.258 89.4339 113.297 89.3855 112.684 88.7477C112.172 88.2136 111.581 87.7561 111.024 87.2637L111.025 87.266ZM107.6 70.7382C107.6 71.7974 107.574 72.8307 107.607 73.8617C107.651 75.2837 108.029 76.5863 108.917 77.7491C110.979 80.4523 115.136 80.9334 117.74 78.7441C119.146 77.5621 119.96 76.086 120.011 74.2403C120.048 72.9715 120.018 71.7005 120.018 70.4092C118.998 70.3055 118.14 69.8976 117.498 69.1201C114.399 71.0188 111.128 71.5878 107.601 70.7382H107.6ZM130.5 90.6464V101.751H134.153V90.6464H130.5ZM118.431 104.201C118.6 104.21 118.717 104.221 118.834 104.221C120.796 104.221 122.757 104.228 124.719 104.221C126.255 104.215 127.221 103.146 127.002 101.62C126.852 100.576 127.083 100.766 126.033 100.746C125.809 100.741 125.583 100.746 125.359 100.746C123.338 100.746 121.316 100.744 119.294 100.747C118.675 100.747 118.446 100.91 118.435 101.414C118.415 102.326 118.429 103.238 118.429 104.202L118.431 104.201ZM113.825 102.519C114.526 101.488 115.45 100.784 116.655 100.581C117.178 100.493 117.477 100.251 117.646 99.9796C117.22 99.1965 116.779 98.5035 116.458 97.7598C116.121 96.9778 116.17 96.9553 115.314 96.9553H111.393C111.144 98.073 110.711 99.0624 109.895 99.8297C110.151 100.247 110.431 100.501 110.946 100.576C111.888 100.713 112.683 101.206 113.325 101.92C113.493 102.107 113.648 102.305 113.826 102.52L113.825 102.519ZM116.002 81.1599C114.531 81.5689 113.096 81.6016 111.606 81.1768C111.606 81.5193 111.585 81.8168 111.609 82.1109C111.683 83.0338 111.867 83.4124 112.672 83.6039C113.229 83.7369 113.831 83.8259 114.392 83.7617C115.098 83.6805 115.861 83.4969 115.991 82.5966C116.056 82.1458 116.002 81.6782 116.002 81.1599ZM132.288 103.133C131.166 103.133 130.042 103.131 128.92 103.133C128.402 103.135 128.16 103.317 128.168 103.688C128.176 104.042 128.413 104.219 128.901 104.22C131.132 104.222 133.362 104.222 135.593 104.22C136.069 104.22 136.32 104.032 136.325 103.683C136.332 103.33 136.089 103.136 135.611 103.135C134.503 103.131 133.395 103.133 132.287 103.133H132.288ZM113.012 104.207C112.883 103.037 111.485 101.843 110.586 101.931V104.207H113.012ZM117.04 104.204V101.9C115.842 102.031 114.641 103.201 114.647 104.204H117.04ZM115.02 85.1172H112.639C113.006 86.0536 113.377 87.0001 113.749 87.9477C113.798 87.9443 113.849 87.9409 113.899 87.9387C114.272 87.0001 114.645 86.0614 115.02 85.1172ZM108.611 83.6073C109.575 84.3893 110.483 85.1251 111.391 85.8609C111.414 85.8428 111.437 85.8259 111.459 85.8079C111.058 84.7668 110.657 83.7256 110.242 82.6484C109.708 82.9628 109.195 83.2647 108.612 83.6084L108.611 83.6073ZM116.203 85.8079C116.233 85.8248 116.264 85.8417 116.293 85.8586C117.197 85.1386 118.102 84.4186 119.036 83.6749C118.461 83.3278 117.944 83.0157 117.414 82.6957C116.998 83.7639 116.601 84.7859 116.203 85.8068V85.8079ZM106.229 70.5759C105.701 70.7979 105.431 71.1562 105.457 71.5574C105.483 71.9766 105.772 72.2999 106.229 72.4115V70.5759ZM121.43 70.5512V72.4645C121.883 72.2673 122.169 71.9946 122.174 71.5225C122.179 71.0503 121.898 70.7686 121.43 70.55V70.5512ZM128.387 101.755H129.086V100.78H128.251C128.299 101.127 128.342 101.432 128.387 101.755Z" fill="url(#paint2_linear_2013_119)"/>
<path d="M132.229 83.0856C133.383 83.0856 134.348 84.04 134.367 85.1995C134.386 86.3646 133.403 87.355 132.228 87.355C131.054 87.355 130.074 86.3668 130.09 85.1983C130.105 84.0456 131.078 83.0845 132.229 83.0845V83.0856ZM132.217 85.9961C132.639 86.0017 132.992 85.6648 133.007 85.2434C133.02 84.8175 132.643 84.431 132.218 84.4377C131.814 84.4445 131.445 84.8175 131.445 85.2209C131.445 85.6333 131.801 85.9916 132.217 85.9972V85.9961Z" fill="url(#paint3_linear_2013_119)"/>
<path d="M123.747 97.7734C123.387 97.7734 123.027 97.7914 122.67 97.7689C122.289 97.7441 122.067 97.5221 122.048 97.1322C122.03 96.7548 122.259 96.4776 122.677 96.4607C123.395 96.4336 124.114 96.4381 124.832 96.464C125.218 96.4776 125.432 96.7367 125.43 97.1176C125.428 97.4996 125.208 97.7396 124.823 97.7655C124.466 97.7903 124.105 97.7711 123.746 97.7711V97.7734H123.747Z" fill="url(#paint4_linear_2013_119)"/>
<path d="M127.059 97.7721C126.699 97.771 126.409 97.4837 126.402 97.1208C126.393 96.7456 126.662 96.4695 127.037 96.4673C127.433 96.4662 127.737 96.7569 127.728 97.1276C127.719 97.478 127.412 97.7721 127.059 97.771V97.7721Z" fill="url(#paint5_linear_2013_119)"/>
<path d="M142.063 76.6435C142.063 75.9055 142.063 75.1787 142.063 74.4519C142.063 74.0023 142.046 73.5516 142.074 73.1031C142.102 72.6693 142.386 72.4158 142.765 72.4282C143.148 72.4406 143.404 72.7031 143.406 73.1448C143.415 74.4339 143.411 75.7229 143.404 77.012C143.402 77.5089 143.153 77.8729 142.718 78.0903C142.262 78.3168 141.809 78.2717 141.411 77.9529C141.106 77.7106 140.813 77.4503 140.54 77.1742C140.266 76.8982 139.954 76.8035 139.569 76.8047C135.596 76.8137 131.622 76.8103 127.649 76.8092C126.119 76.8092 125.491 76.1815 125.491 74.6559C125.491 72.4519 125.49 70.249 125.491 68.045C125.492 66.7154 126.18 66.0201 127.515 66.019C132.148 66.0145 136.782 66.0145 141.414 66.019C142.727 66.0201 143.404 66.7109 143.409 68.0179C143.412 68.6174 143.416 69.2168 143.407 69.8163C143.4 70.2974 143.167 70.5701 142.775 70.5881C142.362 70.6073 142.081 70.3301 142.066 69.8377C142.048 69.2382 142.063 68.6388 142.061 68.0393C142.058 67.4771 141.96 67.3678 141.417 67.3678C136.769 67.3655 132.121 67.3655 127.473 67.3678C126.957 67.3678 126.843 67.4917 126.843 68.0123C126.841 70.2614 126.842 72.5093 126.843 74.7584C126.843 75.3793 126.92 75.457 127.546 75.457C131.429 75.4581 135.313 75.4784 139.196 75.4435C140.189 75.4345 141.029 75.6429 141.692 76.4058C141.76 76.4846 141.849 76.5455 141.93 76.6108C141.949 76.6255 141.981 76.6232 142.063 76.6401V76.6435Z" fill="url(#paint6_linear_2013_119)"/>
<path d="M133.287 74.6449C132.795 74.6449 132.505 74.2156 132.683 73.695C133.008 72.7485 133.357 71.811 133.699 70.8712C133.953 70.1693 134.207 69.4673 134.472 68.7698C134.66 68.274 134.999 68.0847 135.395 68.2357C135.763 68.3754 135.907 68.7484 135.74 69.2115C135.153 70.8408 134.555 72.4668 133.963 74.0939C133.847 74.415 133.659 74.6415 133.287 74.646V74.6449Z" fill="url(#paint7_linear_2013_119)"/>
<path d="M137.841 71.2408C137.441 70.8723 137.07 70.5501 136.723 70.2041C136.339 69.821 136.307 69.4436 136.602 69.1416C136.887 68.8509 137.293 68.8835 137.666 69.2475C138.148 69.7174 138.626 70.1918 139.096 70.674C139.52 71.109 139.515 71.4402 139.091 71.8718C138.631 72.3417 138.169 72.8104 137.695 73.2679C137.268 73.6803 136.909 73.7175 136.605 73.4054C136.295 73.0876 136.339 72.7248 136.749 72.3135C137.085 71.9766 137.428 71.6464 137.841 71.2419V71.2408Z" fill="url(#paint8_linear_2013_119)"/>
<path d="M130.744 71.3003C131.144 71.6699 131.515 71.9933 131.864 72.3403C132.233 72.7065 132.267 73.119 131.981 73.404C131.679 73.7049 131.304 73.6745 130.918 73.2959C130.426 72.8147 129.939 72.3302 129.461 71.8355C129.07 71.4299 129.071 71.1099 129.461 70.7054C129.95 70.2006 130.447 69.7048 130.952 69.2157C131.304 68.8743 131.696 68.8563 131.98 69.1448C132.261 69.4298 132.235 69.8175 131.889 70.1724C131.545 70.5262 131.187 70.8642 130.743 71.3003H130.744Z" fill="url(#paint9_linear_2013_119)"/>
</g>
<defs>
<filter id="filter0_bd_2013_119" x="61.7872" y="23.7872" width="122.426" height="122.426" filterUnits="userSpaceOnUse" color-interpolation-filters="sRGB">
<feFlood flood-opacity="0" result="BackgroundImageFix"/>
<feGaussianBlur in="BackgroundImageFix" stdDeviation="13.1064"/>
<feComposite in2="SourceAlpha" operator="in" result="effect1_backgroundBlur_2013_119"/>
<feColorMatrix in="SourceAlpha" type="matrix" values="0 0 0 0 0 0 0 0 0 0 0 0 0 0 0 0 0 0 127 0" result="hardAlpha"/>
<feMorphology radius="0.873761" operator="erode" in="SourceAlpha" result="effect2_dropShadow_2013_119"/>
<feOffset dy="3.49504"/>
<feGaussianBlur stdDeviation="10.4851"/>
<feComposite in2="hardAlpha" operator="out"/>
<feColorMatrix type="matrix" values="0 0 0 0 0 0 0 0 0 0 0 0 0 0 0 0 0 0 0.2 0"/>
<feBlend mode="normal" in2="effect1_backgroundBlur_2013_119" result="effect2_dropShadow_2013_119"/>
<feBlend mode="normal" in="SourceGraphic" in2="effect2_dropShadow_2013_119" result="shape"/>
</filter>
<linearGradient id="paint0_linear_2013_119" x1="87.3402" y1="94.9115" x2="160.956" y2="112.978" gradientUnits="userSpaceOnUse">
<stop stop-color="#8A8A8A" stop-opacity="0.15"/>
<stop offset="0.626245" stop-color="#B8B8B8" stop-opacity="0.04"/>
</linearGradient>
<linearGradient id="paint1_linear_2013_119" x1="88" y1="85" x2="154.741" y2="85.8383" gradientUnits="userSpaceOnUse">
<stop stop-color="#7404BF"/>
<stop offset="1" stop-color="#E50071"/>
</linearGradient>
<linearGradient id="paint2_linear_2013_119" x1="151.481" y1="12.0623" x2="93.4396" y2="8.86299" gradientUnits="userSpaceOnUse">
<stop stop-color="#ED6D1D"/>
<stop offset="0.404403" stop-color="#E50071"/>
<stop offset="1" stop-color="#7404BF"/>
</linearGradient>
<linearGradient id="paint3_linear_2013_119" x1="134.942" y1="78.6867" x2="129.551" y2="78.3889" gradientUnits="userSpaceOnUse">
<stop stop-color="#ED6D1D"/>
<stop offset="0.404403" stop-color="#E50071"/>
<stop offset="1" stop-color="#7404BF"/>
</linearGradient>
<linearGradient id="paint4_linear_2013_119" x1="125.885" y1="95.0647" x2="121.689" y2="94.4795" gradientUnits="userSpaceOnUse">
<stop stop-color="#ED6D1D"/>
<stop offset="0.404403" stop-color="#E50071"/>
<stop offset="1" stop-color="#7404BF"/>
</linearGradient>
<linearGradient id="paint5_linear_2013_119" x1="127.906" y1="95.1236" x2="126.235" y2="95.0298" gradientUnits="userSpaceOnUse">
<stop stop-color="#ED6D1D"/>
<stop offset="0.404403" stop-color="#E50071"/>
<stop offset="1" stop-color="#7404BF"/>
</linearGradient>
<linearGradient id="paint6_linear_2013_119" x1="145.823" y1="53.4354" x2="123.314" y2="51.6144" gradientUnits="userSpaceOnUse">
<stop stop-color="#ED6D1D"/>
<stop offset="0.404403" stop-color="#E50071"/>
<stop offset="1" stop-color="#7404BF"/>
</linearGradient>
<linearGradient id="paint7_linear_2013_119" x1="136.237" y1="61.5316" x2="132.221" y2="61.4226" gradientUnits="userSpaceOnUse">
<stop stop-color="#ED6D1D"/>
<stop offset="0.404403" stop-color="#E50071"/>
<stop offset="1" stop-color="#7404BF"/>
</linearGradient>
<linearGradient id="paint8_linear_2013_119" x1="139.816" y1="64.1412" x2="136.017" y2="64.0061" gradientUnits="userSpaceOnUse">
<stop stop-color="#ED6D1D"/>
<stop offset="0.404403" stop-color="#E50071"/>
<stop offset="1" stop-color="#7404BF"/>
</linearGradient>
<linearGradient id="paint9_linear_2013_119" x1="132.576" y1="64.1393" x2="128.783" y2="64.0047" gradientUnits="userSpaceOnUse">
<stop stop-color="#ED6D1D"/>
<stop offset="0.404403" stop-color="#E50071"/>
<stop offset="1" stop-color="#7404BF"/>
</linearGradient>
<clipPath id="clip0_2013_119">
<rect width="46.0531" height="46.0711" fill="white" transform="translate(99.2346 59.5063)"/>
</clipPath>
</defs>
</svg>
