<svg width="245" height="282" viewBox="0 0 245 282" fill="none" xmlns="http://www.w3.org/2000/svg">
<rect width="245" height="282" rx="9" fill="#FAF1F1"/>
<path d="M31.8534 160V148.8H36.2214C37.2028 148.8 38.0401 148.955 38.7334 149.264C39.4268 149.573 39.9601 150.021 40.3334 150.608C40.7068 151.195 40.8934 151.893 40.8934 152.704C40.8934 153.515 40.7068 154.213 40.3334 154.8C39.9601 155.376 39.4268 155.824 38.7334 156.144C38.0401 156.453 37.2028 156.608 36.2214 156.608H32.7334L33.4534 155.856V160H31.8534ZM33.4534 156.016L32.7334 155.216H36.1734C37.1974 155.216 37.9708 154.997 38.4934 154.56C39.0268 154.123 39.2934 153.504 39.2934 152.704C39.2934 151.904 39.0268 151.285 38.4934 150.848C37.9708 150.411 37.1974 150.192 36.1734 150.192H32.7334L33.4534 149.392V156.016ZM47.9659 160V158.208L47.8859 157.872V154.816C47.8859 154.165 47.6939 153.664 47.3099 153.312C46.9366 152.949 46.3713 152.768 45.6139 152.768C45.1126 152.768 44.6219 152.853 44.1419 153.024C43.6619 153.184 43.2566 153.403 42.9259 153.68L42.2859 152.528C42.7233 152.176 43.2459 151.909 43.8539 151.728C44.4726 151.536 45.1179 151.44 45.7899 151.44C46.9526 151.44 47.8486 151.723 48.4779 152.288C49.1073 152.853 49.4219 153.717 49.4219 154.88V160H47.9659ZM45.1819 160.096C44.5526 160.096 43.9979 159.989 43.5179 159.776C43.0486 159.563 42.6859 159.269 42.4299 158.896C42.1739 158.512 42.0459 158.08 42.0459 157.6C42.0459 157.141 42.1526 156.725 42.3659 156.352C42.5899 155.979 42.9473 155.68 43.4379 155.456C43.9393 155.232 44.6113 155.12 45.4539 155.12H48.1419V156.224H45.5179C44.7499 156.224 44.2326 156.352 43.9659 156.608C43.6993 156.864 43.5659 157.173 43.5659 157.536C43.5659 157.952 43.7313 158.288 44.0619 158.544C44.3926 158.789 44.8513 158.912 45.4379 158.912C46.0139 158.912 46.5153 158.784 46.9419 158.528C47.3793 158.272 47.6939 157.899 47.8859 157.408L48.1899 158.464C47.9873 158.965 47.6299 159.365 47.1179 159.664C46.6059 159.952 45.9606 160.096 45.1819 160.096ZM52.0244 160V151.52H53.4964V153.824L53.3524 153.248C53.5871 152.661 53.9818 152.213 54.5364 151.904C55.0911 151.595 55.7738 151.44 56.5844 151.44V152.928C56.5204 152.917 56.4564 152.912 56.3924 152.912C56.3391 152.912 56.2858 152.912 56.2324 152.912C55.4111 152.912 54.7604 153.157 54.2804 153.648C53.8004 154.139 53.5604 154.848 53.5604 155.776V160H52.0244ZM62.8766 160V158.208L62.7966 157.872V154.816C62.7966 154.165 62.6046 153.664 62.2206 153.312C61.8472 152.949 61.2819 152.768 60.5246 152.768C60.0232 152.768 59.5326 152.853 59.0526 153.024C58.5726 153.184 58.1672 153.403 57.8366 153.68L57.1966 152.528C57.6339 152.176 58.1566 151.909 58.7646 151.728C59.3832 151.536 60.0286 151.44 60.7006 151.44C61.8632 151.44 62.7592 151.723 63.3886 152.288C64.0179 152.853 64.3326 153.717 64.3326 154.88V160H62.8766ZM60.0926 160.096C59.4632 160.096 58.9086 159.989 58.4286 159.776C57.9592 159.563 57.5966 159.269 57.3406 158.896C57.0846 158.512 56.9566 158.08 56.9566 157.6C56.9566 157.141 57.0632 156.725 57.2766 156.352C57.5006 155.979 57.8579 155.68 58.3486 155.456C58.8499 155.232 59.5219 155.12 60.3646 155.12H63.0526V156.224H60.4286C59.6606 156.224 59.1432 156.352 58.8766 156.608C58.6099 156.864 58.4766 157.173 58.4766 157.536C58.4766 157.952 58.6419 158.288 58.9726 158.544C59.3032 158.789 59.7619 158.912 60.3486 158.912C60.9246 158.912 61.4259 158.784 61.8526 158.528C62.2899 158.272 62.6046 157.899 62.7966 157.408L63.1006 158.464C62.8979 158.965 62.5406 159.365 62.0286 159.664C61.5166 159.952 60.8712 160.096 60.0926 160.096ZM74.4959 160.096C73.6746 160.096 72.9386 159.915 72.2879 159.552C71.6479 159.189 71.1413 158.683 70.7679 158.032C70.3946 157.381 70.2079 156.624 70.2079 155.76C70.2079 154.896 70.3946 154.144 70.7679 153.504C71.1413 152.853 71.6479 152.347 72.2879 151.984C72.9386 151.621 73.6746 151.44 74.4959 151.44C75.2319 151.44 75.8879 151.6 76.4639 151.92C77.0399 152.24 77.4933 152.72 77.8239 153.36C78.1653 154 78.3359 154.8 78.3359 155.76C78.3359 156.72 78.1599 157.52 77.8079 158.16C77.4666 158.8 77.0079 159.285 76.4319 159.616C75.8559 159.936 75.2106 160.096 74.4959 160.096ZM74.6239 158.752C75.1573 158.752 75.6373 158.629 76.0639 158.384C76.5013 158.139 76.8426 157.792 77.0879 157.344C77.3439 156.885 77.4719 156.357 77.4719 155.76C77.4719 155.152 77.3439 154.629 77.0879 154.192C76.8426 153.744 76.5013 153.397 76.0639 153.152C75.6373 152.907 75.1573 152.784 74.6239 152.784C74.0799 152.784 73.5946 152.907 73.1679 153.152C72.7413 153.397 72.3999 153.744 72.1439 154.192C71.8879 154.629 71.7599 155.152 71.7599 155.76C71.7599 156.357 71.8879 156.885 72.1439 157.344C72.3999 157.792 72.7413 158.139 73.1679 158.384C73.5946 158.629 74.0799 158.752 74.6239 158.752ZM77.4559 163.104V157.744L77.6159 155.776L77.5199 153.808V151.52H78.9919V163.104H77.4559ZM85.2262 160.096C84.5009 160.096 83.8609 159.963 83.3062 159.696C82.7622 159.429 82.3355 159.024 82.0262 158.48C81.7275 157.925 81.5782 157.232 81.5782 156.4V151.52H83.1142V156.224C83.1142 157.056 83.3115 157.68 83.7062 158.096C84.1115 158.512 84.6769 158.72 85.4022 158.72C85.9355 158.72 86.3995 158.613 86.7942 158.4C87.1889 158.176 87.4929 157.856 87.7062 157.44C87.9195 157.013 88.0262 156.501 88.0262 155.904V151.52H89.5622V160H88.1062V157.712L88.3462 158.32C88.0689 158.885 87.6529 159.323 87.0982 159.632C86.5435 159.941 85.9195 160.096 85.2262 160.096ZM96.0223 160.096C95.1156 160.096 94.3156 159.909 93.6223 159.536C92.9396 159.163 92.4063 158.651 92.0223 158C91.649 157.349 91.4623 156.603 91.4623 155.76C91.4623 154.917 91.6436 154.171 92.0063 153.52C92.3796 152.869 92.8863 152.363 93.5263 152C94.177 151.627 94.9076 151.44 95.7183 151.44C96.5396 151.44 97.265 151.621 97.8943 151.984C98.5236 152.347 99.0143 152.859 99.3663 153.52C99.729 154.171 99.9103 154.933 99.9103 155.808C99.9103 155.872 99.905 155.947 99.8943 156.032C99.8943 156.117 99.889 156.197 99.8783 156.272H92.6623V155.168H99.0783L98.4543 155.552C98.465 155.008 98.353 154.523 98.1183 154.096C97.8836 153.669 97.5583 153.339 97.1423 153.104C96.737 152.859 96.2623 152.736 95.7183 152.736C95.185 152.736 94.7103 152.859 94.2943 153.104C93.8783 153.339 93.553 153.675 93.3183 154.112C93.0836 154.539 92.9663 155.029 92.9663 155.584V155.84C92.9663 156.405 93.0943 156.912 93.3503 157.36C93.617 157.797 93.985 158.139 94.4543 158.384C94.9236 158.629 95.4623 158.752 96.0703 158.752C96.5716 158.752 97.025 158.667 97.4303 158.496C97.8463 158.325 98.209 158.069 98.5183 157.728L99.3663 158.72C98.9823 159.168 98.5023 159.509 97.9263 159.744C97.361 159.979 96.7263 160.096 96.0223 160.096ZM112.411 151.44C113.094 151.44 113.697 151.573 114.219 151.84C114.742 152.107 115.147 152.512 115.435 153.056C115.734 153.6 115.883 154.288 115.883 155.12V160H114.347V155.296C114.347 154.475 114.155 153.856 113.771 153.44C113.387 153.024 112.849 152.816 112.155 152.816C111.643 152.816 111.195 152.923 110.811 153.136C110.427 153.349 110.129 153.664 109.915 154.08C109.713 154.496 109.611 155.013 109.611 155.632V160H108.075V155.296C108.075 154.475 107.883 153.856 107.499 153.44C107.126 153.024 106.587 152.816 105.883 152.816C105.382 152.816 104.939 152.923 104.555 153.136C104.171 153.349 103.873 153.664 103.659 154.08C103.446 154.496 103.339 155.013 103.339 155.632V160H101.803V151.52H103.275V153.776L103.035 153.2C103.302 152.645 103.713 152.213 104.267 151.904C104.822 151.595 105.467 151.44 106.203 151.44C107.014 151.44 107.713 151.643 108.299 152.048C108.886 152.443 109.27 153.045 109.451 153.856L108.827 153.6C109.083 152.949 109.531 152.427 110.171 152.032C110.811 151.637 111.558 151.44 112.411 151.44ZM126.03 160.096C125.209 160.096 124.473 159.915 123.822 159.552C123.182 159.189 122.676 158.683 122.302 158.032C121.929 157.381 121.742 156.624 121.742 155.76C121.742 154.896 121.929 154.144 122.302 153.504C122.676 152.853 123.182 152.347 123.822 151.984C124.473 151.621 125.209 151.44 126.03 151.44C126.766 151.44 127.422 151.6 127.998 151.92C128.574 152.24 129.028 152.72 129.358 153.36C129.7 154 129.87 154.8 129.87 155.76C129.87 156.72 129.694 157.52 129.342 158.16C129.001 158.8 128.542 159.285 127.966 159.616C127.39 159.936 126.745 160.096 126.03 160.096ZM126.158 158.752C126.692 158.752 127.172 158.629 127.598 158.384C128.036 158.139 128.377 157.792 128.622 157.344C128.878 156.885 129.006 156.357 129.006 155.76C129.006 155.152 128.878 154.629 128.622 154.192C128.377 153.744 128.036 153.397 127.598 153.152C127.172 152.907 126.692 152.784 126.158 152.784C125.614 152.784 125.129 152.907 124.702 153.152C124.276 153.397 123.934 153.744 123.678 154.192C123.422 154.629 123.294 155.152 123.294 155.76C123.294 156.357 123.422 156.885 123.678 157.344C123.934 157.792 124.276 158.139 124.702 158.384C125.129 158.629 125.614 158.752 126.158 158.752ZM128.99 163.104V157.744L129.15 155.776L129.054 153.808V151.52H130.526V163.104H128.99ZM136.761 160.096C136.035 160.096 135.395 159.963 134.841 159.696C134.297 159.429 133.87 159.024 133.561 158.48C133.262 157.925 133.113 157.232 133.113 156.4V151.52H134.649V156.224C134.649 157.056 134.846 157.68 135.241 158.096C135.646 158.512 136.211 158.72 136.937 158.72C137.47 158.72 137.934 158.613 138.329 158.4C138.723 158.176 139.027 157.856 139.241 157.44C139.454 157.013 139.561 156.501 139.561 155.904V151.52H141.097V160H139.641V157.712L139.881 158.32C139.603 158.885 139.187 159.323 138.633 159.632C138.078 159.941 137.454 160.096 136.761 160.096ZM147.557 160.096C146.65 160.096 145.85 159.909 145.157 159.536C144.474 159.163 143.941 158.651 143.557 158C143.183 157.349 142.997 156.603 142.997 155.76C142.997 154.917 143.178 154.171 143.541 153.52C143.914 152.869 144.421 152.363 145.061 152C145.711 151.627 146.442 151.44 147.253 151.44C148.074 151.44 148.799 151.621 149.429 151.984C150.058 152.347 150.549 152.859 150.901 153.52C151.263 154.171 151.445 154.933 151.445 155.808C151.445 155.872 151.439 155.947 151.429 156.032C151.429 156.117 151.423 156.197 151.413 156.272H144.197V155.168H150.613L149.989 155.552C149.999 155.008 149.887 154.523 149.653 154.096C149.418 153.669 149.093 153.339 148.677 153.104C148.271 152.859 147.797 152.736 147.253 152.736C146.719 152.736 146.245 152.859 145.829 153.104C145.413 153.339 145.087 153.675 144.853 154.112C144.618 154.539 144.501 155.029 144.501 155.584V155.84C144.501 156.405 144.629 156.912 144.885 157.36C145.151 157.797 145.519 158.139 145.989 158.384C146.458 158.629 146.997 158.752 147.605 158.752C148.106 158.752 148.559 158.667 148.965 158.496C149.381 158.325 149.743 158.069 150.053 157.728L150.901 158.72C150.517 159.168 150.037 159.509 149.461 159.744C148.895 159.979 148.261 160.096 147.557 160.096ZM153.338 160V151.52H154.81V153.824L154.666 153.248C154.9 152.661 155.295 152.213 155.85 151.904C156.404 151.595 157.087 151.44 157.898 151.44V152.928C157.834 152.917 157.77 152.912 157.706 152.912C157.652 152.912 157.599 152.912 157.546 152.912C156.724 152.912 156.074 153.157 155.594 153.648C155.114 154.139 154.874 154.848 154.874 155.776V160H153.338ZM174.325 151.44C175.008 151.44 175.61 151.573 176.133 151.84C176.656 152.107 177.061 152.512 177.349 153.056C177.648 153.6 177.797 154.288 177.797 155.12V160H176.261V155.296C176.261 154.475 176.069 153.856 175.685 153.44C175.301 153.024 174.762 152.816 174.069 152.816C173.557 152.816 173.109 152.923 172.725 153.136C172.341 153.349 172.042 153.664 171.829 154.08C171.626 154.496 171.525 155.013 171.525 155.632V160H169.989V155.296C169.989 154.475 169.797 153.856 169.413 153.44C169.04 153.024 168.501 152.816 167.797 152.816C167.296 152.816 166.853 152.923 166.469 153.136C166.085 153.349 165.786 153.664 165.573 154.08C165.36 154.496 165.253 155.013 165.253 155.632V160H163.717V151.52H165.189V153.776L164.949 153.2C165.216 152.645 165.626 152.213 166.181 151.904C166.736 151.595 167.381 151.44 168.117 151.44C168.928 151.44 169.626 151.643 170.213 152.048C170.8 152.443 171.184 153.045 171.365 153.856L170.741 153.6C170.997 152.949 171.445 152.427 172.085 152.032C172.725 151.637 173.472 151.44 174.325 151.44ZM183.951 160.096C183.226 160.096 182.586 159.963 182.031 159.696C181.487 159.429 181.061 159.024 180.751 158.48C180.453 157.925 180.303 157.232 180.303 156.4V151.52H181.839V156.224C181.839 157.056 182.037 157.68 182.431 158.096C182.837 158.512 183.402 158.72 184.127 158.72C184.661 158.72 185.125 158.613 185.519 158.4C185.914 158.176 186.218 157.856 186.431 157.44C186.645 157.013 186.751 156.501 186.751 155.904V151.52H188.287V160H186.831V157.712L187.071 158.32C186.794 158.885 186.378 159.323 185.823 159.632C185.269 159.941 184.645 160.096 183.951 160.096ZM194.475 160.096C193.654 160.096 192.918 159.915 192.267 159.552C191.627 159.189 191.121 158.683 190.747 158.032C190.374 157.381 190.187 156.624 190.187 155.76C190.187 154.896 190.374 154.144 190.747 153.504C191.121 152.853 191.627 152.347 192.267 151.984C192.918 151.621 193.654 151.44 194.475 151.44C195.19 151.44 195.835 151.6 196.411 151.92C196.987 152.24 197.446 152.72 197.787 153.36C198.139 154 198.315 154.8 198.315 155.76C198.315 156.72 198.145 157.52 197.803 158.16C197.473 158.8 197.019 159.285 196.443 159.616C195.867 159.936 195.211 160.096 194.475 160.096ZM194.603 158.752C195.137 158.752 195.617 158.629 196.043 158.384C196.481 158.139 196.822 157.792 197.067 157.344C197.323 156.885 197.451 156.357 197.451 155.76C197.451 155.152 197.323 154.629 197.067 154.192C196.822 153.744 196.481 153.397 196.043 153.152C195.617 152.907 195.137 152.784 194.603 152.784C194.059 152.784 193.574 152.907 193.147 153.152C192.721 153.397 192.379 153.744 192.123 154.192C191.867 154.629 191.739 155.152 191.739 155.76C191.739 156.357 191.867 156.885 192.123 157.344C192.379 157.792 192.721 158.139 193.147 158.384C193.574 158.629 194.059 158.752 194.603 158.752ZM197.499 160V157.712L197.595 155.744L197.435 153.776V148.128H198.971V160H197.499ZM206.902 160V158.208L206.822 157.872V154.816C206.822 154.165 206.63 153.664 206.246 153.312C205.872 152.949 205.307 152.768 204.55 152.768C204.048 152.768 203.558 152.853 203.078 153.024C202.598 153.184 202.192 153.403 201.862 153.68L201.222 152.528C201.659 152.176 202.182 151.909 202.79 151.728C203.408 151.536 204.054 151.44 204.726 151.44C205.888 151.44 206.784 151.723 207.414 152.288C208.043 152.853 208.358 153.717 208.358 154.88V160H206.902ZM204.118 160.096C203.488 160.096 202.934 159.989 202.454 159.776C201.984 159.563 201.622 159.269 201.366 158.896C201.11 158.512 200.982 158.08 200.982 157.6C200.982 157.141 201.088 156.725 201.302 156.352C201.526 155.979 201.883 155.68 202.374 155.456C202.875 155.232 203.547 155.12 204.39 155.12H207.078V156.224H204.454C203.686 156.224 203.168 156.352 202.902 156.608C202.635 156.864 202.502 157.173 202.502 157.536C202.502 157.952 202.667 158.288 202.998 158.544C203.328 158.789 203.787 158.912 204.374 158.912C204.95 158.912 205.451 158.784 205.878 158.528C206.315 158.272 206.63 157.899 206.822 157.408L207.126 158.464C206.923 158.965 206.566 159.365 206.054 159.664C205.542 159.952 204.896 160.096 204.118 160.096ZM210.96 160V151.52H212.432V153.824L212.288 153.248C212.523 152.661 212.917 152.213 213.472 151.904C214.027 151.595 214.709 151.44 215.52 151.44V152.928C215.456 152.917 215.392 152.912 215.328 152.912C215.275 152.912 215.221 152.912 215.168 152.912C214.347 152.912 213.696 153.157 213.216 153.648C212.736 154.139 212.496 154.848 212.496 155.776V160H210.96ZM42.7897 187.096C41.9684 187.096 41.2324 186.915 40.5817 186.552C39.9417 186.189 39.435 185.683 39.0617 185.032C38.6884 184.381 38.5017 183.624 38.5017 182.76C38.5017 181.896 38.6884 181.144 39.0617 180.504C39.435 179.853 39.9417 179.347 40.5817 178.984C41.2324 178.621 41.9684 178.44 42.7897 178.44C43.5044 178.44 44.1497 178.6 44.7257 178.92C45.3017 179.24 45.7604 179.72 46.1017 180.36C46.4537 181 46.6297 181.8 46.6297 182.76C46.6297 183.72 46.459 184.52 46.1177 185.16C45.787 185.8 45.3337 186.285 44.7577 186.616C44.1817 186.936 43.5257 187.096 42.7897 187.096ZM42.9177 185.752C43.451 185.752 43.931 185.629 44.3577 185.384C44.795 185.139 45.1364 184.792 45.3817 184.344C45.6377 183.885 45.7657 183.357 45.7657 182.76C45.7657 182.152 45.6377 181.629 45.3817 181.192C45.1364 180.744 44.795 180.397 44.3577 180.152C43.931 179.907 43.451 179.784 42.9177 179.784C42.3737 179.784 41.8884 179.907 41.4617 180.152C41.035 180.397 40.6937 180.744 40.4377 181.192C40.1817 181.629 40.0537 182.152 40.0537 182.76C40.0537 183.357 40.1817 183.885 40.4377 184.344C40.6937 184.792 41.035 185.139 41.4617 185.384C41.8884 185.629 42.3737 185.752 42.9177 185.752ZM45.8137 187V184.712L45.9097 182.744L45.7497 180.776V175.128H47.2857V187H45.8137ZM53.7279 187.096C52.8213 187.096 52.0213 186.909 51.3279 186.536C50.6453 186.163 50.1119 185.651 49.7279 185C49.3546 184.349 49.1679 183.603 49.1679 182.76C49.1679 181.917 49.3493 181.171 49.7119 180.52C50.0853 179.869 50.5919 179.363 51.2319 179C51.8826 178.627 52.6133 178.44 53.4239 178.44C54.2453 178.44 54.9706 178.621 55.5999 178.984C56.2293 179.347 56.7199 179.859 57.0719 180.52C57.4346 181.171 57.6159 181.933 57.6159 182.808C57.6159 182.872 57.6106 182.947 57.5999 183.032C57.5999 183.117 57.5946 183.197 57.5839 183.272H50.3679V182.168H56.7839L56.1599 182.552C56.1706 182.008 56.0586 181.523 55.8239 181.096C55.5893 180.669 55.2639 180.339 54.8479 180.104C54.4426 179.859 53.9679 179.736 53.4239 179.736C52.8906 179.736 52.4159 179.859 51.9999 180.104C51.5839 180.339 51.2586 180.675 51.0239 181.112C50.7893 181.539 50.6719 182.029 50.6719 182.584V182.84C50.6719 183.405 50.7999 183.912 51.0559 184.36C51.3226 184.797 51.6906 185.139 52.1599 185.384C52.6293 185.629 53.1679 185.752 53.7759 185.752C54.2773 185.752 54.7306 185.667 55.1359 185.496C55.5519 185.325 55.9146 185.069 56.2239 184.728L57.0719 185.72C56.6879 186.168 56.2079 186.509 55.6319 186.744C55.0666 186.979 54.4319 187.096 53.7279 187.096ZM65.7897 187L62.0777 178.52H63.6777L66.9737 186.2H66.2057L69.5657 178.52H71.0697L67.3577 187H65.7897ZM72.2632 187V178.52H73.7992V187H72.2632ZM73.0312 176.888C72.7325 176.888 72.4819 176.792 72.2792 176.6C72.0872 176.408 71.9912 176.173 71.9912 175.896C71.9912 175.608 72.0872 175.368 72.2792 175.176C72.4819 174.984 72.7325 174.888 73.0312 174.888C73.3299 174.888 73.5752 174.984 73.7672 175.176C73.9699 175.357 74.0712 175.587 74.0712 175.864C74.0712 176.152 73.9752 176.397 73.7832 176.6C73.5912 176.792 73.3405 176.888 73.0312 176.888ZM79.9959 187.096C79.1746 187.096 78.4386 186.915 77.7879 186.552C77.1479 186.189 76.6413 185.683 76.2679 185.032C75.8946 184.381 75.7079 183.624 75.7079 182.76C75.7079 181.896 75.8946 181.144 76.2679 180.504C76.6413 179.853 77.1479 179.347 77.7879 178.984C78.4386 178.621 79.1746 178.44 79.9959 178.44C80.7106 178.44 81.3559 178.6 81.9319 178.92C82.5079 179.24 82.9666 179.72 83.3079 180.36C83.6599 181 83.8359 181.8 83.8359 182.76C83.8359 183.72 83.6653 184.52 83.3239 185.16C82.9933 185.8 82.5399 186.285 81.9639 186.616C81.3879 186.936 80.7319 187.096 79.9959 187.096ZM80.1239 185.752C80.6573 185.752 81.1373 185.629 81.5639 185.384C82.0013 185.139 82.3426 184.792 82.5879 184.344C82.8439 183.885 82.9719 183.357 82.9719 182.76C82.9719 182.152 82.8439 181.629 82.5879 181.192C82.3426 180.744 82.0013 180.397 81.5639 180.152C81.1373 179.907 80.6573 179.784 80.1239 179.784C79.5799 179.784 79.0946 179.907 78.6679 180.152C78.2413 180.397 77.8999 180.744 77.6439 181.192C77.3879 181.629 77.2599 182.152 77.2599 182.76C77.2599 183.357 77.3879 183.885 77.6439 184.344C77.8999 184.792 78.2413 185.139 78.6679 185.384C79.0946 185.629 79.5799 185.752 80.1239 185.752ZM83.0199 187V184.712L83.1159 182.744L82.9559 180.776V175.128H84.4919V187H83.0199ZM92.4222 187V185.208L92.3422 184.872V181.816C92.3422 181.165 92.1502 180.664 91.7662 180.312C91.3929 179.949 90.8275 179.768 90.0702 179.768C89.5689 179.768 89.0782 179.853 88.5982 180.024C88.1182 180.184 87.7129 180.403 87.3822 180.68L86.7422 179.528C87.1795 179.176 87.7022 178.909 88.3102 178.728C88.9289 178.536 89.5742 178.44 90.2462 178.44C91.4089 178.44 92.3049 178.723 92.9342 179.288C93.5635 179.853 93.8782 180.717 93.8782 181.88V187H92.4222ZM89.6382 187.096C89.0089 187.096 88.4542 186.989 87.9742 186.776C87.5049 186.563 87.1422 186.269 86.8862 185.896C86.6302 185.512 86.5022 185.08 86.5022 184.6C86.5022 184.141 86.6089 183.725 86.8222 183.352C87.0462 182.979 87.4035 182.68 87.8942 182.456C88.3955 182.232 89.0675 182.12 89.9102 182.12H92.5982V183.224H89.9742C89.2062 183.224 88.6889 183.352 88.4222 183.608C88.1555 183.864 88.0222 184.173 88.0222 184.536C88.0222 184.952 88.1875 185.288 88.5182 185.544C88.8489 185.789 89.3075 185.912 89.8942 185.912C90.4702 185.912 90.9715 185.784 91.3982 185.528C91.8355 185.272 92.1502 184.899 92.3422 184.408L92.6462 185.464C92.4435 185.965 92.0862 186.365 91.5742 186.664C91.0622 186.952 90.4169 187.096 89.6382 187.096ZM111.146 178.44C111.828 178.44 112.431 178.573 112.954 178.84C113.476 179.107 113.882 179.512 114.17 180.056C114.468 180.6 114.618 181.288 114.618 182.12V187H113.082V182.296C113.082 181.475 112.89 180.856 112.506 180.44C112.122 180.024 111.583 179.816 110.89 179.816C110.378 179.816 109.93 179.923 109.546 180.136C109.162 180.349 108.863 180.664 108.65 181.08C108.447 181.496 108.346 182.013 108.346 182.632V187H106.81V182.296C106.81 181.475 106.618 180.856 106.234 180.44C105.86 180.024 105.322 179.816 104.618 179.816C104.116 179.816 103.674 179.923 103.29 180.136C102.906 180.349 102.607 180.664 102.394 181.08C102.18 181.496 102.074 182.013 102.074 182.632V187H100.538V178.52H102.01V180.776L101.77 180.2C102.036 179.645 102.447 179.213 103.002 178.904C103.556 178.595 104.202 178.44 104.938 178.44C105.748 178.44 106.447 178.643 107.034 179.048C107.62 179.443 108.004 180.045 108.186 180.856L107.562 180.6C107.818 179.949 108.266 179.427 108.906 179.032C109.546 178.637 110.292 178.44 111.146 178.44ZM122.468 187V185.208L122.388 184.872V181.816C122.388 181.165 122.196 180.664 121.812 180.312C121.438 179.949 120.873 179.768 120.116 179.768C119.614 179.768 119.124 179.853 118.644 180.024C118.164 180.184 117.758 180.403 117.428 180.68L116.788 179.528C117.225 179.176 117.748 178.909 118.356 178.728C118.974 178.536 119.62 178.44 120.292 178.44C121.454 178.44 122.35 178.723 122.98 179.288C123.609 179.853 123.924 180.717 123.924 181.88V187H122.468ZM119.684 187.096C119.054 187.096 118.5 186.989 118.02 186.776C117.55 186.563 117.188 186.269 116.932 185.896C116.676 185.512 116.548 185.08 116.548 184.6C116.548 184.141 116.654 183.725 116.868 183.352C117.092 182.979 117.449 182.68 117.94 182.456C118.441 182.232 119.113 182.12 119.956 182.12H122.644V183.224H120.02C119.252 183.224 118.734 183.352 118.468 183.608C118.201 183.864 118.068 184.173 118.068 184.536C118.068 184.952 118.233 185.288 118.564 185.544C118.894 185.789 119.353 185.912 119.94 185.912C120.516 185.912 121.017 185.784 121.444 185.528C121.881 185.272 122.196 184.899 122.388 184.408L122.692 185.464C122.489 185.965 122.132 186.365 121.62 186.664C121.108 186.952 120.462 187.096 119.684 187.096ZM128.958 187.096C128.254 187.096 127.582 187 126.942 186.808C126.313 186.616 125.817 186.381 125.454 186.104L126.094 184.888C126.457 185.133 126.905 185.341 127.438 185.512C127.972 185.683 128.516 185.768 129.07 185.768C129.785 185.768 130.297 185.667 130.606 185.464C130.926 185.261 131.086 184.979 131.086 184.616C131.086 184.349 130.99 184.141 130.798 183.992C130.606 183.843 130.35 183.731 130.03 183.656C129.721 183.581 129.374 183.517 128.99 183.464C128.606 183.4 128.222 183.325 127.838 183.24C127.454 183.144 127.102 183.016 126.782 182.856C126.462 182.685 126.206 182.456 126.014 182.168C125.822 181.869 125.726 181.475 125.726 180.984C125.726 180.472 125.87 180.024 126.158 179.64C126.446 179.256 126.852 178.963 127.374 178.76C127.908 178.547 128.537 178.44 129.262 178.44C129.817 178.44 130.377 178.509 130.942 178.648C131.518 178.776 131.988 178.963 132.35 179.208L131.694 180.424C131.31 180.168 130.91 179.992 130.494 179.896C130.078 179.8 129.662 179.752 129.246 179.752C128.574 179.752 128.073 179.864 127.742 180.088C127.412 180.301 127.246 180.579 127.246 180.92C127.246 181.208 127.342 181.432 127.534 181.592C127.737 181.741 127.993 181.859 128.302 181.944C128.622 182.029 128.974 182.104 129.358 182.168C129.742 182.221 130.126 182.296 130.51 182.392C130.894 182.477 131.241 182.6 131.55 182.76C131.87 182.92 132.126 183.144 132.318 183.432C132.521 183.72 132.622 184.104 132.622 184.584C132.622 185.096 132.473 185.539 132.174 185.912C131.876 186.285 131.454 186.579 130.91 186.792C130.366 186.995 129.716 187.096 128.958 187.096ZM142.887 178.44C143.58 178.44 144.188 178.573 144.711 178.84C145.244 179.107 145.66 179.512 145.959 180.056C146.257 180.6 146.407 181.288 146.407 182.12V187H144.871V182.296C144.871 181.475 144.668 180.856 144.263 180.44C143.868 180.024 143.308 179.816 142.583 179.816C142.039 179.816 141.564 179.923 141.159 180.136C140.753 180.349 140.439 180.664 140.215 181.08C140.001 181.496 139.895 182.013 139.895 182.632V187H138.359V178.52H139.831V180.808L139.591 180.2C139.868 179.645 140.295 179.213 140.871 178.904C141.447 178.595 142.119 178.44 142.887 178.44ZM154.273 187V185.208L154.193 184.872V181.816C154.193 181.165 154.001 180.664 153.617 180.312C153.244 179.949 152.679 179.768 151.921 179.768C151.42 179.768 150.929 179.853 150.449 180.024C149.969 180.184 149.564 180.403 149.233 180.68L148.593 179.528C149.031 179.176 149.553 178.909 150.161 178.728C150.78 178.536 151.425 178.44 152.097 178.44C153.26 178.44 154.156 178.723 154.785 179.288C155.415 179.853 155.729 180.717 155.729 181.88V187H154.273ZM151.489 187.096C150.86 187.096 150.305 186.989 149.825 186.776C149.356 186.563 148.993 186.269 148.737 185.896C148.481 185.512 148.353 185.08 148.353 184.6C148.353 184.141 148.46 183.725 148.673 183.352C148.897 182.979 149.255 182.68 149.745 182.456C150.247 182.232 150.919 182.12 151.761 182.12H154.449V183.224H151.825C151.057 183.224 150.54 183.352 150.273 183.608C150.007 183.864 149.873 184.173 149.873 184.536C149.873 184.952 150.039 185.288 150.369 185.544C150.7 185.789 151.159 185.912 151.745 185.912C152.321 185.912 152.823 185.784 153.249 185.528C153.687 185.272 154.001 184.899 154.193 184.408L154.497 185.464C154.295 185.965 153.937 186.365 153.425 186.664C152.913 186.952 152.268 187.096 151.489 187.096ZM153.329 177.24C153.073 177.24 152.844 177.187 152.641 177.08C152.449 176.973 152.273 176.851 152.113 176.712C151.953 176.563 151.799 176.435 151.649 176.328C151.5 176.221 151.351 176.168 151.201 176.168C150.967 176.168 150.775 176.259 150.625 176.44C150.487 176.611 150.407 176.851 150.385 177.16H149.521C149.543 176.563 149.692 176.088 149.969 175.736C150.247 175.384 150.62 175.208 151.089 175.208C151.345 175.208 151.575 175.267 151.777 175.384C151.98 175.491 152.161 175.619 152.321 175.768C152.481 175.907 152.631 176.029 152.769 176.136C152.919 176.243 153.068 176.296 153.217 176.296C153.452 176.296 153.644 176.211 153.793 176.04C153.943 175.869 154.023 175.635 154.033 175.336H154.897C154.887 175.901 154.737 176.36 154.449 176.712C154.172 177.064 153.799 177.24 153.329 177.24ZM161.964 187.096C161.111 187.096 160.353 186.909 159.692 186.536C159.031 186.163 158.508 185.651 158.124 185C157.74 184.339 157.548 183.592 157.548 182.76C157.548 181.917 157.74 181.171 158.124 180.52C158.508 179.869 159.031 179.363 159.692 179C160.353 178.627 161.111 178.44 161.964 178.44C162.807 178.44 163.559 178.627 164.22 179C164.892 179.363 165.415 179.869 165.788 180.52C166.172 181.16 166.364 181.907 166.364 182.76C166.364 183.603 166.172 184.349 165.788 185C165.415 185.651 164.892 186.163 164.22 186.536C163.559 186.909 162.807 187.096 161.964 187.096ZM161.964 185.752C162.508 185.752 162.993 185.629 163.42 185.384C163.857 185.139 164.199 184.792 164.444 184.344C164.689 183.885 164.812 183.357 164.812 182.76C164.812 182.152 164.689 181.629 164.444 181.192C164.199 180.744 163.857 180.397 163.42 180.152C162.993 179.907 162.508 179.784 161.964 179.784C161.42 179.784 160.935 179.907 160.508 180.152C160.081 180.397 159.74 180.744 159.484 181.192C159.228 181.629 159.1 182.152 159.1 182.76C159.1 183.357 159.228 183.885 159.484 184.344C159.74 184.792 160.081 185.139 160.508 185.384C160.935 185.629 161.42 185.752 161.964 185.752ZM174.737 187.096C174.033 187.096 173.361 187 172.721 186.808C172.092 186.616 171.596 186.381 171.233 186.104L171.873 184.888C172.236 185.133 172.684 185.341 173.217 185.512C173.75 185.683 174.294 185.768 174.849 185.768C175.564 185.768 176.076 185.667 176.385 185.464C176.705 185.261 176.865 184.979 176.865 184.616C176.865 184.349 176.769 184.141 176.577 183.992C176.385 183.843 176.129 183.731 175.809 183.656C175.5 183.581 175.153 183.517 174.769 183.464C174.385 183.4 174.001 183.325 173.617 183.24C173.233 183.144 172.881 183.016 172.561 182.856C172.241 182.685 171.985 182.456 171.793 182.168C171.601 181.869 171.505 181.475 171.505 180.984C171.505 180.472 171.649 180.024 171.937 179.64C172.225 179.256 172.63 178.963 173.153 178.76C173.686 178.547 174.316 178.44 175.041 178.44C175.596 178.44 176.156 178.509 176.721 178.648C177.297 178.776 177.766 178.963 178.129 179.208L177.473 180.424C177.089 180.168 176.689 179.992 176.273 179.896C175.857 179.8 175.441 179.752 175.025 179.752C174.353 179.752 173.852 179.864 173.521 180.088C173.19 180.301 173.025 180.579 173.025 180.92C173.025 181.208 173.121 181.432 173.313 181.592C173.516 181.741 173.772 181.859 174.081 181.944C174.401 182.029 174.753 182.104 175.137 182.168C175.521 182.221 175.905 182.296 176.289 182.392C176.673 182.477 177.02 182.6 177.329 182.76C177.649 182.92 177.905 183.144 178.097 183.432C178.3 183.72 178.401 184.104 178.401 184.584C178.401 185.096 178.252 185.539 177.953 185.912C177.654 186.285 177.233 186.579 176.689 186.792C176.145 186.995 175.494 187.096 174.737 187.096ZM185.345 187V185.208L185.265 184.872V181.816C185.265 181.165 185.073 180.664 184.689 180.312C184.315 179.949 183.75 179.768 182.993 179.768C182.491 179.768 182.001 179.853 181.521 180.024C181.041 180.184 180.635 180.403 180.305 180.68L179.665 179.528C180.102 179.176 180.625 178.909 181.233 178.728C181.851 178.536 182.497 178.44 183.169 178.44C184.331 178.44 185.227 178.723 185.857 179.288C186.486 179.853 186.801 180.717 186.801 181.88V187H185.345ZM182.561 187.096C181.931 187.096 181.377 186.989 180.897 186.776C180.427 186.563 180.065 186.269 179.809 185.896C179.553 185.512 179.425 185.08 179.425 184.6C179.425 184.141 179.531 183.725 179.745 183.352C179.969 182.979 180.326 182.68 180.817 182.456C181.318 182.232 181.99 182.12 182.833 182.12H185.521V183.224H182.897C182.129 183.224 181.611 183.352 181.345 183.608C181.078 183.864 180.945 184.173 180.945 184.536C180.945 184.952 181.11 185.288 181.441 185.544C181.771 185.789 182.23 185.912 182.817 185.912C183.393 185.912 183.894 185.784 184.321 185.528C184.758 185.272 185.073 184.899 185.265 184.408L185.569 185.464C185.366 185.965 185.009 186.365 184.497 186.664C183.985 186.952 183.339 187.096 182.561 187.096ZM193.899 187.096C193.174 187.096 192.518 186.936 191.931 186.616C191.355 186.285 190.897 185.8 190.555 185.16C190.225 184.52 190.059 183.72 190.059 182.76C190.059 181.8 190.23 181 190.571 180.36C190.923 179.72 191.387 179.24 191.963 178.92C192.55 178.6 193.195 178.44 193.899 178.44C194.731 178.44 195.467 178.621 196.107 178.984C196.747 179.347 197.254 179.853 197.627 180.504C198.001 181.144 198.187 181.896 198.187 182.76C198.187 183.624 198.001 184.381 197.627 185.032C197.254 185.683 196.747 186.189 196.107 186.552C195.467 186.915 194.731 187.096 193.899 187.096ZM189.403 187V175.128H190.939V180.776L190.779 182.744L190.875 184.712V187H189.403ZM193.771 185.752C194.315 185.752 194.801 185.629 195.227 185.384C195.665 185.139 196.006 184.792 196.251 184.344C196.507 183.885 196.635 183.357 196.635 182.76C196.635 182.152 196.507 181.629 196.251 181.192C196.006 180.744 195.665 180.397 195.227 180.152C194.801 179.907 194.315 179.784 193.771 179.784C193.238 179.784 192.753 179.907 192.315 180.152C191.889 180.397 191.547 180.744 191.291 181.192C191.046 181.629 190.923 182.152 190.923 182.76C190.923 183.357 191.046 183.885 191.291 184.344C191.547 184.792 191.889 185.139 192.315 185.384C192.753 185.629 193.238 185.752 193.771 185.752ZM203.845 187.096C202.939 187.096 202.139 186.909 201.445 186.536C200.763 186.163 200.229 185.651 199.845 185C199.472 184.349 199.285 183.603 199.285 182.76C199.285 181.917 199.467 181.171 199.829 180.52C200.203 179.869 200.709 179.363 201.349 179C202 178.627 202.731 178.44 203.541 178.44C204.363 178.44 205.088 178.621 205.717 178.984C206.347 179.347 206.837 179.859 207.189 180.52C207.552 181.171 207.733 181.933 207.733 182.808C207.733 182.872 207.728 182.947 207.717 183.032C207.717 183.117 207.712 183.197 207.701 183.272H200.485V182.168H206.901L206.277 182.552C206.288 182.008 206.176 181.523 205.941 181.096C205.707 180.669 205.381 180.339 204.965 180.104C204.56 179.859 204.085 179.736 203.541 179.736C203.008 179.736 202.533 179.859 202.117 180.104C201.701 180.339 201.376 180.675 201.141 181.112C200.907 181.539 200.789 182.029 200.789 182.584V182.84C200.789 183.405 200.917 183.912 201.173 184.36C201.44 184.797 201.808 185.139 202.277 185.384C202.747 185.629 203.285 185.752 203.893 185.752C204.395 185.752 204.848 185.667 205.253 185.496C205.669 185.325 206.032 185.069 206.341 184.728L207.189 185.72C206.805 186.168 206.325 186.509 205.749 186.744C205.184 186.979 204.549 187.096 203.845 187.096ZM56.1973 214.096C55.4933 214.096 54.848 213.936 54.2613 213.616C53.6853 213.285 53.2213 212.8 52.8693 212.16C52.528 211.52 52.3573 210.72 52.3573 209.76C52.3573 208.8 52.5226 208 52.8533 207.36C53.1946 206.72 53.6533 206.24 54.2293 205.92C54.816 205.6 55.472 205.44 56.1973 205.44C57.0293 205.44 57.7653 205.621 58.4053 205.984C59.0453 206.347 59.552 206.853 59.9253 207.504C60.2986 208.144 60.4853 208.896 60.4853 209.76C60.4853 210.624 60.2986 211.381 59.9253 212.032C59.552 212.683 59.0453 213.189 58.4053 213.552C57.7653 213.915 57.0293 214.096 56.1973 214.096ZM51.7013 217.104V205.52H53.1733V207.808L53.0773 209.776L53.2373 211.744V217.104H51.7013ZM56.0693 212.752C56.6133 212.752 57.0986 212.629 57.5253 212.384C57.9626 212.139 58.304 211.792 58.5493 211.344C58.8053 210.885 58.9333 210.357 58.9333 209.76C58.9333 209.152 58.8053 208.629 58.5493 208.192C58.304 207.744 57.9626 207.397 57.5253 207.152C57.0986 206.907 56.6133 206.784 56.0693 206.784C55.536 206.784 55.0506 206.907 54.6133 207.152C54.1866 207.397 53.8453 207.744 53.5893 208.192C53.344 208.629 53.2213 209.152 53.2213 209.76C53.2213 210.357 53.344 210.885 53.5893 211.344C53.8453 211.792 54.1866 212.139 54.6133 212.384C55.0506 212.629 55.536 212.752 56.0693 212.752ZM65.9996 214.096C65.1462 214.096 64.3889 213.909 63.7276 213.536C63.0662 213.163 62.5436 212.651 62.1596 212C61.7756 211.339 61.5836 210.592 61.5836 209.76C61.5836 208.917 61.7756 208.171 62.1596 207.52C62.5436 206.869 63.0662 206.363 63.7276 206C64.3889 205.627 65.1462 205.44 65.9996 205.44C66.8422 205.44 67.5942 205.627 68.2556 206C68.9276 206.363 69.4502 206.869 69.8236 207.52C70.2076 208.16 70.3996 208.907 70.3996 209.76C70.3996 210.603 70.2076 211.349 69.8236 212C69.4502 212.651 68.9276 213.163 68.2556 213.536C67.5942 213.909 66.8422 214.096 65.9996 214.096ZM65.9996 212.752C66.5436 212.752 67.0289 212.629 67.4556 212.384C67.8929 212.139 68.2342 211.792 68.4796 211.344C68.7249 210.885 68.8476 210.357 68.8476 209.76C68.8476 209.152 68.7249 208.629 68.4796 208.192C68.2342 207.744 67.8929 207.397 67.4556 207.152C67.0289 206.907 66.5436 206.784 65.9996 206.784C65.4556 206.784 64.9702 206.907 64.5436 207.152C64.1169 207.397 63.7756 207.744 63.5196 208.192C63.2636 208.629 63.1356 209.152 63.1356 209.76C63.1356 210.357 63.2636 210.885 63.5196 211.344C63.7756 211.792 64.1169 212.139 64.5436 212.384C64.9702 212.629 65.4556 212.752 65.9996 212.752ZM72.2838 214V205.52H73.7558V207.824L73.6118 207.248C73.8465 206.661 74.2411 206.213 74.7958 205.904C75.3505 205.595 76.0331 205.44 76.8438 205.44V206.928C76.7798 206.917 76.7158 206.912 76.6518 206.912C76.5985 206.912 76.5451 206.912 76.4918 206.912C75.6705 206.912 75.0198 207.157 74.5398 207.648C74.0598 208.139 73.8198 208.848 73.8198 209.776V214H72.2838ZM86.2952 214.096C85.4419 214.096 84.6845 213.909 84.0232 213.536C83.3619 213.163 82.8392 212.651 82.4552 212C82.0712 211.339 81.8792 210.592 81.8792 209.76C81.8792 208.917 82.0712 208.171 82.4552 207.52C82.8392 206.869 83.3619 206.363 84.0232 206C84.6845 205.627 85.4419 205.44 86.2952 205.44C87.1379 205.44 87.8899 205.627 88.5512 206C89.2232 206.363 89.7459 206.869 90.1192 207.52C90.5032 208.16 90.6952 208.907 90.6952 209.76C90.6952 210.603 90.5032 211.349 90.1192 212C89.7459 212.651 89.2232 213.163 88.5512 213.536C87.8899 213.909 87.1379 214.096 86.2952 214.096ZM86.2952 212.752C86.8392 212.752 87.3245 212.629 87.7512 212.384C88.1885 212.139 88.5299 211.792 88.7752 211.344C89.0205 210.885 89.1432 210.357 89.1432 209.76C89.1432 209.152 89.0205 208.629 88.7752 208.192C88.5299 207.744 88.1885 207.397 87.7512 207.152C87.3245 206.907 86.8392 206.784 86.2952 206.784C85.7512 206.784 85.2659 206.907 84.8392 207.152C84.4125 207.397 84.0712 207.744 83.8152 208.192C83.5592 208.629 83.4312 209.152 83.4312 209.76C83.4312 210.357 83.5592 210.885 83.8152 211.344C84.0712 211.792 84.4125 212.139 84.8392 212.384C85.2659 212.629 85.7512 212.752 86.2952 212.752ZM97.1074 205.44C97.8008 205.44 98.4088 205.573 98.9314 205.84C99.4648 206.107 99.8808 206.512 100.179 207.056C100.478 207.6 100.627 208.288 100.627 209.12V214H99.0914V209.296C99.0914 208.475 98.8888 207.856 98.4834 207.44C98.0888 207.024 97.5288 206.816 96.8034 206.816C96.2594 206.816 95.7848 206.923 95.3794 207.136C94.9741 207.349 94.6594 207.664 94.4354 208.08C94.2221 208.496 94.1154 209.013 94.1154 209.632V214H92.5794V205.52H94.0514V207.808L93.8114 207.2C94.0888 206.645 94.5154 206.213 95.0914 205.904C95.6674 205.595 96.3394 205.44 97.1074 205.44ZM106.734 214.096C105.913 214.096 105.177 213.915 104.526 213.552C103.886 213.189 103.379 212.683 103.006 212.032C102.633 211.381 102.446 210.624 102.446 209.76C102.446 208.896 102.633 208.144 103.006 207.504C103.379 206.853 103.886 206.347 104.526 205.984C105.177 205.621 105.913 205.44 106.734 205.44C107.449 205.44 108.094 205.6 108.67 205.92C109.246 206.24 109.705 206.72 110.046 207.36C110.398 208 110.574 208.8 110.574 209.76C110.574 210.72 110.403 211.52 110.062 212.16C109.731 212.8 109.278 213.285 108.702 213.616C108.126 213.936 107.47 214.096 106.734 214.096ZM106.862 212.752C107.395 212.752 107.875 212.629 108.302 212.384C108.739 212.139 109.081 211.792 109.326 211.344C109.582 210.885 109.71 210.357 109.71 209.76C109.71 209.152 109.582 208.629 109.326 208.192C109.081 207.744 108.739 207.397 108.302 207.152C107.875 206.907 107.395 206.784 106.862 206.784C106.318 206.784 105.833 206.907 105.406 207.152C104.979 207.397 104.638 207.744 104.382 208.192C104.126 208.629 103.998 209.152 103.998 209.76C103.998 210.357 104.126 210.885 104.382 211.344C104.638 211.792 104.979 212.139 105.406 212.384C105.833 212.629 106.318 212.752 106.862 212.752ZM109.758 214V211.712L109.854 209.744L109.694 207.776V202.128H111.23V214H109.758ZM117.672 214.096C116.766 214.096 115.966 213.909 115.272 213.536C114.59 213.163 114.056 212.651 113.672 212C113.299 211.349 113.112 210.603 113.112 209.76C113.112 208.917 113.294 208.171 113.656 207.52C114.03 206.869 114.536 206.363 115.176 206C115.827 205.627 116.558 205.44 117.368 205.44C118.19 205.44 118.915 205.621 119.544 205.984C120.174 206.347 120.664 206.859 121.016 207.52C121.379 208.171 121.56 208.933 121.56 209.808C121.56 209.872 121.555 209.947 121.544 210.032C121.544 210.117 121.539 210.197 121.528 210.272H114.312V209.168H120.728L120.104 209.552C120.115 209.008 120.003 208.523 119.768 208.096C119.534 207.669 119.208 207.339 118.792 207.104C118.387 206.859 117.912 206.736 117.368 206.736C116.835 206.736 116.36 206.859 115.944 207.104C115.528 207.339 115.203 207.675 114.968 208.112C114.734 208.539 114.616 209.029 114.616 209.584V209.84C114.616 210.405 114.744 210.912 115 211.36C115.267 211.797 115.635 212.139 116.104 212.384C116.574 212.629 117.112 212.752 117.72 212.752C118.222 212.752 118.675 212.667 119.08 212.496C119.496 212.325 119.859 212.069 120.168 211.728L121.016 212.72C120.632 213.168 120.152 213.509 119.576 213.744C119.011 213.979 118.376 214.096 117.672 214.096ZM131.206 214.096C130.342 214.096 129.569 213.909 128.886 213.536C128.214 213.163 127.686 212.651 127.302 212C126.918 211.349 126.726 210.603 126.726 209.76C126.726 208.917 126.918 208.171 127.302 207.52C127.686 206.869 128.214 206.363 128.886 206C129.569 205.627 130.342 205.44 131.206 205.44C131.974 205.44 132.657 205.595 133.254 205.904C133.862 206.203 134.331 206.651 134.662 207.248L133.494 208C133.217 207.584 132.875 207.28 132.47 207.088C132.075 206.885 131.649 206.784 131.19 206.784C130.635 206.784 130.139 206.907 129.702 207.152C129.265 207.397 128.918 207.744 128.662 208.192C128.406 208.629 128.278 209.152 128.278 209.76C128.278 210.368 128.406 210.896 128.662 211.344C128.918 211.792 129.265 212.139 129.702 212.384C130.139 212.629 130.635 212.752 131.19 212.752C131.649 212.752 132.075 212.656 132.47 212.464C132.875 212.261 133.217 211.952 133.494 211.536L134.662 212.272C134.331 212.859 133.862 213.312 133.254 213.632C132.657 213.941 131.974 214.096 131.206 214.096ZM139.918 214.096C139.064 214.096 138.307 213.909 137.646 213.536C136.984 213.163 136.462 212.651 136.078 212C135.694 211.339 135.502 210.592 135.502 209.76C135.502 208.917 135.694 208.171 136.078 207.52C136.462 206.869 136.984 206.363 137.646 206C138.307 205.627 139.064 205.44 139.918 205.44C140.76 205.44 141.512 205.627 142.174 206C142.846 206.363 143.368 206.869 143.742 207.52C144.126 208.16 144.318 208.907 144.318 209.76C144.318 210.603 144.126 211.349 143.742 212C143.368 212.651 142.846 213.163 142.174 213.536C141.512 213.909 140.76 214.096 139.918 214.096ZM139.918 212.752C140.462 212.752 140.947 212.629 141.374 212.384C141.811 212.139 142.152 211.792 142.398 211.344C142.643 210.885 142.766 210.357 142.766 209.76C142.766 209.152 142.643 208.629 142.398 208.192C142.152 207.744 141.811 207.397 141.374 207.152C140.947 206.907 140.462 206.784 139.918 206.784C139.374 206.784 138.888 206.907 138.462 207.152C138.035 207.397 137.694 207.744 137.438 208.192C137.182 208.629 137.054 209.152 137.054 209.76C137.054 210.357 137.182 210.885 137.438 211.344C137.694 211.792 138.035 212.139 138.462 212.384C138.888 212.629 139.374 212.752 139.918 212.752ZM156.81 205.44C157.493 205.44 158.095 205.573 158.618 205.84C159.141 206.107 159.546 206.512 159.834 207.056C160.133 207.6 160.282 208.288 160.282 209.12V214H158.746V209.296C158.746 208.475 158.554 207.856 158.17 207.44C157.786 207.024 157.247 206.816 156.554 206.816C156.042 206.816 155.594 206.923 155.21 207.136C154.826 207.349 154.527 207.664 154.314 208.08C154.111 208.496 154.01 209.013 154.01 209.632V214H152.474V209.296C152.474 208.475 152.282 207.856 151.898 207.44C151.525 207.024 150.986 206.816 150.282 206.816C149.781 206.816 149.338 206.923 148.954 207.136C148.57 207.349 148.271 207.664 148.058 208.08C147.845 208.496 147.738 209.013 147.738 209.632V214H146.202V205.52H147.674V207.776L147.434 207.2C147.701 206.645 148.111 206.213 148.666 205.904C149.221 205.595 149.866 205.44 150.602 205.44C151.413 205.44 152.111 205.643 152.698 206.048C153.285 206.443 153.669 207.045 153.85 207.856L153.226 207.6C153.482 206.949 153.93 206.427 154.57 206.032C155.21 205.637 155.957 205.44 156.81 205.44ZM166.644 214.096C165.738 214.096 164.938 213.909 164.244 213.536C163.562 213.163 163.028 212.651 162.644 212C162.271 211.349 162.084 210.603 162.084 209.76C162.084 208.917 162.266 208.171 162.628 207.52C163.002 206.869 163.508 206.363 164.148 206C164.799 205.627 165.53 205.44 166.34 205.44C167.162 205.44 167.887 205.621 168.516 205.984C169.146 206.347 169.636 206.859 169.988 207.52C170.351 208.171 170.532 208.933 170.532 209.808C170.532 209.872 170.527 209.947 170.516 210.032C170.516 210.117 170.511 210.197 170.5 210.272H163.284V209.168H169.7L169.076 209.552C169.087 209.008 168.975 208.523 168.74 208.096C168.506 207.669 168.18 207.339 167.764 207.104C167.359 206.859 166.884 206.736 166.34 206.736C165.807 206.736 165.332 206.859 164.916 207.104C164.5 207.339 164.175 207.675 163.94 208.112C163.706 208.539 163.588 209.029 163.588 209.584V209.84C163.588 210.405 163.716 210.912 163.972 211.36C164.239 211.797 164.607 212.139 165.076 212.384C165.546 212.629 166.084 212.752 166.692 212.752C167.194 212.752 167.647 212.667 168.052 212.496C168.468 212.325 168.831 212.069 169.14 211.728L169.988 212.72C169.604 213.168 169.124 213.509 168.548 213.744C167.983 213.979 167.348 214.096 166.644 214.096ZM176.121 214.096C175.257 214.096 174.484 213.909 173.801 213.536C173.129 213.163 172.601 212.651 172.217 212C171.833 211.349 171.641 210.603 171.641 209.76C171.641 208.917 171.833 208.171 172.217 207.52C172.601 206.869 173.129 206.363 173.801 206C174.484 205.627 175.257 205.44 176.121 205.44C176.889 205.44 177.572 205.595 178.169 205.904C178.777 206.203 179.246 206.651 179.577 207.248L178.409 208C178.132 207.584 177.79 207.28 177.385 207.088C176.99 206.885 176.564 206.784 176.105 206.784C175.55 206.784 175.054 206.907 174.617 207.152C174.18 207.397 173.833 207.744 173.577 208.192C173.321 208.629 173.193 209.152 173.193 209.76C173.193 210.368 173.321 210.896 173.577 211.344C173.833 211.792 174.18 212.139 174.617 212.384C175.054 212.629 175.55 212.752 176.105 212.752C176.564 212.752 176.99 212.656 177.385 212.464C177.79 212.261 178.132 211.952 178.409 211.536L179.577 212.272C179.246 212.859 178.777 213.312 178.169 213.632C177.572 213.941 176.889 214.096 176.121 214.096ZM175.369 217.584C175.092 217.584 174.836 217.552 174.601 217.488C174.366 217.435 174.148 217.349 173.945 217.232L174.281 216.448C174.452 216.544 174.622 216.613 174.793 216.656C174.974 216.699 175.166 216.72 175.369 216.72C175.678 216.72 175.902 216.661 176.041 216.544C176.19 216.437 176.265 216.283 176.265 216.08C176.265 215.888 176.19 215.733 176.041 215.616C175.902 215.509 175.673 215.456 175.353 215.456H174.921L175.321 213.888H176.201L175.961 214.8C176.42 214.843 176.766 214.987 177.001 215.232C177.236 215.477 177.353 215.776 177.353 216.128C177.353 216.576 177.172 216.928 176.809 217.184C176.446 217.451 175.966 217.584 175.369 217.584ZM186.59 214V212.208L186.51 211.872V208.816C186.51 208.165 186.318 207.664 185.934 207.312C185.56 206.949 184.995 206.768 184.238 206.768C183.736 206.768 183.246 206.853 182.766 207.024C182.286 207.184 181.88 207.403 181.55 207.68L180.91 206.528C181.347 206.176 181.87 205.909 182.478 205.728C183.096 205.536 183.742 205.44 184.414 205.44C185.576 205.44 186.472 205.723 187.102 206.288C187.731 206.853 188.046 207.717 188.046 208.88V214H186.59ZM183.806 214.096C183.176 214.096 182.622 213.989 182.142 213.776C181.672 213.563 181.31 213.269 181.054 212.896C180.798 212.512 180.67 212.08 180.67 211.6C180.67 211.141 180.776 210.725 180.99 210.352C181.214 209.979 181.571 209.68 182.062 209.456C182.563 209.232 183.235 209.12 184.078 209.12H186.766V210.224H184.142C183.374 210.224 182.856 210.352 182.59 210.608C182.323 210.864 182.19 211.173 182.19 211.536C182.19 211.952 182.355 212.288 182.686 212.544C183.016 212.789 183.475 212.912 184.062 212.912C184.638 212.912 185.139 212.784 185.566 212.528C186.003 212.272 186.318 211.899 186.51 211.408L186.814 212.464C186.611 212.965 186.254 213.365 185.742 213.664C185.23 213.952 184.584 214.096 183.806 214.096ZM190.648 214V205.52H192.12V207.824L191.976 207.248C192.211 206.661 192.606 206.213 193.16 205.904C193.715 205.595 194.398 205.44 195.208 205.44V206.928C195.144 206.917 195.08 206.912 195.016 206.912C194.963 206.912 194.91 206.912 194.856 206.912C194.035 206.912 193.384 207.157 192.904 207.648C192.424 208.139 192.184 208.848 192.184 209.776V214H190.648Z" fill="#212121"/>
<g filter="url(#filter0_bd_2013_131)">
<rect x="88" y="50" width="70" height="70" rx="17.4752" fill="url(#paint0_linear_2013_131)" shape-rendering="crispEdges"/>
<rect x="88.4369" y="50.4369" width="69.1262" height="69.1262" rx="17.0383" stroke="url(#paint1_linear_2013_131)" stroke-width="0.873761" shape-rendering="crispEdges"/>
</g>
<path d="M109.024 84.6457C107.917 83.8569 107.962 82.78 108.19 81.6272C108.539 79.7463 109.085 77.9261 109.995 76.1514C109.282 75.7418 108.584 75.3323 107.871 74.9682C107.416 74.7256 107.219 74.407 107.234 73.8761C107.249 71.2065 107.249 68.5368 107.234 65.8672C107.234 65.3667 107.401 65.0633 107.841 64.8206C110.04 63.6071 112.24 62.3936 114.439 61.165C114.833 60.9375 115.167 60.9526 115.561 61.165C117.746 62.3936 119.93 63.6071 122.145 64.8206C122.554 65.0481 122.736 65.3515 122.736 65.8217C122.721 68.5217 122.721 71.2368 122.736 73.9368C122.736 74.407 122.554 74.7104 122.145 74.9379C119.945 76.1514 117.746 77.3649 115.546 78.5935C115.167 78.8059 114.818 78.821 114.424 78.5935C113.423 78.0171 112.406 77.471 111.254 76.834C110.814 78.1384 110.374 79.3671 109.995 80.6261C109.813 81.2328 109.722 81.885 109.631 82.5221C109.54 83.1895 109.767 83.4322 110.435 83.4474C111.132 83.4626 111.83 83.4474 112.543 83.4474C113.089 83.4626 113.408 83.7508 113.423 84.2058C113.438 84.6609 113.119 84.9642 112.573 85.0097C112.497 85.0097 112.422 85.0249 112.346 85.0097C111.072 84.7519 110.328 85.3131 109.722 86.4356C108.842 88.0586 107.765 89.5754 106.764 91.1378C106.369 91.7597 106.445 91.972 107.158 92.1844C107.765 92.3664 108.387 92.5788 109.009 92.7304C109.585 92.867 109.949 93.1855 109.888 93.7922C109.782 94.8389 110.313 95.2636 111.254 95.4153C111.769 95.4911 112.27 95.7035 112.77 95.8703C113.195 96.0068 113.453 96.2799 113.392 96.7501C113.317 97.2203 112.998 97.4023 112.543 97.4175C112.164 97.4327 111.785 97.4175 111.405 97.4175C111.026 97.4175 110.662 97.4175 110.222 97.4175C110.344 98.8281 110.45 100.178 110.586 101.528C110.738 103.09 110.435 103.03 112.255 102.984C113.832 102.939 115.395 102.908 116.972 102.863C117.806 102.848 117.913 102.924 118.155 103.758C118.55 105.123 118.929 106.488 119.323 107.838C119.399 108.096 119.475 108.263 119.809 108.263C124.071 108.248 128.333 108.248 132.58 108.248C132.641 108.248 132.687 108.233 132.808 108.202C132.808 108.005 132.808 107.808 132.808 107.611C132.808 105.29 132.853 102.954 132.793 100.633C132.732 98.4641 133.475 96.6287 134.825 95.0057C136.721 92.7304 137.95 90.1518 138.405 87.2243C138.936 83.7811 138.405 80.5199 136.812 77.4255C136.737 77.289 136.676 77.1525 136.6 77.0312C136.312 76.4699 136.403 76.03 136.843 75.8025C137.267 75.5902 137.662 75.757 137.95 76.2727C138.86 77.8806 139.512 79.5946 139.831 81.4148C140.802 86.8299 139.543 91.6838 136.054 95.9462C134.947 97.2961 134.325 98.7826 134.37 100.573C134.431 103.257 134.385 105.942 134.385 108.627C134.385 109.583 134.173 109.81 133.233 109.81C128.561 109.81 123.889 109.81 119.202 109.81C118.398 109.81 118.246 109.689 118.034 108.945C117.64 107.58 117.245 106.23 116.881 104.85C116.79 104.501 116.638 104.38 116.259 104.395C114.636 104.456 113.013 104.501 111.375 104.531C110.116 104.562 109.282 103.864 109.16 102.605C108.918 100.133 108.705 97.6753 108.508 95.2029C108.417 94.1714 108.432 94.1714 107.477 93.8832C107.113 93.7771 106.749 93.6709 106.4 93.5495C105.126 93.1248 104.61 91.699 105.323 90.5614C106.46 88.7715 107.598 86.9816 108.736 85.2069C108.812 85.0249 108.918 84.8429 109.024 84.6457ZM115.759 76.6671C115.895 76.6064 115.971 76.5913 116.032 76.5609C117.655 75.666 119.278 74.7862 120.87 73.861C121.037 73.7699 121.174 73.4514 121.174 73.2391C121.204 71.3127 121.189 69.3863 121.189 67.4599C121.189 67.3234 121.159 67.1869 121.143 66.9897C119.384 67.9604 117.685 68.9009 116.001 69.8717C115.865 69.9475 115.774 70.2054 115.774 70.3722C115.759 71.6009 115.759 72.8295 115.759 74.0581C115.759 74.8772 115.759 75.7418 115.759 76.6671ZM114.196 76.6974C114.196 74.4677 114.211 72.3441 114.181 70.2205C114.181 70.0537 113.984 69.8262 113.817 69.7352C112.846 69.1739 111.876 68.643 110.89 68.097C110.222 67.7178 109.54 67.3537 108.857 66.9745C108.827 67.0807 108.796 67.1414 108.796 67.1869C108.796 69.2498 108.781 71.3127 108.796 73.3756C108.796 73.5273 108.918 73.7396 109.054 73.8154C110.723 74.7711 112.406 75.6963 114.196 76.6974ZM120.37 65.6245C118.595 64.6386 116.957 63.7133 115.288 62.8184C115.122 62.7273 114.803 62.7577 114.636 62.8487C113.195 63.6223 111.754 64.4262 110.313 65.2301C110.116 65.3363 109.919 65.4728 109.646 65.6397C111.436 66.6256 113.119 67.5812 114.833 68.5065C114.955 68.5672 115.197 68.5065 115.334 68.4307C116.214 67.9604 117.093 67.4599 117.958 66.9745C118.732 66.5346 119.505 66.0947 120.37 65.6245Z" fill="url(#paint2_linear_2013_131)"/>
<path d="M120.415 83.7962C120.415 82.4462 120.43 81.1114 120.415 79.7614C120.415 79.3063 120.582 79.0182 120.977 78.8058C123.206 77.5772 125.436 76.3182 127.681 75.1199C127.939 74.9834 128.409 74.9682 128.682 75.1199C130.927 76.3182 133.142 77.5771 135.386 78.821C135.751 79.0181 135.948 79.3063 135.948 79.7311C135.948 82.4765 135.948 85.222 135.948 87.9523C135.948 88.4074 135.751 88.6956 135.371 88.9079C133.172 90.1214 130.972 91.3349 128.788 92.5635C128.379 92.7911 128.03 92.7911 127.62 92.5635C125.451 91.3349 123.267 90.1366 121.083 88.9383C120.628 88.6956 120.43 88.3619 120.446 87.8462C120.43 86.481 120.415 85.131 120.415 83.7962ZM128.94 90.6675C130.745 89.6664 132.444 88.7259 134.128 87.7703C134.264 87.6945 134.355 87.4063 134.355 87.2091C134.37 85.6012 134.37 83.9934 134.37 82.3855C134.37 81.9305 134.37 81.4603 134.37 80.899C132.565 81.9001 130.851 82.8558 129.137 83.8114C129.031 83.872 128.94 84.0389 128.94 84.1754C128.94 86.299 128.94 88.4226 128.94 90.6675ZM127.317 90.622C127.347 90.4855 127.378 90.44 127.378 90.3793C127.378 88.3315 127.393 86.299 127.362 84.2512C127.362 84.0541 127.15 83.781 126.953 83.6748C125.451 82.8102 123.919 81.976 122.402 81.1266C122.281 81.0659 122.144 81.0204 121.962 80.9445C121.962 83.144 121.962 85.2524 121.978 87.3759C121.978 87.5125 122.099 87.7096 122.22 87.7703C123.889 88.7259 125.573 89.6512 127.317 90.622ZM133.551 79.5794C131.776 78.5934 130.108 77.6682 128.439 76.7581C128.303 76.6822 128.06 76.667 127.924 76.7429C126.24 77.653 124.556 78.5934 122.812 79.5642C123.024 79.7007 123.176 79.7917 123.328 79.8827C124.662 80.626 126.028 81.3237 127.332 82.1277C127.954 82.5069 128.394 82.4917 129.001 82.1125C130.472 81.2327 131.974 80.444 133.551 79.5794Z" fill="url(#paint3_linear_2013_131)"/>
<path d="M113.256 87.0274C113.286 86.7998 113.317 86.36 113.392 85.9352C113.483 85.4954 113.772 85.2375 114.242 85.283C114.682 85.3285 114.985 85.7077 114.909 86.1779C114.651 87.7706 114.955 89.2268 115.91 90.5313C116.199 90.9256 116.153 91.32 115.774 91.6386C115.425 91.9268 114.955 91.8358 114.636 91.411C113.711 90.1824 113.271 88.7869 113.256 87.0274Z" fill="url(#paint4_linear_2013_131)"/>
<path d="M128.94 70.6454C128.94 71.0246 128.955 71.4038 128.94 71.783C128.925 72.238 128.697 72.5414 128.212 72.5718C127.742 72.6021 127.438 72.3291 127.408 71.874C127.362 71.0701 127.378 70.251 127.408 69.4319C127.423 68.9768 127.742 68.6886 128.197 68.719C128.652 68.7493 128.91 69.0375 128.925 69.5077C128.94 69.9021 128.94 70.2813 128.94 70.6454Z" fill="url(#paint5_linear_2013_131)"/>
<path d="M131.61 69.9023C132.247 69.9023 132.656 70.5698 132.307 71.0248C131.898 71.5557 131.397 72.0411 130.866 72.4506C130.684 72.5871 130.199 72.5265 130.017 72.3748C129.835 72.2231 129.698 71.6922 129.805 71.5557C130.244 70.9793 130.806 70.4939 131.321 69.9782C131.397 69.9023 131.549 69.9175 131.61 69.9023Z" fill="url(#paint6_linear_2013_131)"/>
<path d="M125.845 72.5718C125.345 72.5718 124.283 71.51 124.298 71.0246C124.313 70.5089 124.92 70.0538 125.33 70.342C125.8 70.6606 126.24 71.0853 126.543 71.5707C126.816 72.0106 126.376 72.5718 125.845 72.5718Z" fill="url(#paint7_linear_2013_131)"/>
<defs>
<filter id="filter0_bd_2013_131" x="61.7872" y="23.7872" width="122.426" height="122.426" filterUnits="userSpaceOnUse" color-interpolation-filters="sRGB">
<feFlood flood-opacity="0" result="BackgroundImageFix"/>
<feGaussianBlur in="BackgroundImageFix" stdDeviation="13.1064"/>
<feComposite in2="SourceAlpha" operator="in" result="effect1_backgroundBlur_2013_131"/>
<feColorMatrix in="SourceAlpha" type="matrix" values="0 0 0 0 0 0 0 0 0 0 0 0 0 0 0 0 0 0 127 0" result="hardAlpha"/>
<feMorphology radius="0.873761" operator="erode" in="SourceAlpha" result="effect2_dropShadow_2013_131"/>
<feOffset dy="3.49504"/>
<feGaussianBlur stdDeviation="10.4851"/>
<feComposite in2="hardAlpha" operator="out"/>
<feColorMatrix type="matrix" values="0 0 0 0 0 0 0 0 0 0 0 0 0 0 0 0 0 0 0.2 0"/>
<feBlend mode="normal" in2="effect1_backgroundBlur_2013_131" result="effect2_dropShadow_2013_131"/>
<feBlend mode="normal" in="SourceGraphic" in2="effect2_dropShadow_2013_131" result="shape"/>
</filter>
<linearGradient id="paint0_linear_2013_131" x1="87.3402" y1="94.9115" x2="160.956" y2="112.978" gradientUnits="userSpaceOnUse">
<stop stop-color="#8A8A8A" stop-opacity="0.15"/>
<stop offset="0.626245" stop-color="#B8B8B8" stop-opacity="0.04"/>
</linearGradient>
<linearGradient id="paint1_linear_2013_131" x1="167.415" y1="-22.0861" x2="79.1911" y2="-26.9511" gradientUnits="userSpaceOnUse">
<stop stop-color="#ED6D1D"/>
<stop offset="0.404403" stop-color="#E50071"/>
<stop offset="1" stop-color="#7404BF"/>
</linearGradient>
<linearGradient id="paint2_linear_2013_131" x1="144.875" y1="10.7353" x2="100.512" y2="8.97372" gradientUnits="userSpaceOnUse">
<stop stop-color="#ED6D1D"/>
<stop offset="0.404403" stop-color="#E50071"/>
<stop offset="1" stop-color="#7404BF"/>
</linearGradient>
<linearGradient id="paint3_linear_2013_131" x1="138.037" y1="56.7611" x2="118.447" y2="55.8143" gradientUnits="userSpaceOnUse">
<stop stop-color="#ED6D1D"/>
<stop offset="0.404403" stop-color="#E50071"/>
<stop offset="1" stop-color="#7404BF"/>
</linearGradient>
<linearGradient id="paint4_linear_2013_131" x1="116.479" y1="78.5557" x2="112.89" y2="78.4696" gradientUnits="userSpaceOnUse">
<stop stop-color="#ED6D1D"/>
<stop offset="0.404403" stop-color="#E50071"/>
<stop offset="1" stop-color="#7404BF"/>
</linearGradient>
<linearGradient id="paint5_linear_2013_131" x1="129.157" y1="64.7446" x2="127.177" y2="64.7002" gradientUnits="userSpaceOnUse">
<stop stop-color="#ED6D1D"/>
<stop offset="0.404403" stop-color="#E50071"/>
<stop offset="1" stop-color="#7404BF"/>
</linearGradient>
<linearGradient id="paint6_linear_2013_131" x1="132.794" y1="67.1998" x2="129.432" y2="67.0113" gradientUnits="userSpaceOnUse">
<stop stop-color="#ED6D1D"/>
<stop offset="0.404403" stop-color="#E50071"/>
<stop offset="1" stop-color="#7404BF"/>
</linearGradient>
<linearGradient id="paint7_linear_2013_131" x1="126.94" y1="67.864" x2="124.005" y2="67.7015" gradientUnits="userSpaceOnUse">
<stop stop-color="#ED6D1D"/>
<stop offset="0.404403" stop-color="#E50071"/>
<stop offset="1" stop-color="#7404BF"/>
</linearGradient>
</defs>
</svg>
