<svg width="245" height="282" viewBox="0 0 245 282" fill="none" xmlns="http://www.w3.org/2000/svg">
<rect width="245" height="282" rx="9" fill="#FAF1F1"/>
<path d="M35.5203 160V148.8H39.8883C40.8696 148.8 41.707 148.955 42.4003 149.264C43.0936 149.573 43.627 150.021 44.0003 150.608C44.3736 151.195 44.5603 151.893 44.5603 152.704C44.5603 153.515 44.3736 154.213 44.0003 154.8C43.627 155.376 43.0936 155.824 42.4003 156.144C41.707 156.453 40.8696 156.608 39.8883 156.608H36.4003L37.1203 155.856V160H35.5203ZM37.1203 156.016L36.4003 155.216H39.8403C40.8643 155.216 41.6376 154.997 42.1603 154.56C42.6936 154.123 42.9603 153.504 42.9603 152.704C42.9603 151.904 42.6936 151.285 42.1603 150.848C41.6376 150.411 40.8643 150.192 39.8403 150.192H36.4003L37.1203 149.392V156.016ZM51.6328 160V158.208L51.5528 157.872V154.816C51.5528 154.165 51.3608 153.664 50.9768 153.312C50.6035 152.949 50.0381 152.768 49.2808 152.768C48.7795 152.768 48.2888 152.853 47.8088 153.024C47.3288 153.184 46.9235 153.403 46.5928 153.68L45.9528 152.528C46.3901 152.176 46.9128 151.909 47.5208 151.728C48.1395 151.536 48.7848 151.44 49.4568 151.44C50.6195 151.44 51.5155 151.723 52.1448 152.288C52.7741 152.853 53.0888 153.717 53.0888 154.88V160H51.6328ZM48.8488 160.096C48.2195 160.096 47.6648 159.989 47.1848 159.776C46.7155 159.563 46.3528 159.269 46.0968 158.896C45.8408 158.512 45.7128 158.08 45.7128 157.6C45.7128 157.141 45.8195 156.725 46.0328 156.352C46.2568 155.979 46.6141 155.68 47.1048 155.456C47.6061 155.232 48.2781 155.12 49.1208 155.12H51.8088V156.224H49.1848C48.4168 156.224 47.8995 156.352 47.6328 156.608C47.3661 156.864 47.2328 157.173 47.2328 157.536C47.2328 157.952 47.3981 158.288 47.7288 158.544C48.0595 158.789 48.5181 158.912 49.1048 158.912C49.6808 158.912 50.1821 158.784 50.6088 158.528C51.0461 158.272 51.3608 157.899 51.5528 157.408L51.8568 158.464C51.6541 158.965 51.2968 159.365 50.7848 159.664C50.2728 159.952 49.6275 160.096 48.8488 160.096ZM55.6913 160V151.52H57.1633V153.824L57.0193 153.248C57.254 152.661 57.6486 152.213 58.2033 151.904C58.758 151.595 59.4406 151.44 60.2513 151.44V152.928C60.1873 152.917 60.1233 152.912 60.0593 152.912C60.006 152.912 59.9526 152.912 59.8993 152.912C59.078 152.912 58.4273 153.157 57.9473 153.648C57.4673 154.139 57.2273 154.848 57.2273 155.776V160H55.6913ZM66.5434 160V158.208L66.4634 157.872V154.816C66.4634 154.165 66.2714 153.664 65.8874 153.312C65.5141 152.949 64.9488 152.768 64.1914 152.768C63.6901 152.768 63.1994 152.853 62.7194 153.024C62.2394 153.184 61.8341 153.403 61.5034 153.68L60.8634 152.528C61.3008 152.176 61.8234 151.909 62.4314 151.728C63.0501 151.536 63.6954 151.44 64.3674 151.44C65.5301 151.44 66.4261 151.723 67.0554 152.288C67.6848 152.853 67.9994 153.717 67.9994 154.88V160H66.5434ZM63.7594 160.096C63.1301 160.096 62.5754 159.989 62.0954 159.776C61.6261 159.563 61.2634 159.269 61.0074 158.896C60.7514 158.512 60.6234 158.08 60.6234 157.6C60.6234 157.141 60.7301 156.725 60.9434 156.352C61.1674 155.979 61.5248 155.68 62.0154 155.456C62.5168 155.232 63.1888 155.12 64.0314 155.12H66.7194V156.224H64.0954C63.3274 156.224 62.8101 156.352 62.5434 156.608C62.2768 156.864 62.1434 157.173 62.1434 157.536C62.1434 157.952 62.3088 158.288 62.6394 158.544C62.9701 158.789 63.4288 158.912 64.0154 158.912C64.5914 158.912 65.0928 158.784 65.5194 158.528C65.9568 158.272 66.2714 157.899 66.4634 157.408L66.7674 158.464C66.5648 158.965 66.2074 159.365 65.6954 159.664C65.1834 159.952 64.5381 160.096 63.7594 160.096ZM76.8828 160L73.1708 151.52H74.7708L78.0668 159.2H77.2988L80.6588 151.52H82.1628L78.4508 160H76.8828ZM86.7539 160.096C85.9006 160.096 85.1433 159.909 84.4819 159.536C83.8206 159.163 83.2979 158.651 82.9139 158C82.5299 157.339 82.3379 156.592 82.3379 155.76C82.3379 154.917 82.5299 154.171 82.9139 153.52C83.2979 152.869 83.8206 152.363 84.4819 152C85.1433 151.627 85.9006 151.44 86.7539 151.44C87.5966 151.44 88.3486 151.627 89.0099 152C89.6819 152.363 90.2046 152.869 90.5779 153.52C90.9619 154.16 91.1539 154.907 91.1539 155.76C91.1539 156.603 90.9619 157.349 90.5779 158C90.2046 158.651 89.6819 159.163 89.0099 159.536C88.3486 159.909 87.5966 160.096 86.7539 160.096ZM86.7539 158.752C87.2979 158.752 87.7833 158.629 88.2099 158.384C88.6473 158.139 88.9886 157.792 89.2339 157.344C89.4793 156.885 89.6019 156.357 89.6019 155.76C89.6019 155.152 89.4793 154.629 89.2339 154.192C88.9886 153.744 88.6473 153.397 88.2099 153.152C87.7833 152.907 87.2979 152.784 86.7539 152.784C86.2099 152.784 85.7246 152.907 85.2979 153.152C84.8713 153.397 84.5299 153.744 84.2739 154.192C84.0179 154.629 83.8899 155.152 83.8899 155.76C83.8899 156.357 84.0179 156.885 84.2739 157.344C84.5299 157.792 84.8713 158.139 85.2979 158.384C85.7246 158.629 86.2099 158.752 86.7539 158.752ZM96.7342 160.096C95.8702 160.096 95.0969 159.909 94.4142 159.536C93.7422 159.163 93.2142 158.651 92.8302 158C92.4462 157.349 92.2542 156.603 92.2542 155.76C92.2542 154.917 92.4462 154.171 92.8302 153.52C93.2142 152.869 93.7422 152.363 94.4142 152C95.0969 151.627 95.8702 151.44 96.7342 151.44C97.5022 151.44 98.1849 151.595 98.7822 151.904C99.3902 152.203 99.8595 152.651 100.19 153.248L99.0222 154C98.7449 153.584 98.4035 153.28 97.9982 153.088C97.6035 152.885 97.1769 152.784 96.7182 152.784C96.1635 152.784 95.6675 152.907 95.2302 153.152C94.7929 153.397 94.4462 153.744 94.1902 154.192C93.9342 154.629 93.8062 155.152 93.8062 155.76C93.8062 156.368 93.9342 156.896 94.1902 157.344C94.4462 157.792 94.7929 158.139 95.2302 158.384C95.6675 158.629 96.1635 158.752 96.7182 158.752C97.1769 158.752 97.6035 158.656 97.9982 158.464C98.4035 158.261 98.7449 157.952 99.0222 157.536L100.19 158.272C99.8595 158.859 99.3902 159.312 98.7822 159.632C98.1849 159.941 97.5022 160.096 96.7342 160.096ZM105.59 160.096C104.683 160.096 103.883 159.909 103.19 159.536C102.507 159.163 101.974 158.651 101.59 158C101.216 157.349 101.03 156.603 101.03 155.76C101.03 154.917 101.211 154.171 101.574 153.52C101.947 152.869 102.454 152.363 103.094 152C103.744 151.627 104.475 151.44 105.286 151.44C106.107 151.44 106.832 151.621 107.462 151.984C108.091 152.347 108.582 152.859 108.934 153.52C109.296 154.171 109.478 154.933 109.478 155.808C109.478 155.872 109.472 155.947 109.462 156.032C109.462 156.117 109.456 156.197 109.446 156.272H102.23V155.168H108.646L108.022 155.552C108.032 155.008 107.92 154.523 107.686 154.096C107.451 153.669 107.126 153.339 106.71 153.104C106.304 152.859 105.83 152.736 105.286 152.736C104.752 152.736 104.278 152.859 103.862 153.104C103.446 153.339 103.12 153.675 102.886 154.112C102.651 154.539 102.534 155.029 102.534 155.584V155.84C102.534 156.405 102.662 156.912 102.918 157.36C103.184 157.797 103.552 158.139 104.022 158.384C104.491 158.629 105.03 158.752 105.638 158.752C106.139 158.752 106.592 158.667 106.998 158.496C107.414 158.325 107.776 158.069 108.086 157.728L108.934 158.72C108.55 159.168 108.07 159.509 107.494 159.744C106.928 159.979 106.294 160.096 105.59 160.096ZM102.406 150.288L104.534 148.208H106.006L108.134 150.288H106.742L104.63 148.528H105.91L103.798 150.288H102.406ZM118.932 160.096C118.11 160.096 117.374 159.915 116.724 159.552C116.084 159.189 115.577 158.683 115.204 158.032C114.83 157.381 114.644 156.624 114.644 155.76C114.644 154.896 114.83 154.144 115.204 153.504C115.577 152.853 116.084 152.347 116.724 151.984C117.374 151.621 118.11 151.44 118.932 151.44C119.668 151.44 120.324 151.6 120.9 151.92C121.476 152.24 121.929 152.72 122.26 153.36C122.601 154 122.772 154.8 122.772 155.76C122.772 156.72 122.596 157.52 122.244 158.16C121.902 158.8 121.444 159.285 120.868 159.616C120.292 159.936 119.646 160.096 118.932 160.096ZM119.06 158.752C119.593 158.752 120.073 158.629 120.5 158.384C120.937 158.139 121.278 157.792 121.524 157.344C121.78 156.885 121.908 156.357 121.908 155.76C121.908 155.152 121.78 154.629 121.524 154.192C121.278 153.744 120.937 153.397 120.5 153.152C120.073 152.907 119.593 152.784 119.06 152.784C118.516 152.784 118.03 152.907 117.604 153.152C117.177 153.397 116.836 153.744 116.58 154.192C116.324 154.629 116.196 155.152 116.196 155.76C116.196 156.357 116.324 156.885 116.58 157.344C116.836 157.792 117.177 158.139 117.604 158.384C118.03 158.629 118.516 158.752 119.06 158.752ZM121.892 163.104V157.744L122.052 155.776L121.956 153.808V151.52H123.428V163.104H121.892ZM129.662 160.096C128.936 160.096 128.296 159.963 127.742 159.696C127.198 159.429 126.771 159.024 126.462 158.48C126.163 157.925 126.014 157.232 126.014 156.4V151.52H127.55V156.224C127.55 157.056 127.747 157.68 128.142 158.096C128.547 158.512 129.112 158.72 129.838 158.72C130.371 158.72 130.835 158.613 131.23 158.4C131.624 158.176 131.928 157.856 132.142 157.44C132.355 157.013 132.462 156.501 132.462 155.904V151.52H133.998V160H132.542V157.712L132.782 158.32C132.504 158.885 132.088 159.323 131.534 159.632C130.979 159.941 130.355 160.096 129.662 160.096ZM140.458 160.096C139.551 160.096 138.751 159.909 138.058 159.536C137.375 159.163 136.842 158.651 136.458 158C136.085 157.349 135.898 156.603 135.898 155.76C135.898 154.917 136.079 154.171 136.442 153.52C136.815 152.869 137.322 152.363 137.962 152C138.613 151.627 139.343 151.44 140.154 151.44C140.975 151.44 141.701 151.621 142.33 151.984C142.959 152.347 143.45 152.859 143.802 153.52C144.165 154.171 144.346 154.933 144.346 155.808C144.346 155.872 144.341 155.947 144.33 156.032C144.33 156.117 144.325 156.197 144.314 156.272H137.098V155.168H143.514L142.89 155.552C142.901 155.008 142.789 154.523 142.554 154.096C142.319 153.669 141.994 153.339 141.578 153.104C141.173 152.859 140.698 152.736 140.154 152.736C139.621 152.736 139.146 152.859 138.73 153.104C138.314 153.339 137.989 153.675 137.754 154.112C137.519 154.539 137.402 155.029 137.402 155.584V155.84C137.402 156.405 137.53 156.912 137.786 157.36C138.053 157.797 138.421 158.139 138.89 158.384C139.359 158.629 139.898 158.752 140.506 158.752C141.007 158.752 141.461 158.667 141.866 158.496C142.282 158.325 142.645 158.069 142.954 157.728L143.802 158.72C143.418 159.168 142.938 159.509 142.362 159.744C141.797 159.979 141.162 160.096 140.458 160.096ZM154.072 160.096C153.165 160.096 152.365 159.909 151.672 159.536C150.989 159.163 150.456 158.651 150.072 158C149.698 157.349 149.512 156.603 149.512 155.76C149.512 154.917 149.693 154.171 150.056 153.52C150.429 152.869 150.936 152.363 151.576 152C152.226 151.627 152.957 151.44 153.768 151.44C154.589 151.44 155.314 151.621 155.944 151.984C156.573 152.347 157.064 152.859 157.416 153.52C157.778 154.171 157.96 154.933 157.96 155.808C157.96 155.872 157.954 155.947 157.944 156.032C157.944 156.117 157.938 156.197 157.928 156.272H150.712V155.168H157.128L156.504 155.552C156.514 155.008 156.402 154.523 156.168 154.096C155.933 153.669 155.608 153.339 155.192 153.104C154.786 152.859 154.312 152.736 153.768 152.736C153.234 152.736 152.76 152.859 152.344 153.104C151.928 153.339 151.602 153.675 151.368 154.112C151.133 154.539 151.016 155.029 151.016 155.584V155.84C151.016 156.405 151.144 156.912 151.4 157.36C151.666 157.797 152.034 158.139 152.504 158.384C152.973 158.629 153.512 158.752 154.12 158.752C154.621 158.752 155.074 158.667 155.48 158.496C155.896 158.325 156.258 158.069 156.568 157.728L157.416 158.72C157.032 159.168 156.552 159.509 155.976 159.744C155.41 159.979 154.776 160.096 154.072 160.096ZM162.285 160.096C161.581 160.096 160.909 160 160.269 159.808C159.639 159.616 159.143 159.381 158.781 159.104L159.421 157.888C159.783 158.133 160.231 158.341 160.765 158.512C161.298 158.683 161.842 158.768 162.397 158.768C163.111 158.768 163.623 158.667 163.933 158.464C164.253 158.261 164.413 157.979 164.413 157.616C164.413 157.349 164.317 157.141 164.125 156.992C163.933 156.843 163.677 156.731 163.357 156.656C163.047 156.581 162.701 156.517 162.317 156.464C161.933 156.4 161.549 156.325 161.165 156.24C160.781 156.144 160.429 156.016 160.109 155.856C159.789 155.685 159.533 155.456 159.341 155.168C159.149 154.869 159.053 154.475 159.053 153.984C159.053 153.472 159.197 153.024 159.485 152.64C159.773 152.256 160.178 151.963 160.701 151.76C161.234 151.547 161.863 151.44 162.589 151.44C163.143 151.44 163.703 151.509 164.269 151.648C164.845 151.776 165.314 151.963 165.677 152.208L165.021 153.424C164.637 153.168 164.237 152.992 163.821 152.896C163.405 152.8 162.989 152.752 162.573 152.752C161.901 152.752 161.399 152.864 161.069 153.088C160.738 153.301 160.573 153.579 160.573 153.92C160.573 154.208 160.669 154.432 160.861 154.592C161.063 154.741 161.319 154.859 161.629 154.944C161.949 155.029 162.301 155.104 162.685 155.168C163.069 155.221 163.453 155.296 163.837 155.392C164.221 155.477 164.567 155.6 164.877 155.76C165.197 155.92 165.453 156.144 165.645 156.432C165.847 156.72 165.949 157.104 165.949 157.584C165.949 158.096 165.799 158.539 165.501 158.912C165.202 159.285 164.781 159.579 164.237 159.792C163.693 159.995 163.042 160.096 162.285 160.096ZM170.54 160.096C169.687 160.096 169.026 159.867 168.556 159.408C168.087 158.949 167.852 158.293 167.852 157.44V149.664H169.388V157.376C169.388 157.835 169.5 158.187 169.724 158.432C169.959 158.677 170.29 158.8 170.716 158.8C171.196 158.8 171.596 158.667 171.916 158.4L172.396 159.504C172.162 159.707 171.879 159.856 171.548 159.952C171.228 160.048 170.892 160.096 170.54 160.096ZM166.412 152.784V151.52H171.82V152.784H166.412ZM179.277 160V158.208L179.197 157.872V154.816C179.197 154.165 179.005 153.664 178.621 153.312C178.248 152.949 177.683 152.768 176.925 152.768C176.424 152.768 175.933 152.853 175.453 153.024C174.973 153.184 174.568 153.403 174.237 153.68L173.597 152.528C174.035 152.176 174.557 151.909 175.165 151.728C175.784 151.536 176.429 151.44 177.101 151.44C178.264 151.44 179.16 151.723 179.789 152.288C180.419 152.853 180.733 153.717 180.733 154.88V160H179.277ZM176.493 160.096C175.864 160.096 175.309 159.989 174.829 159.776C174.36 159.563 173.997 159.269 173.741 158.896C173.485 158.512 173.357 158.08 173.357 157.6C173.357 157.141 173.464 156.725 173.677 156.352C173.901 155.979 174.259 155.68 174.749 155.456C175.251 155.232 175.923 155.12 176.765 155.12H179.453V156.224H176.829C176.061 156.224 175.544 156.352 175.277 156.608C175.011 156.864 174.877 157.173 174.877 157.536C174.877 157.952 175.043 158.288 175.373 158.544C175.704 158.789 176.163 158.912 176.749 158.912C177.325 158.912 177.827 158.784 178.253 158.528C178.691 158.272 179.005 157.899 179.197 157.408L179.501 158.464C179.299 158.965 178.941 159.365 178.429 159.664C177.917 159.952 177.272 160.096 176.493 160.096ZM176.013 150.288L178.189 148.208H180.141L177.453 150.288H176.013ZM191.169 160.096C190.262 160.096 189.462 159.909 188.769 159.536C188.086 159.163 187.553 158.651 187.169 158C186.795 157.349 186.609 156.603 186.609 155.76C186.609 154.917 186.79 154.171 187.153 153.52C187.526 152.869 188.033 152.363 188.673 152C189.323 151.627 190.054 151.44 190.865 151.44C191.686 151.44 192.411 151.621 193.041 151.984C193.67 152.347 194.161 152.859 194.513 153.52C194.875 154.171 195.057 154.933 195.057 155.808C195.057 155.872 195.051 155.947 195.041 156.032C195.041 156.117 195.035 156.197 195.025 156.272H187.809V155.168H194.225L193.601 155.552C193.611 155.008 193.499 154.523 193.265 154.096C193.03 153.669 192.705 153.339 192.289 153.104C191.883 152.859 191.409 152.736 190.865 152.736C190.331 152.736 189.857 152.859 189.441 153.104C189.025 153.339 188.699 153.675 188.465 154.112C188.23 154.539 188.113 155.029 188.113 155.584V155.84C188.113 156.405 188.241 156.912 188.497 157.36C188.763 157.797 189.131 158.139 189.601 158.384C190.07 158.629 190.609 158.752 191.217 158.752C191.718 158.752 192.171 158.667 192.577 158.496C192.993 158.325 193.355 158.069 193.665 157.728L194.513 158.72C194.129 159.168 193.649 159.509 193.073 159.744C192.507 159.979 191.873 160.096 191.169 160.096ZM207.557 151.44C208.24 151.44 208.843 151.573 209.365 151.84C209.888 152.107 210.293 152.512 210.581 153.056C210.88 153.6 211.029 154.288 211.029 155.12V160H209.493V155.296C209.493 154.475 209.301 153.856 208.917 153.44C208.533 153.024 207.995 152.816 207.301 152.816C206.789 152.816 206.341 152.923 205.957 153.136C205.573 153.349 205.275 153.664 205.061 154.08C204.859 154.496 204.757 155.013 204.757 155.632V160H203.221V155.296C203.221 154.475 203.029 153.856 202.645 153.44C202.272 153.024 201.733 152.816 201.029 152.816C200.528 152.816 200.085 152.923 199.701 153.136C199.317 153.349 199.019 153.664 198.805 154.08C198.592 154.496 198.485 155.013 198.485 155.632V160H196.949V151.52H198.421V153.776L198.181 153.2C198.448 152.645 198.859 152.213 199.413 151.904C199.968 151.595 200.613 151.44 201.349 151.44C202.16 151.44 202.859 151.643 203.445 152.048C204.032 152.443 204.416 153.045 204.597 153.856L203.973 153.6C204.229 152.949 204.677 152.427 205.317 152.032C205.957 151.637 206.704 151.44 207.557 151.44ZM47.4008 187.096C46.5475 187.096 45.8861 186.867 45.4168 186.408C44.9475 185.949 44.7128 185.293 44.7128 184.44V176.664H46.2488V184.376C46.2488 184.835 46.3608 185.187 46.5848 185.432C46.8195 185.677 47.1501 185.8 47.5768 185.8C48.0568 185.8 48.4568 185.667 48.7768 185.4L49.2568 186.504C49.0221 186.707 48.7395 186.856 48.4088 186.952C48.0888 187.048 47.7528 187.096 47.4008 187.096ZM43.2728 179.784V178.52H48.6808V179.784H43.2728ZM50.8738 187V178.52H52.3458V180.824L52.2018 180.248C52.4365 179.661 52.8311 179.213 53.3858 178.904C53.9405 178.595 54.6231 178.44 55.4338 178.44V179.928C55.3698 179.917 55.3058 179.912 55.2418 179.912C55.1885 179.912 55.1351 179.912 55.0818 179.912C54.2605 179.912 53.6098 180.157 53.1298 180.648C52.6498 181.139 52.4098 181.848 52.4098 182.776V187H50.8738ZM61.7259 187V185.208L61.6459 184.872V181.816C61.6459 181.165 61.4539 180.664 61.0699 180.312C60.6966 179.949 60.1313 179.768 59.3739 179.768C58.8726 179.768 58.3819 179.853 57.9019 180.024C57.4219 180.184 57.0166 180.403 56.6859 180.68L56.0459 179.528C56.4833 179.176 57.0059 178.909 57.6139 178.728C58.2326 178.536 58.8779 178.44 59.5499 178.44C60.7126 178.44 61.6086 178.723 62.2379 179.288C62.8673 179.853 63.1819 180.717 63.1819 181.88V187H61.7259ZM58.9419 187.096C58.3126 187.096 57.7579 186.989 57.2779 186.776C56.8086 186.563 56.4459 186.269 56.1899 185.896C55.9339 185.512 55.8059 185.08 55.8059 184.6C55.8059 184.141 55.9126 183.725 56.1259 183.352C56.3499 182.979 56.7073 182.68 57.1979 182.456C57.6993 182.232 58.3713 182.12 59.2139 182.12H61.9019V183.224H59.2779C58.5099 183.224 57.9926 183.352 57.7259 183.608C57.4593 183.864 57.3259 184.173 57.3259 184.536C57.3259 184.952 57.4913 185.288 57.8219 185.544C58.1526 185.789 58.6113 185.912 59.1979 185.912C59.7739 185.912 60.2753 185.784 60.7019 185.528C61.1393 185.272 61.4539 184.899 61.6459 184.408L61.9499 185.464C61.7473 185.965 61.3899 186.365 60.8779 186.664C60.3659 186.952 59.7206 187.096 58.9419 187.096ZM70.3124 178.44C71.0058 178.44 71.6138 178.573 72.1364 178.84C72.6698 179.107 73.0858 179.512 73.3844 180.056C73.6831 180.6 73.8324 181.288 73.8324 182.12V187H72.2964V182.296C72.2964 181.475 72.0938 180.856 71.6884 180.44C71.2938 180.024 70.7338 179.816 70.0084 179.816C69.4644 179.816 68.9898 179.923 68.5844 180.136C68.1791 180.349 67.8644 180.664 67.6404 181.08C67.4271 181.496 67.3204 182.013 67.3204 182.632V187H65.7844V178.52H67.2564V180.808L67.0164 180.2C67.2938 179.645 67.7204 179.213 68.2964 178.904C68.8724 178.595 69.5444 178.44 70.3124 178.44ZM78.8671 187.096C78.1631 187.096 77.4911 187 76.8511 186.808C76.2217 186.616 75.7257 186.381 75.3631 186.104L76.0031 184.888C76.3657 185.133 76.8137 185.341 77.3471 185.512C77.8804 185.683 78.4244 185.768 78.9791 185.768C79.6937 185.768 80.2057 185.667 80.5151 185.464C80.8351 185.261 80.9951 184.979 80.9951 184.616C80.9951 184.349 80.8991 184.141 80.7071 183.992C80.5151 183.843 80.2591 183.731 79.9391 183.656C79.6297 183.581 79.2831 183.517 78.8991 183.464C78.5151 183.4 78.1311 183.325 77.7471 183.24C77.3631 183.144 77.0111 183.016 76.6911 182.856C76.3711 182.685 76.1151 182.456 75.9231 182.168C75.7311 181.869 75.6351 181.475 75.6351 180.984C75.6351 180.472 75.7791 180.024 76.0671 179.64C76.3551 179.256 76.7604 178.963 77.2831 178.76C77.8164 178.547 78.4457 178.44 79.1711 178.44C79.7257 178.44 80.2857 178.509 80.8511 178.648C81.4271 178.776 81.8964 178.963 82.2591 179.208L81.6031 180.424C81.2191 180.168 80.8191 179.992 80.4031 179.896C79.9871 179.8 79.5711 179.752 79.1551 179.752C78.4831 179.752 77.9817 179.864 77.6511 180.088C77.3204 180.301 77.1551 180.579 77.1551 180.92C77.1551 181.208 77.2511 181.432 77.4431 181.592C77.6457 181.741 77.9017 181.859 78.2111 181.944C78.5311 182.029 78.8831 182.104 79.2671 182.168C79.6511 182.221 80.0351 182.296 80.4191 182.392C80.8031 182.477 81.1497 182.6 81.4591 182.76C81.7791 182.92 82.0351 183.144 82.2271 183.432C82.4297 183.72 82.5311 184.104 82.5311 184.584C82.5311 185.096 82.3817 185.539 82.0831 185.912C81.7844 186.285 81.3631 186.579 80.8191 186.792C80.2751 186.995 79.6244 187.096 78.8671 187.096ZM84.2107 187V178.52H85.7467V187H84.2107ZM84.9787 176.888C84.68 176.888 84.4294 176.792 84.2267 176.6C84.0347 176.408 83.9387 176.173 83.9387 175.896C83.9387 175.608 84.0347 175.368 84.2267 175.176C84.4294 174.984 84.68 174.888 84.9787 174.888C85.2774 174.888 85.5227 174.984 85.7147 175.176C85.9174 175.357 86.0187 175.587 86.0187 175.864C86.0187 176.152 85.9227 176.397 85.7307 176.6C85.5387 176.792 85.288 176.888 84.9787 176.888ZM92.1354 187.096C91.2714 187.096 90.4981 186.909 89.8154 186.536C89.1434 186.163 88.6154 185.651 88.2314 185C87.8474 184.349 87.6554 183.603 87.6554 182.76C87.6554 181.917 87.8474 181.171 88.2314 180.52C88.6154 179.869 89.1434 179.363 89.8154 179C90.4981 178.627 91.2714 178.44 92.1354 178.44C92.9034 178.44 93.5861 178.595 94.1834 178.904C94.7914 179.203 95.2608 179.651 95.5914 180.248L94.4234 181C94.1461 180.584 93.8048 180.28 93.3994 180.088C93.0048 179.885 92.5781 179.784 92.1194 179.784C91.5648 179.784 91.0688 179.907 90.6314 180.152C90.1941 180.397 89.8474 180.744 89.5914 181.192C89.3354 181.629 89.2074 182.152 89.2074 182.76C89.2074 183.368 89.3354 183.896 89.5914 184.344C89.8474 184.792 90.1941 185.139 90.6314 185.384C91.0688 185.629 91.5648 185.752 92.1194 185.752C92.5781 185.752 93.0048 185.656 93.3994 185.464C93.8048 185.261 94.1461 184.952 94.4234 184.536L95.5914 185.272C95.2608 185.859 94.7914 186.312 94.1834 186.632C93.5861 186.941 92.9034 187.096 92.1354 187.096ZM91.3834 190.584C91.1061 190.584 90.8501 190.552 90.6154 190.488C90.3808 190.435 90.1621 190.349 89.9594 190.232L90.2954 189.448C90.4661 189.544 90.6368 189.613 90.8074 189.656C90.9888 189.699 91.1808 189.72 91.3834 189.72C91.6928 189.72 91.9168 189.661 92.0554 189.544C92.2048 189.437 92.2794 189.283 92.2794 189.08C92.2794 188.888 92.2048 188.733 92.0554 188.616C91.9168 188.509 91.6874 188.456 91.3674 188.456H90.9354L91.3354 186.888H92.2154L91.9754 187.8C92.4341 187.843 92.7808 187.987 93.0154 188.232C93.2501 188.477 93.3674 188.776 93.3674 189.128C93.3674 189.576 93.1861 189.928 92.8234 190.184C92.4608 190.451 91.9808 190.584 91.3834 190.584ZM102.604 187V185.208L102.524 184.872V181.816C102.524 181.165 102.332 180.664 101.948 180.312C101.575 179.949 101.009 179.768 100.252 179.768C99.7507 179.768 99.2601 179.853 98.7801 180.024C98.3001 180.184 97.8947 180.403 97.5641 180.68L96.9241 179.528C97.3614 179.176 97.8841 178.909 98.4921 178.728C99.1107 178.536 99.7561 178.44 100.428 178.44C101.591 178.44 102.487 178.723 103.116 179.288C103.745 179.853 104.06 180.717 104.06 181.88V187H102.604ZM99.8201 187.096C99.1907 187.096 98.6361 186.989 98.1561 186.776C97.6867 186.563 97.3241 186.269 97.0681 185.896C96.8121 185.512 96.6841 185.08 96.6841 184.6C96.6841 184.141 96.7907 183.725 97.0041 183.352C97.2281 182.979 97.5854 182.68 98.0761 182.456C98.5774 182.232 99.2494 182.12 100.092 182.12H102.78V183.224H100.156C99.3881 183.224 98.8707 183.352 98.6041 183.608C98.3374 183.864 98.2041 184.173 98.2041 184.536C98.2041 184.952 98.3694 185.288 98.7001 185.544C99.0307 185.789 99.4894 185.912 100.076 185.912C100.652 185.912 101.153 185.784 101.58 185.528C102.017 185.272 102.332 184.899 102.524 184.408L102.828 185.464C102.625 185.965 102.268 186.365 101.756 186.664C101.244 186.952 100.599 187.096 99.8201 187.096ZM101.66 177.24C101.404 177.24 101.175 177.187 100.972 177.08C100.78 176.973 100.604 176.851 100.444 176.712C100.284 176.563 100.129 176.435 99.9801 176.328C99.8307 176.221 99.6814 176.168 99.5321 176.168C99.2974 176.168 99.1054 176.259 98.9561 176.44C98.8174 176.611 98.7374 176.851 98.7161 177.16H97.8521C97.8734 176.563 98.0227 176.088 98.3001 175.736C98.5774 175.384 98.9507 175.208 99.4201 175.208C99.6761 175.208 99.9054 175.267 100.108 175.384C100.311 175.491 100.492 175.619 100.652 175.768C100.812 175.907 100.961 176.029 101.1 176.136C101.249 176.243 101.399 176.296 101.548 176.296C101.783 176.296 101.975 176.211 102.124 176.04C102.273 175.869 102.353 175.635 102.364 175.336H103.228C103.217 175.901 103.068 176.36 102.78 176.712C102.503 177.064 102.129 177.24 101.66 177.24ZM110.295 187.096C109.441 187.096 108.684 186.909 108.023 186.536C107.361 186.163 106.839 185.651 106.455 185C106.071 184.339 105.879 183.592 105.879 182.76C105.879 181.917 106.071 181.171 106.455 180.52C106.839 179.869 107.361 179.363 108.023 179C108.684 178.627 109.441 178.44 110.295 178.44C111.137 178.44 111.889 178.627 112.551 179C113.223 179.363 113.745 179.869 114.119 180.52C114.503 181.16 114.695 181.907 114.695 182.76C114.695 183.603 114.503 184.349 114.119 185C113.745 185.651 113.223 186.163 112.551 186.536C111.889 186.909 111.137 187.096 110.295 187.096ZM110.295 185.752C110.839 185.752 111.324 185.629 111.751 185.384C112.188 185.139 112.529 184.792 112.775 184.344C113.02 183.885 113.143 183.357 113.143 182.76C113.143 182.152 113.02 181.629 112.775 181.192C112.529 180.744 112.188 180.397 111.751 180.152C111.324 179.907 110.839 179.784 110.295 179.784C109.751 179.784 109.265 179.907 108.839 180.152C108.412 180.397 108.071 180.744 107.815 181.192C107.559 181.629 107.431 182.152 107.431 182.76C107.431 183.357 107.559 183.885 107.815 184.344C108.071 184.792 108.412 185.139 108.839 185.384C109.265 185.629 109.751 185.752 110.295 185.752ZM124.14 187.096C123.318 187.096 122.582 186.915 121.932 186.552C121.292 186.189 120.785 185.683 120.412 185.032C120.038 184.381 119.852 183.624 119.852 182.76C119.852 181.896 120.038 181.144 120.412 180.504C120.785 179.853 121.292 179.347 121.932 178.984C122.582 178.621 123.318 178.44 124.14 178.44C124.854 178.44 125.5 178.6 126.076 178.92C126.652 179.24 127.11 179.72 127.452 180.36C127.804 181 127.98 181.8 127.98 182.76C127.98 183.72 127.809 184.52 127.468 185.16C127.137 185.8 126.684 186.285 126.108 186.616C125.532 186.936 124.876 187.096 124.14 187.096ZM124.268 185.752C124.801 185.752 125.281 185.629 125.708 185.384C126.145 185.139 126.486 184.792 126.732 184.344C126.988 183.885 127.116 183.357 127.116 182.76C127.116 182.152 126.988 181.629 126.732 181.192C126.486 180.744 126.145 180.397 125.708 180.152C125.281 179.907 124.801 179.784 124.268 179.784C123.724 179.784 123.238 179.907 122.812 180.152C122.385 180.397 122.044 180.744 121.788 181.192C121.532 181.629 121.404 182.152 121.404 182.76C121.404 183.357 121.532 183.885 121.788 184.344C122.044 184.792 122.385 185.139 122.812 185.384C123.238 185.629 123.724 185.752 124.268 185.752ZM127.164 187V184.712L127.26 182.744L127.1 180.776V175.128H128.636V187H127.164ZM135.078 187.096C134.171 187.096 133.371 186.909 132.678 186.536C131.995 186.163 131.462 185.651 131.078 185C130.705 184.349 130.518 183.603 130.518 182.76C130.518 181.917 130.699 181.171 131.062 180.52C131.435 179.869 131.942 179.363 132.582 179C133.233 178.627 133.963 178.44 134.774 178.44C135.595 178.44 136.321 178.621 136.95 178.984C137.579 179.347 138.07 179.859 138.422 180.52C138.785 181.171 138.966 181.933 138.966 182.808C138.966 182.872 138.961 182.947 138.95 183.032C138.95 183.117 138.945 183.197 138.934 183.272H131.718V182.168H138.134L137.51 182.552C137.521 182.008 137.409 181.523 137.174 181.096C136.939 180.669 136.614 180.339 136.198 180.104C135.793 179.859 135.318 179.736 134.774 179.736C134.241 179.736 133.766 179.859 133.35 180.104C132.934 180.339 132.609 180.675 132.374 181.112C132.139 181.539 132.022 182.029 132.022 182.584V182.84C132.022 183.405 132.15 183.912 132.406 184.36C132.673 184.797 133.041 185.139 133.51 185.384C133.979 185.629 134.518 185.752 135.126 185.752C135.627 185.752 136.081 185.667 136.486 185.496C136.902 185.325 137.265 185.069 137.574 184.728L138.422 185.72C138.038 186.168 137.558 186.509 136.982 186.744C136.417 186.979 135.782 187.096 135.078 187.096ZM148.612 187.096C147.748 187.096 146.974 186.909 146.292 186.536C145.62 186.163 145.092 185.651 144.708 185C144.324 184.349 144.132 183.603 144.132 182.76C144.132 181.917 144.324 181.171 144.708 180.52C145.092 179.869 145.62 179.363 146.292 179C146.974 178.627 147.748 178.44 148.612 178.44C149.38 178.44 150.062 178.595 150.66 178.904C151.268 179.203 151.737 179.651 152.068 180.248L150.9 181C150.622 180.584 150.281 180.28 149.876 180.088C149.481 179.885 149.054 179.784 148.596 179.784C148.041 179.784 147.545 179.907 147.108 180.152C146.67 180.397 146.324 180.744 146.068 181.192C145.812 181.629 145.684 182.152 145.684 182.76C145.684 183.368 145.812 183.896 146.068 184.344C146.324 184.792 146.67 185.139 147.108 185.384C147.545 185.629 148.041 185.752 148.596 185.752C149.054 185.752 149.481 185.656 149.876 185.464C150.281 185.261 150.622 184.952 150.9 184.536L152.068 185.272C151.737 185.859 151.268 186.312 150.66 186.632C150.062 186.941 149.38 187.096 148.612 187.096ZM159.08 187V185.208L159 184.872V181.816C159 181.165 158.808 180.664 158.424 180.312C158.051 179.949 157.486 179.768 156.728 179.768C156.227 179.768 155.736 179.853 155.256 180.024C154.776 180.184 154.371 180.403 154.04 180.68L153.4 179.528C153.838 179.176 154.36 178.909 154.968 178.728C155.587 178.536 156.232 178.44 156.904 178.44C158.067 178.44 158.963 178.723 159.592 179.288C160.222 179.853 160.536 180.717 160.536 181.88V187H159.08ZM156.296 187.096C155.667 187.096 155.112 186.989 154.632 186.776C154.163 186.563 153.8 186.269 153.544 185.896C153.288 185.512 153.16 185.08 153.16 184.6C153.16 184.141 153.267 183.725 153.48 183.352C153.704 182.979 154.062 182.68 154.552 182.456C155.054 182.232 155.726 182.12 156.568 182.12H159.256V183.224H156.632C155.864 183.224 155.347 183.352 155.08 183.608C154.814 183.864 154.68 184.173 154.68 184.536C154.68 184.952 154.846 185.288 155.176 185.544C155.507 185.789 155.966 185.912 156.552 185.912C157.128 185.912 157.63 185.784 158.056 185.528C158.494 185.272 158.808 184.899 159 184.408L159.304 185.464C159.102 185.965 158.744 186.365 158.232 186.664C157.72 186.952 157.075 187.096 156.296 187.096ZM163.139 187V178.52H164.611V180.824L164.467 180.248C164.701 179.661 165.096 179.213 165.651 178.904C166.205 178.595 166.888 178.44 167.699 178.44V179.928C167.635 179.917 167.571 179.912 167.507 179.912C167.453 179.912 167.4 179.912 167.347 179.912C166.525 179.912 165.875 180.157 165.395 180.648C164.915 181.139 164.675 181.848 164.675 182.776V187H163.139ZM169.352 187V178.52H170.824V180.824L170.68 180.248C170.915 179.661 171.309 179.213 171.864 178.904C172.419 178.595 173.101 178.44 173.912 178.44V179.928C173.848 179.917 173.784 179.912 173.72 179.912C173.667 179.912 173.613 179.912 173.56 179.912C172.739 179.912 172.088 180.157 171.608 180.648C171.128 181.139 170.888 181.848 170.888 182.776V187H169.352ZM179.263 187.096C178.356 187.096 177.556 186.909 176.863 186.536C176.18 186.163 175.647 185.651 175.263 185C174.89 184.349 174.703 183.603 174.703 182.76C174.703 181.917 174.884 181.171 175.247 180.52C175.62 179.869 176.127 179.363 176.767 179C177.418 178.627 178.148 178.44 178.959 178.44C179.78 178.44 180.506 178.621 181.135 178.984C181.764 179.347 182.255 179.859 182.607 180.52C182.97 181.171 183.151 181.933 183.151 182.808C183.151 182.872 183.146 182.947 183.135 183.032C183.135 183.117 183.13 183.197 183.119 183.272H175.903V182.168H182.319L181.695 182.552C181.706 182.008 181.594 181.523 181.359 181.096C181.124 180.669 180.799 180.339 180.383 180.104C179.978 179.859 179.503 179.736 178.959 179.736C178.426 179.736 177.951 179.859 177.535 180.104C177.119 180.339 176.794 180.675 176.559 181.112C176.324 181.539 176.207 182.029 176.207 182.584V182.84C176.207 183.405 176.335 183.912 176.591 184.36C176.858 184.797 177.226 185.139 177.695 185.384C178.164 185.629 178.703 185.752 179.311 185.752C179.812 185.752 180.266 185.667 180.671 185.496C181.087 185.325 181.45 185.069 181.759 184.728L182.607 185.72C182.223 186.168 181.743 186.509 181.167 186.744C180.602 186.979 179.967 187.096 179.263 187.096ZM185.044 187V178.52H186.58V187H185.044ZM185.812 176.888C185.513 176.888 185.262 176.792 185.06 176.6C184.868 176.408 184.772 176.173 184.772 175.896C184.772 175.608 184.868 175.368 185.06 175.176C185.262 174.984 185.513 174.888 185.812 174.888C186.11 174.888 186.356 174.984 186.548 175.176C186.75 175.357 186.852 175.587 186.852 175.864C186.852 176.152 186.756 176.397 186.564 176.6C186.372 176.792 186.121 176.888 185.812 176.888ZM189.273 187V178.52H190.745V180.824L190.601 180.248C190.835 179.661 191.23 179.213 191.785 178.904C192.339 178.595 193.022 178.44 193.833 178.44V179.928C193.769 179.917 193.705 179.912 193.641 179.912C193.587 179.912 193.534 179.912 193.481 179.912C192.659 179.912 192.009 180.157 191.529 180.648C191.049 181.139 190.809 181.848 190.809 182.776V187H189.273ZM200.125 187V185.208L200.045 184.872V181.816C200.045 181.165 199.853 180.664 199.469 180.312C199.095 179.949 198.53 179.768 197.773 179.768C197.271 179.768 196.781 179.853 196.301 180.024C195.821 180.184 195.415 180.403 195.085 180.68L194.445 179.528C194.882 179.176 195.405 178.909 196.013 178.728C196.631 178.536 197.277 178.44 197.949 178.44C199.111 178.44 200.007 178.723 200.637 179.288C201.266 179.853 201.581 180.717 201.581 181.88V187H200.125ZM197.341 187.096C196.711 187.096 196.157 186.989 195.677 186.776C195.207 186.563 194.845 186.269 194.589 185.896C194.333 185.512 194.205 185.08 194.205 184.6C194.205 184.141 194.311 183.725 194.525 183.352C194.749 182.979 195.106 182.68 195.597 182.456C196.098 182.232 196.77 182.12 197.613 182.12H200.301V183.224H197.677C196.909 183.224 196.391 183.352 196.125 183.608C195.858 183.864 195.725 184.173 195.725 184.536C195.725 184.952 195.89 185.288 196.221 185.544C196.551 185.789 197.01 185.912 197.597 185.912C198.173 185.912 198.674 185.784 199.101 185.528C199.538 185.272 199.853 184.899 200.045 184.408L200.349 185.464C200.146 185.965 199.789 186.365 199.277 186.664C198.765 186.952 198.119 187.096 197.341 187.096Z" fill="#212121"/>
<g filter="url(#filter0_bd_2013_103)">
<rect x="88" y="50" width="70" height="70" rx="17.4752" fill="url(#paint0_linear_2013_103)" shape-rendering="crispEdges"/>
<rect x="88.4369" y="50.4369" width="69.1262" height="69.1262" rx="17.0383" stroke="url(#paint1_linear_2013_103)" stroke-width="0.873761" shape-rendering="crispEdges"/>
</g>
<path d="M104.179 81.8424C103.885 81.5487 103.72 81.1504 103.72 80.735C103.72 80.3197 103.885 79.9213 104.179 79.6276L118.733 65.0699L118.952 64.885C119.254 64.6778 119.619 64.5828 119.984 64.6165C120.348 64.6503 120.689 64.8107 120.948 65.0699L121.13 65.2892C121.338 65.5911 121.433 65.9563 121.4 66.3213C121.367 66.6864 121.207 67.0283 120.948 67.2878L109.069 79.1671H143.795C144.21 79.1671 144.609 79.3321 144.902 79.6259C145.196 79.9196 145.361 80.318 145.361 80.7334C145.361 81.1489 145.196 81.5473 144.902 81.841C144.609 82.1348 144.21 82.2998 143.795 82.2998H105.284C104.87 82.2997 104.472 82.1352 104.179 81.8424ZM101.503 90.1316C101.503 89.7162 101.668 89.3178 101.962 89.024C102.256 88.7303 102.654 88.5652 103.07 88.5652H141.58C141.89 88.5653 142.192 88.6571 142.45 88.829C142.707 89.0009 142.908 89.2453 143.026 89.5312C143.145 89.8171 143.176 90.1318 143.116 90.4355C143.056 90.7391 142.908 91.0182 142.689 91.2374L128.131 105.795L127.912 105.98C127.59 106.197 127.198 106.288 126.813 106.233C126.428 106.178 126.077 105.982 125.828 105.683C125.579 105.385 125.45 105.004 125.466 104.615C125.482 104.227 125.641 103.858 125.913 103.58L137.805 91.6979H103.07C102.654 91.6979 102.256 91.5329 101.962 91.2392C101.668 90.9454 101.503 90.547 101.503 90.1316Z" fill="url(#paint2_linear_2013_103)"/>
<defs>
<filter id="filter0_bd_2013_103" x="61.7872" y="23.7872" width="122.426" height="122.426" filterUnits="userSpaceOnUse" color-interpolation-filters="sRGB">
<feFlood flood-opacity="0" result="BackgroundImageFix"/>
<feGaussianBlur in="BackgroundImageFix" stdDeviation="13.1064"/>
<feComposite in2="SourceAlpha" operator="in" result="effect1_backgroundBlur_2013_103"/>
<feColorMatrix in="SourceAlpha" type="matrix" values="0 0 0 0 0 0 0 0 0 0 0 0 0 0 0 0 0 0 127 0" result="hardAlpha"/>
<feMorphology radius="0.873761" operator="erode" in="SourceAlpha" result="effect2_dropShadow_2013_103"/>
<feOffset dy="3.49504"/>
<feGaussianBlur stdDeviation="10.4851"/>
<feComposite in2="hardAlpha" operator="out"/>
<feColorMatrix type="matrix" values="0 0 0 0 0 0 0 0 0 0 0 0 0 0 0 0 0 0 0.2 0"/>
<feBlend mode="normal" in2="effect1_backgroundBlur_2013_103" result="effect2_dropShadow_2013_103"/>
<feBlend mode="normal" in="SourceGraphic" in2="effect2_dropShadow_2013_103" result="shape"/>
</filter>
<linearGradient id="paint0_linear_2013_103" x1="87.3402" y1="94.9115" x2="160.956" y2="112.978" gradientUnits="userSpaceOnUse">
<stop stop-color="#8A8A8A" stop-opacity="0.15"/>
<stop offset="0.626245" stop-color="#B8B8B8" stop-opacity="0.04"/>
</linearGradient>
<linearGradient id="paint1_linear_2013_103" x1="88" y1="85" x2="154.741" y2="85.8383" gradientUnits="userSpaceOnUse">
<stop stop-color="#7404BF"/>
<stop offset="1" stop-color="#E50071"/>
</linearGradient>
<linearGradient id="paint2_linear_2013_103" x1="101.503" y1="85.4291" x2="143.319" y2="85.9824" gradientUnits="userSpaceOnUse">
<stop stop-color="#7404BF"/>
<stop offset="1" stop-color="#E50071"/>
</linearGradient>
</defs>
</svg>
