<svg width="245" height="282" viewBox="0 0 245 282" fill="none" xmlns="http://www.w3.org/2000/svg">
<rect width="245" height="282" rx="9" fill="#FAF1F1"/>
<path d="M50.6603 160V148.8H55.0283C56.0096 148.8 56.847 148.955 57.5403 149.264C58.2336 149.573 58.767 150.021 59.1403 150.608C59.5136 151.195 59.7003 151.893 59.7003 152.704C59.7003 153.515 59.5136 154.213 59.1403 154.8C58.767 155.376 58.2336 155.824 57.5403 156.144C56.847 156.453 56.0096 156.608 55.0283 156.608H51.5403L52.2603 155.856V160H50.6603ZM52.2603 156.016L51.5403 155.216H54.9803C56.0043 155.216 56.7776 154.997 57.3003 154.56C57.8337 154.123 58.1003 153.504 58.1003 152.704C58.1003 151.904 57.8337 151.285 57.3003 150.848C56.7776 150.411 56.0043 150.192 54.9803 150.192H51.5403L52.2603 149.392V156.016ZM66.7728 160V158.208L66.6928 157.872V154.816C66.6928 154.165 66.5008 153.664 66.1168 153.312C65.7435 152.949 65.1782 152.768 64.4208 152.768C63.9195 152.768 63.4288 152.853 62.9488 153.024C62.4688 153.184 62.0635 153.403 61.7328 153.68L61.0928 152.528C61.5302 152.176 62.0528 151.909 62.6608 151.728C63.2795 151.536 63.9248 151.44 64.5968 151.44C65.7595 151.44 66.6555 151.723 67.2848 152.288C67.9142 152.853 68.2288 153.717 68.2288 154.88V160H66.7728ZM63.9888 160.096C63.3595 160.096 62.8048 159.989 62.3248 159.776C61.8555 159.563 61.4928 159.269 61.2368 158.896C60.9808 158.512 60.8528 158.08 60.8528 157.6C60.8528 157.141 60.9595 156.725 61.1728 156.352C61.3968 155.979 61.7542 155.68 62.2448 155.456C62.7462 155.232 63.4182 155.12 64.2608 155.12H66.9488V156.224H64.3248C63.5568 156.224 63.0395 156.352 62.7728 156.608C62.5062 156.864 62.3728 157.173 62.3728 157.536C62.3728 157.952 62.5382 158.288 62.8688 158.544C63.1995 158.789 63.6582 158.912 64.2448 158.912C64.8208 158.912 65.3222 158.784 65.7488 158.528C66.1862 158.272 66.5008 157.899 66.6928 157.408L66.9968 158.464C66.7942 158.965 66.4368 159.365 65.9248 159.664C65.4128 159.952 64.7675 160.096 63.9888 160.096ZM70.8313 160V151.52H72.3033V153.824L72.1593 153.248C72.394 152.661 72.7887 152.213 73.3433 151.904C73.898 151.595 74.5807 151.44 75.3913 151.44V152.928C75.3273 152.917 75.2633 152.912 75.1993 152.912C75.146 152.912 75.0927 152.912 75.0393 152.912C74.218 152.912 73.5673 153.157 73.0873 153.648C72.6073 154.139 72.3673 154.848 72.3673 155.776V160H70.8313ZM81.6834 160V158.208L81.6034 157.872V154.816C81.6034 154.165 81.4114 153.664 81.0274 153.312C80.6541 152.949 80.0888 152.768 79.3314 152.768C78.8301 152.768 78.3394 152.853 77.8594 153.024C77.3794 153.184 76.9741 153.403 76.6434 153.68L76.0034 152.528C76.4408 152.176 76.9634 151.909 77.5714 151.728C78.1901 151.536 78.8354 151.44 79.5074 151.44C80.6701 151.44 81.5661 151.723 82.1954 152.288C82.8248 152.853 83.1394 153.717 83.1394 154.88V160H81.6834ZM78.8994 160.096C78.2701 160.096 77.7154 159.989 77.2354 159.776C76.7661 159.563 76.4034 159.269 76.1474 158.896C75.8914 158.512 75.7634 158.08 75.7634 157.6C75.7634 157.141 75.8701 156.725 76.0834 156.352C76.3074 155.979 76.6648 155.68 77.1554 155.456C77.6568 155.232 78.3288 155.12 79.1714 155.12H81.8594V156.224H79.2354C78.4674 156.224 77.9501 156.352 77.6834 156.608C77.4168 156.864 77.2834 157.173 77.2834 157.536C77.2834 157.952 77.4488 158.288 77.7794 158.544C78.1101 158.789 78.5688 158.912 79.1554 158.912C79.7314 158.912 80.2328 158.784 80.6594 158.528C81.0968 158.272 81.4114 157.899 81.6034 157.408L81.9074 158.464C81.7048 158.965 81.3474 159.365 80.8354 159.664C80.3234 159.952 79.6781 160.096 78.8994 160.096ZM92.0228 160L88.3108 151.52H89.9108L93.2068 159.2H92.4388L95.7988 151.52H97.3028L93.5908 160H92.0228ZM101.894 160.096C101.041 160.096 100.283 159.909 99.6219 159.536C98.9606 159.163 98.4379 158.651 98.0539 158C97.6699 157.339 97.4779 156.592 97.4779 155.76C97.4779 154.917 97.6699 154.171 98.0539 153.52C98.4379 152.869 98.9606 152.363 99.6219 152C100.283 151.627 101.041 151.44 101.894 151.44C102.737 151.44 103.489 151.627 104.15 152C104.822 152.363 105.345 152.869 105.718 153.52C106.102 154.16 106.294 154.907 106.294 155.76C106.294 156.603 106.102 157.349 105.718 158C105.345 158.651 104.822 159.163 104.15 159.536C103.489 159.909 102.737 160.096 101.894 160.096ZM101.894 158.752C102.438 158.752 102.923 158.629 103.35 158.384C103.787 158.139 104.129 157.792 104.374 157.344C104.619 156.885 104.742 156.357 104.742 155.76C104.742 155.152 104.619 154.629 104.374 154.192C104.129 153.744 103.787 153.397 103.35 153.152C102.923 152.907 102.438 152.784 101.894 152.784C101.35 152.784 100.865 152.907 100.438 153.152C100.011 153.397 99.6699 153.744 99.4139 154.192C99.1579 154.629 99.0299 155.152 99.0299 155.76C99.0299 156.357 99.1579 156.885 99.4139 157.344C99.6699 157.792 100.011 158.139 100.438 158.384C100.865 158.629 101.35 158.752 101.894 158.752ZM111.874 160.096C111.01 160.096 110.237 159.909 109.554 159.536C108.882 159.163 108.354 158.651 107.97 158C107.586 157.349 107.394 156.603 107.394 155.76C107.394 154.917 107.586 154.171 107.97 153.52C108.354 152.869 108.882 152.363 109.554 152C110.237 151.627 111.01 151.44 111.874 151.44C112.642 151.44 113.325 151.595 113.922 151.904C114.53 152.203 115 152.651 115.33 153.248L114.162 154C113.885 153.584 113.544 153.28 113.138 153.088C112.744 152.885 112.317 152.784 111.858 152.784C111.304 152.784 110.808 152.907 110.37 153.152C109.933 153.397 109.586 153.744 109.33 154.192C109.074 154.629 108.946 155.152 108.946 155.76C108.946 156.368 109.074 156.896 109.33 157.344C109.586 157.792 109.933 158.139 110.37 158.384C110.808 158.629 111.304 158.752 111.858 158.752C112.317 158.752 112.744 158.656 113.138 158.464C113.544 158.261 113.885 157.952 114.162 157.536L115.33 158.272C115 158.859 114.53 159.312 113.922 159.632C113.325 159.941 112.642 160.096 111.874 160.096ZM120.73 160.096C119.823 160.096 119.023 159.909 118.33 159.536C117.647 159.163 117.114 158.651 116.73 158C116.356 157.349 116.17 156.603 116.17 155.76C116.17 154.917 116.351 154.171 116.714 153.52C117.087 152.869 117.594 152.363 118.234 152C118.884 151.627 119.615 151.44 120.426 151.44C121.247 151.44 121.972 151.621 122.602 151.984C123.231 152.347 123.722 152.859 124.074 153.52C124.436 154.171 124.618 154.933 124.618 155.808C124.618 155.872 124.612 155.947 124.602 156.032C124.602 156.117 124.596 156.197 124.586 156.272H117.37V155.168H123.786L123.162 155.552C123.172 155.008 123.06 154.523 122.826 154.096C122.591 153.669 122.266 153.339 121.85 153.104C121.444 152.859 120.97 152.736 120.426 152.736C119.892 152.736 119.418 152.859 119.002 153.104C118.586 153.339 118.26 153.675 118.026 154.112C117.791 154.539 117.674 155.029 117.674 155.584V155.84C117.674 156.405 117.802 156.912 118.058 157.36C118.324 157.797 118.692 158.139 119.162 158.384C119.631 158.629 120.17 158.752 120.778 158.752C121.279 158.752 121.732 158.667 122.138 158.496C122.554 158.325 122.916 158.069 123.226 157.728L124.074 158.72C123.69 159.168 123.21 159.509 122.634 159.744C122.068 159.979 121.434 160.096 120.73 160.096ZM117.546 150.288L119.674 148.208H121.146L123.274 150.288H121.882L119.77 148.528H121.05L118.938 150.288H117.546ZM134.072 160.096C133.25 160.096 132.514 159.915 131.864 159.552C131.224 159.189 130.717 158.683 130.344 158.032C129.97 157.381 129.784 156.624 129.784 155.76C129.784 154.896 129.97 154.144 130.344 153.504C130.717 152.853 131.224 152.347 131.864 151.984C132.514 151.621 133.25 151.44 134.072 151.44C134.808 151.44 135.464 151.6 136.04 151.92C136.616 152.24 137.069 152.72 137.4 153.36C137.741 154 137.912 154.8 137.912 155.76C137.912 156.72 137.736 157.52 137.384 158.16C137.042 158.8 136.584 159.285 136.008 159.616C135.432 159.936 134.786 160.096 134.072 160.096ZM134.2 158.752C134.733 158.752 135.213 158.629 135.64 158.384C136.077 158.139 136.418 157.792 136.664 157.344C136.92 156.885 137.048 156.357 137.048 155.76C137.048 155.152 136.92 154.629 136.664 154.192C136.418 153.744 136.077 153.397 135.64 153.152C135.213 152.907 134.733 152.784 134.2 152.784C133.656 152.784 133.17 152.907 132.744 153.152C132.317 153.397 131.976 153.744 131.72 154.192C131.464 154.629 131.336 155.152 131.336 155.76C131.336 156.357 131.464 156.885 131.72 157.344C131.976 157.792 132.317 158.139 132.744 158.384C133.17 158.629 133.656 158.752 134.2 158.752ZM137.032 163.104V157.744L137.192 155.776L137.096 153.808V151.52H138.568V163.104H137.032ZM144.802 160.096C144.076 160.096 143.436 159.963 142.882 159.696C142.338 159.429 141.911 159.024 141.602 158.48C141.303 157.925 141.154 157.232 141.154 156.4V151.52H142.69V156.224C142.69 157.056 142.887 157.68 143.282 158.096C143.687 158.512 144.252 158.72 144.978 158.72C145.511 158.72 145.975 158.613 146.37 158.4C146.764 158.176 147.068 157.856 147.282 157.44C147.495 157.013 147.602 156.501 147.602 155.904V151.52H149.138V160H147.682V157.712L147.922 158.32C147.644 158.885 147.228 159.323 146.674 159.632C146.119 159.941 145.495 160.096 144.802 160.096ZM155.598 160.096C154.691 160.096 153.891 159.909 153.198 159.536C152.515 159.163 151.982 158.651 151.598 158C151.225 157.349 151.038 156.603 151.038 155.76C151.038 154.917 151.219 154.171 151.582 153.52C151.955 152.869 152.462 152.363 153.102 152C153.753 151.627 154.483 151.44 155.294 151.44C156.115 151.44 156.841 151.621 157.47 151.984C158.099 152.347 158.59 152.859 158.942 153.52C159.305 154.171 159.486 154.933 159.486 155.808C159.486 155.872 159.481 155.947 159.47 156.032C159.47 156.117 159.465 156.197 159.454 156.272H152.238V155.168H158.654L158.03 155.552C158.041 155.008 157.929 154.523 157.694 154.096C157.459 153.669 157.134 153.339 156.718 153.104C156.313 152.859 155.838 152.736 155.294 152.736C154.761 152.736 154.286 152.859 153.87 153.104C153.454 153.339 153.129 153.675 152.894 154.112C152.659 154.539 152.542 155.029 152.542 155.584V155.84C152.542 156.405 152.67 156.912 152.926 157.36C153.193 157.797 153.561 158.139 154.03 158.384C154.499 158.629 155.038 158.752 155.646 158.752C156.147 158.752 156.601 158.667 157.006 158.496C157.422 158.325 157.785 158.069 158.094 157.728L158.942 158.72C158.558 159.168 158.078 159.509 157.502 159.744C156.937 159.979 156.302 160.096 155.598 160.096ZM169.212 160.096C168.305 160.096 167.505 159.909 166.812 159.536C166.129 159.163 165.596 158.651 165.212 158C164.838 157.349 164.652 156.603 164.652 155.76C164.652 154.917 164.833 154.171 165.196 153.52C165.569 152.869 166.076 152.363 166.716 152C167.366 151.627 168.097 151.44 168.908 151.44C169.729 151.44 170.454 151.621 171.084 151.984C171.713 152.347 172.204 152.859 172.556 153.52C172.918 154.171 173.1 154.933 173.1 155.808C173.1 155.872 173.094 155.947 173.084 156.032C173.084 156.117 173.078 156.197 173.068 156.272H165.852V155.168H172.268L171.644 155.552C171.654 155.008 171.542 154.523 171.308 154.096C171.073 153.669 170.748 153.339 170.332 153.104C169.926 152.859 169.452 152.736 168.908 152.736C168.374 152.736 167.9 152.859 167.484 153.104C167.068 153.339 166.742 153.675 166.508 154.112C166.273 154.539 166.156 155.029 166.156 155.584V155.84C166.156 156.405 166.284 156.912 166.54 157.36C166.806 157.797 167.174 158.139 167.644 158.384C168.113 158.629 168.652 158.752 169.26 158.752C169.761 158.752 170.214 158.667 170.62 158.496C171.036 158.325 171.398 158.069 171.708 157.728L172.556 158.72C172.172 159.168 171.692 159.509 171.116 159.744C170.55 159.979 169.916 160.096 169.212 160.096ZM177.425 160.096C176.721 160.096 176.049 160 175.409 159.808C174.779 159.616 174.283 159.381 173.921 159.104L174.561 157.888C174.923 158.133 175.371 158.341 175.905 158.512C176.438 158.683 176.982 158.768 177.537 158.768C178.251 158.768 178.763 158.667 179.073 158.464C179.393 158.261 179.553 157.979 179.553 157.616C179.553 157.349 179.457 157.141 179.265 156.992C179.073 156.843 178.817 156.731 178.497 156.656C178.187 156.581 177.841 156.517 177.457 156.464C177.073 156.4 176.689 156.325 176.305 156.24C175.921 156.144 175.569 156.016 175.249 155.856C174.929 155.685 174.673 155.456 174.481 155.168C174.289 154.869 174.193 154.475 174.193 153.984C174.193 153.472 174.337 153.024 174.625 152.64C174.913 152.256 175.318 151.963 175.841 151.76C176.374 151.547 177.003 151.44 177.729 151.44C178.283 151.44 178.843 151.509 179.409 151.648C179.985 151.776 180.454 151.963 180.817 152.208L180.161 153.424C179.777 153.168 179.377 152.992 178.961 152.896C178.545 152.8 178.129 152.752 177.713 152.752C177.041 152.752 176.539 152.864 176.209 153.088C175.878 153.301 175.713 153.579 175.713 153.92C175.713 154.208 175.809 154.432 176.001 154.592C176.203 154.741 176.459 154.859 176.769 154.944C177.089 155.029 177.441 155.104 177.825 155.168C178.209 155.221 178.593 155.296 178.977 155.392C179.361 155.477 179.707 155.6 180.017 155.76C180.337 155.92 180.593 156.144 180.785 156.432C180.987 156.72 181.089 157.104 181.089 157.584C181.089 158.096 180.939 158.539 180.641 158.912C180.342 159.285 179.921 159.579 179.377 159.792C178.833 159.995 178.182 160.096 177.425 160.096ZM185.68 160.096C184.827 160.096 184.166 159.867 183.696 159.408C183.227 158.949 182.992 158.293 182.992 157.44V149.664H184.528V157.376C184.528 157.835 184.64 158.187 184.864 158.432C185.099 158.677 185.43 158.8 185.856 158.8C186.336 158.8 186.736 158.667 187.056 158.4L187.536 159.504C187.302 159.707 187.019 159.856 186.688 159.952C186.368 160.048 186.032 160.096 185.68 160.096ZM181.552 152.784V151.52H186.96V152.784H181.552ZM194.417 160V158.208L194.337 157.872V154.816C194.337 154.165 194.145 153.664 193.761 153.312C193.388 152.949 192.823 152.768 192.065 152.768C191.564 152.768 191.073 152.853 190.593 153.024C190.113 153.184 189.708 153.403 189.377 153.68L188.737 152.528C189.175 152.176 189.697 151.909 190.305 151.728C190.924 151.536 191.569 151.44 192.241 151.44C193.404 151.44 194.3 151.723 194.929 152.288C195.559 152.853 195.873 153.717 195.873 154.88V160H194.417ZM191.633 160.096C191.004 160.096 190.449 159.989 189.969 159.776C189.5 159.563 189.137 159.269 188.881 158.896C188.625 158.512 188.497 158.08 188.497 157.6C188.497 157.141 188.604 156.725 188.817 156.352C189.041 155.979 189.399 155.68 189.889 155.456C190.391 155.232 191.063 155.12 191.905 155.12H194.593V156.224H191.969C191.201 156.224 190.684 156.352 190.417 156.608C190.151 156.864 190.017 157.173 190.017 157.536C190.017 157.952 190.183 158.288 190.513 158.544C190.844 158.789 191.303 158.912 191.889 158.912C192.465 158.912 192.967 158.784 193.393 158.528C193.831 158.272 194.145 157.899 194.337 157.408L194.641 158.464C194.439 158.965 194.081 159.365 193.569 159.664C193.057 159.952 192.412 160.096 191.633 160.096ZM191.153 150.288L193.329 148.208H195.281L192.593 150.288H191.153ZM37.8098 187.096C36.9458 187.096 36.1725 186.909 35.4898 186.536C34.8178 186.163 34.2898 185.651 33.9058 185C33.5218 184.349 33.3298 183.603 33.3298 182.76C33.3298 181.917 33.5218 181.171 33.9058 180.52C34.2898 179.869 34.8178 179.363 35.4898 179C36.1725 178.627 36.9458 178.44 37.8098 178.44C38.5778 178.44 39.2605 178.595 39.8578 178.904C40.4658 179.203 40.9351 179.651 41.2658 180.248L40.0978 181C39.8205 180.584 39.4791 180.28 39.0738 180.088C38.6791 179.885 38.2525 179.784 37.7938 179.784C37.2391 179.784 36.7431 179.907 36.3058 180.152C35.8685 180.397 35.5218 180.744 35.2658 181.192C35.0098 181.629 34.8818 182.152 34.8818 182.76C34.8818 183.368 35.0098 183.896 35.2658 184.344C35.5218 184.792 35.8685 185.139 36.3058 185.384C36.7431 185.629 37.2391 185.752 37.7938 185.752C38.2525 185.752 38.6791 185.656 39.0738 185.464C39.4791 185.261 39.8205 184.952 40.0978 184.536L41.2658 185.272C40.9351 185.859 40.4658 186.312 39.8578 186.632C39.2605 186.941 38.5778 187.096 37.8098 187.096ZM46.5214 187.096C45.6681 187.096 44.9108 186.909 44.2494 186.536C43.5881 186.163 43.0654 185.651 42.6814 185C42.2974 184.339 42.1054 183.592 42.1054 182.76C42.1054 181.917 42.2974 181.171 42.6814 180.52C43.0654 179.869 43.5881 179.363 44.2494 179C44.9108 178.627 45.6681 178.44 46.5214 178.44C47.3641 178.44 48.1161 178.627 48.7774 179C49.4494 179.363 49.9721 179.869 50.3454 180.52C50.7294 181.16 50.9214 181.907 50.9214 182.76C50.9214 183.603 50.7294 184.349 50.3454 185C49.9721 185.651 49.4494 186.163 48.7774 186.536C48.1161 186.909 47.3641 187.096 46.5214 187.096ZM46.5214 185.752C47.0654 185.752 47.5508 185.629 47.9774 185.384C48.4148 185.139 48.7561 184.792 49.0014 184.344C49.2468 183.885 49.3694 183.357 49.3694 182.76C49.3694 182.152 49.2468 181.629 49.0014 181.192C48.7561 180.744 48.4148 180.397 47.9774 180.152C47.5508 179.907 47.0654 179.784 46.5214 179.784C45.9774 179.784 45.4921 179.907 45.0654 180.152C44.6388 180.397 44.2974 180.744 44.0414 181.192C43.7854 181.629 43.6574 182.152 43.6574 182.76C43.6574 183.357 43.7854 183.885 44.0414 184.344C44.2974 184.792 44.6388 185.139 45.0654 185.384C45.4921 185.629 45.9774 185.752 46.5214 185.752ZM63.4137 178.44C64.0964 178.44 64.699 178.573 65.2217 178.84C65.7444 179.107 66.1497 179.512 66.4377 180.056C66.7364 180.6 66.8857 181.288 66.8857 182.12V187H65.3497V182.296C65.3497 181.475 65.1577 180.856 64.7737 180.44C64.3897 180.024 63.851 179.816 63.1577 179.816C62.6457 179.816 62.1977 179.923 61.8137 180.136C61.4297 180.349 61.131 180.664 60.9177 181.08C60.715 181.496 60.6137 182.013 60.6137 182.632V187H59.0777V182.296C59.0777 181.475 58.8857 180.856 58.5017 180.44C58.1284 180.024 57.5897 179.816 56.8857 179.816C56.3844 179.816 55.9417 179.923 55.5577 180.136C55.1737 180.349 54.875 180.664 54.6617 181.08C54.4484 181.496 54.3417 182.013 54.3417 182.632V187H52.8057V178.52H54.2777V180.776L54.0377 180.2C54.3044 179.645 54.715 179.213 55.2697 178.904C55.8244 178.595 56.4697 178.44 57.2057 178.44C58.0164 178.44 58.715 178.643 59.3017 179.048C59.8884 179.443 60.2724 180.045 60.4537 180.856L59.8297 180.6C60.0857 179.949 60.5337 179.427 61.1737 179.032C61.8137 178.637 62.5604 178.44 63.4137 178.44ZM73.2479 187.096C72.3413 187.096 71.5413 186.909 70.8479 186.536C70.1653 186.163 69.6319 185.651 69.2479 185C68.8746 184.349 68.6879 183.603 68.6879 182.76C68.6879 181.917 68.8693 181.171 69.2319 180.52C69.6053 179.869 70.1119 179.363 70.7519 179C71.4026 178.627 72.1333 178.44 72.9439 178.44C73.7653 178.44 74.4906 178.621 75.1199 178.984C75.7493 179.347 76.2399 179.859 76.5919 180.52C76.9546 181.171 77.1359 181.933 77.1359 182.808C77.1359 182.872 77.1306 182.947 77.1199 183.032C77.1199 183.117 77.1146 183.197 77.1039 183.272H69.8879V182.168H76.3039L75.6799 182.552C75.6906 182.008 75.5786 181.523 75.3439 181.096C75.1093 180.669 74.7839 180.339 74.3679 180.104C73.9626 179.859 73.4879 179.736 72.9439 179.736C72.4106 179.736 71.9359 179.859 71.5199 180.104C71.1039 180.339 70.7786 180.675 70.5439 181.112C70.3093 181.539 70.1919 182.029 70.1919 182.584V182.84C70.1919 183.405 70.3199 183.912 70.5759 184.36C70.8426 184.797 71.2106 185.139 71.6799 185.384C72.1493 185.629 72.6879 185.752 73.2959 185.752C73.7973 185.752 74.2506 185.667 74.6559 185.496C75.0719 185.325 75.4346 185.069 75.7439 184.728L76.5919 185.72C76.2079 186.168 75.7279 186.509 75.1519 186.744C74.5866 186.979 73.9519 187.096 73.2479 187.096ZM82.7248 187.096C81.8608 187.096 81.0875 186.909 80.4048 186.536C79.7328 186.163 79.2048 185.651 78.8208 185C78.4368 184.349 78.2448 183.603 78.2448 182.76C78.2448 181.917 78.4368 181.171 78.8208 180.52C79.2048 179.869 79.7328 179.363 80.4048 179C81.0875 178.627 81.8608 178.44 82.7248 178.44C83.4928 178.44 84.1755 178.595 84.7728 178.904C85.3808 179.203 85.8501 179.651 86.1808 180.248L85.0128 181C84.7355 180.584 84.3941 180.28 83.9888 180.088C83.5941 179.885 83.1675 179.784 82.7088 179.784C82.1541 179.784 81.6581 179.907 81.2208 180.152C80.7835 180.397 80.4368 180.744 80.1808 181.192C79.9248 181.629 79.7968 182.152 79.7968 182.76C79.7968 183.368 79.9248 183.896 80.1808 184.344C80.4368 184.792 80.7835 185.139 81.2208 185.384C81.6581 185.629 82.1541 185.752 82.7088 185.752C83.1675 185.752 83.5941 185.656 83.9888 185.464C84.3941 185.261 84.7355 184.952 85.0128 184.536L86.1808 185.272C85.8501 185.859 85.3808 186.312 84.7728 186.632C84.1755 186.941 83.4928 187.096 82.7248 187.096ZM81.9728 190.584C81.6955 190.584 81.4395 190.552 81.2048 190.488C80.9701 190.435 80.7515 190.349 80.5488 190.232L80.8848 189.448C81.0555 189.544 81.2261 189.613 81.3968 189.656C81.5781 189.699 81.7701 189.72 81.9728 189.72C82.2821 189.72 82.5061 189.661 82.6448 189.544C82.7941 189.437 82.8688 189.283 82.8688 189.08C82.8688 188.888 82.7941 188.733 82.6448 188.616C82.5061 188.509 82.2768 188.456 81.9568 188.456H81.5248L81.9248 186.888H82.8048L82.5648 187.8C83.0235 187.843 83.3701 187.987 83.6048 188.232C83.8395 188.477 83.9568 188.776 83.9568 189.128C83.9568 189.576 83.7755 189.928 83.4128 190.184C83.0501 190.451 82.5701 190.584 81.9728 190.584ZM93.1934 187V185.208L93.1134 184.872V181.816C93.1134 181.165 92.9214 180.664 92.5374 180.312C92.1641 179.949 91.5988 179.768 90.8414 179.768C90.3401 179.768 89.8494 179.853 89.3694 180.024C88.8894 180.184 88.4841 180.403 88.1534 180.68L87.5134 179.528C87.9508 179.176 88.4734 178.909 89.0814 178.728C89.7001 178.536 90.3454 178.44 91.0174 178.44C92.1801 178.44 93.0761 178.723 93.7054 179.288C94.3348 179.853 94.6494 180.717 94.6494 181.88V187H93.1934ZM90.4094 187.096C89.7801 187.096 89.2254 186.989 88.7454 186.776C88.2761 186.563 87.9134 186.269 87.6574 185.896C87.4014 185.512 87.2734 185.08 87.2734 184.6C87.2734 184.141 87.3801 183.725 87.5934 183.352C87.8174 182.979 88.1748 182.68 88.6654 182.456C89.1668 182.232 89.8388 182.12 90.6814 182.12H93.3694V183.224H90.7454C89.9774 183.224 89.4601 183.352 89.1934 183.608C88.9268 183.864 88.7934 184.173 88.7934 184.536C88.7934 184.952 88.9588 185.288 89.2894 185.544C89.6201 185.789 90.0788 185.912 90.6654 185.912C91.2414 185.912 91.7428 185.784 92.1694 185.528C92.6068 185.272 92.9214 184.899 93.1134 184.408L93.4174 185.464C93.2148 185.965 92.8574 186.365 92.3454 186.664C91.8334 186.952 91.1881 187.096 90.4094 187.096ZM101.78 178.44C102.473 178.44 103.081 178.573 103.604 178.84C104.137 179.107 104.553 179.512 104.852 180.056C105.151 180.6 105.3 181.288 105.3 182.12V187H103.764V182.296C103.764 181.475 103.561 180.856 103.156 180.44C102.761 180.024 102.201 179.816 101.476 179.816C100.932 179.816 100.457 179.923 100.052 180.136C99.6466 180.349 99.3319 180.664 99.1079 181.08C98.8946 181.496 98.7879 182.013 98.7879 182.632V187H97.2519V178.52H98.7239V180.808L98.4839 180.2C98.7613 179.645 99.1879 179.213 99.7639 178.904C100.34 178.595 101.012 178.44 101.78 178.44ZM111.407 187.096C110.585 187.096 109.849 186.915 109.199 186.552C108.559 186.189 108.052 185.683 107.679 185.032C107.305 184.381 107.119 183.624 107.119 182.76C107.119 181.896 107.305 181.144 107.679 180.504C108.052 179.853 108.559 179.347 109.199 178.984C109.849 178.621 110.585 178.44 111.407 178.44C112.121 178.44 112.767 178.6 113.343 178.92C113.919 179.24 114.377 179.72 114.719 180.36C115.071 181 115.247 181.8 115.247 182.76C115.247 183.72 115.076 184.52 114.735 185.16C114.404 185.8 113.951 186.285 113.375 186.616C112.799 186.936 112.143 187.096 111.407 187.096ZM111.535 185.752C112.068 185.752 112.548 185.629 112.975 185.384C113.412 185.139 113.753 184.792 113.999 184.344C114.255 183.885 114.383 183.357 114.383 182.76C114.383 182.152 114.255 181.629 113.999 181.192C113.753 180.744 113.412 180.397 112.975 180.152C112.548 179.907 112.068 179.784 111.535 179.784C110.991 179.784 110.505 179.907 110.079 180.152C109.652 180.397 109.311 180.744 109.055 181.192C108.799 181.629 108.671 182.152 108.671 182.76C108.671 183.357 108.799 183.885 109.055 184.344C109.311 184.792 109.652 185.139 110.079 185.384C110.505 185.629 110.991 185.752 111.535 185.752ZM114.431 187V184.712L114.527 182.744L114.367 180.776V175.128H115.903V187H114.431ZM122.201 187.096C121.347 187.096 120.59 186.909 119.929 186.536C119.267 186.163 118.745 185.651 118.361 185C117.977 184.339 117.785 183.592 117.785 182.76C117.785 181.917 117.977 181.171 118.361 180.52C118.745 179.869 119.267 179.363 119.929 179C120.59 178.627 121.347 178.44 122.201 178.44C123.043 178.44 123.795 178.627 124.457 179C125.129 179.363 125.651 179.869 126.025 180.52C126.409 181.16 126.601 181.907 126.601 182.76C126.601 183.603 126.409 184.349 126.025 185C125.651 185.651 125.129 186.163 124.457 186.536C123.795 186.909 123.043 187.096 122.201 187.096ZM122.201 185.752C122.745 185.752 123.23 185.629 123.657 185.384C124.094 185.139 124.435 184.792 124.681 184.344C124.926 183.885 125.049 183.357 125.049 182.76C125.049 182.152 124.926 181.629 124.681 181.192C124.435 180.744 124.094 180.397 123.657 180.152C123.23 179.907 122.745 179.784 122.201 179.784C121.657 179.784 121.171 179.907 120.745 180.152C120.318 180.397 119.977 180.744 119.721 181.192C119.465 181.629 119.337 182.152 119.337 182.76C119.337 183.357 119.465 183.885 119.721 184.344C119.977 184.792 120.318 185.139 120.745 185.384C121.171 185.629 121.657 185.752 122.201 185.752ZM136.046 187.096C135.225 187.096 134.489 186.915 133.838 186.552C133.198 186.189 132.691 185.683 132.318 185.032C131.945 184.381 131.758 183.624 131.758 182.76C131.758 181.896 131.945 181.144 132.318 180.504C132.691 179.853 133.198 179.347 133.838 178.984C134.489 178.621 135.225 178.44 136.046 178.44C136.761 178.44 137.406 178.6 137.982 178.92C138.558 179.24 139.017 179.72 139.358 180.36C139.71 181 139.886 181.8 139.886 182.76C139.886 183.72 139.715 184.52 139.374 185.16C139.043 185.8 138.59 186.285 138.014 186.616C137.438 186.936 136.782 187.096 136.046 187.096ZM136.174 185.752C136.707 185.752 137.187 185.629 137.614 185.384C138.051 185.139 138.393 184.792 138.638 184.344C138.894 183.885 139.022 183.357 139.022 182.76C139.022 182.152 138.894 181.629 138.638 181.192C138.393 180.744 138.051 180.397 137.614 180.152C137.187 179.907 136.707 179.784 136.174 179.784C135.63 179.784 135.145 179.907 134.718 180.152C134.291 180.397 133.95 180.744 133.694 181.192C133.438 181.629 133.31 182.152 133.31 182.76C133.31 183.357 133.438 183.885 133.694 184.344C133.95 184.792 134.291 185.139 134.718 185.384C135.145 185.629 135.63 185.752 136.174 185.752ZM139.07 187V184.712L139.166 182.744L139.006 180.776V175.128H140.542V187H139.07ZM146.84 187.096C145.987 187.096 145.23 186.909 144.568 186.536C143.907 186.163 143.384 185.651 143 185C142.616 184.339 142.424 183.592 142.424 182.76C142.424 181.917 142.616 181.171 143 180.52C143.384 179.869 143.907 179.363 144.568 179C145.23 178.627 145.987 178.44 146.84 178.44C147.683 178.44 148.435 178.627 149.096 179C149.768 179.363 150.291 179.869 150.664 180.52C151.048 181.16 151.24 181.907 151.24 182.76C151.24 183.603 151.048 184.349 150.664 185C150.291 185.651 149.768 186.163 149.096 186.536C148.435 186.909 147.683 187.096 146.84 187.096ZM146.84 185.752C147.384 185.752 147.87 185.629 148.296 185.384C148.734 185.139 149.075 184.792 149.32 184.344C149.566 183.885 149.688 183.357 149.688 182.76C149.688 182.152 149.566 181.629 149.32 181.192C149.075 180.744 148.734 180.397 148.296 180.152C147.87 179.907 147.384 179.784 146.84 179.784C146.296 179.784 145.811 179.907 145.384 180.152C144.958 180.397 144.616 180.744 144.36 181.192C144.104 181.629 143.976 182.152 143.976 182.76C143.976 183.357 144.104 183.885 144.36 184.344C144.616 184.792 144.958 185.139 145.384 185.384C145.811 185.629 146.296 185.752 146.84 185.752ZM156.365 187V186.008L161.805 179.256L162.109 179.784H156.461V178.52H163.341V179.528L157.901 186.264L157.549 185.736H163.469V187H156.365ZM168.936 187.096C168.029 187.096 167.229 186.909 166.536 186.536C165.853 186.163 165.32 185.651 164.936 185C164.563 184.349 164.376 183.603 164.376 182.76C164.376 181.917 164.557 181.171 164.92 180.52C165.293 179.869 165.8 179.363 166.44 179C167.091 178.627 167.821 178.44 168.632 178.44C169.453 178.44 170.179 178.621 170.808 178.984C171.437 179.347 171.928 179.859 172.28 180.52C172.643 181.171 172.824 181.933 172.824 182.808C172.824 182.872 172.819 182.947 172.808 183.032C172.808 183.117 172.803 183.197 172.792 183.272H165.576V182.168H171.992L171.368 182.552C171.379 182.008 171.267 181.523 171.032 181.096C170.797 180.669 170.472 180.339 170.056 180.104C169.651 179.859 169.176 179.736 168.632 179.736C168.099 179.736 167.624 179.859 167.208 180.104C166.792 180.339 166.467 180.675 166.232 181.112C165.997 181.539 165.88 182.029 165.88 182.584V182.84C165.88 183.405 166.008 183.912 166.264 184.36C166.531 184.797 166.899 185.139 167.368 185.384C167.837 185.629 168.376 185.752 168.984 185.752C169.485 185.752 169.939 185.667 170.344 185.496C170.76 185.325 171.123 185.069 171.432 184.728L172.28 185.72C171.896 186.168 171.416 186.509 170.84 186.744C170.275 186.979 169.64 187.096 168.936 187.096ZM174.717 187V178.52H176.189V180.824L176.045 180.248C176.28 179.661 176.674 179.213 177.229 178.904C177.784 178.595 178.466 178.44 179.277 178.44V179.928C179.213 179.917 179.149 179.912 179.085 179.912C179.032 179.912 178.978 179.912 178.925 179.912C178.104 179.912 177.453 180.157 176.973 180.648C176.493 181.139 176.253 181.848 176.253 182.776V187H174.717ZM184.484 187.096C183.631 187.096 182.873 186.909 182.212 186.536C181.551 186.163 181.028 185.651 180.644 185C180.26 184.339 180.068 183.592 180.068 182.76C180.068 181.917 180.26 181.171 180.644 180.52C181.028 179.869 181.551 179.363 182.212 179C182.873 178.627 183.631 178.44 184.484 178.44C185.327 178.44 186.079 178.627 186.74 179C187.412 179.363 187.935 179.869 188.308 180.52C188.692 181.16 188.884 181.907 188.884 182.76C188.884 183.603 188.692 184.349 188.308 185C187.935 185.651 187.412 186.163 186.74 186.536C186.079 186.909 185.327 187.096 184.484 187.096ZM184.484 185.752C185.028 185.752 185.513 185.629 185.94 185.384C186.377 185.139 186.719 184.792 186.964 184.344C187.209 183.885 187.332 183.357 187.332 182.76C187.332 182.152 187.209 181.629 186.964 181.192C186.719 180.744 186.377 180.397 185.94 180.152C185.513 179.907 185.028 179.784 184.484 179.784C183.94 179.784 183.455 179.907 183.028 180.152C182.601 180.397 182.26 180.744 182.004 181.192C181.748 181.629 181.62 182.152 181.62 182.76C181.62 183.357 181.748 183.885 182.004 184.344C182.26 184.792 182.601 185.139 183.028 185.384C183.455 185.629 183.94 185.752 184.484 185.752ZM199.353 178.44C200.046 178.44 200.654 178.573 201.177 178.84C201.71 179.107 202.126 179.512 202.425 180.056C202.724 180.6 202.873 181.288 202.873 182.12V187H201.337V182.296C201.337 181.475 201.134 180.856 200.729 180.44C200.334 180.024 199.774 179.816 199.049 179.816C198.505 179.816 198.03 179.923 197.625 180.136C197.22 180.349 196.905 180.664 196.681 181.08C196.468 181.496 196.361 182.013 196.361 182.632V187H194.825V178.52H196.297V180.808L196.057 180.2C196.334 179.645 196.761 179.213 197.337 178.904C197.913 178.595 198.585 178.44 199.353 178.44ZM210.74 187V185.208L210.66 184.872V181.816C210.66 181.165 210.468 180.664 210.084 180.312C209.71 179.949 209.145 179.768 208.388 179.768C207.886 179.768 207.396 179.853 206.916 180.024C206.436 180.184 206.03 180.403 205.7 180.68L205.06 179.528C205.497 179.176 206.02 178.909 206.628 178.728C207.246 178.536 207.892 178.44 208.564 178.44C209.726 178.44 210.622 178.723 211.252 179.288C211.881 179.853 212.196 180.717 212.196 181.88V187H210.74ZM207.956 187.096C207.326 187.096 206.772 186.989 206.292 186.776C205.822 186.563 205.46 186.269 205.204 185.896C204.948 185.512 204.82 185.08 204.82 184.6C204.82 184.141 204.926 183.725 205.14 183.352C205.364 182.979 205.721 182.68 206.212 182.456C206.713 182.232 207.385 182.12 208.228 182.12H210.916V183.224H208.292C207.524 183.224 207.006 183.352 206.74 183.608C206.473 183.864 206.34 184.173 206.34 184.536C206.34 184.952 206.505 185.288 206.836 185.544C207.166 185.789 207.625 185.912 208.212 185.912C208.788 185.912 209.289 185.784 209.716 185.528C210.153 185.272 210.468 184.899 210.66 184.408L210.964 185.464C210.761 185.965 210.404 186.365 209.892 186.664C209.38 186.952 208.734 187.096 207.956 187.096ZM75.5504 214.096C74.8464 214.096 74.2011 213.936 73.6144 213.616C73.0384 213.285 72.5744 212.8 72.2224 212.16C71.8811 211.52 71.7104 210.72 71.7104 209.76C71.7104 208.8 71.8758 208 72.2064 207.36C72.5478 206.72 73.0064 206.24 73.5824 205.92C74.1691 205.6 74.8251 205.44 75.5504 205.44C76.3824 205.44 77.1184 205.621 77.7584 205.984C78.3984 206.347 78.9051 206.853 79.2784 207.504C79.6518 208.144 79.8384 208.896 79.8384 209.76C79.8384 210.624 79.6518 211.381 79.2784 212.032C78.9051 212.683 78.3984 213.189 77.7584 213.552C77.1184 213.915 76.3824 214.096 75.5504 214.096ZM71.0544 217.104V205.52H72.5264V207.808L72.4304 209.776L72.5904 211.744V217.104H71.0544ZM75.4224 212.752C75.9664 212.752 76.4518 212.629 76.8784 212.384C77.3158 212.139 77.6571 211.792 77.9024 211.344C78.1584 210.885 78.2864 210.357 78.2864 209.76C78.2864 209.152 78.1584 208.629 77.9024 208.192C77.6571 207.744 77.3158 207.397 76.8784 207.152C76.4518 206.907 75.9664 206.784 75.4224 206.784C74.8891 206.784 74.4038 206.907 73.9664 207.152C73.5398 207.397 73.1984 207.744 72.9424 208.192C72.6971 208.629 72.5744 209.152 72.5744 209.76C72.5744 210.357 72.6971 210.885 72.9424 211.344C73.1984 211.792 73.5398 212.139 73.9664 212.384C74.4038 212.629 74.8891 212.752 75.4224 212.752ZM81.7207 214V205.52H83.1927V207.824L83.0487 207.248C83.2834 206.661 83.678 206.213 84.2327 205.904C84.7874 205.595 85.47 205.44 86.2807 205.44V206.928C86.2167 206.917 86.1527 206.912 86.0887 206.912C86.0354 206.912 85.982 206.912 85.9287 206.912C85.1074 206.912 84.4567 207.157 83.9767 207.648C83.4967 208.139 83.2567 208.848 83.2567 209.776V214H81.7207ZM91.4877 214.096C90.6344 214.096 89.877 213.909 89.2157 213.536C88.5544 213.163 88.0317 212.651 87.6477 212C87.2637 211.339 87.0717 210.592 87.0717 209.76C87.0717 208.917 87.2637 208.171 87.6477 207.52C88.0317 206.869 88.5544 206.363 89.2157 206C89.877 205.627 90.6344 205.44 91.4877 205.44C92.3304 205.44 93.0824 205.627 93.7437 206C94.4157 206.363 94.9384 206.869 95.3117 207.52C95.6957 208.16 95.8877 208.907 95.8877 209.76C95.8877 210.603 95.6957 211.349 95.3117 212C94.9384 212.651 94.4157 213.163 93.7437 213.536C93.0824 213.909 92.3304 214.096 91.4877 214.096ZM91.4877 212.752C92.0317 212.752 92.517 212.629 92.9437 212.384C93.381 212.139 93.7224 211.792 93.9677 211.344C94.213 210.885 94.3357 210.357 94.3357 209.76C94.3357 209.152 94.213 208.629 93.9677 208.192C93.7224 207.744 93.381 207.397 92.9437 207.152C92.517 206.907 92.0317 206.784 91.4877 206.784C90.9437 206.784 90.4584 206.907 90.0317 207.152C89.605 207.397 89.2637 207.744 89.0077 208.192C88.7517 208.629 88.6237 209.152 88.6237 209.76C88.6237 210.357 88.7517 210.885 89.0077 211.344C89.2637 211.792 89.605 212.139 90.0317 212.384C90.4584 212.629 90.9437 212.752 91.4877 212.752ZM101.484 217.2C100.705 217.2 99.9479 217.088 99.2119 216.864C98.4866 216.651 97.8946 216.341 97.4359 215.936L98.1719 214.752C98.5666 215.093 99.0519 215.36 99.6279 215.552C100.204 215.755 100.807 215.856 101.436 215.856C102.439 215.856 103.175 215.621 103.644 215.152C104.113 214.683 104.348 213.968 104.348 213.008V211.216L104.508 209.536L104.428 207.84V205.52H105.884V212.848C105.884 214.341 105.511 215.44 104.764 216.144C104.017 216.848 102.924 217.2 101.484 217.2ZM101.292 213.648C100.471 213.648 99.7346 213.477 99.0839 213.136C98.4439 212.784 97.9319 212.299 97.5479 211.68C97.1746 211.061 96.9879 210.347 96.9879 209.536C96.9879 208.715 97.1746 208 97.5479 207.392C97.9319 206.773 98.4439 206.293 99.0839 205.952C99.7346 205.611 100.471 205.44 101.292 205.44C102.017 205.44 102.679 205.589 103.276 205.888C103.873 206.176 104.348 206.624 104.7 207.232C105.063 207.84 105.244 208.608 105.244 209.536C105.244 210.453 105.063 211.216 104.7 211.824C104.348 212.432 103.873 212.891 103.276 213.2C102.679 213.499 102.017 213.648 101.292 213.648ZM101.468 212.304C102.033 212.304 102.535 212.187 102.972 211.952C103.409 211.717 103.751 211.392 103.996 210.976C104.252 210.56 104.38 210.08 104.38 209.536C104.38 208.992 104.252 208.512 103.996 208.096C103.751 207.68 103.409 207.36 102.972 207.136C102.535 206.901 102.033 206.784 101.468 206.784C100.903 206.784 100.396 206.901 99.9479 207.136C99.5106 207.36 99.1639 207.68 98.9079 208.096C98.6626 208.512 98.5399 208.992 98.5399 209.536C98.5399 210.08 98.6626 210.56 98.9079 210.976C99.1639 211.392 99.5106 211.717 99.9479 211.952C100.396 212.187 100.903 212.304 101.468 212.304ZM108.579 214V205.52H110.051V207.824L109.907 207.248C110.141 206.661 110.536 206.213 111.091 205.904C111.645 205.595 112.328 205.44 113.139 205.44V206.928C113.075 206.917 113.011 206.912 112.947 206.912C112.893 206.912 112.84 206.912 112.787 206.912C111.965 206.912 111.315 207.157 110.835 207.648C110.355 208.139 110.115 208.848 110.115 209.776V214H108.579ZM119.431 214V212.208L119.351 211.872V208.816C119.351 208.165 119.159 207.664 118.775 207.312C118.402 206.949 117.836 206.768 117.079 206.768C116.578 206.768 116.087 206.853 115.607 207.024C115.127 207.184 114.722 207.403 114.391 207.68L113.751 206.528C114.188 206.176 114.711 205.909 115.319 205.728C115.938 205.536 116.583 205.44 117.255 205.44C118.418 205.44 119.314 205.723 119.943 206.288C120.572 206.853 120.887 207.717 120.887 208.88V214H119.431ZM116.647 214.096C116.018 214.096 115.463 213.989 114.983 213.776C114.514 213.563 114.151 213.269 113.895 212.896C113.639 212.512 113.511 212.08 113.511 211.6C113.511 211.141 113.618 210.725 113.831 210.352C114.055 209.979 114.412 209.68 114.903 209.456C115.404 209.232 116.076 209.12 116.919 209.12H119.607V210.224H116.983C116.215 210.224 115.698 210.352 115.431 210.608C115.164 210.864 115.031 211.173 115.031 211.536C115.031 211.952 115.196 212.288 115.527 212.544C115.858 212.789 116.316 212.912 116.903 212.912C117.479 212.912 117.98 212.784 118.407 212.528C118.844 212.272 119.159 211.899 119.351 211.408L119.655 212.464C119.452 212.965 119.095 213.365 118.583 213.664C118.071 213.952 117.426 214.096 116.647 214.096ZM134.097 205.44C134.78 205.44 135.383 205.573 135.905 205.84C136.428 206.107 136.833 206.512 137.121 207.056C137.42 207.6 137.569 208.288 137.569 209.12V214H136.033V209.296C136.033 208.475 135.841 207.856 135.457 207.44C135.073 207.024 134.535 206.816 133.841 206.816C133.329 206.816 132.881 206.923 132.497 207.136C132.113 207.349 131.815 207.664 131.601 208.08C131.399 208.496 131.297 209.013 131.297 209.632V214H129.761V209.296C129.761 208.475 129.569 207.856 129.185 207.44C128.812 207.024 128.273 206.816 127.569 206.816C127.068 206.816 126.625 206.923 126.241 207.136C125.857 207.349 125.559 207.664 125.345 208.08C125.132 208.496 125.025 209.013 125.025 209.632V214H123.489V205.52H124.961V207.776L124.721 207.2C124.988 206.645 125.399 206.213 125.953 205.904C126.508 205.595 127.153 205.44 127.889 205.44C128.7 205.44 129.399 205.643 129.985 206.048C130.572 206.443 130.956 207.045 131.137 207.856L130.513 207.6C130.769 206.949 131.217 206.427 131.857 206.032C132.497 205.637 133.244 205.44 134.097 205.44ZM145.42 214V212.208L145.34 211.872V208.816C145.34 208.165 145.148 207.664 144.764 207.312C144.39 206.949 143.825 206.768 143.068 206.768C142.566 206.768 142.076 206.853 141.596 207.024C141.116 207.184 140.71 207.403 140.38 207.68L139.74 206.528C140.177 206.176 140.7 205.909 141.308 205.728C141.926 205.536 142.572 205.44 143.244 205.44C144.406 205.44 145.302 205.723 145.932 206.288C146.561 206.853 146.876 207.717 146.876 208.88V214H145.42ZM142.636 214.096C142.006 214.096 141.452 213.989 140.972 213.776C140.502 213.563 140.14 213.269 139.884 212.896C139.628 212.512 139.5 212.08 139.5 211.6C139.5 211.141 139.606 210.725 139.82 210.352C140.044 209.979 140.401 209.68 140.892 209.456C141.393 209.232 142.065 209.12 142.908 209.12H145.596V210.224H142.972C142.204 210.224 141.686 210.352 141.42 210.608C141.153 210.864 141.02 211.173 141.02 211.536C141.02 211.952 141.185 212.288 141.516 212.544C141.846 212.789 142.305 212.912 142.892 212.912C143.468 212.912 143.969 212.784 144.396 212.528C144.833 212.272 145.148 211.899 145.34 211.408L145.644 212.464C145.441 212.965 145.084 213.365 144.572 213.664C144.06 213.952 143.414 214.096 142.636 214.096ZM153.174 214.096C152.31 214.096 151.537 213.909 150.854 213.536C150.182 213.163 149.654 212.651 149.27 212C148.886 211.349 148.694 210.603 148.694 209.76C148.694 208.917 148.886 208.171 149.27 207.52C149.654 206.869 150.182 206.363 150.854 206C151.537 205.627 152.31 205.44 153.174 205.44C153.942 205.44 154.625 205.595 155.222 205.904C155.83 206.203 156.3 206.651 156.63 207.248L155.462 208C155.185 207.584 154.844 207.28 154.438 207.088C154.044 206.885 153.617 206.784 153.158 206.784C152.604 206.784 152.108 206.907 151.67 207.152C151.233 207.397 150.886 207.744 150.63 208.192C150.374 208.629 150.246 209.152 150.246 209.76C150.246 210.368 150.374 210.896 150.63 211.344C150.886 211.792 151.233 212.139 151.67 212.384C152.108 212.629 152.604 212.752 153.158 212.752C153.617 212.752 154.044 212.656 154.438 212.464C154.844 212.261 155.185 211.952 155.462 211.536L156.63 212.272C156.3 212.859 155.83 213.312 155.222 213.632C154.625 213.941 153.942 214.096 153.174 214.096ZM152.422 217.584C152.145 217.584 151.889 217.552 151.654 217.488C151.42 217.435 151.201 217.349 150.998 217.232L151.334 216.448C151.505 216.544 151.676 216.613 151.846 216.656C152.028 216.699 152.22 216.72 152.422 216.72C152.732 216.72 152.956 216.661 153.094 216.544C153.244 216.437 153.318 216.283 153.318 216.08C153.318 215.888 153.244 215.733 153.094 215.616C152.956 215.509 152.726 215.456 152.406 215.456H151.974L152.374 213.888H153.254L153.014 214.8C153.473 214.843 153.82 214.987 154.054 215.232C154.289 215.477 154.406 215.776 154.406 216.128C154.406 216.576 154.225 216.928 153.862 217.184C153.5 217.451 153.02 217.584 152.422 217.584ZM163.643 214V212.208L163.563 211.872V208.816C163.563 208.165 163.371 207.664 162.987 207.312C162.613 206.949 162.048 206.768 161.291 206.768C160.789 206.768 160.299 206.853 159.819 207.024C159.339 207.184 158.933 207.403 158.603 207.68L157.963 206.528C158.4 206.176 158.923 205.909 159.531 205.728C160.149 205.536 160.795 205.44 161.467 205.44C162.629 205.44 163.525 205.723 164.155 206.288C164.784 206.853 165.099 207.717 165.099 208.88V214H163.643ZM160.859 214.096C160.229 214.096 159.675 213.989 159.195 213.776C158.725 213.563 158.363 213.269 158.107 212.896C157.851 212.512 157.723 212.08 157.723 211.6C157.723 211.141 157.829 210.725 158.043 210.352C158.267 209.979 158.624 209.68 159.115 209.456C159.616 209.232 160.288 209.12 161.131 209.12H163.819V210.224H161.195C160.427 210.224 159.909 210.352 159.643 210.608C159.376 210.864 159.243 211.173 159.243 211.536C159.243 211.952 159.408 212.288 159.739 212.544C160.069 212.789 160.528 212.912 161.115 212.912C161.691 212.912 162.192 212.784 162.619 212.528C163.056 212.272 163.371 211.899 163.563 211.408L163.867 212.464C163.664 212.965 163.307 213.365 162.795 213.664C162.283 213.952 161.637 214.096 160.859 214.096ZM162.699 204.24C162.443 204.24 162.213 204.187 162.011 204.08C161.819 203.973 161.643 203.851 161.483 203.712C161.323 203.563 161.168 203.435 161.019 203.328C160.869 203.221 160.72 203.168 160.571 203.168C160.336 203.168 160.144 203.259 159.995 203.44C159.856 203.611 159.776 203.851 159.755 204.16H158.891C158.912 203.563 159.061 203.088 159.339 202.736C159.616 202.384 159.989 202.208 160.459 202.208C160.715 202.208 160.944 202.267 161.147 202.384C161.349 202.491 161.531 202.619 161.691 202.768C161.851 202.907 162 203.029 162.139 203.136C162.288 203.243 162.437 203.296 162.587 203.296C162.821 203.296 163.013 203.211 163.163 203.04C163.312 202.869 163.392 202.635 163.403 202.336H164.267C164.256 202.901 164.107 203.36 163.819 203.712C163.541 204.064 163.168 204.24 162.699 204.24ZM171.333 214.096C170.48 214.096 169.723 213.909 169.061 213.536C168.4 213.163 167.877 212.651 167.493 212C167.109 211.339 166.917 210.592 166.917 209.76C166.917 208.917 167.109 208.171 167.493 207.52C167.877 206.869 168.4 206.363 169.061 206C169.723 205.627 170.48 205.44 171.333 205.44C172.176 205.44 172.928 205.627 173.589 206C174.261 206.363 174.784 206.869 175.157 207.52C175.541 208.16 175.733 208.907 175.733 209.76C175.733 210.603 175.541 211.349 175.157 212C174.784 212.651 174.261 213.163 173.589 213.536C172.928 213.909 172.176 214.096 171.333 214.096ZM171.333 212.752C171.877 212.752 172.363 212.629 172.789 212.384C173.227 212.139 173.568 211.792 173.813 211.344C174.059 210.885 174.181 210.357 174.181 209.76C174.181 209.152 174.059 208.629 173.813 208.192C173.568 207.744 173.227 207.397 172.789 207.152C172.363 206.907 171.877 206.784 171.333 206.784C170.789 206.784 170.304 206.907 169.877 207.152C169.451 207.397 169.109 207.744 168.853 208.192C168.597 208.629 168.469 209.152 168.469 209.76C168.469 210.357 168.597 210.885 168.853 211.344C169.109 211.792 169.451 212.139 169.877 212.384C170.304 212.629 170.789 212.752 171.333 212.752Z" fill="#212121"/>
<g filter="url(#filter0_bd_2013_89)">
<rect x="88" y="50.394" width="70" height="70" rx="15.1805" fill="url(#paint0_linear_2013_89)" shape-rendering="crispEdges"/>
<rect x="88.3795" y="50.7736" width="69.241" height="69.241" rx="14.801" stroke="url(#paint1_linear_2013_89)" stroke-width="0.759025" shape-rendering="crispEdges"/>
</g>
<path d="M101.447 83.0174L107.704 76.7092C107.964 76.4471 108.103 76.125 108.121 75.743C108.14 75.3611 108.001 75.0203 107.704 74.7207C107.407 74.4211 107.078 74.2713 106.718 74.2713C106.356 74.2713 106.027 74.4211 105.732 74.7207L99.0797 81.4305C98.6304 81.8837 98.4058 82.4126 98.4058 83.0174C98.4058 83.6222 98.6304 84.1512 99.0797 84.6043L105.732 91.3142C105.992 91.5763 106.311 91.7167 106.69 91.7355C107.069 91.7542 107.407 91.6137 107.704 91.3142C108.001 91.0146 108.149 90.6831 108.149 90.3199C108.149 89.9566 108.001 89.6252 107.704 89.3256L101.447 83.0174ZM143.69 83.0174L137.432 89.3256C137.173 89.5878 137.033 89.9098 137.015 90.2918C136.996 90.6738 137.135 91.0146 137.432 91.3142C137.729 91.6137 138.058 91.7635 138.418 91.7635C138.778 91.7635 139.107 91.6137 139.404 91.3142L146.056 84.6043C146.506 84.1512 146.73 83.6222 146.73 83.0174C146.73 82.4126 146.506 81.8837 146.056 81.4305L139.404 74.7207C139.144 74.4586 138.825 74.3181 138.446 74.2994C138.067 74.2807 137.729 74.4211 137.432 74.7207C137.135 75.0203 136.987 75.3517 136.987 75.715C136.987 76.0782 137.135 76.4096 137.432 76.7092L143.69 83.0174ZM97.5063 71.1369V67.8901C97.5063 66.5981 97.9361 65.5196 98.7956 64.6545C99.6552 63.7895 100.724 63.3569 102.004 63.3569H143.133C144.414 63.3569 145.483 63.7904 146.341 64.6573C147.198 65.5243 147.628 66.6028 147.63 67.8929V71.1369C147.63 71.5376 147.497 71.8718 147.232 72.1396C146.966 72.4073 146.635 72.5412 146.237 72.5412C145.84 72.5412 145.509 72.4073 145.243 72.1396C144.978 71.8718 144.845 71.5366 144.845 71.1341V67.8929C144.845 67.3892 144.685 66.9754 144.363 66.6515C144.042 66.3275 143.632 66.1656 143.133 66.1656H102.004C101.504 66.1656 101.094 66.3275 100.773 66.6515C100.452 66.9754 100.291 67.3892 100.291 67.8929V71.1369C100.291 71.5376 100.158 71.8718 99.8928 72.1396C99.6273 72.4073 99.2959 72.5412 98.8987 72.5412C98.5014 72.5412 98.17 72.4073 97.9046 72.1396C97.6391 71.8718 97.5063 71.5394 97.5063 71.1369ZM116.464 108.295C115.818 108.295 115.282 108.08 114.855 107.649C114.428 107.219 114.214 106.677 114.214 106.026V102.678H102.004C100.723 102.678 99.6533 102.245 98.7956 101.38C97.938 100.515 97.5082 99.4358 97.5063 98.142V94.9176C97.5063 94.5169 97.6391 94.1855 97.9046 93.9234C98.17 93.6612 98.5014 93.5302 98.8987 93.5302C99.2959 93.5302 99.6273 93.6641 99.8928 93.9318C100.158 94.1996 100.291 94.5329 100.291 94.9317V98.142C100.291 98.6456 100.452 99.0595 100.773 99.3834C101.094 99.7073 101.504 99.8693 102.004 99.8693H143.133C143.632 99.8693 144.042 99.7073 144.363 99.3834C144.685 99.0595 144.845 98.6456 144.845 98.142V94.9176C144.845 94.5169 144.978 94.1855 145.243 93.9234C145.509 93.6612 145.84 93.5302 146.237 93.5302C146.635 93.5302 146.966 93.6641 147.232 93.9318C147.497 94.1996 147.63 94.5329 147.63 94.9317V98.142C147.63 99.4339 147.201 100.512 146.343 101.378C145.486 102.243 144.415 102.676 143.133 102.678H130.922V106.026C130.922 106.677 130.708 107.219 130.282 107.649C129.855 108.08 129.318 108.295 128.672 108.295H116.464Z" fill="url(#paint2_linear_2013_89)"/>
<path d="M125.024 75.16H127.804L121.204 94H118.424L125.024 75.16Z" fill="url(#paint3_linear_2013_89)"/>
<defs>
<filter id="filter0_bd_2013_89" x="65.2293" y="27.6233" width="115.541" height="115.541" filterUnits="userSpaceOnUse" color-interpolation-filters="sRGB">
<feFlood flood-opacity="0" result="BackgroundImageFix"/>
<feGaussianBlur in="BackgroundImageFix" stdDeviation="11.3854"/>
<feComposite in2="SourceAlpha" operator="in" result="effect1_backgroundBlur_2013_89"/>
<feColorMatrix in="SourceAlpha" type="matrix" values="0 0 0 0 0 0 0 0 0 0 0 0 0 0 0 0 0 0 127 0" result="hardAlpha"/>
<feMorphology radius="0.759025" operator="erode" in="SourceAlpha" result="effect2_dropShadow_2013_89"/>
<feOffset dy="3.0361"/>
<feGaussianBlur stdDeviation="9.1083"/>
<feComposite in2="hardAlpha" operator="out"/>
<feColorMatrix type="matrix" values="0 0 0 0 0 0 0 0 0 0 0 0 0 0 0 0 0 0 0.2 0"/>
<feBlend mode="normal" in2="effect1_backgroundBlur_2013_89" result="effect2_dropShadow_2013_89"/>
<feBlend mode="normal" in="SourceGraphic" in2="effect2_dropShadow_2013_89" result="shape"/>
</filter>
<linearGradient id="paint0_linear_2013_89" x1="87.3402" y1="95.3055" x2="160.956" y2="113.372" gradientUnits="userSpaceOnUse">
<stop stop-color="#8A8A8A" stop-opacity="0.15"/>
<stop offset="0.626245" stop-color="#B8B8B8" stop-opacity="0.04"/>
</linearGradient>
<linearGradient id="paint1_linear_2013_89" x1="167.415" y1="-21.6921" x2="79.1911" y2="-26.557" gradientUnits="userSpaceOnUse">
<stop stop-color="#ED6D1D"/>
<stop offset="0.404403" stop-color="#E50071"/>
<stop offset="1" stop-color="#7404BF"/>
</linearGradient>
<linearGradient id="paint2_linear_2013_89" x1="154.371" y1="17.0794" x2="91.2454" y2="13.1968" gradientUnits="userSpaceOnUse">
<stop stop-color="#ED6D1D"/>
<stop offset="0.404403" stop-color="#E50071"/>
<stop offset="1" stop-color="#7404BF"/>
</linearGradient>
<linearGradient id="paint3_linear_2013_89" x1="128.076" y1="34.0165" x2="117.964" y2="33.8814" gradientUnits="userSpaceOnUse">
<stop stop-color="#ED6D1D"/>
<stop offset="0.404403" stop-color="#E50071"/>
<stop offset="1" stop-color="#7404BF"/>
</linearGradient>
</defs>
</svg>
