<?xml version="1.0" encoding="utf-8"?>
<!-- Generator: Adobe Illustrator 27.7.0, SVG Export Plug-In . SVG Version: 6.00 Build 0)  -->
<svg version="1.1" id="Camada_15" xmlns="http://www.w3.org/2000/svg" xmlns:xlink="http://www.w3.org/1999/xlink" x="0px" y="0px"
	 viewBox="0 0 2425.2 1121.8" style="enable-background:new 0 0 2425.2 1121.8;" xml:space="preserve">
<style type="text/css">
	.st0{fill:#FAF1F1;}
	.st1{enable-background:new    ;}
	.st2{font-family:'Lato-Bold';}
	.st3{font-size:312.896px;}
</style>
<path class="st0" d="M831.7,387.8c-6-9-12.6-16.6-21-24.7c-15.5-14.9-32.6-29.6-51.2-44c-46.9-36.3-95-68.8-144.4-97.4
	c-24.4-14.1-50.1-27.1-77.3-38.9c-20.3-8.8-41.9-15.8-63.8-17.7c-37.5-3.2-75.6,0.6-113.3,8c-60.4,11.8-118.4,30.8-174.2,56.8
	c-27.4,12.8-53.4,27.7-78.2,44.8C90.7,286.8,74,300.8,61.1,318c-0.3,0.3-0.3,0.8-0.1,1.2c11.7,23.3,28.4,44.5,45.6,63.5
	c30,33.2,63.5,64.9,99.5,92.1c36.9,27.8,74.2,56.1,113.2,80.8c29.9,18.9,62.6,33.7,98.1,33.5c22.7,0,45.8-4.7,66.8-11.2
	c21.3-6.6,43.3-14.5,66-23.9c36.3-15,72.4-30.8,108.1-47.2c32.3-14.9,63.9-32.1,91.4-50.8c17.8-12.1,35.5-24.5,53-37
	c12-8.6,21.7-17.5,29-29.7C832,388.8,832,388.3,831.7,387.8L831.7,387.8z M466.8,277.7c-31.2-18.8-65.5-26.8-101.5-18.1
	c-23.7,5.7-47.2,16-69.2,26.4c-0.1,0-0.1,0.1-0.2,0.1c-0.2,0.2-0.1,0.3,0.1,0.5l283,203.9c0.2,0.1,0.2,0.3,0.1,0.5
	c0,0.1-0.1,0.1-0.1,0.1l-70.2,30.4c-0.2,0-0.3,0.1-0.5,0.1c-0.2,0-0.4,0-0.5-0.2L172.6,279.9c0-0.1-0.1-0.1-0.1-0.2
	c-0.1-0.2,0-0.4,0.1-0.5c0,0,0,0,0,0c0,0,0,0,0,0c41-17.8,82-35.6,123-53.3c25.8-11.1,52.2-17.5,80-20.9c11-1.4,22.1-2,33.1-1.9
	c33,0.2,65.6,7,96.2,21c15.9,7.3,28.3,16.1,42.1,26.8c18.6,14.5,38.6,36.1,40.3,60.9c1.7,25.6-12.9,44.5-32.4,59.1
	c-8,6-16.9,11.2-25.8,15.9c-9,4.8-18,8.9-26.3,12.7c-0.1,0.1-0.2,0.1-0.4,0.1c-0.3,0.1-0.6,0-0.8-0.2l-51.6-38
	c-0.1,0-0.2-0.1-0.2-0.2c-0.1-0.2,0.1-0.5,0.3-0.6l0,0l0.1-0.1c14.2-5.9,26.4-10.8,37.3-22.4c0.3-0.3,0.6-0.6,0.9-1
	C507.4,316,485.1,288.7,466.8,277.7L466.8,277.7z"/>
<path class="st0" d="M252.3,886.1C203.7,846.3,157,801.9,115,757.2c-23.6-25.1-40.1-47.1-64.5-79c-20.2-26.3-39.1-53.5-37.2-88
	c0.5-9.8,1.7-19.6,3.4-29.3c3.2-17.7,6.3-35.3,9.4-53c6.9-39.1,12.2-78.5,16-118.1c0-0.2,0.2-0.4,0.4-0.3c0.1,0,0.1,0,0.2,0.1
	c40.5,34.7,75,75.8,115.6,110.2c58,49.1,116.1,98.1,174.3,147.1c5.9,4.9,7.8,11.3,9.1,18.8c3.5,20.5,3.9,39.9,3.3,60
	c-0.9,33.4-2.8,66.7-5.8,100c-3.2,36.2-7.2,72.3-9.9,108.5c0,0.4-0.2,0.5-0.6,0.4c-2.9-0.8-5.3-1.7-7.4-2.6
	C296.7,920.9,273.4,903.3,252.3,886.1L252.3,886.1z"/>
<path class="st0" d="M419.2,661.7c0-0.3,0.2-0.6,0.4-0.7c40.7-20.9,84.8-31.4,127.4-47.6c49.2-18.7,96.8-40.6,143-65.9
	c44.3-24.2,87-51.1,130.1-77.4c11-6.7,22.3-12.8,33.8-18.4c0.6-0.3,1-0.1,1.1,0.6l46.2,223.9c0.1,0.4-0.1,0.8-0.4,1
	c-77.9,59.3-158,115.3-242.1,165.4C582.5,888.1,503,926.5,420,957.9c-0.3,0.1-0.6,0-0.8-0.3L419.2,661.7L419.2,661.7z"/>
<g>
	<g class="st1">
		<path class="st0" d="M1111.2,514.7c-4.6,0-8.2-1.3-10.7-3.9c-2.5-2.6-3.7-6.2-3.7-10.8V331.9c0-4.8,1.3-8.5,3.9-11
			c2.6-2.5,6.2-3.7,10.8-3.7h66.3c21.1,0,37.3,5.2,48.8,15.7c11.5,10.4,17.2,25.1,17.2,44c0,19-5.7,33.8-17.2,44.2
			c-11.5,10.4-27.7,15.7-48.8,15.7h-52.1V500c0,4.6-1.2,8.2-3.6,10.8C1119.6,513.4,1116,514.7,1111.2,514.7z M1125.6,413.7h48
			c13.9,0,24.4-3.1,31.5-9.3c7.1-6.2,10.7-15.4,10.7-27.6c0-12-3.6-21.1-10.7-27.3c-7.1-6.2-17.6-9.3-31.5-9.3h-48V413.7z"/>
	</g>
</g>
<g>
	<g class="st1">
		<path class="st0" d="M1283.1,514.7c-4.6,0-8.1-1.2-10.5-3.7c-2.4-2.5-3.6-6-3.6-10.4V389.6c0-4.6,1.2-8.1,3.6-10.5
			c2.4-2.4,5.7-3.6,10-3.6c4.4,0,7.8,1.2,10.1,3.6c2.3,2.4,3.5,5.9,3.5,10.5v20.2h-2.8c3-11.1,8.4-19.5,16.4-25.2
			c7.9-5.7,18.1-9.1,30.5-10c3.3-0.2,6,0.7,7.9,2.5c1.9,1.9,3,4.7,3.2,8.6c0.4,3.9-0.5,7-2.5,9.3c-2,2.3-5.2,3.7-9.4,4l-5.3,0.6
			c-12,1.1-21.2,4.9-27.5,11.4c-6.3,6.5-9.4,15.3-9.4,26.6v63c0,4.4-1.2,7.9-3.5,10.4C1291.5,513.4,1287.9,514.7,1283.1,514.7z"/>
	</g>
</g>
<g>
	<g class="st1">
		<path class="st0" d="M1429.2,515.2c-13.7,0-25.5-2.9-35.4-8.6c-9.9-5.7-17.6-13.9-23.2-24.4c-5.5-10.5-8.3-22.9-8.3-37.2
			c0-10.9,1.6-20.6,4.7-29.1c3.1-8.5,7.6-15.8,13.5-22c5.8-6.2,12.8-10.9,21.1-14.1c8.2-3.2,17.4-4.9,27.6-4.9
			c13.5,0,25.2,2.9,35.1,8.6c9.9,5.7,17.6,13.8,23.2,24.3c5.5,10.4,8.3,22.9,8.3,37.3c0,10.7-1.6,20.4-4.7,29.1
			c-3.1,8.7-7.6,16.1-13.5,22.2c-5.8,6.1-12.9,10.8-21.1,14C1448.3,513.6,1439.2,515.2,1429.2,515.2z M1429.2,493.6
			c7.6,0,14.2-1.8,20-5.5c5.7-3.7,10.2-9.2,13.4-16.4c3.2-7.2,4.9-16.1,4.9-26.6c0-15.9-3.5-27.9-10.5-36.1
			c-7-8.1-16.3-12.2-27.7-12.2c-7.8,0-14.5,1.8-20.2,5.4c-5.7,3.6-10.2,9-13.5,16.2c-3.2,7.2-4.9,16.1-4.9,26.6
			c0,15.7,3.5,27.7,10.5,36.1C1408.3,489.4,1417.6,493.6,1429.2,493.6z"/>
		<path class="st0" d="M1588.4,565.1c-10,0-19.6-1-29-3c-9.3-2-17.8-5.4-25.4-10c-2.8-1.5-4.6-3.3-5.5-5.4c-0.9-2.1-1.2-4.3-0.7-6.5
			c0.5-2.2,1.4-4.2,2.9-5.8c1.5-1.7,3.3-2.8,5.4-3.3c2.1-0.6,4.4-0.2,6.8,1.1c8.1,4.4,15.9,7.4,23.2,9c7.3,1.6,14.1,2.4,20.4,2.4
			c12.9,0,22.6-3.3,29.1-9.8c6.5-6.6,9.7-16.2,9.7-29v-28.3h2.5c-2.8,10.2-8.6,18.2-17.5,24.1c-8.9,5.9-19.1,8.9-30.8,8.9
			c-12.2,0-22.8-2.8-31.9-8.5c-9.1-5.6-16.1-13.5-21.1-23.6c-5-10.1-7.5-21.9-7.5-35.4c0-10.2,1.4-19.3,4.3-27.5
			c2.9-8.1,6.9-15.2,12.2-21.1c5.3-5.9,11.6-10.5,19.1-13.7c7.5-3.2,15.8-4.9,24.8-4.9c11.8,0,22.1,3,30.9,8.9
			c8.8,5.9,14.5,14,17.1,24.1l-2.8,4.7v-23c0-4.6,1.2-8.1,3.7-10.5c2.5-2.4,5.9-3.6,10.1-3.6c4.4,0,7.9,1.2,10.3,3.6
			c2.4,2.4,3.6,5.9,3.6,10.5v111.8c0,21.1-5.5,37-16.4,47.7C1625.2,559.8,1609.3,565.1,1588.4,565.1z M1586.2,487.5
			c8.1,0,15.1-1.8,20.8-5.5c5.7-3.7,10.2-9,13.3-15.8c3.1-6.8,4.7-14.9,4.7-24.1c0-13.9-3.5-24.9-10.4-33
			c-6.9-8.1-16.4-12.2-28.4-12.2c-8,0-14.8,1.9-20.5,5.5c-5.7,3.7-10.2,8.9-13.5,15.7c-3.2,6.8-4.9,14.7-4.9,24
			c0,14.1,3.5,25.1,10.5,33.3C1564.9,483.4,1574.4,487.5,1586.2,487.5z"/>
	</g>
</g>
<g>
	<g class="st1">
		<path class="st0" d="M1706,514.7c-4.6,0-8.1-1.2-10.5-3.7c-2.4-2.5-3.6-6-3.6-10.4V389.6c0-4.6,1.2-8.1,3.6-10.5
			c2.4-2.4,5.7-3.6,10-3.6c4.4,0,7.8,1.2,10.1,3.6c2.3,2.4,3.5,5.9,3.5,10.5v20.2h-2.8c3-11.1,8.4-19.5,16.4-25.2
			c7.9-5.7,18.1-9.1,30.5-10c3.3-0.2,6,0.7,7.9,2.5c1.9,1.9,3,4.7,3.2,8.6c0.4,3.9-0.5,7-2.5,9.3c-2,2.3-5.2,3.7-9.4,4l-5.3,0.6
			c-12,1.1-21.2,4.9-27.5,11.4c-6.3,6.5-9.4,15.3-9.4,26.6v63c0,4.4-1.2,7.9-3.5,10.4C1714.4,513.4,1710.8,514.7,1706,514.7z"/>
	</g>
</g>
<g>
	<g class="st1">
		<path class="st0" d="M1837.2,515.2c-9.4,0-17.9-1.9-25.4-5.5s-13.4-8.7-17.6-15c-4.3-6.3-6.4-13.4-6.4-21.4
			c0-10,2.5-17.9,7.6-23.7c5.1-5.8,13.5-10,25.2-12.5c11.7-2.5,27.6-3.7,47.6-3.7h13v17.2h-12.8c-13.3,0-23.8,0.7-31.6,1.9
			c-7.8,1.3-13.3,3.5-16.5,6.5c-3.2,3-4.9,7.3-4.9,12.6c0,7,2.4,12.7,7.2,17.1c4.8,4.3,11.5,6.5,20,6.5c6.8,0,12.8-1.6,18-4.9
			c5.2-3.2,9.3-7.6,12.3-13.2c3-5.5,4.6-11.9,4.6-19.1v-31.9c0-10.5-2.2-18.1-6.7-22.7c-4.4-4.6-11.7-6.9-21.9-6.9
			c-5.9,0-12.1,0.7-18.4,2.2c-6.4,1.5-13,4-19.8,7.5c-3.1,1.5-5.8,1.9-8,1.4s-4-1.8-5.3-3.7c-1.3-1.9-2-4.1-2.1-6.4
			c-0.1-2.3,0.5-4.6,1.7-6.8c1.2-2.2,3.3-3.9,6.2-5c8.1-3.9,16.2-6.7,24.1-8.3c7.9-1.7,15.4-2.5,22.5-2.5c12.4,0,22.6,1.9,30.6,5.8
			c8,3.9,14,9.8,17.9,17.7c3.9,8,5.8,18.2,5.8,30.8v71.3c0,4.4-1.1,7.9-3.3,10.4s-5.5,3.7-9.7,3.7c-4.1,0-7.3-1.2-9.7-3.7
			c-2.4-2.5-3.6-6-3.6-10.4v-18h2.5c-1.5,6.8-4.2,12.7-8.2,17.6c-4,4.9-8.9,8.6-14.8,11.2C1851.5,513.9,1844.8,515.2,1837.2,515.2z"
			/>
		<path class="st0" d="M1957.2,514.7c-4.4,0-7.9-1.2-10.3-3.7c-2.4-2.5-3.6-6-3.6-10.4V389.6c0-4.6,1.2-8.1,3.6-10.5
			c2.4-2.4,5.7-3.6,10-3.6c4.4,0,7.8,1.2,10.1,3.6c2.3,2.4,3.5,5.9,3.5,10.5v22.7l-3.1-6.1c3.7-9.8,9.4-17.5,17.2-23
			c7.8-5.5,17.1-8.3,28-8.3c11.3,0,20.4,2.7,27.5,8c7,5.4,11.8,13.6,14.4,24.7h-3.9c3.5-10.2,9.5-18.2,18-24
			c8.5-5.8,18.4-8.7,29.7-8.7c10.4,0,18.9,2,25.5,6c6.7,4,11.6,10,15,18s5,18.2,5,30.4v71.3c0,4.4-1.2,7.9-3.7,10.4s-6,3.7-10.4,3.7
			c-4.4,0-7.9-1.2-10.3-3.7c-2.4-2.5-3.6-6-3.6-10.4v-69.9c0-11.5-2-19.9-6-25.2c-4-5.4-10.5-8-19.6-8c-10.2,0-18.2,3.5-24.1,10.5
			c-5.9,7-8.9,16.7-8.9,29.1v63.5c0,4.4-1.2,7.9-3.6,10.4c-2.4,2.5-5.8,3.7-10.3,3.7c-4.4,0-7.9-1.2-10.4-3.7s-3.7-6-3.7-10.4v-69.9
			c0-11.5-1.9-19.9-5.8-25.2c-3.9-5.4-10.4-8-19.4-8c-10.2,0-18.2,3.5-24,10.5c-5.8,7-8.7,16.7-8.7,29.1v63.5
			C1971.4,510,1966.7,514.7,1957.2,514.7z"/>
		<path class="st0" d="M2226.2,515.2c-9.4,0-17.9-1.9-25.4-5.5c-7.5-3.7-13.4-8.7-17.6-15c-4.3-6.3-6.4-13.4-6.4-21.4
			c0-10,2.5-17.9,7.6-23.7c5.1-5.8,13.5-10,25.2-12.5c11.7-2.5,27.6-3.7,47.6-3.7h13v17.2h-12.8c-13.3,0-23.8,0.7-31.6,1.9
			c-7.8,1.3-13.3,3.5-16.5,6.5c-3.2,3-4.9,7.3-4.9,12.6c0,7,2.4,12.7,7.2,17.1c4.8,4.3,11.5,6.5,20,6.5c6.8,0,12.8-1.6,18-4.9
			c5.2-3.2,9.3-7.6,12.3-13.2c3.1-5.5,4.6-11.9,4.6-19.1v-31.9c0-10.5-2.2-18.1-6.7-22.7c-4.4-4.6-11.7-6.9-21.9-6.9
			c-5.9,0-12.1,0.7-18.4,2.2c-6.4,1.5-13,4-19.8,7.5c-3.1,1.5-5.8,1.9-8,1.4s-4-1.8-5.3-3.7c-1.3-1.9-2-4.1-2.1-6.4
			c-0.1-2.3,0.5-4.6,1.7-6.8c1.2-2.2,3.3-3.9,6.2-5c8.1-3.9,16.2-6.7,24.1-8.3c7.9-1.7,15.4-2.5,22.5-2.5c12.4,0,22.6,1.9,30.6,5.8
			c8,3.9,14,9.8,17.9,17.7c3.9,8,5.8,18.2,5.8,30.8v71.3c0,4.4-1.1,7.9-3.3,10.4s-5.5,3.7-9.7,3.7c-4.1,0-7.3-1.2-9.7-3.7
			c-2.4-2.5-3.6-6-3.6-10.4v-18h2.5c-1.5,6.8-4.2,12.7-8.2,17.6c-4,4.9-8.9,8.6-14.8,11.2C2240.6,513.9,2233.8,515.2,2226.2,515.2z"
			/>
		<path class="st0" d="M2346,514.7c-4.6,0-8.1-1.2-10.5-3.7c-2.4-2.5-3.6-6-3.6-10.4V389.6c0-4.6,1.2-8.1,3.6-10.5
			c2.4-2.4,5.7-3.6,10-3.6c4.4,0,7.8,1.2,10.1,3.6c2.3,2.4,3.5,5.9,3.5,10.5v20.2h-2.8c3-11.1,8.4-19.5,16.4-25.2
			c7.9-5.7,18.1-9.1,30.5-10c3.3-0.2,6,0.7,7.9,2.5c1.9,1.9,3,4.7,3.2,8.6c0.4,3.9-0.5,7-2.5,9.3c-2,2.3-5.2,3.7-9.4,4l-5.3,0.6
			c-12,1.1-21.2,4.9-27.5,11.4c-6.3,6.5-9.4,15.3-9.4,26.6v63c0,4.4-1.2,7.9-3.5,10.4C2354.4,513.4,2350.9,514.7,2346,514.7z"/>
	</g>
</g>
<path class="st0" d="M1151.1,764.2c-13.1,0-24.4-2.9-33.8-8.7c-9.4-5.8-16.7-14-21.8-24.7c-5.1-10.6-7.6-23-7.6-37
	c0-10.7,1.4-20.3,4.3-28.7c2.9-8.4,7-15.6,12.5-21.5c5.4-5.9,12.1-10.5,20-13.7c7.9-3.2,16.7-4.8,26.5-4.8c6.8,0,13.9,1.2,21.1,3.5
	s13.8,6.2,19.7,11.5c1.3,1.1,2.1,2.4,2.5,3.9c0.4,1.5,0.3,2.9-0.3,4.3s-1.4,2.5-2.5,3.3s-2.4,1.3-4,1.4c-1.6,0.1-3.2-0.6-4.8-2.1
	c-5.2-4.2-10.4-7.2-15.7-8.7c-5.3-1.6-10.4-2.4-15.4-2.4c-7.6,0-14.2,1.2-20,3.6c-5.7,2.4-10.6,5.9-14.6,10.5c-4,4.6-7,10.3-9,17.1
	c-2,6.8-3.1,14.5-3.1,23.2c0,17.4,4,31,12.1,40.9c8,9.9,19.6,14.8,34.5,14.8c5,0,10.1-0.8,15.4-2.4c5.3-1.6,10.5-4.5,15.7-8.7
	c1.7-1.5,3.3-2.2,4.8-2.1c1.6,0.1,2.9,0.5,4,1.4c1.1,0.8,1.9,1.9,2.4,3.3c0.5,1.4,0.5,2.8,0.1,4.3s-1.2,2.8-2.5,3.9
	c-5.7,5.4-12.2,9.2-19.4,11.4S1157.9,764.3,1151.1,764.2L1151.1,764.2z"/>
<path class="st0" d="M1274.2,764.2c-12.6,0-23.5-2.9-32.7-8.6c-9.2-5.7-16.4-13.8-21.5-24.1c-5.1-10.3-7.6-22.7-7.6-36.9
	c0-10.5,1.4-20.1,4.3-28.6c2.9-8.5,7-15.8,12.5-22c5.4-6.2,12-10.9,19.7-14.1c7.7-3.2,16.1-4.8,25.4-4.8c12.8,0,23.8,2.9,33,8.6
	c9.2,5.7,16.4,13.8,21.5,24.3s7.6,22.7,7.6,36.8c0,10.7-1.4,20.3-4.3,28.8c-2.9,8.5-7,15.8-12.5,21.9c-5.5,6.1-12,10.8-19.6,14
	C1292.4,762.6,1283.8,764.3,1274.2,764.2L1274.2,764.2z M1274.2,750.1c9.2,0,17.2-2.2,24-6.5c6.8-4.3,11.9-10.7,15.5-19
	c3.6-8.3,5.4-18.3,5.4-30c0-17.6-4-31.2-12.1-40.8c-8-9.6-19-14.4-32.9-14.4c-9.1,0-17,2.2-23.7,6.5c-6.8,4.3-11.9,10.6-15.5,18.9
	s-5.4,18.2-5.4,29.8c0,17.8,4.1,31.4,12.2,41C1249.9,745.3,1260.7,750.1,1274.2,750.1L1274.2,750.1z"/>
<path class="st0" d="M1381.5,763.7c-2.8,0-4.9-0.7-6.4-2.2s-2.2-3.6-2.2-6.4V634.5c0-3,0.7-5.2,2.2-6.7c1.5-1.5,3.6-2.2,6.4-2.2
	c2.6,0,4.6,0.7,6,2.2c1.4,1.5,2.1,3.7,2.1,6.7v26.3l-3.1-1.9c3.3-10.9,9-19.3,16.9-25.1c7.9-5.8,17.5-8.7,28.6-8.7
	c11.8,0,21.3,2.9,28.4,8.6c7.1,5.7,11.8,14.3,14,25.8h-4.2c3.1-10.3,9-18.7,17.6-25c8.6-6.3,18.7-9.4,30.4-9.4
	c10,0,18.3,1.9,24.8,5.8c6.6,3.9,11.5,9.7,14.8,17.3c3.3,7.7,5,17.3,5,29v77.9c0,2.8-0.7,4.9-2.2,6.4s-3.6,2.2-6.4,2.2
	c-2.6,0-4.6-0.7-6.1-2.2s-2.2-3.6-2.2-6.4v-76.5c0-13.5-2.4-23.3-7.1-29.5s-12.6-9.3-23.7-9.3c-11.8,0-21.3,4.1-28.3,12.3
	c-7,8.2-10.5,19.4-10.5,33.4v69.6c0,2.8-0.7,4.9-2.2,6.4s-3.5,2.2-6.1,2.2c-2.8,0-4.9-0.7-6.4-2.2s-2.2-3.6-2.2-6.4v-76.5
	c0-13.5-2.4-23.3-7.1-29.5s-12.5-9.3-23.4-9.3c-12,0-21.5,4.1-28.6,12.3c-7,8.2-10.5,19.4-10.5,33.4v69.6
	C1389.8,760.8,1387.1,763.7,1381.5,763.7L1381.5,763.7z"/>
<path class="st0" d="M1725.7,763.7c-2.8,0-5.1-0.7-6.9-2.2c-1.8-1.5-3.5-3.7-5-6.7l-49.9-116.5c-0.9-2.2-1.2-4.3-1-6.2
	s1.1-3.5,2.5-4.7s3.4-1.8,6-1.8c2.4,0,4.2,0.5,5.4,1.7c1.2,1.1,2.3,2.9,3.2,5.3l49.4,119.2h-6.9l49.6-119.2c0.9-2.4,2-4.2,3.3-5.3
	c1.3-1.1,3.1-1.7,5.6-1.7s4.2,0.6,5.4,1.8c1.2,1.2,1.9,2.7,2.1,4.6c0.2,1.8-0.2,3.9-1.1,6.1l-49.9,116.8c-1.1,3-2.7,5.2-4.7,6.7
	C1730.6,763,1728.3,763.7,1725.7,763.7L1725.7,763.7z"/>
<path class="st0" d="M1870.2,764.2c-12.6,0-23.5-2.9-32.7-8.6c-9.2-5.7-16.4-13.8-21.5-24.1c-5.1-10.3-7.6-22.7-7.6-36.9
	c0-10.5,1.4-20.1,4.3-28.6c2.9-8.5,7-15.8,12.5-22c5.4-6.2,12-10.9,19.7-14.1c7.7-3.2,16.1-4.8,25.4-4.8c12.8,0,23.8,2.9,33,8.6
	c9.2,5.7,16.4,13.8,21.5,24.3c5.1,10.5,7.6,22.7,7.6,36.8c0,10.7-1.4,20.3-4.3,28.8c-2.9,8.5-7,15.8-12.5,21.9
	c-5.5,6.1-12,10.8-19.6,14S1879.8,764.3,1870.2,764.2L1870.2,764.2z M1870.2,750.1c9.2,0,17.2-2.2,24-6.5c6.8-4.3,11.9-10.7,15.5-19
	s5.4-18.3,5.4-30c0-17.6-4-31.2-12.1-40.8c-8-9.6-19-14.4-32.9-14.4c-9.1,0-17,2.2-23.7,6.5c-6.8,4.3-11.9,10.6-15.5,18.9
	s-5.4,18.2-5.4,29.8c0,17.8,4.1,31.4,12.2,41C1845.9,745.3,1856.7,750.1,1870.2,750.1L1870.2,750.1z"/>
<path class="st0" d="M2023.2,764.2c-13.1,0-24.4-2.9-33.8-8.7c-9.4-5.8-16.7-14-21.8-24.7c-5.1-10.6-7.6-23-7.6-37
	c0-10.7,1.4-20.3,4.3-28.7c2.9-8.4,7-15.6,12.5-21.5c5.4-5.9,12.1-10.5,20-13.7c7.9-3.2,16.7-4.8,26.5-4.8c6.8,0,13.9,1.2,21.1,3.5
	s13.8,6.2,19.7,11.5c1.3,1.1,2.1,2.4,2.5,3.9c0.4,1.5,0.3,2.9-0.3,4.3s-1.4,2.5-2.5,3.3s-2.4,1.3-4,1.4c-1.6,0.1-3.2-0.6-4.9-2.1
	c-5.2-4.2-10.4-7.2-15.7-8.7c-5.3-1.6-10.4-2.4-15.4-2.4c-7.6,0-14.2,1.2-20,3.6c-5.7,2.4-10.6,5.9-14.6,10.5c-4,4.6-7,10.3-9,17.1
	c-2,6.8-3.1,14.5-3.1,23.2c0,17.4,4,31,12.1,40.9c8,9.9,19.6,14.8,34.5,14.8c5,0,10.1-0.8,15.4-2.4c5.3-1.6,10.5-4.5,15.7-8.7
	c1.7-1.5,3.3-2.2,4.9-2.1c1.6,0.1,2.9,0.5,4,1.4s1.9,1.9,2.4,3.3c0.5,1.4,0.5,2.8,0.1,4.3s-1.2,2.8-2.5,3.9
	c-5.7,5.4-12.2,9.2-19.4,11.4S2030.1,764.3,2023.2,764.2L2023.2,764.2z"/>
<path class="st0" d="M2166.6,604.1c0.6,1.1,0.8,2,0.5,2.9s-0.9,1.4-1.8,1.8s-1.8,0.5-2.7,0.4s-1.7-0.7-2.4-1.5l-17.8-24.7l-17,25.2
	c-0.6,0.9-1.4,1.4-2.3,1.6s-1.8,0.1-2.7-0.3s-1.5-1-1.8-1.8s-0.2-1.8,0.4-2.9l16.1-26.8c0.9-1.5,1.9-2.7,3.1-3.3
	c1.2-0.7,2.6-1,4.1-1s2.9,0.3,4.1,0.9c1.2,0.6,2.3,1.7,3.2,3.2L2166.6,604.1L2166.6,604.1z"/>
<path class="st0" d="M2164.8,762.8c-13.6,2.6-25.9,2.1-36.7-1.5c-10.8-3.6-19.9-10-27-19.2s-12.1-20.8-14.7-34.8
	c-2.6-13.8-2.2-26.3,1.1-37.6c3.3-11.3,9.1-20.7,17.4-28.3c8.3-7.6,18.5-12.5,30.6-14.8c8.9-1.7,17-1.7,24.4,0
	c7.4,1.7,14,4.9,19.9,9.5c5.9,4.6,10.8,10.7,14.8,18.1c4,7.4,7,16.1,8.9,26.1c0.5,2.5,0.2,4.6-1,6.1c-1.1,1.5-2.9,2.5-5.2,3
	l-98.4,18.6l-2.3-12.3l95.6-18l-3.7,4.4c-2-10.5-5.2-19.2-9.7-26c-4.5-6.8-10.1-11.6-17-14.4s-14.7-3.4-23.6-1.8
	c-10,1.9-18,5.8-24,11.7c-6,5.9-10,13.3-11.9,22c-1.9,8.7-1.9,18.4,0.1,28.9l0.3,1.4c3.3,17.4,10.1,30,20.4,37.8
	c10.3,7.8,23.2,10.2,38.6,7.2c6.7-1.3,13.1-3.4,19-6.4c5.9-3,11.5-7.2,16.6-12.7c1.6-1.6,3.2-2.6,4.9-2.9c1.7-0.3,3.3-0.1,4.6,0.5
	c1.4,0.7,2.4,1.7,3.1,2.9c0.7,1.3,0.9,2.8,0.6,4.4c-0.4,1.7-1.3,3.3-2.9,4.9c-4.9,5.8-11.2,10.7-18.9,14.7
	C2180.9,758.5,2172.9,761.3,2164.8,762.8L2164.8,762.8z"/>
<text transform="matrix(0.625 0 0 1 2235.1201 802.3594)" class="st0 st2 st3">&gt;</text>
<text transform="matrix(-0.625 0 0 -1 1060.7109 318.2197)" class="st0 st2 st3">&gt;</text>
</svg>
