<svg width="77" height="77" viewBox="0 0 77 77" fill="none" xmlns="http://www.w3.org/2000/svg">
<circle cx="38.5" cy="38.5" r="38.5" fill="#26D366"/>
<path d="M48.6694 41.1819L48.6532 41.3175C44.6773 39.3359 44.2615 39.0719 43.748 39.8421C43.3918 40.3755 42.354 41.585 42.0413 41.943C41.7249 42.2956 41.4103 42.3227 40.8733 42.0786C40.3309 41.8074 38.5898 41.2379 36.5286 39.3937C34.9231 37.9564 33.8455 36.1936 33.5273 35.6512C32.9976 34.7363 34.1059 34.6061 35.1148 32.6969C35.2956 32.3172 35.2034 32.0189 35.0696 31.7495C34.934 31.4783 33.8546 28.8205 33.4026 27.761C32.9687 26.7051 32.5221 26.8389 32.1876 26.8389C31.1462 26.7485 30.385 26.763 29.7142 27.4609C26.7961 30.6683 27.532 33.9769 30.0288 37.4953C34.9358 43.9174 37.5502 45.0998 42.3305 46.7415C43.6215 47.1519 44.7985 47.0941 45.7296 46.9603C46.7674 46.7957 48.9244 45.6567 49.3746 44.382C49.8356 43.1074 49.8356 42.0497 49.7 41.8056C49.5662 41.5615 49.2118 41.4259 48.6694 41.1819Z" fill="white"/>
<path d="M54.117 21.5506C40.2152 8.11163 17.2083 17.8586 17.1992 36.8174C17.1992 40.607 18.1918 44.3026 20.083 47.5661L17.0166 58.707L28.4704 55.7202C42.7627 63.4404 60.4016 53.189 60.4089 36.8283C60.4089 31.086 58.1669 25.6819 54.0899 21.6211L54.117 21.5506ZM56.7965 36.7686C56.7856 50.5692 41.6363 59.1879 29.6546 52.1439L29.0037 51.757L22.2237 53.5198L24.0407 46.9296L23.6086 46.2516C16.1524 34.382 24.7187 18.8693 38.8429 18.8693C43.6414 18.8693 48.1451 20.7406 51.537 24.1306C54.927 27.4917 56.7965 31.9955 56.7965 36.7686Z" fill="white"/>
</svg>
